<svg width="83" height="83" viewBox="0 0 83 83" fill="none" xmlns="http://www.w3.org/2000/svg">
<path d="M21.7373 24.1182V24.6545L27.2792 52.2748C27.5874 53.8225 28.4317 55.2119 29.6634 56.1984C30.8951 57.1848 32.4354 57.7052 34.013 57.6678H66.788C68.3656 57.7052 69.9058 57.1848 71.1376 56.1984C72.3693 55.2119 73.2136 53.8225 73.5217 52.2748L78.8253 24.1182H21.7373Z" fill="#EFEFEF"/>
<path d="M34.2235 66.3984C34.8148 66.4009 35.4006 66.512 35.9517 66.7262C36.9165 67.1174 37.7144 67.8331 38.2078 68.7498C38.7013 69.6665 38.8592 70.7267 38.6543 71.7474C38.4495 72.7682 37.8947 73.6853 37.0858 74.3407C36.2769 74.996 35.2645 75.3484 34.2235 75.3371C33.0382 75.3371 31.9014 74.8662 31.0633 74.028C30.2251 73.1899 29.7542 72.0531 29.7542 70.8677C29.7468 70.2513 29.8704 69.6403 30.117 69.0752C30.3635 68.5102 30.7274 68.004 31.1844 67.5903" stroke="black" stroke-linecap="round" stroke-linejoin="round"/>
<path d="M65.5085 66.3984C66.4765 66.4045 67.4161 66.7269 68.184 67.3164C68.9519 67.9059 69.506 68.7303 69.762 69.6639C70.018 70.5975 69.9618 71.5893 69.602 72.488C69.2422 73.3867 68.5984 74.1432 67.7688 74.6422C66.9393 75.1412 65.9693 75.3553 65.0068 75.252C64.0442 75.1487 63.1418 74.7336 62.437 74.0699C61.7322 73.4063 61.2637 72.5304 61.1028 71.5758C60.9419 70.6212 61.0974 69.6401 61.5457 68.7821C61.7524 68.3823 62.0243 68.0198 62.3502 67.7094" stroke="black" stroke-linecap="round" stroke-linejoin="round"/>
<path d="M57.4039 24.5332H21.6494" stroke="black" stroke-linecap="round" stroke-linejoin="round"/>
<path d="M77.4851 31.6245L78.8259 24.5332H66.7588" stroke="black" stroke-linecap="round" stroke-linejoin="round"/>
<path d="M42.6553 58.1448H66.73C68.3074 58.1633 69.8422 57.6323 71.0708 56.6429C72.2995 55.6534 73.1455 54.2671 73.4637 52.722L74.9535 45.1242L75.8473 40.4463" stroke="black" stroke-linecap="round" stroke-linejoin="round"/>
<path d="M25.0166 40.8623L25.3444 42.5904L25.7019 44.2888L26.0296 46.0169L26.3276 47.5663L27.2811 52.7209C27.5885 54.2714 28.4316 55.6643 29.6627 56.6557C30.8938 57.6471 32.4344 58.1738 34.0148 58.1436H37.7988" stroke="black" stroke-linecap="round" stroke-linejoin="round"/>
<path d="M4.93359 7.72949H18.3415L19.2354 12.1988L19.7717 14.8804L20.5762 18.7538L21.2019 21.7333L21.8872 25.2194L22.8108 29.8675L23.4067 32.847L23.9431 35.5286" stroke="black" stroke-linecap="round" stroke-linejoin="round"/>
</svg>
