<svg width="83" height="83" viewBox="0 0 83 83" fill="none" xmlns="http://www.w3.org/2000/svg">
<mask id="mask0_514_2568" style="mask-type:luminance" maskUnits="userSpaceOnUse" x="0" y="1" width="83" height="81">
<path d="M82.3328 1.80664H0.520508V81.2616H82.3328V1.80664Z" fill="white"/>
</mask>
<g mask="url(#mask0_514_2568)">
<mask id="mask1_514_2568" style="mask-type:luminance" maskUnits="userSpaceOnUse" x="5" y="8" width="73" height="72">
<path d="M77.3057 8.16699H5.54883V79.8767H77.3057V8.16699Z" fill="white"/>
</mask>
<g mask="url(#mask1_514_2568)">
<path fill-rule="evenodd" clip-rule="evenodd" d="M28.075 40.0079H16.5548C14.0564 40.0079 11.6604 39.0154 9.89382 37.2488C8.12723 35.4822 7.13477 33.0862 7.13477 30.5879V19.0655C7.13477 16.5672 8.12723 14.1712 9.89382 12.4046C11.6604 10.638 14.0564 9.64551 16.5548 9.64551H28.0771C29.3142 9.64551 30.5391 9.88916 31.682 10.3626C32.8249 10.836 33.8634 11.5298 34.7381 12.4046C35.6128 13.2793 36.3067 14.3177 36.7801 15.4606C37.2535 16.6035 37.4971 17.8285 37.4971 19.0655V30.5836C37.4971 33.0819 36.5047 35.4779 34.7381 37.2445C32.9715 39.0111 30.5755 40.0036 28.0771 40.0036" fill="#75C9B4"/>
<path fill-rule="evenodd" clip-rule="evenodd" d="M28.075 78.2944H16.5548C14.0564 78.2944 11.6604 77.3019 9.89382 75.5353C8.12723 73.7687 7.13477 71.3727 7.13477 68.8744V57.3477C7.13477 54.8494 8.12723 52.4534 9.89382 50.6868C11.6604 48.9202 14.0564 47.9277 16.5548 47.9277H28.0771C30.5755 47.9277 32.9715 48.9202 34.7381 50.6868C36.5047 52.4534 37.4971 54.8494 37.4971 57.3477V68.8701C37.4971 71.3684 36.5047 73.7645 34.7381 75.5311C32.9715 77.2976 30.5755 78.2901 28.0771 78.2901" fill="#75C9B4"/>
<path fill-rule="evenodd" clip-rule="evenodd" d="M66.408 78.2944H54.8878C52.3894 78.2944 49.9934 77.3019 48.2268 75.5353C46.4602 73.7687 45.4678 71.3727 45.4678 68.8744V57.3477C45.4678 54.8494 46.4602 52.4534 48.2268 50.6868C49.9934 48.9202 52.3894 47.9277 54.8878 47.9277H66.4101C68.9085 47.9277 71.3045 48.9202 73.0711 50.6868C74.8377 52.4534 75.8301 54.8494 75.8301 57.3477V68.8701C75.8301 71.3684 74.8377 73.7645 73.0711 75.5311C71.3045 77.2976 68.9085 78.2901 66.4101 78.2901" fill="#75C9B4"/>
<path fill-rule="evenodd" clip-rule="evenodd" d="M61.4901 40.0078H59.8031C55.9988 40.0078 52.3503 38.4966 49.6603 35.8066C46.9702 33.1165 45.459 29.468 45.459 25.6638V23.9789C45.459 20.1746 46.9702 16.5261 49.6603 13.8361C52.3503 11.146 55.9988 9.63477 59.8031 9.63477H61.4901C65.2944 9.63477 68.9429 11.146 71.6329 13.8361C74.323 16.5261 75.8342 20.1746 75.8342 23.9789V25.6659C75.8342 29.4702 74.323 33.1187 71.6329 35.8087C68.9429 38.4987 65.2944 40.0078 61.4901 40.0078Z" fill="#75C9B4"/>
<path d="M18.7813 40.0589H16.4542C15.2168 40.0589 13.9915 39.8151 12.8483 39.3414C11.7051 38.8678 10.6665 38.1735 9.79172 37.2983C8.91694 36.4232 8.22315 35.3842 7.75001 34.2408C7.27686 33.0974 7.03362 31.872 7.03418 30.6346V22.3193" fill="#75C9B4"/>
<path d="M18.7813 40.0589H16.4542C15.2168 40.0589 13.9915 39.8151 12.8483 39.3414C11.7051 38.8678 10.6665 38.1735 9.79172 37.2983C8.91694 36.4232 8.22315 35.3842 7.75001 34.2408C7.27686 33.0974 7.03362 31.872 7.03418 30.6346V22.3193" stroke="black" stroke-miterlimit="10" stroke-linecap="round"/>
<path d="M37.4415 24.1611V30.6352C37.4415 31.8723 37.1978 33.0972 36.7244 34.2401C36.251 35.383 35.5572 36.4215 34.6824 37.2962C33.8077 38.1709 32.7692 38.8648 31.6264 39.3382C30.4835 39.8116 29.2585 40.0552 28.0215 40.0552" fill="#75C9B4"/>
<path d="M37.4415 24.1611V30.6352C37.4415 31.8723 37.1978 33.0972 36.7244 34.2401C36.251 35.383 35.5572 36.4215 34.6824 37.2962C33.8077 38.1709 32.7692 38.8648 31.6264 39.3382C30.4835 39.8116 29.2585 40.0552 28.0215 40.0552" stroke="black" stroke-miterlimit="10" stroke-linecap="round"/>
<path d="M8.33105 14.3067C9.16402 12.8902 10.3523 11.7158 11.7784 10.8995C13.2045 10.0832 14.819 9.65329 16.4622 9.65234H28.0231C29.2602 9.65234 30.4851 9.896 31.628 10.3694C32.7709 10.8428 33.8094 11.5367 34.6841 12.4114C35.5588 13.2861 36.2527 14.3246 36.7261 15.4675C37.1995 16.6104 37.4431 17.8353 37.4431 19.0723" fill="#75C9B4"/>
<path d="M8.33105 14.3067C9.16402 12.8902 10.3523 11.7158 11.7784 10.8995C13.2045 10.0832 14.819 9.65329 16.4622 9.65234H28.0231C29.2602 9.65234 30.4851 9.896 31.628 10.3694C32.7709 10.8428 33.8094 11.5367 34.6841 12.4114C35.5588 13.2861 36.2527 14.3246 36.7261 15.4675C37.1995 16.6104 37.4431 17.8353 37.4431 19.0723" stroke="black" stroke-miterlimit="10" stroke-linecap="round"/>
<path d="M16.4591 78.3887C14.6248 78.3881 12.8305 77.8527 11.2959 76.8481C9.76121 75.8435 8.55272 74.4132 7.81836 72.7324" fill="#75C9B4"/>
<path d="M16.4591 78.3887C14.6248 78.3881 12.8305 77.8527 11.2959 76.8481C9.76121 75.8435 8.55272 74.4132 7.81836 72.7324" stroke="black" stroke-miterlimit="10" stroke-linecap="round"/>
<path d="M25.7945 47.9834H28.0147C29.2767 47.9817 30.5262 48.2344 31.6885 48.7263C33.396 49.4462 34.8529 50.6544 35.8763 52.1992C36.8997 53.744 37.4441 55.5567 37.4411 57.4098V68.9707C37.4432 70.5939 37.025 72.1901 36.2272 73.6037C35.2016 75.4189 33.6043 76.8439 31.6842 77.6564C30.5234 78.1453 29.2763 78.3965 28.0168 78.395H23.3496" fill="#75C9B4"/>
<path d="M25.7945 47.9834H28.0147C29.2767 47.9817 30.5262 48.2344 31.6885 48.7263C33.396 49.4462 34.8529 50.6544 35.8763 52.1992C36.8997 53.744 37.4441 55.5567 37.4411 57.4098V68.9707C37.4432 70.5939 37.025 72.1901 36.2272 73.6037C35.2016 75.4189 33.6043 76.8439 31.6842 77.6564C30.5234 78.1453 29.2763 78.3965 28.0168 78.395H23.3496" stroke="black" stroke-miterlimit="10" stroke-linecap="round"/>
<path d="M7.03419 64.0673V57.4048C7.03176 55.6897 7.49895 54.0068 8.3851 52.5385C8.93738 51.6261 9.6386 50.8127 10.4596 50.1321C11.5222 49.2538 12.7646 48.6194 14.0992 48.2738C14.8689 48.0784 15.66 47.9799 16.4542 47.9805H20.8516" fill="#75C9B4"/>
<path d="M7.03419 64.0673V57.4048C7.03176 55.6897 7.49895 54.0068 8.3851 52.5385C8.93738 51.6261 9.6386 50.8127 10.4596 50.1321C11.5222 49.2538 12.7646 48.6194 14.0992 48.2738C14.8689 48.0784 15.66 47.9799 16.4542 47.9805H20.8516" stroke="black" stroke-miterlimit="10" stroke-linecap="round"/>
<path d="M45.4121 66.2552V57.409C45.4105 56.1277 45.6698 54.8595 46.1743 53.6816" fill="#75C9B4"/>
<path d="M45.4121 66.2552V57.409C45.4105 56.1277 45.6698 54.8595 46.1743 53.6816" stroke="black" stroke-miterlimit="10" stroke-linecap="round"/>
<path d="M75.82 63.6113V68.9636C75.8202 69.6021 75.7563 70.239 75.6294 70.8647C75.1928 72.9912 74.0351 74.9016 72.3522 76.2728C70.6693 77.6441 68.5644 78.392 66.3936 78.39H54.8326C53.2527 78.3908 51.6979 77.9941 50.3114 77.2365C48.9249 76.4789 47.7513 75.3847 46.8984 74.0547" fill="#75C9B4"/>
<path d="M75.82 63.6113V68.9636C75.8202 69.6021 75.7563 70.239 75.6294 70.8647C75.1928 72.9912 74.0351 74.9016 72.3522 76.2728C70.6693 77.6441 68.5644 78.392 66.3936 78.39H54.8326C53.2527 78.3908 51.6979 77.9941 50.3114 77.2365C48.9249 76.4789 47.7513 75.3847 46.8984 74.0547" stroke="black" stroke-miterlimit="10" stroke-linecap="round"/>
<path d="M50.5752 48.9982C51.8967 48.3281 53.3582 47.9803 54.8399 47.9834H66.4008C68.8991 47.9834 71.2951 48.9759 73.0617 50.7425C74.8283 52.5091 75.8208 54.9051 75.8208 57.4034" fill="#75C9B4"/>
<path d="M50.5752 48.9982C51.8967 48.3281 53.3582 47.9803 54.8399 47.9834H66.4008C68.8991 47.9834 71.2951 48.9759 73.0617 50.7425C74.8283 52.5091 75.8208 54.9051 75.8208 57.4034" stroke="black" stroke-miterlimit="10" stroke-linecap="round"/>
<path d="M74.9543 19.0762C75.5269 20.6544 75.8168 22.3213 75.8106 24.0003V25.713C75.8125 26.953 75.6527 28.188 75.3353 29.3868C75.1384 30.1409 74.8784 30.8771 74.5582 31.5876C73.7965 33.2773 72.7155 34.8039 71.3747 36.0836C70.881 36.5541 70.3552 36.9897 69.8011 37.3874C67.3712 39.1266 64.4569 40.0596 61.4687 40.0549H59.7559C58.7757 40.0556 57.7979 39.9559 56.8379 39.7574" fill="#75C9B4"/>
<path d="M74.9543 19.0762C75.5269 20.6544 75.8168 22.3213 75.8106 24.0003V25.713C75.8125 26.953 75.6527 28.188 75.3353 29.3868C75.1384 30.1409 74.8784 30.8771 74.5582 31.5876C73.7965 33.2773 72.7155 34.8039 71.3747 36.0836C70.881 36.5541 70.3552 36.9897 69.8011 37.3874C67.3712 39.1266 64.4569 40.0596 61.4687 40.0549H59.7559C58.7757 40.0556 57.7979 39.9559 56.8379 39.7574" stroke="black" stroke-miterlimit="10" stroke-linecap="round"/>
<path d="M63.4355 9.78613C66.9116 10.2637 70.0914 12.0007 72.3717 14.6674Z" fill="#75C9B4"/>
<path d="M63.4355 9.78613C66.9116 10.2637 70.0914 12.0007 72.3717 14.6674" stroke="black" stroke-miterlimit="10" stroke-linecap="round"/>
<path d="M45.8047 20.6545C46.1763 19.1005 46.8059 17.6199 47.6673 16.2742C49.1282 13.9874 51.2064 12.1607 53.6618 11.0054C55.5686 10.1117 57.649 9.6497 59.7549 9.65236" fill="#75C9B4"/>
<path d="M45.8047 20.6545C46.1763 19.1005 46.8059 17.6199 47.6673 16.2742C49.1282 13.9874 51.2064 12.1607 53.6618 11.0054C55.5686 10.1117 57.649 9.6497 59.7549 9.65236" stroke="black" stroke-miterlimit="10" stroke-linecap="round"/>
<path d="M50.162 36.3807C49.1576 35.4778 48.2855 34.4377 47.5715 33.2913C46.1547 31.0192 45.4054 28.3945 45.4092 25.7168" fill="#75C9B4"/>
<path d="M50.162 36.3807C49.1576 35.4778 48.2855 34.4377 47.5715 33.2913C46.1547 31.0192 45.4054 28.3945 45.4092 25.7168" stroke="black" stroke-miterlimit="10" stroke-linecap="round"/>
</g>
</g>
</svg>
