<svg width="83" height="83" viewBox="0 0 83 83" fill="none" xmlns="http://www.w3.org/2000/svg">
<path d="M39.6203 6.57227C20.2773 7.17185 5.07914 22.2136 5.57119 40.2565C5.09543 58.2928 20.287 73.3215 39.6203 73.9407C58.9732 73.3411 74.1909 58.2994 73.7151 40.2565C74.1941 22.2071 58.9765 7.17185 39.6203 6.57227ZM53.9256 54.3825L36.2053 43.603V23.3997H41.3539V40.9114L56.6694 50.003L53.9256 54.3825Z" fill="#DB6637"/>
<path d="M39.6087 6.57227C38.0013 6.60934 36.3989 6.76728 34.8152 7.04476C33.1439 7.30308 31.4938 7.68428 29.8785 8.18528C28.7548 8.50415 27.6514 8.89045 26.5742 9.34208C24.6233 10.1172 22.7454 11.0649 20.9629 12.1738C19.7847 12.8852 18.6597 13.6814 17.5968 14.5558C16.5558 15.3828 15.5697 16.2765 14.6445 17.2312C12.8607 19.0968 11.3152 21.1764 10.0433 23.4225M71.6114 51.8701C73.0074 48.1639 73.6714 44.222 73.5666 40.263V36.9066C73.2769 33.429 72.4067 30.0244 70.9923 26.8343C70.3644 25.4765 69.6459 24.1624 68.8416 22.9011C67.9326 21.3682 66.8878 19.9199 65.7198 18.5737C64.6079 17.312 63.4102 16.1285 62.1354 15.0316C60.8739 13.9939 59.5494 13.0351 58.1697 12.1608C56.4602 11.0885 54.6677 10.1546 52.8093 9.36815C51.861 9.01622 50.9747 8.65777 50.0362 8.38079M47.967 72.7089C49.9683 72.2123 51.9181 71.5271 53.7901 70.6625C55.7481 69.8043 57.614 68.7496 59.3591 67.5147C61.4521 66.0984 63.3772 64.4488 65.0975 62.5975M6.24706 32.7356C5.73351 35.206 5.50717 37.7275 5.57253 40.2499C5.48754 41.4813 5.48754 42.7171 5.57253 43.9485C5.79041 46.2646 6.27144 48.5484 7.00632 50.7557C7.4993 52.2364 8.09154 53.6821 8.779 55.0831C9.32644 56.1063 9.91951 57.1686 10.5517 58.1527C11.7935 59.9504 13.2068 61.6234 14.7716 63.1482C16.0667 64.4553 17.4781 65.642 18.9882 66.6935C19.6247 67.2062 20.2862 67.6917 20.9727 68.1501C23.6024 69.8236 26.4397 71.1459 29.4125 72.0833C30.7976 72.518 32.2065 72.8727 33.6324 73.1456C35.5411 73.4978 37.4733 73.708 39.4131 73.7745" stroke="#636058" stroke-width="0.7" stroke-linecap="round" stroke-linejoin="round"/>
</svg>
