<svg width="83" height="83" viewBox="0 0 83 83" fill="none" xmlns="http://www.w3.org/2000/svg">
<path d="M74.1644 14.7891H8.17404C4.40447 14.7891 1.34863 17.8449 1.34863 21.6145V61.4523C1.34863 65.2219 4.40447 68.2777 8.17404 68.2777H74.1644C77.934 68.2777 80.9898 65.2219 80.9898 61.4523V21.6145C80.9898 17.8449 77.934 14.7891 74.1644 14.7891Z" fill="#8ECBCC"/>
<path d="M81.4382 34.7944H78.0255H74.8081H71.924H65.811H62.5822H58.2502H54.0332H48.4832H43.255H37.2569H33.1433H28.8114H22.9282H19.9291H14.7699H10.7022H7.69168H4.3709H0.820312V32.6916V29.3708V25.5904V23.9473H4.3709H6.48517H10.1507H13.6208H19.1478H23.9279H28.2598H31.1439H35.5908H41.1752H47.3686H51.9304H55.5844H64.4896H69.1433H73.3603H77.5774H81.4382V34.7944Z" fill="black"/>
<path d="M1.34863 54.9019V51.2709V48.0076V42.1934" stroke="#636059" stroke-linecap="round" stroke-linejoin="round"/>
<path d="M25.904 68.2773H8.17405C6.98759 68.2782 5.82205 67.965 4.79582 67.3696C3.74755 66.7752 2.876 65.913 2.27031 64.8712C1.66463 63.8295 1.34656 62.6455 1.34864 61.4404" stroke="#636059" stroke-linecap="round" stroke-linejoin="round"/>
<path d="M64.0642 68.2773H60.9388H55.2624H48.8852H44.197H39.8076" stroke="#636059" stroke-linecap="round" stroke-linejoin="round"/>
<path d="M80.9903 49.1465V61.4414C80.9754 63.248 80.2518 64.9766 78.9754 66.2552C77.6989 67.5338 75.9716 68.2603 74.1649 68.2783H70.7178" stroke="#636059" stroke-linecap="round" stroke-linejoin="round"/>
<path d="M74.1641 14.7891C74.81 14.7865 75.4528 14.8794 76.0715 15.0649C77.4914 15.4743 78.7394 16.3349 79.6267 17.5166C80.514 18.6983 80.9924 20.1368 80.9895 21.6145V40.6429" stroke="#636059" stroke-linecap="round" stroke-linejoin="round"/>
<path d="M5.51953 15.3636C6.35669 14.9956 7.25946 14.8002 8.17385 14.7891H64.4777" stroke="#636059" stroke-linecap="round" stroke-linejoin="round"/>
<path d="M1.34863 38.5056V35.9547V30.8414V21.626" stroke="#636059" stroke-linecap="round" stroke-linejoin="round"/>
<path d="M12.483 34.7944H8.15105H1.34863V23.9473H3.01477" stroke="#636059" stroke-linecap="round" stroke-linejoin="round"/>
<path d="M55.5848 34.7949H51.9308H48.9203H45.1514H40.4747H35.4763H31.0409H26.5941H23.3652" stroke="#636059" stroke-linecap="round" stroke-linejoin="round"/>
<path d="M68.3624 23.9473H71.3615H76.5897H80.9906V34.7944H76.2565H72.9242H68.8106H62.8125" stroke="#636059" stroke-linecap="round" stroke-linejoin="round"/>
<path d="M43.9209 23.9473H48.3678H51.2519H53.5845H58.8127H62.0301" stroke="#636059" stroke-linecap="round" stroke-linejoin="round"/>
<path d="M9.19629 23.9473H12.4596H16.0447H18.6415H19.3884H20.8018H24.2375H27.3284H32.4992H37.2563" stroke="#636059" stroke-linecap="round" stroke-linejoin="round"/>
<path d="M18.8373 52.9961H10.7019C9.03927 52.9961 7.69141 54.344 7.69141 56.0066V60.3616C7.69141 62.0242 9.03927 63.3721 10.7019 63.3721H18.8373C20.4999 63.3721 21.8478 62.0242 21.8478 60.3616V56.0066C21.8478 54.344 20.4999 52.9961 18.8373 52.9961Z" fill="#EBBC45"/>
<path d="M7.66895 58.7067V56.0064C7.67033 55.5036 7.79716 55.0091 8.03794 54.5677C8.27871 54.1263 8.62582 53.7519 9.04781 53.4785" stroke="#636059" stroke-linecap="round" stroke-linejoin="round"/>
<path d="M14.241 63.3709H10.7134C10.3153 63.372 9.92108 63.2933 9.55397 63.1393C9.18686 62.9854 8.85437 62.7593 8.57617 62.4746" stroke="#636059" stroke-linecap="round" stroke-linejoin="round"/>
<path d="M21.8477 59.3496V60.3608C21.8468 61.0132 21.6348 61.6478 21.2433 62.1697C20.8519 62.6916 20.3021 63.0728 19.676 63.2564C19.4036 63.3356 19.1209 63.3743 18.8372 63.3713H16.6885" stroke="#636059" stroke-linecap="round" stroke-linejoin="round"/>
<path d="M13.6201 52.9961H18.8368C19.6344 52.9991 20.3983 53.3173 20.9623 53.8812C21.5262 54.4451 21.8443 55.2091 21.8474 56.0066V57.351" stroke="#636059" stroke-linecap="round" stroke-linejoin="round"/>
</svg>
