<svg width="83" height="83" viewBox="0 0 83 83" fill="none" xmlns="http://www.w3.org/2000/svg">
<path d="M71.0188 8.59863H11.1855V74.652H71.0188V8.59863Z" fill="white"/>
<path d="M11.1855 8.22559H24.4342" stroke="#636058" stroke-miterlimit="10" stroke-linecap="round"/>
<path d="M41.394 59.8076C50.7567 59.8076 58.3467 52.2177 58.3467 42.855C58.3467 33.4923 50.7567 25.9023 41.394 25.9023C32.0314 25.9023 24.4414 33.4923 24.4414 42.855C24.4414 52.2177 32.0314 59.8076 41.394 59.8076Z" fill="#EFEFEF"/>
<path d="M47.7959 26.8506C48.7335 27.2376 49.6344 27.708 50.4878 28.2563" stroke="#636058" stroke-miterlimit="10" stroke-linecap="round"/>
<path d="M58.4865 41.0627C48.5271 43.7195 44.9075 41.4212 37.5768 39.9944C31.5253 38.7996 26.1485 42.3981 24.4336 43.6773C24.6578 47.9048 26.4454 51.8981 29.4491 54.8814C32.4528 57.8647 36.4582 59.625 40.6872 59.8204C44.9162 60.0157 49.0668 58.6322 52.3328 55.9386C55.5987 53.245 57.7469 49.4335 58.3599 45.2446C58.5448 43.8586 58.5872 42.4574 58.4865 41.0627Z" fill="#D1EDE9"/>
<path d="M35.5397 58.732C32.1611 57.4664 29.2701 55.1634 27.2812 52.1533" stroke="#636058" stroke-miterlimit="10" stroke-linecap="round"/>
<path d="M54.3047 31.4482C54.4312 31.5888 54.5577 31.7364 54.6772 31.884C57.1999 34.9399 58.577 38.7803 58.571 42.743" stroke="#636058" stroke-miterlimit="10" stroke-linecap="round"/>
<path d="M26.3672 34.8491C27.8122 32.0827 29.987 29.7648 32.6558 28.1467C35.3246 26.5286 38.3855 25.672 41.5065 25.6699" stroke="#636058" stroke-miterlimit="10" stroke-linecap="round"/>
<path d="M58.5709 42.7432C58.5709 47.2691 56.773 51.6097 53.5727 54.81C50.3724 58.0103 46.0318 59.8083 41.5059 59.8083" stroke="#636058" stroke-miterlimit="10" stroke-linecap="round"/>
<path d="M11.1855 21.6363V8.3877" stroke="#636058" stroke-miterlimit="10" stroke-linecap="round"/>
<path d="M11.1855 28.2221V24.9258" stroke="#636058" stroke-miterlimit="10" stroke-linecap="round"/>
<path d="M11.1855 74.6512V42.3203" stroke="#636058" stroke-miterlimit="10" stroke-linecap="round"/>
<path d="M71.0191 74.6523H57.7705" stroke="#636058" stroke-miterlimit="10" stroke-linecap="round"/>
<path d="M71.0195 32.5928V74.4894" stroke="#636058" stroke-miterlimit="10" stroke-linecap="round"/>
<path d="M71.1035 29.2758V25.9795" stroke="#636058" stroke-miterlimit="10" stroke-linecap="round"/>
<path d="M57.8545 8.59863H71.1031" stroke="#636058" stroke-miterlimit="10" stroke-linecap="round"/>
<path d="M71.1035 11.895V8.59863" stroke="#636058" stroke-miterlimit="10" stroke-linecap="round"/>
<path d="M47.186 74.8418H19.3252" stroke="#636058" stroke-miterlimit="10" stroke-linecap="round"/>
<path d="M71.0189 17.1172H11.5371" stroke="#636058" stroke-miterlimit="10" stroke-linecap="round"/>
<path d="M16.2956 14.9105C17.53 14.9105 18.5306 13.9099 18.5306 12.6755C18.5306 11.4411 17.53 10.4404 16.2956 10.4404C15.0612 10.4404 14.0605 11.4411 14.0605 12.6755C14.0605 13.9099 15.0612 14.9105 16.2956 14.9105Z" fill="#CCCECE"/>
<path d="M15.1992 10.7208C15.5336 10.5315 15.9114 10.4322 16.2957 10.4326" stroke="#636058" stroke-width="0.5" stroke-miterlimit="10" stroke-linecap="round"/>
<path d="M16.2944 14.9022C15.7805 14.9021 15.2822 14.7253 14.883 14.4016C14.4838 14.0779 14.2079 13.6269 14.1016 13.124" stroke="#636058" stroke-width="0.5" stroke-miterlimit="10" stroke-linecap="round"/>
<path d="M18.2344 11.5576C18.4294 11.8977 18.5312 12.2832 18.5296 12.6751C18.5309 12.8796 18.5025 13.0833 18.4452 13.2796" stroke="#636058" stroke-width="0.5" stroke-miterlimit="10" stroke-linecap="round"/>
<path d="M5.67519 39.755C4.79039 40.3328 4.03625 41.0893 3.46123 41.976L3.17306 41.6105C2.75084 41.004 2.23066 40.4719 1.63383 40.0361L1.24023 39.755C2.08855 39.1339 2.83744 38.3874 3.46123 37.541C4.02524 38.4085 4.7622 39.1502 5.62599 39.7198L5.67519 39.755Z" fill="#D84B1A"/>
<path d="M79.5873 21.0599C78.7035 21.6384 77.9476 22.3919 77.3663 23.2738L77.0852 22.8802C76.6599 22.2862 76.1399 21.7662 75.5459 21.341L75.1523 21.0599C75.9987 20.4361 76.7452 19.6872 77.3663 18.8389C77.9327 19.7087 78.672 20.4527 79.5381 21.0247L79.5873 21.0599Z" fill="#E78D59"/>
<path d="M82.4117 58.4788C81.5248 59.0564 80.7683 59.8129 80.1907 60.6998L79.9096 60.2992C79.4805 59.7084 78.9611 59.189 78.3703 58.7599L77.9697 58.4788C78.8182 57.8552 79.5671 57.1063 80.1907 56.2578C80.7488 57.1415 81.4864 57.8982 82.3555 58.4788H82.4117Z" fill="#DB6637"/>
<path d="M22.6208 14.9105C23.8552 14.9105 24.8558 13.9099 24.8558 12.6755C24.8558 11.4411 23.8552 10.4404 22.6208 10.4404C21.3864 10.4404 20.3857 11.4411 20.3857 12.6755C20.3857 13.9099 21.3864 14.9105 22.6208 14.9105Z" fill="#CCCECE"/>
<path d="M24.5752 11.5771C24.7623 11.9121 24.8592 12.2899 24.8563 12.6736" stroke="#636058" stroke-width="0.5" stroke-miterlimit="10" stroke-linecap="round"/>
<path d="M20.3857 12.6753C20.3862 12.1604 20.564 11.6613 20.8891 11.2619C21.2142 10.8626 21.6668 10.5873 22.171 10.4824" stroke="#636058" stroke-width="0.5" stroke-miterlimit="10" stroke-linecap="round"/>
<path d="M23.7308 14.6152C23.3935 14.8109 23.0101 14.9128 22.6203 14.9104C22.4135 14.911 22.2077 14.8826 22.0088 14.8261" stroke="#636058" stroke-width="0.5" stroke-miterlimit="10" stroke-linecap="round"/>
<path d="M67.3646 11.29H57.4967C56.9144 11.29 56.4424 11.7621 56.4424 12.3443V13.5602C56.4424 14.1425 56.9144 14.6145 57.4967 14.6145H67.3646C67.9469 14.6145 68.4189 14.1425 68.4189 13.5602V12.3443C68.4189 11.7621 67.9469 11.29 67.3646 11.29Z" fill="#CCCECE"/>
<path d="M56.4424 13.5602V12.3443C56.4423 12.0695 56.5495 11.8055 56.7412 11.6086C56.9328 11.4117 57.1938 11.2974 57.4685 11.29" stroke="#636058" stroke-width="0.5" stroke-miterlimit="10" stroke-linecap="round"/>
<path d="M61.5378 14.6152H57.7705" stroke="#636058" stroke-width="0.5" stroke-miterlimit="10" stroke-linecap="round"/>
<path d="M67.1535 14.6152H61.2988" stroke="#636058" stroke-width="0.5" stroke-miterlimit="10" stroke-linecap="round"/>
<path d="M67.3564 11.29C67.6361 11.29 67.9042 11.4011 68.1019 11.5988C68.2996 11.7965 68.4107 12.0647 68.4107 12.3443V13.5602" stroke="#636058" stroke-width="0.5" stroke-miterlimit="10" stroke-linecap="round"/>
<path d="M60.2236 11.29H66.2259" stroke="#636058" stroke-width="0.5" stroke-miterlimit="10" stroke-linecap="round"/>
<path d="M31.4062 32.241C31.4062 32.241 46.166 23.3148 55.7247 39.0726C55.7247 39.0726 45.7654 27.3211 31.4062 32.241Z" fill="#CCCECE"/>
</svg>
