<svg width="83" height="83" viewBox="0 0 83 83" fill="none" xmlns="http://www.w3.org/2000/svg">
<mask id="mask0_514_2566" style="mask-type:luminance" maskUnits="userSpaceOnUse" x="1" y="3" width="80" height="77">
<path d="M80.3984 3.44336H1.95508V79.6265H80.3984V3.44336Z" fill="white"/>
</mask>
<g mask="url(#mask0_514_2566)">
<path d="M78.2401 37.0212C78.0376 36.5592 77.7371 36.1467 77.3594 35.8124L62.7307 22.3858L45.6711 6.72361C44.4437 5.6376 42.8614 5.03809 41.2225 5.03809C39.5836 5.03809 38.0013 5.6376 36.7739 6.72361L19.6985 22.3858L5.07887 35.8191L5.05416 35.8439C4.58937 36.2538 4.21537 36.7564 3.95615 37.3193C3.69692 37.8823 3.55818 38.4932 3.54883 39.1129V73.2299C3.66136 74.6054 4.31154 75.881 5.35838 76.7802C6.40523 77.6794 7.76434 78.1297 9.14101 78.0335H73.2096C74.5884 78.1328 75.9506 77.684 77.0003 76.7845C78.05 75.885 78.7022 74.6076 78.8153 73.2299V39.1129C78.8122 38.3785 78.6179 37.6576 78.2513 37.0212" fill="#F5884C"/>
<path d="M62.7345 22.386L59.4363 19.3618L53.7677 14.1651L48.9394 9.72099L45.6681 6.72381C44.4406 5.63887 42.8589 5.04004 41.2207 5.04004C39.5824 5.04004 38.0007 5.63887 36.7732 6.72381L35.8745 7.55287L34.6658 8.65827L31.8258 11.2668L28.2939 14.5088" fill="#F5884C"/>
<path d="M62.7345 22.386L59.4363 19.3618L53.7677 14.1651L48.9394 9.72099L45.6681 6.72381C44.4406 5.63887 42.8589 5.04004 41.2207 5.04004C39.5824 5.04004 38.0007 5.63887 36.7732 6.72381L35.8745 7.55287L34.6658 8.65827L31.8258 11.2668L28.2939 14.5088" stroke="black" stroke-linecap="round" stroke-linejoin="round"/>
<path d="M52.71 78.0333H73.2116C74.5885 78.1295 75.9479 77.6793 76.9951 76.7801C78.0423 75.8809 78.693 74.6053 78.8061 73.2297V39.1126C78.803 38.3782 78.6087 37.6573 78.2421 37.0209C78.0396 36.5589 77.7391 36.1465 77.3614 35.8122L73.2611 32.0488" fill="#F5884C"/>
<path d="M52.71 78.0333H73.2116C74.5885 78.1295 75.9479 77.6793 76.9951 76.7801C78.0423 75.8809 78.693 74.6053 78.8061 73.2297V39.1126C78.803 38.3782 78.6087 37.6573 78.2421 37.0209C78.0396 36.5589 77.7391 36.1465 77.3614 35.8122L73.2611 32.0488" stroke="black" stroke-linecap="round" stroke-linejoin="round"/>
<path d="M3.54883 62.1191V73.2249C3.6608 74.6013 4.31098 75.8781 5.35831 76.7782C6.40564 77.6783 7.76564 78.1292 9.14326 78.0329H42.6424" fill="#F5884C"/>
<path d="M3.54883 62.1191V73.2249C3.6608 74.6013 4.31098 75.8781 5.35831 76.7782C6.40564 77.6783 7.76564 78.1292 9.14326 78.0329H42.6424" stroke="black" stroke-linecap="round" stroke-linejoin="round"/>
<path d="M19.7075 22.3867L16.8676 24.9885L14.731 26.9521L13.0728 28.4732L10.1296 31.1693L5.07887 35.8134L5.05416 35.8381C4.58886 36.2491 4.21459 36.7528 3.95537 37.3169C3.69614 37.881 3.55766 38.4931 3.54883 39.1138V53.2549" fill="#F5884C"/>
<path d="M19.7075 22.3867L16.8676 24.9885L14.731 26.9521L13.0728 28.4732L10.1296 31.1693L5.07887 35.8134L5.05416 35.8381C4.58886 36.2491 4.21459 36.7528 3.95537 37.3169C3.69614 37.881 3.55766 38.4931 3.54883 39.1138V53.2549" stroke="black" stroke-linecap="round" stroke-linejoin="round"/>
<path d="M41.0881 69.1777L41.0566 72.0019" stroke="black" stroke-miterlimit="10" stroke-linecap="round"/>
<path d="M41.2965 49.6113L41.2763 51.4245L41.2606 52.7725L41.2449 54.4306L41.2291 55.9427L41.1572 62.7886L41.1348 64.75" fill="#F5884C"/>
<path d="M41.2965 49.6113L41.2763 51.4245L41.2606 52.7725L41.2449 54.4306L41.2291 55.9427L41.1572 62.7886L41.1348 64.75" stroke="black" stroke-miterlimit="10" stroke-linecap="round"/>
</g>
</svg>
