<svg width="83" height="83" viewBox="0 0 83 83" fill="none" xmlns="http://www.w3.org/2000/svg">
<path d="M57.8753 8.63405C54.8345 8.83988 51.8875 9.7728 49.2822 11.3544C46.6769 12.9359 44.4895 15.1199 42.9038 17.7227C42.1878 18.7718 41.5578 19.877 41.0199 21.0277C39.7523 18.3613 38.0174 15.9435 35.8972 13.8889C34.2797 12.2851 32.4024 10.9666 30.3449 9.98909C28.4058 9.09936 26.2981 8.63722 24.1646 8.63405C23.1345 8.63711 22.1065 8.72554 21.091 8.89845C19.3269 9.19682 17.6135 9.74198 16.0014 10.5179C14.9458 11.0441 13.9393 11.6635 12.9938 12.3687C10.6795 14.1028 8.80215 16.3533 7.51115 18.941C6.22016 21.5287 5.55124 24.3822 5.55766 27.2741C5.55766 48.1614 26.6433 53.7138 41.0199 74.3368C54.6364 53.7799 76.6144 47.5004 76.6144 27.2741C76.6144 24.8178 76.129 22.3859 75.1861 20.1179C74.2432 17.8499 72.8613 15.7906 71.1199 14.0584C69.3785 12.3262 67.3119 10.9553 65.0389 10.0244C62.766 9.09348 60.3314 8.62099 57.8753 8.63405Z" fill="#EFEFEF"/>
<path d="M57.8758 8.63383C57.1003 8.63194 56.3261 8.6983 55.5623 8.83213C54.3183 9.03358 53.1067 9.40037 51.9599 9.92276C50.7908 10.4643 49.6829 11.1291 48.6549 11.9057C47.3638 12.8807 46.1786 13.9884 45.1186 15.2107C43.5244 16.979 42.1993 18.9723 41.1857 21.1266C40.4384 19.5778 39.5418 18.1057 38.5087 16.731C37.7643 15.7558 36.9467 14.8388 36.063 13.9879C34.7778 12.7073 33.3339 11.5966 31.7665 10.6829C30.779 10.1698 29.751 9.73875 28.6929 9.39397C27.2357 8.89339 25.7059 8.63656 24.1651 8.63383C23.135 8.63688 22.107 8.72532 21.0915 8.89823C19.5418 9.17397 18.0321 9.6402 16.5968 10.2863C15.6262 10.7188 14.6969 11.2387 13.8206 11.8396C12.6352 12.6234 11.5284 13.5199 10.5156 14.5167" stroke="#D05F33" stroke-linecap="round"/>
<path d="M54.9004 58.7355L57.5774 56.3229L60.4197 53.8111L64.9475 49.6799C66.1042 48.5562 67.2279 47.4325 68.2524 46.3749C69.4401 45.1738 70.5444 43.8929 71.5574 42.5412C73.142 40.4273 74.4009 38.0878 75.292 35.6007C75.6632 34.5203 75.9613 33.4162 76.1844 32.2958C76.5051 30.6412 76.6491 28.9572 76.614 27.2722C76.6185 26.1637 76.5189 25.0572 76.3166 23.9673C75.8856 21.4908 74.9521 19.1288 73.5734 17.0268C72.9056 16.0089 72.142 15.0572 71.293 14.1846" stroke="#D05F33" stroke-linecap="round"/>
<path d="M15.9346 48.9873L18.215 51.1686C19.0743 51.9948 19.9997 52.788 20.9251 53.6143L23.1724 55.5642L25.2876 57.448C26.0808 58.1421 26.874 58.8361 27.6672 59.5962C28.4604 60.3564 29.3527 61.1165 30.179 61.9097C31.0052 62.7029 32.3272 63.9918 33.4839 65.2147L35.2356 67.0985C36.2271 68.2222 37.2516 69.3789 38.21 70.6018C39.1685 71.8246 40.16 73.0805 41.0854 74.4355C41.7133 73.4771 42.3743 72.5848 43.0353 71.6924C44.0598 70.3043 45.1174 68.9493 46.3402 67.6934C47.5631 66.4375 48.0258 65.8096 48.8851 64.8842" stroke="#D05F33" stroke-linecap="round"/>
<path d="M6.48301 21.3916C5.87102 23.2926 5.55881 25.2773 5.55762 27.2744C5.55762 27.9024 5.55762 28.5634 5.55762 29.1913C5.62416 30.4127 5.7788 31.6277 6.02031 32.8268C6.32508 34.153 6.72266 35.4562 7.2101 36.7266C7.77074 38.1177 8.43355 39.4654 9.19308 40.7587C9.75492 41.6841 10.3498 42.5764 11.0108 43.4688" stroke="#D05F33" stroke-linecap="round"/>
</svg>
