<svg width="83" height="83" viewBox="0 0 83 83" fill="none" xmlns="http://www.w3.org/2000/svg">
<path d="M49.0549 68.6448C50.0249 67.3353 51.0434 65.9772 52.0619 64.5222C53.0804 63.0672 53.8564 61.9032 54.7779 60.5937C55.6995 59.2842 56.912 57.2471 57.9305 55.7436L59.5795 52.8821L60.8405 50.5541C61.7135 48.8565 62.538 47.1105 63.2655 45.413C63.9931 43.7155 64.2841 42.988 64.7206 41.7755C65.1571 40.5629 65.6421 38.9139 65.9816 37.5074C66.5627 35.2568 66.8721 32.9446 66.9031 30.6203C66.8382 29.3674 66.6924 28.1199 66.4666 26.8858C66.1895 24.8789 65.6851 22.9101 64.9631 21.0172C64.5149 19.9023 63.9966 18.8169 63.411 17.7677C62.9036 16.5903 62.3035 15.4551 61.6165 14.3726C60.7562 13.2704 59.816 12.2329 58.8035 11.2686L56.427 9.32857C55.4526 8.64379 54.4316 8.02795 53.3714 7.48555C52.4335 6.98102 51.461 6.54343 50.4614 6.17603C49.4769 5.78585 48.4733 5.44591 47.4544 5.15752L45.3688 4.72101C43.8946 4.46949 42.4023 4.33972 40.9068 4.33301C39.7226 4.33726 38.5399 4.41826 37.3662 4.57551C35.9041 4.76113 34.4602 5.06938 33.0497 5.49702C31.737 5.92194 30.4565 6.44062 29.2181 7.04904C27.6258 7.83615 26.115 8.77839 24.7076 9.86207C23.0533 11.2089 21.5565 12.7383 20.2455 14.4211C19.1076 15.9309 18.1322 17.5566 17.3355 19.2712C16.7831 20.3939 16.3288 21.5623 15.9775 22.7632C15.7062 23.5747 15.4796 24.4005 15.2985 25.2368C14.977 26.9152 14.8146 28.6203 14.8135 30.3293C14.8135 44.8795 28.9271 64.2797 36.3477 73.3493L38.2878 75.7259C39.8883 77.6174 40.8583 78.6844 40.8583 78.6844C40.8583 78.6844 41.8283 77.6174 43.4288 75.7259M40.8583 39.6899C39.0165 39.6899 37.2161 39.1438 35.6848 38.1206C34.1534 37.0973 32.9598 35.643 32.255 33.9414C31.5502 32.2398 31.3658 30.3675 31.7251 28.5611C32.0844 26.7547 32.9713 25.0955 34.2736 23.7932C35.5759 22.4908 37.2352 21.6039 39.0416 21.2446C40.848 20.8853 42.7203 21.0697 44.4219 21.7745C46.1234 22.4794 47.5778 23.6729 48.601 25.2043C49.6242 26.7357 50.1704 28.5361 50.1704 30.3778C50.1704 32.8475 49.1893 35.2161 47.4429 36.9625C45.6966 38.7088 43.328 39.6899 40.8583 39.6899Z" fill="#DB6637"/>
<path d="M66.9016 30.3778C66.8267 29.2061 66.6809 28.0399 66.4651 26.8858C66.0601 24.0164 65.192 21.2318 63.8945 18.6407C63.2545 17.1572 62.492 15.7296 61.615 14.3726C60.7547 13.2704 59.8145 12.2329 58.802 11.2686C57.7573 10.3438 56.6558 9.48532 55.5039 8.69806C53.9821 7.68642 52.3561 6.84091 50.6539 6.17603C49.6059 5.77944 48.5373 5.43945 47.4528 5.15752C45.313 4.61224 43.1135 4.33527 40.9053 4.33301C39.3936 4.33704 37.8849 4.46682 36.3947 4.72101C35.2791 4.90503 34.1773 5.16429 33.0967 5.49702C31.784 5.92194 30.5035 6.44062 29.2651 7.04904C27.8421 7.73341 26.4931 8.56228 25.2396 9.52257M47.9378 70.1483C49.2474 68.4508 50.6539 66.5592 52.0604 64.5222C54.0489 61.7092 56.0374 58.6536 57.929 55.5011C58.9475 53.8036 59.9175 52.0576 60.839 50.3116C61.7605 48.5655 63.07 45.704 63.9915 43.4245M22.8145 54.1916L24.7061 57.3441L26.2581 59.8177L28.8286 63.6492L30.8171 66.4137L33.0482 69.4693C37.3647 75.0953 40.6628 78.7329 40.6628 78.7329C40.6628 78.7329 41.6328 77.6659 43.2333 75.7744M18.983 15.7791C18.2598 16.8227 17.627 17.926 17.0915 19.0772C16.5967 20.1194 16.1596 21.1881 15.782 22.2782C15.4331 23.3906 15.1577 24.5248 14.9575 25.6733C14.6496 27.2712 14.5033 28.8961 14.5209 30.5233C14.525 31.7898 14.6222 33.0542 14.812 34.3064C15.006 35.438 15.2485 36.6021 15.5395 37.7984C15.9271 39.0342 16.3804 40.2485 16.8975 41.4359C17.2855 42.503 17.6735 43.6185 18.1585 44.734C18.6435 45.8495 18.9345 46.6255 19.4195 47.547M31.8357 32.9968C31.6406 32.2693 31.5428 31.5191 31.5447 30.7658C31.5266 29.3176 31.8594 27.8865 32.5147 26.5948C33.2012 25.0296 34.3095 23.6862 35.7157 22.7147M46.1918 22.7147C47.4081 23.5435 48.4198 24.6381 49.1504 25.9158C49.899 27.3024 50.2985 28.8506 50.3144 30.4263C50.3184 31.9155 49.9517 33.3823 49.2474 34.6944C48.7011 35.7675 47.9488 36.7224 47.0334 37.5047C46.118 38.2869 45.0574 38.8812 43.9123 39.2534C42.5885 39.7016 41.1801 39.8429 39.7936 39.6664C38.4072 39.4899 37.079 39.0004 35.9097 38.2349" stroke="#636058" stroke-width="0.7" stroke-miterlimit="10" stroke-linecap="round"/>
</svg>
