<svg width="83" height="83" viewBox="0 0 83 83" fill="none" xmlns="http://www.w3.org/2000/svg">
<path d="M81.5429 20.3584V62.6965C81.4299 64.3414 80.6695 65.8744 79.4281 66.9595C78.1868 68.0446 76.5659 68.5932 74.9207 68.4852H8.64076C6.99629 68.5901 5.37706 68.0404 4.13641 66.9559C2.89577 65.8714 2.13444 64.3403 2.01855 62.6965V20.3584C2.14029 18.7179 2.90373 17.1915 4.14335 16.1101C5.38298 15.0286 6.99888 14.4794 8.64076 14.5814H74.9207C76.5625 14.4794 78.1784 15.0286 79.4181 16.1101C80.6577 17.1915 81.4211 18.7179 81.5429 20.3584Z" fill="#EFEFEF"/>
<path d="M80.5118 48.1895H67.0011C66.432 48.1895 65.9707 48.6508 65.9707 49.2198V60.6582C65.9707 61.2272 66.432 61.6886 67.0011 61.6886H80.5118C81.0808 61.6886 81.5421 61.2272 81.5421 60.6582V49.2198C81.5421 48.6508 81.0808 48.1895 80.5118 48.1895Z" fill="#3F6695"/>
<path d="M62.8571 48.1895H3.04893C2.47987 48.1895 2.01855 48.6508 2.01855 49.2198V60.6582C2.01855 61.2272 2.47987 61.6886 3.04893 61.6886H62.8571C63.4262 61.6886 63.8875 61.2272 63.8875 60.6582V49.2198C63.8875 48.6508 63.4262 48.1895 62.8571 48.1895Z" fill="#103362"/>
<path d="M8.64076 68.4159C7.24202 68.4351 5.87007 68.0316 4.70448 67.2581C3.95349 66.7719 3.31743 66.128 2.84054 65.371C2.33813 64.5665 2.05477 63.6446 2.01855 62.6967V34.645M34.0066 68.4159H15.8071M59.6271 68.4159H49.277M81.5429 49.2207V62.6967C81.5169 63.7178 81.2084 64.7117 80.6514 65.5679C80.0085 66.4989 79.1408 67.2524 78.1288 67.7584C77.1168 68.2644 75.9933 68.5065 74.8628 68.4622H65.9714M73.7629 14.5815H74.9207C75.9271 14.5635 76.9258 14.7609 77.8497 15.1604C79.2405 15.7451 80.3718 16.8147 81.0335 18.1705C81.3556 18.8558 81.5292 19.6015 81.5429 20.3586V42.7954M33.4624 14.5815H65.6357M2.01855 26.2862V20.3586C2.05828 19.3705 2.35048 18.4091 2.86729 17.566C3.38409 16.7229 4.10827 16.0262 4.97076 15.5425C6.08123 14.8878 7.35196 14.5551 8.64076 14.5815H25.1152" stroke="#636059" stroke-linecap="round" stroke-linejoin="round"/>
<path d="M17.0685 24.7922H12.0903C11.9338 24.7883 11.7817 24.8433 11.6638 24.9461C11.5459 25.049 11.4709 25.1924 11.4535 25.3479L9.41591 37.643C9.39927 37.7519 9.42647 37.863 9.49156 37.952C9.55665 38.041 9.65434 38.1005 9.76323 38.1176H12.1713C12.3456 38.0978 12.5081 38.0195 12.6321 37.8954C12.7562 37.7713 12.8345 37.6089 12.8544 37.4346L13.4217 34.2392C13.5374 33.3709 15.054 33.672 15.6561 33.672C19.2103 33.672 21.4447 31.6228 21.4447 28.1496C21.3868 25.5794 19.3724 24.7922 17.0685 24.7922ZM17.6474 29.2726C17.4042 30.7892 16.3391 30.9744 14.973 30.9744H13.9542L14.4868 27.7675C14.5035 27.6736 14.5538 27.5889 14.6284 27.5292C14.7029 27.4696 14.7966 27.4391 14.892 27.4434H15.4708C16.8485 27.4781 17.9136 27.6518 17.6474 29.2726Z" fill="#103362"/>
<path d="M31.8999 29.2267H29.4919C29.0172 29.2267 28.9941 29.8866 28.9709 30.2107C28.6192 29.7811 28.163 29.4489 27.646 29.2462C27.1291 29.0435 26.5687 28.977 26.0187 29.053C24.5897 29.0743 23.2264 29.6569 22.2234 30.6751C21.2204 31.6932 20.6583 33.0651 20.6584 34.4943C20.6077 35.4512 20.9369 36.3894 21.5743 37.1048C22.2117 37.8203 23.1058 38.2551 24.0621 38.3148C24.2395 38.3264 24.4174 38.3264 24.5947 38.3148C25.8328 38.2694 27.0077 37.7564 27.8826 36.8792C27.8122 37.1206 27.7695 37.3692 27.7553 37.6202C27.7553 37.898 27.8826 38.1064 28.1605 38.1064H30.3023C30.4737 38.0792 30.632 37.9985 30.7547 37.8758C30.8774 37.7531 30.9582 37.5947 30.9853 37.4234L32.2588 29.6897C32.267 29.6356 32.264 29.5804 32.2502 29.5274C32.2364 29.4744 32.2119 29.4248 32.1784 29.3815C32.1448 29.3382 32.1029 29.3022 32.055 29.2755C32.0072 29.2489 31.9544 29.2323 31.8999 29.2267ZM25.9261 35.8952H25.8566C25.3903 35.9509 24.9209 35.8205 24.5502 35.5322C24.1796 35.2439 23.9376 34.821 23.8769 34.3554C23.8711 34.2667 23.8711 34.1778 23.8769 34.0891C23.88 33.3849 24.1619 32.7106 24.6609 32.2137C25.1599 31.7169 25.8355 31.4379 26.5397 31.4379C26.7804 31.4107 27.0241 31.4319 27.2565 31.5002C27.4889 31.5686 27.7053 31.6827 27.893 31.8358C28.0806 31.989 28.2358 32.1781 28.3493 32.3921C28.4629 32.6061 28.5325 32.8406 28.5541 33.0819C28.5602 33.1551 28.5602 33.2287 28.5541 33.3019C28.545 33.9928 28.2641 34.6524 27.7722 35.1377C27.2803 35.6231 26.6171 35.8952 25.9261 35.8952Z" fill="#103362"/>
<path d="M52.3791 24.7924H47.4472C47.2841 24.7868 47.1244 24.8397 46.997 24.9417C46.8696 25.0436 46.7829 25.1878 46.7525 25.3481L44.7381 37.62C44.728 37.7345 44.7618 37.8485 44.8328 37.9388C44.9038 38.0291 45.0065 38.089 45.1201 38.1063H47.7482C47.8604 38.1018 47.9686 38.0626 48.0577 37.9942C48.1469 37.9258 48.2126 37.8315 48.246 37.7242L48.8017 34.251C48.9291 33.3943 50.4457 33.6953 51.0361 33.6953C54.5788 33.6953 56.7437 31.6461 56.7437 28.173C56.6858 25.5797 54.6945 24.7924 52.3791 24.7924ZM50.272 30.9747H49.2764L49.7974 27.7678C49.8016 27.721 49.8153 27.6755 49.8376 27.6342C49.86 27.5928 49.8905 27.5564 49.9273 27.5272C49.9641 27.498 50.0064 27.4765 50.0517 27.4641C50.0971 27.4518 50.1444 27.4487 50.191 27.4552H50.7583C51.8118 27.4552 52.9927 27.4552 53.0043 28.7866C53.0043 30.6158 51.8928 30.9747 50.272 30.9747Z" fill="#3F6695"/>
<path d="M36.8888 40.9891L44.8076 29.8517C44.8214 29.8207 44.8284 29.7872 44.8284 29.7533C44.8284 29.7194 44.8214 29.6859 44.8076 29.6549C44.8054 29.5478 44.7642 29.4453 44.6917 29.3664C44.6193 29.2875 44.5205 29.2378 44.414 29.2266H42.087C41.9759 29.231 41.8672 29.2603 41.769 29.3124C41.6708 29.3645 41.5856 29.4381 41.5197 29.5276L38.2318 34.2164L36.8656 29.7012C36.811 29.5637 36.7171 29.4454 36.5956 29.3609C36.4742 29.2765 36.3305 29.2298 36.1826 29.2266H33.8555C33.7491 29.2325 33.6489 29.279 33.5757 29.3565C33.5025 29.4341 33.4617 29.5367 33.4619 29.6433C33.4619 29.7938 35.8816 36.4739 36.09 37.1107C35.1487 38.3161 34.2974 39.5892 33.543 40.9196C33.5489 41.023 33.5942 41.1202 33.6695 41.1913C33.7449 41.2623 33.8446 41.3018 33.9482 41.3017H36.3331C36.4433 41.295 36.5506 41.2635 36.6469 41.2093C36.7432 41.1552 36.8259 41.0799 36.8888 40.9891Z" fill="#103362"/>
<path d="M73.0683 25.2086C73.0685 25.0989 73.0265 24.9933 72.9512 24.9136C72.8758 24.8339 72.7727 24.7862 72.6631 24.7803H70.3477C70.2518 24.7811 70.1592 24.815 70.0854 24.8761C70.0116 24.9373 69.9611 25.022 69.9425 25.116L67.9512 37.631V37.6889C67.9571 37.8016 68.0061 37.9076 68.0879 37.9852C68.1698 38.0627 68.2783 38.1059 68.3911 38.1057H70.4403C70.6091 38.0806 70.7647 37.9997 70.8822 37.8759C70.9997 37.7521 71.0724 37.5926 71.0886 37.4227L73.0683 25.2549V25.2086Z" fill="#3F6695"/>
<path d="M67.2107 29.2269H64.8026C64.328 29.2269 64.3048 29.8868 64.2585 30.211C63.9138 29.776 63.4603 29.4398 62.9439 29.2365C62.4275 29.0332 61.8666 28.97 61.3179 29.0532C59.8878 29.0745 58.5233 29.6568 57.5184 30.6746C56.5136 31.6924 55.9489 33.0643 55.946 34.4945C55.8981 35.4469 56.2252 36.3801 56.8571 37.0943C57.489 37.8084 58.3755 38.2466 59.3266 38.315C59.5039 38.3266 59.6818 38.3266 59.8591 38.315C61.1031 38.2808 62.2856 37.7663 63.1586 36.8795C63.0938 37.1221 63.0512 37.3701 63.0313 37.6204C63.0313 37.8983 63.1586 38.1067 63.4249 38.1067H65.5783C65.7511 38.083 65.9114 38.0034 66.0348 37.8801C66.1581 37.7567 66.2377 37.5964 66.2614 37.4236L67.5349 29.69C67.5518 29.5858 67.5274 29.4791 67.4669 29.3926C67.4063 29.3061 67.3144 29.2466 67.2107 29.2269ZM63.888 33.3715C63.8776 33.7147 63.7994 34.0524 63.658 34.3652C63.5166 34.678 63.3147 34.9598 63.064 35.1943C62.8133 35.4289 62.5188 35.6116 62.1972 35.7319C61.8757 35.8522 61.5336 35.9078 61.1905 35.8954H60.959C60.7223 35.8939 60.4883 35.8456 60.2704 35.7533C60.0525 35.661 59.855 35.5265 59.6893 35.3575C59.5236 35.1886 59.393 34.9886 59.3049 34.7689C59.2168 34.5493 59.173 34.3144 59.1761 34.0778V34.0315C59.1913 33.3303 59.4837 32.6637 59.9892 32.1777C60.4948 31.6917 61.1724 31.4257 61.8736 31.4381H62.1167C62.3559 31.4426 62.5918 31.4946 62.8107 31.591C63.0297 31.6874 63.2273 31.8263 63.3921 31.9998C63.5569 32.1732 63.6856 32.3776 63.7707 32.6012C63.8559 32.8247 63.8957 33.063 63.888 33.3021V33.3715Z" fill="#3F6695"/>
</svg>
