<svg width="83" height="83" viewBox="0 0 83 83" fill="none" xmlns="http://www.w3.org/2000/svg">
<path d="M44.1803 28.1901C43.9563 28.1743 43.7316 28.1743 43.5077 28.1901C43.3811 28.1941 43.2578 28.1497 43.1629 28.066C43.0679 27.9823 43.0084 27.8655 42.9965 27.7395C42.7275 25.0492 40.6828 21.9015 37.8849 21.3634C35.2416 20.8522 31.159 22.9305 32.4235 27.9749C32.4272 27.9904 32.4272 28.0065 32.4235 28.022C32.6583 29.8734 32.4704 31.7539 31.874 33.5223C31.2775 35.2907 30.288 36.9008 28.9798 38.2318L17.5863 49.5985C16.3482 50.8136 14.8517 51.7332 13.2084 52.2887C11.565 52.8443 9.81745 53.0213 8.0961 52.8067C8.0961 52.8067 8.0961 52.8067 8.05574 52.8067C4.31618 52.948 1.11467 54.7236 1.43751 58.2614C1.68637 60.9383 5.11655 63.104 7.80689 63.3797C7.93292 63.3917 8.04968 63.4511 8.1334 63.5461C8.21712 63.6411 8.2615 63.7644 8.25752 63.8909C8.24169 64.1148 8.24169 64.3396 8.25752 64.5635C8.52655 67.2538 10.7125 70.5428 13.3692 70.9463C16.8868 71.4777 18.4875 67.913 18.5481 64.4223C18.5512 64.409 18.5512 64.3952 18.5481 64.3819C18.381 62.9774 18.5325 61.5534 18.9913 60.2155C19.45 58.8777 20.2043 57.6603 21.198 56.6539L37.0038 40.8482C37.92 39.9564 39.0248 39.2819 40.2367 38.8745C41.4486 38.467 42.7365 38.337 44.0054 38.4941C47.9534 39.2474 51.0473 36.6378 50.5294 33.322C50.1797 30.6518 46.8571 28.4592 44.1803 28.1901Z" fill="#F0D490"/>
<path d="M29.3623 71.7266C29.3623 73.8183 41.2536 75.5132 55.9227 75.5132C70.5917 75.5132 82.4628 73.8183 82.4628 71.7266C82.4605 71.63 82.4351 71.5355 82.3888 71.4508L77.3512 53.291H34.4874" fill="#DB7542"/>
<path d="M80.8225 65.7472L80.3785 64.1128L77.0829 52.1543H34.7639L29.78 70.3141C29.733 70.396 29.7075 70.4886 29.7061 70.5831C29.7061 72.6748 41.4426 74.3698 55.9368 74.3698C70.431 74.3698 82.1676 72.6748 82.1676 70.5831C82.1661 70.4886 82.1407 70.396 82.0936 70.3141" fill="#E78D59"/>
<path d="M69.5156 74.975C70.4303 74.901 71.3114 74.8135 72.1522 74.7194L73.7731 74.5311C74.5331 74.4302 75.2595 74.3226 75.9388 74.2149C77.1209 74.025 78.2926 73.7758 79.4497 73.4684C80.0929 73.297 80.7206 73.072 81.3262 72.7958C82.0728 72.446 82.4763 72.0761 82.4763 71.6928C82.474 71.5963 82.4486 71.5017 82.4023 71.417" stroke="#636058" stroke-miterlimit="10" stroke-linecap="round"/>
<path d="M52.9766 75.4858C53.9451 75.4858 54.9271 75.4858 55.9225 75.4858H57.8797H59.5612L61.8278 75.4319C62.682 75.4319 63.516 75.3714 64.3365 75.3311" stroke="#636058" stroke-miterlimit="10" stroke-linecap="round"/>
<path d="M46.5479 75.2646C47.3482 75.3117 48.1621 75.3454 48.9961 75.379" stroke="#636058" stroke-miterlimit="10" stroke-linecap="round"/>
<path d="M29.7061 72.124C30.0827 72.7966 31.8247 73.4692 34.5554 74.0274C35.4768 74.209 36.5126 74.3839 37.6425 74.5386C38.1941 74.6193 38.7725 74.6933 39.3711 74.7606C40.1446 74.848 40.9449 74.9354 41.7789 75.0094" stroke="#636058" stroke-miterlimit="10" stroke-linecap="round"/>
<path d="M32.92 58.8271L31.4672 64.0935L30.0615 69.232" stroke="#636058" stroke-miterlimit="10" stroke-linecap="round"/>
<path d="M34.1577 54.3135L33.707 55.9546" stroke="#636058" stroke-miterlimit="10" stroke-linecap="round"/>
<path d="M79.9612 62.6143L79.3424 60.3544L78.8043 58.3904L78.3941 56.8906L78.0847 55.7606L77.8291 54.8594" stroke="#636058" stroke-miterlimit="10" stroke-linecap="round"/>
<path d="M55.9231 55.2077C67.6129 55.2077 77.0893 53.681 77.0893 51.7977C77.0893 49.9144 67.6129 48.3877 55.9231 48.3877C44.2333 48.3877 34.7568 49.9144 34.7568 51.7977C34.7568 53.681 44.2333 55.2077 55.9231 55.2077Z" fill="#D3D3D3"/>
<path d="M59.7969 48.4424C61.0613 48.4827 62.2787 48.5365 63.4557 48.6105C64.8368 48.6912 66.1393 48.7966 67.3634 48.9266C68.5405 49.0477 69.6368 49.189 70.6389 49.3436C72.0031 49.5424 73.3516 49.8368 74.6744 50.2247C75.399 50.4091 76.0831 50.7261 76.6922 51.1596" stroke="#636058" stroke-miterlimit="10" stroke-linecap="round"/>
<path d="M44.0312 48.9801C44.7778 48.8927 45.5647 48.8187 46.3786 48.7514C47.4143 48.6707 48.5039 48.5967 49.6339 48.5429C50.7638 48.4891 51.8131 48.4488 52.9497 48.4219" stroke="#636058" stroke-miterlimit="10" stroke-linecap="round"/>
<path d="M37.5068 52.4032C37.7422 51.9593 38.509 51.5356 39.7129 51.1589C40.6752 50.8729 41.6546 50.6483 42.6454 50.4863" stroke="#636058" stroke-miterlimit="10" stroke-linecap="round"/>
<path d="M77.0826 52.1541C77.0826 54.1719 67.8816 56.499 56.0576 56.499C44.2335 56.499 34.7568 54.1988 34.7568 52.1541C34.7568 50.4996 44.2335 49.1006 56.0576 49.1006C67.8816 49.1006 77.0826 50.8291 77.0826 52.1541Z" fill="#D3D3D3"/>
<path d="M76.6855 52.0668C76.6855 53.802 67.3769 55.6045 55.8892 55.6045C44.4014 55.6045 35.0996 53.802 35.0996 52.0668C35.0996 50.3315 44.4082 48.9258 55.8892 48.9258C67.3702 48.9258 76.6855 50.3315 76.6855 52.0668Z" fill="#EFEFEF"/>
<path d="M56.1653 66.7422C55.925 66.5825 55.7469 66.3451 55.6609 66.0696C55.5849 65.7874 55.4191 65.5376 55.1886 65.358C54.958 65.1784 54.6752 65.0788 54.383 65.0742C54.1016 65.0851 53.8318 65.1886 53.6153 65.3686C53.3988 65.5486 53.2478 65.795 53.1858 66.0696C53.051 66.3683 52.8118 66.6074 52.5132 66.7422C52.2764 66.8932 52.0903 67.1117 51.9788 67.3694C51.8673 67.6271 51.8356 67.9123 51.8877 68.1883C51.9405 68.4675 52.0779 68.7237 52.2812 68.9222C52.4845 69.1208 52.744 69.252 53.0244 69.2981C53.2495 69.3375 53.481 69.319 53.6969 69.2442C54.0847 69.11 54.5064 69.11 54.8941 69.2442C55.0984 69.3189 55.3173 69.345 55.5333 69.3203C55.7494 69.2956 55.9568 69.2209 56.1389 69.1021C56.3211 68.9832 56.473 68.8236 56.5827 68.6358C56.6923 68.448 56.7567 68.2372 56.7707 68.0201C56.7938 67.7724 56.7498 67.523 56.6433 67.2982C56.5368 67.0733 56.3717 66.8813 56.1653 66.7422Z" fill="#DB7542"/>
<path d="M53.6969 64.8857C54.0865 64.8075 54.2899 64.1831 54.151 63.4911C54.0121 62.7992 53.5836 62.3016 53.1939 62.3799C52.8042 62.4581 52.6009 63.0824 52.7398 63.7744C52.8787 64.4664 53.3072 64.9639 53.6969 64.8857Z" fill="#DB7542"/>
<path d="M57.1909 65.7764C57.6006 65.3666 57.7177 64.8194 57.4525 64.5541C57.1872 64.2888 56.6399 64.4059 56.2302 64.8157C55.8204 65.2255 55.7033 65.7727 55.9686 66.038C56.2339 66.3033 56.7811 66.1861 57.1909 65.7764Z" fill="#DB7542"/>
<path d="M56.0374 63.8588C56.235 63.1813 56.0859 62.5418 55.7044 62.4305C55.3228 62.3192 54.8533 62.7783 54.6557 63.4558C54.4581 64.1334 54.6072 64.7728 54.9887 64.8841C55.3703 64.9954 55.8398 64.5364 56.0374 63.8588Z" fill="#DB7542"/>
<path d="M52.6976 66.0377C52.9629 65.7724 52.8458 65.2252 52.436 64.8154C52.0263 64.4057 51.479 64.2885 51.2137 64.5538C50.9485 64.8191 51.0656 65.3663 51.4753 65.7761C51.8851 66.1858 52.4323 66.303 52.6976 66.0377Z" fill="#DB7542"/>
<path d="M40.1514 22.4529C39.4938 21.8978 38.7076 21.5163 37.8646 21.3431C36.7914 21.1601 35.6877 21.335 34.7236 21.8408" stroke="#636058" stroke-miterlimit="10" stroke-linecap="round"/>
<path d="M46.7625 28.9639C45.9532 28.5576 45.0792 28.2959 44.1798 28.1904C43.9559 28.1746 43.7311 28.1746 43.5072 28.1904C43.3807 28.1944 43.2574 28.15 43.1624 28.0663C43.0674 27.9826 43.0079 27.8658 42.996 27.7398C42.9457 27.2442 42.8443 26.755 42.6934 26.2803" stroke="#636058" stroke-miterlimit="10" stroke-linecap="round"/>
<path d="M50.5625 33.308C50.2733 31.4853 48.6322 29.8913 46.7692 28.9766C47.1872 29.541 47.4681 30.1949 47.5897 30.8867C48.1076 34.2093 45.0204 36.8189 41.0656 36.0656H41.032C40.4571 36.0118 39.8784 36.0118 39.3035 36.0656L15.7159 59.1083C15.543 60.0555 15.5045 61.0223 15.6016 61.9803C15.5411 65.4777 13.9403 69.0424 10.4294 68.5111C10.2006 68.4757 9.97543 68.4194 9.75684 68.3429C10.1614 68.9908 10.6899 69.5524 11.312 69.9956C11.9341 70.4388 12.6376 70.7549 13.3821 70.9257C16.8997 71.457 18.5004 67.8923 18.561 64.4016C18.561 64.4016 18.561 64.4016 18.561 64.3612C18.3953 62.961 18.5462 61.5415 19.0026 60.2074C19.4589 58.8734 20.209 57.6588 21.1975 56.6534L37.0032 40.8477C37.9194 39.9559 39.0243 39.2814 40.2362 38.874C41.4481 38.4665 42.736 38.3365 44.0048 38.4936C47.9865 39.2335 51.0804 36.6238 50.5625 33.308Z" fill="#EBBC45"/>
<path d="M41.2939 38.5951C42.1798 38.4209 43.0869 38.3824 43.9843 38.4808C44.778 38.6366 45.5929 38.6526 46.3921 38.5278C47.5073 38.3585 48.5393 37.8378 49.3381 37.0414C49.8136 36.5556 50.1676 35.9641 50.371 35.3154C50.5743 34.6667 50.6214 33.979 50.5083 33.3086" stroke="#636058" stroke-miterlimit="10" stroke-linecap="round"/>
<path d="M31.2793 46.585L33.6602 44.2041L35.7789 42.0854L37.003 40.8613" stroke="#636058" stroke-miterlimit="10" stroke-linecap="round"/>
<path d="M22.3203 55.5446L24.1632 53.7017L25.5218 52.3431L27.4723 50.3926" stroke="#636058" stroke-miterlimit="10" stroke-linecap="round"/>
<path d="M14.3506 71.0064C14.8501 70.9705 15.3371 70.8326 15.7813 70.6013C16.2255 70.3699 16.6175 70.05 16.9333 69.6612C17.4998 68.9707 17.9146 68.1686 18.1507 67.3072C18.4187 66.3731 18.559 65.407 18.5677 64.4352C18.5708 64.422 18.5708 64.4081 18.5677 64.3949C18.4534 63.3463 18.5056 62.2862 18.7224 61.2539" stroke="#636058" stroke-miterlimit="10" stroke-linecap="round"/>
<path d="M7.80566 63.3799C7.9317 63.3918 8.04846 63.4513 8.13218 63.5463C8.21589 63.6412 8.26028 63.7645 8.2563 63.891C8.24047 64.115 8.24047 64.3397 8.2563 64.5636C8.31745 65.1163 8.44156 65.6601 8.62622 66.1846C8.98662 67.2261 9.53867 68.191 10.2539 69.0296" stroke="#636058" stroke-miterlimit="10" stroke-linecap="round"/>
<path d="M8.05518 52.8076C7.22356 52.8304 6.39744 52.95 5.59352 53.1641C4.54849 53.419 3.58126 53.9246 2.77539 54.637C2.2782 55.0916 1.89675 55.6583 1.66277 56.29C1.4288 56.9218 1.34907 57.6002 1.43022 58.269C1.51008 58.8955 1.73584 59.4944 2.08935 60.0177" stroke="#636058" stroke-miterlimit="10" stroke-linecap="round"/>
<path d="M19.4487 47.7363L17.5856 49.5994C17.0951 50.0992 16.5567 50.5498 15.9782 50.9446C14.9659 51.6265 13.851 52.1419 12.6758 52.4713" stroke="#636058" stroke-miterlimit="10" stroke-linecap="round"/>
<path d="M32.4028 27.9541C32.4065 27.9696 32.4065 27.9857 32.4028 28.0012C32.5308 29.0969 32.5172 30.2046 32.3624 31.2968C32.1854 32.5887 31.804 33.8442 31.2325 35.0162C30.6614 36.2024 29.8927 37.2828 28.9591 38.211L26.8405 40.3364L24.5537 42.6299" stroke="#636058" stroke-miterlimit="10" stroke-linecap="round"/>
<path d="M66.4559 37.9425C65.6107 38.4973 64.8894 39.2209 64.3373 40.0679L64.0615 39.6912C63.6588 39.1215 63.1632 38.6236 62.5953 38.2183L62.2119 37.9425C63.0252 37.342 63.7419 36.6208 64.3373 35.8037C64.8751 36.6372 65.5806 37.3496 66.4088 37.8954L66.4559 37.9425Z" fill="#8FC4B3"/>
<path d="M71.2986 9.68103C70.4501 10.2313 69.7262 10.953 69.1732 11.7997L68.9042 11.423C68.4973 10.8546 67.9996 10.357 67.4312 9.95006L67.0479 9.68103C67.8598 9.08424 68.5764 8.36761 69.1732 7.55566C69.7116 8.391 70.4197 9.10369 71.2515 9.6474L71.2986 9.68103Z" fill="#56AD90"/>
<path d="M18.1835 20.3344C17.3363 20.889 16.6128 21.6126 16.0581 22.4597L15.7891 22.0763C15.3821 21.5079 14.8845 21.0103 14.3161 20.6034L13.9395 20.3344C14.7494 19.7374 15.4637 19.0208 16.0581 18.209C16.6001 19.0413 17.3075 19.7533 18.1364 20.3007L18.1835 20.3344Z" fill="#4FA8B3"/>
</svg>
