<svg width="83" height="83" viewBox="0 0 83 83" fill="none" xmlns="http://www.w3.org/2000/svg">
<path d="M53.9019 77.1279H52.8101C51.9204 77.1279 51.1992 77.8492 51.1992 78.7388V80.3979C51.1992 81.2876 51.9204 82.0088 52.8101 82.0088H53.9019C54.7916 82.0088 55.5128 81.2876 55.5128 80.3979V78.7388C55.5128 77.8492 54.7916 77.1279 53.9019 77.1279Z" fill="black"/>
<path d="M30.8365 77.1279H29.7447C28.855 77.1279 28.1338 77.8492 28.1338 78.7388V80.3979C28.1338 81.2876 28.855 82.0088 29.7447 82.0088H30.8365C31.7261 82.0088 32.4474 81.2876 32.4474 80.3979V78.7388C32.4474 77.8492 31.7261 77.1279 30.8365 77.1279Z" fill="black"/>
<path d="M46.8862 12.0654H36.4929C35.6328 12.0654 34.9355 12.7627 34.9355 13.6228V28.0888C34.9355 28.9489 35.6328 29.6462 36.4929 29.6462H46.8862C47.7463 29.6462 48.4436 28.9489 48.4436 28.0888V13.6228C48.4436 12.7627 47.7463 12.0654 46.8862 12.0654Z" stroke="#636058" stroke-miterlimit="10" stroke-linecap="round"/>
<path d="M53.1794 80.5904H30.1986C28.358 80.5904 26.5924 79.8611 25.2884 78.5621C23.9844 77.2631 23.2483 75.5003 23.2412 73.6598V34.1097C23.2412 32.2645 23.9742 30.4949 25.279 29.1901C26.5837 27.8854 28.3534 27.1523 30.1986 27.1523H53.1794C55.0246 27.1523 56.7942 27.8854 58.099 29.1901C59.4037 30.4949 60.1367 32.2645 60.1367 34.1097V73.6598C60.1297 75.5003 59.3935 77.2631 58.0895 78.5621C56.7855 79.8611 55.02 80.5904 53.1794 80.5904Z" fill="#EBBC45"/>
<path d="M37.6646 26.2906H45.7673C46.0979 26.2909 46.4235 26.3714 46.7162 26.5252C47.0089 26.679 47.2599 26.9015 47.4478 27.1736H48.7375C48.6098 26.6567 48.3128 26.1973 47.8939 25.8685C47.4749 25.5398 46.9581 25.3605 46.4256 25.3594H37.0117C36.4785 25.3603 35.9608 25.5393 35.541 25.868C35.1212 26.1967 34.8232 26.6562 34.6943 27.1736H36.0109C36.1958 26.9049 36.4425 26.6845 36.7302 26.5308C37.018 26.3771 37.3384 26.2948 37.6646 26.2906Z" fill="black"/>
<path d="M41.6731 13.2488C45.3057 13.2488 48.2505 12.9924 48.2505 12.6762C48.2505 12.3599 45.3057 12.1035 41.6731 12.1035C38.0405 12.1035 35.0957 12.3599 35.0957 12.6762C35.0957 12.9924 38.0405 13.2488 41.6731 13.2488Z" fill="#636058"/>
<path d="M41.7164 12.5476C44.8524 12.5476 47.3947 12.2913 47.3947 11.975C47.3947 11.6587 44.8524 11.4023 41.7164 11.4023C38.5803 11.4023 36.0381 11.6587 36.0381 11.975C36.0381 12.2913 38.5803 12.5476 41.7164 12.5476Z" fill="#636058"/>
<path d="M30.7873 27.1738H30.1986C28.3534 27.1738 26.5837 27.9068 25.279 29.2116C23.9742 30.5164 23.2412 32.286 23.2412 34.1312V73.6813C23.2483 75.5218 23.9844 77.2846 25.2884 78.5836C26.5924 79.8826 28.358 80.6119 30.1986 80.6119H30.7873V27.1738Z" fill="#F0D490"/>
<path d="M23.2627 55.0405V52.5947" stroke="#636058" stroke-miterlimit="10" stroke-linecap="round"/>
<path d="M32.0182 80.5908H30.1986C28.358 80.5908 26.5924 79.8615 25.2884 78.5625C23.9844 77.2635 23.2483 75.5007 23.2412 73.6602" stroke="#636058" stroke-miterlimit="10" stroke-linecap="round"/>
<path d="M46.1895 80.5898H34.4102" stroke="#636058" stroke-miterlimit="10" stroke-linecap="round"/>
<path d="M60.1162 60.1572V72.8304V73.6599" stroke="#636058" stroke-miterlimit="10" stroke-linecap="round"/>
<path d="M60.1162 49.0303V51.5403" stroke="#636058" stroke-miterlimit="10" stroke-linecap="round"/>
<path d="M60.1162 40.2646V46.6601" stroke="#636058" stroke-miterlimit="10" stroke-linecap="round"/>
<path d="M53.1797 27.1738C55.0249 27.1738 56.7945 27.9068 58.0993 29.2116C59.4041 30.5164 60.1371 32.286 60.1371 34.1312" stroke="#636058" stroke-miterlimit="10" stroke-linecap="round"/>
<path d="M23.2627 48.8166V34.1097C23.2627 32.2645 23.9957 30.4949 25.3005 29.1901C26.6052 27.8854 28.3749 27.1523 30.2201 27.1523" stroke="#636058" stroke-miterlimit="10" stroke-linecap="round"/>
<path d="M28.1279 42.5928H44.9487" stroke="#636058" stroke-miterlimit="10" stroke-linecap="round"/>
<path d="M46.2754 42.5928H52.4728" stroke="#636058" stroke-miterlimit="10" stroke-linecap="round"/>
<path d="M28.3252 50.2832H43.4976" stroke="#636058" stroke-miterlimit="10" stroke-linecap="round"/>
<path d="M45.1406 50.2832H47.2921" stroke="#636058" stroke-miterlimit="10" stroke-linecap="round"/>
<path d="M48.7373 50.2832H52.6656" stroke="#636058" stroke-miterlimit="10" stroke-linecap="round"/>
<path d="M28.3789 57.9785H34.4639" stroke="#636058" stroke-miterlimit="10" stroke-linecap="round"/>
<path d="M35.7754 57.9785H47.9133" stroke="#636058" stroke-miterlimit="10" stroke-linecap="round"/>
<path d="M48.791 57.9785H52.7193" stroke="#636058" stroke-miterlimit="10" stroke-linecap="round"/>
<path d="M28.3252 65.6758H46.2164" stroke="#636058" stroke-miterlimit="10" stroke-linecap="round"/>
<path d="M47.8604 65.6758H52.6663" stroke="#636058" stroke-miterlimit="10" stroke-linecap="round"/>
<path d="M66.9019 63.4104C66.2278 63.8518 65.6521 64.4275 65.2107 65.1016L64.9966 64.8019C64.6728 64.3496 64.2769 63.9537 63.8246 63.6299L63.5195 63.4104C64.1655 62.9375 64.7357 62.3691 65.2107 61.7246C65.6391 62.3893 66.2025 62.9564 66.8644 63.389L66.9019 63.4104Z" fill="#8FC4B3"/>
<path d="M72.0713 37.9954C71.396 38.4352 70.8199 39.0112 70.3802 39.6866L70.1661 39.3815C69.8394 38.9317 69.4438 38.5362 68.994 38.2095L68.6943 37.9954C69.3387 37.5224 69.9071 36.9539 70.3802 36.3096C70.8115 36.9719 71.3744 37.5384 72.0339 37.974L72.0713 37.9954Z" fill="#56AD90"/>
<path d="M13.6993 63.4104C13.0267 63.8519 12.4528 64.4277 12.0134 65.1016L11.794 64.8019C11.4731 64.3472 11.0767 63.9508 10.622 63.6299L10.3223 63.4104C10.9682 62.9375 11.5385 62.3691 12.0134 61.7246C12.4414 62.3879 13.0027 62.9547 13.6618 63.389L13.6993 63.4104Z" fill="#4FA8B3"/>
<path d="M52.4736 12.8204L63.6161 9.04199" stroke="#636058" stroke-miterlimit="10" stroke-linecap="round"/>
<path d="M50.1934 9.20718L52.4732 5.58398" stroke="#636058" stroke-miterlimit="10" stroke-linecap="round"/>
<path d="M51.8633 10.3743L56.5515 7.86426" stroke="#636058" stroke-miterlimit="10" stroke-linecap="round"/>
<path d="M48.1865 8.13227L48.315 1.0625" stroke="#636058" stroke-miterlimit="10" stroke-linecap="round"/>
</svg>
