<svg width="55" height="56" viewBox="0 0 55 56" fill="none" xmlns="http://www.w3.org/2000/svg">
<g clip-path="url(#clip0_504_36)">
<path d="M27.4964 55.9927C42.6823 55.9927 54.9928 43.4583 54.9928 27.9964C54.9928 12.5344 42.6823 0 27.4964 0C12.3106 0 0 12.5344 0 27.9964C0 43.4583 12.3106 55.9927 27.4964 55.9927Z" fill="#330000"/>
<path d="M21.233 15.4974C22.1646 15.4974 23.0962 15.512 24.0278 15.4901C24.3861 15.4828 24.5509 15.5995 24.6727 15.9497C26.6936 21.7796 28.7216 27.6094 30.7496 33.4393C31.5665 35.796 32.3906 38.1527 33.2076 40.5022C33.401 41.0567 33.3581 41.1151 32.7919 41.1151C31.2655 41.1151 29.7392 41.1078 28.2056 41.1224C27.8688 41.1224 27.7111 40.991 27.6108 40.6846C27.0232 38.9189 26.4141 37.1531 25.8336 35.3801C25.7548 35.132 25.6473 35.0518 25.3893 35.0518C22.659 35.0591 19.9216 35.0664 17.1913 35.0518C16.9118 35.0518 16.8043 35.1466 16.7255 35.402C16.188 37.1385 15.6219 38.8605 15.0916 40.597C14.9769 40.9692 14.7978 41.1224 14.4037 41.1224C13.0421 41.1005 11.6805 41.1151 10.319 41.1151C9.76717 41.1151 9.70268 41.0275 9.88899 40.4949C11.487 35.8106 13.0851 31.1263 14.6831 26.4347C15.6649 23.5453 16.6395 20.6559 17.6212 17.7665C17.8219 17.1828 17.8721 16.5845 17.8864 15.9716C17.8936 15.5047 17.9151 15.4901 18.388 15.4901C19.3196 15.4974 20.2727 15.4974 21.233 15.4974Z" fill="#FE9900"/>
<path d="M21.5267 19.6274C21.6557 20.0798 21.7775 20.5249 21.9065 20.9773C22.6948 23.7353 23.5619 26.4715 24.4218 29.2076C24.5795 29.6965 24.5723 29.6965 24.0492 29.6965C22.3652 29.6965 20.6811 29.6965 18.9971 29.6965C18.5026 29.6965 18.517 29.7038 18.6674 29.2003C19.5775 26.2015 20.5665 23.2246 21.3261 20.182C21.3691 19.9996 21.4121 19.8171 21.4551 19.6347C21.4766 19.6274 21.4981 19.6274 21.5267 19.6274Z" fill="#330000"/>
<path d="M41.2261 31.4253C41.2261 34.4607 41.2261 37.5033 41.2261 40.5386C41.2261 41.1296 41.2118 41.1369 40.6528 41.1369C39.2339 41.1369 37.8151 41.1369 36.389 41.1369C35.9519 41.1369 35.8945 41.0712 35.8945 40.6261C35.8945 34.4752 35.8945 28.3244 35.8945 22.1735C35.8945 21.7284 35.9232 21.6992 36.3675 21.6992C37.8151 21.6992 39.2554 21.6992 40.703 21.6992C41.2046 21.6992 41.2333 21.7211 41.2333 22.2319C41.2261 25.2964 41.2261 28.3608 41.2261 31.4253Z" fill="#FE9900"/>
<path d="M35.6221 16.57C35.6221 14.8335 36.8977 13.5493 38.6104 13.542C40.4019 13.542 41.57 14.7459 41.5628 16.5992C41.5628 18.3576 40.3231 19.6564 38.6462 19.6564C36.8332 19.6564 35.6149 18.416 35.6221 16.57Z" fill="#FE9900"/>
</g>
<defs>
<clipPath id="clip0_504_36">
<rect width="55" height="56" fill="white"/>
</clipPath>
</defs>
</svg>
