<svg width="56" height="56" viewBox="0 0 56 56" fill="none" xmlns="http://www.w3.org/2000/svg">
<path d="M27.5554 55.8647C42.7199 55.8647 55.0132 43.5715 55.0132 28.407C55.0132 13.2425 42.7199 0.949219 27.5554 0.949219C12.3909 0.949219 0.0976562 13.2425 0.0976562 28.407C0.0976562 43.5715 12.3909 55.8647 27.5554 55.8647Z" fill="#00005B"/>
<path d="M21.9789 35.037H13.0004L11.1643 40.7273C11.1187 40.9544 10.9147 41.0895 10.7108 41.0676H6.0858C5.81367 41.0676 5.74548 40.9313 5.81367 40.6366L13.6354 18.2837C13.7036 18.0341 13.7712 17.8533 13.885 17.5355C13.9764 17.0369 14.0208 16.4926 14.0208 15.9709C13.9989 15.8576 14.0896 15.7219 14.2253 15.6987H20.5282C20.7321 15.6987 20.8228 15.7669 20.8453 15.9027L29.6643 40.6817C29.7325 40.9538 29.6643 41.067 29.4153 41.067H24.3599C24.201 41.0895 24.0196 40.9763 23.9745 40.7949L21.9795 35.0363L21.9789 35.037ZM14.4068 30.2087H20.5513C20.4149 29.7094 20.2104 29.0976 19.9839 28.4626C19.7574 27.8051 19.5529 27.1026 19.3258 26.3769C19.0774 25.6287 18.8729 24.9037 18.6226 24.1555C18.3743 23.4072 18.1697 22.7047 17.9651 22.0015C17.7612 21.3215 17.6029 20.6872 17.4215 20.1204H17.3758C17.1494 21.1633 16.8997 22.2061 16.56 23.2483C16.1972 24.4044 15.8344 25.6293 15.449 26.8305C15.1312 28.0548 14.769 29.1883 14.4061 30.2087H14.4068Z" fill="#9999FF"/>
<path d="M32.4084 40.7046V26.3091C32.4084 25.8781 32.4084 25.357 32.3853 24.8352C32.3634 24.2684 32.3634 23.7698 32.3403 23.2938C32.3177 22.8177 32.2952 22.3416 32.2727 22.0695C32.2495 22.0013 32.2495 21.9106 32.3177 21.8199C32.3853 21.7742 32.4535 21.7523 32.5667 21.7523H36.4673C36.6024 21.7523 36.7382 21.7742 36.8514 21.8199C36.9421 21.8655 37.0109 21.9556 37.056 22.092C37.1016 22.2278 37.1698 22.4323 37.2155 22.6356C37.2824 22.9078 37.3281 23.1799 37.3512 23.4295C38.0994 22.772 38.9828 22.2734 39.913 21.9331C40.8652 21.6153 41.8398 21.457 42.8377 21.457C43.6084 21.457 44.3791 21.5703 45.1048 21.8199C46.827 22.3867 48.1871 23.701 48.7776 25.402C49.1624 26.3992 49.3213 27.6917 49.3213 29.2788V40.7277C49.3213 40.9767 49.2306 41.068 49.0041 41.068L44.4479 41.1131C44.2427 41.1362 44.0845 41.0224 44.0613 40.8184V29.8687C44.0382 29.143 43.903 28.4173 43.6084 27.7605C43.3813 27.2844 43.0416 26.8308 42.6106 26.5587C42.112 26.2415 41.5452 26.1052 40.9559 26.1283C40.3209 26.1283 39.6859 26.2184 39.1191 26.4686C38.5755 26.6951 38.0988 27.0129 37.6684 27.3983V40.774C37.6684 41.0236 37.5777 41.1143 37.3512 41.1143H32.7494C32.5899 41.1375 32.4316 41.0236 32.4084 40.8422C32.3853 40.7508 32.3853 40.729 32.4084 40.7058V40.7046Z" fill="#9999FF"/>
</svg>
