<svg width="56" height="56" viewBox="0 0 56 56" fill="none" xmlns="http://www.w3.org/2000/svg">
<g clip-path="url(#clip0_512_2121)">
<path d="M28.1377 56C43.3255 56 55.6377 43.464 55.6377 28C55.6377 12.536 43.3255 0 28.1377 0C12.9499 0 0.637695 12.536 0.637695 28C0.637695 43.464 12.9499 56 28.1377 56Z" fill="#470137"/>
<path d="M18.2646 25.9324C19.1037 24.2952 19.8791 22.7594 20.6725 21.2335C21.4691 19.7011 22.2951 18.1836 23.0836 16.6461C23.2338 16.3519 23.4052 16.2622 23.7121 16.2638C25.2743 16.2755 26.8366 16.2638 28.3988 16.2721C28.5702 16.2721 28.8004 16.1741 28.8983 16.3985C28.9865 16.5996 28.82 16.7525 28.7237 16.912C26.4627 20.7083 24.2051 24.5079 21.9376 28.3009C21.7368 28.635 21.683 28.866 21.9164 29.2516C24.3504 33.2656 26.7533 37.2996 29.1595 41.3319C29.2738 41.523 29.4974 41.7274 29.375 41.9601C29.2477 42.2045 28.9587 42.0781 28.7465 42.0798C27.0798 42.0914 25.4131 42.0715 23.748 42.0948C23.1815 42.1031 22.8355 41.9103 22.5759 41.3717C21.1655 38.4464 19.6049 35.6025 18.0492 32.757C18.0002 32.6656 17.9333 32.5858 17.8435 32.4562C17.0207 34.0335 16.2192 35.5743 15.4128 37.1117C14.621 38.6209 13.8114 40.1218 13.0311 41.6393C12.8384 42.015 12.5805 42.1297 12.1838 42.1247C10.6004 42.1097 9.01853 42.1247 7.43507 42.1214C6.77067 42.1214 6.72496 42.0466 7.07593 41.4548C8.54023 38.9949 10.0159 36.54 11.4868 34.0834C12.3846 32.5841 13.2727 31.0783 14.1836 29.5857C14.3484 29.3164 14.355 29.1386 14.1917 28.8593C12.2589 25.5501 10.3424 22.2308 8.42269 18.9132C8.01132 18.2035 7.60321 17.4905 7.18694 16.7841C6.99594 16.46 6.94371 16.2472 7.44323 16.2505C9.21442 16.2622 10.984 16.2605 12.7552 16.2505C13.1241 16.2489 13.3167 16.4217 13.4604 16.7475C14.8169 19.844 16.6812 22.6646 18.1553 25.6997C18.1814 25.7545 18.2075 25.811 18.263 25.9307L18.2646 25.9324Z" fill="#FE60F5"/>
<path d="M47.8524 27.6443C47.9079 31.9076 47.7495 36.1709 47.952 40.4326C47.9716 40.8348 47.8328 41.0575 47.4639 41.1988C44.4977 42.3324 41.4337 42.8825 38.2847 42.4753C33.1654 41.8121 30.0686 38.3998 29.8923 33.1874C29.8058 30.641 30.369 28.3157 31.9002 26.2747C33.629 23.9693 35.9585 22.7061 38.7418 22.2507C39.7539 22.0845 40.7741 22.0379 41.7912 22.1343C42.3299 22.1842 42.4441 22.0014 42.4376 21.4811C42.4098 19.2539 42.4392 17.0267 42.4147 14.7994C42.4082 14.2393 42.5845 14.0714 43.133 14.0897C44.3818 14.1313 45.6323 14.1063 46.8827 14.1047C47.8442 14.1047 47.8508 14.1013 47.8508 15.1086C47.854 18.0356 47.8508 20.9626 47.8508 23.8912C47.8508 25.1428 47.8508 26.3943 47.8508 27.6459L47.8524 27.6443Z" fill="#FE60F5"/>
<path d="M42.4249 32.2552C42.4249 33.909 42.4168 35.5611 42.4331 37.2149C42.4364 37.5474 42.3482 37.7618 42.0136 37.7734C40.688 37.8199 39.3658 37.9147 38.0957 37.3196C36.638 36.6365 35.9017 35.4265 35.5834 33.914C34.9468 30.874 35.8577 28.3758 38.6328 27.1242C39.6939 26.6455 40.8137 26.6455 41.9417 26.722C42.3401 26.7486 42.4364 26.9763 42.4315 27.3603C42.4135 28.9924 42.4233 30.6246 42.4249 32.2552Z" fill="#470137"/>
</g>
<defs>
<clipPath id="clip0_512_2121">
<rect width="55" height="56" fill="white" transform="translate(0.637695)"/>
</clipPath>
</defs>
</svg>
