<svg width="55" height="55" viewBox="0 0 55 55" fill="none" xmlns="http://www.w3.org/2000/svg">
<path d="M27.4998 54.646C42.4922 54.646 54.646 42.4922 54.646 27.4998C54.646 12.5073 42.4922 0.353516 27.4998 0.353516C12.5073 0.353516 0.353516 12.5073 0.353516 27.4998C0.353516 42.4922 12.5073 54.646 27.4998 54.646Z" fill="#353535"/>
<path d="M22.1562 43.5312C25.106 43.5312 27.5 41.1373 27.5 38.1875V32.8438H22.1562C19.2065 32.8438 16.8125 35.2377 16.8125 38.1875C16.8125 41.1373 19.2065 43.5312 22.1562 43.5312Z" fill="#0ACF83"/>
<path d="M16.8125 27.5C16.8125 24.5502 19.2065 22.1562 22.1562 22.1562H27.5V32.8437H22.1562C19.2065 32.8437 16.8125 30.4498 16.8125 27.5Z" fill="#A259FF"/>
<path d="M16.8125 16.8125C16.8125 13.8627 19.2065 11.4688 22.1562 11.4688H27.5V22.1562H22.1562C19.2065 22.1562 16.8125 19.7623 16.8125 16.8125Z" fill="#F24E1E"/>
<path d="M27.5 11.4688H32.8437C35.7935 11.4688 38.1875 13.8627 38.1875 16.8125C38.1875 19.7623 35.7935 22.1562 32.8437 22.1562H27.5V11.4688Z" fill="#FF7262"/>
<path d="M38.1875 27.5C38.1875 30.4498 35.7935 32.8437 32.8437 32.8437C29.894 32.8437 27.5 30.4498 27.5 27.5C27.5 24.5502 29.894 22.1562 32.8437 22.1562C35.7935 22.1562 38.1875 24.5502 38.1875 27.5Z" fill="#1ABCFE"/>
</svg>
