<svg width="57" height="56" viewBox="0 0 57 56" fill="none" xmlns="http://www.w3.org/2000/svg">
<g clip-path="url(#clip0_516_29)">
<path d="M52.6685 14.3907C47.6745 5.47441 38.3588 0 28.1787 0V27.9952L52.6685 14.3811V14.3907Z" fill="url(#paint0_linear_516_29)"/>
<path d="M52.1883 42.386C57.3744 33.6615 57.4704 22.8277 52.3804 14.0073L28.1787 28.0049L52.1883 42.386Z" fill="url(#paint1_linear_516_29)"/>
<path d="M27.6982 56.0001C37.8783 56.1918 47.3861 50.8229 52.4762 42.0025L28.1784 28.0049L27.6982 56.0001Z" fill="url(#paint2_linear_516_29)"/>
<path d="M3.68848 41.5231C8.58644 50.4394 17.9982 55.9042 28.1783 56.0001V28.0049L3.68848 41.5231Z" fill="url(#paint3_linear_516_29)"/>
<path d="M4.16874 13.6235C-1.11338 22.3481 -1.20941 33.1818 3.88062 42.0022L28.1783 28.0046L4.16874 13.6235Z" fill="url(#paint4_linear_516_29)"/>
<path d="M28.6588 9.80135e-05C18.4787 -0.182063 8.9709 5.18688 3.88086 14.0073L28.1786 28.0049L28.6588 9.80135e-05Z" fill="url(#paint5_linear_516_29)"/>
<path d="M28.178 50.1517C40.4304 50.1517 50.3629 40.2362 50.3629 28.0048C50.3629 15.7734 40.4304 5.85791 28.178 5.85791C15.9257 5.85791 5.99316 15.7734 5.99316 28.0048C5.99316 40.2362 15.9257 50.1517 28.178 50.1517Z" fill="#000F33"/>
<path d="M42.2961 27.6214C40.9515 27.6214 39.8951 28.5801 39.607 29.8265C38.3585 35.8665 32.5001 39.7973 26.4497 38.551C20.3993 37.3046 16.4617 31.4563 17.7102 25.4162C18.9587 19.3762 24.8171 15.4454 30.8675 16.6917C31.3477 16.7876 31.8279 16.8835 32.3081 17.0752C33.4605 17.5546 34.9011 17.0752 35.4773 15.9247L35.5734 15.733C36.3417 14.4866 35.8615 12.8568 34.613 12.0898C34.4209 11.9939 34.3249 11.898 34.1328 11.898C25.4893 8.83005 15.8855 13.3361 12.8123 22.0607C9.73904 30.6893 14.2528 40.2767 22.9923 43.3447C31.6358 46.4127 41.2396 41.9066 44.3129 33.182C44.601 32.4151 44.7931 31.6481 44.9851 30.7852C45.2733 29.3471 44.2168 27.909 42.7763 27.6214C42.6802 27.7172 42.4881 27.6214 42.2961 27.6214Z" fill="white"/>
<path d="M32.6921 25.9912C30.6753 25.9912 29.1387 27.6211 29.1387 29.5385C29.1387 31.5519 30.7713 33.0859 32.6921 33.0859C34.7089 33.0859 36.2455 31.456 36.2455 29.5385C36.3416 27.6211 34.7089 25.9912 32.6921 25.9912Z" fill="white"/>
</g>
<defs>
<linearGradient id="paint0_linear_516_29" x1="27.1799" y1="11.2652" x2="42.4178" y2="20.0699" gradientUnits="userSpaceOnUse">
<stop stop-color="#F3B444"/>
<stop offset="1" stop-color="#F15480"/>
</linearGradient>
<linearGradient id="paint1_linear_516_29" x1="42.1619" y1="36.7774" x2="42.1619" y2="19.9611" gradientUnits="userSpaceOnUse">
<stop stop-color="#B157CE"/>
<stop offset="1" stop-color="#F15480"/>
</linearGradient>
<linearGradient id="paint2_linear_516_29" x1="27.5542" y1="44.5336" x2="42.5713" y2="35.8443" gradientUnits="userSpaceOnUse">
<stop stop-color="#5DA5FB"/>
<stop offset="1" stop-color="#B157CE"/>
</linearGradient>
<linearGradient id="paint3_linear_516_29" x1="13.5324" y1="35.6844" x2="28.1945" y2="44.1718" gradientUnits="userSpaceOnUse">
<stop stop-color="#74E6A7"/>
<stop offset="1" stop-color="#5DA5FB"/>
</linearGradient>
<linearGradient id="paint4_linear_516_29" x1="14.1567" y1="19.3089" x2="14.1567" y2="36.1347" gradientUnits="userSpaceOnUse">
<stop stop-color="#C8ED5C"/>
<stop offset="1" stop-color="#74E6A7"/>
</linearGradient>
<linearGradient id="paint5_linear_516_29" x1="14.3106" y1="19.8268" x2="28.3778" y2="11.6854" gradientUnits="userSpaceOnUse">
<stop stop-color="#C8ED5C"/>
<stop offset="1" stop-color="#F3B444"/>
</linearGradient>
<clipPath id="clip0_516_29">
<rect width="56" height="56" fill="white" transform="translate(0.134766)"/>
</clipPath>
</defs>
</svg>
