<?xml version="1.0" encoding="UTF-8"?><svg id="Layer_2" xmlns="http://www.w3.org/2000/svg" width="1862.31" height="1862.31" viewBox="0 0 1862.31 1862.31"><g id="Layer_1-2"><path d="m925.26,1846.72c-122.62-.08-241.69-24.55-353.91-72.74-108.33-46.52-205.66-113.02-289.29-197.67-83.62-84.63-149.26-183.08-195.1-292.59-47.48-113.43-71.49-233.73-71.37-357.57.12-123.03,24.59-242.35,72.71-354.64,46.48-108.45,112.96-205.82,197.61-289.42,84.62-83.58,183.15-149.19,292.85-195.01,113.55-47.44,234.16-71.49,358.48-71.49h1.69c121.63.22,240.05,24.79,351.98,73.03,107.95,46.52,205.11,112.88,288.77,197.23,83.66,84.34,149.39,182.2,195.36,290.86,47.66,112.65,71.78,231.76,71.67,354.03-.11,124.17-24.45,244.42-72.35,357.4-46.29,109.18-112.57,207.11-196.99,291.08-84.42,83.96-182.84,149.84-292.54,195.82-113.5,47.57-234.27,71.69-358.96,71.69h-.62Z" fill="#fefefe" stroke-width="0"/><path d="m937.25,31.18c.58,0,1.09,0,1.67,0,489.17.87,892.65,407.67,892.22,899.54-.45,499.29-403.8,900.41-905.25,900.41h-.61c-493.03-.32-894.58-406.75-894.09-904.96C31.67,431.53,437.17,31.22,937.25,31.18m0-31.18h0c-63.51,0-126.98,6.33-188.66,18.8-60.14,12.16-119.3,30.29-175.83,53.91-55.51,23.19-109.05,51.89-159.13,85.31-49.61,33.1-96.26,71.12-138.67,113-42.41,41.89-80.92,87.98-114.47,137.01-33.88,49.51-62.98,102.45-86.51,157.35-23.97,55.93-42.39,114.46-54.76,173.98C6.53,800.41.06,863.26,0,926.14c-.06,63.28,6.22,126.58,18.68,188.13,12.14,59.98,30.27,119.03,53.91,175.48,23.2,55.41,51.91,108.89,85.36,158.94,33.12,49.56,71.15,96.19,113.04,138.59,41.89,42.4,87.98,80.92,136.99,114.47,49.5,33.89,102.4,63.02,157.23,86.56,55.88,23.99,114.32,42.43,173.72,54.81,60.95,12.7,123.64,19.16,186.33,19.2h.63c63.69,0,127.29-6.34,189.04-18.83,60.23-12.19,119.43-30.38,175.95-54.07,55.52-23.27,109.03-52.08,159.06-85.63,49.56-33.24,96.14-71.43,138.45-113.51,42.31-42.09,80.72-88.43,114.16-137.74,33.76-49.78,62.76-103.05,86.19-158.31,23.86-56.27,42.19-115.22,54.5-175.19,12.61-61.49,19.04-124.84,19.09-188.28.06-62.51-6.26-125.14-18.78-186.13-12.19-59.4-30.4-117.93-54.11-173.98-23.26-54.98-52.04-108.09-85.54-157.87-33.16-49.27-71.22-95.67-113.1-137.9-41.89-42.23-87.93-80.63-136.85-114.11-49.42-33.83-102.18-62.92-156.82-86.46-55.7-24.01-113.9-42.48-172.96-54.9C1063.47,6.64,1001.17.11,938.97,0h-1.72Z" fill="#c460b3" stroke-width="0"/><path d="m807.13,747.06c51.58-2.61,98.42,10.34,138.56,43.26,7.59,6.23,24.87,11.64,12.53,27.8-11.47,15.02-21.19,11.43-35.96.75-56.78-41.03-119.63-49.04-185.45-24.94-37.91,13.88-54.39,43.33-53.62,85.05.71,38.42,26.8,51.25,57.19,59.99,41.72,12,83.68,23.13,125.57,34.54,85.01,23.16,112.49,51.77,110.7,115.38-1.8,63.99-44.03,109.73-121.03,122.49-74.76,12.39-147.46,3.41-211.15-42.4-11.56-8.31-34.38-15.09-17.22-38.5,16.51-22.53,27.46-2.07,38.1,5.41,61.44,43.13,128.42,54.63,199.82,33.94,46.73-13.54,66.17-41.6,67.11-83.03,1.02-45.07-30.35-60.38-64.76-71.1-41.41-12.9-83.77-22.74-125.74-33.85-82.58-21.87-106.31-49.95-101.48-120.21,3.87-56.26,53.72-103.18,119.79-111.89,15.53-2.05,31.36-1.86,47.05-2.7Z" fill="#c261b1" stroke-width="0"/><path d="m1068.24,869.59c.04-90.53.26-181.06-.16-271.58-.08-17.6.89-30.03,24.43-29.43,22.87.59,20.9,14.41,20.9,29.13,0,164.16.02,328.31.08,492.47.02,71.16,14.12,84.25,85.88,76.4,12.23-1.34,18.4.28,21.16,11.85,2.75,11.48,2.81,23.34-11.42,25.8-27.07,4.68-53.93,13.77-82.09,6.29-38.14-10.13-58.43-36.61-58.67-80.21-.48-86.9-.14-173.81-.11-260.72Z" fill="#c462b2" stroke-width="0"/></g></svg>