<svg width="55" height="56" viewBox="0 0 55 56" fill="none" xmlns="http://www.w3.org/2000/svg">
<g clip-path="url(#clip0_517_5581)">
<path d="M27.5001 55.7752C42.688 55.7752 55.0003 43.4629 55.0003 28.275C55.0003 13.0871 42.688 0.774902 27.5001 0.774902C12.3122 0.774902 0 13.0871 0 28.275C0 43.4629 12.3122 55.7752 27.5001 55.7752Z" fill="#FEFEFE"/>
<path fill-rule="evenodd" clip-rule="evenodd" d="M36.0758 47.8173C36.6185 47.941 37.1871 47.8775 37.6892 47.6367L45.8097 43.7324C46.6633 43.3219 47.2061 42.4585 47.2055 41.5113V15.0395C47.2061 14.0923 46.6633 13.2289 45.8097 12.8184L37.6892 8.91405C37.1147 8.6378 36.4554 8.59524 35.85 8.79509C35.4881 8.91643 35.159 9.12025 34.8893 9.39043L21.8012 23.8662L14.157 17.6014L13.488 17.0267C13.0795 16.6775 12.526 16.55 12.006 16.6859C11.9309 16.7026 11.8579 16.7272 11.7884 16.7599L8.80379 18.0122C8.23437 18.2475 7.84417 18.7815 7.79395 19.3959V37.156C7.84444 37.7701 8.23437 38.3043 8.80379 38.5396L11.7884 39.7713C11.8579 39.8038 11.9309 39.8286 12.006 39.8453C12.526 39.9812 13.0795 39.8537 13.488 39.5045L14.157 38.9502L21.8012 32.6854L34.8893 47.1611C35.2156 47.4868 35.6266 47.7144 36.0758 47.8181V47.8173ZM37.3526 19.9333L27.1754 28.2756L37.3526 36.618V19.9336V19.9333ZM12.72 22.6387L17.8147 28.2754L12.72 33.912V22.6385V22.6387Z" fill="white"/>
<path d="M13.488 39.5243C13.0171 39.9266 12.3599 40.0297 11.7884 39.791L8.80379 38.5388C8.19524 38.285 7.79738 37.6915 7.79395 37.0322V19.5185C7.79765 18.8589 8.19524 18.2657 8.80379 18.0119L11.7884 16.7802C12.3599 16.5415 13.0171 16.6446 13.488 17.047L14.1571 17.6013C13.7502 17.3089 13.1832 17.4015 12.8908 17.8083C12.7795 17.9632 12.7197 18.1493 12.7203 18.3402V38.2104C12.7189 38.7114 13.1242 39.1188 13.6252 39.1201C13.816 39.1206 14.0021 39.0609 14.1571 38.9496L13.488 39.5243Z" fill="#52218A"/>
<path d="M8.80379 38.5392C8.19524 38.2854 7.79738 37.692 7.79395 37.0327V36.8973C7.7995 37.421 8.22855 37.8411 8.75224 37.8355C9.01184 37.8329 9.25902 37.7237 9.43587 37.5336L34.8896 9.39056C35.6282 8.65564 36.7494 8.46477 37.6894 8.91445L45.81 12.8227C46.6636 13.2333 47.2063 14.0967 47.2058 15.0439V15.1382C47.205 14.2788 46.5079 13.5828 45.6485 13.5835C45.2897 13.5838 44.9421 13.7081 44.6645 13.9351L14.157 38.9495L13.488 39.5242C13.0171 39.9266 12.3599 40.0297 11.7884 39.791L8.80379 38.5387V38.5392Z" fill="#6C33AF"/>
<path d="M8.80379 18.0118C8.19524 18.2656 7.79738 18.8591 7.79395 19.5184V19.6538C7.7995 19.1301 8.22855 18.71 8.75224 18.7156C9.01184 18.7182 9.25902 18.8274 9.43587 19.0175L34.8896 47.1603C35.6282 47.8952 36.7494 48.086 37.6894 47.6364L45.81 43.7281C46.6636 43.3175 47.2063 42.4541 47.2058 41.507V41.4126C47.205 42.272 46.5079 42.9681 45.6485 42.9673C45.2897 42.967 44.9421 42.8428 44.6645 42.6157L14.1573 17.6013L13.4882 17.0266C13.0132 16.6311 12.3562 16.5359 11.7887 16.7802L8.80406 18.0118H8.80379Z" fill="#854CC7"/>
<path d="M37.6895 47.6369C36.7494 48.0863 35.6283 47.8957 34.8896 47.1607C35.4559 47.723 36.3711 47.7199 36.9334 47.1533C37.2015 46.8834 37.3521 46.5189 37.3529 46.1385V10.421C37.3556 9.62293 36.7108 8.97366 35.9127 8.97102C35.5297 8.9697 35.1617 9.12065 34.8896 9.39056C35.6283 8.65564 36.7494 8.46477 37.6895 8.91445L45.81 12.8188C46.6636 13.2293 47.2064 14.0927 47.2058 15.0399V41.5117C47.2064 42.4589 46.6636 43.3223 45.81 43.7328L37.6895 47.6371V47.6369Z" fill="#B179F1"/>
<g opacity="0.25">
<path fill-rule="evenodd" clip-rule="evenodd" d="M36.0758 47.8173C36.6185 47.941 37.1871 47.8775 37.6892 47.6367L45.8097 43.7324C46.6633 43.3219 47.2061 42.4585 47.2055 41.5113V15.0395C47.2061 14.0923 46.6633 13.2289 45.8097 12.8184L37.6892 8.91405C37.1147 8.6378 36.4554 8.59524 35.85 8.79509C35.4881 8.91643 35.159 9.12025 34.8893 9.39043L21.8012 23.8662L14.157 17.6014L13.488 17.0267C13.0795 16.6775 12.526 16.55 12.006 16.6859C11.9309 16.7026 11.8579 16.7272 11.7884 16.7599L8.80379 18.0122C8.23437 18.2475 7.84417 18.7815 7.79395 19.3959V37.156C7.84444 37.7701 8.23437 38.3043 8.80379 38.5396L11.7884 39.7713C11.8579 39.8038 11.9309 39.8286 12.006 39.8453C12.526 39.9812 13.0795 39.8537 13.488 39.5045L14.157 38.9502L21.8012 32.6854L34.8893 47.1611C35.2156 47.4868 35.6266 47.7144 36.0758 47.8181V47.8173ZM37.3526 19.9333L27.1754 28.2756L37.3526 36.618V19.9336V19.9333ZM12.72 22.6387L17.8147 28.2754L12.72 33.912V22.6385V22.6387Z" fill="url(#paint0_linear_517_5581)"/>
</g>
</g>
<defs>
<linearGradient id="paint0_linear_517_5581" x1="27.4997" y1="8.67111" x2="27.4997" y2="47.8791" gradientUnits="userSpaceOnUse">
<stop stop-color="white"/>
<stop offset="1" stop-color="white" stop-opacity="0"/>
</linearGradient>
<clipPath id="clip0_517_5581">
<rect width="55" height="55" fill="white" transform="translate(0 0.774902)"/>
</clipPath>
</defs>
</svg>
