<svg width="56" height="56" viewBox="0 0 56 56" fill="none" xmlns="http://www.w3.org/2000/svg">
<g clip-path="url(#clip0_517_5566)">
<path d="M28.1593 55.8176C43.3472 55.8176 55.6594 43.5054 55.6594 28.3175C55.6594 13.1296 43.3472 0.817383 28.1593 0.817383C12.9714 0.817383 0.65918 13.1296 0.65918 28.3175C0.65918 43.5054 12.9714 55.8176 28.1593 55.8176Z" fill="#FEFEFE"/>
<path fill-rule="evenodd" clip-rule="evenodd" d="M35.6058 47.9716C36.2334 48.2161 36.9493 48.2005 37.5827 47.8957L45.7876 43.9478C46.6496 43.533 47.1979 42.6604 47.1979 41.7032V14.9329C47.1979 13.9757 46.6496 13.103 45.7876 12.6882L37.5827 8.74006C36.7513 8.34008 35.7782 8.4379 35.0485 8.96846C34.9444 9.04433 34.845 9.12893 34.7519 9.22198L19.0445 23.5521L12.2027 18.3585C11.5659 17.875 10.675 17.9146 10.0833 18.4528L7.88889 20.449C7.16535 21.1073 7.16455 22.2456 7.88704 22.9046L13.8206 28.3179L7.88704 33.7312C7.16455 34.3905 7.16535 35.5288 7.88889 36.1868L10.0833 38.183C10.675 38.7209 11.5656 38.7606 12.2027 38.2771L19.0445 33.0835L34.7519 47.4136C35.0004 47.6623 35.2923 47.8495 35.6058 47.9716ZM37.2411 19.2708L25.3228 28.3176L37.2411 37.3645V19.2705V19.2708Z" fill="white"/>
<mask id="mask0_517_5566" style="mask-type:luminance" maskUnits="userSpaceOnUse" x="7" y="8" width="41" height="41">
<path fill-rule="evenodd" clip-rule="evenodd" d="M35.6058 47.9716C36.2334 48.2161 36.9493 48.2005 37.5827 47.8957L45.7876 43.9478C46.6496 43.533 47.1979 42.6604 47.1979 41.7032V14.9329C47.1979 13.9757 46.6496 13.103 45.7876 12.6882L37.5827 8.74006C36.7513 8.34008 35.7782 8.4379 35.0485 8.96846C34.9444 9.04433 34.845 9.12893 34.7519 9.22198L19.0445 23.5521L12.2027 18.3585C11.5659 17.875 10.675 17.9146 10.0833 18.4528L7.88889 20.449C7.16535 21.1073 7.16455 22.2456 7.88704 22.9046L13.8206 28.3179L7.88704 33.7312C7.16455 34.3905 7.16535 35.5288 7.88889 36.1868L10.0833 38.183C10.675 38.7209 11.5656 38.7606 12.2027 38.2771L19.0445 33.0835L34.7519 47.4136C35.0004 47.6623 35.2923 47.8495 35.6058 47.9716ZM37.2411 19.2708L25.3228 28.3176L37.2411 37.3645V19.2705V19.2708Z" fill="white"/>
</mask>
<g mask="url(#mask0_517_5566)">
<path d="M45.7879 12.6942L37.5764 8.74045C36.626 8.28284 35.4901 8.47583 34.744 9.22185L7.86303 33.731C7.14001 34.3903 7.1408 35.5287 7.86488 36.1867L10.0606 38.1828C10.6525 38.7208 11.544 38.7604 12.1813 38.2772L44.5523 13.7199C45.6382 12.8962 47.1982 13.6707 47.1982 15.0338V14.9383C47.1982 13.9814 46.6502 13.1092 45.7881 12.6942H45.7879Z" fill="#0065A9"/>
<path d="M45.7876 43.9414L37.5761 47.8952C36.6257 48.3528 35.4898 48.1598 34.7438 47.4138L7.86303 22.9046C7.14001 22.2453 7.1408 21.1069 7.86488 20.449L10.0606 18.4528C10.6525 17.9148 11.544 17.8752 12.1813 18.3584L44.5523 42.9157C45.6382 43.7394 47.1982 42.9649 47.1982 41.6018V41.6973C47.1982 42.654 46.6502 43.5264 45.7881 43.9414H45.7876Z" fill="#007ACC"/>
<path d="M37.5767 47.8957C36.6261 48.353 35.4902 48.1595 34.7441 47.4135C35.6633 48.3327 37.2349 47.6816 37.2349 46.3817V10.2535C37.2349 8.95362 35.6633 8.30251 34.7441 9.22168C35.4902 8.47566 36.6261 8.28242 37.5767 8.73949L45.7866 12.6877C46.6493 13.1025 47.1981 13.9751 47.1981 14.9323V41.7026C47.1981 42.6598 46.6495 43.5325 45.7866 43.9472L37.5767 47.8952V47.8957Z" fill="#1F9CF0"/>
<g opacity="0.25">
<path fill-rule="evenodd" clip-rule="evenodd" d="M35.5814 47.9721C36.209 48.2166 36.9249 48.201 37.5583 47.8962L45.7631 43.9483C46.6252 43.5335 47.1735 42.6609 47.1735 41.7036V14.9334C47.1735 13.9762 46.6252 13.1035 45.7631 12.6887L37.5583 8.74055C36.7269 8.34057 35.7537 8.43838 35.0241 8.96895C34.92 9.04482 34.8206 9.12942 34.7275 9.22247L19.0201 23.5525L12.1783 18.359C11.5414 17.8754 10.6506 17.9151 10.0589 18.4531L7.86448 20.4492C7.14093 21.1075 7.14014 22.2458 7.86263 22.9049L13.7962 28.3181L7.86263 33.7314C7.14014 34.3907 7.14093 35.529 7.86448 36.187L10.0589 38.1832C10.6506 38.7212 11.5414 38.7608 12.1783 38.2776L19.0201 33.084L34.7275 47.414C34.976 47.6625 35.2679 47.85 35.5814 47.9721ZM37.2167 19.2713L25.2984 28.3181L37.2167 37.365V19.271V19.2713Z" fill="url(#paint0_linear_517_5566)"/>
</g>
</g>
</g>
<defs>
<linearGradient id="paint0_linear_517_5566" x1="27.2478" y1="8.49469" x2="27.2478" y2="48.1416" gradientUnits="userSpaceOnUse">
<stop stop-color="white"/>
<stop offset="1" stop-color="white" stop-opacity="0"/>
</linearGradient>
<clipPath id="clip0_517_5566">
<rect width="55" height="55" fill="white" transform="translate(0.65918 0.817383)"/>
</clipPath>
</defs>
</svg>
