<?xml version="1.0" encoding="UTF-8"?><svg id="Layer_2" xmlns="http://www.w3.org/2000/svg" width="389.32" height="445.23" xmlns:xlink="http://www.w3.org/1999/xlink" viewBox="0 0 389.32 445.23"><defs><linearGradient id="linear-gradient" x1="224.1" y1="555.86" x2="223.64" y2="569.34" gradientTransform="translate(-221.83 -397.11) rotate(-16.46)" gradientUnits="userSpaceOnUse"><stop offset="0" stop-color="#fff"/><stop offset="1" stop-color="#91a7a6"/></linearGradient><linearGradient id="linear-gradient-2" x1="-1639.59" y1="-89.91" x2="-1640.04" y2="-76.43" gradientTransform="translate(600.96 -1511.74) rotate(-73.54) scale(1 -1)" xlink:href="#linear-gradient"/><linearGradient id="linear-gradient-3" x1="183.8" y1="53.09" x2="182.7" y2="27.34" gradientUnits="userSpaceOnUse"><stop offset="0" stop-color="#cf9934"/><stop offset="1" stop-color="#dab03b"/></linearGradient><linearGradient id="linear-gradient-4" x1="165.87" y1="18.16" x2="171.8" y2="18.16" xlink:href="#linear-gradient-3"/><linearGradient id="linear-gradient-5" x1="192.91" y1="18.16" x2="198.84" y2="18.16" xlink:href="#linear-gradient-3"/><linearGradient id="linear-gradient-6" x1="179.49" y1="11.06" x2="185.42" y2="11.06" xlink:href="#linear-gradient-3"/><linearGradient id="linear-gradient-7" x1="149.91" y1="17.25" x2="155.84" y2="17.25" xlink:href="#linear-gradient-3"/><linearGradient id="linear-gradient-8" x1="209.38" y1="17.25" x2="215.32" y2="17.25" xlink:href="#linear-gradient-3"/><linearGradient id="linear-gradient-9" x1="182.4" y1="32.83" x2="182.72" y2="14.12" xlink:href="#linear-gradient-3"/><linearGradient id="linear-gradient-10" x1="186.93" y1="169.64" x2="187.26" y2="195.84" gradientUnits="userSpaceOnUse"><stop offset="0" stop-color="#fff"/><stop offset="1" stop-color="#edbcbc"/></linearGradient></defs><g id="_כל_הדמויות"><rect width="389.32" height="445.23" fill="#e5e5e5" opacity="0"/><path d="m272.17,167.72c-2.13-2.15-10.4-9.29-12.83-11.09-11.91-8.84-40.61-25.98-72.57-18.82-.32-.07-.64-.13-.96-.19-.32.07-.64.12-.96.19-31.96-7.16-60.66,9.98-72.57,18.82-2.43,1.8-10.7,8.94-12.83,11.09-7.11,7.18-19.71,7.61-19.71,7.61,1.26,2.69,3.69,5.03,5.68,6.64,2.19,1.77,4.71,3.12,7.46,3.73,2.01.45,3.69.43,5.26.19.92,5.73,22.11,140.78-12.42,214.02h0c64.36-17.47,131.82-17.65,196.27-.51l1.9.51c-35.28-74.84-12.39-214.22-12.39-214.22l.03-.21c2.17.55,4.36.85,7.22.21,2.75-.61,5.27-1.96,7.46-3.73,1.99-1.61,4.41-3.95,5.68-6.64,0,0-12.6-.43-19.71-7.61Z" fill="#edbcbc"/><path d="m118.06,180.35c3.04,54.19,9.1,187.66-3.39,212.88h.19c7.39-1.39,14.8-2.56,22.23-3.51l-4.73-213.21-14.3,3.83Z" fill="#e59393"/><path d="m154.69,170.53c2.57,43.12,9.7,180.2-.89,217.43,6.8-.56,13.61-.93,20.42-1.12l-4.89-220.23-14.64,3.92Z" fill="#e59393"/><path d="m191.56,165.26c2.18,35.4,10.33,180.79-.24,221.48,6.71.12,13.41.42,20.11.89l-4.85-218.53-15.02-3.84Z" fill="#e59393"/><path d="m229.33,174.92c2.78,47.88,9.25,179.95-1.5,214.23,6.98.8,13.95,1.81,20.89,3l-4.74-213.49-14.65-3.75Z" fill="#e59393"/><path d="m184.07,345.93h0c.23.02.45,0,.68,0,.05,0,.11,0,.16,0,.05,0,.11,0,.16,0,.23,0,.45,0,.68,0h0c15.44-.14,42.51-9.87,53.74-25.42,18.61-25.78,22.79-53.78,13.77-88.75-10.52,31.1-44.92,105.56-127.78,81.41,1.5,2.47,3.1,4.91,4.85,7.34,11.23,15.55,38.3,25.27,53.74,25.4Z" fill="#c6c6c6" opacity=".19"/><path d="m204.03,306.93c66.28-34.75,86.62-41.11,80.36-83.24-2-13.45-.91-29.33,8.25-34.1,3.3-1.72,7.41-.55,10.63,1.74,10.91,7.76,13.51,24.54,8.02,42.44-15.27,49.81-46.1,56.46-112.23,86.19l4.97-13.02Z" fill="#e0dfde"/><path d="m311.29,233.76c4.57-14.89,3.53-29.01-3.23-37.8,1.72,15.31.45,49.61-15.41,65.93-26.72,27.48-74,47.08-91.63,52.94l-1.96,5.12c66.13-29.74,96.96-36.38,112.23-86.19Z" fill="#c6c6c6" opacity=".44"/><path d="m240.61,195.94c-10.01-23.04-20.96-39.79-30.49-51.59h.13c-14.08-17.44-25.02-24.06-25.12-24.12,0,0-.03.02-.07.04-.04-.02-.06-.04-.07-.04,0,0-.04.03-.09.06-.05-.03-.09-.05-.09-.06,0,0-.03.02-.07.04-.04-.02-.06-.04-.07-.04-.1.06-11.05,6.68-25.12,24.12h.13c-9.52,11.8-20.48,28.55-30.49,51.59-22.88,52.68-23.44,90.56,1.12,124.59,11.23,15.55,38.3,25.27,53.74,25.4h0c.23.02.45,0,.68,0,.05,0,.11,0,.16,0,.05,0,.11,0,.16,0,.23,0,.45,0,.68,0h0c15.44-.14,42.51-9.87,53.74-25.42,24.56-34.02,24.01-71.91,1.12-124.59Z" fill="#f2f2f2"/><path d="m138,396.82s-28.24,4.46-20.5,28.22c4.59,14.1,28.61,12.5,35.83,11.4,8.71-1.32,19.08-6.53,17.18-33.65-.24-3.51-2.37-28.95,5.02-68.3,5.14-27.36,14.62-25.22,14.62-25.22l-64.64-18.51s-3.61,64.43,12.48,106.05Z" fill="#f2f2f2"/><path d="m118.52,408.47c-2.42,4.06-3.34,9.44-1.02,16.57,4.59,14.1,28.61,12.5,35.83,11.4,8.07-1.23,17.57-5.81,17.4-28.09-9.78,36.08-42.07,8.55-52.21.11Z" fill="#e0dfde" opacity=".3"/><path d="m166.61,403.12c1.64,7.01.47,14.47-3.7,20.34-5.16,7.26-15.57,13.75-36.55,10.68,9.07,4.05,22,3.06,26.96,2.3,8.71-1.32,19.08-6.53,17.18-33.65-.22-3.18-1.99-24.4,3.19-57.68l-3.34-.42s-10.25,30.62-3.75,58.42Z" fill="#e0dfde"/><path d="m116.68,412.93c-.37,1.48-.55,3.09-.51,4.84,2.66-9.81,20.15-11.68,20.15-11.68-6.15-1.42-15.68,1.59-19.64,6.83Z" fill="#c6c6c6"/><path d="m116.61,421.56c.19.79.29,1.57.56,2.4.14.42.31,1.11.48,1.51,1.43-7.22,18.46-10.9,18.46-10.9-9.73-.47-15.96,3.51-19.5,6.99Z" fill="#c6c6c6"/><path d="m139.63,421.48c-10.74-.56-16.12,5.98-18.73,9.03.97.96,1.43,1.39,2.64,2.1.76-8.24,16.09-11.14,16.09-11.14Z" fill="#c6c6c6"/><path d="m231.97,396.82s28.24,4.46,20.5,28.22c-4.59,14.1-28.61,12.5-35.83,11.4-8.71-1.32-19.08-6.53-17.18-33.65.24-3.51,2.37-28.95-5.02-68.3-5.14-27.36-14.62-25.22-14.62-25.22l64.64-18.51s3.61,64.43-12.48,106.05Z" fill="#f2f2f2"/><path d="m251.45,408.47c2.42,4.06,3.34,9.44,1.02,16.57-4.59,14.1-28.61,12.5-35.83,11.4-8.07-1.23-17.57-5.81-17.4-28.09,9.78,36.08,42.07,8.55,52.21.11Z" fill="#e0dfde" opacity=".3"/><path d="m203.35,403.12c-1.64,7.01-.47,14.47,3.7,20.34,5.16,7.26,15.57,13.75,36.55,10.68-9.07,4.05-22,3.06-26.96,2.3-8.71-1.32-19.08-6.53-17.18-33.65.22-3.18,1.99-24.4-3.19-57.68l3.34-.42s10.25,30.62,3.75,58.42Z" fill="#e0dfde"/><path d="m253.29,412.93c.37,1.48.55,3.09.51,4.84-2.66-9.81-20.15-11.68-20.15-11.68,6.15-1.42,15.68,1.59,19.64,6.83Z" fill="#c6c6c6"/><path d="m253.36,421.56c-.19.79-.29,1.57-.56,2.4-.14.42-.31,1.11-.48,1.51-1.43-7.22-18.46-10.9-18.46-10.9,9.73-.47,15.96,3.51,19.5,6.99Z" fill="#c6c6c6"/><path d="m230.34,421.48c10.74-.56,16.12,5.98,18.73,9.03-.97.96-1.43,1.39-2.64,2.1-.76-8.24-16.09-11.14-16.09-11.14Z" fill="#c6c6c6"/><path d="m239.72,258.44c-9.45-38.5-23.9-71.45-53.38-71.45-.08,0-.16,0-.23,0h0c-.08,0-.16,0-.23,0-29.48,0-43.92,32.96-53.38,71.45-10.51,42.8,23.9,71.45,53.38,71.45.08,0,.16,0,.23,0h0c.08,0,.16,0,.23,0,29.48,0,63.89-28.66,53.38-71.45Z" fill="#e0dfde"/><path d="m184.07,345.93h0c.23.02.45,0,.68,0,.05,0,.11,0,.16,0,.05,0,.11,0,.16,0,.23,0,.45,0,.68,0h0c15.44-.14,42.51-9.87,53.74-25.42,18.61-25.78,22.79-53.78,13.77-88.75-10.52,31.1-44.92,105.56-127.78,81.41,1.5,2.47,3.1,4.91,4.85,7.34,11.23,15.55,38.3,25.27,53.74,25.4Z" fill="#c6c6c6" opacity=".19"/><path d="m209.42,183.27l41.78,53.75c-20.26,17.08-30.9,21.42-41.63,35.63-.79,1.05,5.66,8.02,5.66,9.56,0,5.86,5.38,5.02,15.07,4.06,0,0,26.58-12.34,48.78-29.53,36.25-28.06-20.42-86.66-52.35-98.59-41.9-15.66-17.33,25.12-17.33,25.12Z" fill="#f2f2f2"/><rect x="204.92" y="212.93" width="5.34" height="106.02" rx="2.67" ry="2.67" transform="translate(-106.17 141.96) rotate(-30.46)" fill="#dbb13c"/><polygon points="167.29 194.75 185.69 205.32 183.96 226.46 165.56 215.9 167.29 194.75" fill="#cc900a"/><polygon points="167.4 214.93 168.81 197.64 183.86 206.28 182.44 223.57 167.4 214.93" fill="#7a1603"/><polygon points="169.41 198.77 183.14 206.66 181.85 222.45 168.11 214.56 169.41 198.77" fill="#c43210"/><ellipse cx="182.78" cy="223.77" rx="4.22" ry="2.19" transform="translate(-88.22 123.56) rotate(-30.46)" fill="#dbb13c"/><path d="m181.34,226.58s2.88-.32,4.61-2.71c0,0-.59,3.3-4.61,2.71Z" fill="#c49a34"/><path d="m179,225.44s3.57-.73,6.98-4.24c0,0-2.27,4.36-6.98,4.24Z" fill="#c49a34"/><path d="m216.14,265.15c-.6.55-1.32.99-2.1,1.23-2.01.62-5.83,1.07-8.58-3.13-3.57-5.47-14.13-1.69-6.12,5.55,1.51,1.37.7,3.33-.03,4.62-2.57,4.54-5.08,12.77,4.36,18.2,3.72,2.14,8.23,2.47,12.32,1.09,5.54-1.87,12.97-5.25,14.53-6.77,2.83-2.74-12.53-6.32-10.53-24.32l-3.86,3.53Z" fill="#f2f2f2"/><path d="m215.59,271.39s-10.52,8.56-18.16,6.32c0,0-.11.58-.32,1.78-.13.75,1.84.96,3,.98,3.52.07,10.42-3.12,15.48-9.08Z" fill="#e0dfde"/><path d="m215.25,279.63s-12.43,9.46-17.89,4.77c0,0,.16.39.53,1.35.41,1.06.46,1.26.78,1.4,3.23,1.37,11.52-1.56,16.58-7.52Z" fill="#e0dfde"/><path d="m218.22,284.78s-8.79,7.83-16.44,5.59c0,0,.43.46,1.42,1.21s1.64,1.01,2.81,1.03c3.52.07,7.15-1.87,12.21-7.83Z" fill="#e0dfde"/><path d="m163.22,180.95l-54.46,37.85s57.05,67.81-5.41,71.09c-2.47.13-4.86-.91-6.41-2.83-3.53-4.38-7.46-12.63,7.1-17.71,0,0-1.41-13.82-19.68-33.34-31.33-33.46,25.58-64.38,57.5-76.31,41.9-15.66,21.36,21.24,21.36,21.24Z" fill="#f2f2f2"/><path d="m101.44,289.76c.62.12,1.26.17,1.91.14,62.45-3.29,5.41-71.09,5.41-71.09,0,0,49.27,63.06-7.32,70.96Z" fill="#e0dfde"/><path d="m144.49,333.17s34.38,33.33,83.34-1.65c.25-2.13-37.62,30.64-83.34,1.65Z" fill="#c6c6c6"/><path d="m94.13,185.69s10.59-14.02,91.36,9.81c0,0,.41-1-3.56-2.49-17.98-6.78-66.51-26.66-19.55-40.69.96-.1-13.9-5.17-18.32-9.92-4.1-4.41-49.93,43.3-49.93,43.3Z" fill="#edbcbc"/><path d="m141.13,160.47c-6.51,8.07,3.28,17.95,12.06,22.17,6.58,3.16,24,9.71,32.31,12.79,0-.25-.22-1.15-3.57-2.42-17.98-6.78-66.51-26.66-19.55-40.69.32-.04-1.15-.63-3.41-1.59-4.94,1.31-13.41,4.24-17.85,9.75Z" fill="#e59393"/><path d="m277.22,185.92s-10.59-14.02-91.36,9.81c0,0-.41-1,3.56-2.49,17.98-6.78,66.51-26.66,19.55-40.69-.96-.1,9.61-3.91,18.32-9.92,4.95-3.42,49.93,43.3,49.93,43.3Z" fill="#edbcbc"/><path d="m230.23,160.7c6.51,8.07-3.28,17.95-12.06,22.17-6.58,3.16-24,9.71-32.31,12.79,0-.25.22-1.15,3.57-2.42,17.98-6.78,66.51-26.66,19.55-40.69-.32-.04.98-.72,3.24-1.67,4.94,1.31,13.58,4.32,18.01,9.83Z" fill="#e59393"/><path d="m99.69,177.86s33.2-42.47,86.12-40.25c52.92,2.22,86.12,40.25,86.12,40.25l-4.83-.16c3.15.03-47.96-41.68-81.6-38.35-40.23,3.98-63.29,16.9-80.97,38.35l-4.83.16Z" fill="#e69b91" opacity=".26"/><path d="m220.95,146.24c-2.56,2.54-10.04,7.32-18.51,11.24-5.37,2.48-10.85,5.1-16.67,5.06-7.16-.05-12.49-2.69-17.43-5.06-8.53-4.09-13.97-8.96-15.15-9.63l67.76-1.61Z" fill="#cecece"/><path d="m246.06,79.93s.15-4,5.03-10.41c4.82-6.32-.4-13.37-.4-13.37,0,0,1.32-8.02,3.91-18.04,1.98-7.63,4.23-14.32,3.85-23-.23-5.08-5.13-3.92-6.53-3.57-6.4,1.61-29.96,10.88-48.71,31.39-2.28,2.49,42.85,36.99,42.85,36.99Z" fill="#f2f2f2"/><path d="m246.71,76.17s-23.31-25.56-41.49-32.53l-2.01-.7c18.36-20.09,41.34-29.39,48.28-31.28-5.71,3.29-17.09,9.78-26.35,17.07-3,2.36-5.61,4.64-7.22,7.57-.21.38-.09.85.27,1.1,7.53,5.31,25.58,21.8,28.52,38.77Z" fill="#c6c6c6" opacity=".32"/><path d="m228.74,38.66c3.69-5.23,12.18-13.72,24.13-23.34.01-.01.07.05.09.04.54-.22.83-.31.83-.31.36.68.6,1.42.76,2.2.96,4.8-1.53,11.46-3.32,18.16-2.16,8.05-3.39,16.12-3.45,19.26.64,1.29,6.26,10.77-.1,17.66,0,0-2.09-12.41-16.24-25.51-.57-.53-1.16-1.06-1.78-1.6-1.76-1.53-2.95-3.68-.92-6.56Z" fill="#c6c6c6"/><path d="m228.74,38.66c3.69-5.23,12.18-13.72,24.13-23.34.01-.01.88-.46.88-.46.36.68.65,1.61.8,2.39-.2.13-18.94,12.13-22.18,22.94-.85,2.85-1.07,5-.94,6.62-.57-.53-1.16-1.06-1.78-1.6-1.76-1.53-2.95-3.68-.92-6.56Z" fill="#bcbcbc"/><path d="m252.87,15.32c7.44-4.59,1.83,15.12-.15,22.26-1.23,4.42-3.34,10.48-3.66,17.43-.04.92.21,1.84.76,2.58,2.82,3.82,3.45,8.96-2.14,14.74,0,0,1.15-4.31.22-8.49-.1-.43-.19-.87-.36-1.28-2.83-7-2.89-10.53-2.22-14.58.7-4.24,11.4-27.81,7.56-32.65Z" fill="#a5a5a5"/><path d="m119.17,79.93s-.15-4-5.03-10.41c-4.82-6.32.4-13.37.4-13.37,0,0-1.32-8.02-3.91-18.04-1.98-7.63-4.23-14.32-3.85-23,.23-5.08,5.13-3.92,6.53-3.57,6.4,1.61,29.96,10.88,48.71,31.39,2.28,2.49-42.85,36.99-42.85,36.99Z" fill="#f2f2f2"/><path d="m118.52,76.17s23.31-25.56,41.49-32.53l2.01-.7c-18.36-20.09-41.34-29.39-48.28-31.28,5.71,3.29,17.09,9.78,26.35,17.07,3,2.36,5.61,4.64,7.22,7.57.21.38.09.85-.27,1.1-7.53,5.31-25.58,21.8-28.52,38.77Z" fill="#c6c6c6" opacity=".32"/><path d="m136.49,38.66c-3.69-5.23-12.18-13.72-24.13-23.34-.01-.01-.07.05-.09.04-.54-.22-.83-.31-.83-.31-.36.68-.6,1.42-.76,2.2-.96,4.8,1.53,11.46,3.32,18.16,2.16,8.05,3.39,16.12,3.45,19.26-.64,1.29-6.26,10.77.1,17.66,0,0,2.09-12.41,16.24-25.51.57-.53,1.16-1.06,1.78-1.6,1.76-1.53,2.95-3.68.92-6.56Z" fill="#c6c6c6"/><path d="m136.49,38.66c-3.69-5.23-12.18-13.72-24.13-23.34-.01-.01-.88-.46-.88-.46-.36.68-.65,1.61-.8,2.39.2.13,18.94,12.13,22.18,22.94.85,2.85,1.07,5,.94,6.62.57-.53,1.16-1.06,1.78-1.6,1.76-1.53,2.95-3.68.92-6.56Z" fill="#bcbcbc"/><path d="m112.36,15.32c-7.44-4.59-1.83,15.12.15,22.26,1.23,4.42,3.34,10.48,3.66,17.43.04.92-.21,1.84-.76,2.58-2.82,3.82-3.45,8.96,2.14,14.74,0,0-1.15-4.31-.22-8.49.1-.43.19-.87.36-1.28,2.83-7,2.89-10.53,2.22-14.58-.7-4.24-11.4-27.81-7.56-32.65Z" fill="#a5a5a5"/><path d="m246.06,79.93s.15-4,5.03-10.41c4.82-6.32-.4-13.37-.4-13.37,0,0,1.32-8.02,3.91-18.04,1.98-7.63,4.23-14.32,3.85-23-.23-5.08-5.13-3.92-6.53-3.57-6.4,1.61-29.96,10.88-48.71,31.39-2.28,2.49,42.85,36.99,42.85,36.99Z" fill="#f2f2f2"/><path d="m246.71,76.17s-23.31-25.56-41.49-32.53l-2.01-.7c18.36-20.09,41.34-29.39,48.28-31.28-5.71,3.29-17.09,9.78-26.35,17.07-3,2.36-5.61,4.64-7.22,7.57-.21.38-.09.85.27,1.1,7.53,5.31,25.58,21.8,28.52,38.77Z" fill="#c6c6c6" opacity=".32"/><path d="m228.74,38.66c3.69-5.23,12.18-13.72,24.13-23.34.01-.01.07.05.09.04.54-.22.83-.31.83-.31.36.68.6,1.42.76,2.2.96,4.8-1.53,11.46-3.32,18.16-2.16,8.05-3.39,16.12-3.45,19.26.64,1.29,6.26,10.77-.1,17.66,0,0-2.09-12.41-16.24-25.51-.57-.53-1.16-1.06-1.78-1.6-1.76-1.53-2.95-3.68-.92-6.56Z" fill="#c6c6c6"/><path d="m228.74,38.66c3.69-5.23,12.18-13.72,24.13-23.34.01-.01.88-.46.88-.46.36.68.65,1.61.8,2.39-.2.13-18.94,12.13-22.18,22.94-.85,2.85-1.07,5-.94,6.62-.57-.53-1.16-1.06-1.78-1.6-1.76-1.53-2.95-3.68-.92-6.56Z" fill="#bcbcbc"/><path d="m252.87,15.32c7.44-4.59,1.83,15.12-.15,22.26-1.23,4.42-3.34,10.48-3.66,17.43-.04.92.21,1.84.76,2.58,2.82,3.82,3.45,8.96-2.14,14.74,0,0,1.15-4.31.22-8.49-.1-.43-.19-.87-.36-1.28-2.83-7-2.89-10.53-2.22-14.58.7-4.24,11.4-27.81,7.56-32.65Z" fill="#a5a5a5"/><path d="m241.06,65.19c-20.02-29.15-54.6-30.6-58.44-30.67-3.85.07-38.42,1.52-58.44,30.67,0,0-9.12,15.02-6.52,34.77,1.63,12.34,6.25,23.02,15.53,31.6,9.77,9.03,22.09,14.61,32.34,18.69,6.78,2.7,12.27,4.69,17.21,4.72,4.95-.03,10.21-2.02,16.99-4.72,10.25-4.08,22.57-9.66,32.34-18.69,9.28-8.58,13.9-19.26,15.53-31.6,2.6-19.75-6.52-34.77-6.52-34.77Z" fill="#f2f2f2"/><path d="m218.43,122.18c-1.91-10.1-12.43-10.35-12.43-10.35-12.17-.7-19.94,5.36-23.4,12-3.46-6.64-11.23-12.71-23.4-12,0,0-10.52.24-12.43,10.35-1.96,10.4,5.06,20.53,15.45,22.54,4.77.92,10.95.6,18.86-2.24.98-.35,2.05-.35,3.03,0,7.91,2.85,14.09,3.17,18.86,2.24,10.39-2.01,17.41-12.15,15.45-22.54Z" fill="#d8d8d8"/><path d="m172.34,114.4c2.65-5.64.96-13.19-1.28-19.17s-7.12-10.57-13.23-12.42l-7.63-2.31c-4.81-.92-9.75-.89-14.52.23-13.85,3.26-19.31,9.68-18.05,19.25,1.63,12.34,6.58,23.36,16.33,32.33,6.08,5.6,16.89,11.82,25.25,15.35-5.37-5.48-10.25-17.12-10.25-17.12-7.02-27.39,23.75-20.93,23.37-16.12Z" fill="#c6c6c6" opacity=".19"/><path d="m193.17,114.4c-2.65-5.64-.96-13.19,1.28-19.17,2.24-5.97,7.12-10.57,13.23-12.42l7.63-2.31c4.81-.92,9.75-.89,14.52.23,13.85,3.26,19.31,9.68,18.05,19.25-1.63,12.34-6.58,23.36-16.33,32.33-6.08,5.6-16.89,11.82-25.25,15.35,5.37-5.48,10.25-17.12,10.25-17.12,7.02-27.39-23.75-20.93-23.37-16.12Z" fill="#c6c6c6" opacity=".19"/><path d="m128.31,126.36c1.46,1.81,3.07,3.55,4.86,5.2,9.77,9.03,22.09,14.61,32.34,18.69,6.78,2.7,12.27,4.69,17.21,4.72,4.95-.03,10.21-2.02,16.99-4.72,10.25-4.08,22.57-9.66,32.34-18.69,1.53-1.41,2.91-2.89,4.2-4.41l.11-.8h-108.06Z" fill="#c6c6c6" opacity=".19"/><path d="m201.7,82.31c.8-1.55-13.55,9.05-10.22,30.17,0,0,2,1.22,2.48,1.62-1.44,3.24-3.77-21.53,7.55-28.86l.18-2.93Z" fill="#e0e0e0"/><path d="m163.53,82.31c-.8-1.55,13.55,9.05,10.22,30.17,0,0-2,1.22-2.48,1.62,1.44,3.24,3.77-21.53-7.55-28.86l-.18-2.93Z" fill="#e0e0e0"/><path d="m218.43,120.66c-1.91-10.1-12.43-10.35-12.43-10.35-12.17-.7-19.94,5.36-23.4,12-3.46-6.64-11.23-12.71-23.4-12,0,0-10.52.24-12.43,10.35-1.96,10.4,5.06,20.53,15.45,22.54,4.77.92,10.95.6,18.86-2.24.98-.35,2.05-.35,3.03,0,7.91,2.85,14.09,3.17,18.86,2.24,10.39-2.01,17.41-12.15,15.45-22.54Z" fill="#f2f2f2"/><path d="m182.73,124.6s-8.36,15.36-29.11,0" fill="none" stroke="#3a3836" stroke-linecap="round" stroke-linejoin="round" stroke-width=".6"/><path d="m182.73,124.6s8.36,15.36,29.11,0" fill="none" stroke="#3a3836" stroke-linecap="round" stroke-linejoin="round" stroke-width=".6"/><path d="m139.39,82.51s21.02-21.59,28.58,5.29l-.39,1.35-28.19-6.31v-.32Z" fill="#fff"/><path d="m139.77,83.71s11.61,20.48,27.09,5.5v-1.11s-27.47-5.26-27.47-5.26l.38.88Z" fill="#fff"/><path d="m139.39,82.84c-.08-.04.89-.24,1.97-.98.76-.52,2.66-1.63,4.76-3.03,3.31-2.2,6.83-3.58,10.54-2.57,1.03.28,1.98.77,2.87,1.35,2.35,1.55,5.77,4.86,8.04,11.54,0,0-2.43-.84-3.04-1.07-.88-.32-1.02-.2-1.35.18-.96,1.11-2.82,3.63-6.7,4.44-2.64.55-6,.03-8.1-1.57s-4.21-3.81-5.76-5.58c-1.94-2.2-1.67-1.87-3.23-2.72Z" fill="#020202"/><ellipse cx="153.86" cy="84.59" rx="8.27" ry="7.43" fill="#91a7a6"/><ellipse cx="153.37" cy="83.34" rx="6.91" ry="6.11" transform="translate(-3.69 7.19) rotate(-2.65)" fill="url(#linear-gradient)"/><ellipse cx="153.84" cy="84.32" rx="4.57" ry="4.82"/><ellipse cx="151.36" cy="82" rx="1.5" ry="1.35" fill="#fff"/><path d="m225.84,82.51s-21.02-21.59-28.58,5.29l.39,1.35,28.19-6.31v-.32Z" fill="#fff"/><path d="m225.46,83.71s-11.61,20.48-27.09,5.5v-1.11s27.47-5.26,27.47-5.26l-.38.88Z" fill="#fff"/><path d="m225.83,82.84c.08-.04-.89-.24-1.97-.98-.76-.52-2.66-1.63-4.76-3.03-3.31-2.2-6.83-3.58-10.54-2.57-1.03.28-1.98.77-2.87,1.35-2.35,1.55-5.77,4.86-8.04,11.54,0,0,2.43-.84,3.04-1.07.88-.32,1.02-.2,1.35.18.96,1.11,2.82,3.63,6.7,4.44,2.64.55,6,.03,8.1-1.57s4.21-3.81,5.76-5.58c1.94-2.2,1.67-1.87,3.23-2.72Z" fill="#020202"/><ellipse cx="211.37" cy="84.59" rx="8.27" ry="7.43" fill="#91a7a6"/><ellipse cx="211.85" cy="83.34" rx="6.11" ry="6.91" transform="translate(118.8 291.1) rotate(-87.35)" fill="url(#linear-gradient-2)"/><ellipse cx="211.39" cy="84.32" rx="4.57" ry="4.82"/><ellipse cx="208.58" cy="82" rx="1.5" ry="1.35" fill="#fff"/><path d="m171.78,114.37s4.48,3.81,6.89,8.28c0,0,1.4-10.3-6.89-8.28Z" fill="#444242"/><path d="m186.42,122.65s-1.4-10.3,6.89-8.28c0,0-4.48,3.81-6.89,8.28" fill="#444242"/><path d="m193.78,112.97c-.72-2.29-2.98-1.77-9.05-.53-.74.15-1.42.23-2.13.25-.71-.02-1.39-.1-2.13-.25-6.07-1.24-8.29-1.76-9.01.53-.57,1.84.72,2.03,1.69,2,.24,0,1.22.05,1.45.07,3.92.33,3.61,5.31,3.61,5.31.21,3.57,1.82,4.25,4.39,4.26,2.56,0,4.18-.69,4.39-4.26,0,0-.31-4.98,3.61-5.31.23-.02,1.21-.07,1.45-.07.98.03,2.31-.16,1.74-2Z" fill="#e69b91"/><path d="m182.59,124.6s-.46-7.62-.16-8.6c.24-.78.56,5.75.43,8.6h-.28Z" fill="#444242"/><g opacity=".45"><path d="m177.94,39.25s.73,2.57-.59,4.82,0,3.7,0,3.7c0,0,2.71,4.8.1,8.67,0,0-1.74,1.43-.69-4.12s-1.86-3.76-1.86-3.76c0,0-.52.31-.42-.49s2.18-10.73,3.45-8.81Z" fill="#c6c6c6"/><path d="m174.01,50.9s-2.3,5.61,1.8,6.88c1.46.45,1.73.96,1.9,1.25.46.74.59,1.71.61,3.8,0,.08-.03.29-.12.43-.15.23-1.09.73-1.08-1.91.01-2.12-1.39-2.5-2.64-2.68,0,0-3.07-.32-2.5-4.07.65-4.26,2.04-5,2.04-3.69Z" fill="#c6c6c6"/><path d="m181.55,39.25s.07,16.39-.42,17.62,1.12,2.42,1.68-1.16,1.61-14.34,1.54-16.12-2.81-2.64-2.81-.35Z" fill="#c6c6c6"/><path d="m187.45,39.25s-.73,2.57.59,4.82,0,3.7,0,3.7c0,0-2.71,4.8-.1,8.67,0,0,1.74,1.43.69-4.12s1.86-3.76,1.86-3.76c0,0,.52.31.42-.49s-2.18-10.73-3.45-8.81Z" fill="#c6c6c6"/><path d="m191.22,50.9s2.3,5.61-1.8,6.88c-1.46.45-1.73.96-1.9,1.25-.46.74-.59,1.71-.61,3.8,0,.08.03.29.12.43.15.23,1.09.73,1.08-1.91-.01-2.12,1.39-2.5,2.64-2.68,0,0,3.07-.32,2.5-4.07-.65-4.26-2.04-5-2.04-3.69Z" fill="#c6c6c6"/></g><ellipse cx="182.6" cy="40.2" rx="29.43" ry="3.22" fill="#dab03b"/><path d="m203.21,24.19l-4.55,3.45-2.75-9.47-6.72,9.28-1.23-3-5.5-13.38-5.5,13.38-1.29,3.14-.09-.13-6.73-9.29-2.67,9.17-4.15-3.15-9.14-6.93.15,11.47.15,11.47h0c0,1.78,13.18,3.22,29.43,3.22s29.43-1.44,29.43-3.22c0,0,0,0,0,0h.03s.15-11.47.15-11.47l.15-11.47-9.14,6.93Z" fill="url(#linear-gradient-3)"/><circle cx="168.84" cy="18.16" r="2.97" fill="url(#linear-gradient-4)"/><circle cx="195.88" cy="18.16" r="2.97" fill="url(#linear-gradient-5)"/><circle cx="182.45" cy="11.06" r="2.97" fill="url(#linear-gradient-6)"/><circle cx="152.88" cy="17.25" r="2.97" fill="url(#linear-gradient-7)"/><circle cx="212.35" cy="17.25" r="2.97" fill="url(#linear-gradient-8)"/><polygon points="182.74 26.53 185.48 30.84 182.74 35.16 180.01 30.84 182.74 26.53" fill="#cc900a"/><polygon points="180.51 30.84 182.74 27.32 184.98 30.84 182.74 34.37 180.51 30.84" fill="#7a1603"/><polygon points="182.74 27.62 184.79 30.84 182.74 34.06 180.7 30.84 182.74 27.62" fill="#c43210"/><polygon points="207.07 26.53 209.81 30.84 207.07 35.16 204.34 30.84 207.07 26.53" fill="#cc900a"/><polygon points="204.84 30.84 207.07 27.32 209.31 30.84 207.07 34.37 204.84 30.84" fill="#7a1603"/><polygon points="207.07 27.62 209.12 30.84 207.07 34.06 205.03 30.84 207.07 27.62" fill="#c43210"/><polygon points="158.41 26.53 161.15 30.84 158.41 35.16 155.68 30.84 158.41 26.53" fill="#cc900a"/><polygon points="156.17 30.84 158.41 27.32 160.65 30.84 158.41 34.37 156.17 30.84" fill="#7a1603"/><polygon points="158.41 27.62 160.46 30.84 158.41 34.06 156.37 30.84 158.41 27.62" fill="#c43210"/><path d="m152.88,20.22s1.61.06,2.36-1.17l10.93,8.29,1.84-6.32s1.48.42,2.57-.44l5.08,7.02,5.66-13.78s1.35.58,2.26,0l5.61,13.64,4.97-6.87s1.11.83,2.57.42l1.93,6.63,11.33-8.59s.63.97,2.36,1.17c0,0-1.13.52-2.54-.54l-11.07,9.08c-.24.2-.6.07-.67-.23l-1.72-7.06s-1.13.62-2.08-.35l-4.95,7.37c-.19.28-.62.23-.74-.09l-5.24-14.13s-.93.38-1.86.03l-5.29,14.1c-.12.32-.55.37-.74.09l-4.97-7.38s-1.13.68-2.28.4l-1.3,6.72c-.06.31-.43.45-.68.25l-10.87-8.85s-1.28,1.14-2.48.57Z" fill="url(#linear-gradient-9)"/><path d="m181.98,8.73s-2.77.84-1.22,3.53c0,0-.6-2.07,1.22-3.53Z" fill="#e8c87a"/><path d="m197.93,19.19s1.02-2.72-2.06-3.12c0,0,2.01.78,2.06,3.12Z" fill="#e8c87a"/><path d="m214.4,18.31s1.02-2.72-2.06-3.12c0,0,2.01.78,2.06,3.12Z" fill="#e8c87a"/><path d="m168.11,16.08s-2.77.84-1.22,3.53c0,0-.6-2.07,1.22-3.53Z" fill="#e8c87a"/><path d="m152.09,15.2s-2.77.84-1.22,3.53c0,0-.6-2.07,1.22-3.53Z" fill="#e8c87a"/><path d="m153.68,36.35s21.71,4.37,56.98,0c0,0-28,6.41-56.98,0Z" fill="#ddca9f" opacity=".43"/><path d="m129.32,86.92c-3.71.12-9.96-1.95-11.41-3.21-.16,1.02-.3,2.07-.42,3.16,12.35.4,11.83.05,11.83.05Z" fill="#c6c6c6"/><path d="m130.83,100.54c-3.17.82-9.99.74-13.2-.74,0,.06.01.11.02.17.19,1.42.42,2.82.69,4.2,10.61-1.57,12.5-3.63,12.5-3.63Z" fill="#c6c6c6"/><path d="m123.93,92.89c-2-.19-5.07-2.38-6.63-3.68-.11,1.68-.15,3.42-.09,5.22,2.77.52,9.2-1.31,6.72-1.54Z" fill="#c6c6c6"/><path d="m235.91,86.92c3.71.12,9.96-1.95,11.41-3.21.16,1.02.3,2.07.42,3.16-12.35.4-11.83.05-11.83.05Z" fill="#c6c6c6"/><path d="m234.4,100.54c3.17.82,9.99.74,13.2-.74,0,.06-.01.11-.02.17-.19,1.42-.42,2.82-.69,4.2-10.61-1.57-12.5-3.63-12.5-3.63Z" fill="#c6c6c6"/><path d="m241.3,92.89c2-.19,5.07-2.38,6.63-3.68.11,1.68.15,3.42.09,5.22-2.77.52-9.2-1.31-6.72-1.54Z" fill="#c6c6c6"/><circle cx="169.6" cy="126.36" r=".46" fill="#3a3836"/><circle cx="169.6" cy="121.39" r=".46" fill="#3a3836"/><circle cx="166.86" cy="121.39" r=".46" fill="#3a3836"/><circle cx="170.89" cy="123.92" r=".34" fill="#3a3836"/><circle cx="172.34" cy="121.4" r=".47" fill="#3a3836"/><circle cx="166.85" cy="126.36" r=".47" fill="#3a3836"/><circle cx="168.31" cy="123.92" r=".34" fill="#3a3836"/><circle cx="164.07" cy="126.36" r=".34" fill="#3a3836"/><path d="m164.07,126.36s.25-.02.07-.07c-3.1-.75-30.62-9.12-49.64,11.25,1.22-1.29,17.31-18.21,49.57-11.18Z" fill="#3a3836"/><path d="m168.37,123.84s.19.15,0,.12c-3.39-.41-29.27-8.28-46.71-1.54,1.19-1.37,13.12-7.67,46.71,1.42Z" fill="#3a3836"/><path d="m169.39,121.29s.18.12,0,.09c-3.33-.52-40.53-11.03-72.85-3.68,4.87-1.73,29.61-8.59,72.86,3.59Z" fill="#3a3836"/><circle cx="195.7" cy="126.36" r=".46" fill="#3a3836"/><circle cx="195.7" cy="121.39" r=".46" fill="#3a3836"/><circle cx="198.43" cy="121.39" r=".46" fill="#3a3836"/><circle cx="194.41" cy="123.92" r=".34" fill="#3a3836"/><circle cx="192.95" cy="121.4" r=".47" fill="#3a3836"/><circle cx="198.44" cy="126.36" r=".47" fill="#3a3836"/><circle cx="196.99" cy="123.92" r=".34" fill="#3a3836"/><circle cx="201.22" cy="126.36" r=".34" fill="#3a3836"/><path d="m201.22,126.36s-.25-.02-.07-.07c3.1-.75,30.62-9.12,49.64,11.25-1.22-1.29-17.31-18.21-49.57-11.18Z" fill="#3a3836"/><path d="m196.93,123.84s-.19.15,0,.12c3.39-.41,29.27-8.28,46.71-1.54-1.19-1.37-13.12-7.67-46.71,1.42Z" fill="#3a3836"/><path d="m195.9,121.29s-.18.12,0,.09c3.33-.52,40.53-11.03,72.85-3.68-4.87-1.73-29.61-8.59-72.86,3.59Z" fill="#3a3836"/><path d="m94.13,185.69s.08-.09.23-.24c-.16.15-.23.24-.23.24Z" fill="#edbcbc"/><path d="m182.81,194.75c-48.75-15.6-68.08-17.68-78.3-17.05-5.89.36-11.81.12-17.61-.94-3.99-.73-7.17-1.44-7.17-1.44,1.26,2.69,3.69,5.03,5.68,6.64,2.17,1.75,4.65,3.19,7.4,3.72,1.06.2,1.04.22,1.06.2,1.03-.86,1.79-1.48,3.31-2.06,1.76-.67,1.78-.58,3.44-1.07,9.81-2.17,30.46-3.27,82.2,12Z" fill="#e59393"/><ellipse cx="187.25" cy="194.75" rx="7.44" ry="9.34" fill="#e59393"/><ellipse cx="187.25" cy="194.75" rx="6.07" ry="7.62" fill="url(#linear-gradient-10)"/><path d="m191.68,194.09c49.38-13.47,65.2-17.01,75.41-16.38,5.89.36,11.81.12,17.61-.94,3.99-.73,7.17-1.44,7.17-1.44-1.26,2.69-3.69,5.03-5.68,6.64-2.17,1.75-4.65,3.22-7.4,3.72-4.2.76-7.27-.18-7.29-.2-6.99-4.18-8.9-4.68-31.98-1.21-10.45,1.57-19.47,3.37-30.88,5.84-5.08,1.1-10.64,2.24-16.97,3.97Z" fill="#e59393"/><path d="m279.09,256.74c17.4-13.47,13.38-33.97.98-52.97,7.09,17.62,10.02,28.73,1.7,40.8-18.52,26.86-67.82,44.3-74.18,48.57-.48.32,4.82.97,9.22-.72,2.47-.64,7.45-2.96,13.5-6.15,0,0,26.58-12.34,48.78-29.53Z" fill="#c6c6c6" opacity=".09"/></g></svg>