<?xml version="1.0" encoding="UTF-8"?><svg id="Layer_2" xmlns="http://www.w3.org/2000/svg" width="595.47" height="841.88" xmlns:xlink="http://www.w3.org/1999/xlink" viewBox="0 0 595.47 841.88"><defs><linearGradient id="linear-gradient" x1="507.25" y1="907.42" x2="129.19" y2="-113.99" gradientTransform="translate(0 762.56) scale(1 -1)" gradientUnits="userSpaceOnUse"><stop offset=".07" stop-color="#3f3058"/><stop offset=".55" stop-color="#2e2b4f"/><stop offset=".9" stop-color="#1f2748"/></linearGradient><radialGradient id="radial-gradient" cx="333.12" cy="97.88" fx="333.12" fy="97.88" r="389.72" gradientTransform="translate(0 762.56) scale(1 -1)" gradientUnits="userSpaceOnUse"><stop offset="0" stop-color="#382e55"/><stop offset=".24" stop-color="#fff" stop-opacity=".3"/><stop offset=".26" stop-color="#e3e2e7" stop-opacity=".4"/><stop offset=".36" stop-color="#827c94" stop-opacity=".74"/><stop offset=".47" stop-color="#494063" stop-opacity=".94"/><stop offset=".65" stop-color="#382e55"/><stop offset=".79" stop-color="#766f89" stop-opacity=".78"/><stop offset="1" stop-color="#fff" stop-opacity=".3"/></radialGradient><linearGradient id="linear-gradient-2" x1="202.44" y1="-50.67" x2="678.3" y2="348.02" gradientTransform="translate(0 762.56) scale(1 -1)" gradientUnits="userSpaceOnUse"><stop offset=".07" stop-color="#4f6292"/><stop offset=".52" stop-color="#7188c2"/><stop offset=".71" stop-color="#7189c2"/><stop offset=".77" stop-color="#7590c6"/><stop offset=".82" stop-color="#7b9ccb"/><stop offset=".86" stop-color="#84add3"/><stop offset=".9" stop-color="#8fc2dd"/><stop offset=".9" stop-color="#91c5df"/></linearGradient><radialGradient id="radial-gradient-2" cx="361.77" cy="144.31" fx="125.45" fy="175.1" r="238.32" gradientTransform="translate(-9.84 712.79) rotate(8.36) scale(1 -1)" gradientUnits="userSpaceOnUse"><stop offset=".36" stop-color="#426592"/><stop offset=".59" stop-color="#7188c2"/><stop offset=".82" stop-color="#89b0cf"/><stop offset=".96" stop-color="#99c9d7"/></radialGradient><linearGradient id="linear-gradient-3" x1="362.1" y1="-168.2" x2="325.02" y2="22.98" gradientTransform="translate(-5.73 631.46) scale(1 -1)" gradientUnits="userSpaceOnUse"><stop offset=".43" stop-color="#426592"/><stop offset=".65" stop-color="#6c88c5" stop-opacity="0"/></linearGradient><radialGradient id="radial-gradient-3" cx="243.63" cy="85.24" fx="243.63" fy="85.24" r="76.01" gradientTransform="translate(-9.1 718.27) rotate(12.17) scale(1 -1)" gradientUnits="userSpaceOnUse"><stop offset=".09" stop-color="#99c9d7"/><stop offset=".28" stop-color="#426592" stop-opacity=".5"/><stop offset=".59" stop-color="#91c0d1" stop-opacity=".2"/><stop offset="1" stop-color="#426592" stop-opacity=".3"/></radialGradient><radialGradient id="radial-gradient-4" cx="516.74" cy="126.99" fx="516.74" fy="126.99" r="76.01" gradientTransform="translate(-11.76 659.75) rotate(12.17) scale(1 -1)" gradientUnits="userSpaceOnUse"><stop offset=".44" stop-color="#396899"/><stop offset=".6" stop-color="#6786c3"/><stop offset=".79" stop-color="#426592" stop-opacity=".7"/></radialGradient><linearGradient id="linear-gradient-4" x1="791.5" y1="581.13" x2="71.9" y2="230.36" gradientTransform="translate(0 762.56) scale(1 -1)" gradientUnits="userSpaceOnUse"><stop offset="0" stop-color="#fff"/><stop offset=".39" stop-color="#fff" stop-opacity=".3"/><stop offset=".65" stop-color="#fff" stop-opacity=".3"/><stop offset="1" stop-color="#fff"/></linearGradient><linearGradient id="linear-gradient-5" x1="430.81" y1="540.72" x2="147.43" y2="487.59" gradientTransform="translate(0 762.56) scale(1 -1)" gradientUnits="userSpaceOnUse"><stop offset=".19" stop-color="#fff"/><stop offset=".39" stop-color="#fff" stop-opacity=".3"/><stop offset=".79" stop-color="#fff" stop-opacity=".3"/><stop offset="1" stop-color="#fff"/></linearGradient><linearGradient id="linear-gradient-6" x1="229.95" y1="42.17" x2="427.75" y2="180.39" gradientTransform="translate(0 762.56) scale(1 -1)" gradientUnits="userSpaceOnUse"><stop offset=".12" stop-color="#e8378c"/><stop offset=".57" stop-color="#ed6ca5"/><stop offset="1" stop-color="#e8378c"/></linearGradient><linearGradient id="linear-gradient-7" x1="495.28" y1="-60.26" x2="376.19" y2="766.52" gradientTransform="translate(0 762.56) scale(1 -1)" gradientUnits="userSpaceOnUse"><stop offset=".27" stop-color="#91c5df"/><stop offset=".27" stop-color="#8fc2dd"/><stop offset=".33" stop-color="#84add3"/><stop offset=".4" stop-color="#7b9ccb"/><stop offset=".48" stop-color="#7590c6"/><stop offset=".6" stop-color="#7189c2"/><stop offset=".93" stop-color="#7188c2"/></linearGradient><linearGradient id="linear-gradient-8" x1="157.91" y1="599.59" x2="162.38" y2="-42.24" gradientTransform="translate(0 762.56) scale(1 -1)" gradientUnits="userSpaceOnUse"><stop offset=".07" stop-color="#7188c2"/><stop offset=".13" stop-color="#7c92c0"/><stop offset=".24" stop-color="#99aebe"/><stop offset=".39" stop-color="#c9dbb9"/><stop offset=".4" stop-color="#cee0b9"/><stop offset=".51" stop-color="#c2dac0"/><stop offset=".71" stop-color="#a3cdd3"/><stop offset=".81" stop-color="#91c5df"/></linearGradient><linearGradient id="linear-gradient-9" x1="196.79" y1="380.25" x2="357.85" y2="492.8" xlink:href="#linear-gradient-6"/><linearGradient id="linear-gradient-10" x1="312.22" y1="142.01" x2="300.93" y2="95.36" gradientTransform="translate(0 762.56) scale(1 -1)" gradientUnits="userSpaceOnUse"><stop offset=".14" stop-color="#a6385f"/><stop offset=".85" stop-color="#c4508a"/></linearGradient><linearGradient id="linear-gradient-11" x1="296.1" y1="334.63" x2="303.38" y2="295.83" gradientTransform="translate(0 762.56) scale(1 -1)" gradientUnits="userSpaceOnUse"><stop offset=".13" stop-color="#ed6ca5"/><stop offset=".14" stop-color="#eb6aa3"/><stop offset=".27" stop-color="#d85d95"/><stop offset=".43" stop-color="#ca548b"/><stop offset=".63" stop-color="#c24e85"/><stop offset="1" stop-color="#c04d84"/></linearGradient><linearGradient id="linear-gradient-12" x1="296.16" y1="331.16" x2="299.69" y2="312.36" xlink:href="#linear-gradient-11"/><linearGradient id="linear-gradient-13" x1="295.71" y1="339.99" x2="300.17" y2="316.19" xlink:href="#linear-gradient-11"/><linearGradient id="linear-gradient-14" x1="295.06" y1="331.41" x2="306.68" y2="269.46" xlink:href="#linear-gradient-11"/><linearGradient id="linear-gradient-15" x1="294.13" y1="276.56" x2="299.11" y2="250.01" xlink:href="#linear-gradient-11"/><linearGradient id="linear-gradient-16" x1="-244.1" y1="-666.46" x2="-240.95" y2="-683.26" gradientTransform="translate(-276.09 81.95) rotate(-73.57) scale(1 -1)" xlink:href="#linear-gradient-11"/><linearGradient id="linear-gradient-17" x1="294" y1="303.89" x2="299.31" y2="275.57" xlink:href="#linear-gradient-11"/><linearGradient id="linear-gradient-18" x1="294.9" y1="289.41" x2="300.13" y2="261.54" xlink:href="#linear-gradient-11"/><linearGradient id="linear-gradient-19" x1="299.94" y1="297.27" x2="304.85" y2="271.11" xlink:href="#linear-gradient-11"/><linearGradient id="linear-gradient-20" x1="300.49" y1="278.85" x2="303.64" y2="262.06" xlink:href="#linear-gradient-11"/><linearGradient id="linear-gradient-21" x1="301.06" y1="112.35" x2="312.68" y2="50.41" gradientTransform="translate(2.63 707.01) rotate(-5.28) scale(1 -1)" xlink:href="#linear-gradient-11"/><linearGradient id="linear-gradient-22" x1="299.99" y1="84.83" x2="305.3" y2="56.51" gradientTransform="translate(2.63 707.01) rotate(-5.28) scale(1 -1)" xlink:href="#linear-gradient-11"/><linearGradient id="linear-gradient-23" x1="299.8" y1="61.11" x2="305.11" y2="32.8" gradientTransform="translate(2.63 707.01) rotate(-5.28) scale(1 -1)" xlink:href="#linear-gradient-11"/><linearGradient id="linear-gradient-24" x1="300.9" y1="75.24" x2="306.13" y2="47.37" gradientTransform="translate(2.63 707.01) rotate(-5.28) scale(1 -1)" xlink:href="#linear-gradient-11"/><linearGradient id="linear-gradient-25" x1="305.92" y1="78.21" x2="310.83" y2="52.05" gradientTransform="translate(2.63 707.01) rotate(-5.28) scale(1 -1)" xlink:href="#linear-gradient-11"/><linearGradient id="linear-gradient-26" x1="306.48" y1="59.79" x2="309.63" y2="43" gradientTransform="translate(2.63 707.01) rotate(-5.28) scale(1 -1)" xlink:href="#linear-gradient-11"/><linearGradient id="linear-gradient-27" x1="231.62" y1="505.97" x2="243.24" y2="444.03" gradientTransform="translate(-50.95 910.78) rotate(14.69) scale(1 -1)" xlink:href="#linear-gradient-11"/><linearGradient id="linear-gradient-28" x1="243.61" y1="451.92" x2="248.59" y2="425.37" gradientTransform="translate(-50.95 910.78) rotate(14.69) scale(1 -1)" xlink:href="#linear-gradient-11"/><linearGradient id="linear-gradient-29" x1="-90.2" y1="-568.41" x2="-87.05" y2="-585.21" gradientTransform="translate(-145.43 182.4) rotate(-58.88) scale(1 -1)" xlink:href="#linear-gradient-11"/><linearGradient id="linear-gradient-30" x1="241.25" y1="479.87" x2="246.56" y2="451.55" gradientTransform="translate(-50.95 910.78) rotate(14.69) scale(1 -1)" xlink:href="#linear-gradient-11"/><linearGradient id="linear-gradient-31" x1="243.2" y1="468.38" x2="248.43" y2="440.51" gradientTransform="translate(-50.95 910.78) rotate(14.69) scale(1 -1)" xlink:href="#linear-gradient-11"/><linearGradient id="linear-gradient-32" x1="247.18" y1="473.25" x2="252.09" y2="447.09" gradientTransform="translate(-50.95 910.78) rotate(14.69) scale(1 -1)" xlink:href="#linear-gradient-11"/><linearGradient id="linear-gradient-33" x1="247.75" y1="454.83" x2="250.9" y2="438.04" gradientTransform="translate(-50.95 910.78) rotate(14.69) scale(1 -1)" xlink:href="#linear-gradient-11"/><linearGradient id="linear-gradient-34" x1="238.08" y1="468.06" x2="241.23" y2="451.26" gradientTransform="translate(-50.95 910.78) rotate(14.69) scale(1 -1)" xlink:href="#linear-gradient-11"/><linearGradient id="linear-gradient-35" x1="281.85" y1="340.8" x2="286.82" y2="314.29" gradientTransform="translate(-34.46 859.28) rotate(9.41) scale(1 -1)" xlink:href="#linear-gradient-11"/><linearGradient id="linear-gradient-36" x1="-186.24" y1="-638.16" x2="-184.14" y2="-649.36" gradientTransform="translate(-195.55 142.7) rotate(-64.16) scale(1 -1)" xlink:href="#linear-gradient-11"/><linearGradient id="linear-gradient-37" x1="281.83" y1="356.16" x2="287.04" y2="328.38" gradientTransform="translate(-34.46 859.28) rotate(9.41) scale(1 -1)" xlink:href="#linear-gradient-11"/><linearGradient id="linear-gradient-38" x1="280.6" y1="349.97" x2="285.82" y2="322.2" gradientTransform="translate(-34.46 859.28) rotate(9.41) scale(1 -1)" xlink:href="#linear-gradient-11"/><linearGradient id="linear-gradient-39" x1="284.24" y1="360.58" x2="289.13" y2="334.53" gradientTransform="translate(-34.46 859.28) rotate(9.41) scale(1 -1)" xlink:href="#linear-gradient-11"/><linearGradient id="linear-gradient-40" x1="281.79" y1="332.66" x2="286.68" y2="306.62" gradientTransform="translate(-34.46 859.28) rotate(9.41) scale(1 -1)" xlink:href="#linear-gradient-11"/><linearGradient id="linear-gradient-41" x1="278.42" y1="363.08" x2="283.31" y2="337.04" gradientTransform="translate(-34.46 859.28) rotate(9.41) scale(1 -1)" xlink:href="#linear-gradient-11"/><linearGradient id="linear-gradient-42" x1="285.41" y1="290.92" x2="290.4" y2="264.37" gradientTransform="translate(-34.46 859.28) rotate(9.41) scale(1 -1)" xlink:href="#linear-gradient-11"/><linearGradient id="linear-gradient-43" x1="293.95" y1="287.44" x2="298.94" y2="260.89" gradientTransform="translate(-34.46 859.28) rotate(9.41) scale(1 -1)" xlink:href="#linear-gradient-11"/><linearGradient id="linear-gradient-44" x1="-236.87" y1="-649.3" x2="-233.72" y2="-666.1" gradientTransform="translate(-195.55 142.7) rotate(-64.16) scale(1 -1)" xlink:href="#linear-gradient-11"/><linearGradient id="linear-gradient-45" x1="298.25" y1="287.94" x2="301.4" y2="271.14" gradientTransform="translate(-34.46 859.28) rotate(9.41) scale(1 -1)" xlink:href="#linear-gradient-11"/><linearGradient id="linear-gradient-46" x1="264.03" y1="372.7" x2="267.18" y2="355.91" gradientTransform="translate(-50.95 910.78) rotate(14.69) scale(1 -1)" xlink:href="#linear-gradient-11"/><linearGradient id="linear-gradient-47" x1="300.2" y1="287.38" x2="305.42" y2="259.61" gradientTransform="translate(-34.46 859.28) rotate(9.41) scale(1 -1)" xlink:href="#linear-gradient-11"/><linearGradient id="linear-gradient-48" x1="296.37" y1="303.18" x2="301.25" y2="277.13" gradientTransform="translate(-34.46 859.28) rotate(9.41) scale(1 -1)" xlink:href="#linear-gradient-11"/><linearGradient id="linear-gradient-49" x1="285.93" y1="342.65" x2="289.12" y2="325.67" gradientTransform="translate(-34.46 859.28) rotate(9.41) scale(1 -1)" xlink:href="#linear-gradient-11"/><linearGradient id="linear-gradient-50" x1="467.62" y1="715.52" x2="-37.29" y2="513.24" gradientTransform="translate(0 762.56) scale(1 -1)" gradientUnits="userSpaceOnUse"><stop offset="0" stop-color="#577fbe"/><stop offset=".46" stop-color="#8aaccb"/><stop offset=".49" stop-color="#92b1c9"/><stop offset=".8" stop-color="#ececb8"/></linearGradient><linearGradient id="linear-gradient-51" x1="67.59" y1="659.89" x2="426.9" y2="653.46" gradientTransform="translate(-107.75 711.24) rotate(9.76) scale(1 -1)" gradientUnits="userSpaceOnUse"><stop offset="0" stop-color="#f0eeb9"/><stop offset=".37" stop-color="#99c9d7"/><stop offset=".66" stop-color="#91c6e1"/><stop offset=".73" stop-color="#88bbdb"/><stop offset=".85" stop-color="#729fcd"/><stop offset=".96" stop-color="#577dbc"/></linearGradient><linearGradient id="linear-gradient-52" x1="389.73" y1="627.85" x2="400.01" y2="591.08" gradientTransform="translate(0 762.56) scale(1 -1)" gradientUnits="userSpaceOnUse"><stop offset=".1" stop-color="#426592"/><stop offset=".6" stop-color="#6c88c5"/></linearGradient><linearGradient id="linear-gradient-53" x1="-1656.14" y1="268.77" x2="-1645.62" y2="231.13" gradientTransform="translate(-1346.64 997.26) rotate(160.07)" xlink:href="#linear-gradient-52"/><linearGradient id="linear-gradient-54" x1="245.19" y1="647.34" x2="269.23" y2="519.28" gradientTransform="translate(0 762.56) scale(1 -1)" xlink:href="#linear-gradient-3"/><linearGradient id="linear-gradient-55" x1="-1527.32" y1="188.62" x2="-1826.53" y2="132.52" gradientTransform="translate(-1208.48 762.56) rotate(-180)" xlink:href="#linear-gradient-5"/><linearGradient id="linear-gradient-56" x1="555.62" y1="411.04" x2="27.86" y2="261.99" gradientTransform="translate(0 762.56) scale(1 -1)" gradientUnits="userSpaceOnUse"><stop offset="0" stop-color="#fff"/><stop offset=".39" stop-color="#fff" stop-opacity=".3"/><stop offset=".4" stop-color="#fff" stop-opacity=".3"/><stop offset="1" stop-color="#fff"/></linearGradient></defs><g id="Layer_2-2"><g id="Layer_15_copy_2"><rect x=".19" width="595.27" height="841.88" fill="#2a2948"/><rect x=".19" width="595.27" height="841.88" fill="url(#linear-gradient)"/><path d="m440.54,580.91c-.11-.99-.18-1.55-.18-1.55-.02-.09-.04-.19-.06-.28-.02-.19-.04-.3-.04-.3-.02-.05-.03-.1-.05-.15-.23-1.4-.56-2.85-.96-4.35-4.48-18.07-15.12-34.07-29.29-49.29-.47-.51-.96-1.02-1.44-1.53-.11-.12-.23-.24-.34-.36-.43-.45-.85-.89-1.29-1.34-6.45-6.65-13.55-13.17-21.08-19.67l-42.82-39.56c-.39-.36-.78-.71-1.18-1.05-2.9-2.48-21.55-18.96-24.68-22.98-3.37-4.3-5.55-8.59-6.91-12.66-.49-1.52-.89-3.17-1.2-4.91l-11.66-18.46c1.59,6.05-7.34,32.23-12.74,42.9l-44.27,80.26c-16.03,26.85-27.98,52.63-28.18,78.34-.04,2.57.06,5.14.22,7.71.19,2.99,1.08,7.72,1.21,8.22,1.04,4.67,3.31,13.94,6.58,22.48,5.13,13.36,21.21,46.97,42.46,59.55.58.4,1.26.77,2.02,1.12,5.53,2.88,8.15,3.04,17.48,3.52,15.03,1.17,36.39.08,59.8-3.48,26.18-3.99,48.98-10.19,62.79-16.48,31.59-12.98,35.98-62.01,36.8-80.06.06-1.28.09-2.56.11-3.84.14-8.11-.51-16.05-.94-20.27-.04-.52-.1-1.04-.17-1.56v.03Z" fill="url(#radial-gradient)" isolation="isolate" opacity=".17"/><path d="m119.96,460.54c107.22-39.29,298.45-209.37,376.34-281.29,26.72-24.67,64.58-33.66,99.16-22.85V0l-94.73,86.65S-88.71,537.01,119.96,460.54Z" fill="#fff" isolation="isolate" opacity=".02"/><path d="m508.28,684.75c-.04-.24-.1-.47-.16-.7h.06l-9.2-39.06-326.89,49.75,5.27,38.21h0c.05.55.11,1.11.22,1.69,5.47,30.03,83.94,43.2,175.26,29.42,91.32-13.78,160.92-49.29,155.44-79.32h.01Z" fill="url(#linear-gradient-2)"/><ellipse cx="335.58" cy="670.4" rx="165.41" ry="55.24" transform="translate(-93.91 55.92) rotate(-8.36)" fill="url(#radial-gradient-2)"/><ellipse cx="334.44" cy="686.62" rx="107.94" ry="28.21" transform="translate(-96.28 55.92) rotate(-8.36)" fill="url(#linear-gradient-3)"/><ellipse cx="203.14" cy="697.78" rx="16.94" ry="9.82" transform="translate(-142.54 58.51) rotate(-12.17)" fill="url(#radial-gradient-3)"/><ellipse cx="476.25" cy="656.01" rx="16.94" ry="9.82" transform="translate(-127.59 115.14) rotate(-12.17)" fill="url(#radial-gradient-4)"/><path d="m440.71,582.47c-.04-.52-.1-1.04-.17-1.56-.11-.99-.18-1.55-.18-1.55-.02-.09-.04-.19-.06-.28-.02-.19-.04-.3-.04-.3-.02-.05-.03-.1-.05-.15-.23-1.4-.56-2.85-.96-4.35-4.48-18.07-15.12-34.07-29.29-49.29-.47-.51-.96-1.02-1.44-1.53-.11-.12-.23-.24-.34-.36-.43-.45-.85-.89-1.29-1.34-6.45-6.65-13.55-13.17-21.08-19.67l-42.82-39.56c-.39-.36-.78-.71-1.18-1.05-2.9-2.48-21.55-18.96-24.68-22.98-3.37-4.3-5.55-8.59-6.91-12.66-1.56-4.87-3.23-8.86-2.08-15.85.76-4.61,3.26-11.1,5.52-15.19l13.58-24.62,29.55-49.37c16.03-26.85,27.11-55.27,27.31-80.98.04-2.57-.02-5.14-.22-7.71-.09-1.55-1.08-7.72-1.21-8.22-1.04-4.67-3.31-13.94-6.58-22.48-5.13-13.36-21.21-46.97-42.46-59.55-.58-.4-1.26-.77-2.02-1.12-5.53-2.88-9.52-3.31-17.48-3.52-15.03-1.17-36.52,2.21-59.93,5.84-41.24,6.4-47.12,8.43-62.66,14.12-31.71,13.09-35.98,62.01-36.8,80.06-.06,1.28-.09,2.56-.11,3.84-.14,8.11.51,16.05.94,20.27.04.52.1,1.04.17,1.56.11.99.18,1.55.18,1.55.02.09.04.19.06.28.02.19.04.3.04.3.02.05.03.1.05.15.23,1.4.56,2.85.96,4.35,4.48,18.07,15.12,34.07,29.29,49.29.47.51.96,1.02,1.44,1.53.11.12.23.24.34.36.43.45.85.89,1.29,1.34,6.45,6.65,13.8,14.26,21.33,20.75l43.38,39.22s24.78,22.96,25.06,23.29c7.08,8.24,16.82,17.64,5.48,40.07l-44.27,80.26c-16.03,26.85-27.98,52.63-28.18,78.34-.04,2.57.06,5.14.22,7.71.19,2.99,1.08,7.72,1.21,8.22,1.04,4.67,3.31,13.94,6.58,22.48,5.13,13.36,21.21,46.97,42.46,59.55.58.4,1.26.77,2.02,1.12,5.53,2.88,8.15,3.04,17.48,3.52,15.03,1.17,36.39.08,59.8-3.48,26.18-3.99,48.98-10.19,62.79-16.48,31.59-12.98,35.98-62.01,36.8-80.06.06-1.28.09-2.56.11-3.84.14-8.11-.51-16.05-.94-20.27h-.01Z" fill="url(#linear-gradient-4)"/><path d="m303,163.99l35.91-9.37s69.52,80.16,6.49,167.7c0,0,22.03-67.64-42.4-158.33Z" fill="url(#linear-gradient-5)" isolation="isolate" opacity=".68"/><path d="m227.02,642.08s23.17,49.45,44.15,56.42c25.68,8.53,103.56,0,137.78-22.43,17.93-11.76,19.16-39.13,19.16-39.13,0,0-27.05,31.43-88.66,23.65-14.22-1.8-30.15-5.68-47.84-12.52-21.15-8.18-50.67-20.25-64.58-6h-.01Z" fill="url(#linear-gradient-6)"/><path d="m438.22,396.98l-32.99-258.99h-.02c0-.08,0-.16-.01-.23-.58-3.57-6.99-5.68-14.3-4.71-7.32.97-12.93,4.67-12.35,8.24.01.08.04.15.06.22h-.03l53.29,256.31,30.82,258.55c0,.14,0,.28.02.42,0,.06.03.11.05.17v.12h.03c.89,3.39,7.26,5.33,14.38,4.39,7.11-.94,12.44-4.44,12.21-7.91h.05l-51.21-256.59h0Z" fill="url(#linear-gradient-7)"/><path d="m164.08,438.73l-32.99-258.99h-.02c0-.08,0-.16,0-.23-.58-3.57-6.99-5.68-14.3-4.71s-12.93,4.67-12.35,8.24c0,.08.04.15.06.22h-.03l53.29,256.31,30.82,258.55c0,.14,0,.28.02.42,0,.06.03.11.05.17v.12h.03c.89,3.39,7.26,5.33,14.38,4.39,7.11-.94,12.44-4.44,12.21-7.91h.05l-51.21-256.59h0Z" fill="url(#linear-gradient-8)"/><path d="m176.5,297.37c3.68,6.06,18.97,24.62,24.24,29.29l74.93,66.4c7.32,6.95,17.2,16.28,18.76,26.45,1.01,6.57,3.03,9.61,2.66,13.76,0,0,3.09-24.03,11.84-41.1,1.72-3.36,28.51-54.59,45.3-83.37.67-1.15-69.64,5.24-92.44-12.73-15.17-11.96-47.34-6.07-80.28-17.45-10.55-3.64-15.77,1.02-5,18.75h-.01Z" fill="url(#linear-gradient-9)"/><path d="m263.29,287.29c-19.2.96-46.57-27.39-81.81-16.18-11.34,3.61-12.22,9.19-10.57,14.64,1.26,4.14,4.31,7.49,8.19,9.4,19.45,9.61,47.25,12.14,82.66,18.87,27.89,5.3,55.48,11.03,76.64,10.99,4.2,0,8.06-2.32,10.08-6.05,1.99-3.68,3.65-6.59,5.89-10.42.67-1.15-29.54-24.31-91.09-21.25h.01Z" fill="#c4508a"/><path d="m339.79,660.67c-14.23-1.68-30.15-5.68-47.84-12.52-21.15-8.18-51.01-20.33-64.93-6.08,0,0,5.04,10.26,11.02,20.3,22.75,10,53.68,16.16,87.77,16.16,40.13,0,74.34-7.83,97.52-21.13,4.67-10.19,4.78-20.47,4.78-20.47,0,0-26.97,30.99-88.32,23.74h0Z" fill="#c4508a"/><path d="m283.46,652.48s-9.7-10.9-6.38-10.23c11.1,2.23,17.92-.17,17.92-.17,0,0,5.01-2.52,16.39,5.77,7.35,5.35,19.27,9.96,21.66,11.56,1.35.9-5.85,5.42-17.74,4.03-5.46-.64-31.26-6.13-31.85-10.95h0Z" fill="url(#linear-gradient-10)"/><path d="m302.27,449.8c0,1.96-.93,4.58-2.08,4.58s-2.08-2.63-2.08-4.58,1.5-4.54,2.08-3.55c2.08,3.55,2.08,1.59,2.08,3.55Z" fill="url(#linear-gradient-11)"/><path d="m299.17,441.93c0,.98-.47,2.29-1.04,2.29s-1.04-1.31-1.04-2.29.47-1.77,1.04-1.77,1.04.79,1.04,1.77Z" fill="url(#linear-gradient-12)"/><path d="m299.17,435.43c0,.98-.47,3.38-1.04,3.38s-1.04-2.4-1.04-3.38.47-1.77,1.04-1.77,1.04.79,1.04,1.77Z" fill="url(#linear-gradient-13)"/><path d="m303.39,463.57c0,1.96-.93,9.88-2.08,9.88s-2.08-7.92-2.08-9.88.93-3.55,2.08-3.55,2.08,1.59,2.08,3.55Z" fill="url(#linear-gradient-14)"/><path d="m299.17,501.88c0,1.96-.93,2.1-2.08,2.1s-2.08-.14-2.08-2.1.93-3.55,2.08-3.55,2.08,1.59,2.08,3.55Z" fill="url(#linear-gradient-15)"/><path d="m304.33,503.56c1.88.55,1.42,1.39,1.09,2.49s-.39,2.05-2.27,1.5-1.08-1.29-.76-2.39.06-2.15,1.94-1.6h0Z" fill="url(#linear-gradient-16)"/><path d="m298.34,475.6c0,1.96-.53,2.32-1.19,2.32s-1.19-.36-1.19-2.32.86-4.54,1.19-3.55c1.19,3.55,1.19,1.59,1.19,3.55Z" fill="url(#linear-gradient-17)"/><path d="m299.72,487.78c0,.87-.93,4.41-2.08,4.41s-2.08-3.54-2.08-4.41.93-1.58,2.08-1.58,2.08.71,2.08,1.58Z" fill="url(#linear-gradient-18)"/><path d="m303.88,480.97c0,1.96-.47,2.1-1.04,2.1s-1.04-.14-1.04-2.1.47-3.55,1.04-3.55,1.04,1.59,1.04,3.55Z" fill="url(#linear-gradient-19)"/><path d="m304.35,493.23c0,1.96-.93,1.75-2.08,1.75s-2.08.21-2.08-1.75.93-1.41,2.08-1.41,2.08-.55,2.08,1.41Z" fill="url(#linear-gradient-20)"/><path d="m303.35,598.93c.18,1.95-.02,9.92-1.16,10.03s-2.8-7.7-2.98-9.65.6-3.62,1.74-3.72,2.22,1.39,2.4,3.34h0Z" fill="url(#linear-gradient-21)"/><path d="m299.43,611.38c.18,1.95-.32,2.36-.97,2.42s-1.22-.25-1.4-2.2.43-4.6.86-3.64c1.51,3.42,1.33,1.47,1.51,3.42h0Z" fill="url(#linear-gradient-22)"/><path d="m301.42,635.01c.18,1.95-.32,2.36-.97,2.42s-1.22-.25-1.4-2.2.43-4.6.86-3.64c1.51,3.42,1.33,1.47,1.51,3.42h0Z" fill="url(#linear-gradient-23)"/><path d="m301.48,618.5c.08.87-.52,4.48-1.66,4.58s-2.4-3.33-2.48-4.2.78-1.66,1.92-1.77,2.14.51,2.22,1.39Z" fill="url(#linear-gradient-24)"/><path d="m305.43,616.22c.18,1.95-.27,2.13-.84,2.19s-1.05-.04-1.23-1.99.14-3.57.71-3.63,1.18,1.49,1.36,3.44h0Z" fill="url(#linear-gradient-25)"/><path d="m307.03,628.38c.18,1.95-.77,1.83-1.91,1.93s-2.05.4-2.23-1.55.8-1.48,1.94-1.59,2.02-.74,2.2,1.21Z" fill="url(#linear-gradient-26)"/><path d="m301.24,513.57c-.5,1.89-3.41,9.32-4.52,9.03s0-8.19.5-10.08,1.8-3.19,2.91-2.9,1.61,2.06,1.11,3.96h0Z" fill="url(#linear-gradient-27)"/><path d="m300.14,552.07c-.5,1.89-1.43,1.79-2.54,1.5s-1.98-.66-1.48-2.56,1.8-3.19,2.91-2.9,1.61,2.06,1.11,3.96h0Z" fill="url(#linear-gradient-28)"/><path d="m304.7,555c1.68,1.01,1.02,1.7.42,2.68s-.9,1.89-2.57.87-.72-1.52-.13-2.51.6-2.07,2.28-1.05h0Z" fill="url(#linear-gradient-29)"/><path d="m304.01,525.27c-.5,1.89-1.1,2.11-1.74,1.95s-1.06-.65-.56-2.55,1.98-4.17,2.05-3.13c.25,3.73.75,1.84.25,3.73Z" fill="url(#linear-gradient-30)"/><path d="m304.03,534.76c-.22.85-2.02,4.03-3.13,3.74s-1.11-3.95-.89-4.79,1.3-1.3,2.41-1,1.83,1.21,1.61,2.06h0Z" fill="url(#linear-gradient-31)"/><path d="m308,531.87c-.5,1.89-.98,1.91-1.54,1.77s-.97-.4-.47-2.29,1.35-3.31,1.9-3.17.6,1.8.11,3.69h0Z" fill="url(#linear-gradient-32)"/><path d="m305.35,543.84c-.5,1.89-1.34,1.46-2.45,1.17s-2.06-.33-1.57-2.22,1.26-1.12,2.37-.83,2.15,0,1.65,1.89h0Z" fill="url(#linear-gradient-33)"/><path d="m299.35,528.6c-.5,1.89-1.34,1.46-2.45,1.17s-2.06-.33-1.57-2.22,1.26-1.12,2.37-.83,2.15,0,1.65,1.89h0Z" fill="url(#linear-gradient-34)"/><path d="m301.05,585.66c-.16,1.92-.8,1.88-1.57,1.65s-1.39-.54-1.23-2.45.92-3.29,1.69-3.07,1.27,1.95,1.11,3.87h0Z" fill="url(#linear-gradient-35)"/><path d="m304.39,588.3c1.22.9.84,1.63.53,2.65s-.43,1.93-1.65,1.03-.63-1.47-.32-2.49.21-2.09,1.44-1.19h0Z" fill="url(#linear-gradient-36)"/><path d="m303.52,569.23c-.07.86-.99,4.14-1.76,3.92s-1.11-3.86-1.04-4.72.76-1.37,1.53-1.15,1.34,1.09,1.27,1.95h0Z" fill="url(#linear-gradient-37)"/><path d="m301.3,575.13c-.07.86-.99,4.14-1.76,3.92s-1.11-3.86-1.04-4.72.76-1.37,1.53-1.15,1.34,1.09,1.27,1.95h0Z" fill="url(#linear-gradient-38)"/><path d="m305.93,566.1c-.16,1.92-.49,1.97-.87,1.85s-.69-.34-.53-2.25.6-3.38.99-3.27.57,1.75.41,3.67h0Z" fill="url(#linear-gradient-39)"/><path d="m298.95,593.24c-.16,1.92-.49,1.97-.87,1.85s-.69-.34-.53-2.25.6-3.38.99-3.27.57,1.75.41,3.67h0Z" fill="url(#linear-gradient-40)"/><path d="m300.59,562.68c-.16,1.92-.49,1.97-.87,1.85s-.69-.34-.53-2.25.6-3.38.99-3.27.57,1.75.41,3.67h0Z" fill="url(#linear-gradient-41)"/><path d="m297.05,635.43c-.32,1.93-1.26,1.92-2.39,1.73s-2.03-.48-1.71-2.41,1.5-3.35,2.63-3.16,1.79,1.91,1.47,3.84h0Z" fill="url(#linear-gradient-42)"/><path d="m304.91,640.26c-.32,1.93-1.26,1.92-2.39,1.73s-2.03-.48-1.71-2.41,1.5-3.35,2.63-3.16,1.79,1.91,1.47,3.84h0Z" fill="url(#linear-gradient-43)"/><path d="m295.84,639.55c1.76.85,1.17,1.6.67,2.63s-.72,1.96-2.48,1.11-.86-1.45-.36-2.48.41-2.11,2.17-1.26h0Z" fill="url(#linear-gradient-44)"/><path d="m309.1,634.01c-.32,1.93-1.2,1.58-2.34,1.39s-2.08-.14-1.76-2.07,1.15-1.23,2.28-1.05,2.14-.21,1.82,1.73Z" fill="url(#linear-gradient-45)"/><path d="m300.27,627.42c-.5,1.89-1.34,1.46-2.45,1.17s-2.06-.33-1.57-2.22,1.26-1.12,2.37-.83,2.15,0,1.65,1.89h0Z" fill="url(#linear-gradient-46)"/><path d="m310.4,640.08c-.07.86-.99,4.14-1.76,3.92s-1.11-3.86-1.04-4.72.76-1.37,1.53-1.15,1.34,1.09,1.27,1.95h0Z" fill="url(#linear-gradient-47)"/><path d="m308.5,624.71c-.16,1.92-.49,1.97-.87,1.85s-.69-.34-.53-2.25.6-3.38.99-3.27.57,1.75.41,3.67h0Z" fill="url(#linear-gradient-48)"/><path d="m305.24,578.19c-.16,1.92-.77,1.53-1.54,1.31s-1.42-.2-1.26-2.11.74-1.2,1.52-.98,1.45-.14,1.29,1.78h0Z" fill="url(#linear-gradient-49)"/><path d="m298.55,424.59l3.7-15.39c.27-1.02.58-2.03.95-3.03l2.2-6.05c.72-2.36,3.62-8.25,3.77-8.51l44.89-83.23s-3.96-8.59-29.49,36.89c-11.02,19.64-42.93,23.98-46.34,32.2-1.38,3.33,12.24,16.36,14.51,19.1,1.56,1.88,2.71,3.51,3.91,5.94,3.09,6.24,2.96,16.3,1.9,22.09h0Z" fill="#c4508a" isolation="isolate" opacity=".49"/><path d="m417.21,76.7l-340.97,58.94,6.44,36.83h0c.62,3.48,2.47,6.66,5.31,8.78,19.47,14.52,90.09,15.77,171.95,1.68,82.9-14.27,149.68-39.5,161.98-59.83,1.63-2.7,2.13-5.93,1.61-9.04l-6.31-37.35h0Z" fill="url(#linear-gradient-50)"/><ellipse cx="246.67" cy="105.89" rx="173.02" ry="39.04" transform="translate(-14.38 43.35) rotate(-9.76)" fill="url(#linear-gradient-51)"/><path d="m380.34,150.17s21.81-9.41,24.86-12.4l2.16,16.86-24.14,9.15-2.87-13.6h-.01Z" fill="url(#linear-gradient-52)"/><path d="m132.65,192.2s-23.78-2.66-27.15-3.85l3.53,16.97,25.39.49-1.77-13.6h0Z" fill="url(#linear-gradient-53)"/><path d="m162.4,192.84s-5.79,15.77-6.01,28.94l209.83-41.35s-5.95-11.21-13.02-20.17c0,0-89.89,30.69-190.81,32.58h0Z" fill="url(#linear-gradient-54)"/><path d="m393.53,519.25s73.66,67.86,23.54,141.82c0,0,30.92-57.77-23.54-141.82Z" fill="url(#linear-gradient-55)"/><g opacity=".34"><polygon points="516.82 109.32 517.53 110.76 519.12 110.99 517.97 112.12 518.24 113.7 516.82 112.95 515.39 113.7 515.66 112.12 514.51 110.99 516.1 110.76 516.82 109.32" fill="#fff"/><polygon points="531.02 431.07 531.73 432.51 533.32 432.74 532.17 433.87 532.44 435.45 531.02 434.7 529.6 435.45 529.87 433.87 528.72 432.74 530.31 432.51 531.02 431.07" fill="#fff"/><polygon points="39.49 593.4 40.21 594.84 41.8 595.07 40.64 596.19 40.92 597.78 39.49 597.03 38.07 597.78 38.34 596.19 37.19 595.07 38.78 594.84 39.49 593.4" fill="#fff"/><polygon points="555.95 689.03 556.66 690.47 558.25 690.7 557.1 691.82 557.37 693.4 555.95 692.66 554.52 693.4 554.79 691.82 553.64 690.7 555.23 690.47 555.95 689.03" fill="#fff"/><polygon points="357.7 795.76 358.41 797.2 360 797.43 358.85 798.55 359.12 800.13 357.7 799.39 356.27 800.13 356.55 798.55 355.4 797.43 356.99 797.2 357.7 795.76" fill="#fff"/><polygon points="377.44 403.27 378.15 404.71 379.74 404.94 378.59 406.06 378.86 407.65 377.44 406.9 376.02 407.65 376.29 406.06 375.14 404.94 376.73 404.71 377.44 403.27" fill="#fff"/><polygon points="186.61 377.62 187.32 379.06 188.91 379.29 187.76 380.41 188.03 381.99 186.61 381.25 185.19 381.99 185.46 380.41 184.31 379.29 185.9 379.06 186.61 377.62" fill="#fff"/><polygon points="508.85 277.64 510.32 280.62 513.6 281.09 511.22 283.41 511.78 286.67 508.85 285.13 505.92 286.67 506.48 283.41 504.1 281.09 507.38 280.62 508.85 277.64" fill="#fff"/><polygon points="48.99 35.43 50.46 38.4 53.74 38.88 51.36 41.19 51.92 44.46 48.99 42.92 46.05 44.46 46.62 41.19 44.24 38.88 47.52 38.4 48.99 35.43" fill="#fff"/><polygon points="96.37 449.87 97.84 452.84 101.12 453.32 98.75 455.63 99.31 458.9 96.37 457.36 93.44 458.9 94 455.63 91.63 453.32 94.91 452.84 96.37 449.87" fill="#fff"/><polygon points="91.52 498.89 94.49 504.91 101.12 505.87 96.32 510.55 97.46 517.16 91.52 514.04 85.59 517.16 86.72 510.55 81.92 505.87 88.56 504.91 91.52 498.89" fill="#fff"/><polygon points="519.12 769.54 522.08 775.55 528.72 776.52 523.92 781.19 525.05 787.8 519.12 784.68 513.18 787.8 514.32 781.19 509.52 776.52 516.15 775.55 519.12 769.54" fill="#fff"/><polygon points="124.65 791.22 127.62 797.23 134.25 798.2 129.45 802.88 130.58 809.48 124.65 806.37 118.72 809.48 119.85 802.88 115.05 798.2 121.68 797.23 124.65 791.22" fill="#fff"/><polygon points="247.25 800.35 250.22 806.37 256.85 807.33 252.05 812.01 253.19 818.62 247.25 815.5 241.32 818.62 242.45 812.01 237.65 807.33 244.29 806.37 247.25 800.35" fill="#fff"/><polygon points="558.25 288.24 561.21 294.25 567.85 295.22 563.05 299.89 564.18 306.5 558.25 303.38 552.31 306.5 553.45 299.89 548.65 295.22 555.28 294.25 558.25 288.24" fill="#fff"/><polygon points="44.24 165.43 47.21 171.45 53.84 172.41 49.04 177.09 50.17 183.7 44.24 180.58 38.31 183.7 39.44 177.09 34.64 172.41 41.27 171.45 44.24 165.43" fill="#fff"/><polygon points="229.04 410.38 232 416.39 238.64 417.35 233.84 422.03 234.97 428.64 229.04 425.52 223.1 428.64 224.24 422.03 219.44 417.35 226.07 416.39 229.04 410.38" fill="#fff"/><polygon points="402.89 464.71 403.96 466.89 406.36 467.24 404.63 468.93 405.04 471.32 402.89 470.19 400.74 471.32 401.15 468.93 399.42 467.24 401.82 466.89 402.89 464.71" fill="#fff"/><polygon points="399.42 368.47 400.49 370.65 402.89 371 401.15 372.69 401.56 375.08 399.42 373.95 397.27 375.08 397.68 372.69 395.94 371 398.34 370.65 399.42 368.47" fill="#fff"/><polygon points="464.27 30.82 467.24 36.83 473.87 37.79 469.07 42.47 470.21 49.08 464.27 45.96 458.34 49.08 459.47 42.47 454.67 37.79 461.31 36.83 464.27 30.82" fill="#fff"/><polygon points="29.89 672.47 32.86 678.48 39.49 679.44 34.69 684.12 35.83 690.73 29.89 687.61 23.96 690.73 25.09 684.12 20.29 679.44 26.93 678.48 29.89 672.47" fill="#fff"/><polygon points="91.63 665.88 93.09 668.85 96.37 669.33 94 671.64 94.56 674.91 91.63 673.36 88.69 674.91 89.25 671.64 86.88 669.33 90.16 668.85 91.63 665.88" fill="#fff"/><polygon points="44.24 791.32 45.71 794.3 48.99 794.77 46.62 797.09 47.18 800.35 44.24 798.81 41.31 800.35 41.87 797.09 39.49 794.77 42.77 794.3 44.24 791.32" fill="#fff"/><polygon points="459.53 791.32 460.99 794.3 464.27 794.77 461.9 797.09 462.46 800.35 459.53 798.81 456.59 800.35 457.15 797.09 454.78 794.77 458.06 794.3 459.53 791.32" fill="#fff"/><polygon points="519.12 526.41 520.58 529.39 523.86 529.86 521.49 532.18 522.05 535.44 519.12 533.9 516.18 535.44 516.74 532.18 514.37 529.86 517.65 529.39 519.12 526.41" fill="#fff"/><polygon points="44.24 303.38 45.71 306.35 48.99 306.83 46.62 309.14 47.18 312.41 44.24 310.87 41.31 312.41 41.87 309.14 39.49 306.83 42.77 306.35 44.24 303.38" fill="#fff"/><polygon points="129.97 26.3 131.44 29.27 134.72 29.75 132.34 32.06 132.9 35.33 129.97 33.79 127.03 35.33 127.59 32.06 125.22 29.75 128.5 29.27 129.97 26.3" fill="#fff"/></g><g opacity=".49"><circle cx="62.59" cy="384.24" r="1.65" fill="#70c4ee"/><circle cx="53.74" cy="95.02" r="1.65" fill="#70c4ee"/><circle cx="23.3" cy="460.54" r="1.65" fill="#70c4ee"/><circle cx="385.03" cy="325.01" r="1.65" fill="#70c4ee"/><circle cx="351.5" cy="433.26" r="1.65" fill="#70c4ee"/><circle cx="215.28" cy="494.99" r="1.65" fill="#70c4ee"/><circle cx="491.07" cy="460.54" r="1.65" fill="#70c4ee"/><circle cx="565.73" cy="346.81" r="1.65" fill="#70c4ee"/><circle cx="489.43" cy="373.17" r="1.65" fill="#70c4ee"/><circle cx="196.36" cy="422.95" r="2.58" fill="#70c4ee"/><circle cx="113.52" cy="585.48" r="2.58" fill="#70c4ee"/><circle cx="533.32" cy="608.96" r="2.58" fill="#70c4ee"/><circle cx="96.37" cy="757.22" r="2.58" fill="#70c4ee"/><circle cx="466.44" cy="256.86" r="4.62" fill="#70c4ee"/><circle cx="487.78" cy="170.06" r="4.62" fill="#70c4ee"/><circle cx="558.25" cy="53.33" r="4.62" fill="#70c4ee"/><circle cx="263.51" cy="30.82" r="4.62" fill="#70c4ee"/></g><polygon points="11.98 404.52 21 403.71 21.47 394.66 22.29 403.68 31.34 404.15 22.31 404.97 21.84 414.02 21.03 405 11.98 404.52" fill="#f2d661"/><polygon points="134.42 653.96 143.44 653.14 143.91 644.09 144.73 653.12 153.78 653.59 144.75 654.4 144.28 663.45 143.47 654.43 134.42 653.96" fill="#eee6eb"/><polygon points="548.57 410.56 557.59 409.74 558.06 400.69 558.88 409.72 567.93 410.19 558.9 411.01 558.43 420.06 557.62 411.03 548.57 410.56" fill="#f2d661"/><polygon points="548.57 739.49 557.59 738.67 558.06 729.62 558.88 738.65 567.93 739.12 558.9 739.93 558.43 748.98 557.62 739.96 548.57 739.49" fill="#f2d661"/><polygon points="547.88 548.25 556.9 547.44 557.37 538.39 558.19 547.41 567.24 547.88 558.21 548.7 557.74 557.75 556.93 548.72 547.88 548.25" fill="#eee6eb"/><polygon points="21.5 747.05 32.6 746.33 32.9 735.2 34.19 746.34 45.37 747.21 34.26 747.92 33.97 759.05 32.67 747.91 21.5 747.05" fill="#f2d661"/><polygon points="544.58 140.09 555.18 139.13 555.73 128.51 556.69 139.1 567.31 139.65 556.72 140.61 556.16 151.23 555.2 140.64 544.58 140.09" fill="#f2d661"/><polygon points="465.62 396.92 474.65 396.1 475.12 387.05 475.94 396.08 484.99 396.55 475.96 397.37 475.49 406.42 474.67 397.39 465.62 396.92" fill="#eee6eb"/><polygon points="180.14 40.71 189.17 39.9 189.64 30.85 190.46 39.87 199.51 40.34 190.48 41.16 190.01 50.21 189.19 41.18 180.14 40.71" fill="#eee6eb"/><polygon points="86.69 336.52 95.72 335.7 96.19 326.65 97.01 335.68 106.06 336.15 97.03 336.97 96.56 346.02 95.74 336.99 86.69 336.52" fill="#eee6eb"/><polygon points="230.15 460.73 239.17 459.91 239.64 450.86 240.46 459.89 249.51 460.36 240.49 461.18 240.01 470.23 239.2 461.2 230.15 460.73" fill="#eee6eb"/><polygon points="360.16 30.71 369.18 29.9 369.65 20.85 370.47 29.87 379.52 30.34 370.49 31.16 370.02 40.21 369.21 31.18 360.16 30.71" fill="#eee6eb"/><polygon points="34.56 533.88 43.59 533.06 44.06 524.01 44.87 533.03 53.92 533.51 44.9 534.32 44.43 543.37 43.61 534.35 34.56 533.88" fill="#efa35e"/><polygon points="482.72 210.79 491.75 209.98 492.22 200.93 493.03 209.95 502.08 210.42 493.06 211.24 492.59 220.29 491.77 211.26 482.72 210.79" fill="#f49b53"/><polygon points="386.26 428.82 395.29 428 395.76 418.95 396.57 427.98 405.62 428.45 396.6 429.27 396.13 438.32 395.31 429.29 386.26 428.82" fill="#efa35e"/><polygon points="39.31 229.6 48.33 228.79 48.8 219.74 49.62 228.76 58.67 229.23 49.65 230.05 49.17 239.1 48.36 230.08 39.31 229.6" fill="#eee6eb"/><path d="m288.92,392.56c-139.67-155.09-85.58-201.94-85.58-201.94l-40.79,2.37c-.91,2.76-1.72,5.46-2.46,8.1-3.79,14.3-4.84,28.33-5.2,36.32-.06,1.28-.09,2.56-.11,3.84-.14,8.11.51,16.05.94,20.27.04.52.1,1.04.17,1.56.11.99.18,1.55.18,1.55.02.09.04.19.06.28.02.19.04.3.04.3.02.05.03.1.05.15.23,1.4.56,2.85.96,4.35,4.48,18.07,15.12,34.07,29.29,49.29.47.51.96,1.02,1.44,1.53.11.12.23.24.34.36.43.45.85.89,1.29,1.34,6.45,6.65,13.8,14.26,21.33,20.75l17.04,15.41c2.74,2.24,4.35,3.49,4.35,3.49l34.55,31.92c1.09,1.01,2.09,1.96,3.02,2.84,5.03,4.67,9.37,8.71,9.48,8.84,1.22,1.42,2.51,2.87,3.77,4.42,1.4,1.43,2.47,2.98,3.28,4.6,4.17,6.89,6.01,16.06-1.58,31.06l-44.27,80.26c-16.03,26.85-27.98,52.63-28.18,78.34-.04,2.57.06,5.14.22,7.71.19,2.99,1.08,7.72,1.21,8.22,1.04,4.67,3.31,13.94,6.58,22.48,2.52,6.56,7.69,18.01,14.81,29.46,11.76,20.89,29.48,31.2,29.48,31.2-14.59-25.55-39.04-96.69,20.48-236.33,24.42-57.29,11.29-66.02,3.8-74.33h0Z" fill="url(#linear-gradient-56)" isolation="isolate" opacity=".3"/><path d="m595.45,225.74c-11.78,9.25-27.35,19.57-47.5,31.12C353.69,368.15,55.78,558.02,0,644.9v39.37c7.26,4.27,19.01,6.52,35.83,6.46,59.54-.22,146.87-75.67,212.76-142.72,64.87-66.01,151.78-105.79,244.15-111.67,0,0,40.6-3.6,2.57,52.85-60.39,89.62-220.11,177.69-153.33,213.92,66.78,36.23,189.64-98.68,206-137.91,17.77-42.6,47.5-55.63,47.5-55.63V225.74h-.02Z" fill="#fff" isolation="isolate" opacity=".02"/></g></g></svg>