<?xml version="1.0" encoding="UTF-8"?><svg id="Layer_2" xmlns="http://www.w3.org/2000/svg" width="389.32" height="445.23" xmlns:xlink="http://www.w3.org/1999/xlink" viewBox="0 0 389.32 445.23"><defs><linearGradient id="linear-gradient" x1="214.25" y1="77.29" x2="214.63" y2="89.78" gradientUnits="userSpaceOnUse"><stop offset="0" stop-color="#fff"/><stop offset="1" stop-color="#805e25"/></linearGradient><linearGradient id="linear-gradient-2" x1="178.13" y1="76.79" x2="178" y2="89.53" xlink:href="#linear-gradient"/><linearGradient id="linear-gradient-3" x1="195.6" y1="78.7" x2="194.53" y2="32.38" gradientUnits="userSpaceOnUse"><stop offset="0" stop-color="#cf9934"/><stop offset="1" stop-color="#dab03b"/></linearGradient><linearGradient id="linear-gradient-4" x1="218.47" y1="13.11" x2="238.05" y2="12.57" xlink:href="#linear-gradient-3"/><linearGradient id="linear-gradient-5" x1="155.79" y1="12.8" x2="163.59" y2="12.8" xlink:href="#linear-gradient-3"/><linearGradient id="linear-gradient-6" x1="189.92" y1="8.88" x2="199.39" y2="8.88" xlink:href="#linear-gradient-3"/></defs><g id="_כל_הדמויות"><rect width="389.32" height="445.23" fill="#e5e5e5" opacity="0"/><path d="m89.07,373.36s61.49,43.15,209.05,7.06l-50.6-224.52-109.18,7.14-49.27,210.32Z" fill="#a0110a"/><path d="m298.12,380.42l-2.99-13.25c-112.04,38.57-183.7,6.39-203.66-4.06l-2.4,10.25s61.49,43.15,209.05,7.06Z" fill="#f1f0e1"/><path d="m211.78,162.01s-46.23-2.36-52.28,88.51c-1.16,17.4,2.55,35.73,8.79,60.85,0,0,28.64.12,31.86,0,1.54-.06-11.02-35.56-4.37-67.4,7.29-34.88,33.77-66.36,33.77-66.36l-17.78-15.6Z" fill="#c88856"/><path d="m225.4,423.28s28.16-16.11,23.62,5.97c-.89,4.35,6.53,4.81,2.09,4.92-11.36.27-30.34,1-36.62-.95-7.58-2.36-15.62,1.22-12.78-26.73.32-3.16.52-6.32.62-9.49.36-10.78,1.11-34.15,1.11-40.1,0-25.1-9.61-44.61-9.61-44.61l60.14-7.73s-8.59,83.82-28.59,118.74Z" fill="#ca8a56"/><path d="m201.15,418.05l-.18,5.73c0,3.36,1.05,5.64,3.11,8.25,3.21,4.07,14.52,15.69,52.53,3.94,7.05-2.18,5.59-10.31,3.91-15.77-2.1-6.87-8.41-17.23-20.41-10.54-19.48,10.86-22.75,9.74-38.96,8.4Z" fill="#f0dabc"/><path d="m200.97,423.78c0,3.36,1.05,5.64,3.11,8.25,3.21,4.07,14.52,15.69,52.53,3.94,3.34-1.03,4.76-3.4,5.16-6.19-34.45,11.38-47.81.38-52.93-11.1-2.25-.16-4.76-.39-7.68-.63l-.18,5.73Z" fill="#ead1b7"/><path d="m231.44,423.28s4.84,5.99,3.68,17.39l3.24-.41s.08-15.27-6.92-16.97Z" fill="#d6b58e"/><path d="m239.47,418.72s11.19,2.43,9.28,19.45l3.41-.92s2.92-19.91-12.69-18.52Z" fill="#d6b58e"/><path d="m201.15,418.18l-.17,5.6c0,3.36,1.05,5.64,3.11,8.25,1.56,1.97,5.03,5.72,12.52,7.71-10.86-5.39-15.63-10.15-15.46-21.56Z" fill="#d6b58e"/><path d="m201.89,338.95c.94,5.46,1.57,11.51,1.57,17.93,0,5.95-.75,29.32-1.11,40.1-.11,3.17-.3,6.34-.62,9.49-.48,4.73-.64,8.53-.56,11.64,8.79-43.22,5.12-67,.73-79.17Z" fill="#c1804f"/><path d="m163.92,423.28s-28.16-16.11-23.62,5.97c.89,4.35-6.53,4.81-2.09,4.92,11.36.27,30.34,1,36.62-.95,7.58-2.36,15.62,1.22,12.78-26.73-.32-3.16-.52-6.32-.62-9.49-.36-10.78-1.11-34.15-1.11-40.1,0-25.1,9.61-44.61,9.61-44.61l-60.14-7.73s8.59,83.82,28.59,118.74Z" fill="#ca8a56"/><path d="m188.17,418.05l.18,5.73c0,3.36-1.05,5.64-3.11,8.25-3.21,4.07-14.52,15.69-52.53,3.94-7.05-2.18-5.59-10.31-3.91-15.77,2.1-6.87,8.41-17.23,20.41-10.54,19.48,10.86,22.75,9.74,38.96,8.4Z" fill="#f0dabc"/><path d="m188.34,423.78c0,3.36-1.05,5.64-3.11,8.25-3.21,4.07-14.52,15.69-52.53,3.94-3.34-1.03-4.76-3.4-5.16-6.19,34.45,11.38,47.81.38,52.93-11.1,2.25-.16,4.76-.39,7.68-.63l.18,5.73Z" fill="#ead1b7"/><path d="m157.88,423.28s-4.84,5.99-3.68,17.39l-3.24-.41s-.08-15.27,6.92-16.97Z" fill="#d6b58e"/><path d="m149.85,418.72s-11.19,2.43-9.28,19.45l-3.41-.92s-2.92-19.91,12.69-18.52Z" fill="#d6b58e"/><path d="m188.17,418.18l.17,5.6c0,3.36-1.05,5.64-3.11,8.25-1.56,1.97-5.03,5.72-12.52,7.71,10.86-5.39,15.63-10.15,15.46-21.56Z" fill="#d6b58e"/><path d="m187.43,338.95c-.94,5.46-1.57,11.51-1.57,17.93,0,5.95.75,29.32,1.11,40.1.11,3.17.3,6.34.62,9.49.48,4.73.64,8.53.56,11.64-8.79-43.22-5.12-67-.73-79.17Z" fill="#c1804f"/><path d="m259.14,178.73l-29.35-31.75-35.13-8.75-38,13.73-26.48,26.77s17.25,56.67,13.22,78.99c-1.49,8.25-7.83,27.29-9.31,36.92-2.3,14.98,7.42,22.17,20.69,30.51,13.8,8.68,27.84,13.93,39.89,13.34,12.05.59,26.74-4.29,39.64-14.27,13.59-10.51,23.24-14.6,20.94-29.58-1.48-9.63-10.73-30.03-12.22-38.28-4.04-22.32,16.12-77.62,16.12-77.62Z" fill="#ca8a56"/><path d="m154.77,325.15c13.8,8.68,27.84,13.92,39.89,13.34,12.05.59,26.74-4.29,39.64-14.27,13.59-10.51,23.24-14.6,20.94-29.58-1.48-9.63-10.73-30.03-12.22-38.28-4.04-22.32,16.12-77.62,16.12-77.62l-8.79-9.51c-23.83,75.3-28.73,141.33-115.26,137.15,2.94,7.71,10.44,12.97,19.68,18.78Z" fill="#cc9f81" opacity=".22"/><path d="m233.98,231.3c-8.91,32.15,5.93,79.26-39.68,79.26s-33.27-47.72-39.88-80.35c-6.73-33.18,14.69-61.12,39.88-61.12s49.34,27.39,39.68,62.22Z" fill="#f0dabc"/><path d="m146.3,317.63s46.61,46.93,96.71,0c0,0-43.12,40.91-96.71,0Z" fill="#b57240"/><path d="m138.62,146.07c-26.13,18.05-70.5,59.64-34.46,85.97,16.41,11.99,23.12,23.53,25.1,27.63,5.92-4.11,16.74-12.41,22.87-14.28-8.74-17.87-29.86-35.05-29.86-35.05l40.56-47.86s10.09-40.11-24.2-16.42Z" fill="#ca8a56"/><path d="m129.27,259.7c.22.51.03,1.09-.42,1.43-10.05,7.45-5.9,14.36-1.85,17.91,1.97,1.73,7.76,2.62,10.29,1.89,23.45-6.82,21.6-20.97,15.29-34.58-.26-.56-.91-2.45-2.98-1.36-5.65,2.96-16.06,7.55-19.92,13.25-.31.46-.64.92-.41,1.43,0,0,0,.02.01.03Z" fill="#f0dabc"/><path d="m127.63,273.75s4.43-10.21,1.75-13.48c0,0,.09,5.87-1.75,13.48Z" fill="#d4b38c"/><path d="m290.56,242.52c-4.81-32.24-19.91-59.11-30.73-74.93-.41-.6-.83-1.19-1.25-1.77-8.98-12.17-22.9-19.73-37.94-21.36l-3.99-.43-2.71,16c29.71,21.13,42.28,55.8,46.86,72.72.44,1.63.58,3.29.46,4.92-13.99,10.68-33.71,25.62-48.4,36.21-3.24,2.33-2.69,4.76-3.67,4.3-2.21-1.04-4.72,3.55-4.92,6.35-.53,7.41,6.06,17.46,13.25,14.61,3.94-1.57,18.45-6.85,32.88-15.37h0s.01,0,.04-.02c4.2-2.48,8.39-5.24,12.31-8.26,2.38-1.62,5.18-3.52,8.48-5.78,9.64-6.59,15.87-10.58,18.05-15.81,1.49-3.58,1.86-7.53,1.28-11.37Z" fill="#c88856"/><path d="m228.69,274.74c-2.09-.52-4.07,9.95-14,21.92,2.42,2.64-.48,3.77,2.82,2.46,2.27-.9,7.53-2.9,15.04-6.2,4.15-12.94-3.86-18.18-3.86-18.18Z" fill="#ba7b4b"/><path d="m102.6,174.83s-18.47,20.27-28.21,87.08c-9.67,66.33-34.91,110.33-32.46,126.54,1.52,10,11.19,13.77,35.42,15.26,19.5,1.2,26.86-5.2,41.35-44.62,3.91-10.63-9.58-67.76-6.29-77.51,31.16-92.3,35.92-144.46,35.92-144.46l-45.73,37.71Z" fill="#a0110a"/><path d="m318.27,340.86c3.88,12.47,1.83,19.85-1.76,24.2-4.15,5.03-11.53,13.87-32.94,3.44-31.41-15.29-45.64-41.92-41.39-165.4.83-24.11-.82-41.41-3.39-53.74-4.03-19.33-21.81-33.84-43.29-35.24-.05,0-.1,0-.15.01h0c-21.47,1.39-39.26,15.9-43.29,35.23-2.57,12.34-4.33,33.46-20.71,51.17-70.39,76.1-12.23,140.26-24.07,167.98-3.19,7.48-20.92,12.4-25.29,13.3-11.83,2.46-21.47-1.71-25.45-3.27-12.5-4.91-3.2-33.73-3.18-33.79,0,0-44.81,66.98,27.79,60.21,1.36-.13,6.31-.11,7.76-.28,14.99-1.77,23.95-5.03,34.34-16.68,20.39-22.87-41.34-150.02,53.12-194.61,0,0-8.04-57.2,19.13-59.97,27.18,2.77,21.36,67.09,21.36,67.09-.58,95.06,28.61,167.05,50.9,187.49,11.47,10.52,20.86,16.32,37.86,16.91,91.04,3.15,12.65-64.03,12.65-64.03Z" fill="#f3f2e3"/><path d="m215.24,138.24c-4.89,1.43-6.37.12-7.3,4.02-2.08,8.72,7.06,55.22,7.06,55.22,4.33-.31,8.34-.72,12.08-1.22-2.79-27.82-4.26-50.15-4.83-59.68-2.48.45-4.87,1.03-7.01,1.66Z" fill="#f1f0e1"/><path d="m298.66,268.39c-7.78-40.27-17.75-68.74-27.18-88.18l-16.87-27.41-1.63-2.65c-3.62-5.09-6.35-8.24-9.97-10.98-2.97-2.24-6.88-3.19-11.04-3.36-3.2-.13-6.54.19-9.73.76.57,9.53,2.04,31.86,4.83,59.68,7.99,79.67,26.75,204.31,65.86,201.91,24.23-1.49,33.91-5.27,35.42-15.26,2.46-16.21-16.99-48.7-29.7-114.51Z" fill="#a0110a"/><path d="m174.07,138.24c-8.46-2.48-18.09-5.79-28.63-1.87-4.26,1.58-14.2,8.44-20.12,14l-23.48,24.46s28.46,19.53,72.47,22.64c0,0,9.13-46.5,7.06-55.22-.93-3.9-2.42-2.58-7.3-4.02Z" fill="#f3f2e3"/><path d="m215.24,138.24c8.46-2.48,20.72-4.37,27.77.93,3.63,2.73,6.35,5.89,9.97,10.98l18.5,30.06s-12.48,14.15-56.49,17.27c0,0-9.13-46.5-7.06-55.22.93-3.9,2.42-2.58,7.3-4.02Z" fill="#f3f2e3"/><path d="m174.32,197.47s.95-4.82,2.16-11.64c-29.92-.86-58.99-14.35-67.37-18.57l-7.26,7.57s28.46,19.53,72.47,22.64Z" fill="#e3dfc8"/><path d="m271.49,180.21l-4.82-7.84c-20.6,12.05-33.15,13.75-53.5,15.29,1.23,6.92,1.83,9.82,1.83,9.82,44.01-3.11,56.49-17.27,56.49-17.27Z" fill="#e3dfc8"/><rect x="193.78" y="212.04" width="6.3" height="125.02" rx="3.15" ry="3.15" transform="translate(-90.11 96.32) rotate(-22.51)" fill="#dbb13c"/><ellipse cx="174.85" cy="221.25" rx="4.97" ry="2.58" transform="translate(-71.38 83.8) rotate(-22.51)" fill="#dbb13c"/><circle cx="167.91" cy="205.22" r="17.5" fill="#a0110a"/><path d="m175.65,220.92c7.67-3.78,11.34-12.44,9.11-20.39-5.08,13-19.93,14.09-33.52,9.98.26.83.57,1.65.96,2.45,4.27,8.67,14.77,12.23,23.44,7.96Z" fill="#951c12"/><path d="m160.64,189.29s18.91,10.24,15.82,31.23c0,0,9.44-23.48-15.82-31.23Z" fill="#dbb13c"/><path d="m159.05,190.07s-3.39,21.24,15.14,31.56c0,0-24.37-6.81-15.14-31.56Z" fill="#dbb13c"/><path d="m153.62,195.1s-2.37,5.23-1.71,10.67c.79,6.49,5.17,13.18,13.98,16.83,0,0-4.61-.22-8.92-3.74-5.54-4.52-10.41-13.07-3.34-23.77Z" fill="#dbb13c"/><path d="m164.51,187.38c.39.79-.91,3.05-3.31,4.23s-4.98.84-5.37.05,1.24-2.4,3.63-3.58c2.4-1.18,4.66-1.5,5.05-.7Z" fill="#dbb13c"/><path d="m162.89,186.39c.31.63-.66,2.52-2.56,3.45s-3.99.55-4.3-.08.78-2.29,2.67-3.22c1.89-.93,3.87-.78,4.18-.16Z" fill="#cfa237"/><path d="m168.72,187.66s5.6,1.3,9.51,5.14c4.67,4.58,7.3,12.13,4.84,21.34,0,0,2.64-3.79,2.47-9.35-.21-7.15-4.03-16.21-16.81-17.12Z" fill="#dbb13c"/><path d="m155.83,191.66s1.57,1.9,5.96-.37c0,0,2.78-1.46,2.73-3.91,0,0-2.21,5.5-8.69,4.28Z" fill="#c49a34"/><path d="m172.7,224.29s3.42.09,5.82-2.41c0,0-1.23,3.76-5.82,2.41Z" fill="#c49a34"/><path d="m170.15,222.58s4.28-.27,8.84-3.81c0,0-3.36,4.72-8.84,3.81Z" fill="#c49a34"/><path d="m252.98,64.19c-7.8-11.57-12.46-15.96-14.9-17.61,3.15,1.53,8.97,4.68,12.43,8.56,0,0-6.58-15.4-23.84-17.54,0,0,2.47-3.42,15.21,0,0,0-24.23-13.67-44.59.85-20.35-14.52-44.59-.85-44.59-.85,12.74-3.42,15.21,0,15.21,0-17.26,2.14-23.84,17.54-23.84,17.54,3.46-3.88,9.28-7.03,12.43-8.56-2.44,1.66-11.51,7.36-18.64,19.39-16.95,28.6,1.09,51.67-2.09,43.98-3.55-8.61,11.75-8.4,11.75-8.4-7.41,12.97-8.47,26.65-6.35,21.62,2.12-5.03,8.12-7.64,8.12-7.64-7.77,13.75-2.47,26.23-2.47,26.23-.35-7.72,7.63-14.52,7.63-14.52-7.2,18.48,10.82,22.53,10.82,22.53-1.28,6.14,10.15,31.23,9.5,25.76-.64-5.47,4.72-13.29,4.72-13.29-.42,3.8,7.49,22.82,6.85,17.24-.27-2.34.03-4.78.48-6.82,3.03,5.7,7.27,14.94,5.65,19.49-2.44,6.85,13.94-17.06,13.8-24.37,0,0,2.61,6.13,1.96,11.7-.64,5.58,7.27-13.44,6.85-17.24,0,0,5.36,7.81,4.72,13.29-.64,5.47,10.79-19.62,9.5-25.76,0,0,18.02-4.05,10.82-22.53,0,0,7.98,6.8,7.63,14.52,0,0,5.29-12.48-2.47-26.23,0,0,6,2.61,8.12,7.64,2.12,5.03,1.06-8.66-6.35-21.62,0,0,8.21-.49,7.32,7.82-.89,8.31,11.34-26.28-1.4-45.18Z" fill="#593421"/><path d="m224.98,61.87s9.96-7.86,18.36,1.85c4.56,5.27,3.61,10.61,1.11,14.36-3.71,5.57-9.34,7.15-16.71,6.54-21.87-1.81-7.55-18.94-2.76-22.75Z" fill="#d6975e"/><path d="m241.46,64.99c8.61,8.58.35,20.57-13.72,19.64-1.6-.11-1.93-4.85-3.59-5.44-8.91-3.16-2.67-14.43,5.29-17.73,4.17-1.73,8.38-.09,12.02,3.54Z" fill="#a55f32"/><path d="m222.41,72.86c-1.51-.75,8.78-12.2,15.59-5.98,5.98,5.46,3.36,15.42-11.05,17.16l-4.54-11.17Z" fill="#ebc89c"/><path d="m226.26,67.84c3.3-2.5,8.03-4.34,11.73-.96,2.42,2.21,3.43,5.16,2.82,8-2.21-6.49-6.84-9.29-14.55-7.04Z" fill="#e3bb91"/><path d="m239.02,67.96h0c3.24,2,3.24,5.76,3.24,5.76-.78,9.05-12.95,9.94-12.95,9.94.92-.28,2.43-.54,3.19-.87,8.74-3.06,10.38-10.11,6.52-14.83Z" fill="#8f4e29"/><path d="m229.44,61.45c-2.49,1.03-4.81,2.84-6.55,4.94,1.7-2.96,6.38-7.29,12.11-5.54,0,0,1.88.68,2.57,1.18-2.35-1.02-5.69-1.59-8.13-.58Z" fill="#8f4e29"/><path d="m222.18,67.76c-.14.3-.21.48-.21.48.03-.17.11-.32.21-.48Z" fill="#a55f32"/><path d="m167.28,61.87s-9.96-7.86-18.36,1.85c-4.56,5.27-3.61,10.61-1.11,14.36,3.71,5.57,9.34,7.15,16.71,6.54,21.87-1.81,7.55-18.94,2.76-22.75Z" fill="#d6975e"/><path d="m150.8,64.99c-8.61,8.58-.35,20.57,13.72,19.64,1.6-.11,1.93-4.85,3.59-5.44,8.91-3.16,2.67-14.43-5.29-17.73-4.17-1.73-8.38-.09-12.02,3.54Z" fill="#a55f32"/><path d="m169.85,72.86c1.51-.75-8.78-12.2-15.59-5.98-5.98,5.46-3.36,15.42,11.05,17.16l4.54-11.17Z" fill="#ebc89c"/><path d="m165.99,67.84c-3.3-2.5-8.03-4.34-11.73-.96-2.42,2.21-3.43,5.16-2.82,8,2.21-6.49,6.84-9.29,14.55-7.04Z" fill="#e3bb91"/><path d="m153.24,67.96h0c-3.24,2-3.24,5.76-3.24,5.76.78,9.05,12.95,9.94,12.95,9.94-.92-.28-2.43-.54-3.19-.87-8.74-3.06-10.38-10.11-6.52-14.83Z" fill="#8f4e29"/><path d="m162.82,61.45c2.49,1.03,4.81,2.84,6.55,4.94-1.7-2.96-6.38-7.29-12.11-5.54,0,0-1.88.68-2.57,1.18,2.35-1.02,5.69-1.59,8.13-.58Z" fill="#8f4e29"/><path d="m170.08,67.76c.14.3.21.48.21.48-.03-.17-.11-.32-.21-.48Z" fill="#a55f32"/><path d="m231.64,88.27c-.61-6.36-5.86-26.94-17.34-29.27-14.68-2.98-17.83,1.85-17.83,1.85,0,0-.07-.09-.22-.24-.15.15-.22.24-.22.24,0,0-3.16-4.83-17.83-1.85-11.48,2.33-16.73,22.91-17.34,29.27,0,0-2.79,12.08.47,19.17,1.97,4.28,6.32,9.32,8.58,11.73,2.03,2.17,4.76,17.65,5.38,18.85,1.88,3.68,5.13,9.62,7.27,11.88,2.14,2.27,3.12,4.21,6.43,4.84,1.2.23,2.62,2.17,4.27,2.04l2.78.07h.22s.22,0,.22,0l2.78-.07c6.11-.67,9.39-2.11,11.57-4.92,1.87-2.42,4.21-10.53,6.41-13.84.75-1.12,3.35-16.68,5.38-18.85,2.25-2.41,6.61-7.45,8.58-11.73,3.26-7.09.47-19.17.47-19.17Z" fill="#c88856"/><path d="m161.33,107.44s6.19,10.33,2.14,20.2c-4.48,10.93,8.32,23.32,9.57,27.59,0,0,4.02-5.56,7.79-6.43,0,0,3.57,13.87,4.53,15.76,0,0,2.36-10.5,2.71-11.13s7.28,6.81,6.71,19.25c0,0,10.29-9.74,10.32-20.35,0,0,5.13,8.59,4.56,12.64,0,0,2.68-13.69,3.16-19.01,0,0,9.28,12.66,9.35,16.58,0,0,6.28-12.42,3.32-24.49-1.52-6.21,6.1-9.56,5.05-12.97-1.08-3.51-2.41-13.23-1.54-13.86l-31.5,20.22-36.18-23.99Z" fill="#4f291c"/><path d="m187.45,95.75s-6.32-4.31-8.62-1.78c0,0,1.35,1.38,2.21,4.82,1.26,5.05.77,11.58-2.12,12.41-1.89.54-4.01,1.33-5.76,1.68-2.04.4-4.13-.29-5.56-1.83-2.03-2.19-8.28-6.14-5.73-10.77,1.82-3.31.21-6.17-1.21-9.95-.25-.65.12-1.3.15-1.81-.37,1.73-2.47,12.42.52,18.93,1.97,4.28,6.32,9.32,8.58,11.73.16.17.33.44.5.77l12.55-5.22s-.87-12.12,4.49-18.97Z" fill="#b47240"/><path d="m205.05,95.75s6.32-4.31,8.62-1.78c0,0-1.35,1.38-2.21,4.82-1.26,5.05-.77,11.58,2.12,12.41,1.89.54,4.01,1.33,5.76,1.68,2.04.4,4.13-.29,5.56-1.83,2.03-2.19,8.28-6.14,5.73-10.77-1.82-3.31-.21-6.17,1.21-9.95.25-.65-.12-1.3-.15-1.81.37,1.73,2.47,12.42-.52,18.93-1.97,4.28-6.32,9.32-8.58,11.73-.16.17-.33.44-.5.77l-12.55-5.22s.87-12.12-4.49-18.97Z" fill="#b47240"/><path d="m222.51,86.66s-7.66-6.41-15.79,1.26c0,0,1.16,2.64,3.74,4.19-.51-.8-.8-1.75-.8-2.78,0-1.2.41-2.3,1.08-3.17,1.29-.81,3.12-1.44,5.71-1.56,1.83.75,3.13,2.58,3.13,4.73,0,.83-.2,1.6-.54,2.29,1.29-.95,2.68-2.49,3.47-4.97Z" fill="#fff"/><path d="m216.45,84.61c-2.59.12-4.42.75-5.71,1.56-.67.87-1.08,1.97-1.08,3.17,0,1.03.3,1.98.8,2.78,1.41.85,3.23,1.37,5.52.95,0,0,1.45-.26,3.05-1.44.34-.69.54-1.46.54-2.29,0-2.15-1.3-3.98-3.13-4.73Z" fill="url(#linear-gradient)"/><path d="m208.44,90.41c1.02.77,8.33,7.93,14.07-3.75.27-.56.35-.43.74-.12,0,0-1.98,7.35-7.24,7.77-1.3.1-3.17-.11-6.12-.22-1.96-.07-3.39,2.47-4.16,2.29s2.71-5.97,2.71-5.97Z" fill="#f2b890"/><path d="m226.14,88.32c-.33-.89-11.65-11.92-19.41-.39,0,0-2.72,3.95-3.62,8.6,0,0,3.19.28,6.63,13.66,0,0-.7-10.19-4.59-14.51-.03-1.67,4.6-16.1,17.36-9.01.96.54,2.05,1.02,3.62,1.66Z" fill="#995e34"/><ellipse cx="214.62" cy="89.34" rx="1.8" ry="1.85" fill="#492a0b"/><ellipse cx="216.14" cy="87.95" rx=".79" ry=".81" fill="#fff"/><path d="m206.96,90.7c2.59-4.41,7.94-9.27,16.03-3.78.08.04.17.09.26.13.07.03-.45.09-.56.15-.06.03-.2.13-.29.3-1.19,2.3-4.57,9.08-12.13,4.35-3.55-.24-3.99,4.57-4.71,4.32-.19-.07-.31-.2-.38-.39,0,0,0,0,0-.01-.38-1.05.84-3.66,1.78-5.06Zm15.04-3.92c-8.71-3.69-13.75,2.68-13.75,2.68-.13-.55,7.83,9.11,13.75-2.68Z" fill="#603d26"/><path d="m217.7,136.33c-.14-4.65-1.92-23.37-13.56-23.7-.41-.01-.82.1-1.23.14v-.31s-2.97.41-6.85.52c-3.87-.11-6.84-.52-6.84-.52v.31c-.42-.04-.82-.16-1.23-.14-13.12.68-13.2,19.48-13.19,23.66.21.9.38,1.52.49,1.73,1.73,3.38,3.9,10.35,5.9,13.2l-.35-2.43,1.89,3.89.96-2.31,1.26,4.23.79-1.16s.44,1.29.98,2.46c.05.02.11.05.16.07l.65-.73,1.05,1.28s0,0,0,0l.42-1.33,1.06,1.58c.06,0,.13.01.19.02l1.49-2.8.38,2.66,1.45-2,.48,2s.98-1.61,1.17-2.49c.1-.46,1.02,2.69,1.02,2.69,0,0,.54-.33.91-.87.45-.66.93.6,1.01.83h.04c.22-.3,1.61-2.25,1.51-3.58-.11-1.44.77,3.51.77,3.51l1.3-2.34.36,2.39s0,0,0,0c.06-.02,1.33-.56,1.92-1.47.47-.74.99.86.99.87,0,0,0,0,0,0,.02-.02,2.18-2.04,2.15-3.18-.03-1.15.59,1.69.59,1.69l1.18-2.33.76.6h0l1.92-4.47-.36,2.75c2.01-2.83,4.18-9.83,5.92-13.23.1-.2.27-.81.48-1.69Z" fill="#f0dabc"/><path d="m196.41,121l-23.6,18.59s12.55-1.9,12.9,4.78c.33,6.22,8.2,6.06,10.18,5.98.24-.01.48-.01.73,0,2,.08,10.5.27,10.5-5.98,0-2.13,2.7-4.54,9.35-4.71,3.08-.08-20.05-18.66-20.05-18.66Z" fill="#773431"/><path d="m217.27,138.92l-20.86-17.37-19.14,16.5s9.06-1.13,9.53,5.46c.4,5.57,6.74,5.47,9,5.34.41-.02.82-.02,1.23,0,2.26.13,8.34.2,9-5.34.8-6.82,11.25-4.6,11.25-4.6Z" fill="#380909"/><path d="m188.95,135.88s.54,1.68,1.08,2.41c0,0,1.24-2.42,1.23-3.84l-2.31,1.43Z" fill="#dedcdc"/><path d="m190.9,134.67c0,.43-.12,1.52-.88,3.62,0,0,1.24-2.42,1.23-3.84l-.35.22Z" fill="#c4c0c0"/><path d="m189.88,138.08c-.26-.52-.62-1.79-.76-2.31l-.17.11s.45,1.4.94,2.2Z" fill="#c4c0c0"/><path d="m203.08,135.86s-.54,1.68-1.08,2.41c0,0-1.24-2.42-1.23-3.84l2.31,1.43Z" fill="#dedcdc"/><path d="m201.13,134.65c0,.43.12,1.52.88,3.62,0,0-1.24-2.42-1.23-3.84l.35.22Z" fill="#c4c0c0"/><path d="m202.14,138.06c.26-.52.62-1.79.76-2.31l.17.11s-.45,1.4-.94,2.2Z" fill="#c4c0c0"/><path d="m195.79,148.86c.41-.02.82-.03,1.23,0,2.31.18,8.27.33,9-5.34.06-.49.13-.74.2-.99-2.1-2.75-8.07-1.7-9.82-1.32-.3.07-.61.05-.9-.05-3.63-1.32-6.43.51-8.02,2.08-.62.61-.85,1.53-.58,2.36,1.09,3.41,6.95,3.37,8.89,3.26Z" fill="#dd7895"/><path d="m190.62,145.51l.87-2.45,1.11,2.2c.3.59.83.8,1.54.95h0c1.28.21,2.59.2,3.86-.02h.03c1.05-.22,1.24-.39,1.53-.98l1.29-2.3,1.04,2.93c.11.31.37.51.69.57.52.11,1.54.19,1.89.28.07.02.24,0,.19.06-.98,1.08-2.26,1.96-5.25,2.15-1.69.11-4.65.16-7.09-.13-2.16-.26-3.88-.98-4.63-1.8-.13-.15-.02-.19.11-.24.58-.23.86-.35,1.87-.49.43-.06.81-.3.96-.72Z" fill="#dedcdc"/><path d="m196.4,141.21c-.3.07-.61.05-.9-.05-3.63-1.32-6.43.51-8.02,2.08-.62.61-.85,1.53-.58,2.36,0,0,0,.01,0,.02,1.93-5.37,8.08-2.46,8.08-2.46,0,0,8.09-2.76,11.03.33.06-.47.13-.72.2-.96-2.1-2.75-8.07-1.7-9.82-1.32Z" fill="#d6688b"/><path d="m195.92,141.33s-1.85,2.95-1.44,4.77c0,0-.04-1.97,1.44-4.77Z" fill="#ab4467"/><path d="m223.77,127.03c-.39-5.44-2.63-6.67-5.61-8.98-4.56-3.53-12.71-4.55-12.71-4.55l-8.85-1.14c0-.14,0-.22,0-.22l-.52.07-.52-.07s0,.08,0,.22l-8.85,1.14s-4.81.42-12.71,4.55c-3.32,1.74-6.06,3.62-6.44,9.06-.24,3.43,3.52,9.82,4.5,11.73,1.08,2.1,6.63,1.32,15.14-1.82,3.23-1.19,7.77-5.02,8.47-5.76l.26-.3c.7.74,5.82,4.87,9.04,6.07,8.51,3.14,13.16,3.39,14.24,1.29.98-1.91,4.82-7.86,4.57-11.29Z" fill="#281a0d"/><path d="m223.77,126.09c-.39-5.44-1.89-6.65-4.87-8.95-4.56-3.53-13.45-4.57-13.45-4.57l-8.85-1.14c0-.14,0-.22,0-.22l-.52.07-.52-.07s0,.08,0,.22l-8.85,1.14s-4.81.42-12.71,4.55c-3.32,1.74-6.06,3.62-6.44,9.06-.24,3.43,1.33,8.23,4.5,11.73,1.58,1.74,6.63,1.32,15.14-1.82,3.23-1.19,7.94-5.18,8.64-5.91h.26c.7.75,5.65,4.72,8.88,5.91,8.51,3.14,12.41,2.74,14.24,1.29,2.8-2.23,4.82-7.86,4.57-11.29Z" fill="#f0dabc"/><path d="m196.14,68.13l-1.15,6.82s.98,7.37,1.15,8.89,1.58-9.04,1.58-9.04l-1.58-6.67Z" fill="#b47240"/><path d="m170.11,86.66s7.66-6.41,15.79,1.26c0,0-1.16,2.64-3.74,4.19.51-.8.8-1.75.8-2.78,0-1.2-.41-2.3-1.08-3.17-1.29-.81-3.12-1.44-5.71-1.56-1.83.75-3.13,2.58-3.13,4.73,0,.83.2,1.6.54,2.29-1.29-.95-2.68-2.49-3.47-4.97Z" fill="#fff"/><path d="m176.17,84.61c2.59.12,4.42.75,5.71,1.56.67.87,1.08,1.97,1.08,3.17,0,1.03-.3,1.98-.8,2.78-1.41.85-3.23,1.37-5.52.95,0,0-1.45-.26-3.05-1.44-.34-.69-.54-1.46-.54-2.29,0-2.15,1.3-3.98,3.13-4.73Z" fill="url(#linear-gradient-2)"/><path d="m184.18,90.41c-1.02.77-8.33,7.93-14.07-3.75-.27-.56-.35-.43-.74-.12,0,0,1.98,7.35,7.24,7.77,1.3.1,3.17-.11,6.12-.22,1.96-.07,3.39,2.47,4.16,2.29s-2.71-5.97-2.71-5.97Z" fill="#f2b890"/><path d="m166.49,88.32c.33-.89,11.65-11.92,19.41-.39,0,0,2.72,3.95,3.62,8.6,0,0-3.19.28-6.63,13.66,0,0,.7-10.19,4.59-14.51.03-1.67-4.6-16.1-17.36-9.01-.96.54-2.05,1.02-3.62,1.66Z" fill="#995e34"/><ellipse cx="178" cy="89.34" rx="1.8" ry="1.85" fill="#492a0b"/><ellipse cx="176.49" cy="87.95" rx=".79" ry=".81" fill="#fff"/><path d="m185.66,90.7c-2.59-4.41-7.94-9.27-16.03-3.78-.08.04-.17.09-.26.13-.07.03.45.09.56.15.06.03.2.13.29.3,1.19,2.3,4.57,9.08,12.13,4.35,3.55-.24,3.99,4.57,4.71,4.32.19-.07.31-.2.38-.39,0,0,0,0,0-.01.38-1.05-.84-3.66-1.78-5.06Zm-15.04-3.92c8.71-3.69,13.75,2.68,13.75,2.68.13-.55-7.83,9.11-13.75-2.68Z" fill="#603d26"/><path d="m195.66,65.16c18.21-9.51,29.33,2.97,29.33,2.97l-.4-.67c-2.07-4.34-6.34-8-10.69-8.79-14.73-2.68-17.86,2.17-17.86,2.17,0,0-3.16-4.83-17.83-1.85-4.15.84-7.49,4.08-10.09,8.16l-1.24,2.12c12.86-13.08,28.79-4.12,28.79-4.12Z" fill="#b47240"/><path d="m189.51,76.06s2.1,4.43,1.44,5.02c-1.2,1.06-2.87,2.55-1.44,5.2s3.28,5.76,2.61,7.83c0,0,1.57-.77-.64-6.61,0,0-1.95-3.02-.35-5.12.5-.65.67-1.51.44-2.3-.34-1.21-.98-2.87-2.07-4.02Z" fill="#b47240"/><path d="m203.19,76.06s-2.1,4.43-1.44,5.02c1.2,1.06,2.87,2.55,1.44,5.2s-3.28,5.76-2.61,7.83c0,0-1.57-.77.64-6.61,0,0,1.95-3.02.35-5.12-.5-.65-.67-1.51-.44-2.3.34-1.21.98-2.87,2.07-4.02Z" fill="#b47240"/><path d="m193.89,127.74c-19.23,11.44-22.18-3.2-22.62-8.99-2,1.5-3.46,3.57-3.73,7.42-.24,3.43,1.33,8.23,4.5,11.73,1.58,1.74,6.63,1.32,15.14-1.82,3.23-1.19,7.77-5.02,8.47-5.76l.17-.15.25-3.45-2.18,1.02Z" fill="#eed8ba"/><path d="m224.29,126.02c-.27-3.85-1.73-5.92-3.73-7.42-.43,5.79-3.39,20.42-22.62,8.99l-1.87-.86-2.18,1.02c-19.23,11.44-22.18-3.2-22.62-8.99-2,1.5-3.46,3.57-3.73,7.42-.24,3.43,1.33,8.23,4.5,11.73,1.58,1.74,6.63,1.32,15.14-1.82,3.23-1.19,7.94-5.18,8.64-5.91l.13.34.12-.33c.7.74,5.34,4.56,8.57,5.75,8.51,3.14,13.56,3.56,15.14,1.82,3.17-3.51,4.75-8.3,4.5-11.73Z" fill="#e0ba99"/><path d="m208.01,123s18.52-7.33,32.61-6.77c0,0-14.71,1.01-32.61,6.77Z" fill="#1e1c1a"/><path d="m230.07,124.11s-10.26-1.56-23.8.95c0,0,14.33-3.93,23.8-.95" fill="#1e1c1a"/><path d="m239.65,129.38s-13.07-3.59-30.67-3.12c0,0,18.72-1.95,30.67,3.12" fill="#1e1c1a"/><path d="m237.25,134.72s-12.61-5.06-30.15-6.59c0,0,18.81.19,30.15,6.59" fill="#1e1c1a"/><path d="m186.32,123s-18.52-7.33-32.61-6.77c0,0,14.71,1.01,32.61,6.77Z" fill="#1e1c1a"/><path d="m164.26,124.11s10.26-1.56,23.8.95c0,0-14.33-3.93-23.8-.95" fill="#1e1c1a"/><path d="m154.68,129.38s13.07-3.59,30.67-3.12c0,0-18.72-1.95-30.67,3.12" fill="#1e1c1a"/><path d="m195.14,121.68c-.1-.51-.3-1.31-.71-2.2.41,1.28.71,2.2.71,2.2Z" fill="#492a0b"/><path d="m195.14,121.68h0c.07.36.08.58.08.58l.6,7.91.13.49.13-.48.33-8.07s0-.07.02-.2c-.79.44-1.29-.22-1.29-.22Z" fill="#492a0b"/><path d="m205.13,111.26c-.45.2-.98.12-1.33-.22-1.65-1.58-3.99-2.97-7.41-.06l-.63-.04-.63.04c-3.41-2.91-5.76-1.52-7.41.06-.36.34-.88.42-1.33.22l-1.51-.67c0,.12.02.27.05.43.32,1.65,1.59,2.91,3.18,3.33,6.68,1.76,7.12,7.91,7.12,7.91l.6,7.91.13.49.13-.48.33-8.07s.33-6,7.01-7.76c1.59-.42,2.86-1.68,3.18-3.33.03-.16.05-.31.05-.43l-1.51.67Z" fill="#492a0b"/><path d="m202.5,111.83c1.1.09,1.75-.1,2.09-.47-.29,0-.57-.12-.79-.33-1.65-1.58-3.99-2.97-7.41-.06l-.63-.04-.63.04c-3.41-2.91-5.76-1.52-7.41.06-.15.14-.32.23-.51.28.44,1.14,4.38-.36,5.93,2.48.86,1.57.74,4.02,1.27,5.68.41.89.62,1.69.71,2.2h0s.5.66,1.29.22c.08-.63.44-2.66,2-4.53.34-2.77.57-5.85,4.07-5.54Z" fill="#593616"/><path d="m195.63,122.34s.07-6.45-.5-11.37c0,0,.64-.46,1.25,0,.25.18-.59,11.47-.31,12.03s-.44-.66-.44-.66Z" fill="#492a0b"/><path d="m190.02,138.29c-.05-.06-.09-.13-.14-.21.05.1.1.18.14.21Z" fill="none"/><polygon points="190.02 138.29 190.02 138.29 190.02 138.29 190.02 138.29" fill="#dedcdc"/><path d="m170.82,63.57s-12.81-.28-19.38,11.31c0,0,8.1-5,12.82-4.39,0,0-16.18,3.56-17.72,18.55,0,0,11.78-4.17,14.88-4.29,0,0,2.37-13.35,9.4-21.17Z" fill="#593421"/><path d="m221.97,63.58s12.38-.28,18.94,11.3c0,0-8.1-5-12.82-4.39,0,0,16.18,3.56,17.72,18.55,0,0-11.62-4.16-14.72-4.28,0,0-2.7-13.49-9.12-21.18Z" fill="#593421"/><path d="m190.25,156.79c-.06,0-.13-.01-.19-.02l.11.17.08-.15Z" fill="none"/><path d="m198.22,156.81h-.04s.01.04.01.04c0,0,.01-.02.03-.04Z" fill="none"/><polygon points="209.74 152.97 209.74 152.97 209.74 152.97 209.74 152.97" fill="none"/><polygon points="188.58 156.52 188.58 156.52 188.58 156.53 188.58 156.52" fill="none"/><polygon points="205.06 156.19 205.06 156.19 205.06 156.19 205.06 156.19" fill="none"/><polygon points="202.16 156.79 202.15 156.79 202.15 156.8 202.16 156.79" fill="none"/><path d="m186.87,155.97c-.06-.02-.11-.05-.16-.07.03.06.05.11.08.17l.09-.1Z" fill="none"/><path d="m209.74,152.97l-.76-.6-1.18,2.33s-.62-2.85-.59-1.69c.03,1.15-2.13,3.17-2.15,3.18" fill="#593421"/><path d="m194.51,58.71s-1.11-14.48-23.57-14.75c0,0,9.59,2.59,19.87,13.2,0,0-2.1-8.71-18.33-3.58,6.77-.01,12.42.51,16.79,4.54l2.09.32,3.15.26Z" fill="#4f291c"/><path d="m219.58,60.76s4.26-5.6,11.66-4.87c0,0-3.87-3.35-16.12,2.98,0,0,1.22-9.85,12.96-10.01,0,0-13.29-3-18.42,9.01,0,0-.14-6.69,0-9.35,0,0-3.92,5.47-3.64,9.35,0,0-.38-3.27-2.36-6.68-1.82-3.13-1.01.16-1.55,2.4-.72,2.96-2.46,5.66-2.66,4.76-.62-2.8-.33-15.91-3.1-16.37,0,0,1.37,12.59-5.89,16.32,0,0,.53-.1,3.45,1,.07.03.63.26,1.14.67.48.39.91.96.98.87.85-1.13,2.5-1.82,3.01-1.95,2.05-.54,8.94-2.95,20.09,2.1l.44-.24Z" fill="#4f291c"/><path d="m172.16,55.08s8.95-.1,13.52,2.95c0,0-4.26.41-4.73.48-.69.11.13-1.98-8.78-3.43Z" fill="#4f291c"/><path d="m176.17,59.62s-4.05-3.61-8.4-2.83c0,0,6.29,2.01,5.44,4.55,0,0,1.07-.91,2.96-1.73Z" fill="#4f291c"/><path d="m233.37,79.55s13.38,18.33,8.72,29.06c0,0,.17-12.44-8.72-29.06Z" fill="#4f291c"/><path d="m248.88,64.28s12.22,13.77,5.16,35.64c0,0,2.94-20.37-5.16-35.64Z" fill="#4f291c"/><path d="m240.62,81.43s12.45,6.21,9.61,17.88c0,0-3.85-13.24-9.61-17.88Z" fill="#4f291c"/><path d="m159.85,80.24s-13.38,18.33-8.72,29.06c0,0-.17-12.44,8.72-29.06Z" fill="#4f291c"/><path d="m142.81,66.14s-13.13,12.86-7.56,35.19c0,0-1.55-20.54,7.56-35.19Z" fill="#4f291c"/><path d="m152.6,82.13s-12.45,6.21-9.61,17.88c0,0,3.85-13.24,9.61-17.88Z" fill="#4f291c"/><path d="m230.55,32.36c0,9.22-17.44,17.55-35.75,17.55s-36.06-7.48-36.06-16.7,18.21-20.53,36.52-20.53,35.29,10.46,35.29,19.68Z" fill="#a0110a"/><path d="m231.37,43.43c-.32-2.8-1.52-14.5-.61-26.79h-2c-1.57,7.83-8.35,13.72-16.47,13.72-.2,0-.41,0-.61-.01-8.2-.3-15.03-7.8-16.42-17.67l-.6-4.31s-.7,5.2-1.23,8.27c-1.57,7.83-8.35,13.72-16.47,13.72s-14.89-5.89-16.47-13.72h-2.34s1.43,9.59,0,27.43c0,0,0,0,0,0,0,5.7,16.41,10.32,36.64,10.32s36.64-4.62,36.64-10.32c0-.21-.03-.43-.08-.64Z" fill="url(#linear-gradient-3)"/><path d="m158.16,45.93c0,4.67,16.41,8.46,36.64,8.46s36.64-3.79,36.64-8.46c0-.18-.03-.35-.08-.52-.03-.23-.07-.53-.12-.9-19.42,14.29-71.61,7.57-72.92-.51-.05.63-.11,1.27-.17,1.93,0,0,0,0,0,0Z" fill="#cf9934"/><path d="m195.21,19.87l.06.33c.03-.12,0-.23-.06-.33Z" fill="#dbb13c"/><path d="m212.35,32.36c-15.67.08-17.62-15.42-18.35-19.78l.06-.4c.13-.26.63-.53,1.09-.67.21,1.64.44,3.67.95,5.01,3.37,8.88,8.29,13.62,16.2,13.75,7.02.11,14.89-5.89,16.47-13.72h.95c-.24,2.26-2.28,15.74-17.36,15.82Z" fill="#cf9934"/><path d="m176.91,32.46c15.67.08,17.62-15.42,18.35-19.78l-.06-.4c-.13-.26-.44-.45-.9-.6-.21,1.64-.53,3.54-.88,4.96-2.29,9.41-9.14,13.33-16.47,13.72-7.02.37-14.89-5.89-16.47-13.72h-.95c.24,2.26,2.28,15.74,17.36,15.82Z" fill="#cf9934"/><circle cx="230.16" cy="12.8" r="4.73" fill="#cf9934"/><circle cx="229.72" cy="12.8" r="3.9" fill="url(#linear-gradient-4)"/><path d="m230.02,9.73s4.08,1.24,1.79,5.18c0,0,.88-3.04-1.79-5.18Z" fill="#e8c87a"/><circle cx="159.16" cy="12.8" r="4.73" fill="#cf9934"/><circle cx="159.69" cy="12.8" r="3.9" fill="url(#linear-gradient-5)"/><path d="m159.16,9.73s-4.08,1.24-1.79,5.18c0,0-.88-3.04,1.79-5.18Z" fill="#e8c87a"/><circle cx="194.66" cy="8.88" r="4.73" fill="url(#linear-gradient-6)"/><path d="m195.75,5.87s-3.71-2.09-4.99,2.28c0,0,1.59-2.74,4.99-2.28Z" fill="#e8c87a"/><polygon points="194.51 25.76 198.8 32.52 194.51 39.28 190.22 32.52 194.51 25.76" fill="#ca8e31"/><polygon points="191 32.52 194.51 26.99 198.02 32.52 194.51 38.05 191 32.52" fill="#79160d"/><polygon points="194.51 27.47 197.72 32.52 194.51 37.57 191.31 32.52 194.51 27.47" fill="#c2321d"/><path d="m160.63,39.28s27.73,13.24,67.32-.38c0,0-35.25,15.9-67.32.38Z" fill="#ddca9f" opacity=".43"/><path d="m161.65,33.21s12.04,8.04,27.31,1.38c0,0-13.64,4.5-27.31-1.38Z" fill="#edc35a"/><path d="m229,33.21s-12.04,8.04-27.31,1.38c0,0,13.64,4.5,27.31-1.38Z" fill="#edc35a"/><path d="m208.92,276.76c-.62.45-1.32.78-2.07.93-1.92.37-5.5.37-7.58-3.87-2.71-5.52-14.17-4.73-7.86,5.69.99,1.64,1.91,2.06,1.1,3.19-2.86,3.98-6.05,11.44,2.09,17.56,3.2,2.41,7.34,3.21,11.25,2.36,5.32-1.15,12.53-3.53,14.13-4.78,2.9-2.26-10.89-7.3-7.13-23.97l-3.94,2.89Z" fill="#f7dcc4"/><path d="m207.75,282.57s-10.62,6.9-17.44,3.97c0,0-.16.53-.48,1.63-.2.69,1.59,1.1,2.67,1.24,3.24.45,9.95-1.8,15.25-6.85Z" fill="#d4b38c"/><path d="m206.56,290.27s-12.48,7.54-17.02,2.55c0,0,.11.38.35,1.32.27,1.04.29,1.24.57,1.4,2.84,1.63,10.8-.22,16.1-5.26Z" fill="#d4b38c"/><path d="m208.75,295.42s-8.95,6.4-15.77,3.47c0,0,.35.48,1.19,1.29s1.41,1.12,2.48,1.27c3.24.45,6.8-.99,12.1-6.03Z" fill="#d4b38c"/><path d="m205.85,302.62c5.32-1.15,12.3-3.36,13.9-4.62,1.56-1.21.07-2.07-2.55-5.24-4.01,6.84-9.18,7.66-18.12,9.67,2.18.6,4.51.68,6.77.19Z" fill="#ca9d80" opacity=".22"/></g></svg>