<svg xmlns="http://www.w3.org/2000/svg" width="830.816" height="820.687" viewBox="0 0 623.1 615.52"><circle cx="312.51" cy="299.16" r="4.59" fill="#1d1d1b"/><path d="M321.38 271.59c0-4.9-3.97-8.87-8.87-8.87s-8.87 3.97-8.87 8.87c0 1.21.24 2.36.68 3.41h-.02l4.11 9.79 4.11 9.79 4.11-9.79 4.11-9.79h-.02c.44-1.05.68-2.2.68-3.41ZM301.58 272.34c-3.15-3.75-8.75-4.24-12.5-1.09s-4.24 8.75-1.09 12.5c.78.92 1.7 1.65 2.71 2.17h-.01l9.44 4.87 9.44 4.86-3.15-10.14-3.15-10.14h-.01a8.8 8.8 0 0 0-1.67-3.03ZM286.89 285.64c-4.83-.85-9.43 2.37-10.28 7.2a8.87 8.87 0 0 0 10.67 10.2v.02l10.35-2.34 10.35-2.34-8.93-5.74-8.93-5.74v.02a8.915 8.915 0 0 0-3.24-1.26ZM284.19 305.27c-4.24 2.45-5.7 7.88-3.25 12.12s7.88 5.7 12.12 3.25c1.05-.6 1.92-1.39 2.61-2.29v.02l6.43-8.45 6.43-8.45-10.53 1.34-10.53 1.34v.02a8.99 8.99 0 0 0-3.28 1.11ZM294.74 322.04c-1.68 4.6.7 9.7 5.3 11.37s9.7-.7 11.37-5.3c.41-1.13.58-2.3.53-3.43h.02l-.51-10.6-.51-10.6-7.21 7.8-7.21 7.8h.02c-.77.84-1.39 1.84-1.8 2.97ZM313.6 328.11c1.68 4.6 6.77 6.98 11.37 5.3s6.98-6.77 5.3-11.37a8.859 8.859 0 0 0-1.8-2.97h.02l-7.21-7.8-7.21-7.8-.51 10.6-.51 10.6h.02c-.05 1.13.11 2.29.53 3.43ZM331.95 320.64c4.24 2.45 9.67 1 12.12-3.25s1-9.67-3.25-12.12c-1.05-.6-2.16-.97-3.29-1.11v-.02l-10.52-1.34-10.53-1.34 6.43 8.45 6.43 8.45v-.02c.7.9 1.57 1.69 2.62 2.29ZM341.2 303.11a8.87 8.87 0 0 0 7.2-10.28 8.87 8.87 0 0 0-10.28-7.2c-1.19.21-2.28.65-3.24 1.26v-.02l-8.93 5.74-8.93 5.74 10.35 2.34 10.35 2.34v-.02c1.11.25 2.28.29 3.47.08ZM337.03 283.74c3.15-3.75 2.66-9.35-1.09-12.5-3.75-3.15-9.35-2.66-12.5 1.09-.78.92-1.33 1.96-1.67 3.05h-.01l-3.15 10.13-3.15 10.14 9.44-4.86 9.44-4.86h-.01a9.24 9.24 0 0 0 2.71-2.18Z" fill="none" stroke="#1d1d1b" stroke-miterlimit="10"/><path d="M295.74 269.21c-1.24-3.27.4-6.93 3.67-8.17s6.93.4 8.17 3.67M280.41 286.99c-3.06-1.71-4.15-5.57-2.44-8.62s5.57-4.15 8.62-2.44M280.1 310.47c-3.44.66-6.76-1.6-7.41-5.03a6.329 6.329 0 0 1 5.03-7.41M294.95 328.66a6.334 6.334 0 0 1-9.82-8M318.02 333.05c.05 3.5-2.74 6.38-6.24 6.43-3.5.05-6.38-2.74-6.43-6.24M338.51 321.58c2.29 2.65 2 6.65-.65 8.94-2.65 2.29-6.65 2-8.94-.65M346.83 299.62c3.45.56 5.8 3.81 5.25 7.26a6.347 6.347 0 0 1-7.26 5.25M339.1 277.45c3-1.79 6.89-.81 8.69 2.19 1.79 3 .81 6.89-2.19 8.69M318.92 265.44a6.333 6.333 0 0 1 8.07-3.9 6.333 6.333 0 0 1 3.9 8.07" fill="none" stroke="#1d1d1b" stroke-miterlimit="10"/><path d="M270.74 245.39c10.36-7.99 23.07-13.08 36.92-14.05M245.95 284.82a68.122 68.122 0 0 1 19.25-34.49M252.3 330.96a68.11 68.11 0 0 1-7.42-38.8M286.82 362.23c-12.1-4.98-22.86-13.44-30.63-24.95M333.37 363.98a68.041 68.041 0 0 1-39.5.57M370.15 335.41a68.144 68.144 0 0 1-29.89 25.83M379.96 289.88a68.155 68.155 0 0 1-6.29 39M358.21 248.69a68.087 68.087 0 0 1 20.25 33.92M315.07 231.12c13.07.54 26.08 4.81 37.31 12.97" fill="none" stroke="#1d1d1b" stroke-linecap="round" stroke-linejoin="round" stroke-width=".85"/><circle cx="312.74" cy="299.39" r="78.05" fill="none" stroke="#1d1d1b" stroke-linecap="round" stroke-linejoin="round" stroke-width=".85"/><path d="M278.16 278.97s-9.45-1.89-11.09-16.86c-1.64-14.97-4.63-20.72-4.63-20.72" fill="none" stroke="#1d1d1b" stroke-miterlimit="10"/><path d="M297.27 262.53s-.46-9.63-15.03-13.48c-14.56-3.85-19.8-7.66-19.8-7.66" fill="none" stroke="#1d1d1b" stroke-miterlimit="10"/><path fill="#1d1d1b" d="m262.49 241.44.4-.35-.84-.56-.84-.57.44.91.44.91.4-.34z"/><path d="M273.22 305.77s-8.46 4.63-19.34-5.79c-10.88-10.42-16.86-12.9-16.86-12.9" fill="none" stroke="#1d1d1b" stroke-miterlimit="10"/><path d="M277.28 280.9s-6.54-7.08-20.17-.67c-13.63 6.41-20.09 6.86-20.09 6.86" fill="none" stroke="#1d1d1b" stroke-miterlimit="10"/><path fill="#1d1d1b" d="m237.08 287.1.09-.53-1.01.11-1 .1.92.42.92.42.08-.52z"/><path d="M286.66 329.48s-3.5 8.98-18.53 8-21.21.96-21.21.96M273.78 307.81s-9.56-1.22-15.88 12.46c-6.32 13.67-10.98 18.17-10.98 18.17" fill="none" stroke="#1d1d1b" stroke-miterlimit="10"/><path fill="#1d1d1b" d="m246.97 338.4-.27-.45-.7.72-.71.73.98-.27.97-.27-.27-.46z"/><path d="M312.19 339s3.09 9.13-9.06 18.04c-12.15 8.91-15.63 14.37-15.63 14.37" fill="none" stroke="#1d1d1b" stroke-miterlimit="10"/><path d="M288.4 330.68s-8.11 5.22-4.16 19.75 3.27 20.97 3.27 20.97" fill="none" stroke="#1d1d1b" stroke-miterlimit="10"/><path fill="#1d1d1b" d="m287.52 371.35-.5-.18-.07 1.01-.07 1.01.57-.83.57-.84-.5-.17z"/><path d="M337.87 329.89s8.24 5.01 4.66 19.64-2.74 21.05-2.74 21.05" fill="none" stroke="#1d1d1b" stroke-miterlimit="10"/><path d="M314.3 338.81s-2.86 9.21 9.51 17.8c12.37 8.6 15.99 13.97 15.99 13.97" fill="none" stroke="#1d1d1b" stroke-miterlimit="10"/><path fill="#1d1d1b" d="m339.77 370.52-.5.19.6.82.59.81-.1-1-.1-1.01-.49.19z"/><path d="M351.69 306.39s9.53-1.46 16.19 12.05c6.66 13.51 11.43 17.88 11.43 17.88M339.36 328.38s3.73 8.89 18.73 7.53c15-1.36 21.22.42 21.22.42" fill="none" stroke="#1d1d1b" stroke-miterlimit="10"/><path fill="#1d1d1b" d="m379.26 336.3-.26.46.98.25.98.25-.72-.71-.73-.71-.25.46z"/><path d="M347.17 279.52s6.36-7.24 20.15-1.18c13.79 6.07 20.26 6.35 20.26 6.35M351.86 304.28s8.57 4.41 19.18-6.27c10.61-10.69 16.53-13.32 16.53-13.32" fill="none" stroke="#1d1d1b" stroke-miterlimit="10"/><path fill="#1d1d1b" d="m387.51 284.71.1.52.91-.44.91-.44-1.01-.08-1.01-.08.1.52z"/><path d="M326.43 261.84s.22-9.64 14.68-13.85c14.46-4.22 19.6-8.15 19.6-8.15" fill="none" stroke="#1d1d1b" stroke-miterlimit="10"/><path d="M345.94 277.79s9.4-2.13 10.66-17.14c1.26-15.01 4.1-20.83 4.1-20.83" fill="none" stroke="#1d1d1b" stroke-miterlimit="10"/><path fill="#1d1d1b" d="m360.67 239.88.41.33.41-.92.42-.92-.82.59-.83.59.41.33z"/><path d="M299.18 261.62s-6.03-7.52 2.34-20.05c8.37-12.52 9.77-18.84 9.77-18.84M324.38 261.3s5.83-7.67-2.85-19.98-10.24-18.59-10.24-18.59" fill="none" stroke="#1d1d1b" stroke-miterlimit="10"/><path fill="#1d1d1b" d="m311.3 222.79.53-.01-.28-.97-.28-.97-.25.98-.25.98.53-.01z"/><path d="M289.83 202.21s-10.53-11.08 4.09-29.54c14.62-18.45 17.07-27.76 17.07-27.76M333.87 201.74s10.19-11.3-4.97-29.44c-15.17-18.13-17.9-27.39-17.9-27.39" fill="none" stroke="#1d1d1b" stroke-miterlimit="10"/><path fill="#1d1d1b" d="m310.99 145 .56-.01-.3-1.43-.3-1.43-.25 1.44-.26 1.44.55-.01z"/><path d="M344.21 103.48s-12.8-28.52 28.22-54.07c41.01-25.55 52.16-41.8 52.16-41.8M429.89 132.62s27.52-14.81 10.58-60.07c-16.95-45.26-15.88-64.94-15.88-64.94" fill="none" stroke="#1d1d1b" stroke-miterlimit="10"/><path fill="#1d1d1b" d="m424.56 7.71.5.17.42-2.05.42-2.05-.93 1.88-.92 1.88.51.17z"/><path d="M211.01 128.89s-28.14-13.62-13.14-59.56c15-45.94 13.09-65.55 13.09-65.55" fill="none" stroke="#1d1d1b" stroke-miterlimit="10"/><path d="M295.37 96.13s11.57-29.04-30.51-52.81c-42.07-23.78-53.9-39.54-53.9-39.54" fill="none" stroke="#1d1d1b" stroke-miterlimit="10"/><path fill="#1d1d1b" d="m211 3.87.49-.19-1-1.84L209.5 0l.5 2.03.5 2.03.5-.19z"/><path d="M218.5 129.23s-25.46-12.91-12.63-52.22 11.2-56.1 11.2-56.1M289.67 98.85s9.54-23.74-26.46-44.09c-36.01-20.35-46.13-33.84-46.13-33.84" fill="none" stroke="#1d1d1b" stroke-miterlimit="10"/><path fill="#1d1d1b" d="m217.11 21 .42-.16-.85-1.58-.86-1.57.43 1.74.43 1.74.43-.17z"/><path d="M131.26 229.42s-27.8 6.48-43.24-31.88c-15.44-38.36-27.48-50.17-27.48-50.17M166.25 160.4s-7.95-24.32-48.61-16.76c-40.66 7.56-57.09 3.73-57.09 3.73" fill="none" stroke="#1d1d1b" stroke-miterlimit="10"/><path fill="#1d1d1b" d="m60.63 147.4.22-.39-1.67-.66-1.67-.66 1.45 1.06 1.45 1.05.22-.4z"/><path d="M128.83 362.24s-17.13 22.83-53.62 3.37c-36.48-19.46-53.3-20.77-53.3-20.77M111.27 286.87s-21.72-13.52-48.02 18.4c-26.29 31.92-41.33 39.55-41.33 39.55" fill="none" stroke="#1d1d1b" stroke-miterlimit="10"/><path fill="#1d1d1b" d="m22.01 344.81-.09-.44-1.7.57-1.7.56 1.79-.12 1.78-.12-.08-.45z"/><path d="M212.35 465.54s1.55 28.5-38.91 37.04c-40.46 8.54-54.18 18.35-54.18 18.35M150.45 419.1s-25.33 3.61-24.95 44.96c.38 41.36-6.24 56.87-6.24 56.87" fill="none" stroke="#1d1d1b" stroke-miterlimit="10"/><path fill="#1d1d1b" d="m119.31 520.86-.35-.28-.94 1.53-.93 1.52 1.29-1.24 1.29-1.24-.36-.29z"/><path d="M342.73 491s19.51 20.84-5.99 53.39-29.71 48.88-29.71 48.88M265.46 495.21s-17.09 19.05 9.79 50.48c26.87 31.44 31.78 47.57 31.78 47.57" fill="none" stroke="#1d1d1b" stroke-miterlimit="10"/><path fill="#1d1d1b" d="m307.02 593.18-.46.01.27 1.77.26 1.77.19-1.78.19-1.78-.45.01z"/><path d="M458.97 426.69s28.34 3.42 29.72 44.75c1.39 41.33 8.66 56.54 8.66 56.54M402.48 479.59s-.85 25.57 39.95 32.38c40.79 6.81 54.92 16.02 54.92 16.02" fill="none" stroke="#1d1d1b" stroke-miterlimit="10"/><path fill="#1d1d1b" d="m497.29 527.92-.34.3 1.34 1.19 1.34 1.19-1-1.49-1-1.49-.34.3z"/><path d="M506.68 302.72s23.91-15.6 51.53 15.17c27.63 30.77 42.98 37.75 42.98 37.75" fill="none" stroke="#1d1d1b" stroke-miterlimit="10"/><path d="M497.41 379.54s15.79 20.13 51.41-.87c35.62-21.01 52.37-23.03 52.37-23.03" fill="none" stroke="#1d1d1b" stroke-miterlimit="10"/><path fill="#1d1d1b" d="m601.1 355.63-.07.44 1.79.05 1.8.05-1.73-.5-1.72-.49-.07.45z"/><path d="M463.53 177.08s8.29-27.31 49.23-21.5c40.94 5.81 57.19 1.29 57.19 1.29" fill="none" stroke="#1d1d1b" stroke-miterlimit="10"/><path d="M505.81 241.89s25.04 5.27 38.82-33.72c13.79-38.99 25.31-51.31 25.31-51.31" fill="none" stroke="#1d1d1b" stroke-miterlimit="10"/><path fill="#1d1d1b" d="m569.88 156.91.23.39 1.4-1.11 1.41-1.12-1.64.73-1.64.72.24.39z"/><path d="M349.72 108.56s-11.21-26.25 23.89-48.12c35.1-21.86 44.64-35.77 44.64-35.77M423.77 131.03s22.57-12.05 8.07-50.78c-14.5-38.73-13.59-55.57-13.59-55.57" fill="none" stroke="#1d1d1b" stroke-miterlimit="10"/><path fill="#1d1d1b" d="m418.22 24.76.43.15.36-1.76.36-1.76-.79 1.61-.78 1.61.42.15z"/><path d="M125.3 233.97s-30.31 7.65-48.35-37.18c-18.04-44.83-32.11-58.63-32.11-58.63" fill="none" stroke="#1d1d1b" stroke-miterlimit="10"/><path d="M168.87 154.65s-9.81-29.68-57.32-20.85c-47.51 8.83-66.71 4.36-66.71 4.36" fill="none" stroke="#1d1d1b" stroke-miterlimit="10"/><path fill="#1d1d1b" d="m44.94 138.21.25-.47-1.95-.76-1.94-.77 1.69 1.23 1.69 1.23.26-.46z"/><path d="M127.19 369.55s-18.3 25.34-60.94 2.6c-42.63-22.74-62.28-24.27-62.28-24.27M109.58 280.78s-26.59-16.43-57.31 20.87c-30.72 37.31-48.3 46.22-48.3 46.22" fill="none" stroke="#1d1d1b" stroke-miterlimit="10"/><path fill="#1d1d1b" d="m4.08 347.86-.11-.52-1.98.66-1.99.66 2.09-.14 2.09-.14-.1-.52z"/><path d="M215.79 472.21s2.27 31.18-45.01 41.16c-47.28 9.98-63.31 21.44-63.31 21.44M145.24 415.52s-30.93 4.5-30.48 52.83c.44 48.33-7.29 66.45-7.29 66.45" fill="none" stroke="#1d1d1b" stroke-miterlimit="10"/><path fill="#1d1d1b" d="m107.53 534.72-.41-.33-1.1 1.78-1.09 1.79 1.51-1.45 1.51-1.46-.42-.33z"/><path d="M349.65 493.89s21.78 22.42-8.02 60.46-34.72 57.12-34.72 57.12M259.17 495.81s-20.8 23.33 10.6 60.06c31.4 36.73 37.13 55.59 37.13 55.59" fill="none" stroke="#1d1d1b" stroke-miterlimit="10"/><path fill="#1d1d1b" d="m306.9 611.37-.53.01.31 2.07.31 2.07.22-2.08.22-2.08-.53.01z"/><path d="M466.13 424.46s31.1 3.18 32.72 51.47c1.62 48.29 10.12 66.07 10.12 66.07M398.05 484.09s-.94 31.24 46.73 39.2c47.67 7.95 64.18 18.72 64.18 18.72" fill="none" stroke="#1d1d1b" stroke-miterlimit="10"/><path fill="#1d1d1b" d="m508.89 541.93-.4.35 1.57 1.39 1.57 1.39-1.17-1.74-1.17-1.74-.4.35z"/><path d="M510.72 296.4s25.87-17.55 58.15 18.4 50.22 44.11 50.22 44.11M496.91 385.84s19.36 24.53 60.99-.01c41.63-24.55 61.2-26.91 61.2-26.91" fill="none" stroke="#1d1d1b" stroke-miterlimit="10"/><path fill="#1d1d1b" d="m618.99 358.9-.08.52 2.09.06 2.1.06-2.01-.58-2.02-.58-.08.52z"/><path d="M462.57 169.64s8.53-30.07 56.37-23.28c47.84 6.79 66.83 1.51 66.83 1.51" fill="none" stroke="#1d1d1b" stroke-miterlimit="10"/><path d="M509.48 247.03s30.6 6.35 46.71-39.22c16.11-45.56 29.58-59.95 29.58-59.95" fill="none" stroke="#1d1d1b" stroke-miterlimit="10"/><path fill="#1d1d1b" d="m585.69 147.92.27.45 1.64-1.3 1.64-1.3-1.91.85-1.92.85.28.45z"/><path d="M298.36 200.3s-6.49-6.83 2.52-18.2 10.52-17.11 10.52-17.11" fill="none" stroke="#1d1d1b" stroke-miterlimit="10"/><path d="M325.49 200.01s6.28-6.97-3.07-18.14c-9.35-11.17-11.03-16.88-11.03-16.88" fill="none" stroke="#1d1d1b" stroke-miterlimit="10"/><path fill="#1d1d1b" d="M311.4 165.05h.56l-.29-.88-.3-.89-.27.89-.27.89.57-.01z"/><path d="M242.95 227.5s-9.26-1.71-8.66-16.2c.61-14.49-1.54-20.02-1.54-20.02M264.73 211.32s.99-9.33-13.14-12.87c-14.13-3.55-18.84-7.17-18.84-7.17" fill="none" stroke="#1d1d1b" stroke-miterlimit="10"/><path fill="#1d1d1b" d="m232.78 191.32.46-.34-.76-.54-.76-.54.3.88.3.88.46-.34z"/><path d="M214.11 282.07s-8.5 4.06-16.53-8.02c-8.03-12.08-13.02-15.29-13.02-15.29M222.22 256.18s-4.68-8.13-18.2-2.69c-13.51 5.44-19.46 5.27-19.46 5.27" fill="none" stroke="#1d1d1b" stroke-miterlimit="10"/><path fill="#1d1d1b" d="m184.62 258.78.17-.54-.93.01-.94.01.77.53.76.53.17-.54z"/><path d="M222.86 343.17s-4.49 8.28-18.09 3.23c-13.6-5.05-19.52-4.72-19.52-4.72" fill="none" stroke="#1d1d1b" stroke-miterlimit="10"/><path d="M214.2 317.46s-8.57-3.82-16.3 8.52c-7.74 12.34-12.64 15.7-12.64 15.7" fill="none" stroke="#1d1d1b" stroke-miterlimit="10"/><path fill="#1d1d1b" d="m185.3 341.66-.18-.53-.74.55-.75.56.93-.02.92-.02-.18-.54z"/><path d="M265.84 387.47s1.23 9.34-12.74 13.24c-13.97 3.9-18.56 7.66-18.56 7.66M243.72 371.75s-9.18 1.94-8.18 16.48c.99 14.53-1 20.14-1 20.14" fill="none" stroke="#1d1d1b" stroke-miterlimit="10"/><path fill="#1d1d1b" d="m234.58 408.32-.46-.33-.28.89-.28.88.74-.56.74-.55-.46-.33z"/><path d="M326.66 398.03s6.49 6.83-2.52 18.2-10.52 17.11-10.52 17.11" fill="none" stroke="#1d1d1b" stroke-miterlimit="10"/><path d="M299.53 398.32s-6.28 6.97 3.07 18.14c9.35 11.17 11.03 16.88 11.03 16.88" fill="none" stroke="#1d1d1b" stroke-miterlimit="10"/><path fill="#1d1d1b" d="M313.62 433.28h-.57l.3.88.3.89.27-.89.27-.89-.57.01z"/><path d="M382.07 370.83s9.26 1.71 8.66 16.2c-.61 14.49 1.54 20.02 1.54 20.02M360.29 387.01s-.99 9.33 13.14 12.87c14.13 3.55 18.84 7.17 18.84 7.17" fill="none" stroke="#1d1d1b" stroke-miterlimit="10"/><path fill="#1d1d1b" d="m392.24 407.01-.46.34.76.54.76.54-.31-.88-.3-.88-.45.34z"/><path d="M410.91 316.26s8.5-4.06 16.53 8.02c8.03 12.08 13.02 15.29 13.02 15.29M402.8 342.15s4.68 8.13 18.2 2.69c13.51-5.44 19.46-5.27 19.46-5.27" fill="none" stroke="#1d1d1b" stroke-miterlimit="10"/><path fill="#1d1d1b" d="m440.4 339.55-.17.54.93-.01.93-.01-.76-.53-.76-.53-.17.54z"/><path d="M402.16 255.16s4.49-8.28 18.09-3.23c13.6 5.05 19.52 4.72 19.52 4.72" fill="none" stroke="#1d1d1b" stroke-miterlimit="10"/><path d="M410.82 280.87s8.57 3.82 16.3-8.52c7.74-12.34 12.64-15.7 12.64-15.7" fill="none" stroke="#1d1d1b" stroke-miterlimit="10"/><path fill="#1d1d1b" d="m439.71 256.67.18.53.75-.55.75-.56-.93.02-.93.02.18.54z"/><path d="M359.17 210.86s-1.23-9.34 12.74-13.24c13.97-3.9 18.56-7.66 18.56-7.66M381.29 226.58s9.18-1.94 8.18-16.48c-.99-14.53 1-20.14 1-20.14" fill="none" stroke="#1d1d1b" stroke-miterlimit="10"/><path fill="#1d1d1b" d="m390.44 190.01.46.33.28-.89.28-.88-.74.55-.75.56.47.33z"/><path d="M237.17 234.05s-15.03-2.78-14.05-26.3c.98-23.52-2.51-32.5-2.51-32.5" fill="none" stroke="#1d1d1b" stroke-miterlimit="10"/><path d="M272.52 207.79s1.6-15.14-21.33-20.89c-22.93-5.76-30.58-11.64-30.58-11.64" fill="none" stroke="#1d1d1b" stroke-miterlimit="10"/><path fill="#1d1d1b" d="m220.67 175.33.44-.33-1.08-.98-1.08-.99.63 1.32.64 1.31.45-.33z"/><path d="M213.29 290.77s-13.8 6.59-26.83-13.02c-13.03-19.61-21.13-24.82-21.13-24.82" fill="none" stroke="#1d1d1b" stroke-miterlimit="10"/><path d="M226.45 248.75s-7.6-13.19-29.54-4.37c-21.93 8.82-31.58 8.56-31.58 8.56" fill="none" stroke="#1d1d1b" stroke-miterlimit="10"/><path fill="#1d1d1b" d="m165.42 252.97.17-.53-1.46-.16-1.46-.16 1.29.69 1.29.68.17-.52z"/><path d="M227.3 350.69s-7.29 13.44-29.35 5.24c-22.07-8.2-31.68-7.66-31.68-7.66" fill="none" stroke="#1d1d1b" stroke-miterlimit="10"/><path d="M213.25 308.96s-13.9-6.2-26.46 13.83-20.52 25.49-20.52 25.49" fill="none" stroke="#1d1d1b" stroke-miterlimit="10"/><path fill="#1d1d1b" d="m166.36 348.24-.18-.52-1.27.72-1.27.73 1.44-.2 1.45-.2-.17-.53z"/><path d="M273.86 390.94s2 15.16-20.67 21.49c-22.67 6.33-30.13 12.43-30.13 12.43M237.96 365.43s-14.89 3.15-13.28 26.74c1.61 23.59-1.62 32.68-1.62 32.68" fill="none" stroke="#1d1d1b" stroke-miterlimit="10"/><path fill="#1d1d1b" d="m223.12 424.78-.46-.33-.6 1.34-.6 1.34 1.05-1.02 1.06-1.01-.45-.32z"/><path d="M335.19 396.12s10.53 11.08-4.09 29.54c-14.62 18.45-17.07 27.76-17.07 27.76M291.15 396.59s-10.19 11.3 4.97 29.44c15.17 18.13 17.9 27.39 17.9 27.39" fill="none" stroke="#1d1d1b" stroke-miterlimit="10"/><path fill="#1d1d1b" d="M314.02 453.33h-.55l.29 1.44.3 1.43.26-1.44.26-1.44-.56.01z"/><path d="M387.85 364.28s15.03 2.78 14.05 26.3c-.98 23.52 2.51 32.5 2.51 32.5" fill="none" stroke="#1d1d1b" stroke-miterlimit="10"/><path d="M352.5 390.54s-1.6 15.14 21.33 20.89c22.93 5.76 30.58 11.64 30.58 11.64" fill="none" stroke="#1d1d1b" stroke-miterlimit="10"/><path fill="#1d1d1b" d="m404.35 423-.45.33 1.09.98 1.08.99-.64-1.32-.64-1.31-.44.33z"/><path d="M411.73 307.56s13.8-6.59 26.83 13.02c13.03 19.61 21.13 24.82 21.13 24.82" fill="none" stroke="#1d1d1b" stroke-miterlimit="10"/><path d="M398.57 349.58s7.6 13.19 29.54 4.37c21.93-8.82 31.58-8.56 31.58-8.56" fill="none" stroke="#1d1d1b" stroke-miterlimit="10"/><path fill="#1d1d1b" d="m459.6 345.36-.17.53 1.45.16 1.46.16-1.29-.69-1.29-.69-.16.53z"/><path d="M397.71 247.64s7.29-13.44 29.35-5.24c22.07 8.2 31.68 7.66 31.68 7.66" fill="none" stroke="#1d1d1b" stroke-miterlimit="10"/><path d="M411.77 289.37s13.9 6.2 26.46-13.83 20.52-25.49 20.52-25.49" fill="none" stroke="#1d1d1b" stroke-miterlimit="10"/><path fill="#1d1d1b" d="m458.66 250.09.18.52 1.27-.72 1.27-.73-1.45.2-1.45.2.18.53z"/><path d="M351.15 207.39s-2-15.16 20.67-21.49c22.67-6.33 30.13-12.43 30.13-12.43M387.05 232.9s14.89-3.15 13.28-26.74c-1.61-23.59 1.62-32.68 1.62-32.68" fill="none" stroke="#1d1d1b" stroke-miterlimit="10"/><path fill="#1d1d1b" d="m401.9 173.55.45.32.6-1.33.6-1.34-1.05 1.02-1.05 1.01.45.32z"/><path d="M251.95 278.97s6.49-15.82 12.09-21.3c0 0-2.14 11.64 3.58 16.24 0 0-9.67-.78-15.68 5.07ZM252.84 322.73s-5.19-16.29-4.43-24.09c0 0 5.84 10.29 13.18 10.13 0 0-7.91 5.62-8.75 13.96ZM281.65 355.68s-14.45-9.14-18.88-15.61c0 0 11.09 4.12 16.61-.71 0 0-2.45 9.39 2.27 16.32ZM324.9 362.4s-16.95 2.28-24.5.18c0 0 11.15-3.97 12.27-11.22 0 0 4.16 8.77 12.23 11.04ZM362.35 339.74s-11.51 12.64-18.65 15.88c0 0 5.99-10.21 2.19-16.48 0 0 8.82 4.04 16.46.6ZM376.48 298.32s-.69 17.08-4.08 24.16c0 0-1.97-11.67-8.92-14.03 0 0 9.36-2.57 13-10.12ZM360.67 257.5s10.45 13.53 12.4 21.12c0 0-9.01-7.67-15.85-5.02 0 0 5.51-7.99 3.45-16.11ZM322.33 236.4s16.7 3.65 23.08 8.21c0 0-11.83-.08-15.37 6.35 0 0-.91-9.66-7.71-14.56ZM279.39 244.88s15.14-7.94 22.96-8.55c0 0-9.12 7.54-7.69 14.74 0 0-6.91-6.82-15.27-6.19Z" fill="none" stroke="#1d1d1b" stroke-linecap="round" stroke-linejoin="round" stroke-width=".85"/><circle cx="312.51" cy="299.62" r="89.56" fill="none" stroke="#1d1d1b" stroke-linecap="round" stroke-linejoin="round" stroke-width=".85"/><path fill="none" stroke="#1d1d1b" stroke-linecap="round" stroke-linejoin="round" stroke-width=".85" d="M311.29 210.08v10.76M305.7 210.33l.68 10.74M300.14 210.93l1.34 10.68M294.62 211.89l2.02 10.56M289.17 213.18l2.68 10.42M283.82 214.82l3.33 10.23M278.58 216.78l3.96 10.01M273.48 219.08l4.58 9.73M268.52 221.68l5.19 9.43M263.75 224.6l5.76 9.08M259.16 227.81l6.33 8.7M254.79 231.3l6.85 8.29M250.64 235.06l7.36 7.84M246.73 239.07l7.85 7.36M243.09 243.32l8.29 6.86M239.72 247.79l8.71 6.32M236.64 252.46l9.08 5.76M233.86 257.31l9.42 5.19M231.38 262.33l9.74 4.59M229.23 267.5l10 3.96M227.41 272.79l10.23 3.33M225.92 278.19l10.42 2.67M224.77 283.67l10.57 2.01M223.97 289.21l10.68 1.35M223.52 294.79l10.74.67M223.42 300.38h10.76M223.67 305.97l10.74-.67M224.28 311.54l10.67-1.35M225.23 317.05l10.57-2.01M226.52 322.5l10.43-2.68M228.16 327.85l10.23-3.32M230.13 333.09l10-3.96M232.42 338.2l9.73-4.59M235.03 343.15l9.43-5.19M237.94 347.93l9.09-5.77M241.15 352.51l8.71-6.32M244.64 356.89l8.29-6.86M248.4 361.03l7.84-7.36M252.41 364.94l7.37-7.85M256.66 368.58l6.86-8.29M261.13 371.95l6.32-8.7M265.8 375.03l5.77-9.08M270.66 377.82l5.18-9.43M275.68 380.29l4.58-9.74M280.84 382.44l3.97-10M286.14 384.27l3.32-10.24M291.53 385.75l2.68-10.42M297.01 386.9l2.02-10.57M302.55 387.7l1.35-10.68M308.13 388.15l.67-10.74M313.72 388.25v-10.76M319.32 388l-.68-10.74M324.88 387.4l-1.35-10.68M330.4 386.44l-2.02-10.57M335.84 385.15l-2.68-10.42M341.19 383.51l-3.32-10.23M346.43 381.55l-3.96-10.01M351.54 379.25l-4.58-9.73M356.49 376.64l-5.18-9.42M361.27 373.73l-5.77-9.08M365.86 370.52l-6.33-8.7M370.23 367.03l-6.86-8.29M374.38 363.27l-7.37-7.84M378.28 359.26l-7.84-7.36M381.92 355.01l-8.29-6.86M385.29 350.54l-8.7-6.32M388.38 345.87l-9.09-5.76M391.16 341.02l-9.43-5.19M393.63 335.99l-9.73-4.58M395.79 330.83l-10.01-3.96M397.61 325.54l-10.23-3.33M399.1 320.14l-10.43-2.67M400.24 314.66l-10.57-2.01M401.04 309.12l-10.67-1.35M401.49 303.54l-10.74-.67M401.59 297.95h-10.76M401.34 292.36l-10.74.67M400.74 286.79l-10.68 1.35M399.79 281.28l-10.57 2.01M398.49 275.83l-10.42 2.68M396.86 270.48l-10.24 3.32M394.89 265.24l-10.01 3.96M392.6 260.13l-9.74 4.58M389.99 255.18l-9.43 5.19M387.07 250.4l-9.08 5.77M383.86 245.82l-8.7 6.32M380.37 241.44l-8.29 6.86M376.62 237.29l-7.85 7.37M372.6 233.39l-7.36 7.85M368.36 229.75l-6.86 8.29M363.89 226.38l-6.33 8.7M359.21 223.3l-5.76 9.08M354.36 220.51l-5.18 9.43M349.34 218.04l-4.58 9.74M344.17 215.89l-3.96 10M338.88 214.06l-3.33 10.24M333.48 212.58 330.81 223M328.01 211.43 325.99 222M322.47 210.63l-1.35 10.67M316.89 210.18l-.68 10.74"/><circle cx="312.51" cy="299.16" r="99.66" fill="none" stroke="#1d1d1b" stroke-linecap="round" stroke-linejoin="round" stroke-width=".85"/><circle cx="398.41" cy="236.04" r="4.81" fill="none" stroke="#1d1d1b" stroke-miterlimit="10"/><circle cx="344.9" cy="197.6" r="4.81" fill="none" stroke="#1d1d1b" stroke-miterlimit="10"/><circle cx="279.02" cy="197.96" r="4.81" fill="none" stroke="#1d1d1b" stroke-miterlimit="10"/><circle cx="214.85" cy="168.39" r="3.4" fill="none" stroke="#1d1d1b" stroke-miterlimit="10"/><circle cx="156.63" cy="250.77" r="3.4" fill="none" stroke="#1d1d1b" stroke-miterlimit="10"/><circle cx="157.96" cy="351.64" r="3.4" fill="none" stroke="#1d1d1b" stroke-miterlimit="10"/><circle cx="218.32" cy="432.46" r="3.4" fill="none" stroke="#1d1d1b" stroke-miterlimit="10"/><circle cx="314.65" cy="462.36" r="3.4" fill="none" stroke="#1d1d1b" stroke-miterlimit="10"/><circle cx="410.17" cy="429.94" r="3.4" fill="none" stroke="#1d1d1b" stroke-miterlimit="10"/><circle cx="468.38" cy="347.56" r="3.4" fill="none" stroke="#1d1d1b" stroke-miterlimit="10"/><circle cx="467.06" cy="246.69" r="3.4" fill="none" stroke="#1d1d1b" stroke-miterlimit="10"/><circle cx="406.7" cy="165.87" r="3.4" fill="none" stroke="#1d1d1b" stroke-miterlimit="10"/><circle cx="311.36" cy="135.96" r="3.4" fill="none" stroke="#1d1d1b" stroke-miterlimit="10"/><circle cx="205.9" cy="299.74" r="4.81" fill="none" stroke="#1d1d1b" stroke-miterlimit="10"/><circle cx="226.6" cy="362.29" r="4.81" fill="none" stroke="#1d1d1b" stroke-miterlimit="10"/><circle cx="280.11" cy="400.73" r="4.81" fill="none" stroke="#1d1d1b" stroke-miterlimit="10"/><circle cx="346" cy="400.37" r="4.81" fill="none" stroke="#1d1d1b" stroke-miterlimit="10"/><circle cx="399.09" cy="361.36" r="4.81" fill="none" stroke="#1d1d1b" stroke-miterlimit="10"/><circle cx="419.11" cy="298.59" r="4.81" fill="none" stroke="#1d1d1b" stroke-miterlimit="10"/><circle cx="268.99" cy="169.77" r="21.76" fill="none" stroke="#1d1d1b" stroke-miterlimit="10"/><circle cx="201.25" cy="220.06" r="21.76" fill="none" stroke="#1d1d1b" stroke-miterlimit="10"/><circle cx="176" cy="300.56" r="21.76" fill="none" stroke="#1d1d1b" stroke-miterlimit="10"/><circle cx="202.89" cy="380.54" r="21.76" fill="none" stroke="#1d1d1b" stroke-miterlimit="10"/><circle cx="271.66" cy="429.43" r="21.76" fill="none" stroke="#1d1d1b" stroke-miterlimit="10"/><circle cx="356.02" cy="428.56" r="21.76" fill="none" stroke="#1d1d1b" stroke-miterlimit="10"/><circle cx="423.77" cy="378.27" r="21.76" fill="none" stroke="#1d1d1b" stroke-miterlimit="10"/><circle cx="449.02" cy="297.76" r="21.76" fill="none" stroke="#1d1d1b" stroke-miterlimit="10"/><circle cx="422.12" cy="217.79" r="21.76" fill="none" stroke="#1d1d1b" stroke-miterlimit="10"/><circle cx="353.36" cy="168.9" r="21.76" fill="none" stroke="#1d1d1b" stroke-miterlimit="10"/><circle cx="268.99" cy="169.77" r="17.17" fill="none" stroke="#1d1d1b" stroke-miterlimit="10"/><circle cx="201.25" cy="220.06" r="17.17" fill="none" stroke="#1d1d1b" stroke-miterlimit="10"/><circle cx="176" cy="300.56" r="17.17" fill="none" stroke="#1d1d1b" stroke-miterlimit="10"/><circle cx="202.89" cy="380.54" r="17.17" fill="none" stroke="#1d1d1b" stroke-miterlimit="10"/><circle cx="271.66" cy="429.43" r="17.17" fill="none" stroke="#1d1d1b" stroke-miterlimit="10"/><circle cx="356.02" cy="428.56" r="17.17" fill="none" stroke="#1d1d1b" stroke-miterlimit="10"/><circle cx="423.77" cy="378.27" r="17.17" fill="none" stroke="#1d1d1b" stroke-miterlimit="10"/><circle cx="449.02" cy="297.76" r="17.17" fill="none" stroke="#1d1d1b" stroke-miterlimit="10"/><circle cx="422.12" cy="217.79" r="17.17" fill="none" stroke="#1d1d1b" stroke-miterlimit="10"/><circle cx="353.36" cy="168.9" r="17.17" fill="none" stroke="#1d1d1b" stroke-miterlimit="10"/><path d="M158.04 247.68c10.24-30.73 29.39-57.38 54.38-76.9M157.28 348.31c-9.78-30.88-9.95-63.7-1.2-94.18M215.81 430.16c-26.06-19.23-45.49-45.68-56.33-75.49M311.27 461.98c-32.39-.24-63.66-10.22-89.94-27.96M407.21 431.61c-26.34 18.84-57.5 29.15-89.2 30.24M466.98 350.65c-10.24 30.73-29.39 57.38-54.38 76.9M467.74 250.02c9.78 30.88 9.95 63.7 1.2 94.18M409.21 168.17c26.06 19.23 45.49 45.68 56.33 75.49M314.77 136.35c32.39.24 62.63 10.22 88.92 27.96M217.8 166.72c26.34-18.84 58.07-29.15 89.77-30.24" fill="none" stroke="#1d1d1b" stroke-miterlimit="10"/><path d="M194.43 194.91s9.91-14.78 21.77-19.25c0 0 2.84 17.47 2.74 24.54 0 0-11-11.01-24.52-5.29ZM155.7 284.23s-.66-17.78 6.3-28.37c0 0 12.56 12.46 16.64 18.24 0 0-15.37-2.44-22.94 10.13ZM176.87 379.25s-10.99-13.99-11.58-26.66c0 0 17.49 2.7 24.18 4.98 0 0-13.87 7.06-12.61 21.68ZM249.85 443.68s-17.12-4.86-25.04-14.76c0 0 15.73-8.1 22.49-10.19 0 0-7.07 13.87 2.55 24.95ZM346.76 452.91s-16.71 6.13-28.93 2.77c0 0 7.97-15.8 12.2-21.46 0 0 2.43 15.37 16.72 18.69ZM430.59 403.42s-9.91 14.78-21.77 19.25c0 0-2.84-17.47-2.74-24.54 0 0 11 11.01 24.52 5.29ZM469.31 314.1s.66 17.78-6.3 28.37c0 0-12.56-12.46-16.64-18.24 0 0 15.37 2.44 22.94-10.13ZM448.15 219.08s10.99 13.99 11.58 26.66c0 0-17.49-2.7-24.18-4.98 0 0 13.87-7.06 12.61-21.68ZM375.17 154.65s17.12 4.86 25.04 14.76c0 0-15.73 8.1-22.49 10.19 0 0 7.07-13.87-2.55-24.95ZM278.26 145.42s16.71-6.13 28.93-2.77c0 0-7.97 15.8-12.2 21.46 0 0-2.43-15.37-16.72-18.69ZM188.05 242.5s-11.37 6.75-23.91 4.95c0 0 1.2-12.49 10.63-25.29 0 0 .7 16.87 13.29 20.34ZM178.51 326.48s-5.23 12.14-16.44 18.06c0 0-6.37-10.81-6.27-26.71 0 0 10.48 13.24 22.7 8.65ZM220.15 400.02s2.9 12.9-2.68 24.27c0 0-11.51-5-20.77-17.92 0 0 16.26 4.55 23.45-6.35ZM297.08 435.05s9.93 8.73 12.1 21.21c0 0-12.25 2.72-27.34-2.29 0 0 15.83-5.87 15.24-18.92ZM379.89 418.17s13.16 1.22 22.26 10.05c0 0-8.32 9.4-23.47 14.21 0 0 9.35-14.06 1.21-24.26ZM436.97 355.83s11.37-6.75 23.91-4.95c0 0-1.2 12.49-10.63 25.29 0 0-.7-16.87-13.29-20.34ZM446.51 271.85s5.23-12.14 16.44-18.06c0 0 6.37 10.81 6.27 26.71 0 0-10.48-13.24-22.7-8.65ZM404.86 198.3s-2.9-12.9 2.68-24.27c0 0 11.51 5 20.77 17.92 0 0-16.26-4.55-23.45 6.35ZM327.94 163.28s-9.93-8.73-12.1-21.21c0 0 12.25-2.72 27.34 2.29 0 0-15.83 5.87-15.24 18.92ZM245.12 180.16s-13.16-1.22-22.26-10.05c0 0 8.32-9.4 23.47-14.21 0 0-9.35 14.06-1.21 24.26Z" fill="none" stroke="#1d1d1b" stroke-miterlimit="10"/><circle cx="311.3" cy="195.73" r="1.87" fill="#1d1d1b"/><circle cx="311.3" cy="189.97" r="1.44" fill="#1d1d1b"/><circle cx="311.3" cy="184.86" r="1.21" fill="#1d1d1b"/><circle cx="250.73" cy="216.19" r="1.87" fill="#1d1d1b"/><circle cx="247.34" cy="211.53" r="1.44" fill="#1d1d1b"/><circle cx="244.34" cy="207.41" r="1.21" fill="#1d1d1b"/><circle cx="213.76" cy="268.35" r="1.87" fill="#1d1d1b"/><circle cx="208.28" cy="266.57" r="1.44" fill="#1d1d1b"/><circle cx="203.43" cy="265" r="1.21" fill="#1d1d1b"/><circle cx="214.51" cy="332.28" r="1.87" fill="#1d1d1b"/><circle cx="209.03" cy="334.06" r="1.44" fill="#1d1d1b"/><circle cx="204.18" cy="335.64" r="1.21" fill="#1d1d1b"/><circle cx="252.69" cy="383.56" r="1.87" fill="#1d1d1b"/><circle cx="249.3" cy="388.22" r="1.44" fill="#1d1d1b"/><circle cx="246.3" cy="392.35" r="1.21" fill="#1d1d1b"/><circle cx="313.72" cy="402.6" r="1.87" fill="#1d1d1b"/><circle cx="313.72" cy="408.36" r="1.44" fill="#1d1d1b"/><circle cx="313.72" cy="413.47" r="1.21" fill="#1d1d1b"/><circle cx="374.29" cy="382.14" r="1.87" fill="#1d1d1b"/><circle cx="377.67" cy="386.8" r="1.44" fill="#1d1d1b"/><circle cx="380.67" cy="390.92" r="1.21" fill="#1d1d1b"/><circle cx="411.26" cy="329.98" r="1.87" fill="#1d1d1b"/><circle cx="416.74" cy="331.76" r="1.44" fill="#1d1d1b"/><circle cx="421.59" cy="333.33" r="1.21" fill="#1d1d1b"/><circle cx="410.51" cy="266.05" r="1.87" fill="#1d1d1b"/><circle cx="415.99" cy="264.27" r="1.44" fill="#1d1d1b"/><circle cx="420.84" cy="262.69" r="1.21" fill="#1d1d1b"/><circle cx="372.33" cy="214.77" r="1.87" fill="#1d1d1b"/><circle cx="375.71" cy="210.11" r="1.44" fill="#1d1d1b"/><circle cx="378.71" cy="205.98" r="1.21" fill="#1d1d1b"/><path d="M203.64 420.47c-24.47 14.13-55.76 5.74-69.88-18.73-14.13-24.47-5.74-55.76 18.73-69.88M307.08 462.07c-9.66 26.55-39.02 40.24-65.57 30.58-26.55-9.66-40.24-39.02-30.58-65.57M413.06 427.45c9.66 26.55-4.03 55.91-30.58 65.57-26.55 9.66-55.91-4.03-65.57-30.58M472 332.8c24.47 14.13 32.85 45.42 18.73 69.88-14.13 24.47-45.42 32.85-69.88 18.73M456.3 222.41c27.83-4.91 54.36 13.67 59.27 41.5 4.91 27.83-13.67 54.36-41.5 59.27M373.32 147.94c18.16-21.64 50.43-24.47 72.07-6.31 21.64 18.16 24.47 50.43 6.31 72.07M261.89 144.23c0-28.25 22.9-51.16 51.16-51.16 28.25 0 51.16 22.9 51.16 51.16" fill="none" stroke="#1d1d1b" stroke-miterlimit="10"/><path d="M273.3 140.84c0-21.95 17.8-39.75 39.75-39.75s39.75 17.8 39.75 39.75M180.41 203.2c-14.11-16.82-11.92-41.89 4.9-56s41.89-11.92 56 4.9M149.33 310.67c-21.62-3.81-36.06-24.43-32.24-46.05 3.81-21.62 24.43-36.06 46.05-32.24M194.61 412.97c-19.01 10.98-43.32 4.46-54.3-14.55s-4.46-43.32 14.55-54.3M295.05 462.24c-7.51 20.63-30.32 31.27-50.95 23.76-20.63-7.51-31.27-30.32-23.76-50.95M403.66 435.42c7.51 20.63-3.13 43.44-23.76 50.95-20.63 7.51-43.44-3.13-50.95-23.76M469.62 345.06c19.01 10.98 25.53 35.29 14.55 54.3s-35.29 25.53-54.3 14.55M462.07 233.44c21.62-3.81 42.24 10.62 46.05 32.24 3.81 21.62-10.62 42.24-32.24 46.05M384.53 152.79c14.11-16.82 39.19-19.01 56-4.9 16.82 14.11 19.01 39.19 4.9 56" fill="none" stroke="#1d1d1b" stroke-miterlimit="10"/><path d="M174.14 213.01c-18.16-21.64-15.34-53.91 6.31-72.07 21.64-18.16 53.91-15.34 72.07 6.31M151.13 322.11c-27.83-4.91-46.4-31.44-41.5-59.27s31.44-46.4 59.27-41.5M284.57 139.21c0-15.73 12.75-28.48 28.48-28.48s28.48 12.75 28.48 28.48" fill="none" stroke="#1d1d1b" stroke-miterlimit="10"/><path d="M295.41 137.29c0-9.19 7.45-16.64 16.64-16.64 9.19 0 16.64 7.45 16.64 16.64M188.29 194.59c-10.11-12.05-8.54-30.02 3.51-40.13 12.05-10.11 30.02-8.54 40.13 3.51" fill="none" stroke="#1d1d1b" stroke-miterlimit="10"/><path d="M195.36 186.15c-5.91-7.04-4.99-17.54 2.05-23.44s17.54-4.99 23.44 2.05M150.13 298.91c-15.49-2.73-25.84-17.5-23.1-33s17.5-25.84 33-23.1" fill="none" stroke="#1d1d1b" stroke-miterlimit="10"/><path d="M150.12 287.89c-9.05-1.6-15.09-10.23-13.5-19.28 1.6-9.05 10.23-15.09 19.28-13.5M187.95 403.34c-13.62 7.87-31.04 3.2-38.91-10.43-7.87-13.62-3.2-31.04 10.43-38.91" fill="none" stroke="#1d1d1b" stroke-miterlimit="10"/><path d="M180.87 394.91c-7.96 4.6-18.14 1.87-22.73-6.09-4.6-7.96-1.87-18.14 6.09-22.73M284.06 459.03c-5.38 14.78-21.73 22.4-36.51 17.02-14.78-5.38-22.4-21.73-17.02-36.51" fill="none" stroke="#1d1d1b" stroke-miterlimit="10"/><path d="M273.21 457.13c-3.14 8.64-12.69 13.09-21.33 9.95-8.64-3.14-13.09-12.69-9.95-21.33M393.47 439.92c5.38 14.78-2.24 31.13-17.02 36.51-14.78 5.38-31.13-2.24-36.51-17.02" fill="none" stroke="#1d1d1b" stroke-miterlimit="10"/><path d="M383.94 445.43c3.14 8.64-1.31 18.18-9.95 21.33s-18.18-1.31-21.33-9.95M465 354.94c13.62 7.87 18.29 25.29 10.43 38.91-7.87 13.62-25.29 18.29-38.91 10.43" fill="none" stroke="#1d1d1b" stroke-miterlimit="10"/><path d="M461.25 365.29c7.96 4.6 10.69 14.77 6.09 22.73-4.6 7.96-14.77 10.69-22.73 6.09M465.18 243.87c15.49-2.73 30.27 7.61 33 23.1 2.73 15.49-7.61 30.27-23.1 33" fill="none" stroke="#1d1d1b" stroke-miterlimit="10"/><path d="M468.96 254.22c9.05-1.6 17.68 4.45 19.28 13.5 1.6 9.05-4.45 17.68-13.5 19.28M393.92 158.67c10.11-12.05 28.08-13.62 40.13-3.51 12.05 10.11 13.62 28.08 3.51 40.13" fill="none" stroke="#1d1d1b" stroke-miterlimit="10"/><path d="M403.46 164.17c5.91-7.04 16.4-7.96 23.44-2.05 7.04 5.91 7.96 16.4 2.05 23.44M113.61 133.44c23.25-27.87 52.24-50.78 85.16-66.9M53.61 300.06c-.11-36.29 7.38-72.48 22.23-105.99M114.76 466.27c-23.41-27.73-40.94-60.26-51.1-95.49M268.43 554.28c-35.76-6.2-70.1-19.85-100.52-40.3M442.73 522.92c-31.38 18.24-66.46 29.85-102.91 33.74M556.09 386.87c-12.31 34.14-31.72 65.58-57.14 92M555.48 209.78c12.51 34.07 17.85 70.63 15.36 107.2M441.18 74.51c31.48 18.05 59.08 42.63 80.68 72.25M266.67 44.36c35.72-6.41 72.66-5.32 108.24 3.49M147.15 135.54a233.59 233.59 0 0 1 46.53-36.41M80.57 280.31c1.62-19.64 5.71-39.08 12.24-57.8M122.61 434.01a233.66 233.66 0 0 1-27.77-52.15M253.62 524.72c-19.06-5-37.49-12.41-54.8-22.09M412.29 510a234.022 234.022 0 0 1-56.18 18.3M524.38 396.74a233.752 233.752 0 0 1-31.27 50.13M537.43 237.92c5.2 19.01 8 38.68 8.26 58.5M445.35 107.87a233.705 233.705 0 0 1 43.93 39.5M291.22 67.44a233.71 233.71 0 0 1 59.05 2.02" fill="none" stroke="#1d1d1b" stroke-miterlimit="10"/><circle cx="311.52" cy="54.21" r="3.64" fill="none" stroke="#1d1d1b" stroke-miterlimit="10"/><circle cx="351.11" cy="57.04" r="3.64" fill="none" stroke="#1d1d1b" stroke-miterlimit="10"/><circle cx="331.32" cy="54.21" r="3.64" fill="none" stroke="#1d1d1b" stroke-miterlimit="10"/><circle cx="291.73" cy="55.04" r="3.64" fill="none" stroke="#1d1d1b" stroke-miterlimit="10"/><circle cx="154.3" cy="112.15" r="3.64" fill="none" stroke="#1d1d1b" stroke-miterlimit="10"/><circle cx="186.44" cy="88.88" r="3.64" fill="none" stroke="#1d1d1b" stroke-miterlimit="10"/><circle cx="169.46" cy="99.43" r="3.64" fill="none" stroke="#1d1d1b" stroke-miterlimit="10"/><circle cx="139.67" cy="125.51" r="3.64" fill="none" stroke="#1d1d1b" stroke-miterlimit="10"/><circle cx="71.1" cy="257.6" r="3.64" fill="none" stroke="#1d1d1b" stroke-miterlimit="10"/><circle cx="80.77" cy="219.11" r="3.64" fill="none" stroke="#1d1d1b" stroke-miterlimit="10"/><circle cx="74.54" cy="238.11" r="3.64" fill="none" stroke="#1d1d1b" stroke-miterlimit="10"/><circle cx="68.49" cy="277.23" r="3.64" fill="none" stroke="#1d1d1b" stroke-miterlimit="10"/><circle cx="100.86" cy="422.5" r="3.64" fill="none" stroke="#1d1d1b" stroke-miterlimit="10"/><circle cx="83.52" cy="386.8" r="3.64" fill="none" stroke="#1d1d1b" stroke-miterlimit="10"/><circle cx="90.96" cy="405.36" r="3.64" fill="none" stroke="#1d1d1b" stroke-miterlimit="10"/><circle cx="111.48" cy="439.22" r="3.64" fill="none" stroke="#1d1d1b" stroke-miterlimit="10"/><circle cx="229.65" cy="529.69" r="3.64" fill="none" stroke="#1d1d1b" stroke-miterlimit="10"/><circle cx="193.43" cy="513.48" r="3.64" fill="none" stroke="#1d1d1b" stroke-miterlimit="10"/><circle cx="211.05" cy="522.92" r="3.64" fill="none" stroke="#1d1d1b" stroke-miterlimit="10"/><circle cx="248.54" cy="535.67" r="3.64" fill="none" stroke="#1d1d1b" stroke-miterlimit="10"/><circle cx="397.21" cy="529.01" r="3.64" fill="none" stroke="#1d1d1b" stroke-miterlimit="10"/><circle cx="359.05" cy="539.89" r="3.64" fill="none" stroke="#1d1d1b" stroke-miterlimit="10"/><circle cx="378.61" cy="535.78" r="3.64" fill="none" stroke="#1d1d1b" stroke-miterlimit="10"/><circle cx="415.53" cy="521.46" r="3.64" fill="none" stroke="#1d1d1b" stroke-miterlimit="10"/><circle cx="525.14" cy="420.79" r="3.64" fill="none" stroke="#1d1d1b" stroke-miterlimit="10"/><circle cx="502.89" cy="453.65" r="3.64" fill="none" stroke="#1d1d1b" stroke-miterlimit="10"/><circle cx="515.24" cy="437.93" r="3.64" fill="none" stroke="#1d1d1b" stroke-miterlimit="10"/><circle cx="534.31" cy="403.23" r="3.64" fill="none" stroke="#1d1d1b" stroke-miterlimit="10"/><circle cx="553.57" cy="255.66" r="3.64" fill="none" stroke="#1d1d1b" stroke-miterlimit="10"/><circle cx="557.66" cy="295.13" r="3.64" fill="none" stroke="#1d1d1b" stroke-miterlimit="10"/><circle cx="557.01" cy="275.15" r="3.64" fill="none" stroke="#1d1d1b" stroke-miterlimit="10"/><circle cx="549.31" cy="236.31" r="3.64" fill="none" stroke="#1d1d1b" stroke-miterlimit="10"/><circle cx="469.21" cy="110.88" r="3.64" fill="none" stroke="#1d1d1b" stroke-miterlimit="10"/><circle cx="497.71" cy="138.5" r="3.64" fill="none" stroke="#1d1d1b" stroke-miterlimit="10"/><circle cx="484.37" cy="123.61" r="3.64" fill="none" stroke="#1d1d1b" stroke-miterlimit="10"/><circle cx="453.51" cy="98.8" r="3.64" fill="none" stroke="#1d1d1b" stroke-miterlimit="10"/><path d="M157.94 133.44s14.11-16.68 31.41-24.24c0 0 2.3 12.31 9.42 16.31 0 0-20.93 1.59-29.31 19.5 0 0-3.64-9.47-11.52-11.57ZM87.57 271.57s.09-21.85 8.48-38.76c0 0 9.67 7.95 17.7 6.44 0 0-15.01 14.67-9.92 33.77 0 0-8.88-4.91-16.26-1.45ZM122.46 422.61s-13.98-16.79-18.42-35.14c0 0 12.52-.12 17.7-6.45 0 0-2.06 20.89 14.11 32.25 0 0-9.96 1.94-13.39 9.34ZM246.27 515.89s-21.5-3.88-36.69-15.08c0 0 9.51-8.14 9.41-16.32 0 0 11.84 17.33 31.54 15.64 0 0-6.38 7.89-4.26 15.76ZM401.07 507.76s-18.97 10.85-37.8 12.03c0 0 2.05-12.35-3.28-18.55 0 0 20.21 5.66 34.21-8.3 0 0 .18 10.14 6.87 14.81ZM514.44 402.03s-7.55 20.5-21.22 33.52c0 0-6.37-10.78-14.43-12.1 0 0 19.12-8.65 20.87-28.34 0 0 6.66 7.65 14.78 6.93ZM533.32 248.17s7.39 20.56 5.29 39.32c0 0-11.81-4.17-18.84 0 0 0 9.08-18.92-2.23-35.13 0 0 10.02 1.58 15.78-4.19ZM448.88 118.17s18.88 11 29.32 26.72c0 0-11.72 4.4-14.42 12.11 0 0-5.2-20.33-24.29-25.48 0 0 8.69-5.23 9.39-13.35ZM300.63 72.86s21.53-3.71 39.64 1.62c0 0-6.15 10.91-3.26 18.55 0 0-17.06-12.23-34.98-3.91 0 0 3.3-9.59-1.39-16.27ZM217.63 21.91l39.5 124.26M61.61 147.76l110.13 69.8M22.99 344.45l129.23-17.31M119.83 519.96l87.87-96.34M306.83 592.15l5.39-130.28M496.49 527.25l-79.61-103.26M600.06 355.63 472.69 327.7M569.08 157.59l-115.52 60.47M418.05 25.79l-49.62 120.58" fill="none" stroke="#1d1d1b" stroke-miterlimit="10"/></svg>