<?xml version="1.0" encoding="UTF-8"?><svg id="Layer_2" xmlns="http://www.w3.org/2000/svg" width="389.32" height="445.23" xmlns:xlink="http://www.w3.org/1999/xlink" viewBox="0 0 389.32 445.23"><defs><linearGradient id="linear-gradient" x1="197.96" y1="313.56" x2="197.96" y2="355.33" gradientUnits="userSpaceOnUse"><stop offset="0" stop-color="#714f99"/><stop offset="1" stop-color="#a16cd3"/></linearGradient><linearGradient id="linear-gradient-2" x1="677.81" y1="-2156.85" x2="684.73" y2="-2156.69" gradientTransform="translate(1367.15 -1649.62) rotate(-168.21)" gradientUnits="userSpaceOnUse"><stop offset="0" stop-color="#ddd"/><stop offset=".03" stop-color="#e2e2e2"/><stop offset=".16" stop-color="#f2f2f2"/><stop offset=".31" stop-color="#fcfcfc"/><stop offset=".51" stop-color="#fff"/><stop offset=".71" stop-color="#fcfcfc"/><stop offset=".85" stop-color="#f3f3f3"/><stop offset=".96" stop-color="#e4e4e4"/><stop offset="1" stop-color="#ddd"/></linearGradient><linearGradient id="linear-gradient-3" x1="157.3" y1="68.96" x2="233.72" y2="68.96" gradientUnits="userSpaceOnUse"><stop offset="0" stop-color="#a16cd3"/><stop offset=".57" stop-color="#c890fc"/><stop offset="1" stop-color="#a16cd3"/></linearGradient><linearGradient id="linear-gradient-4" x1="-186.41" y1="230.64" x2="-140.7" y2="232.1" gradientTransform="translate(56.5) rotate(-180) scale(1 -1)" gradientUnits="userSpaceOnUse"><stop offset="0" stop-color="#c890fc"/><stop offset="1" stop-color="#a16cd3"/></linearGradient><linearGradient id="linear-gradient-5" x1="190.83" y1="234.98" x2="215.25" y2="234.49" xlink:href="#linear-gradient"/><linearGradient id="linear-gradient-6" x1="235" y1="222.41" x2="257.39" y2="229.39" gradientTransform="translate(477.65) rotate(-180) scale(1 -1)" gradientUnits="userSpaceOnUse"><stop offset="0" stop-color="#fff"/><stop offset=".4" stop-color="#fff" stop-opacity=".69"/><stop offset="1" stop-color="#fff" stop-opacity=".2"/></linearGradient><linearGradient id="linear-gradient-7" x1="134.12" y1="230.64" x2="179.83" y2="232.1" gradientTransform="translate(10.83)" xlink:href="#linear-gradient-4"/><linearGradient id="linear-gradient-8" x1="194.82" y1="235.12" x2="175.5" y2="234.22" xlink:href="#linear-gradient"/><linearGradient id="linear-gradient-9" x1="145.2" x2="167.59" y2="229.39" gradientTransform="matrix(1,0,0,1,0,0)" xlink:href="#linear-gradient-6"/><linearGradient id="linear-gradient-10" x1="194.01" y1="206.72" x2="193.91" y2="239.47" gradientTransform="matrix(1,0,0,1,0,0)" xlink:href="#linear-gradient-4"/><linearGradient id="linear-gradient-11" x1="187.94" y1="221.46" x2="192.9" y2="226.87" gradientTransform="matrix(1,0,0,1,0,0)" xlink:href="#linear-gradient-6"/></defs><g id="_כל_הדמויות"><rect width="389.32" height="445.23" fill="#e5e5e5" opacity="0"/><path d="m152.11,189h85.09s72.46,136.98,39.67,180.27c0,0-70.13-48.52-166.34-5.05,0,0,22.01-140.33,41.58-175.22Z" fill="url(#linear-gradient)"/><path d="m232.97,176.3s69.43,75.21,64.48,169.89c-.42,8.02-4.82,15.31-11.77,19.34-4.61,2.68-10.93,5.12-19.43,6.26,0,0,13.35-96.93-33.28-195.5Z" fill="#111"/><path d="m148.85,186.83s-59.33,65.37-53.69,159.52c.46,7.67,4.51,14.76,11.07,18.75,4.67,2.84,11.2,5.49,20.15,6.69,0,0-24.16-86.4,22.47-184.96Z" fill="#111"/><path d="m123.21,324.89c-6.7,0-13.99-5.97-16.01-8.06-.74-.76-2.01-2.25-2.26-2.59-9.94-13.48-13.81-27.96-11.52-43.04,5.06-33.27,39.08-60.57,49.39-68.14,1.89-1.39,4.2-2.16,6.49-2.16,1.45,0,2.85.3,4.16.88,1.3.58,1.95,1.26,1.99,2.08.04.84-.58,1.61-1.9,2.37-5.05,2.89-16.95,72.23-19.55,103.43-1.05,12.58-6.45,15.22-10.79,15.22h0Z" fill="#e5c89e"/><path d="m149.3,201.59c1.32,0,2.64.27,3.88.82,1.7.76,2.49,1.83.03,3.23-5.73,3.28-17.51,75.37-19.9,103.97-.93,11.16-5.24,14.59-10.11,14.59-6.19,0-13.28-5.54-15.52-7.85-.72-.74-1.97-2.21-2.2-2.52-37.03-50.25,21.79-98.51,37.73-110.22,1.79-1.31,3.93-2.02,6.09-2.02m0-1.37c-2.44,0-4.89.81-6.9,2.29-5.71,4.2-16.83,13.01-27.15,24.89-12.76,14.69-20.33,29.39-22.51,43.7-2.32,15.26,1.6,29.91,11.64,43.55.29.39,1.59,1.91,2.32,2.66,2.08,2.14,9.57,8.27,16.5,8.27,4.63,0,10.38-2.75,11.47-15.84,1.19-14.31,4.74-39.41,8.62-61.05,6.89-38.38,10.24-41.61,10.59-41.85.57-.32,2.32-1.33,2.23-2.99-.05-1.09-.86-1.98-2.4-2.67-1.4-.62-2.89-.94-4.44-.94h0Z" fill="#cca87d"/><path d="m98.79,271.55c3.08-31.07,37.73-60.47,49.92-69.93-1.95.12-3.87.79-5.5,1.98-15.94,11.71-74.76,59.98-37.73,110.22.23.31,1.48,1.77,2.2,2.52,3.69,3.81,20.61,16.4,24.84-1.63-11.45,8.13-36.76-12.7-33.74-43.17Z" fill="#f7e1c4" opacity=".76"/><path d="m267.64,324.89c-4.34,0-9.74-2.64-10.79-15.22-2.6-31.2-14.5-100.54-19.55-103.43-1.32-.76-1.94-1.53-1.9-2.37.04-.82.69-1.5,1.99-2.08,1.31-.58,2.71-.88,4.16-.88,2.29,0,4.6.77,6.49,2.16,10.31,7.57,44.33,34.87,49.39,68.14,2.29,15.08-1.58,29.56-11.52,43.04-.25.33-1.52,1.83-2.26,2.59-2.03,2.09-9.32,8.06-16.01,8.06Z" fill="#e5c89e"/><path d="m241.54,201.59c2.15,0,4.3.71,6.09,2.02,15.94,11.71,74.76,59.98,37.73,110.22-.23.31-1.48,1.77-2.2,2.52-2.24,2.31-9.33,7.85-15.52,7.85-4.87,0-9.18-3.44-10.11-14.59-2.38-28.6-14.17-100.69-19.9-103.97-2.45-1.4-1.67-2.47.03-3.23,1.24-.56,2.56-.82,3.88-.82m0-1.37h0c-1.55,0-3.04.32-4.44.94-1.54.69-2.34,1.59-2.4,2.67-.08,1.67,1.67,2.67,2.24,3,.35.24,3.7,3.47,10.59,41.84,3.89,21.64,7.43,46.75,8.62,61.05,1.09,13.1,6.84,15.84,11.47,15.84,6.94,0,14.43-6.12,16.5-8.27.73-.75,2.03-2.27,2.32-2.66,10.05-13.63,13.97-28.29,11.64-43.55-2.18-14.3-9.75-29.01-22.51-43.7-10.32-11.89-21.44-20.7-27.15-24.89-2.01-1.48-4.46-2.29-6.9-2.29h0Z" fill="#cca87d"/><path d="m292.05,271.55c-3.08-31.07-37.73-60.47-49.92-69.93,1.95.12,3.87.79,5.5,1.98,15.94,11.71,74.76,59.98,37.73,110.22-.23.31-1.48,1.77-2.2,2.52-3.69,3.81-20.61,16.4-24.84-1.63,11.45,8.13,36.76-12.7,33.74-43.17Z" fill="#f7e1c4" opacity=".76"/><path d="m153.05,432.9c-14.06,0-27.15-5.68-35.02-15.19-6.46-7.82-8.68-15.16-6.59-21.81,3.15-10.01,15.46-15.84,21.53-17.52,6.16-1.71,6.17-2.97,6.21-8.28v-.35c.02-1.49-.85-13.53-1.85-27.48-3.6-50.05-3.44-50.12-2.68-50.49,9.86-4.76,19.08-7.18,27.41-7.18,11.45,0,21.31,4.45,30.14,13.6.25.26.49.5.71.72,3.03,3.03,3,3.34,1.22,19.57-.4,3.69-.9,8.21-1.47,13.8-.33,3.19-1.1,9.34-1.99,16.47-1.94,15.44-5.18,41.28-4.47,43.5,3.41,10.75,2.4,20.27-2.93,27.55-6,8.19-17.29,13.08-30.22,13.08h0Z" fill="#e5c89e"/><path d="m162.07,285.36c14.21,0,23.48,7.03,29.6,13.37,4.21,4.37,3.55,1.4.25,33.49-1.13,10.97-7.5,56.92-6.43,60.27,8.3,26.14-11.23,39.65-32.43,39.65-12.77,0-26.16-4.91-34.43-14.91-19.86-24.01,6.99-36.02,14.56-38.12,6.85-1.9,6.72-3.72,6.77-9.35.03-3.91-5.71-76.93-4.96-77.29,10.6-5.12,19.53-7.1,27.08-7.1m0-1.51c-8.44,0-17.78,2.44-27.74,7.25q-1.22.59-.07,18.12c.63,9.65,1.53,22.11,2.32,33.11.96,13.35,1.87,25.96,1.85,27.42v.35c-.04,5.2-.05,6-5.66,7.56-6.21,1.72-18.81,7.71-22.05,18.03-2.17,6.91.09,14.49,6.73,22.52,8.01,9.68,21.31,15.46,35.6,15.46,13.17,0,24.7-5.01,30.83-13.4,5.47-7.48,6.53-17.24,3.04-28.23-.6-2.52,2.59-27.97,4.5-43.17.89-7.14,1.67-13.3,2-16.49.57-5.59,1.07-10.14,1.47-13.79,1.81-16.58,1.85-16.9-1.44-20.19-.22-.22-.45-.45-.7-.71-8.98-9.31-19.02-13.83-30.69-13.83h0Z" fill="#cca87d"/><path d="m161.46,382.21c-9.32-10.45-24.88-5.01-24.88-5.01" fill="none" stroke="#cca87d" stroke-linecap="round" stroke-miterlimit="10" stroke-width="1.33"/><path d="m161.24,382.71l-3.59-1.38c-6.11-2.35-12.7-3.21-19.21-2.52l-6.94.74s19.63-9.09,29.73,3.16Z" fill="#cca87d" opacity=".33"/><path d="m136.3,320.75l-.97,2.58s-.48,9.25,16.3,21.08c15.68,11.06,29.97,13.68,39.33,7-21.44-1.91-39.22-12.59-54.65-30.66Z" fill="#cca87d" opacity=".33"/><path d="m192.25,328.97l-6.87,61.07s7.38,20.69-4.35,31.33c0,0,7.02-10.7,2.83-25.25-4.19-14.55,8.39-67.15,8.39-67.15Z" fill="#cca87d"/><path d="m166.6,428.1c-2.53.61-5.38,1.07-8.6,1.35,2.96-.14,5.85-.58,8.6-1.35Z" fill="none"/><path d="m118.33,387.15c.42-.43.88-.82,1.41-1.22-2.6.37-4.08,2.73-4.89,5,1.01-1.38,2.2-2.64,3.48-3.78Z" fill="#cca87d" opacity=".6"/><path d="m113.59,396.01c-3.96,18.69,22.44,34.5,44.41,33.44,3.22-.28,6.07-.75,8.6-1.35,7.44-2.08,13.85-6.56,17.66-14.08-.07.76-.21,1.49-.39,2.21,3.4-6.99,1.16-14.06,1.16-14.06-12.26,14.63-23.1,17.57-23.1,17.57-33.07,6.74-41.84-8.07-41.84-29.14,0-2.6,1-4.84-.28-4.67-.5.39-.99.8-1.47,1.23-1.63,1.66-3.6,3.45-4.74,8.86Z" fill="#f7e1c4" opacity=".44"/><path d="m120.42,385.45c-.24.16-.46.33-.67.48.02,0,.04,0,.06,0,.21-.16.41-.32.62-.48Z" fill="#cca87d"/><path d="m120.42,385.45c.74-.52,1.59-1.08,2.6-1.77-.87.54-1.75,1.13-2.6,1.77Z" fill="#cca87d"/><path d="m166.6,428.1c-2.75.77-5.65,1.21-8.6,1.35-21.96,1.06-48.37-14.75-44.41-33.44,1.15-5.41,3.11-7.2,4.74-8.86-1.28,1.14-2.46,2.4-3.48,3.78-4.56,6.21-5.67,14.9,3.76,26.3,18.45,22.32,60.46,18.29,65.25-1-2.31,4.75-7.23,9.45-17.27,11.87Z" fill="#cca87d"/><path d="m118.33,387.15c.48-.43.97-.84,1.47-1.23-.02,0-.04,0-.06,0-.53.4-.99.79-1.41,1.22Z" fill="#cca87d"/><path d="m166.6,428.1c10.03-2.42,14.95-7.12,17.27-11.87.18-.72.32-1.45.39-2.21-3.81,7.52-10.22,12-17.66,14.08Z" fill="#cca87d"/><path d="m126.38,390.01c2.55-3.13,6.02-12.85,29.81-5.93.18.05.11.34-.08.32-4.4-.5-19.3-1.52-29.51,5.83-.16.11-.35-.07-.23-.22Z" fill="#fff0dc"/><path d="m236.17,432.9c-12.93,0-24.23-4.89-30.22-13.09-5.33-7.28-6.34-16.81-2.93-27.55.7-2.22-2.54-28.06-4.47-43.5-.89-7.13-1.67-13.28-1.99-16.47-.58-5.59-1.07-10.11-1.47-13.8-1.78-16.23-1.81-16.54,1.22-19.57.22-.22.46-.46.71-.72,8.83-9.15,18.69-13.6,30.14-13.6,8.33,0,17.55,2.42,27.41,7.18.76.37.92.45-2.68,50.49-1,13.95-1.87,25.99-1.85,27.48v.35c.04,5.31.05,6.57,6.22,8.28,6.07,1.68,18.38,7.51,21.53,17.52,2.09,6.65-.13,13.99-6.59,21.81-7.86,9.51-20.95,15.19-35.02,15.19Z" fill="#e5c89e"/><path d="m227.15,285.36c7.55,0,16.48,1.98,27.08,7.1.75.36-4.99,73.39-4.96,77.29.05,5.63-.08,7.45,6.77,9.35,7.57,2.1,34.42,14.11,14.56,38.12-8.27,10.01-21.66,14.91-34.43,14.91-21.21,0-40.73-13.52-32.43-39.65,1.06-3.35-5.3-49.3-6.43-60.27-3.3-32.09-3.97-29.12.25-33.49,6.12-6.34,15.39-13.37,29.6-13.37m0-1.51c-11.67,0-21.71,4.52-30.69,13.83-.25.26-.48.49-.7.71-3.29,3.29-3.25,3.61-1.44,20.19.4,3.66.9,8.21,1.47,13.79.33,3.19,1.1,9.36,2,16.49,1.91,15.2,5.1,40.64,4.49,43.19-3.48,10.96-2.43,20.72,3.04,28.2,6.14,8.39,17.66,13.4,30.83,13.4,14.28,0,27.59-5.78,35.6-15.46,6.64-8.03,8.9-15.6,6.73-22.52-3.24-10.32-15.84-16.3-22.05-18.03-5.61-1.56-5.62-2.36-5.66-7.56v-.35c-.02-1.46.89-14.07,1.85-27.42.79-11,1.69-23.46,2.32-33.11q1.15-17.53-.07-18.12c-9.96-4.81-19.29-7.25-27.73-7.25h0Z" fill="#cca87d"/><path d="m227.76,382.21c9.32-10.45,24.88-5.01,24.88-5.01" fill="none" stroke="#cca87d" stroke-linecap="round" stroke-miterlimit="10" stroke-width="1.33"/><path d="m227.98,382.71l3.59-1.38c6.11-2.35,12.7-3.21,19.21-2.52l6.94.74s-19.63-9.09-29.73,3.16Z" fill="#cca87d" opacity=".33"/><path d="m252.92,320.75l.97,2.58s.48,9.25-16.3,21.08c-15.68,11.06-29.97,13.68-39.33,7,21.44-1.91,39.22-12.59,54.65-30.66Z" fill="#cca87d" opacity=".33"/><path d="m196.97,328.97l6.87,61.07s-7.38,20.69,4.35,31.33c0,0-7.02-10.7-2.83-25.25,4.19-14.55-8.39-67.15-8.39-67.15Z" fill="#cca87d"/><path d="m222.62,428.1c2.53.61,5.38,1.07,8.6,1.35-2.96-.14-5.85-.58-8.6-1.35Z" fill="none"/><path d="m270.88,387.15c-.42-.43-.88-.82-1.41-1.22,2.6.37,4.08,2.73,4.89,5-1.01-1.38-2.2-2.64-3.48-3.78Z" fill="#cca87d" opacity=".6"/><path d="m275.63,396.01c3.96,18.69-22.44,34.5-44.41,33.44-3.22-.28-6.07-.75-8.6-1.35-7.44-2.08-13.85-6.56-17.66-14.08.07.76.21,1.49.39,2.21-3.4-6.99-1.16-14.06-1.16-14.06,12.26,14.63,23.1,17.57,23.1,17.57,33.07,6.74,41.84-8.07,41.84-29.14,0-2.6-1-4.84.28-4.67.5.39.99.8,1.47,1.23,1.63,1.66,3.6,3.45,4.74,8.86Z" fill="#f7e1c4" opacity=".44"/><path d="m268.79,385.45c.24.16.46.33.67.48-.02,0-.04,0-.06,0-.21-.16-.41-.32-.62-.48Z" fill="#cca87d"/><path d="m268.79,385.45c-.74-.52-1.59-1.08-2.6-1.77.87.54,1.75,1.13,2.6,1.77Z" fill="#cca87d"/><path d="m222.62,428.1c2.75.77,5.65,1.21,8.6,1.35,21.96,1.06,48.37-14.75,44.41-33.44-1.15-5.41-3.11-7.2-4.74-8.86,1.28,1.14,2.46,2.4,3.48,3.78,4.56,6.21,5.67,14.9-3.76,26.3-18.45,22.32-60.46,18.29-65.25-1,2.31,4.75,7.23,9.45,17.27,11.87Z" fill="#cca87d"/><path d="m270.88,387.15c-.48-.43-.97-.84-1.47-1.23.02,0,.04,0,.06,0,.53.4.99.79,1.41,1.22Z" fill="#cca87d"/><path d="m222.62,428.1c-10.03-2.42-14.95-7.12-17.27-11.87-.18-.72-.32-1.45-.39-2.21,3.81,7.52,10.22,12,17.66,14.08Z" fill="#cca87d"/><path d="m262.84,390.01c-2.55-3.13-6.02-12.85-29.81-5.93-.18.05-.11.34.08.32,4.4-.5,19.3-1.52,29.51,5.83.16.11.35-.07.23-.22Z" fill="#fff0dc"/><path d="m269.14,125.9c-8.25,0-16.13-3.48-21.62-9.56l-5.25-5.81c-7.09-7.84-10.46-15.8-9.76-23.03.65-6.64,4.64-12.74,11.88-18.14,6.9-4.82,13.85-7.26,20.66-7.26,15.54,0,25.3,12.82,25.39,12.95,10.85,12,10.02,32.69-1.79,43.37-5.34,4.83-12.27,7.49-19.51,7.49h0Z" fill="#e5c89e"/><path d="m265.04,62.78c15.38,0,24.85,12.68,24.85,12.68,10.49,11.6,9.9,31.96-1.7,42.45-5.42,4.9-12.24,7.31-19.05,7.31-7.77,0-15.52-3.15-21.12-9.33l-5.25-5.81c-10.49-11.6-15.88-26.8,2.02-40.16h0c7.5-5.24,14.31-7.13,20.25-7.13m0-1.37c-6.96,0-14.03,2.48-21.03,7.37-7.43,5.55-11.52,11.81-12.19,18.65-.72,7.42,2.71,15.57,9.93,23.56l5.25,5.81c5.62,6.22,13.69,9.78,22.13,9.78,7.41,0,14.5-2.72,19.97-7.66,12.06-10.9,12.93-32.02,1.84-44.34-.79-1.04-10.37-13.17-25.9-13.17h0Z" fill="#cca87d"/><path d="m245.28,87.07s9.81-17.35,25.44-6.96c16.87,11.21,10.38,26.53,10.38,26.53,0,0-2.62,7.3-12,8.47-9.38,1.17-23.82-28.05-23.82-28.05Z" fill="#fff0dc"/><path d="m249.96,82.1c2.95-2,5.75-3.02,8.35-3.38,10.57-1.47,17.82,8.03,17.82,8.03,6.41,7.09,6.71,18.94.35,24.69-3.12,2.82-7.21,3.98-11.34,3.61-4.29-.38-8.62-2.43-11.89-6.05l-3.21-3.55c-6.41-7.09-10-16.12-.09-23.35Z" fill="#96764b"/><path d="m259.82,101.65c2.9.17,5.14-.41,6.83-1.26,4.11-2.06,6.31-6.83,5.12-11.28-1.35-5.06-6.17-7.69-8.66-8.73-.62-.26-1.75-.53-2.4-.71-1.58-.44-2.08-.59-2.39-.96,10.57-1.47,17.82,8.03,17.82,8.03,6.41,7.09,6.71,18.94.35,24.69-1.06.96-2.23,1.72-3.48,2.3-4,1.86-8.79.7-11.69-2.62-3.95-4.54-6.94-9.78-1.51-9.47Z" fill="#846846"/><path d="m235.26,80.56c1.83-3.61,4.89-7.19,9.53-10.65h0c26.91-18.8,45.1,5.55,45.1,5.55,4.39,4.86,6.83,11.25,7.35,17.81-2.89-5.37-5.33-12.62-11.43-18.83-22.16-22.56-50.13,5.7-50.54,6.13Z" fill="#fff0dc" opacity=".54"/><path d="m285.6,87.56c3.55,7.73,9.54,26.29-11.05,32.67-.58.18-.43,1.04.17.99,5.54-.46,13.44-3.15,16.84-12.99,3.51-10.15-2.14-17.35-5.1-21.19-.37-.48-1.11-.03-.86.52Z" fill="#96764b" opacity=".15"/><path d="m242.77,110.07l5.25,5.81c10.49,11.6,28.56,12.51,40.16,2.02h0c11.6-10.49,12.19-30.85,1.7-42.45,0,0-18.19-24.35-45.1-5.55h0s0,0,0,0c-17.91,13.37-12.51,28.56-2.02,40.16Z" fill="none" stroke="#cca87d" stroke-linecap="round" stroke-linejoin="round" stroke-width="1.21"/><path d="m119.83,125.9c-7.24,0-14.17-2.66-19.51-7.49-5.64-5.1-9.05-12.86-9.36-21.29-.31-8.38,2.47-16.44,7.61-22.13.06-.08,9.81-12.9,25.35-12.9,6.81,0,13.76,2.44,20.64,7.25,7.25,5.41,11.25,11.52,11.9,18.15.7,7.23-2.67,15.19-9.76,23.03l-5.25,5.81c-5.49,6.07-13.37,9.56-21.62,9.56Z" fill="#e5c89e"/><path d="m123.92,62.78c5.94,0,12.75,1.89,20.25,7.13h0c17.91,13.37,12.51,28.56,2.02,40.16l-5.25,5.81c-5.59,6.19-13.34,9.33-21.12,9.33-6.81,0-13.63-2.41-19.05-7.31h0c-11.6-10.49-12.19-30.85-1.7-42.45,0,0,9.47-12.67,24.85-12.68m0-1.37v1.37-1.37h0c-15.53,0-25.11,12.13-25.9,13.17-11.09,12.32-10.22,33.44,1.84,44.34,5.47,4.94,12.56,7.66,19.97,7.66,8.44,0,16.51-3.57,22.13-9.78l5.25-5.81c7.22-7.99,10.65-16.13,9.93-23.56-.67-6.84-4.75-13.1-12.15-18.62-7.04-4.92-14.11-7.4-21.07-7.4h0Z" fill="#cca87d"/><path d="m143.68,87.07s-9.81-17.35-25.44-6.96c-16.87,11.21-10.38,26.53-10.38,26.53,0,0,2.62,7.3,12,8.47,9.38,1.17,23.82-28.05,23.82-28.05Z" fill="#fff0dc"/><path d="m139,82.1c-2.95-2-5.75-3.02-8.35-3.38-10.57-1.47-17.82,8.03-17.82,8.03-6.41,7.09-6.71,18.94-.35,24.69,3.12,2.82,7.21,3.98,11.34,3.61,4.29-.38,8.62-2.43,11.89-6.05l3.21-3.55c6.41-7.09,10-16.12.09-23.35Z" fill="#96764b"/><path d="m129.15,101.65c-2.9.17-5.14-.41-6.83-1.26-4.11-2.06-6.31-6.83-5.12-11.28,1.35-5.06,6.17-7.69,8.66-8.73.62-.26,1.75-.53,2.4-.71,1.58-.44,2.08-.59,2.39-.96-10.57-1.47-17.82,8.03-17.82,8.03-6.41,7.09-6.71,18.94-.35,24.69,1.06.96,2.23,1.72,3.48,2.3,4,1.86,8.79.7,11.69-2.62,3.95-4.54,6.94-9.78,1.51-9.47Z" fill="#846846"/><path d="m153.7,80.56c-1.83-3.61-4.89-7.19-9.53-10.65h0c-26.91-18.8-45.1,5.55-45.1,5.55-4.39,4.86-6.83,11.25-7.35,17.81,2.89-5.37,5.33-12.62,11.43-18.83,22.16-22.56,50.13,5.7,50.54,6.13Z" fill="#fff0dc" opacity=".54"/><path d="m103.36,87.56c-3.55,7.73-9.54,26.29,11.05,32.67.58.18.43,1.04-.17.99-5.54-.46-13.44-3.15-16.84-12.99-3.51-10.15,2.14-17.35,5.1-21.19.37-.48,1.11-.03.86.52Z" fill="#96764b" opacity=".15"/><path d="m146.2,110.07l-5.25,5.81c-10.49,11.6-28.56,12.51-40.16,2.02h0c-11.6-10.49-12.19-30.85-1.7-42.45,0,0,18.19-24.35,45.1-5.55h0s0,0,0,0c17.91,13.37,12.51,28.56,2.02,40.16Z" fill="none" stroke="#cca87d" stroke-linecap="round" stroke-linejoin="round" stroke-width="1.21"/><path d="m249.43,86.42c-14.29-13.18-33.59-21.28-54.85-21.28-19.62,0-37.57,6.9-51.45,18.32-19.5,11.7-30.78,31.46-30.78,56.29,0,45.5,36.83,82.38,82.26,82.38s82.26-36.88,82.26-82.38c0-23.13-10.18-41.25-27.43-53.33Z" fill="#e5c89e"/><path d="m240.73,79.46c-13.02-9.01-28.94-14.31-46.15-14.31s-33.44,5.41-46.53,14.58" fill="none" stroke="#cca87d" stroke-linecap="round" stroke-linejoin="round" stroke-width="1.39"/><path d="m112.93,130.24c-.38,3.08-.58,6.25-.58,9.51,0,38.26,26.05,70.42,61.35,79.68-54.4-17.81-58.07-75.98-60.77-89.2Z" fill="#96764b" opacity=".15"/><path d="m276.29,130.24c.38,3.08.58,6.25.58,9.51,0,38.26-26.05,70.42-61.35,79.68,54.4-17.81,58.07-75.98,60.77-89.2Z" fill="#96764b" opacity=".15"/><path d="m116.95,117.26c-3.01,7.5-4.6,15.85-4.6,24.89,0,44.17,36.83,79.97,82.26,79.97s82.26-35.8,82.26-79.97c0-9.07-1.66-17.34-4.78-24.76" fill="none" stroke="#cca87d" stroke-linecap="round" stroke-linejoin="round" stroke-width="1.37"/><rect x="263.8" y="231.84" width="7.39" height="102.96" rx="3.69" ry="3.69" transform="translate(471.44 615.32) rotate(-168.21)" fill="#111"/><path d="m257.66,333.79c1.82.05,3.36-1.37,3.73-3.16l3.9-18.68c.01-.07-.03-.14-.1-.16l-6.97-1.46c-.07-.01-.14.03-.16.1l-3.95,18.9c-.46,2.21,1.18,4.39,3.54,4.45Z" fill="url(#linear-gradient-2)"/><path d="m194.6,351.58c-19.8-.19-39.98-9.84-53.99-25.81-14.34-16.34-20.82-36.99-18.26-58.14,2.31-19.04,10.81-39.73,22.74-55.32,17.79-23.25,36.74-28.32,49.51-28.47,12.78.16,31.74,5.22,49.53,28.47,11.93,15.6,20.43,36.28,22.74,55.32,2.56,21.15-3.92,41.8-18.26,58.14-14.01,15.97-34.2,25.62-53.99,25.81h-.01Z" fill="#e5c89e"/><path d="m194.61,184.51c39.54.48,67.19,47,71.58,83.2,5.5,45.38-31.93,82.8-71.58,83.19-39.65-.39-77.08-37.81-71.58-83.19,4.39-36.2,32.04-82.71,71.58-83.2m0-1.37h-.02c-12.92.16-32.09,5.27-50.04,28.74-12,15.69-20.56,36.5-22.88,55.66-2.59,21.35,3.96,42.18,18.43,58.68,14.35,16.35,34.21,25.85,54.5,26.05,20.31-.2,40.18-9.69,54.53-26.05,14.47-16.49,21.01-37.33,18.43-58.68-2.32-19.16-10.88-39.97-22.88-55.66-17.95-23.47-37.12-28.58-50.04-28.74h-.02Z" fill="#cca87d"/><path d="m194.61,350.9c34.99-.34,68.24-29.53,71.79-67.58-5.98,22.77-22.89,58.11-70.82,60.12-36.38,1.52-66.13-29.65-71.92-54.03,6.32,35.03,37.86,61.16,70.95,61.49Z" fill="#cca87d" opacity=".73"/><ellipse cx="195.53" cy="280.68" rx="40.41" ry="49.36" fill="#f7e1c4"/><path d="m164.39,223.98s-21.63,6.1-21.29,28.46c0,0,3.74-19.48,21.29-28.46Z" fill="#fff0dc"/><path d="m159.53,258.27c8.22-10.54,26.97-28.56,55.07-21.12-5.68-3.72-12.17-5.84-19.07-5.84-15.71,0-29.32,10.96-36,26.95Z" fill="#fff0dc"/><path d="m229.28,159.51c-.9.28-1.78.55-2.66.82-6.76-4.77-18.17-8.37-31.22-8.37s-24.45,3.53-31.37,8.24c-.74-.23-1.48-.46-2.25-.7-16.65-5.21-36.93,11.7-25.84,32.83,6.9,13.16,26.66,26.89,59.47,27.1h0s.08,0,.12,0c.04,0,.08,0,.12,0h0c32.81-.21,52.56-13.95,59.47-27.1,11.09-21.14-9.19-38.04-25.84-32.83Z" fill="#f7e1c4" stroke="#cca87d" stroke-linecap="round" stroke-linejoin="round" stroke-width=".68"/><path d="m209.95,159.34c-5.23-2.62-10.27-3.49-14.8-3.39-4.53-.1-9.57.77-14.8,3.39-17.14,8.58,10.73,20.87,10.73,20.87,1.51.77,2.89,1.04,4.07,1.07,1.18-.02,2.56-.3,4.07-1.07,0,0,27.87-12.28,10.73-20.87Z" fill="#cca87d" opacity=".49"/><line x1="195.42" y1="190.17" x2="195.42" y2="179.66" fill="none" stroke="#1d1d1b" stroke-linecap="round" stroke-miterlimit="10" stroke-width="1.01"/><path d="m209.95,157.7c-5.23-2.62-10.27-3.49-14.8-3.39-4.53-.1-9.57.77-14.8,3.39-17.14,8.58,10.73,20.87,10.73,20.87,1.51.77,2.89,1.04,4.07,1.07,1.18-.02,2.56-.3,4.07-1.07,0,0,27.87-12.28,10.73-20.87Z" fill="#2d2b29"/><ellipse cx="194.85" cy="159.51" rx="8.07" ry="2.7" fill="#fff"/><path d="m169.12,189s13.15,14.11,26.29,1.47" fill="none" stroke="#1d1d1b" stroke-linecap="round" stroke-miterlimit="10" stroke-width="1.01"/><path d="m221.82,189s-13.15,14.11-26.29,1.47" fill="none" stroke="#1d1d1b" stroke-linecap="round" stroke-miterlimit="10" stroke-width="1.01"/><path d="m155.79,150.48s10.22-4.16,18.18.8c0,0-5.87-2.72-18.18-.8Z" fill="#cca87d"/><path d="m216.33,150.48s10.22-4.16,18.18.8c0,0-5.87-2.72-18.18-.8Z" fill="#cca87d"/><path d="m138.15,125.01c-.17.44-.75.2-.71-.35.1-1.68,6.1-16.96,16.41-13.5,3.75,1.26-10.25,0-15.69,13.85Z"/><path d="m255.1,125.01c.17.44.75.2.71-.35-.1-1.68-6.1-16.96-16.41-13.5-3.75,1.26,10.25,0,15.69,13.85Z"/><circle cx="164.8" cy="141.06" r="14.88" fill="#f7e1c4" opacity=".46"/><circle cx="166.31" cy="140.47" r="8.97"/><path d="m164.84,137.91c-1.64,1.24-1.08,2.23-2.24,1.96-1-.22-1.39-1.5-.3-3.17s2.65-2.02,3.41-1.28c.46.46.57,1.39-.87,2.48Z" fill="#fff"/><path d="m165.57,132.16s-6,.61-11.25,6.37" fill="none" stroke="#000" stroke-linecap="round" stroke-miterlimit="10" stroke-width="1.09"/><path d="m172.15,138.69s-.11,5.93-5.15,7.37c-.79.23-1.77.04-2.06.51-.4.66.25.95,1.44.94,2.82-.01,6.88-1.84,7.04-6.59.11-3.27-1.11-3.81-1.27-2.24Z" fill="#302e2b"/><circle cx="225.17" cy="141.06" r="14.88" fill="#f7e1c4" opacity=".46"/><circle cx="223.35" cy="140.47" r="8.97"/><path d="m221.66,137.75c-1.71,1.3-1.13,2.33-2.35,2.06-1.05-.24-1.46-1.57-.31-3.32s2.78-2.12,3.57-1.34c.48.48.6,1.46-.91,2.6Z" fill="#fff"/><path d="m224.71,132.16s6,.61,11.25,6.37" fill="none" stroke="#000" stroke-linecap="round" stroke-miterlimit="10" stroke-width="1.09"/><path d="m228.99,138.56s-.11,6.21-5.39,7.72c-.83.24-1.85.04-2.15.54-.42.7.26.99,1.51.99,2.96-.01,7.21-1.93,7.37-6.9.12-3.43-1.16-3.99-1.33-2.35Z" fill="#302e2b"/><path d="m159.62,158.97c-16.17-3.19-34.29,13.14-23.67,33.37,4.56,8.68,14.72,17.62,30.53,22.75-2.06-3.92-5.38-9.36-10.61-16.9-14.87-21.42-3.66-33.92,3.75-39.23Z" fill="#96764b" opacity=".04"/><path d="m231.44,158.97c16.17-3.19,34.29,13.14,23.67,33.37-4.56,8.68-14.72,17.62-30.53,22.75,2.06-3.92,5.38-9.36,10.61-16.9,14.87-21.42,3.66-33.92-3.75-39.23Z" fill="#96764b" opacity=".04"/><path d="m187.83,175.08s-8.07-4.51-3.65-5.93c5.12-1.64,29.34-1.53,20.72,4.47-8.62,6-10.45,5.38-17.07,1.46Z" fill="#1e1d1c"/><path d="m182.01,195.73s12.84,12.35,27.14,0" fill="none" stroke="#1d1d1b" stroke-linecap="round" stroke-miterlimit="10" stroke-width="1.01"/><path d="m149.88,207.5c-.43.47-.53.47-1.04,1.03,0,0,42.49,40.97,92.37.82,0,0-.28-.34-1.23-1.16-13.16,6.78-28.73,11.25-45.37,11.25-17.97,0-32.26-5.05-44.73-11.94Z" fill="#96764b" opacity=".15"/><path d="m139.48,202.35s9.37,10.8,49.44,21.43c0,0-51.32-5.33-55.39-16.27l4.39-6.51,1.56,1.36Z" fill="#111"/><path d="m250.14,202s-9.37,10.8-49.44,21.43c0,0,51.29-5.26,55.36-16.2l-4.36-6.58-1.56,1.36Z" fill="#111"/><ellipse cx="195.58" cy="23.28" rx="10.38" ry="39.7" transform="translate(166.93 218.15) rotate(-88.43)"/><path d="m228.59,70.48s.13-.07.35-.2c-.14.06-.29.13-.44.2h.09Z" fill="none"/><path d="m230.71,69.45h0s0-.02,0-.02c-.78.35-1.4.66-1.76.86,1.14-.52,1.76-.84,1.76-.84Z"/><path d="m242.85,71.62c-1.62-5.99-8.59-3.77-12.15-2.19,0,0,0,0,0,0h0s-.62.34-1.76.85c-.23.12-.35.2-.35.2h-.09c-8.06,3.58-37.14,14.54-68.18,2.68,0,0,0,0,0,0-4.62-.07-12.27-2.67-15.17,3.64-6.54,14.23,30.13,23.23,30.13,23.23,45.33,7.99,71.11-15.39,67.58-28.41Z" fill="#111"/><path d="m235.14,25.07c-1.53,5.37-18.87,9.18-39.91,8.59-18.32-.51-34.56-5.44-38.98-9.98,3.14,7.26,6.5,20.71,3.43,42.95.1.03,42.9,11.24,72.92-7.24-.79-10.35-.74-16.03,2.54-34.33Z" fill="#111"/><path d="m232.61,59.39c-30.02,18.48-72.81,7.27-72.92,7.24-.68,2.15-1.47,4.33-2.39,6.53,0,0,0,0,0,0,33.71,11.86,65.28.9,74.03-2.67.17-.07.33-.14.48-.2.39-.19,1.06-.51,1.91-.86-.31-2-.76-5.45-1.11-10.04Z" fill="url(#linear-gradient-3)"/><path d="m154.94,74.44s-13.38-.35-3.03,13.38c0,0-6.63-10.82,3.03-13.38Z"/><path d="m234.55,70.49s9.89-.81,2.33,12.34c0,0,3.61-8.62-2.33-12.34Z"/><path d="m159.94,76.8s30.58,13.52,73.78-4.37c0,0-35.26,22.09-73.78,4.37Z"/><path d="m161.64,88.39s40.12-5.93,38.31-1.71c-1.81,4.22-8.95,7.52-1.71,6.57,3.57-.47,5.63-.73,6.79-.87.51-.06.8.57.41.91-1.36,1.19-4.05,2.92-8.11,2.69-6.13-.35-5.63-2.72-5.63-2.72,0,0-.6-1.47,4.32-5.43,0,0,1.26-.38-4.52,0-5.94.39-29.87.56-29.87.56Z"/><path d="m169.16,43.32c-.39-.23-.2-.83.25-.77,8.46,1.12,33.89,3.34,56.5-6.25,0,0-7.93,9.56-46.88,11.27-.97.04-3.39.95-1.93,1.8,2.15,1.26,8.56,1.6,26.34.32l12.76-1.08c.27-.02.36.35.11.45-2.98,1.16-12.02,3.98-35.14,6.94-3.15.4-6.37-.81-8.25-3.37-1.15-1.57-1.6-3.45.25-5.24,2.69-2.61-2-2.86-4.03-4.06Z"/><path d="m221.73,249.49c-.36,0-.71-.02-1.07-.07-6.9-.88-14.82-5.91-21.7-10.56-2.51-1.7-4.01-4.52-4.01-7.54,0-3.03,1.5-5.85,4.01-7.54,6.88-4.65,14.8-9.68,21.7-10.56.36-.05.71-.07,1.07-.07,2.84,0,5.52,1.4,7.18,3.75,6.27,8.9,6.27,19.95,0,28.84-1.66,2.35-4.34,3.75-7.18,3.75Z" fill="#714f99"/><path d="m220.74,248.79c-6.79-.87-14.57-5.82-21.43-10.46-4.97-3.36-4.97-10.67,0-14.03,6.86-4.63,14.64-9.59,21.43-10.46,2.96-.38,5.93.98,7.65,3.42,6.11,8.67,6.11,19.44,0,28.1-1.72,2.44-4.69,3.8-7.65,3.42Z" fill="url(#linear-gradient-4)"/><path d="m199.31,238.34c6.86,4.63,14.64,9.59,21.43,10.46,1.99.25,3.97-.29,5.59-1.4-8.33-1.78-24.66-7.74-18.2-7.68,8.05.08,9.63-1.42,9.63-1.42-9.39.12-12.07-3.05-12.07-3.05l3.41-1.12c10.73-2.46,12.68-5.1,7.16-5.22-5.52-.12-4.48-.49-4.48-.49,2.68-2.19,1.59-2.07,1.59-2.07,0,0-9.63.85-11.22,0-.94-.51,1.42-3.66,3.49-6.15-2.16,1.32-4.29,2.73-6.33,4.11-4.97,3.36-4.97,10.67,0,14.03Z" fill="url(#linear-gradient-5)"/><path d="m213.71,215.91c2.4-1.03,4.76-1.77,7.02-2.06,2.96-.38,5.93.98,7.65,3.42.63.89,1.18,1.82,1.68,2.75-4.73-4.69-11.19-4.96-16.35-4.11Z" fill="#e8d2ff" opacity=".38"/><path d="m228.92,238.13s6.01-15.57-5.9-19.32c-8.56-2.69-8.41,2.02-7.65,4.9.3,1.15,1.15,2.06,2.26,2.48,2.64,1,7.86,3.55,9.51,8.6,1.46,4.46,1.28,4.93,1.79,3.34Z" fill="url(#linear-gradient-6)" opacity=".45"/><path d="m166.14,249.49c-2.84,0-5.52-1.4-7.18-3.76-6.27-8.89-6.27-19.94,0-28.84,1.66-2.35,4.34-3.76,7.18-3.76.35,0,.71.02,1.07.07,6.9.88,14.82,5.91,21.7,10.56,2.51,1.7,4.01,4.52,4.01,7.54s-1.5,5.85-4.01,7.54c-6.88,4.65-14.81,9.68-21.7,10.56-.36.05-.71.07-1.07.07h0Z" fill="#714f99"/><path d="m167.13,248.79c6.79-.87,14.57-5.82,21.43-10.46,4.97-3.36,4.97-10.67,0-14.03-6.86-4.63-14.64-9.59-21.43-10.46-2.96-.38-5.93.98-7.65,3.42-6.11,8.67-6.11,19.44,0,28.1,1.72,2.44,4.69,3.8,7.65,3.42Z" fill="url(#linear-gradient-7)"/><path d="m167.13,248.79c6.73-.86,14.43-5.74,21.25-10.33,5.07-3.42,5.06-10.87,0-14.28-2.4-1.62-4.91-3.27-7.44-4.77-.14-.08-.29.08-.21.22,1.73,2.74,2.57,3.31,1.36,4.24-2.38,1.82-9.02,2.44-9.02,2.44,0,0,9.26,2.62,5.04,4.65-4.9,2.36-8.87,3.41-8.87,3.41,0,0-9.02,2.57,10.86,1.24,2.8-.19.52,2.17-1.09,3.39-4.78,3.65-8.15,5.09-18.51,7.23-.11.02-.18.14-.1.22,1.75,1.75,4.24,2.66,6.74,2.35Z" fill="url(#linear-gradient-8)"/><path d="m174.15,215.91c-2.4-1.03-4.76-1.77-7.02-2.06-2.96-.38-5.93.98-7.65,3.42-.63.89-1.18,1.82-1.68,2.75,4.73-4.69,11.19-4.96,16.35-4.11Z" fill="#e8d2ff" opacity=".38"/><path d="m158.93,238.13s-6.01-15.57,5.9-19.32c8.56-2.69,8.41,2.02,7.65,4.9-.3,1.15-1.15,2.06-2.26,2.48-2.64,1-7.86,3.55-9.51,8.6-1.46,4.46-1.28,4.93-1.79,3.34Z" fill="url(#linear-gradient-9)" opacity=".45"/><rect x="184.91" y="223.57" width="18.05" height="15.5" rx="5.7" ry="5.7" transform="translate(425.25 37.39) rotate(90)" fill="#714f99"/><rect x="186.82" y="222.93" width="14.23" height="16.78" rx="5.06" ry="5.06" fill="url(#linear-gradient-10)"/><path d="m191.88,239.71h4.1c2.8,0,5.06-2.27,5.06-5.06v-4.31c-.25.42-.42.79-.42.98,0,.88-.92-.56-2.1-1.8-1.18-1.25-.46,1.12-.46,2.17s-2.69,0-3.68-.36c-.98-.36-1.44.23-1.44.69s-2.17.53-3.22-.07-1.12,1.21-1.12,1.21c-.45-2.45-1.22-2.86-1.79-2.77v4.25c0,2.8,2.27,5.06,5.06,5.06Z" fill="#996bce"/><path d="m188.06,229.16s2.1-3.6,8.78-3.53c4.56.04-2.21-2.39-5.77-.61-3.56,1.78-3.01,4.15-3.01,4.15Z" fill="url(#linear-gradient-11)" opacity=".45"/></g></svg>