<svg width="71" height="71" viewBox="0 0 71 71" fill="none" xmlns="http://www.w3.org/2000/svg">
<path d="M36.6269 62.4098C50.7608 62.4098 62.2186 51.0234 62.2186 36.9775C62.2186 22.9315 50.7608 11.5451 36.6269 11.5451C22.493 11.5451 11.0352 22.9315 11.0352 36.9775C11.0352 51.0234 22.493 62.4098 36.6269 62.4098Z" fill="#CBCEF0"/>
<path d="M34.7715 59.5629C49.076 59.5629 60.672 48.0391 60.672 33.8238C60.672 19.6084 49.076 8.08463 34.7715 8.08463C20.4671 8.08463 8.87109 19.6084 8.87109 33.8238C8.87109 48.0391 20.4671 59.5629 34.7715 59.5629Z" stroke="#3B3847" stroke-miterlimit="10" stroke-linecap="round"/>
<path d="M34.77 14.8543V33.8238" stroke="#3A3847" stroke-linecap="round" stroke-linejoin="round"/>
<path d="M50.0716 33.8236H34.77" stroke="#3A3847" stroke-linecap="round" stroke-linejoin="round"/>
</svg>
