<svg width="72" height="71" viewBox="0 0 72 71" fill="none" xmlns="http://www.w3.org/2000/svg">
<path d="M55.8933 34.3744C52.2063 34.3744 49.1975 37.3722 49.1975 41.0702C49.1975 44.2978 51.5389 47.0002 54.5476 47.6238V52.7551C54.5476 58.7944 49.0772 63.7068 43.0378 63.7068C36.9985 63.7068 31.5281 58.7944 31.5281 52.7551V43.4225C34.5259 43.335 37.0532 42.777 40.1604 40.6764C44.4164 37.788 49.843 31.2563 50.2478 16.519C50.3354 13.1929 49.0225 10.3483 46.4404 8.69625C45.0181 7.7991 43.5521 7.39429 42.5455 7.21924V6.68313C42.5455 5.50152 41.7359 4.49496 40.5433 4.49496C39.3508 4.49496 38.5411 5.50152 38.5411 6.68313V12.5803C38.5411 13.7728 39.3508 14.7794 40.5433 14.7794C41.7359 14.7794 42.5455 13.7728 42.5455 12.5803V10.3593C43.5411 10.5343 44.1976 10.8625 44.8868 11.3002C45.8606 11.9129 47.5236 13.4008 47.4361 16.4424C47.075 29.8668 42.6002 35.6545 38.935 38.1381C35.5215 40.4575 32.086 40.4247 31.1232 40.3591C31.0357 40.3591 30.9701 40.3591 30.9482 40.3591H30.795C29.8322 40.4247 26.4077 40.4575 23.0051 38.1381C19.3399 35.6545 14.9417 29.8668 14.5697 16.4424C14.4932 13.4008 15.9264 11.9129 16.8892 11.3002C17.8411 10.6984 18.5084 10.414 19.515 10.2827V12.5693C19.515 13.7619 20.3246 14.7684 21.5172 14.7684C22.7097 14.7684 23.5194 13.7619 23.5194 12.5693V6.69408C23.5194 5.51246 22.7097 4.50591 21.5172 4.50591C20.3246 4.50591 19.515 5.51246 19.515 6.69408V7.18641C17.5128 7.32865 16.8017 7.71157 15.2262 8.70719C12.6441 10.3483 11.1671 13.2039 11.2547 16.5299C11.6595 31.2672 16.4844 37.7989 20.7404 40.6873C23.8148 42.7879 26.5171 43.335 28.5193 43.4335V52.766C28.5193 60.5012 34.8103 66.7922 42.5346 66.7922C50.2588 66.7922 56.5498 60.5012 56.5498 52.766V47.5363C60.5541 46.7814 62.053 44.1555 62.053 41.0702C62.053 37.3722 59.5913 34.3744 55.8933 34.3744ZM55.8933 44.6916C53.9021 44.6916 52.2719 43.0615 52.2719 41.0702C52.2719 39.079 53.9021 37.4488 55.8933 37.4488C57.8846 37.4488 59.5148 39.079 59.5148 41.0702C59.5148 43.0615 57.8955 44.6916 55.8933 44.6916Z" fill="#F0A63E"/>
<path d="M54.4381 34.3745C50.7511 34.3745 47.7423 37.3722 47.7423 41.0703C47.7423 44.2978 50.0837 47.0002 53.0924 47.6238V52.7551C53.0924 58.7944 47.622 63.7069 41.5826 63.7069C35.5433 63.7069 30.0728 58.7944 30.0728 52.7551V43.4225C33.0706 43.335 35.598 42.777 38.7052 40.6764C42.9612 37.788 48.3878 31.2563 48.7926 16.519C48.8802 13.193 47.5673 10.3484 44.9852 8.69628C43.5629 7.79913 42.0968 7.39432 41.0903 7.21927V6.68317C41.0903 5.50155 40.2807 4.495 39.0881 4.495C37.8956 4.495 37.0859 5.50155 37.0859 6.68317V12.5803C37.0859 13.7728 37.8956 14.7794 39.0881 14.7794C40.2807 14.7794 41.0903 13.7728 41.0903 12.5803V10.3593C42.0859 10.5343 42.7423 10.8626 43.4316 11.3002C44.4054 11.9129 46.0684 13.4008 45.9808 16.4424C45.6198 29.8668 41.145 35.6545 37.4798 38.1381C34.0663 40.4576 30.6308 40.4247 29.668 40.3591C29.5805 40.3591 29.5149 40.3591 29.493 40.3591H29.3398C28.377 40.4247 24.9525 40.4576 21.5499 38.1381C17.8847 35.6545 13.4865 29.8668 13.1145 16.4424C13.0379 13.4008 14.4712 11.9129 15.434 11.3002C16.3858 10.6985 17.0532 10.414 18.0598 10.2827V12.5693C18.0598 13.7619 18.8694 14.7685 20.062 14.7685C21.2545 14.7685 22.0641 13.7619 22.0641 12.5693V6.69411C22.0641 5.51249 21.2545 4.50594 20.062 4.50594C18.8694 4.50594 18.0598 5.51249 18.0598 6.69411V7.18644C16.0576 7.32868 15.3465 7.71161 13.771 8.70722C11.178 10.3484 9.71192 13.2039 9.7885 16.5299C10.1933 31.2673 15.0182 37.7989 19.2742 40.6873C22.3486 42.788 25.051 43.335 27.0532 43.4335V52.766C27.0532 60.5012 33.3442 66.7922 41.0684 66.7922C48.7926 66.7922 55.0836 60.5012 55.0836 52.766V47.5363C59.088 46.7814 60.5869 44.1556 60.5869 41.0703C60.5869 37.3722 58.1252 34.3745 54.4272 34.3745H54.4381ZM54.4381 44.6917C52.4469 44.6917 50.8167 43.0615 50.8167 41.0703C50.8167 39.079 52.4469 37.4488 54.4381 37.4488C56.4294 37.4488 58.0595 39.079 58.0595 41.0703C58.0595 43.0615 56.4403 44.6917 54.4381 44.6917Z" stroke="#3B3847" stroke-linecap="round" stroke-linejoin="round"/>
</svg>
