<svg width="71" height="71" viewBox="0 0 71 71" fill="none" xmlns="http://www.w3.org/2000/svg">
<path d="M42.492 25.5389C50.4936 23.9401 58.5971 28.5953 61.2617 36.307C62.4373 39.7004 62.4451 43.1801 61.5204 46.3384L66.152 51.887C66.4734 52.271 66.152 52.8431 65.6583 52.7726L58.7774 51.7616C56.489 54.7554 53.1504 57.0046 49.1143 57.8667C41.1754 59.5673 33.0327 55.1002 30.2193 47.4826C26.6926 37.9214 32.4998 27.5373 42.492 25.5467V25.5389Z" stroke="#3B3847" stroke-width="0.7" stroke-linecap="round" stroke-linejoin="round"/>
<path d="M29.4029 13.859C18.4938 14.7054 9.72416 23.6631 9.08152 34.5879C8.79939 39.392 10.0533 43.8905 12.3966 47.6366L8.43888 56.4924C8.16459 57.1037 8.79155 57.7229 9.395 57.4486L17.906 53.6398C21.9578 56.6805 27.0832 58.3577 32.6083 58.0128C43.4782 57.3232 52.3733 48.5849 53.2354 37.7306C54.309 24.0942 43.0315 12.801 29.4029 13.859Z" fill="#A4ABF3"/>
<path d="M26.2687 12.1534C15.3595 12.9998 6.5899 21.9575 5.94727 32.8823C5.66513 37.6864 6.91906 42.1849 9.26233 45.931L5.29679 54.7868C5.0225 55.3981 5.64946 56.0172 6.25291 55.7429L14.7639 51.9341C18.8157 54.9749 23.9411 56.652 29.4662 56.3072C40.3362 55.6175 49.2312 46.8793 50.0933 36.025C51.1748 22.3885 39.8973 11.0954 26.2687 12.1534Z" stroke="#3B3847" stroke-width="0.7" stroke-linecap="round" stroke-linejoin="round"/>
<path d="M27.2852 33.2954C27.2852 35.1841 24.4717 35.1841 24.4717 33.2954C24.4717 30.9286 26.3291 28.4834 29.2523 28.4834H29.2758C32.2225 28.4834 34.4561 30.7718 34.4561 33.2954C34.4561 35.0744 33.3432 36.2186 32.3009 37.2295C31.7993 37.7625 30.6002 38.4521 30.6002 39.4082C30.6002 41.2186 27.8886 41.2186 27.8886 39.4082C27.8886 37.8173 29.2679 36.3518 30.2789 35.2938C30.3024 35.2703 30.3024 35.2389 30.3338 35.2389C30.8667 34.7374 31.2664 34.1261 31.2664 33.3267V33.3032C31.2664 32.3236 30.4984 31.3126 29.2758 31.3126C28.0532 31.3126 27.2852 32.3236 27.2852 33.3032V33.2954ZM29.3071 45.2233C26.8385 45.2233 26.8385 41.5007 29.3071 41.5007H29.3306C31.7993 41.5007 31.7993 45.2233 29.3306 45.2233H29.3071Z" fill="white"/>
<path d="M26.3076 32.4746C26.3076 34.3633 23.4941 34.3633 23.4941 32.4746C23.4941 30.1078 25.3515 27.6627 28.2747 27.6627H28.2982C31.245 27.6627 33.4785 29.9511 33.4785 32.4746C33.4785 34.2536 32.3657 35.3978 31.3233 36.4088C30.8218 36.9417 29.6227 37.6314 29.6227 38.5875C29.6227 40.3978 26.9111 40.3978 26.9111 38.5875C26.9111 36.9966 28.2904 35.531 29.3014 34.473C29.3249 34.4495 29.3249 34.4182 29.3562 34.4182C29.8892 33.9166 30.2888 33.3053 30.2888 32.5059V32.4824C30.2888 31.5028 29.5208 30.4918 28.2982 30.4918C27.0757 30.4918 26.3076 31.5028 26.3076 32.4824V32.4746ZM28.3296 44.4026C25.8609 44.4026 25.8609 40.68 28.3296 40.68H28.3531C30.8218 40.68 30.8218 44.4026 28.3531 44.4026H28.3296Z" stroke="#3B3847" stroke-width="0.7" stroke-linecap="round" stroke-linejoin="round"/>
</svg>
