<svg width="71" height="71" viewBox="0 0 71 71" fill="none" xmlns="http://www.w3.org/2000/svg">
<path d="M10.4457 33.2735L10.4127 33.3271H16.2634V59.0228C16.2634 60.5993 17.5721 61.8755 19.1888 61.8755H54.3262C55.9428 61.8755 57.2516 60.5993 57.2516 59.0228V33.3271H63.1023C64.719 33.3271 66.0277 32.0509 66.0277 30.4744C66.0277 29.5199 65.5438 28.6298 64.7189 28.0936L38.3796 10.9667C37.4009 10.3233 36.1141 10.3233 35.1353 10.9667L8.78504 28.0936C7.44333 28.973 7.08041 30.7425 7.97122 32.0509C8.53209 32.8445 9.45589 33.3057 10.4457 33.2628V33.2735ZM30.9013 41.8959C30.9013 40.3194 32.21 39.0432 33.8266 39.0432H39.6774C41.294 39.0432 42.6027 40.3194 42.6027 41.8959V56.1701H30.8903V41.8959H30.9013Z" fill="#F0A63E"/>
<path d="M7.13537 32.2011L7.10237 32.2547H12.9531V57.9504C12.9531 59.5269 14.2618 60.8031 15.8785 60.8031H51.0159C52.6325 60.8031 53.9412 59.5269 53.9412 57.9504V32.2547H59.792C61.4086 32.2547 62.7173 30.9785 62.7173 29.402C62.7173 28.4476 62.2334 27.5574 61.4086 27.0212L35.0803 9.89434C34.1015 9.25088 32.8148 9.25088 31.836 9.89434L5.48572 27.0212C4.14401 27.9006 3.78109 29.6701 4.6719 30.9785C5.23278 31.7721 6.15658 32.2333 7.14636 32.1904L7.13537 32.2011ZM27.5909 40.8235C27.5909 39.247 28.8997 37.9708 30.5163 37.9708H36.367C37.9837 37.9708 39.2924 39.247 39.2924 40.8235V55.0977H27.5799V40.8235H27.5909Z" stroke="#3B3847" stroke-linecap="round" stroke-linejoin="round"/>
</svg>
