<svg width="71" height="71" viewBox="0 0 71 71" fill="none" xmlns="http://www.w3.org/2000/svg">
<path d="M63.1313 18.5084H10.7223C9.41298 18.5084 8.35156 19.4676 8.35156 20.6509V53.1189C8.35156 54.3022 9.41298 55.2614 10.7223 55.2614H63.1313C64.4407 55.2614 65.5021 54.3022 65.5021 53.1189V20.6509C65.5021 19.4676 64.4407 18.5084 63.1313 18.5084Z" fill="#F0A63E"/>
<path d="M60.1206 15.7296H7.71155C6.40223 15.7296 5.34082 16.6888 5.34082 17.872V50.3401C5.34082 51.5234 6.40223 52.4826 7.71155 52.4826H60.1206C61.4299 52.4826 62.4913 51.5234 62.4913 50.3401V17.872C62.4913 16.6888 61.4299 15.7296 60.1206 15.7296Z" stroke="#3B3847" stroke-linecap="round" stroke-linejoin="round"/>
<path d="M6.16895 16.2899L33.9184 33.1066" stroke="#3B3847" stroke-linecap="round" stroke-linejoin="round"/>
<path d="M61.6778 16.281L33.9185 33.1066" stroke="#3B3847" stroke-linecap="round" stroke-linejoin="round"/>
<path d="M5.79248 51.5951L28.1508 29.6105" stroke="#3B3847" stroke-linecap="round" stroke-linejoin="round"/>
<path d="M61.9905 51.6533L39.6372 29.6733" stroke="#3B3847" stroke-linecap="round" stroke-linejoin="round"/>
</svg>
