<svg width="71" height="71" viewBox="0 0 71 71" fill="none" xmlns="http://www.w3.org/2000/svg">
<path d="M61.4855 16.8674H18.2314L21.9494 39.8678C22.3731 42.4456 24.4545 44.3234 26.8801 44.3234H62.6454L62.709 44.3623L66.5434 23.2841C67.1472 19.9563 64.7162 16.8729 61.4855 16.8729V16.8674Z" fill="#F0A63E"/>
<path d="M3.97412 5.495H9.66224C12.1568 5.495 14.2964 7.3728 14.7307 9.95062L19.4284 37.6844C19.8627 40.2622 22.0024 42.14 24.4969 42.14H61.3002" stroke="#3B3847" stroke-linecap="round" stroke-linejoin="round"/>
<path d="M15.583 14.6451H58.8371C62.0678 14.6451 64.4988 17.7285 63.895 21.0563L60.0605 42.1344" stroke="#3B3847" stroke-linecap="round" stroke-linejoin="round"/>
<path d="M28.0137 65.4961C30.0905 65.4961 31.774 63.73 31.774 61.5515C31.774 59.3731 30.0905 57.607 28.0137 57.607C25.937 57.607 24.2534 59.3731 24.2534 61.5515C24.2534 63.73 25.937 65.4961 28.0137 65.4961Z" fill="#F0A63E"/>
<path d="M57.8892 65.4961C59.966 65.4961 61.6495 63.73 61.6495 61.5515C61.6495 59.3731 59.966 57.607 57.8892 57.607C55.8125 57.607 54.1289 59.3731 54.1289 61.5515C54.1289 63.73 55.8125 65.4961 57.8892 65.4961Z" fill="#F0A63E"/>
<path d="M61.3005 51.2902H20.8375C18.4277 51.2902 16.4575 49.2235 16.4575 46.6956C16.4575 44.1678 18.4277 42.1011 20.8375 42.1011H26.4568" stroke="#3B3847" stroke-linecap="round" stroke-linejoin="round"/>
<path d="M26.4249 64.3849C28.5016 64.3849 30.1852 62.6189 30.1852 60.4404C30.1852 58.2619 28.5016 56.4959 26.4249 56.4959C24.3481 56.4959 22.6646 58.2619 22.6646 60.4404C22.6646 62.6189 24.3481 64.3849 26.4249 64.3849Z" stroke="#3B3847" stroke-linecap="round" stroke-linejoin="round"/>
<path d="M56.3008 64.3849C58.3776 64.3849 60.0611 62.6189 60.0611 60.4404C60.0611 58.2619 58.3776 56.4959 56.3008 56.4959C54.2241 56.4959 52.5405 58.2619 52.5405 60.4404C52.5405 62.6189 54.2241 64.3849 56.3008 64.3849Z" stroke="#3B3847" stroke-linecap="round" stroke-linejoin="round"/>
</svg>
