<svg width="366" height="317" viewBox="0 0 366 317" fill="none" xmlns="http://www.w3.org/2000/svg">
<rect x="0.88916" y="0.514648" width="365.111" height="316.094" rx="9" fill="white"/>
<path d="M8.08594 15.9199C8.08594 11.2255 11.8915 7.41992 16.5859 7.41992H350.303C354.997 7.41992 358.803 11.2255 358.803 15.9199V299.774C358.803 304.468 354.997 308.274 350.303 308.274H16.5859C11.8915 308.274 8.08594 304.468 8.08594 299.774V157.847V15.9199Z" stroke="#E8C799"/>
<path d="M8.08691 154.919L8.08693 225.421" stroke="url(#paint0_linear_777_13802)" stroke-width="1.00563"/>
<path d="M8.06588 157.263C6.77077 157.264 5.72009 156.215 5.71912 154.921C5.71814 153.626 6.76724 152.576 8.06235 152.575C9.35746 152.574 10.4081 153.623 10.4091 154.917C10.4101 156.212 9.36099 157.262 8.06588 157.263Z" fill="#C47300"/>
<path d="M358.769 85.1188L358.769 14.6172" stroke="url(#paint1_linear_777_13802)" stroke-width="1.00563"/>
<path d="M358.748 82.7751C357.452 82.7742 356.402 83.8228 356.401 85.1173C356.4 86.4119 357.449 87.4621 358.744 87.4631C360.039 87.4641 361.09 86.4154 361.091 85.1209C361.092 83.8263 360.043 82.7761 358.748 82.7751Z" fill="#C47300"/>
<path d="M75.4927 141.903C75.9194 141.903 76.226 142.016 76.4127 142.243C76.6127 142.456 76.7127 142.736 76.7127 143.083V143.363C76.7127 143.91 76.5527 144.51 76.2327 145.163C75.9127 145.83 75.466 146.41 74.8927 146.903H73.5527C73.9527 146.476 74.2727 146.07 74.5127 145.683C74.766 145.31 74.946 144.89 75.0527 144.423C74.786 144.356 74.586 144.23 74.4527 144.043C74.3327 143.856 74.2727 143.63 74.2727 143.363V143.083C74.2727 142.736 74.366 142.456 74.5527 142.243C74.7527 142.016 75.066 141.903 75.4927 141.903ZM87.6419 136.043C87.6419 135.15 87.4219 134.516 86.9819 134.143C86.5419 133.756 85.9686 133.563 85.2619 133.563H80.0019V132.123H85.3619C86.6553 132.123 87.6286 132.463 88.2819 133.143C88.9486 133.823 89.2819 134.81 89.2819 136.103V144.243H87.6419V136.043ZM80.0019 138.243H81.6419V144.243H80.0019V138.243ZM92.7363 132.123H98.2963C99.5896 132.123 100.563 132.463 101.216 133.143C101.883 133.823 102.216 134.81 102.216 136.103V144.243H100.576V136.043C100.576 135.15 100.356 134.516 99.9163 134.143C99.4763 133.756 98.903 133.563 98.1963 133.563H94.3763V144.243H92.7363V132.123ZM110.815 133.563H104.015V129.443H105.655V132.123H112.555V133.603L108.535 144.243H106.795L110.815 133.563ZM114.028 142.803H120.428L118.208 139.443L113.588 132.123H115.548L118.948 137.763L120.828 136.863V132.123H122.468V136.143C122.468 136.716 122.361 137.156 122.148 137.463C121.948 137.756 121.594 138.03 121.088 138.283L119.688 138.963L122.208 142.803V144.243H114.028V142.803ZM133.267 136.043C133.267 135.15 133.047 134.516 132.607 134.143C132.167 133.756 131.594 133.563 130.887 133.563H125.627V132.123H130.987C132.28 132.123 133.254 132.463 133.907 133.143C134.574 133.823 134.907 134.81 134.907 136.103V144.243H133.267V136.043ZM125.627 138.243H127.267V144.243H125.627V138.243ZM137.401 142.803H143.621V133.563H137.561V132.123H143.521C144.081 132.123 144.508 132.283 144.801 132.603C145.108 132.91 145.261 133.31 145.261 133.803V142.803H146.961V144.243H137.401V142.803ZM161.763 136.043C161.763 135.15 161.543 134.516 161.103 134.143C160.663 133.756 160.09 133.563 159.383 133.563H154.123V132.123H159.483C160.776 132.123 161.75 132.463 162.403 133.143C163.07 133.823 163.403 134.81 163.403 136.103V144.243H161.763V136.043ZM154.123 138.243H155.763V144.243H154.123V138.243ZM165.837 143.263L169.657 142.663L165.837 132.123H167.597L170.017 138.803L171.197 142.283C172.157 141.883 172.851 141.196 173.277 140.223C173.717 139.25 173.937 137.976 173.937 136.403V132.123H175.557V136.203C175.557 137.43 175.444 138.503 175.217 139.423C175.004 140.33 174.657 141.103 174.177 141.743C173.711 142.383 173.097 142.896 172.337 143.283C171.591 143.67 170.684 143.95 169.617 144.123L165.837 144.723V143.263ZM177.973 142.803H184.373L182.153 139.443L177.533 132.123H179.493L182.893 137.763L184.773 136.863V132.123H186.413V136.143C186.413 136.716 186.306 137.156 186.093 137.463C185.893 137.756 185.54 138.03 185.033 138.283L183.633 138.963L186.153 142.803V144.243H177.973V142.803ZM188.612 142.803H194.832V133.563H188.772V132.123H194.732C195.292 132.123 195.719 132.283 196.012 132.603C196.319 132.91 196.472 133.31 196.472 133.803V142.803H198.172V144.243H188.612V142.803ZM200.007 142.803H201.927L201.587 139.343C201.561 139.076 201.541 138.816 201.527 138.563C201.514 138.31 201.507 138.07 201.507 137.843C201.507 137.083 201.587 136.423 201.747 135.863C201.921 135.303 202.201 134.79 202.587 134.323L203.147 133.663V133.563H200.167V132.123H206.527C207.821 132.123 208.794 132.463 209.447 133.143C210.114 133.823 210.447 134.81 210.447 136.103V144.243H208.807V136.043C208.807 135.15 208.587 134.516 208.147 134.143C207.707 133.756 207.134 133.563 206.427 133.563H203.947L203.767 133.923C203.514 134.416 203.341 134.916 203.247 135.423C203.154 135.93 203.107 136.483 203.107 137.083C203.107 137.43 203.121 137.796 203.147 138.183C203.174 138.57 203.207 138.983 203.247 139.423L203.707 144.243H200.007V142.803ZM221.548 136.043C221.548 135.15 221.328 134.516 220.888 134.143C220.448 133.756 219.875 133.563 219.168 133.563H213.908V132.123H219.268C220.562 132.123 221.535 132.463 222.188 133.143C222.855 133.823 223.188 134.81 223.188 136.103V144.243H221.548V136.043ZM213.908 138.243H215.548V144.243H213.908V138.243ZM239.009 136.043C239.009 135.15 238.789 134.516 238.349 134.143C237.909 133.756 237.336 133.563 236.629 133.563H231.369V132.123H236.729C238.022 132.123 238.996 132.463 239.649 133.143C240.316 133.823 240.649 134.81 240.649 136.103V144.243H239.009V136.043ZM231.369 138.243H233.009V144.243H231.369V138.243ZM244.103 139.783C244.103 139.21 244.203 138.776 244.403 138.483C244.617 138.176 244.977 137.896 245.483 137.643L246.843 136.983L243.703 132.123H245.643L249.503 138.243L251.463 137.303V132.123H253.103V136.583C253.103 137.156 252.997 137.596 252.783 137.903C252.583 138.196 252.23 138.47 251.723 138.723L250.363 139.383L253.503 144.243H251.563L247.703 138.123L245.743 139.063V144.243H244.103V139.783ZM256.462 132.123H258.102V138.803H256.462V132.123ZM266.887 136.043C266.887 135.15 266.667 134.516 266.227 134.143C265.787 133.756 265.213 133.563 264.507 133.563H260.267V132.123H264.607C265.9 132.123 266.873 132.463 267.527 133.143C268.193 133.823 268.527 134.81 268.527 136.103V144.243H266.887V136.043ZM280.194 133.563H271.994V132.123H281.934V133.603L277.894 144.243H276.154L280.194 133.563ZM271.994 138.243H273.634V148.243H271.994V138.243ZM291.802 136.043C291.802 135.15 291.582 134.516 291.142 134.143C290.702 133.756 290.129 133.563 289.422 133.563H284.162V132.123H289.522C290.815 132.123 291.789 132.463 292.442 133.143C293.109 133.823 293.442 134.81 293.442 136.103V144.243H291.802V136.043ZM284.162 138.243H285.802V144.243H284.162V138.243ZM112.879 166.543L112.399 160.343V156.283H114.159V160.343L113.679 166.543H112.879ZM113.279 170.483C112.852 170.483 112.539 170.376 112.339 170.163C112.152 169.95 112.059 169.67 112.059 169.323V169.063C112.059 168.716 112.152 168.436 112.339 168.223C112.539 168.01 112.852 167.903 113.279 167.903C113.705 167.903 114.012 168.01 114.199 168.223C114.399 168.436 114.499 168.716 114.499 169.063V169.323C114.499 169.67 114.399 169.95 114.199 170.163C114.012 170.376 113.705 170.483 113.279 170.483ZM123.242 163.543C123.242 162.116 122.902 161.096 122.222 160.483C121.542 159.87 120.556 159.563 119.262 159.563H116.622V158.123H119.262C121.116 158.123 122.516 158.563 123.462 159.443C124.409 160.323 124.882 161.69 124.882 163.543V174.243H123.242V163.543ZM129.134 161.243L128.594 158.123H130.234L130.574 160.223H130.674C130.954 159.543 131.381 158.983 131.954 158.543C132.528 158.103 133.274 157.883 134.194 157.883C134.728 157.883 135.214 157.97 135.654 158.143C136.108 158.316 136.494 158.59 136.814 158.963C137.148 159.323 137.401 159.79 137.574 160.363C137.761 160.923 137.854 161.596 137.854 162.383V170.243H132.674V168.803H136.214V162.743C136.214 162.476 136.201 162.15 136.174 161.763C136.148 161.376 136.048 161.01 135.874 160.663C135.714 160.303 135.454 159.996 135.094 159.743C134.734 159.49 134.228 159.363 133.574 159.363C132.948 159.363 132.441 159.476 132.054 159.703C131.681 159.93 131.394 160.196 131.194 160.503C130.994 160.81 130.854 161.123 130.774 161.443C130.694 161.75 130.641 161.983 130.614 162.143L129.214 170.243H127.574L129.134 161.243ZM141.32 158.123H142.96V170.243H141.32V158.123ZM154.716 159.563H146.516V158.123H156.456V159.603L152.416 170.243H150.676L154.716 159.563ZM146.516 164.243H148.156V174.243H146.516V164.243ZM158.581 158.123H160.221V164.803H158.581V158.123ZM164.486 161.243L163.946 158.123H165.586L165.926 160.223H166.026C166.306 159.543 166.733 158.983 167.306 158.543C167.879 158.103 168.626 157.883 169.546 157.883C170.079 157.883 170.566 157.97 171.006 158.143C171.459 158.316 171.846 158.59 172.166 158.963C172.499 159.323 172.753 159.79 172.926 160.363C173.113 160.923 173.206 161.596 173.206 162.383V170.243H168.026V168.803H171.566V162.743C171.566 162.476 171.553 162.15 171.526 161.763C171.499 161.376 171.399 161.01 171.226 160.663C171.066 160.303 170.806 159.996 170.446 159.743C170.086 159.49 169.579 159.363 168.926 159.363C168.299 159.363 167.793 159.476 167.406 159.703C167.033 159.93 166.746 160.196 166.546 160.503C166.346 160.81 166.206 161.123 166.126 161.443C166.046 161.75 165.993 161.983 165.966 162.143L164.566 170.243H162.926L164.486 161.243ZM180.798 168.803H182.718L182.378 165.343C182.352 165.076 182.332 164.816 182.318 164.563C182.305 164.31 182.298 164.07 182.298 163.843C182.298 163.083 182.378 162.423 182.538 161.863C182.712 161.303 182.992 160.79 183.378 160.323L183.938 159.663V159.563H180.958V158.123H187.318C188.612 158.123 189.585 158.463 190.238 159.143C190.905 159.823 191.238 160.81 191.238 162.103V170.243H189.598V162.043C189.598 161.15 189.378 160.516 188.938 160.143C188.498 159.756 187.925 159.563 187.218 159.563H184.738L184.558 159.923C184.305 160.416 184.132 160.916 184.038 161.423C183.945 161.93 183.898 162.483 183.898 163.083C183.898 163.43 183.912 163.796 183.938 164.183C183.965 164.57 183.998 164.983 184.038 165.423L184.498 170.243H180.798V168.803ZM194.699 165.783C194.699 165.21 194.799 164.776 194.999 164.483C195.213 164.176 195.573 163.896 196.079 163.643L197.439 162.983L194.299 158.123H196.239L200.099 164.243L202.059 163.303V158.123H203.699V162.583C203.699 163.156 203.593 163.596 203.379 163.903C203.179 164.196 202.826 164.47 202.319 164.723L200.959 165.383L204.099 170.243H202.159L198.299 164.123L196.339 165.063V170.243H194.699V165.783ZM211.984 158.123H213.624V170.243H211.984V158.123ZM216.22 168.803H219.02V160.923C219.02 160.723 219 160.543 218.96 160.383C218.933 160.21 218.86 160.063 218.74 159.943C218.633 159.823 218.46 159.73 218.22 159.663C217.993 159.596 217.68 159.563 217.28 159.563H216.36V158.123H217.4C218.04 158.123 218.566 158.183 218.98 158.303C219.406 158.41 219.74 158.583 219.98 158.823C220.233 159.05 220.406 159.336 220.5 159.683C220.606 160.016 220.66 160.41 220.66 160.863V170.243H216.22V168.803ZM223.913 158.123H225.553V164.803H223.913V158.123ZM236.558 162.043C236.558 161.15 236.338 160.516 235.898 160.143C235.458 159.756 234.885 159.563 234.178 159.563H228.918V158.123H234.278C235.571 158.123 236.545 158.463 237.198 159.143C237.865 159.823 238.198 160.81 238.198 162.103V170.243H236.558V162.043ZM228.918 164.243H230.558V170.243H228.918V164.243ZM241.452 158.123H243.092V164.803H241.452V158.123ZM245.477 158.123H251.537V159.563H249.317C249.117 159.91 248.95 160.356 248.817 160.903C248.697 161.436 248.637 162.116 248.637 162.943C248.637 163.45 248.664 164.003 248.717 164.603C248.77 165.203 248.87 165.863 249.017 166.583L249.717 170.243H248.077L247.477 167.063C247.37 166.463 247.284 165.883 247.217 165.323C247.15 164.763 247.117 164.25 247.117 163.783C247.117 162.01 247.584 160.636 248.517 159.663V159.563H245.477V158.123ZM254.035 158.123H255.675V170.243H254.035V158.123ZM86.0111 214.043C86.0111 213.15 85.7911 212.516 85.3511 212.143C84.9111 211.756 84.3377 211.563 83.6311 211.563H78.3711V210.123H83.7311C85.0244 210.123 85.9977 210.463 86.6511 211.143C87.3177 211.823 87.6511 212.81 87.6511 214.103V222.243H86.0111V214.043ZM78.3711 216.243H80.0111V222.243H78.3711V216.243ZM96.2348 211.563H89.4348V207.443H91.0748V210.123H97.9748V211.603L93.9548 222.243H92.2148L96.2348 211.563ZM108.387 211.563H100.187V210.123H110.127V211.603L106.087 222.243H104.347L108.387 211.563ZM100.187 216.243H101.827V226.243H100.187V216.243ZM119.995 214.043C119.995 213.15 119.775 212.516 119.335 212.143C118.895 211.756 118.322 211.563 117.615 211.563H112.355V210.123H117.715C119.009 210.123 119.982 210.463 120.635 211.143C121.302 211.823 121.635 212.81 121.635 214.103V222.243H119.995V214.043ZM112.355 216.243H113.995V222.243H112.355V216.243ZM129.216 220.803H131.136L130.796 217.343C130.77 217.076 130.75 216.816 130.736 216.563C130.723 216.31 130.716 216.07 130.716 215.843C130.716 215.083 130.796 214.423 130.956 213.863C131.13 213.303 131.41 212.79 131.796 212.323L132.356 211.663V211.563H129.376V210.123H135.736C137.03 210.123 138.003 210.463 138.656 211.143C139.323 211.823 139.656 212.81 139.656 214.103V222.243H138.016V214.043C138.016 213.15 137.796 212.516 137.356 212.143C136.916 211.756 136.343 211.563 135.636 211.563H133.156L132.976 211.923C132.723 212.416 132.55 212.916 132.456 213.423C132.363 213.93 132.316 214.483 132.316 215.083C132.316 215.43 132.33 215.796 132.356 216.183C132.383 216.57 132.416 216.983 132.456 217.423L132.916 222.243H129.216V220.803ZM142.157 220.803H148.377V211.563H142.317V210.123H148.277C148.837 210.123 149.264 210.283 149.557 210.603C149.864 210.91 150.017 211.31 150.017 211.803V220.803H151.717V222.243H142.157V220.803ZM153.192 220.803H156.832C157.832 220.803 158.646 220.47 159.272 219.803C159.912 219.136 160.232 218.203 160.232 217.003V215.363C160.232 214.163 159.912 213.23 159.272 212.563C158.646 211.896 157.832 211.563 156.832 211.563H153.192V210.123H156.992C157.752 210.123 158.432 210.25 159.032 210.503C159.646 210.756 160.166 211.136 160.592 211.643C161.032 212.15 161.366 212.783 161.592 213.543C161.832 214.29 161.952 215.17 161.952 216.183C161.952 217.196 161.832 218.083 161.592 218.843C161.366 219.59 161.032 220.216 160.592 220.723C160.166 221.23 159.646 221.61 159.032 221.863C158.432 222.116 157.752 222.243 156.992 222.243H153.192V220.803ZM169.592 214.043C169.592 213.15 169.372 212.516 168.932 212.143C168.492 211.756 167.919 211.563 167.212 211.563H162.972V210.123H167.312C168.605 210.123 169.579 210.463 170.232 211.143C170.899 211.823 171.232 212.81 171.232 214.103V222.243H169.592V214.043ZM182.339 214.043C182.339 213.15 182.119 212.516 181.679 212.143C181.239 211.756 180.666 211.563 179.959 211.563H174.699V210.123H180.059C181.353 210.123 182.326 210.463 182.979 211.143C183.646 211.823 183.979 212.81 183.979 214.103V222.243H182.339V214.043ZM174.699 216.243H176.339V222.243H174.699V216.243ZM197.68 211.563H190.88V207.443H192.52V210.123H199.42V211.603L195.4 222.243H193.66L197.68 211.563ZM207.373 222.483C206.253 222.483 205.306 222.343 204.533 222.063C203.773 221.77 203.153 221.33 202.673 220.743C202.193 220.143 201.846 219.396 201.633 218.503C201.433 217.61 201.333 216.55 201.333 215.323V210.123H202.973V215.783H206.573V210.123H208.193V215.563C208.193 216.043 208.046 216.443 207.753 216.763C207.473 217.07 207.053 217.223 206.493 217.223H203.053C203.213 218.543 203.633 219.51 204.313 220.123C204.993 220.723 206.013 221.023 207.373 221.023C208.173 221.023 208.846 220.923 209.393 220.723C209.953 220.523 210.406 220.21 210.753 219.783C211.113 219.343 211.373 218.79 211.533 218.123C211.693 217.456 211.773 216.656 211.773 215.723V210.123H213.413V215.323C213.413 216.55 213.306 217.61 213.093 218.503C212.893 219.396 212.553 220.143 212.073 220.743C211.593 221.33 210.966 221.77 210.193 222.063C209.433 222.343 208.493 222.483 207.373 222.483ZM220.798 220.803H222.718L222.378 217.343C222.352 217.076 222.332 216.816 222.318 216.563C222.305 216.31 222.298 216.07 222.298 215.843C222.298 215.083 222.378 214.423 222.538 213.863C222.712 213.303 222.992 212.79 223.378 212.323L223.938 211.663V211.563H220.958V210.123H227.318C228.612 210.123 229.585 210.463 230.238 211.143C230.905 211.823 231.238 212.81 231.238 214.103V222.243H229.598V214.043C229.598 213.15 229.378 212.516 228.938 212.143C228.498 211.756 227.925 211.563 227.218 211.563H224.738L224.558 211.923C224.305 212.416 224.132 212.916 224.038 213.423C223.945 213.93 223.898 214.483 223.898 215.083C223.898 215.43 223.912 215.796 223.938 216.183C223.965 216.57 223.998 216.983 224.038 217.423L224.498 222.243H220.798V220.803ZM234.699 210.123H236.339V222.243H234.699V210.123ZM239.895 210.123H241.535V222.243H239.895V210.123ZM244.35 220.803H250.75L248.53 217.443L243.91 210.123H245.87L249.27 215.763L251.15 214.863V210.123H252.79V214.143C252.79 214.716 252.683 215.156 252.47 215.463C252.27 215.756 251.916 216.03 251.41 216.283L250.01 216.963L252.53 220.803V222.243H244.35V220.803ZM266.416 222.483C265.296 222.483 264.349 222.343 263.576 222.063C262.816 221.77 262.196 221.33 261.716 220.743C261.236 220.143 260.889 219.396 260.676 218.503C260.476 217.61 260.376 216.55 260.376 215.323V210.123H262.016V215.783H265.616V210.123H267.236V215.563C267.236 216.043 267.089 216.443 266.796 216.763C266.516 217.07 266.096 217.223 265.536 217.223H262.096C262.256 218.543 262.676 219.51 263.356 220.123C264.036 220.723 265.056 221.023 266.416 221.023C267.216 221.023 267.889 220.923 268.436 220.723C268.996 220.523 269.449 220.21 269.796 219.783C270.156 219.343 270.416 218.79 270.576 218.123C270.736 217.456 270.816 216.656 270.816 215.723V210.123H272.456V215.323C272.456 216.55 272.349 217.61 272.136 218.503C271.936 219.396 271.596 220.143 271.116 220.743C270.636 221.33 270.009 221.77 269.236 222.063C268.476 222.343 267.536 222.483 266.416 222.483ZM275.515 210.123H277.155V216.803H275.515V210.123ZM280.52 217.783C280.52 217.21 280.62 216.776 280.82 216.483C281.033 216.176 281.393 215.896 281.9 215.643L283.26 214.983L280.12 210.123H282.06L285.92 216.243L287.88 215.303V210.123H289.52V214.583C289.52 215.156 289.413 215.596 289.2 215.903C289 216.196 288.646 216.47 288.14 216.723L286.78 217.383L289.92 222.243H287.98L284.12 216.123L282.16 217.063V222.243H280.52V217.783ZM88.2889 244.543L87.8089 238.343V234.283H89.5689V238.343L89.0889 244.543H88.2889ZM88.6889 248.483C88.2622 248.483 87.9489 248.376 87.7489 248.163C87.5622 247.95 87.4689 247.67 87.4689 247.323V247.063C87.4689 246.716 87.5622 246.436 87.7489 246.223C87.9489 246.01 88.2622 245.903 88.6889 245.903C89.1155 245.903 89.4222 246.01 89.6089 246.223C89.8089 246.436 89.9089 246.716 89.9089 247.063V247.323C89.9089 247.67 89.8089 247.95 89.6089 248.163C89.4222 248.376 89.1155 248.483 88.6889 248.483ZM98.6525 241.543C98.6525 240.116 98.3125 239.096 97.6325 238.483C96.9525 237.87 95.9658 237.563 94.6725 237.563H92.0325V236.123H94.6725C96.5258 236.123 97.9258 236.563 98.8725 237.443C99.8191 238.323 100.292 239.69 100.292 241.543V252.243H98.6525V241.543ZM103.445 236.123H105.085V242.803H103.445V236.123ZM108.249 236.123H109.889V242.803H108.249V236.123ZM118.774 237.563H111.974V233.443H113.614V236.123H120.514V237.603L116.494 248.243H114.754L118.774 237.563ZM122.727 243.783C122.727 243.21 122.827 242.776 123.027 242.483C123.24 242.176 123.6 241.896 124.107 241.643L125.467 240.983L122.327 236.123H124.267L128.127 242.243L130.087 241.303V236.123H131.727V240.583C131.727 241.156 131.62 241.596 131.407 241.903C131.207 242.196 130.853 242.47 130.347 242.723L128.987 243.383L132.127 248.243H130.187L126.327 242.123L124.367 243.063V248.243H122.727V243.783ZM145.352 241.543C145.352 240.116 145.012 239.096 144.332 238.483C143.652 237.87 142.665 237.563 141.372 237.563H138.732V236.123H141.372C143.225 236.123 144.625 236.563 145.572 237.443C146.518 238.323 146.992 239.69 146.992 241.543V252.243H145.352V241.543ZM155.158 240.043C155.158 239.15 154.938 238.516 154.498 238.143C154.058 237.756 153.485 237.563 152.778 237.563H148.538V236.123H152.878C154.172 236.123 155.145 236.463 155.798 237.143C156.465 237.823 156.798 238.81 156.798 240.103V248.243H155.158V240.043ZM164.44 237.563H158.46V236.123H167.78V237.563H166.08V248.243H164.44V237.563ZM169.267 246.803H175.487V237.563H169.427V236.123H175.387C175.947 236.123 176.373 236.283 176.667 236.603C176.973 236.91 177.127 237.31 177.127 237.803V246.803H178.827V248.243H169.267V246.803ZM191.408 240.043C191.408 239.15 191.188 238.516 190.748 238.143C190.308 237.756 189.735 237.563 189.028 237.563H184.788V236.123H189.128C190.422 236.123 191.395 236.463 192.048 237.143C192.715 237.823 193.048 238.81 193.048 240.103V248.243H191.408V240.043ZM197.416 239.243L196.876 236.123H198.516L198.856 238.223H198.956C199.236 237.543 199.662 236.983 200.236 236.543C200.809 236.103 201.556 235.883 202.476 235.883C203.009 235.883 203.496 235.97 203.936 236.143C204.389 236.316 204.776 236.59 205.096 236.963C205.429 237.323 205.682 237.79 205.856 238.363C206.042 238.923 206.136 239.596 206.136 240.383V248.243H200.956V246.803H204.496V240.743C204.496 240.476 204.482 240.15 204.456 239.763C204.429 239.376 204.329 239.01 204.156 238.663C203.996 238.303 203.736 237.996 203.376 237.743C203.016 237.49 202.509 237.363 201.856 237.363C201.229 237.363 200.722 237.476 200.336 237.703C199.962 237.93 199.676 238.196 199.476 238.503C199.276 238.81 199.136 239.123 199.056 239.443C198.976 239.75 198.922 239.983 198.896 240.143L197.496 248.243H195.856L197.416 239.243ZM209.002 246.803H210.922L210.582 243.343C210.555 243.076 210.535 242.816 210.522 242.563C210.508 242.31 210.502 242.07 210.502 241.843C210.502 241.083 210.582 240.423 210.742 239.863C210.915 239.303 211.195 238.79 211.582 238.323L212.142 237.663V237.563H209.162V236.123H215.522C216.815 236.123 217.788 236.463 218.442 237.143C219.108 237.823 219.442 238.81 219.442 240.103V248.243H217.802V240.043C217.802 239.15 217.582 238.516 217.142 238.143C216.702 237.756 216.128 237.563 215.422 237.563H212.942L212.762 237.923C212.508 238.416 212.335 238.916 212.242 239.423C212.148 239.93 212.102 240.483 212.102 241.083C212.102 241.43 212.115 241.796 212.142 242.183C212.168 242.57 212.202 242.983 212.242 243.423L212.702 248.243H209.002V246.803ZM222.702 236.123H224.342V242.803H222.702V236.123ZM227.707 243.783C227.707 243.21 227.807 242.776 228.007 242.483C228.22 242.176 228.58 241.896 229.087 241.643L230.447 240.983L227.307 236.123H229.247L233.107 242.243L235.067 241.303V236.123H236.707V240.583C236.707 241.156 236.6 241.596 236.387 241.903C236.187 242.196 235.834 242.47 235.327 242.723L233.967 243.383L237.107 248.243H235.167L231.307 242.123L229.347 243.063V248.243H227.707V243.783ZM244.992 236.123H250.552C251.845 236.123 252.819 236.463 253.472 237.143C254.139 237.823 254.472 238.81 254.472 240.103V248.243H244.992V236.123ZM252.832 246.803V240.043C252.832 239.15 252.612 238.516 252.172 238.143C251.732 237.756 251.159 237.563 250.452 237.563H246.632V246.803H252.832ZM263.681 248.483C262.561 248.483 261.615 248.343 260.841 248.063C260.081 247.77 259.461 247.33 258.981 246.743C258.501 246.143 258.155 245.396 257.941 244.503C257.741 243.61 257.641 242.55 257.641 241.323V236.123H259.281V241.783H262.881V236.123H264.501V241.563C264.501 242.043 264.355 242.443 264.061 242.763C263.781 243.07 263.361 243.223 262.801 243.223H259.361C259.521 244.543 259.941 245.51 260.621 246.123C261.301 246.723 262.321 247.023 263.681 247.023C264.481 247.023 265.155 246.923 265.701 246.723C266.261 246.523 266.715 246.21 267.061 245.783C267.421 245.343 267.681 244.79 267.841 244.123C268.001 243.456 268.081 242.656 268.081 241.723V236.123H269.721V241.323C269.721 242.55 269.615 243.61 269.401 244.503C269.201 245.396 268.861 246.143 268.381 246.743C267.901 247.33 267.275 247.77 266.501 248.063C265.741 248.343 264.801 248.483 263.681 248.483ZM271.825 246.803H278.045V237.563H271.985V236.123H277.945C278.505 236.123 278.932 236.283 279.225 236.603C279.532 236.91 279.685 237.31 279.685 237.803V246.803H281.385V248.243H271.825V246.803Z" fill="black"/>
<path d="M67.6851 75.239C67.6851 73.9357 67.3707 72.962 66.7421 72.318C66.1287 71.674 65.1551 71.352 63.8211 71.352H60.3251V69.098H63.8901C65.8987 69.098 67.4551 69.5657 68.5591 70.501C69.6784 71.4364 70.2381 72.9314 70.2381 74.986V87.682H67.6851V75.239ZM79.1412 73.836C79.1412 72.9774 78.9265 72.3487 78.4972 71.95C78.0679 71.5514 77.4622 71.352 76.6802 71.352H71.8272V69.098H76.8412C78.4512 69.098 79.6625 69.489 80.4752 70.271C81.2879 71.053 81.6942 72.1877 81.6942 73.675V83.082H79.1412V73.836ZM90.0865 71.352H83.4395V69.098H94.5485V71.352H92.6395V83.082H90.0865V71.352ZM96.069 80.828H102.923V71.352H96.184V69.098H102.877C103.751 69.098 104.403 69.328 104.832 69.788C105.261 70.2327 105.476 70.846 105.476 71.628V80.828H107.385V83.082H96.069V80.828ZM123.99 73.629C123.99 72.847 123.79 72.272 123.392 71.904C122.993 71.536 122.464 71.352 121.805 71.352H115.365V69.098H122.15C123.576 69.098 124.664 69.4814 125.416 70.248C126.167 71.0147 126.543 72.0957 126.543 73.491V83.082H123.99V73.629ZM115.365 75.837H117.918V83.082H115.365V75.837ZM135.586 73.836C135.586 72.9774 135.371 72.3487 134.942 71.95C134.512 71.5514 133.907 71.352 133.125 71.352H128.272V69.098H133.286C134.896 69.098 136.107 69.489 136.92 70.271C137.732 71.053 138.139 72.1877 138.139 73.675V83.082H135.586V73.836ZM140.743 69.098H148.195V71.352H145.55C145.29 71.7814 145.098 72.2414 144.975 72.732C144.853 73.2074 144.791 73.8054 144.791 74.526C144.791 75.5227 144.937 76.8184 145.228 78.413L146.102 83.082H143.549L142.859 79.356C142.645 78.1907 142.537 77.1557 142.537 76.251C142.537 74.135 143.166 72.548 144.423 71.49V71.352H140.743V69.098ZM149.659 81.357L153.753 80.805L149.659 69.098H152.281L154.673 75.906L156.076 80.276C157.012 79.8467 157.694 79.1414 158.123 78.16C158.553 77.1634 158.767 75.8524 158.767 74.227V69.098H161.32V73.974C161.32 75.4767 161.159 76.7647 160.837 77.838C160.515 78.896 160.048 79.7854 159.434 80.506C158.821 81.2114 158.077 81.771 157.203 82.185C156.329 82.5837 155.333 82.8597 154.213 83.013L149.659 83.634V81.357ZM173.247 73.629C173.247 72.847 173.047 72.272 172.649 71.904C172.25 71.536 171.721 71.352 171.062 71.352H164.622V69.098H171.407C172.833 69.098 173.921 69.4814 174.673 70.248C175.424 71.0147 175.8 72.0957 175.8 73.491V83.082H173.247V73.629ZM164.622 75.837H167.175V83.082H164.622V75.837ZM186.33 79.885C186.898 79.885 187.319 80.0307 187.595 80.322C187.871 80.6134 188.009 80.989 188.009 81.449V81.817C188.009 82.5684 187.802 83.3504 187.388 84.163C186.99 84.991 186.445 85.6887 185.755 86.256H183.892C184.383 85.7654 184.789 85.29 185.111 84.83C185.433 84.37 185.679 83.8564 185.847 83.289C185.449 83.2124 185.15 83.0437 184.95 82.783C184.751 82.507 184.651 82.185 184.651 81.817V81.449C184.651 80.989 184.789 80.6134 185.065 80.322C185.341 80.0307 185.763 79.885 186.33 79.885ZM195.136 71.352H188.489V69.098H199.598V71.352H197.689V83.082H195.136V71.352ZM201.119 80.828H207.973V71.352H201.234V69.098H207.927C208.801 69.098 209.453 69.328 209.882 69.788C210.311 70.2327 210.526 70.846 210.526 71.628V80.828H212.435V83.082H201.119V80.828ZM221.235 71.352H213.645V66.062H216.198V69.098H223.926V71.444L219.51 83.082H216.796L221.235 71.352ZM231.735 77.999C231.735 77.2017 231.888 76.596 232.195 76.182C232.517 75.7527 233.015 75.377 233.69 75.055L234.748 74.526L231.367 69.098H234.38L238.612 75.975L240.406 75.101V69.098H242.936V74.181C242.936 74.5797 242.898 74.9324 242.821 75.239C242.744 75.5304 242.622 75.791 242.453 76.021C242.3 76.251 242.1 76.458 241.855 76.642C241.61 76.8107 241.318 76.9717 240.981 77.125L239.923 77.654L243.304 83.082H240.291L236.059 76.205L234.265 77.079V83.082H231.735V77.999ZM252.95 71.352H245.36V66.062H247.913V69.098H255.641V71.444L251.225 83.082H248.511L252.95 71.352ZM263.45 69.098H270.603C272.029 69.098 273.117 69.4814 273.869 70.248C274.62 71.0147 274.996 72.0957 274.996 73.491V83.082H263.45V69.098ZM272.443 80.828V73.629C272.443 72.847 272.236 72.272 271.822 71.904C271.423 71.536 270.894 71.352 270.235 71.352H266.003V80.828H272.443ZM278.035 80.828H280.036L279.714 77.539C279.683 77.2784 279.66 77.0254 279.645 76.78C279.629 76.5347 279.622 76.3047 279.622 76.09C279.622 75.1394 279.767 74.3497 280.059 73.721C280.35 73.0924 280.764 72.525 281.301 72.019L281.853 71.49V71.352H278.15V69.098H285.464C287.074 69.098 288.285 69.489 289.098 70.271C289.91 71.053 290.317 72.1877 290.317 73.675V83.082H287.764V73.836C287.764 72.9774 287.549 72.3487 287.12 71.95C286.69 71.5514 286.085 71.352 285.303 71.352H282.957L282.796 71.674C282.535 72.1647 282.351 72.6707 282.244 73.192C282.136 73.7134 282.083 74.296 282.083 74.94C282.083 75.3387 282.098 75.7604 282.129 76.205C282.159 76.6497 282.198 77.1174 282.244 77.608L282.773 83.082H278.035V80.828ZM293.974 77.999C293.974 77.2017 294.127 76.596 294.434 76.182C294.756 75.7527 295.254 75.377 295.929 75.055L296.987 74.526L293.606 69.098H296.619L300.851 75.975L302.645 75.101V69.098H305.175V74.181C305.175 74.5797 305.137 74.9324 305.06 75.239C304.983 75.5304 304.861 75.791 304.692 76.021C304.539 76.251 304.339 76.458 304.094 76.642C303.849 76.8107 303.557 76.9717 303.22 77.125L302.162 77.654L305.543 83.082H302.53L298.298 76.205L296.504 77.079V83.082H293.974V77.999Z" fill="#C57300"/>
<path d="M32.4275 43.8541C39.7298 43.8541 45.6495 37.9344 45.6495 30.6321C45.6495 23.3298 39.7298 17.4102 32.4275 17.4102C25.1252 17.4102 19.2056 23.3298 19.2056 30.6321C19.2056 37.9344 25.1252 43.8541 32.4275 43.8541Z" fill="#F1A73D"/>
<path d="M26.8878 23.6387L39.4209 36.1718" stroke="white" stroke-width="0.583751" stroke-linecap="round" stroke-linejoin="round"/>
<path d="M38.6912 24.3682L26.1581 36.9013" stroke="white" stroke-width="0.583751" stroke-linecap="round" stroke-linejoin="round"/>
<path d="M31.5928 42.6871C38.8951 42.6871 44.8148 36.7674 44.8148 29.4651C44.8148 22.1628 38.8951 16.2432 31.5928 16.2432C24.2905 16.2432 18.3708 22.1628 18.3708 29.4651C18.3708 36.7674 24.2905 42.6871 31.5928 42.6871Z" stroke="#3B3847" stroke-width="0.583751" stroke-linecap="round" stroke-linejoin="round"/>
<path d="M25.3291 23.2012L37.8622 35.7343" stroke="#3B3847" stroke-width="0.583751" stroke-linecap="round" stroke-linejoin="round"/>
<path d="M37.8622 23.2012L25.3291 35.7343" stroke="#3B3847" stroke-width="0.583751" stroke-linecap="round" stroke-linejoin="round"/>
<defs>
<linearGradient id="paint0_linear_777_13802" x1="7.51794" y1="225.418" x2="7.78766" y2="155.207" gradientUnits="userSpaceOnUse">
<stop stop-color="white" stop-opacity="0"/>
<stop offset="1" stop-color="#C47300"/>
</linearGradient>
<linearGradient id="paint1_linear_777_13802" x1="358.2" y1="14.6205" x2="358.469" y2="84.8308" gradientUnits="userSpaceOnUse">
<stop stop-color="#FAFAFA" stop-opacity="0"/>
<stop offset="1" stop-color="#C47300"/>
</linearGradient>
</defs>
</svg>
