<svg width="366" height="317" viewBox="0 0 366 317" fill="none" xmlns="http://www.w3.org/2000/svg">
<rect x="0.890137" y="0.0375977" width="365.11" height="316.09" rx="9" fill="white"/>
<path d="M16.3955 6.53467H350.113C354.807 6.53467 358.613 10.3402 358.613 15.0347V298.889C358.613 303.583 354.807 307.389 350.113 307.389H16.3955C11.7011 307.389 7.89551 303.583 7.89551 298.889V156.962V15.0347C7.89551 10.3403 11.7011 6.53467 16.3955 6.53467Z" stroke="#000740" stroke-opacity="0.4"/>
<path d="M7.9917 152.587L7.99168 234.187" stroke="url(#paint0_linear_1406_9687)" stroke-width="1.00563"/>
<path d="M7.9896 154.909C9.27482 154.91 10.3175 153.871 10.3184 152.589C10.3194 151.306 9.27833 150.266 7.99311 150.265C6.70789 150.264 5.66523 151.303 5.66426 152.585C5.6633 153.867 6.70439 154.908 7.9896 154.909Z" fill="#383A49"/>
<path d="M358.755 97.8876L358.755 16.2871" stroke="url(#paint1_linear_1406_9687)" stroke-width="1.00563"/>
<path d="M358.757 95.5658C357.472 95.5648 356.43 96.6036 356.429 97.886C356.428 99.1684 357.469 100.209 358.754 100.21C360.039 100.211 361.082 99.1719 361.083 97.8895C361.084 96.6071 360.043 95.5668 358.757 95.5658Z" fill="#383A49"/>
<path d="M87.4349 134.792H92.1609C93.2602 134.792 94.0875 135.081 94.6429 135.659C95.2095 136.237 95.4929 137.076 95.4929 138.175V145.094H87.4349V134.792ZM94.0989 143.87V138.124C94.0989 137.365 93.9119 136.827 93.5379 136.509C93.1639 136.181 92.6765 136.016 92.0759 136.016H88.8289V143.87H94.0989ZM97.6257 143.87H100.72C101.57 143.87 102.261 143.587 102.794 143.02C103.338 142.454 103.61 141.66 103.61 140.64V139.246C103.61 138.226 103.338 137.433 102.794 136.866C102.261 136.3 101.57 136.016 100.72 136.016H97.6257V134.792H100.856C101.502 134.792 102.08 134.9 102.59 135.115C103.111 135.331 103.553 135.654 103.916 136.084C104.29 136.515 104.573 137.053 104.766 137.699C104.97 138.334 105.072 139.082 105.072 139.943C105.072 140.805 104.97 141.558 104.766 142.204C104.573 142.839 104.29 143.372 103.916 143.802C103.553 144.233 103.111 144.556 102.59 144.771C102.08 144.987 101.502 145.094 100.856 145.094H97.6257V143.87ZM108.238 137.444L107.779 134.792H109.173L109.462 136.577H109.547C109.785 135.999 110.148 135.523 110.635 135.149C111.122 134.775 111.757 134.588 112.539 134.588C112.992 134.588 113.406 134.662 113.78 134.809C114.165 134.957 114.494 135.189 114.766 135.506C115.049 135.812 115.265 136.209 115.412 136.696C115.571 137.172 115.65 137.745 115.65 138.413V145.094H111.247V143.87H114.256V138.719C114.256 138.493 114.245 138.215 114.222 137.886C114.199 137.558 114.114 137.246 113.967 136.951C113.831 136.645 113.61 136.385 113.304 136.169C112.998 135.954 112.567 135.846 112.012 135.846C111.479 135.846 111.049 135.943 110.72 136.135C110.403 136.328 110.159 136.555 109.989 136.815C109.819 137.076 109.7 137.342 109.632 137.614C109.564 137.875 109.519 138.073 109.496 138.209L108.306 145.094H106.912L108.238 137.444ZM118.596 134.792H119.99V145.094H118.596V134.792ZM129.982 136.016H123.012V134.792H131.461V136.05L128.027 145.094H126.548L129.982 136.016ZM123.012 139.994H124.406V148.494H123.012V139.994ZM133.268 134.792H134.662V140.47H133.268V134.792ZM138.287 137.444L137.828 134.792H139.222L139.511 136.577H139.596C139.834 135.999 140.196 135.523 140.684 135.149C141.171 134.775 141.806 134.588 142.588 134.588C143.041 134.588 143.455 134.662 143.829 134.809C144.214 134.957 144.543 135.189 144.815 135.506C145.098 135.812 145.313 136.209 145.461 136.696C145.619 137.172 145.699 137.745 145.699 138.413V145.094H141.296V143.87H144.305V138.719C144.305 138.493 144.293 138.215 144.271 137.886C144.248 137.558 144.163 137.246 144.016 136.951C143.88 136.645 143.659 136.385 143.353 136.169C143.047 135.954 142.616 135.846 142.061 135.846C141.528 135.846 141.097 135.943 140.769 136.135C140.451 136.328 140.208 136.555 140.038 136.815C139.868 137.076 139.749 137.342 139.681 137.614C139.613 137.875 139.567 138.073 139.545 138.209L138.355 145.094H136.961L138.287 137.444ZM152.152 143.87H153.784L153.495 140.929C153.473 140.703 153.456 140.482 153.444 140.266C153.433 140.051 153.427 139.847 153.427 139.654C153.427 139.008 153.495 138.447 153.631 137.971C153.779 137.495 154.017 137.059 154.345 136.662L154.821 136.101V136.016H152.288V134.792H157.694C158.794 134.792 159.621 135.081 160.176 135.659C160.743 136.237 161.026 137.076 161.026 138.175V145.094H159.632V138.124C159.632 137.365 159.445 136.827 159.071 136.509C158.697 136.181 158.21 136.016 157.609 136.016H155.501L155.348 136.322C155.133 136.742 154.986 137.167 154.906 137.597C154.827 138.028 154.787 138.498 154.787 139.008C154.787 139.303 154.799 139.615 154.821 139.943C154.844 140.272 154.872 140.623 154.906 140.997L155.297 145.094H152.152V143.87ZM163.968 141.303C163.968 140.816 164.053 140.448 164.223 140.198C164.404 139.938 164.71 139.7 165.141 139.484L166.297 138.923L163.628 134.792H165.277L168.558 139.994L170.224 139.195V134.792H171.618V138.583C171.618 139.071 171.527 139.445 171.346 139.705C171.176 139.955 170.876 140.187 170.445 140.402L169.289 140.963L171.958 145.094H170.309L167.028 139.892L165.362 140.691V145.094H163.968V141.303ZM183.267 138.124C183.267 137.365 183.08 136.827 182.706 136.509C182.332 136.181 181.845 136.016 181.244 136.016H177.64V134.792H181.329C182.429 134.792 183.256 135.081 183.811 135.659C184.378 136.237 184.661 137.076 184.661 138.175V145.094H183.267V138.124ZM187.099 143.87H188.731L188.442 140.929C188.419 140.703 188.402 140.482 188.391 140.266C188.379 140.051 188.374 139.847 188.374 139.654C188.374 139.008 188.442 138.447 188.578 137.971C188.725 137.495 188.963 137.059 189.292 136.662L189.768 136.101V136.016H187.235V134.792H192.641C193.74 134.792 194.567 135.081 195.123 135.659C195.689 136.237 195.973 137.076 195.973 138.175V145.094H194.579V138.124C194.579 137.365 194.392 136.827 194.018 136.509C193.644 136.181 193.156 136.016 192.556 136.016H190.448L190.295 136.322C190.079 136.742 189.932 137.167 189.853 137.597C189.773 138.028 189.734 138.498 189.734 139.008C189.734 139.303 189.745 139.615 189.768 139.943C189.79 140.272 189.819 140.623 189.853 140.997L190.244 145.094H187.099V143.87ZM198.914 141.303C198.914 140.816 198.999 140.448 199.169 140.198C199.351 139.938 199.657 139.7 200.087 139.484L201.243 138.923L198.574 134.792H200.223L203.504 139.994L205.17 139.195V134.792H206.564V138.583C206.564 139.071 206.474 139.445 206.292 139.705C206.122 139.955 205.822 140.187 205.391 140.402L204.235 140.963L206.904 145.094H205.255L201.974 139.892L200.308 140.691V145.094H198.914V141.303ZM214.281 136.016H208.501V132.514H209.895V134.792H215.76V136.05L212.343 145.094H210.864L214.281 136.016ZM226.351 136.016H220.571V132.514H221.965V134.792H227.83V136.05L224.413 145.094H222.934L226.351 136.016ZM228.894 143.87H231.988C232.838 143.87 233.53 143.587 234.062 143.02C234.606 142.454 234.878 141.66 234.878 140.64V139.246C234.878 138.226 234.606 137.433 234.062 136.866C233.53 136.3 232.838 136.016 231.988 136.016H228.894V134.792H232.124C232.77 134.792 233.348 134.9 233.858 135.115C234.38 135.331 234.822 135.654 235.184 136.084C235.558 136.515 235.842 137.053 236.034 137.699C236.238 138.334 236.34 139.082 236.34 139.943C236.34 140.805 236.238 141.558 236.034 142.204C235.842 142.839 235.558 143.372 235.184 143.802C234.822 144.233 234.38 144.556 233.858 144.771C233.348 144.987 232.77 145.094 232.124 145.094H228.894V143.87ZM238.742 134.792H240.136V145.094H238.742V134.792ZM242.342 143.87H244.722V137.172C244.722 137.002 244.705 136.849 244.671 136.713C244.648 136.566 244.586 136.441 244.484 136.339C244.393 136.237 244.246 136.158 244.042 136.101C243.849 136.045 243.583 136.016 243.243 136.016H242.461V134.792H243.345C243.889 134.792 244.336 134.843 244.688 134.945C245.05 135.036 245.334 135.183 245.538 135.387C245.753 135.58 245.9 135.824 245.98 136.118C246.07 136.402 246.116 136.736 246.116 137.121V145.094H242.342V143.87ZM253.93 145.298C252.978 145.298 252.173 145.179 251.516 144.941C250.87 144.692 250.343 144.318 249.935 143.819C249.527 143.309 249.232 142.675 249.051 141.915C248.881 141.156 248.796 140.255 248.796 139.212V134.792H250.19V139.603H253.25V134.792H254.627V139.416C254.627 139.824 254.502 140.164 254.253 140.436C254.015 140.697 253.658 140.827 253.182 140.827H250.258C250.394 141.949 250.751 142.771 251.329 143.292C251.907 143.802 252.774 144.057 253.93 144.057C254.61 144.057 255.182 143.972 255.647 143.802C256.123 143.632 256.508 143.366 256.803 143.003C257.109 142.629 257.33 142.159 257.466 141.592C257.602 141.026 257.67 140.346 257.67 139.552V134.792H259.064V139.212C259.064 140.255 258.973 141.156 258.792 141.915C258.622 142.675 258.333 143.309 257.925 143.819C257.517 144.318 256.984 144.692 256.327 144.941C255.681 145.179 254.882 145.298 253.93 145.298ZM265.682 134.792H267.076V140.47H265.682V134.792ZM273.999 136.016H268.916V134.792H276.838V136.016H275.393V145.094H273.999V136.016ZM278.101 143.87H281.195C282.045 143.87 282.737 143.587 283.269 143.02C283.813 142.454 284.085 141.66 284.085 140.64V139.246C284.085 138.226 283.813 137.433 283.269 136.866C282.737 136.3 282.045 136.016 281.195 136.016H278.101V134.792H281.331C281.977 134.792 282.555 134.9 283.065 135.115C283.587 135.331 284.029 135.654 284.391 136.084C284.765 136.515 285.049 137.053 285.241 137.699C285.445 138.334 285.547 139.082 285.547 139.943C285.547 140.805 285.445 141.558 285.241 142.204C285.049 142.839 284.765 143.372 284.391 143.802C284.029 144.233 283.587 144.556 283.065 144.771C282.555 144.987 281.977 145.094 281.331 145.094H278.101V143.87ZM116.028 165.016H109.058V163.792H117.507V165.05L114.073 174.094H112.594L116.028 165.016ZM109.058 168.994H110.452V177.494H109.058V168.994ZM119.314 163.792H120.708V169.47H119.314V163.792ZM123.568 163.792H124.962V174.094H123.568V163.792ZM132.047 165.016H126.964V163.792H134.886V165.016H133.441V174.094H132.047V165.016ZM137.731 166.444L137.272 163.792H138.666L138.955 165.577H139.04C139.278 164.999 139.64 164.523 140.128 164.149C140.615 163.775 141.25 163.588 142.032 163.588C142.485 163.588 142.899 163.662 143.273 163.809C143.658 163.957 143.987 164.189 144.259 164.506C144.542 164.812 144.757 165.209 144.905 165.696C145.063 166.172 145.143 166.745 145.143 167.413V174.094H140.74V172.87H143.749V167.719C143.749 167.493 143.737 167.215 143.715 166.886C143.692 166.558 143.607 166.246 143.46 165.951C143.324 165.645 143.103 165.385 142.797 165.169C142.491 164.954 142.06 164.846 141.505 164.846C140.972 164.846 140.541 164.943 140.213 165.135C139.895 165.328 139.652 165.555 139.482 165.815C139.312 166.076 139.193 166.342 139.125 166.614C139.057 166.875 139.011 167.073 138.989 167.209L137.799 174.094H136.405L137.731 166.444ZM156.118 174.298C155.314 174.298 154.634 174.196 154.078 173.992C153.534 173.788 153.098 173.477 152.769 173.057C152.441 172.638 152.203 172.111 152.055 171.476C151.919 170.842 151.851 170.094 151.851 169.232V163.792H153.245V169.572C153.245 170.74 153.455 171.612 153.874 172.19C154.305 172.768 155.053 173.057 156.118 173.057C157.184 173.057 157.926 172.768 158.345 172.19C158.776 171.612 158.991 170.74 158.991 169.572V167.124C158.991 166.365 158.804 165.827 158.43 165.509C158.056 165.181 157.569 165.016 156.968 165.016H155.982V163.792H157.053C158.153 163.792 158.98 164.081 159.535 164.659C160.102 165.237 160.385 166.076 160.385 167.175V169.232C160.385 170.094 160.312 170.842 160.164 171.476C160.028 172.111 159.79 172.638 159.45 173.057C159.122 173.477 158.685 173.788 158.141 173.992C157.597 174.196 156.923 174.298 156.118 174.298ZM163.063 163.792H164.457V174.094H163.063V163.792ZM167.479 163.792H168.873V174.094H167.479V163.792ZM171.725 163.792H173.119V169.47H171.725V163.792ZM175.163 172.87H177.543V166.172C177.543 166.002 177.526 165.849 177.492 165.713C177.47 165.566 177.407 165.441 177.305 165.339C177.215 165.237 177.067 165.158 176.863 165.101C176.671 165.045 176.404 165.016 176.064 165.016H175.282V163.792H176.166C176.71 163.792 177.158 163.843 177.509 163.945C177.872 164.036 178.155 164.183 178.359 164.387C178.575 164.58 178.722 164.824 178.801 165.118C178.892 165.402 178.937 165.736 178.937 166.121V174.094H175.163V172.87ZM185.89 163.792H190.616C191.716 163.792 192.543 164.081 193.098 164.659C193.665 165.237 193.948 166.076 193.948 167.175V174.094H185.89V163.792ZM192.554 172.87V167.124C192.554 166.365 192.367 165.827 191.993 165.509C191.619 165.181 191.132 165.016 190.531 165.016H187.284V172.87H192.554ZM196.081 172.87H199.175C200.025 172.87 200.717 172.587 201.249 172.02C201.793 171.454 202.065 170.66 202.065 169.64V168.246C202.065 167.226 201.793 166.433 201.249 165.866C200.717 165.3 200.025 165.016 199.175 165.016H196.081V163.792H199.311C199.957 163.792 200.535 163.9 201.045 164.115C201.567 164.331 202.009 164.654 202.371 165.084C202.745 165.515 203.029 166.053 203.221 166.699C203.425 167.334 203.527 168.082 203.527 168.943C203.527 169.805 203.425 170.558 203.221 171.204C203.029 171.839 202.745 172.372 202.371 172.802C202.009 173.233 201.567 173.556 201.045 173.771C200.535 173.987 199.957 174.094 199.311 174.094H196.081V172.87ZM210.621 165.016H204.841V161.514H206.235V163.792H212.1V165.05L208.683 174.094H207.204L210.621 165.016ZM224.968 165.016H217.998V163.792H226.447V165.05L223.013 174.094H221.534L224.968 165.016ZM217.998 168.994H219.392V177.494H217.998V168.994ZM228.341 172.87H232.183C233.033 172.87 233.724 172.587 234.257 172.02C234.801 171.454 235.073 170.66 235.073 169.64V168.246C235.073 167.226 234.801 166.433 234.257 165.866C233.724 165.3 233.033 165.016 232.183 165.016H229.735V168.603H232.098V169.827H229.82C229.344 169.827 228.975 169.691 228.715 169.419C228.465 169.147 228.341 168.802 228.341 168.382V163.792H232.319C232.965 163.792 233.543 163.9 234.053 164.115C234.574 164.331 235.016 164.654 235.379 165.084C235.753 165.515 236.036 166.053 236.229 166.699C236.433 167.334 236.535 168.082 236.535 168.943C236.535 169.805 236.433 170.558 236.229 171.204C236.036 171.839 235.753 172.372 235.379 172.802C235.016 173.233 234.574 173.556 234.053 173.771C233.543 173.987 232.965 174.094 232.319 174.094H228.341V172.87ZM238.303 163.792H243.233C243.879 163.792 244.457 163.9 244.967 164.115C245.489 164.331 245.931 164.654 246.293 165.084C246.667 165.515 246.951 166.053 247.143 166.699C247.347 167.334 247.449 168.082 247.449 168.943C247.449 169.816 247.336 170.587 247.109 171.255C246.894 171.913 246.588 172.468 246.191 172.921C245.795 173.375 245.319 173.72 244.763 173.958C244.219 174.185 243.613 174.298 242.944 174.298C242.276 174.298 241.664 174.185 241.108 173.958C240.553 173.72 240.077 173.375 239.68 172.921C239.284 172.468 238.972 171.913 238.745 171.255C238.53 170.587 238.422 169.816 238.422 168.943C238.422 168.467 238.479 168.02 238.592 167.6C238.717 167.181 238.87 166.807 239.051 166.478C239.244 166.15 239.459 165.866 239.697 165.628C239.935 165.39 240.168 165.215 240.394 165.101V165.016H238.303V163.792ZM242.944 173.057C243.386 173.057 243.789 172.978 244.151 172.819C244.525 172.661 244.848 172.44 245.12 172.156C245.392 171.862 245.602 171.51 245.749 171.102C245.908 170.694 245.987 170.241 245.987 169.742V168.246C245.987 167.226 245.715 166.433 245.171 165.866C244.639 165.3 243.947 165.016 243.097 165.016H241.074C240.644 165.424 240.338 165.917 240.156 166.495C239.975 167.073 239.884 167.697 239.884 168.365V169.742C239.884 170.241 239.958 170.694 240.105 171.102C240.264 171.51 240.479 171.862 240.751 172.156C241.023 172.44 241.346 172.661 241.72 172.819C242.094 172.978 242.502 173.057 242.944 173.057ZM254.532 165.016H248.752V161.514H250.146V163.792H256.011V165.05L252.594 174.094H251.115L254.532 165.016ZM257.891 163.792H259.285V174.094H257.891V163.792ZM55.7674 192.792H60.4934C61.5927 192.792 62.4201 193.081 62.9754 193.659C63.5421 194.237 63.8254 195.076 63.8254 196.175V203.094H55.7674V192.792ZM62.4314 201.87V196.124C62.4314 195.365 62.2444 194.827 61.8704 194.509C61.4964 194.181 61.0091 194.016 60.4084 194.016H57.1614V201.87H62.4314ZM66.7742 192.792H68.1682V203.094H66.7742V192.792ZM78.1602 194.016H71.1902V192.792H79.6392V194.05L76.2052 203.094H74.7262L78.1602 194.016ZM71.1902 197.994H72.5842V206.494H71.1902V197.994ZM81.446 192.792H82.84V198.47H81.446V192.792ZM86.465 195.444L86.006 192.792H87.4L87.689 194.577H87.774C88.012 193.999 88.3747 193.523 88.862 193.149C89.3493 192.775 89.984 192.588 90.766 192.588C91.2193 192.588 91.633 192.662 92.007 192.809C92.3923 192.957 92.721 193.189 92.993 193.506C93.2763 193.812 93.4917 194.209 93.639 194.696C93.7977 195.172 93.877 195.745 93.877 196.413V203.094H89.474V201.87H92.483V196.719C92.483 196.493 92.4717 196.215 92.449 195.886C92.4263 195.558 92.3413 195.246 92.194 194.951C92.058 194.645 91.837 194.385 91.531 194.169C91.225 193.954 90.7943 193.846 90.239 193.846C89.7063 193.846 89.2757 193.943 88.947 194.135C88.6297 194.328 88.386 194.555 88.216 194.815C88.046 195.076 87.927 195.342 87.859 195.614C87.791 195.875 87.7457 196.073 87.723 196.209L86.533 203.094H85.139L86.465 195.444ZM100.671 192.792H102.065V198.47H100.671V192.792ZM104.415 201.87H106.047L105.758 198.929C105.735 198.703 105.718 198.482 105.707 198.266C105.695 198.051 105.69 197.847 105.69 197.654C105.69 197.008 105.758 196.447 105.894 195.971C106.041 195.495 106.279 195.059 106.608 194.662L107.084 194.101V194.016H104.551V192.792H109.957C111.056 192.792 111.883 193.081 112.439 193.659C113.005 194.237 113.289 195.076 113.289 196.175V203.094H111.895V196.124C111.895 195.365 111.708 194.827 111.334 194.509C110.96 194.181 110.472 194.016 109.872 194.016H107.764L107.611 194.322C107.395 194.742 107.248 195.167 107.169 195.597C107.089 196.028 107.05 196.498 107.05 197.008C107.05 197.303 107.061 197.615 107.084 197.943C107.106 198.272 107.135 198.623 107.169 198.997L107.56 203.094H104.415V201.87ZM116.23 192.792H117.624V203.094H116.23V192.792ZM125.253 196.124C125.253 195.365 125.066 194.827 124.692 194.509C124.318 194.181 123.831 194.016 123.23 194.016H119.626V192.792H123.315C124.415 192.792 125.242 193.081 125.797 193.659C126.364 194.237 126.647 195.076 126.647 196.175V203.094H125.253V196.124ZM129.425 192.792H130.819V198.47H129.425V192.792ZM138.558 203.298C137.606 203.298 136.801 203.179 136.144 202.941C135.498 202.692 134.971 202.318 134.563 201.819C134.155 201.309 133.86 200.675 133.679 199.915C133.509 199.156 133.424 198.255 133.424 197.212V192.792H134.818V197.603H137.878V192.792H139.255V197.416C139.255 197.824 139.13 198.164 138.881 198.436C138.643 198.697 138.286 198.827 137.81 198.827H134.886C135.022 199.949 135.379 200.771 135.957 201.292C136.535 201.802 137.402 202.057 138.558 202.057C139.238 202.057 139.81 201.972 140.275 201.802C140.751 201.632 141.136 201.366 141.431 201.003C141.737 200.629 141.958 200.159 142.094 199.592C142.23 199.026 142.298 198.346 142.298 197.552V192.792H143.692V197.212C143.692 198.255 143.601 199.156 143.42 199.915C143.25 200.675 142.961 201.309 142.553 201.819C142.145 202.318 141.612 202.692 140.955 202.941C140.309 203.179 139.51 203.298 138.558 203.298ZM149.969 201.87H151.601L151.312 198.929C151.29 198.703 151.273 198.482 151.261 198.266C151.25 198.051 151.244 197.847 151.244 197.654C151.244 197.008 151.312 196.447 151.448 195.971C151.596 195.495 151.834 195.059 152.162 194.662L152.638 194.101V194.016H150.105V192.792H155.511C156.611 192.792 157.438 193.081 157.993 193.659C158.56 194.237 158.843 195.076 158.843 196.175V203.094H157.449V196.124C157.449 195.365 157.262 194.827 156.888 194.509C156.514 194.181 156.027 194.016 155.426 194.016H153.318L153.165 194.322C152.95 194.742 152.803 195.167 152.723 195.597C152.644 196.028 152.604 196.498 152.604 197.008C152.604 197.303 152.616 197.615 152.638 197.943C152.661 198.272 152.689 198.623 152.723 198.997L153.114 203.094H149.969V201.87ZM161.785 199.303C161.785 198.816 161.87 198.448 162.04 198.198C162.221 197.938 162.527 197.7 162.958 197.484L164.114 196.923L161.445 192.792H163.094L166.375 197.994L168.041 197.195V192.792H169.435V196.583C169.435 197.071 169.344 197.445 169.163 197.705C168.993 197.955 168.693 198.187 168.262 198.402L167.106 198.963L169.775 203.094H168.126L164.845 197.892L163.179 198.691V203.094H161.785V199.303ZM177.339 203.298C176.387 203.298 175.582 203.179 174.925 202.941C174.279 202.692 173.752 202.318 173.344 201.819C172.936 201.309 172.641 200.675 172.46 199.915C172.29 199.156 172.205 198.255 172.205 197.212V192.792H173.599V197.603H176.659V192.792H178.036V197.416C178.036 197.824 177.911 198.164 177.662 198.436C177.424 198.697 177.067 198.827 176.591 198.827H173.667C173.803 199.949 174.16 200.771 174.738 201.292C175.316 201.802 176.183 202.057 177.339 202.057C178.019 202.057 178.591 201.972 179.056 201.802C179.532 201.632 179.917 201.366 180.212 201.003C180.518 200.629 180.739 200.159 180.875 199.592C181.011 199.026 181.079 198.346 181.079 197.552V192.792H182.473V197.212C182.473 198.255 182.382 199.156 182.201 199.915C182.031 200.675 181.742 201.309 181.334 201.819C180.926 202.318 180.393 202.692 179.736 202.941C179.09 203.179 178.291 203.298 177.339 203.298ZM189.85 196.124C189.85 195.365 189.663 194.827 189.289 194.509C188.915 194.181 188.428 194.016 187.827 194.016H184.223V192.792H187.912C189.011 192.792 189.839 193.081 190.394 193.659C190.961 194.237 191.244 195.076 191.244 196.175V203.094H189.85V196.124ZM200.685 196.124C200.685 195.365 200.498 194.827 200.124 194.509C199.75 194.181 199.263 194.016 198.662 194.016H194.191V192.792H198.747C199.847 192.792 200.674 193.081 201.229 193.659C201.796 194.237 202.079 195.076 202.079 196.175V203.094H200.685V196.124ZM194.191 197.994H195.585V203.094H194.191V197.994ZM209.033 192.792H213.759C214.858 192.792 215.686 193.081 216.241 193.659C216.808 194.237 217.091 195.076 217.091 196.175V203.094H209.033V192.792ZM215.697 201.87V196.124C215.697 195.365 215.51 194.827 215.136 194.509C214.762 194.181 214.275 194.016 213.674 194.016H210.427V201.87H215.697ZM219.224 201.87H222.318C223.168 201.87 223.859 201.587 224.392 201.02C224.936 200.454 225.208 199.66 225.208 198.64V197.246C225.208 196.226 224.936 195.433 224.392 194.866C223.859 194.3 223.168 194.016 222.318 194.016H219.224V192.792H222.454C223.1 192.792 223.678 192.9 224.188 193.115C224.709 193.331 225.151 193.654 225.514 194.084C225.888 194.515 226.171 195.053 226.364 195.699C226.568 196.334 226.67 197.082 226.67 197.943C226.67 198.805 226.568 199.558 226.364 200.204C226.171 200.839 225.888 201.372 225.514 201.802C225.151 202.233 224.709 202.556 224.188 202.771C223.678 202.987 223.1 203.094 222.454 203.094H219.224V201.87ZM229.836 195.444L229.377 192.792H230.771L231.06 194.577H231.145C231.383 193.999 231.746 193.523 232.233 193.149C232.72 192.775 233.355 192.588 234.137 192.588C234.59 192.588 235.004 192.662 235.378 192.809C235.763 192.957 236.092 193.189 236.364 193.506C236.647 193.812 236.863 194.209 237.01 194.696C237.169 195.172 237.248 195.745 237.248 196.413V203.094H232.845V201.87H235.854V196.719C235.854 196.493 235.843 196.215 235.82 195.886C235.797 195.558 235.712 195.246 235.565 194.951C235.429 194.645 235.208 194.385 234.902 194.169C234.596 193.954 234.165 193.846 233.61 193.846C233.077 193.846 232.647 193.943 232.318 194.135C232.001 194.328 231.757 194.555 231.587 194.815C231.417 195.076 231.298 195.342 231.23 195.614C231.162 195.875 231.117 196.073 231.094 196.209L229.904 203.094H228.51L229.836 195.444ZM244.212 192.792H248.938C250.037 192.792 250.864 193.081 251.42 193.659C251.986 194.237 252.27 195.076 252.27 196.175V203.094H244.212V192.792ZM250.876 201.87V196.124C250.876 195.365 250.689 194.827 250.315 194.509C249.941 194.181 249.453 194.016 248.853 194.016H245.606V201.87H250.876ZM255.049 192.792H256.443V198.47H255.049V192.792ZM258.487 201.87H261.581C262.431 201.87 263.122 201.587 263.655 201.02C264.199 200.454 264.471 199.66 264.471 198.64V197.246C264.471 196.226 264.199 195.433 263.655 194.866C263.122 194.3 262.431 194.016 261.581 194.016H258.487V192.792H261.717C262.363 192.792 262.941 192.9 263.451 193.115C263.972 193.331 264.414 193.654 264.777 194.084C265.151 194.515 265.434 195.053 265.627 195.699C265.831 196.334 265.933 197.082 265.933 197.943C265.933 198.805 265.831 199.558 265.627 200.204C265.434 200.839 265.151 201.372 264.777 201.802C264.414 202.233 263.972 202.556 263.451 202.771C262.941 202.987 262.363 203.094 261.717 203.094H258.487V201.87ZM268.164 192.792H269.558V198.47H268.164V192.792ZM277.025 196.124C277.025 195.365 276.838 194.827 276.464 194.509C276.09 194.181 275.602 194.016 275.002 194.016H271.398V192.792H275.087C276.186 192.792 277.013 193.081 277.569 193.659C278.135 194.237 278.419 195.076 278.419 196.175V203.094H277.025V196.124ZM280.737 201.87H286.177L284.29 199.014L280.363 192.792H282.029L284.919 197.586L286.517 196.821V192.792H287.911V196.209C287.911 196.697 287.82 197.071 287.639 197.331C287.469 197.581 287.169 197.813 286.738 198.028L285.548 198.606L287.69 201.87V203.094H280.737V201.87ZM294.614 192.792H296.008V203.094H294.614V192.792ZM298.214 201.87H300.594V195.172C300.594 195.002 300.577 194.849 300.543 194.713C300.52 194.566 300.458 194.441 300.356 194.339C300.265 194.237 300.118 194.158 299.914 194.101C299.721 194.045 299.455 194.016 299.115 194.016H298.333V192.792H299.217C299.761 192.792 300.209 192.843 300.56 192.945C300.923 193.036 301.206 193.183 301.41 193.387C301.625 193.58 301.773 193.824 301.852 194.118C301.943 194.402 301.988 194.736 301.988 195.121V203.094H298.214V201.87ZM304.924 199.303C304.924 198.816 305.009 198.448 305.179 198.198C305.36 197.938 305.666 197.7 306.097 197.484L307.253 196.923L304.584 192.792H306.233L309.514 197.994L311.18 197.195V192.792H312.574V196.583C312.574 197.071 312.483 197.445 312.302 197.705C312.132 197.955 311.831 198.187 311.401 198.402L310.245 198.963L312.914 203.094H311.265L307.984 197.892L306.318 198.691V203.094H304.924V199.303Z" fill="#393A40"/>
<g filter="url(#filter0_d_1406_9687)">
<rect x="18.8647" y="236.208" width="155.714" height="46.5581" rx="13" fill="#293153"/>
</g>
<path d="M28.9272 258.722H33.9032C34.8952 258.722 35.6526 258.989 36.1752 259.522C36.6979 260.056 36.9592 260.808 36.9592 261.778V268.45H28.9272V258.722ZM35.1832 266.882V261.874C35.1832 261.33 35.0392 260.93 34.7512 260.674C34.4739 260.418 34.1059 260.29 33.6472 260.29H30.7032V266.882H35.1832ZM39.5054 258.722H41.2814V268.45H39.5054V258.722ZM50.3116 260.29H43.9116V258.722H52.1836V260.37L49.1116 268.45H47.2236L50.3116 260.29ZM43.9116 263.41H45.6876V271.65H43.9116V263.41ZM53.7989 258.722H55.5749V264.242H53.7989V258.722ZM58.7722 261.538L58.2922 258.722H60.0682L60.3562 260.53H60.4522C60.5589 260.253 60.6922 259.997 60.8522 259.762C61.0229 259.517 61.2256 259.304 61.4602 259.122C61.6949 258.941 61.9616 258.797 62.2602 258.69C62.5696 258.584 62.9216 258.53 63.3162 258.53C63.7216 258.53 64.1002 258.6 64.4522 258.738C64.8149 258.866 65.1242 259.08 65.3802 259.378C65.6469 259.666 65.8549 260.05 66.0042 260.53C66.1536 261.01 66.2282 261.592 66.2282 262.274V268.45H61.8922V266.882H64.4522V262.626C64.4522 262.328 64.4309 262.029 64.3882 261.73C64.3562 261.421 64.2762 261.149 64.1482 260.914C64.0202 260.68 63.8336 260.488 63.5882 260.338C63.3536 260.189 63.0336 260.114 62.6282 260.114C62.2229 260.114 61.8869 260.184 61.6202 260.322C61.3536 260.461 61.1349 260.632 60.9642 260.834C60.8042 261.037 60.6816 261.261 60.5962 261.506C60.5216 261.741 60.4682 261.96 60.4362 262.162L59.3482 268.45H57.5722L58.7722 261.538ZM72.4082 258.722H74.1842V264.242H72.4082V258.722ZM76.2296 266.882H77.6216L77.3976 264.594C77.3763 264.413 77.3603 264.237 77.3496 264.066C77.3389 263.896 77.3336 263.736 77.3336 263.586C77.3336 262.925 77.4349 262.376 77.6376 261.938C77.8403 261.501 78.1283 261.106 78.5016 260.754L78.8856 260.386V260.29H76.3096V258.722H81.3976C82.5176 258.722 83.3603 258.994 83.9256 259.538C84.4909 260.082 84.7736 260.872 84.7736 261.906V268.45H82.9976V262.018C82.9976 261.421 82.8483 260.984 82.5496 260.706C82.2509 260.429 81.8296 260.29 81.2856 260.29H79.6536L79.5416 260.514C79.3603 260.856 79.2323 261.208 79.1576 261.57C79.0829 261.933 79.0456 262.338 79.0456 262.786C79.0456 263.064 79.0563 263.357 79.0776 263.666C79.0989 263.976 79.1256 264.301 79.1576 264.642L79.5256 268.45H76.2296V266.882ZM87.3179 258.722H89.0939V268.45H87.3179V258.722ZM95.9001 262.018C95.9001 261.421 95.7508 260.984 95.4521 260.706C95.1534 260.429 94.7321 260.29 94.1881 260.29H90.8121V258.722H94.3001C95.4201 258.722 96.2628 258.994 96.8281 259.538C97.3934 260.082 97.6761 260.872 97.6761 261.906V268.45H95.9001V262.018ZM100.08 258.722H101.856V264.242H100.08V258.722ZM109.213 268.642C108.285 268.642 107.496 268.525 106.845 268.29C106.195 268.045 105.667 267.682 105.261 267.202C104.856 266.722 104.557 266.12 104.365 265.394C104.184 264.658 104.093 263.794 104.093 262.802V258.722H105.853V263.058H108.333V258.722H110.093V262.786C110.093 263.33 109.944 263.757 109.645 264.066C109.357 264.376 108.909 264.53 108.301 264.53H105.981C106.141 265.426 106.477 266.072 106.989 266.466C107.501 266.861 108.243 267.058 109.213 267.058C109.8 267.058 110.307 266.984 110.733 266.834C111.16 266.685 111.507 266.45 111.773 266.13C112.051 265.81 112.253 265.4 112.381 264.898C112.509 264.397 112.573 263.794 112.573 263.09V258.722H114.333V262.802C114.333 263.794 114.237 264.658 114.045 265.394C113.864 266.12 113.571 266.722 113.165 267.202C112.76 267.682 112.232 268.045 111.581 268.29C110.931 268.525 110.141 268.642 109.213 268.642ZM120.058 266.882H121.45L121.226 264.594C121.204 264.413 121.188 264.237 121.178 264.066C121.167 263.896 121.162 263.736 121.162 263.586C121.162 262.925 121.263 262.376 121.466 261.938C121.668 261.501 121.956 261.106 122.33 260.754L122.714 260.386V260.29H120.138V258.722H125.226C126.346 258.722 127.188 258.994 127.754 259.538C128.319 260.082 128.602 260.872 128.602 261.906V268.45H126.826V262.018C126.826 261.421 126.676 260.984 126.378 260.706C126.079 260.429 125.658 260.29 125.114 260.29H123.482L123.37 260.514C123.188 260.856 123.06 261.208 122.986 261.57C122.911 261.933 122.874 262.338 122.874 262.786C122.874 263.064 122.884 263.357 122.906 263.666C122.927 263.976 122.954 264.301 122.986 264.642L123.354 268.45H120.058V266.882ZM135.185 260.29H129.905V256.61H131.681V258.722H137.057V260.354L133.985 268.45H132.097L135.185 260.29ZM137.94 267.25L140.788 266.866L137.94 258.722H139.764L141.428 263.458L142.404 266.498C143.055 266.2 143.53 265.709 143.828 265.026C144.127 264.333 144.276 263.421 144.276 262.29V258.722H146.052V262.114C146.052 263.16 145.94 264.056 145.716 264.802C145.492 265.538 145.167 266.157 144.74 266.658C144.314 267.149 143.796 267.538 143.188 267.826C142.58 268.104 141.887 268.296 141.108 268.402L137.94 268.834V267.25ZM148.349 266.882H152.237C152.941 266.882 153.506 266.653 153.933 266.194C154.37 265.736 154.589 265.09 154.589 264.258V262.914C154.589 262.082 154.37 261.437 153.933 260.978C153.506 260.52 152.941 260.29 152.237 260.29H150.125V263.01H152.045V264.53H150.157C149.549 264.53 149.096 264.376 148.797 264.066C148.498 263.746 148.349 263.314 148.349 262.77V258.722H152.333C152.952 258.722 153.512 258.824 154.013 259.026C154.525 259.229 154.962 259.533 155.325 259.938C155.688 260.344 155.965 260.85 156.157 261.458C156.349 262.066 156.445 262.776 156.445 263.586C156.445 264.397 156.349 265.106 156.157 265.714C155.965 266.322 155.688 266.829 155.325 267.234C154.962 267.64 154.525 267.944 154.013 268.146C153.512 268.349 152.952 268.45 152.333 268.45H148.349V266.882ZM164.458 261.874C164.458 261.33 164.32 260.93 164.042 260.674C163.765 260.418 163.397 260.29 162.938 260.29H158.458V258.722H163.178C164.17 258.722 164.928 258.989 165.45 259.522C165.973 260.056 166.234 260.808 166.234 261.778V268.45H164.458V261.874ZM158.458 263.41H160.234V268.45H158.458V263.41Z" fill="white"/>
<g filter="url(#filter1_d_1406_9687)">
<rect x="192.312" y="236.208" width="155.714" height="46.5581" rx="13" fill="white"/>
<rect x="192.812" y="236.708" width="154.714" height="45.5581" rx="12.5" stroke="#293153"/>
</g>
<path d="M245.465 267.25L248.313 266.866L245.465 258.722H247.289L248.953 263.458L249.929 266.498C250.58 266.2 251.054 265.709 251.353 265.026C251.652 264.333 251.801 263.421 251.801 262.29V258.722H253.577V262.114C253.577 263.16 253.465 264.056 253.241 264.802C253.017 265.538 252.692 266.157 252.265 266.658C251.838 267.149 251.321 267.538 250.713 267.826C250.105 268.104 249.412 268.296 248.633 268.402L245.465 268.834V267.25ZM258.389 266.258H258.309C258.149 266.61 257.947 266.93 257.701 267.218C257.467 267.496 257.2 267.736 256.901 267.938C256.613 268.141 256.304 268.296 255.973 268.402C255.643 268.509 255.312 268.562 254.981 268.562V266.882C255.6 266.882 256.117 266.824 256.533 266.706C256.96 266.578 257.296 266.413 257.541 266.21C257.797 266.008 257.973 265.784 258.069 265.538C258.165 265.293 258.197 265.042 258.165 264.786L257.717 260.29H255.509V258.722H257.109C257.867 258.722 258.437 258.914 258.821 259.298C259.216 259.682 259.451 260.221 259.525 260.914L260.293 268.45H258.613L258.389 266.258ZM266.284 262.018C266.284 261.421 266.135 260.984 265.836 260.706C265.537 260.429 265.116 260.29 264.572 260.29H261.196V258.722H264.684C265.804 258.722 266.647 258.994 267.212 259.538C267.777 260.082 268.06 260.872 268.06 261.906V268.45H266.284V262.018ZM269.888 266.882H272.896C273.6 266.882 274.165 266.653 274.592 266.194C275.029 265.736 275.248 265.09 275.248 264.258V262.914C275.248 262.082 275.029 261.437 274.592 260.978C274.165 260.52 273.6 260.29 272.896 260.29H269.888V258.722H272.992C273.611 258.722 274.171 258.824 274.672 259.026C275.184 259.229 275.621 259.533 275.984 259.938C276.347 260.344 276.624 260.85 276.816 261.458C277.008 262.066 277.104 262.776 277.104 263.586C277.104 264.397 277.008 265.106 276.816 265.714C276.624 266.322 276.347 266.829 275.984 267.234C275.621 267.64 275.184 267.944 274.672 268.146C274.171 268.349 273.611 268.45 272.992 268.45H269.888V266.882ZM282.967 264.914C282.967 264.36 283.074 263.938 283.287 263.65C283.511 263.352 283.858 263.09 284.327 262.866L285.063 262.498L282.711 258.722H284.807L287.751 263.506L288.999 262.898V258.722H290.759V262.258C290.759 262.536 290.733 262.781 290.679 262.994C290.626 263.197 290.541 263.378 290.423 263.538C290.317 263.698 290.178 263.842 290.007 263.97C289.837 264.088 289.634 264.2 289.399 264.306L288.663 264.674L291.015 268.45H288.919L285.975 263.666L284.727 264.274V268.45H282.967V264.914ZM297.725 260.29H292.445V256.61H294.221V258.722H299.597V260.354L296.525 268.45H294.637L297.725 260.29Z" fill="#293153"/>
<path d="M91.4955 92.5085H97.7155C98.9555 92.5085 99.9021 92.8418 100.555 93.5085C101.209 94.1751 101.535 95.1151 101.535 96.3285V104.668H91.4955V92.5085ZM99.3155 102.708V96.4485C99.3155 95.7685 99.1355 95.2685 98.7755 94.9485C98.4288 94.6285 97.9688 94.4685 97.3955 94.4685H93.7155V102.708H99.3155ZM103.818 102.708H107.578C108.458 102.708 109.165 102.422 109.698 101.848C110.245 101.275 110.518 100.468 110.518 99.4285V97.7485C110.518 96.7085 110.245 95.9018 109.698 95.3285C109.165 94.7551 108.458 94.4685 107.578 94.4685H103.818V92.5085H107.698C108.471 92.5085 109.171 92.6351 109.798 92.8885C110.438 93.1418 110.985 93.5218 111.438 94.0285C111.891 94.5351 112.238 95.1685 112.478 95.9285C112.718 96.6885 112.838 97.5751 112.838 98.5885C112.838 99.6018 112.718 100.488 112.478 101.248C112.238 102.008 111.891 102.642 111.438 103.148C110.985 103.655 110.438 104.035 109.798 104.288C109.171 104.542 108.471 104.668 107.698 104.668H103.818V102.708ZM116.263 96.0285L115.663 92.5085H117.883L118.243 94.7685H118.363C118.496 94.4218 118.663 94.1018 118.863 93.8085C119.076 93.5018 119.329 93.2351 119.623 93.0085C119.916 92.7818 120.249 92.6018 120.623 92.4685C121.009 92.3351 121.449 92.2685 121.943 92.2685C122.449 92.2685 122.923 92.3551 123.363 92.5285C123.816 92.6885 124.203 92.9551 124.523 93.3285C124.856 93.6885 125.116 94.1685 125.303 94.7685C125.489 95.3685 125.583 96.0951 125.583 96.9485V104.668H120.163V102.708H123.363V97.3885C123.363 97.0151 123.336 96.6418 123.283 96.2685C123.243 95.8818 123.143 95.5418 122.983 95.2485C122.823 94.9551 122.589 94.7151 122.283 94.5285C121.989 94.3418 121.589 94.2485 121.083 94.2485C120.576 94.2485 120.156 94.3351 119.823 94.5085C119.489 94.6818 119.216 94.8951 119.003 95.1485C118.803 95.4018 118.649 95.6818 118.543 95.9885C118.449 96.2818 118.383 96.5551 118.343 96.8085L116.983 104.668H114.763L116.263 96.0285ZM128.761 92.5085H130.981V104.668H128.761V92.5085ZM142.269 94.4685H134.269V92.5085H144.609V94.5685L140.769 104.668H138.409L142.269 94.4685ZM134.269 98.3685H136.489V108.668H134.269V98.3685ZM146.628 92.5085H148.848V99.4085H146.628V92.5085ZM152.845 96.0285L152.245 92.5085H154.465L154.825 94.7685H154.945C155.078 94.4218 155.245 94.1018 155.445 93.8085C155.658 93.5018 155.911 93.2351 156.205 93.0085C156.498 92.7818 156.831 92.6018 157.205 92.4685C157.591 92.3351 158.031 92.2685 158.525 92.2685C159.031 92.2685 159.505 92.3551 159.945 92.5285C160.398 92.6885 160.785 92.9551 161.105 93.3285C161.438 93.6885 161.698 94.1685 161.885 94.7685C162.071 95.3685 162.165 96.0951 162.165 96.9485V104.668H156.745V102.708H159.945V97.3885C159.945 97.0151 159.918 96.6418 159.865 96.2685C159.825 95.8818 159.725 95.5418 159.565 95.2485C159.405 94.9551 159.171 94.7151 158.865 94.5285C158.571 94.3418 158.171 94.2485 157.665 94.2485C157.158 94.2485 156.738 94.3351 156.405 94.5085C156.071 94.6818 155.798 94.8951 155.585 95.1485C155.385 95.4018 155.231 95.6818 155.125 95.9885C155.031 96.2818 154.965 96.5551 154.925 96.8085L153.565 104.668H151.345L152.845 96.0285ZM170.393 94.4685H163.793V89.8685H166.013V92.5085H172.733V94.5485L168.893 104.668H166.533L170.393 94.4685ZM187.023 96.4485C187.023 95.7685 186.849 95.2685 186.503 94.9485C186.156 94.6285 185.696 94.4685 185.123 94.4685H179.523V92.5085H185.423C186.663 92.5085 187.609 92.8418 188.263 93.5085C188.916 94.1751 189.243 95.1151 189.243 96.3285V104.668H187.023V96.4485ZM179.523 98.3685H181.743V104.668H179.523V98.3685ZM198.513 104.908C197.353 104.908 196.367 104.762 195.553 104.468C194.74 104.162 194.08 103.708 193.573 103.108C193.067 102.508 192.693 101.755 192.453 100.848C192.227 99.9285 192.113 98.8485 192.113 97.6085V92.5085H194.313V97.9285H197.413V92.5085H199.613V97.5885C199.613 98.2685 199.427 98.8018 199.053 99.1885C198.693 99.5751 198.133 99.7685 197.373 99.7685H194.473C194.673 100.888 195.093 101.695 195.733 102.188C196.373 102.682 197.3 102.928 198.513 102.928C199.247 102.928 199.88 102.835 200.413 102.648C200.947 102.462 201.38 102.168 201.713 101.768C202.06 101.368 202.313 100.855 202.473 100.228C202.633 99.6018 202.713 98.8485 202.713 97.9685V92.5085H204.913V97.6085C204.913 98.8485 204.793 99.9285 204.553 100.848C204.327 101.755 203.96 102.508 203.453 103.108C202.947 103.708 202.287 104.162 201.473 104.468C200.66 104.762 199.673 104.908 198.513 104.908ZM207.702 92.5085H209.922V99.4085H207.702V92.5085ZM216.359 101.928H216.259C216.059 102.368 215.806 102.768 215.499 103.128C215.206 103.475 214.872 103.775 214.499 104.028C214.139 104.282 213.752 104.475 213.339 104.608C212.926 104.742 212.512 104.808 212.099 104.808V102.708C212.872 102.708 213.519 102.635 214.039 102.488C214.572 102.328 214.992 102.122 215.299 101.868C215.619 101.615 215.839 101.335 215.959 101.028C216.079 100.722 216.119 100.408 216.079 100.088L215.519 94.4685H212.759V92.5085H214.759C215.706 92.5085 216.419 92.7485 216.899 93.2285C217.392 93.7085 217.686 94.3818 217.779 95.2485L218.739 104.668H216.639L216.359 101.928ZM233.917 96.4485C233.917 95.7685 233.744 95.2685 233.397 94.9485C233.051 94.6285 232.591 94.4685 232.017 94.4685H226.417V92.5085H232.317C233.557 92.5085 234.504 92.8418 235.157 93.5085C235.811 94.1751 236.137 95.1151 236.137 96.3285V104.668H233.917V96.4485ZM226.417 98.3685H228.637V104.668H226.417V98.3685ZM245.408 104.908C244.248 104.908 243.261 104.762 242.448 104.468C241.635 104.162 240.975 103.708 240.468 103.108C239.961 102.508 239.588 101.755 239.348 100.848C239.121 99.9285 239.008 98.8485 239.008 97.6085V92.5085H241.208V97.9285H244.308V92.5085H246.508V97.5885C246.508 98.2685 246.321 98.8018 245.948 99.1885C245.588 99.5751 245.028 99.7685 244.268 99.7685H241.368C241.568 100.888 241.988 101.695 242.628 102.188C243.268 102.682 244.195 102.928 245.408 102.928C246.141 102.928 246.775 102.835 247.308 102.648C247.841 102.462 248.275 102.168 248.608 101.768C248.955 101.368 249.208 100.855 249.368 100.228C249.528 99.6018 249.608 98.8485 249.608 97.9685V92.5085H251.808V97.6085C251.808 98.8485 251.688 99.9285 251.448 100.848C251.221 101.755 250.855 102.508 250.348 103.108C249.841 103.708 249.181 104.162 248.368 104.468C247.555 104.762 246.568 104.908 245.408 104.908ZM254.777 92.5085H256.997V104.668H254.777V92.5085ZM265.505 96.6285C265.505 95.8818 265.318 95.3351 264.945 94.9885C264.571 94.6418 264.045 94.4685 263.365 94.4685H259.145V92.5085H263.505C264.905 92.5085 265.958 92.8485 266.665 93.5285C267.371 94.2085 267.725 95.1951 267.725 96.4885V104.668H265.505V96.6285ZM275.022 94.4685H269.242V92.5085H278.902V94.4685H277.242V104.668H275.022V94.4685Z" fill="#393A40"/>
<path d="M184.851 20.6401C174.704 20.6401 166.479 28.7036 166.479 38.6512C166.479 53.2283 184.851 66.9544 184.851 66.9544C184.851 66.9544 203.222 53.2384 203.222 38.6512C203.222 28.7036 194.997 20.6401 184.851 20.6401V20.6401ZM182.04 42.9362C177.422 42.9362 173.681 39.2692 173.681 34.7411C173.681 30.213 177.422 26.5459 182.04 26.5459C186.659 26.5459 190.399 30.213 190.399 34.7411C190.399 39.2692 186.659 42.9362 182.04 42.9362Z" fill="#F0A63E"/>
<path d="M182.04 18.3301C171.894 18.3301 163.669 26.3935 163.669 36.3412C163.669 50.9182 182.04 64.6444 182.04 64.6444C182.04 64.6444 200.411 50.9284 200.411 36.3412C200.411 26.3935 192.187 18.3301 182.04 18.3301ZM182.04 43.9893C176.832 43.9893 172.617 39.8462 172.617 34.7508C172.617 29.6554 176.843 25.5122 182.04 25.5122C187.237 25.5122 191.463 29.6554 191.463 34.7508C191.463 39.8462 187.237 43.9893 182.04 43.9893V43.9893Z" stroke="#3B3847" stroke-width="1.29895" stroke-miterlimit="10" stroke-linecap="round"/>
<path d="M32.2371 42.9698C39.5394 42.9698 45.459 37.0501 45.459 29.7478C45.459 22.4455 39.5394 16.5259 32.2371 16.5259C24.9348 16.5259 19.0151 22.4455 19.0151 29.7478C19.0151 37.0501 24.9348 42.9698 32.2371 42.9698Z" fill="#F1A73D"/>
<path d="M26.6973 22.7544L39.2304 35.2875" stroke="white" stroke-width="0.583751" stroke-linecap="round" stroke-linejoin="round"/>
<path d="M38.5009 23.4839L25.9678 36.017" stroke="white" stroke-width="0.583751" stroke-linecap="round" stroke-linejoin="round"/>
<path d="M31.4021 41.8023C38.7044 41.8023 44.6241 35.8826 44.6241 28.5804C44.6241 21.2781 38.7044 15.3584 31.4021 15.3584C24.0998 15.3584 18.1802 21.2781 18.1802 28.5804C18.1802 35.8826 24.0998 41.8023 31.4021 41.8023Z" stroke="#3B3847" stroke-width="0.583751" stroke-linecap="round" stroke-linejoin="round"/>
<path d="M25.1387 22.3169L37.6718 34.85" stroke="#3B3847" stroke-width="0.583751" stroke-linecap="round" stroke-linejoin="round"/>
<path d="M37.6718 22.3169L25.1387 34.85" stroke="#3B3847" stroke-width="0.583751" stroke-linecap="round" stroke-linejoin="round"/>
<defs>
<filter id="filter0_d_1406_9687" x="10.8647" y="231.208" width="173.714" height="64.5581" filterUnits="userSpaceOnUse" color-interpolation-filters="sRGB">
<feFlood flood-opacity="0" result="BackgroundImageFix"/>
<feColorMatrix in="SourceAlpha" type="matrix" values="0 0 0 0 0 0 0 0 0 0 0 0 0 0 0 0 0 0 127 0" result="hardAlpha"/>
<feOffset dx="1" dy="4"/>
<feGaussianBlur stdDeviation="4.5"/>
<feComposite in2="hardAlpha" operator="out"/>
<feColorMatrix type="matrix" values="0 0 0 0 0.156863 0 0 0 0 0.196078 0 0 0 0 0.47451 0 0 0 0.3 0"/>
<feBlend mode="normal" in2="BackgroundImageFix" result="effect1_dropShadow_1406_9687"/>
<feBlend mode="normal" in="SourceGraphic" in2="effect1_dropShadow_1406_9687" result="shape"/>
</filter>
<filter id="filter1_d_1406_9687" x="184.312" y="231.208" width="173.714" height="64.5581" filterUnits="userSpaceOnUse" color-interpolation-filters="sRGB">
<feFlood flood-opacity="0" result="BackgroundImageFix"/>
<feColorMatrix in="SourceAlpha" type="matrix" values="0 0 0 0 0 0 0 0 0 0 0 0 0 0 0 0 0 0 127 0" result="hardAlpha"/>
<feOffset dx="1" dy="4"/>
<feGaussianBlur stdDeviation="4.5"/>
<feComposite in2="hardAlpha" operator="out"/>
<feColorMatrix type="matrix" values="0 0 0 0 0.156863 0 0 0 0 0.196078 0 0 0 0 0.47451 0 0 0 0.3 0"/>
<feBlend mode="normal" in2="BackgroundImageFix" result="effect1_dropShadow_1406_9687"/>
<feBlend mode="normal" in="SourceGraphic" in2="effect1_dropShadow_1406_9687" result="shape"/>
</filter>
<linearGradient id="paint0_linear_1406_9687" x1="8.65142" y1="234.184" x2="8.33978" y2="152.92" gradientUnits="userSpaceOnUse">
<stop stop-color="#383A49" stop-opacity="0"/>
<stop offset="1" stop-color="#383A49"/>
</linearGradient>
<linearGradient id="paint1_linear_1406_9687" x1="358.096" y1="16.291" x2="358.407" y2="97.5543" gradientUnits="userSpaceOnUse">
<stop stop-color="#383A49" stop-opacity="0"/>
<stop offset="1" stop-color="#383A49"/>
</linearGradient>
</defs>
</svg>
