<svg width="371" height="86" viewBox="0 0 371 86" fill="none" xmlns="http://www.w3.org/2000/svg">
<g filter="url(#filter0_d_990_8138)">
<rect x="6.79785" y="6.46875" width="357.404" height="72.5801" rx="17" fill="#FFFDEE"/>
</g>
<path d="M30.8545 36.2782C31.1745 36.2782 31.4045 36.3632 31.5445 36.5332C31.6945 36.6932 31.7695 36.9032 31.7695 37.1632V37.3732C31.7695 37.7832 31.6495 38.2332 31.4095 38.7232C31.1695 39.2232 30.8345 39.6582 30.4045 40.0282H29.3995C29.6995 39.7082 29.9395 39.4032 30.1195 39.1132C30.3095 38.8332 30.4445 38.5182 30.5245 38.1682C30.3245 38.1182 30.1745 38.0232 30.0745 37.8832C29.9845 37.7432 29.9395 37.5732 29.9395 37.3732V37.1632C29.9395 36.9032 30.0095 36.6932 30.1495 36.5332C30.2995 36.3632 30.5345 36.2782 30.8545 36.2782ZM39.7564 31.8682C39.7564 31.3582 39.6264 30.9832 39.3664 30.7432C39.1064 30.5032 38.7614 30.3832 38.3314 30.3832H34.1314V28.9132H38.5564C39.4864 28.9132 40.1964 29.1632 40.6864 29.6632C41.1764 30.1632 41.4214 30.8682 41.4214 31.7782V38.0332H39.7564V31.8682ZM34.1314 33.3082H35.7964V38.0332H34.1314V33.3082ZM43.7993 34.7182C43.7993 34.1982 43.8993 33.8032 44.0993 33.5332C44.3093 33.2532 44.6343 33.0082 45.0743 32.7982L45.7643 32.4532L43.5593 28.9132H45.5243L48.2843 33.3982L49.4543 32.8282V28.9132H51.1043V32.2282C51.1043 32.4882 51.0793 32.7182 51.0293 32.9182C50.9793 33.1082 50.8993 33.2782 50.7893 33.4282C50.6893 33.5782 50.5593 33.7132 50.3993 33.8332C50.2393 33.9432 50.0493 34.0482 49.8293 34.1482L49.1393 34.4932L51.3443 38.0332H49.3793L46.6193 33.5482L45.4493 34.1182V38.0332H43.7993V34.7182ZM52.8802 36.5632H57.3502V30.3832H52.9552V28.9132H57.3202C57.8902 28.9132 58.3152 29.0632 58.5952 29.3632C58.8752 29.6532 59.0152 30.0532 59.0152 30.5632V36.5632H60.2602V38.0332H52.8802V36.5632ZM67.5445 31.8682C67.5445 31.3582 67.4145 30.9832 67.1545 30.7432C66.8945 30.5032 66.5495 30.3832 66.1195 30.3832H61.9195V28.9132H66.3445C67.2745 28.9132 67.9845 29.1632 68.4745 29.6632C68.9645 30.1632 69.2095 30.8682 69.2095 31.7782V38.0332H67.5445V31.8682ZM61.9195 33.3082H63.5845V38.0332H61.9195V33.3082ZM80.7573 31.8682C80.7573 31.3582 80.6273 30.9832 80.3673 30.7432C80.1073 30.5032 79.7623 30.3832 79.3323 30.3832H75.1323V28.9132H79.5573C80.4873 28.9132 81.1973 29.1632 81.6873 29.6632C82.1773 30.1632 82.4223 30.8682 82.4223 31.7782V38.0332H80.7573V31.8682ZM75.1323 33.3082H76.7973V38.0332H75.1323V33.3082ZM84.1253 36.5632H86.3003V31.3582C86.3003 31.0582 86.2253 30.8232 86.0753 30.6532C85.9253 30.4732 85.6153 30.3832 85.1453 30.3832H84.2753V28.9132H85.4003C86.2803 28.9132 86.9253 29.1132 87.3353 29.5132C87.7553 29.9032 87.9653 30.4882 87.9653 31.2682V38.0332H84.1253V36.5632ZM90.3521 28.9132H95.0171C95.9471 28.9132 96.6571 29.1632 97.1471 29.6632C97.6371 30.1632 97.8821 30.8682 97.8821 31.7782V38.0332H96.2171V31.8682C96.2171 31.3582 96.0821 30.9832 95.8121 30.7432C95.5521 30.5032 95.2071 30.3832 94.7771 30.3832H92.0171V38.0332H90.3521V28.9132ZM99.8641 36.5632H101.169L100.959 34.4182C100.939 34.2482 100.924 34.0832 100.914 33.9232C100.904 33.7632 100.899 33.6132 100.899 33.4732C100.899 32.8532 100.994 32.3382 101.184 31.9282C101.374 31.5182 101.644 31.1482 101.994 30.8182L102.354 30.4732V30.3832H99.9391V28.9132H104.709C105.759 28.9132 106.549 29.1682 107.079 29.6782C107.609 30.1882 107.874 30.9282 107.874 31.8982V38.0332H106.209V32.0032C106.209 31.4432 106.069 31.0332 105.789 30.7732C105.509 30.5132 105.114 30.3832 104.604 30.3832H103.074L102.969 30.5932C102.799 30.9132 102.679 31.2432 102.609 31.5832C102.539 31.9232 102.504 32.3032 102.504 32.7232C102.504 32.9832 102.514 33.2582 102.534 33.5482C102.554 33.8382 102.579 34.1432 102.609 34.4632L102.954 38.0332H99.8641V36.5632ZM109.584 36.5632H114.054V30.3832H109.659V28.9132H114.024C114.594 28.9132 115.019 29.0632 115.299 29.3632C115.579 29.6532 115.719 30.0532 115.719 30.5632V36.5632H116.964V38.0332H109.584V36.5632ZM121.823 36.9532H123.263L123.008 34.3582C122.988 34.1582 122.973 33.9632 122.963 33.7732C122.953 33.5832 122.948 33.4032 122.948 33.2332C122.948 32.6632 123.008 32.1682 123.128 31.7482C123.258 31.3282 123.468 30.9432 123.758 30.5932L124.178 30.0982V30.0232H121.943V28.9432H126.713C127.683 28.9432 128.413 29.1982 128.903 29.7082C129.403 30.2182 129.653 30.9582 129.653 31.9282V38.0332H128.423V31.8832C128.423 31.2132 128.258 30.7382 127.928 30.4582C127.598 30.1682 127.168 30.0232 126.638 30.0232H124.778L124.643 30.2932C124.453 30.6632 124.323 31.0382 124.253 31.4182C124.183 31.7982 124.148 32.2132 124.148 32.6632C124.148 32.9232 124.158 33.1982 124.178 33.4882C124.198 33.7782 124.223 34.0882 124.253 34.4182L124.598 38.0332H121.823V36.9532ZM135.38 30.0232H130.895V28.9432H137.885V30.0232H136.61V38.0332H135.38V30.0232ZM144.004 31.8832C144.004 31.2132 143.839 30.7382 143.509 30.4582C143.179 30.1682 142.749 30.0232 142.219 30.0232H139.039V28.9432H142.294C143.264 28.9432 143.994 29.1982 144.484 29.7082C144.984 30.2182 145.234 30.9582 145.234 31.9282V38.0332H144.004V31.8832ZM151.682 30.0232H146.582V26.9332H147.812V28.9432H152.987V30.0532L149.972 38.0332H148.667L151.682 30.0232ZM158.191 28.9432H162.361C163.331 28.9432 164.061 29.1982 164.551 29.7082C165.051 30.2182 165.301 30.9582 165.301 31.9282V38.0332H158.191V28.9432ZM164.071 36.9532V31.8832C164.071 31.2132 163.906 30.7382 163.576 30.4582C163.246 30.1682 162.816 30.0232 162.286 30.0232H159.421V36.9532H164.071ZM167.753 28.9432H168.983V33.9532H167.753V28.9432ZM170.787 36.9532H173.517C174.267 36.9532 174.877 36.7032 175.347 36.2032C175.827 35.7032 176.067 35.0032 176.067 34.1032V32.8732C176.067 31.9732 175.827 31.2732 175.347 30.7732C174.877 30.2732 174.267 30.0232 173.517 30.0232H170.787V28.9432H173.637C174.207 28.9432 174.717 29.0382 175.167 29.2282C175.627 29.4182 176.017 29.7032 176.337 30.0832C176.667 30.4632 176.917 30.9382 177.087 31.5082C177.267 32.0682 177.357 32.7282 177.357 33.4882C177.357 34.2482 177.267 34.9132 177.087 35.4832C176.917 36.0432 176.667 36.5132 176.337 36.8932C176.017 37.2732 175.627 37.5582 175.167 37.7482C174.717 37.9382 174.207 38.0332 173.637 38.0332H170.787V36.9532ZM179.326 28.9432H180.556V33.9532H179.326V28.9432ZM187.144 31.8832C187.144 31.2132 186.979 30.7382 186.649 30.4582C186.319 30.1682 185.889 30.0232 185.359 30.0232H182.179V28.9432H185.434C186.404 28.9432 187.134 29.1982 187.624 29.7082C188.124 30.2182 188.374 30.9582 188.374 31.9282V38.0332H187.144V31.8832ZM190.42 36.9532H195.22L193.555 34.4332L190.09 28.9432H191.56L194.11 33.1732L195.52 32.4982V28.9432H196.75V31.9582C196.75 32.3882 196.67 32.7182 196.51 32.9482C196.36 33.1682 196.095 33.3732 195.715 33.5632L194.665 34.0732L196.555 36.9532V38.0332H190.42V36.9532ZM202.664 28.9432H206.834C207.804 28.9432 208.534 29.1982 209.024 29.7082C209.524 30.2182 209.774 30.9582 209.774 31.9282V38.0332H202.664V28.9432ZM208.544 36.9532V31.8832C208.544 31.2132 208.379 30.7382 208.049 30.4582C207.719 30.1682 207.289 30.0232 206.759 30.0232H203.894V36.9532H208.544ZM211.926 36.9532H213.366L213.111 34.3582C213.091 34.1582 213.076 33.9632 213.066 33.7732C213.056 33.5832 213.051 33.4032 213.051 33.2332C213.051 32.6632 213.111 32.1682 213.231 31.7482C213.361 31.3282 213.571 30.9432 213.861 30.5932L214.281 30.0982V30.0232H212.046V28.9432H216.816C217.786 28.9432 218.516 29.1982 219.006 29.7082C219.506 30.2182 219.756 30.9582 219.756 31.9282V38.0332H218.526V31.8832C218.526 31.2132 218.361 30.7382 218.031 30.4582C217.701 30.1682 217.271 30.0232 216.741 30.0232H214.881L214.746 30.2932C214.556 30.6632 214.426 31.0382 214.356 31.4182C214.286 31.7982 214.251 32.2132 214.251 32.6632C214.251 32.9232 214.261 33.1982 214.281 33.4882C214.301 33.7782 214.326 34.0882 214.356 34.4182L214.701 38.0332H211.926V36.9532ZM222.352 34.6882C222.352 34.2582 222.427 33.9332 222.577 33.7132C222.737 33.4832 223.007 33.2732 223.387 33.0832L224.407 32.5882L222.052 28.9432H223.507L226.402 33.5332L227.872 32.8282V28.9432H229.102V32.2882C229.102 32.7182 229.022 33.0482 228.862 33.2782C228.712 33.4982 228.447 33.7032 228.067 33.8932L227.047 34.3882L229.402 38.0332H227.947L225.052 33.4432L223.582 34.1482V38.0332H222.352V34.6882ZM234.595 36.9532H239.26V30.0232H234.715V28.9432H239.185C239.605 28.9432 239.925 29.0632 240.145 29.3032C240.375 29.5332 240.49 29.8332 240.49 30.2032V36.9532H241.765V38.0332H234.595V36.9532ZM247.732 30.0232H242.632V26.9332H243.862V28.9432H249.037V30.0532L246.022 38.0332H244.717L247.732 30.0232ZM254.241 28.9432H255.471V38.0332H254.241V28.9432ZM258.813 31.2832L258.408 28.9432H259.638L259.893 30.5182H259.968C260.178 30.0082 260.498 29.5882 260.928 29.2582C261.358 28.9282 261.918 28.7632 262.608 28.7632C263.008 28.7632 263.373 28.8282 263.703 28.9582C264.043 29.0882 264.333 29.2932 264.573 29.5732C264.823 29.8432 265.013 30.1932 265.143 30.6232C265.283 31.0432 265.353 31.5482 265.353 32.1382V38.0332H261.468V36.9532H264.123V32.4082C264.123 32.2082 264.113 31.9632 264.093 31.6732C264.073 31.3832 263.998 31.1082 263.868 30.8482C263.748 30.5782 263.553 30.3482 263.283 30.1582C263.013 29.9682 262.633 29.8732 262.143 29.8732C261.673 29.8732 261.293 29.9582 261.003 30.1282C260.723 30.2982 260.508 30.4982 260.358 30.7282C260.208 30.9582 260.103 31.1932 260.043 31.4332C259.983 31.6632 259.943 31.8382 259.923 31.9582L258.873 38.0332H257.643L258.813 31.2832ZM267.802 28.9432H269.032V33.9532H267.802V28.9432ZM275.861 38.2132C275.021 38.2132 274.311 38.1082 273.731 37.8982C273.161 37.6782 272.696 37.3482 272.336 36.9082C271.976 36.4582 271.716 35.8982 271.556 35.2282C271.406 34.5582 271.331 33.7632 271.331 32.8432V28.9432H272.561V33.1882H275.261V28.9432H276.476V33.0232C276.476 33.3832 276.366 33.6832 276.146 33.9232C275.936 34.1532 275.621 34.2682 275.201 34.2682H272.621C272.741 35.2582 273.056 35.9832 273.566 36.4432C274.076 36.8932 274.841 37.1182 275.861 37.1182C276.461 37.1182 276.966 37.0432 277.376 36.8932C277.796 36.7432 278.136 36.5082 278.396 36.1882C278.666 35.8582 278.861 35.4432 278.981 34.9432C279.101 34.4432 279.161 33.8432 279.161 33.1432V28.9432H280.391V32.8432C280.391 33.7632 280.311 34.5582 280.151 35.2282C280.001 35.8982 279.746 36.4582 279.386 36.9082C279.026 37.3482 278.556 37.6782 277.976 37.8982C277.406 38.1082 276.701 38.2132 275.861 38.2132ZM39.5956 57.3532C39.5956 56.6332 39.6656 55.9382 39.8056 55.2682C39.9456 54.5982 40.1356 53.9782 40.3756 53.4082C40.6256 52.8282 40.9156 52.3032 41.2456 51.8332C41.5756 51.3632 41.9306 50.9632 42.3106 50.6332H43.4506C43.0306 51.0132 42.6506 51.4432 42.3106 51.9232C41.9806 52.4032 41.6956 52.9132 41.4556 53.4532C41.2256 53.9932 41.0456 54.5432 40.9156 55.1032C40.7856 55.6632 40.7206 56.2032 40.7206 56.7232V58.0132C40.7206 58.5432 40.7856 59.0882 40.9156 59.6482C41.0456 60.2082 41.2306 60.7582 41.4706 61.2982C41.7106 61.8382 41.9956 62.3482 42.3256 62.8282C42.6656 63.3082 43.0406 63.7282 43.4506 64.0882H42.3106C41.9406 63.7782 41.5906 63.3882 41.2606 62.9182C40.9306 62.4482 40.6406 61.9232 40.3906 61.3432C40.1506 60.7632 39.9556 60.1382 39.8056 59.4682C39.6656 58.7882 39.5956 58.0832 39.5956 57.3532ZM45.565 62.2132C45.245 62.2132 45.01 62.1332 44.86 61.9732C44.72 61.8132 44.65 61.6032 44.65 61.3432V61.1482C44.65 60.8882 44.72 60.6782 44.86 60.5182C45.01 60.3582 45.245 60.2782 45.565 60.2782C45.885 60.2782 46.115 60.3582 46.255 60.5182C46.405 60.6782 46.48 60.8882 46.48 61.1482V61.3432C46.48 61.6032 46.405 61.8132 46.255 61.9732C46.115 62.1332 45.885 62.2132 45.565 62.2132ZM45.565 56.0482C45.245 56.0482 45.01 55.9682 44.86 55.8082C44.72 55.6482 44.65 55.4382 44.65 55.1782V54.9832C44.65 54.7232 44.72 54.5132 44.86 54.3532C45.01 54.1932 45.245 54.1132 45.565 54.1132C45.885 54.1132 46.115 54.1932 46.255 54.3532C46.405 54.5132 46.48 54.7232 46.48 54.9832V55.1782C46.48 55.4382 46.405 55.6482 46.255 55.8082C46.115 55.9682 45.885 56.0482 45.565 56.0482ZM58.3648 55.8832C58.3648 55.2132 58.1998 54.7382 57.8698 54.4582C57.5398 54.1682 57.1098 54.0232 56.5798 54.0232H52.6348V52.9432H56.6548C57.6248 52.9432 58.3548 53.1982 58.8448 53.7082C59.3448 54.2182 59.5948 54.9582 59.5948 55.9282V62.0332H58.3648V55.8832ZM52.6348 57.5332H53.8648V62.0332H52.6348V57.5332ZM65.3165 54.0232H60.8315V52.9432H67.8215V54.0232H66.5465V62.0332H65.3165V54.0232ZM69.5063 52.9432H70.7363V57.9532H69.5063V52.9432ZM77.3248 55.8832C77.3248 55.2132 77.1598 54.7382 76.8298 54.4582C76.4998 54.1682 76.0698 54.0232 75.5398 54.0232H72.3598V52.9432H75.6148C76.5848 52.9432 77.3148 53.1982 77.8048 53.7082C78.3048 54.2182 78.5548 54.9582 78.5548 55.9282V62.0332H77.3248V55.8832ZM81.0053 52.9432H82.2353V57.9532H81.0053V52.9432ZM88.8988 54.0232H83.7988V50.9332H85.0288V52.9432H90.2038V54.0532L87.1888 62.0332H85.8838L88.8988 54.0232ZM95.4082 52.9432H96.6382V65.0332H95.4082V52.9432ZM101.825 59.9632H101.75C101.62 60.2832 101.435 60.5732 101.195 60.8332C100.965 61.0932 100.7 61.3232 100.4 61.5232C100.11 61.7132 99.8047 61.8632 99.4847 61.9732C99.1747 62.0732 98.8697 62.1232 98.5697 62.1232V60.9532C99.0797 60.9532 99.5297 60.8882 99.9197 60.7582C100.31 60.6182 100.635 60.4382 100.895 60.2182C101.165 59.9982 101.365 59.7532 101.495 59.4832C101.625 59.2132 101.675 58.9432 101.645 58.6732L101.18 54.0232H99.0947V52.9432H100.49C101.11 52.9432 101.58 53.0982 101.9 53.4082C102.22 53.7182 102.41 54.1632 102.47 54.7432L103.205 62.0332H102.035L101.825 59.9632ZM109.2 55.8832C109.2 55.2132 109.035 54.7382 108.705 54.4582C108.375 54.1682 107.945 54.0232 107.415 54.0232H104.235V52.9432H107.49C108.46 52.9432 109.19 53.1982 109.68 53.7082C110.18 54.2182 110.43 54.9582 110.43 55.9282V62.0332H109.2V55.8832ZM113.03 58.6882C113.03 58.2582 113.105 57.9332 113.255 57.7132C113.415 57.4832 113.685 57.2732 114.065 57.0832L115.085 56.5882L112.73 52.9432H114.185L117.08 57.5332L118.55 56.8282V52.9432H119.78V56.2882C119.78 56.7182 119.7 57.0482 119.54 57.2782C119.39 57.4982 119.125 57.7032 118.745 57.8932L117.725 58.3882L120.08 62.0332H118.625L115.73 57.4432L114.26 58.1482V62.0332H113.03V58.6882ZM121.999 60.9532H123.439L123.184 58.3582C123.164 58.1582 123.149 57.9632 123.139 57.7732C123.129 57.5832 123.124 57.4032 123.124 57.2332C123.124 56.6632 123.184 56.1682 123.304 55.7482C123.434 55.3282 123.644 54.9432 123.934 54.5932L124.354 54.0982V54.0232H122.119V52.9432H126.889C127.859 52.9432 128.589 53.1982 129.079 53.7082C129.579 54.2182 129.829 54.9582 129.829 55.9282V62.0332H128.599V55.8832C128.599 55.2132 128.434 54.7382 128.104 54.4582C127.774 54.1682 127.344 54.0232 126.814 54.0232H124.954L124.819 54.2932C124.629 54.6632 124.499 55.0382 124.429 55.4182C124.359 55.7982 124.324 56.2132 124.324 56.6632C124.324 56.9232 124.334 57.1982 124.354 57.4882C124.374 57.7782 124.399 58.0882 124.429 58.4182L124.774 62.0332H121.999V60.9532ZM138.155 55.8832C138.155 55.2132 137.99 54.7382 137.66 54.4582C137.33 54.1682 136.9 54.0232 136.37 54.0232H132.425V52.9432H136.445C137.415 52.9432 138.145 53.1982 138.635 53.7082C139.135 54.2182 139.385 54.9582 139.385 55.9282V62.0332H138.155V55.8832ZM132.425 57.5332H133.655V62.0332H132.425V57.5332ZM145.823 54.0232H140.723V50.9332H141.953V52.9432H147.128V54.0532L144.113 62.0332H142.808L145.823 54.0232ZM156.472 54.0232H151.372V50.9332H152.602V52.9432H157.777V54.0532L154.762 62.0332H153.457L156.472 54.0232ZM159.36 52.9432H160.59V57.9532H159.36V52.9432ZM163.113 52.9432H167.283C168.253 52.9432 168.983 53.1982 169.473 53.7082C169.973 54.2182 170.223 54.9582 170.223 55.9282V62.0332H168.993V55.8832C168.993 55.2132 168.828 54.7382 168.498 54.4582C168.168 54.1682 167.738 54.0232 167.208 54.0232H164.343V62.0332H163.113V52.9432ZM172.375 60.9532H173.815L173.56 58.3582C173.54 58.1582 173.525 57.9632 173.515 57.7732C173.505 57.5832 173.5 57.4032 173.5 57.2332C173.5 56.6632 173.56 56.1682 173.68 55.7482C173.81 55.3282 174.02 54.9432 174.31 54.5932L174.73 54.0982V54.0232H172.495V52.9432H177.265C178.235 52.9432 178.965 53.1982 179.455 53.7082C179.955 54.2182 180.205 54.9582 180.205 55.9282V62.0332H178.975V55.8832C178.975 55.2132 178.81 54.7382 178.48 54.4582C178.15 54.1682 177.72 54.0232 177.19 54.0232H175.33L175.195 54.2932C175.005 54.6632 174.875 55.0382 174.805 55.4182C174.735 55.7982 174.7 56.2132 174.7 56.6632C174.7 56.9232 174.71 57.1982 174.73 57.4882C174.75 57.7782 174.775 58.0882 174.805 58.4182L175.15 62.0332H172.375V60.9532ZM188.531 55.8832C188.531 55.2132 188.366 54.7382 188.036 54.4582C187.706 54.1682 187.276 54.0232 186.746 54.0232H182.801V52.9432H186.821C187.791 52.9432 188.521 53.1982 189.011 53.7082C189.511 54.2182 189.761 54.9582 189.761 55.9282V62.0332H188.531V55.8832ZM182.801 57.5332H184.031V62.0332H182.801V57.5332ZM196.199 54.0232H191.099V50.9332H192.329V52.9432H197.504V54.0532L194.489 62.0332H193.184L196.199 54.0232ZM202.708 52.9432H206.878C207.848 52.9432 208.578 53.1982 209.068 53.7082C209.568 54.2182 209.818 54.9582 209.818 55.9282V62.0332H202.708V52.9432ZM208.588 60.9532V55.8832C208.588 55.2132 208.423 54.7382 208.093 54.4582C207.763 54.1682 207.333 54.0232 206.803 54.0232H203.938V60.9532H208.588ZM211.7 60.9532H214.43C215.18 60.9532 215.79 60.7032 216.26 60.2032C216.74 59.7032 216.98 59.0032 216.98 58.1032V56.8732C216.98 55.9732 216.74 55.2732 216.26 54.7732C215.79 54.2732 215.18 54.0232 214.43 54.0232H211.7V52.9432H214.55C215.12 52.9432 215.63 53.0382 216.08 53.2282C216.54 53.4182 216.93 53.7032 217.25 54.0832C217.58 54.4632 217.83 54.9382 218 55.5082C218.18 56.0682 218.27 56.7282 218.27 57.4882C218.27 58.2482 218.18 58.9132 218 59.4832C217.83 60.0432 217.58 60.5132 217.25 60.8932C216.93 61.2732 216.54 61.5582 216.08 61.7482C215.63 61.9382 215.12 62.0332 214.55 62.0332H211.7V60.9532ZM224.529 54.0232H219.429V50.9332H220.659V52.9432H225.834V54.0532L222.819 62.0332H221.514L224.529 54.0232ZM231.038 52.9432H235.208C236.178 52.9432 236.908 53.1982 237.398 53.7082C237.898 54.2182 238.148 54.9582 238.148 55.9282V62.0332H231.038V52.9432ZM236.918 60.9532V55.8832C236.918 55.2132 236.753 54.7382 236.423 54.4582C236.093 54.1682 235.663 54.0232 235.133 54.0232H232.268V60.9532H236.918ZM240.6 52.9432H241.83V57.9532H240.6V52.9432ZM243.799 60.9532H248.599L246.934 58.4332L243.469 52.9432H244.939L247.489 57.1732L248.899 56.4982V52.9432H250.129V55.9582C250.129 56.3882 250.049 56.7182 249.889 56.9482C249.739 57.1682 249.474 57.3732 249.094 57.5632L248.044 58.0732L249.934 60.9532V62.0332H243.799V60.9532ZM252.348 52.9432H253.578V57.9532H252.348V52.9432ZM260.242 54.0232H255.142V50.9332H256.372V52.9432H261.547V54.0532L258.532 62.0332H257.227L260.242 54.0232ZM263.881 55.2832L263.476 52.9432H264.706L264.961 54.5182H265.036C265.246 54.0082 265.566 53.5882 265.996 53.2582C266.426 52.9282 266.986 52.7632 267.676 52.7632C268.076 52.7632 268.441 52.8282 268.771 52.9582C269.111 53.0882 269.401 53.2932 269.641 53.5732C269.891 53.8432 270.081 54.1932 270.211 54.6232C270.351 55.0432 270.421 55.5482 270.421 56.1382V62.0332H266.536V60.9532H269.191V56.4082C269.191 56.2082 269.181 55.9632 269.161 55.6732C269.141 55.3832 269.066 55.1082 268.936 54.8482C268.816 54.5782 268.621 54.3482 268.351 54.1582C268.081 53.9682 267.701 53.8732 267.211 53.8732C266.741 53.8732 266.361 53.9582 266.071 54.1282C265.791 54.2982 265.576 54.4982 265.426 54.7282C265.276 54.9582 265.171 55.1932 265.111 55.4332C265.051 55.6632 265.011 55.8382 264.991 55.9582L263.941 62.0332H262.711L263.881 55.2832ZM273.696 55.2832L273.291 52.9432H274.521L274.776 54.5182H274.851C275.061 54.0082 275.381 53.5882 275.811 53.2582C276.241 52.9282 276.801 52.7632 277.491 52.7632C277.891 52.7632 278.256 52.8282 278.586 52.9582C278.926 53.0882 279.216 53.2932 279.456 53.5732C279.706 53.8432 279.896 54.1932 280.026 54.6232C280.166 55.0432 280.236 55.5482 280.236 56.1382V62.0332H276.351V60.9532H279.006V56.4082C279.006 56.2082 278.996 55.9632 278.976 55.6732C278.956 55.3832 278.881 55.1082 278.751 54.8482C278.631 54.5782 278.436 54.3482 278.166 54.1582C277.896 53.9682 277.516 53.8732 277.026 53.8732C276.556 53.8732 276.176 53.9582 275.886 54.1282C275.606 54.2982 275.391 54.4982 275.241 54.7282C275.091 54.9582 274.986 55.1932 274.926 55.4332C274.866 55.6632 274.826 55.8382 274.806 55.9582L273.756 62.0332H272.526L273.696 55.2832Z" fill="#241E1E"/>
<path d="M341.449 33.6391C341.449 33.6391 342.948 18.8933 327.201 20.0555" stroke="#3B3847" stroke-miterlimit="10" stroke-linecap="round"/>
<path d="M346.941 35.5095C346.941 35.5095 349.21 13.2999 325.494 15.0614" stroke="#3B3847" stroke-miterlimit="10" stroke-linecap="round"/>
<path d="M331.93 48.8807V42.9787C331.93 35.9508 326.831 29.6856 319.669 28.6141C310.652 27.2521 302.778 34.0621 302.778 42.561V48.8262C302.778 54.0199 300.678 59.0139 296.929 62.7367C296.46 63.1907 296.798 63.9716 297.473 63.9716H337.198C337.854 63.9716 338.192 63.1907 337.742 62.7367C334.03 59.0139 331.949 54.0562 331.949 48.8807H331.93Z" fill="#FFBF1A"/>
<path d="M317.326 71.9618C320.982 71.9618 323.925 69.4739 323.925 66.3867H310.727C310.727 69.4558 313.689 71.9618 317.326 71.9618Z" fill="#FFBF1A"/>
<path d="M319.67 28.614C320.101 28.6866 320.532 28.7593 320.963 28.8682C320.963 28.723 321.001 28.5777 321.001 28.4324C321.001 26.4711 319.351 24.873 317.326 24.873C315.301 24.873 313.652 26.4711 313.652 28.4324C313.652 28.5958 313.67 28.7411 313.708 28.9046C315.583 28.4324 317.589 28.2871 319.67 28.614Z" fill="#FFBF1A"/>
<path d="M330.219 47.2229V41.321C330.219 34.2931 325.12 28.0279 317.958 26.9564C308.941 25.5944 301.067 32.4044 301.067 40.9033V47.1685C301.067 52.3622 298.967 57.3562 295.218 61.079C294.749 61.533 295.086 62.3139 295.761 62.3139H335.487C336.143 62.3139 336.481 61.533 336.031 61.079C332.319 57.3562 330.238 52.3985 330.238 47.2229H330.219Z" stroke="#3B3847" stroke-miterlimit="10"/>
<path d="M315.615 70.3041C319.27 70.3041 322.214 67.8162 322.214 64.729H309.016C309.016 67.798 311.978 70.3041 315.615 70.3041Z" stroke="#3B3847" stroke-miterlimit="10"/>
<path d="M317.958 26.9563C318.39 27.0289 318.821 27.1016 319.252 27.2105C319.252 27.0652 319.289 26.92 319.289 26.7747C319.289 24.8134 317.64 23.2153 315.615 23.2153C313.59 23.2153 311.94 24.8134 311.94 26.7747C311.94 26.9381 311.959 27.0834 311.997 27.2468C313.871 26.7747 315.877 26.6294 317.958 26.9563V26.9563Z" stroke="#3B3847" stroke-miterlimit="10"/>
<defs>
<filter id="filter0_d_990_8138" x="0.797852" y="0.46875" width="369.404" height="84.5801" filterUnits="userSpaceOnUse" color-interpolation-filters="sRGB">
<feFlood flood-opacity="0" result="BackgroundImageFix"/>
<feColorMatrix in="SourceAlpha" type="matrix" values="0 0 0 0 0 0 0 0 0 0 0 0 0 0 0 0 0 0 127 0" result="hardAlpha"/>
<feMorphology radius="1" operator="dilate" in="SourceAlpha" result="effect1_dropShadow_990_8138"/>
<feOffset/>
<feGaussianBlur stdDeviation="2.5"/>
<feComposite in2="hardAlpha" operator="out"/>
<feColorMatrix type="matrix" values="0 0 0 0 1 0 0 0 0 0.750588 0 0 0 0 0.376471 0 0 0 1 0"/>
<feBlend mode="normal" in2="BackgroundImageFix" result="effect1_dropShadow_990_8138"/>
<feBlend mode="normal" in="SourceGraphic" in2="effect1_dropShadow_990_8138" result="shape"/>
</filter>
</defs>
</svg>
