<svg width="366" height="317" viewBox="0 0 366 317" fill="none" xmlns="http://www.w3.org/2000/svg">
<rect x="0.88916" y="0.0380859" width="365.111" height="316.094" rx="9" fill="white"/>
<g clip-path="url(#clip0_699_5621)">
<path d="M96.3191 140.037H138.619C141.588 140.037 143.993 137.632 143.993 134.662V92.3626C143.993 89.393 141.588 86.9878 138.619 86.9878H96.3191C93.3496 86.9878 90.9443 89.393 90.9443 92.3626V134.662C90.9443 137.632 93.3496 140.037 96.3191 140.037ZM101.694 97.7374H133.244V129.287H101.694V97.7374Z" fill="#383A49"/>
<path d="M96.3191 271.988H138.619C141.588 271.988 143.993 269.582 143.993 266.613V224.313C143.993 221.344 141.588 218.938 138.619 218.938H96.3191C93.3496 218.938 90.9443 221.344 90.9443 224.313V266.613C90.9443 269.582 93.3496 271.988 96.3191 271.988ZM101.694 229.688H133.244V261.238H101.694V229.688Z" fill="#383A49"/>
<path d="M228.257 140.037H270.556C273.526 140.037 275.931 137.632 275.931 134.662V92.3626C275.931 89.393 273.526 86.9878 270.556 86.9878H228.257C225.287 86.9878 222.882 89.393 222.882 92.3626V134.662C222.882 137.632 225.287 140.037 228.257 140.037ZM233.631 97.7374H265.181V129.287H233.631V97.7374Z" fill="#383A49"/>
<path d="M96.3191 184.862H106.034V200.611C106.034 203.58 108.439 205.985 111.409 205.985C114.378 205.985 116.784 203.58 116.784 200.611V184.862H126.485C129.455 184.862 131.86 182.457 131.86 179.488C131.86 176.518 129.455 174.113 126.485 174.113H101.694V162.275H111.691C118.745 162.154 118.759 151.646 111.691 151.525H96.3191C93.3496 151.525 90.9443 153.931 90.9443 156.9V179.488C90.9443 182.457 93.3496 184.862 96.3191 184.862Z" fill="#383A49"/>
<path d="M142.112 179.488C142.112 182.457 144.518 184.863 147.487 184.863H175.973V194.833C176.094 201.901 186.602 201.901 186.723 194.833V179.488C186.723 176.518 184.318 174.113 181.348 174.113H169.792V165.057H216.083C223.137 164.936 223.151 154.428 216.083 154.307H197.862V149.819C197.862 146.85 195.457 144.444 192.487 144.444C189.518 144.444 187.113 146.85 187.113 149.819V154.307H169.792V145.963C169.792 142.993 167.387 140.588 164.418 140.588C161.448 140.588 159.043 142.993 159.043 145.963V174.113H147.487C144.518 174.113 142.112 176.518 142.112 179.488Z" fill="#383A49"/>
<path d="M160.346 217.555C163.316 217.555 165.721 215.149 165.721 212.18V200.611C165.721 197.641 163.316 195.236 160.346 195.236H132.908C125.854 195.357 125.84 205.864 132.908 205.985H154.958C155.093 210.675 153.641 217.084 160.333 217.555H160.346Z" fill="#383A49"/>
<path d="M160.346 109.978C163.316 109.978 165.721 107.573 165.721 104.604V97.7374H202.028V106.821H191.681C188.712 106.821 186.307 109.226 186.307 112.196C186.307 115.165 188.712 117.57 191.681 117.57H202.028V129.247C202.135 136.288 212.657 136.315 212.777 129.247V92.3626C212.777 89.393 210.372 86.9878 207.403 86.9878H160.346C157.377 86.9878 154.972 89.393 154.972 92.3626V104.604C154.972 107.573 157.377 109.978 160.346 109.978Z" fill="#383A49"/>
<path d="M275.945 156.887C275.824 149.819 265.316 149.819 265.195 156.887V169.706H243.951V156.887C243.951 153.917 241.546 151.512 238.576 151.512C235.607 151.512 233.202 153.917 233.202 156.887V190.52H229.144C222.076 190.641 222.076 201.148 229.144 201.269H238.576C241.546 201.269 243.951 198.864 243.951 195.894V180.469H270.57C273.539 180.469 275.945 178.064 275.945 175.094V156.9V156.887Z" fill="#383A49"/>
<path d="M214.376 232.12V178.547C214.376 175.578 211.971 173.172 209.002 173.172H199.569C196.599 173.172 194.194 175.578 194.194 178.547C194.194 181.517 196.599 183.922 199.569 183.922H203.627V226.746H160.346C157.377 226.746 154.972 229.151 154.972 232.12C154.972 235.09 157.377 237.495 160.346 237.495H168.261C168.436 242.225 166.783 249.037 173.636 249.494C176.605 249.494 179.01 247.089 179.01 244.119V237.495H209.002C211.971 237.495 214.376 235.09 214.376 232.12Z" fill="#383A49"/>
<path d="M160.346 271.988H192.487C195.457 271.988 197.862 269.582 197.862 266.613V248.191C197.741 241.136 187.234 241.123 187.113 248.191V261.238H160.346C153.278 261.359 153.278 271.867 160.346 271.988Z" fill="#383A49"/>
<path d="M211.353 271.988H270.569C273.539 271.988 275.944 269.583 275.944 266.613V232.98C275.823 225.926 265.316 225.913 265.195 232.98V261.238H216.728V248.191C216.607 241.123 206.099 241.123 205.978 248.191V266.613C205.978 269.583 208.383 271.988 211.353 271.988Z" fill="#383A49"/>
<path d="M228.257 237.495H244.032V246.915C244.032 249.884 246.437 252.289 249.406 252.289C252.376 252.289 254.781 249.884 254.781 246.915V219.933H270.556C277.611 219.812 277.624 209.305 270.556 209.184H249.406C246.437 209.184 244.032 211.589 244.032 214.558V226.759H233.631V214.558C233.51 207.491 223.003 207.491 222.882 214.558V232.134C222.882 235.103 225.287 237.509 228.257 237.509V237.495Z" fill="#383A49"/>
<path d="M270.569 190.52H258.302C255.332 190.52 252.927 192.925 252.927 195.894C252.927 198.864 255.332 201.269 258.302 201.269H270.569C277.637 201.148 277.637 190.64 270.569 190.52Z" fill="#383A49"/>
<path d="M117.469 108.138C110.401 108.259 110.401 118.766 117.469 118.887C124.537 118.766 124.537 108.259 117.469 108.138Z" fill="#383A49"/>
<path d="M117.321 238.745C110.267 239.054 110.549 249.561 117.617 249.494C124.671 249.172 124.389 238.664 117.321 238.745Z" fill="#383A49"/>
<path d="M249.42 108.138C242.352 108.259 242.352 118.766 249.42 118.887C256.488 118.766 256.488 108.259 249.42 108.138Z" fill="#383A49"/>
<path d="M139.048 151.512C131.981 151.633 131.981 162.141 139.048 162.262C146.103 162.141 146.103 151.633 139.048 151.512Z" fill="#383A49"/>
<path d="M186.723 212.865C186.602 205.797 176.095 205.797 175.974 212.865C176.095 219.933 186.602 219.933 186.723 212.865Z" fill="#383A49"/>
<path d="M160.346 120.782C153.278 120.903 153.278 131.41 160.346 131.531C167.414 131.41 167.414 120.903 160.346 120.782Z" fill="#383A49"/>
<path d="M182.369 120.782C175.301 120.903 175.301 131.41 182.369 131.531C189.437 131.41 189.437 120.903 182.369 120.782Z" fill="#383A49"/>
</g>
<path d="M8.08594 15.4429C8.08594 10.7485 11.8915 6.94287 16.5859 6.94287H350.303C354.997 6.94287 358.803 10.7485 358.803 15.4429V299.297C358.803 303.991 354.997 307.797 350.303 307.797H16.5859C11.8915 307.797 8.08594 303.991 8.08594 299.297V157.37V15.4429Z" stroke="#000740" stroke-opacity="0.4"/>
<path d="M8.23633 154.443L8.23631 236.818" stroke="url(#paint0_linear_699_5621)" stroke-width="1.00563"/>
<path d="M8.23453 156.787C9.52964 156.788 10.5803 155.739 10.5813 154.445C10.5823 153.15 9.53317 152.1 8.23807 152.099C6.94296 152.098 5.89228 153.147 5.8913 154.441C5.89033 155.736 6.93943 156.786 8.23453 156.787Z" fill="#383A49"/>
<path d="M358.746 84.6421L358.746 2.26709" stroke="url(#paint1_linear_699_5621)" stroke-width="1.00563"/>
<path d="M358.748 82.2981C357.453 82.2971 356.402 83.3457 356.401 84.6403C356.4 85.9348 357.449 86.9851 358.744 86.986C360.039 86.987 361.09 85.9384 361.091 84.6438C361.092 83.3493 360.043 82.2991 358.748 82.2981Z" fill="#383A49"/>
<path d="M80.4314 39.9894H82.0714V56.1094H80.4314V39.9894ZM84.8867 39.9894H90.6867C91.4467 39.9894 92.1267 40.116 92.7267 40.3694C93.34 40.6227 93.86 41.0027 94.2867 41.5094C94.7267 42.016 95.06 42.6494 95.2867 43.4094C95.5267 44.156 95.6467 45.036 95.6467 46.0494C95.6467 47.076 95.5133 47.9827 95.2467 48.7694C94.9933 49.5427 94.6333 50.196 94.1667 50.7294C93.7 51.2627 93.14 51.6694 92.4867 51.9494C91.8467 52.216 91.1333 52.3494 90.3467 52.3494C89.56 52.3494 88.84 52.216 88.1867 51.9494C87.5333 51.6694 86.9733 51.2627 86.5067 50.7294C86.04 50.196 85.6733 49.5427 85.4067 48.7694C85.1533 47.9827 85.0267 47.076 85.0267 46.0494C85.0267 45.4894 85.0933 44.9627 85.2267 44.4694C85.3733 43.976 85.5533 43.536 85.7667 43.1494C85.9933 42.7627 86.2467 42.4294 86.5267 42.1494C86.8067 41.8694 87.08 41.6627 87.3467 41.5294V41.4294H84.8867V39.9894ZM90.3467 50.8894C90.8667 50.8894 91.34 50.796 91.7667 50.6094C92.2067 50.4227 92.5867 50.1627 92.9067 49.8294C93.2267 49.4827 93.4733 49.0694 93.6467 48.5894C93.8333 48.1094 93.9267 47.576 93.9267 46.9894V45.2294C93.9267 44.0294 93.6067 43.096 92.9667 42.4294C92.34 41.7627 91.5267 41.4294 90.5267 41.4294H88.1467C87.64 41.9094 87.28 42.4894 87.0667 43.1694C86.8533 43.8494 86.7467 44.5827 86.7467 45.3694V46.9894C86.7467 47.576 86.8333 48.1094 87.0067 48.5894C87.1933 49.0694 87.4467 49.4827 87.7667 49.8294C88.0867 50.1627 88.4667 50.4227 88.9067 50.6094C89.3467 50.796 89.8267 50.8894 90.3467 50.8894ZM98.2587 39.9894H99.8987V46.6694H98.2587V39.9894ZM107.983 52.3494C107.037 52.3494 106.237 52.2294 105.583 51.9894C104.943 51.7494 104.43 51.3827 104.043 50.8894C103.657 50.396 103.377 49.776 103.203 49.0294C103.043 48.2827 102.963 47.4027 102.963 46.3894V39.9894H104.603V46.7894C104.603 48.1627 104.85 49.1894 105.343 49.8694C105.85 50.5494 106.73 50.8894 107.983 50.8894C109.237 50.8894 110.11 50.5494 110.603 49.8694C111.11 49.1894 111.363 48.1627 111.363 46.7894V43.9094C111.363 43.016 111.143 42.3827 110.703 42.0094C110.263 41.6227 109.69 41.4294 108.983 41.4294H107.823V39.9894H109.083C110.377 39.9894 111.35 40.3294 112.003 41.0094C112.67 41.6894 113.003 42.676 113.003 43.9694V46.3894C113.003 47.4027 112.917 48.2827 112.743 49.0294C112.583 49.776 112.303 50.396 111.903 50.8894C111.517 51.3827 111.003 51.7494 110.363 51.9894C109.723 52.2294 108.93 52.3494 107.983 52.3494ZM120.969 43.9094C120.969 43.016 120.749 42.3827 120.309 42.0094C119.869 41.6227 119.295 41.4294 118.589 41.4294H114.349V39.9894H118.689C119.982 39.9894 120.955 40.3294 121.609 41.0094C122.275 41.6894 122.609 42.676 122.609 43.9694V52.1094H120.969V43.9094ZM125.116 50.6694H128.756C129.756 50.6694 130.569 50.336 131.196 49.6694C131.836 49.0027 132.156 48.0694 132.156 46.8694V45.2294C132.156 44.0294 131.836 43.096 131.196 42.4294C130.569 41.7627 129.756 41.4294 128.756 41.4294H125.116V39.9894H128.916C129.676 39.9894 130.356 40.116 130.956 40.3694C131.569 40.6227 132.089 41.0027 132.516 41.5094C132.956 42.016 133.289 42.6494 133.516 43.4094C133.756 44.156 133.876 45.036 133.876 46.0494C133.876 47.0627 133.756 47.9494 133.516 48.7094C133.289 49.456 132.956 50.0827 132.516 50.5894C132.089 51.096 131.569 51.476 130.956 51.7294C130.356 51.9827 129.676 52.1094 128.916 52.1094H125.116V50.6694ZM142.221 41.4294H135.421V37.3094H137.061V39.9894H143.961V41.4694L139.941 52.1094H138.201L142.221 41.4294ZM155.68 41.4294H149.7V39.9894H159.02V41.4294H157.32V52.1094H155.68V41.4294ZM161.467 39.9894H163.107V52.1094H161.467V39.9894ZM174.862 41.4294H166.662V39.9894H176.602V41.4694L172.562 52.1094H170.822L174.862 41.4294ZM166.662 46.1094H168.302V56.1094H166.662V46.1094ZM184.855 43.9094C184.855 43.016 184.635 42.3827 184.195 42.0094C183.755 41.6227 183.182 41.4294 182.475 41.4294H178.235V39.9894H182.575C183.869 39.9894 184.842 40.3294 185.495 41.0094C186.162 41.6894 186.495 42.676 186.495 43.9694V52.1094H184.855V43.9094ZM189.003 50.6694H195.223V41.4294H189.163V39.9894H195.123C195.683 39.9894 196.109 40.1494 196.403 40.4694C196.709 40.776 196.863 41.176 196.863 41.6694V50.6694H198.563V52.1094H189.003V50.6694ZM208.638 43.9094C208.638 43.016 208.418 42.3827 207.978 42.0094C207.538 41.6227 206.964 41.4294 206.258 41.4294H200.998V39.9894H206.358C207.651 39.9894 208.624 40.3294 209.278 41.0094C209.944 41.6894 210.278 42.676 210.278 43.9694V52.1094H208.638V43.9094ZM200.998 46.1094H202.638V52.1094H200.998V46.1094ZM217.859 50.6694H219.779L219.439 47.2094C219.412 46.9427 219.392 46.6827 219.379 46.4294C219.365 46.176 219.359 45.936 219.359 45.7094C219.359 44.9494 219.439 44.2894 219.599 43.7294C219.772 43.1694 220.052 42.656 220.439 42.1894L220.999 41.5294V41.4294H218.019V39.9894H224.379C225.672 39.9894 226.645 40.3294 227.299 41.0094C227.965 41.6894 228.299 42.676 228.299 43.9694V52.1094H226.659V43.9094C226.659 43.016 226.439 42.3827 225.999 42.0094C225.559 41.6227 224.985 41.4294 224.279 41.4294H221.799L221.619 41.7894C221.365 42.2827 221.192 42.7827 221.099 43.2894C221.005 43.796 220.959 44.3494 220.959 44.9494C220.959 45.296 220.972 45.6627 220.999 46.0494C221.025 46.436 221.059 46.8494 221.099 47.2894L221.559 52.1094H217.859V50.6694ZM231.759 47.6494C231.759 47.076 231.859 46.6427 232.059 46.3494C232.273 46.0427 232.633 45.7627 233.139 45.5094L234.499 44.8494L231.359 39.9894H233.299L237.159 46.1094L239.119 45.1694V39.9894H240.759V44.4494C240.759 45.0227 240.653 45.4627 240.439 45.7694C240.239 46.0627 239.886 46.336 239.379 46.5894L238.019 47.2494L241.159 52.1094H239.219L235.359 45.9894L233.399 46.9294V52.1094H231.759V47.6494ZM249.045 39.9894H250.685V52.1094H249.045V39.9894ZM257.6 49.3494H257.5C257.327 49.776 257.08 50.1627 256.76 50.5094C256.453 50.856 256.1 51.1627 255.7 51.4294C255.313 51.6827 254.907 51.8827 254.48 52.0294C254.067 52.1627 253.66 52.2294 253.26 52.2294V50.6694C253.94 50.6694 254.54 50.5827 255.06 50.4094C255.58 50.2227 256.013 49.9827 256.36 49.6894C256.72 49.396 256.987 49.0694 257.16 48.7094C257.333 48.3494 257.4 47.9894 257.36 47.6294L256.74 41.4294H253.96V39.9894H255.82C256.647 39.9894 257.273 40.196 257.7 40.6094C258.127 41.0227 258.38 41.616 258.46 42.3894L259.44 52.1094H257.88L257.6 49.3494ZM262.419 39.9894H264.059V46.6694H262.419V39.9894ZM266.684 50.6694H273.084L270.864 47.3094L266.244 39.9894H268.204L271.604 45.6294L273.484 44.7294V39.9894H275.124V44.0094C275.124 44.5827 275.017 45.0227 274.804 45.3294C274.604 45.6227 274.25 45.896 273.744 46.1494L272.344 46.8294L274.864 50.6694V52.1094H266.684V50.6694ZM285.923 43.9094C285.923 43.016 285.703 42.3827 285.263 42.0094C284.823 41.6227 284.25 41.4294 283.543 41.4294H278.283V39.9894H283.643C284.936 39.9894 285.91 40.3294 286.563 41.0094C287.23 41.6894 287.563 42.676 287.563 43.9694V52.1094H285.923V43.9094ZM278.283 46.1094H279.923V52.1094H278.283V46.1094Z" fill="black"/>
<path d="M32.4275 43.378C39.7298 43.378 45.6495 37.4583 45.6495 30.156C45.6495 22.8538 39.7298 16.9341 32.4275 16.9341C25.1252 16.9341 19.2056 22.8538 19.2056 30.156C19.2056 37.4583 25.1252 43.378 32.4275 43.378Z" fill="#F1A73D"/>
<path d="M26.8877 23.1626L39.4208 35.6957" stroke="white" stroke-width="0.583751" stroke-linecap="round" stroke-linejoin="round"/>
<path d="M38.6913 23.8921L26.1582 36.4252" stroke="white" stroke-width="0.583751" stroke-linecap="round" stroke-linejoin="round"/>
<path d="M31.5926 42.2105C38.8948 42.2105 44.8145 36.2908 44.8145 28.9886C44.8145 21.6863 38.8948 15.7666 31.5926 15.7666C24.2903 15.7666 18.3706 21.6863 18.3706 28.9886C18.3706 36.2908 24.2903 42.2105 31.5926 42.2105Z" stroke="#3B3847" stroke-width="0.583751" stroke-linecap="round" stroke-linejoin="round"/>
<path d="M25.3291 22.7251L37.8622 35.2582" stroke="#3B3847" stroke-width="0.583751" stroke-linecap="round" stroke-linejoin="round"/>
<path d="M37.8622 22.7251L25.3291 35.2582" stroke="#3B3847" stroke-width="0.583751" stroke-linecap="round" stroke-linejoin="round"/>
<defs>
<linearGradient id="paint0_linear_699_5621" x1="8.90112" y1="236.814" x2="8.58597" y2="154.779" gradientUnits="userSpaceOnUse">
<stop stop-color="#383A49" stop-opacity="0"/>
<stop offset="1" stop-color="#383A49"/>
</linearGradient>
<linearGradient id="paint1_linear_699_5621" x1="358.081" y1="2.271" x2="358.396" y2="84.3056" gradientUnits="userSpaceOnUse">
<stop stop-color="#383A49" stop-opacity="0"/>
<stop offset="1" stop-color="#383A49"/>
</linearGradient>
<clipPath id="clip0_699_5621">
<rect width="185" height="185" fill="white" transform="translate(90.9443 86.9878)"/>
</clipPath>
</defs>
</svg>
