<svg width="71" height="71" viewBox="0 0 71 71" fill="none" xmlns="http://www.w3.org/2000/svg">
<circle cx="35.5018" cy="35.2471" r="28.4169" fill="white" stroke="#293153"/>
<path fill-rule="evenodd" clip-rule="evenodd" d="M25.9234 25.463H45.476C46.4851 25.463 47.4447 25.9005 48.1644 26.5496C48.9124 27.227 49.3993 28.1584 49.3993 29.0828V40.9301C49.3993 41.8545 48.9265 42.6377 48.1997 43.1881C47.48 43.7385 46.4921 44.0631 45.476 44.0631H31.3354L24.7732 47.9228L23.863 47.2313L24.7379 43.9149C24.0182 43.7526 23.3267 43.4492 22.7834 43.0399C22.0707 42.5037 21.605 41.7769 21.605 40.9301V29.0828C21.605 28.1584 22.1836 27.2482 23.0092 26.5708C23.8277 25.9075 24.9073 25.4559 25.9234 25.4559V25.463ZM42.0185 31.7924C43.0416 31.7924 43.8743 32.625 43.8743 33.6482C43.8743 34.6713 43.0416 35.5039 42.0185 35.5039C40.9954 35.5039 40.1627 34.6713 40.1627 33.6482C40.1627 32.625 40.9954 31.7924 42.0185 31.7924ZM25.9234 25.463H45.476C46.4851 25.463 47.4447 25.9005 48.1644 26.5496C48.9124 27.227 49.3993 28.1584 49.3993 29.0828V40.9301C49.3993 41.8545 48.9265 42.6377 48.1997 43.1881C47.48 43.7385 46.4921 44.0631 45.476 44.0631H31.3354L24.7732 47.9228L23.863 47.2313L24.7379 43.9149C24.0182 43.7526 23.3267 43.4492 22.7834 43.0399C22.0707 42.5037 21.605 41.7769 21.605 40.9301V29.0828C21.605 28.1584 22.1836 27.2482 23.0092 26.5708C23.8277 25.9075 24.9073 25.4559 25.9234 25.4559V25.463ZM35.8373 31.7924C36.8604 31.7924 37.6931 32.625 37.6931 33.6482C37.6931 34.6713 36.8604 35.5039 35.8373 35.5039C34.8141 35.5039 33.9815 34.6713 33.9815 33.6482C33.9815 32.625 34.8141 31.7924 35.8373 31.7924ZM29.649 31.7924C30.6722 31.7924 31.5048 32.625 31.5048 33.6482C31.5048 34.6713 30.6722 35.5039 29.649 35.5039C28.6259 35.5039 27.7932 34.6713 27.7932 33.6482C27.7932 32.625 28.6259 31.7924 29.649 31.7924ZM25.9234 25.463H45.476C46.4851 25.463 47.4447 25.9005 48.1644 26.5496C48.9124 27.227 49.3993 28.1584 49.3993 29.0828V40.9301C49.3993 41.8545 48.9265 42.6377 48.1997 43.1881C47.48 43.7385 46.4921 44.0631 45.476 44.0631H31.3354L24.7732 47.9228L23.863 47.2313L24.7379 43.9149C24.0182 43.7526 23.3267 43.4492 22.7834 43.0399C22.0707 42.5037 21.605 41.7769 21.605 40.9301V29.0828C21.605 28.1584 22.1836 27.2482 23.0092 26.5708C23.8277 25.9075 24.9073 25.4559 25.9234 25.4559V25.463Z" fill="#293153"/>
</svg>
