<svg width="71" height="71" viewBox="0 0 71 71" fill="none" xmlns="http://www.w3.org/2000/svg">
<circle cx="35.5389" cy="35.247" r="28.4169" fill="white" stroke="#293153"/>
<path d="M48.6146 43.2658C49.7575 44.4087 49.7575 46.2764 48.6146 47.4193C48.4055 47.6284 48.1546 47.8096 47.8898 47.9489C45.5482 49.2034 42.8164 49.5239 40.2518 48.841C33.45 47.1266 23.6655 37.3421 21.9512 30.5264C21.2821 27.9618 21.5888 25.23 22.8432 22.8884C23.5958 21.4528 25.366 20.8813 26.8016 21.634C27.0664 21.7733 27.3034 21.9545 27.5264 22.1636L30.4394 25.0627C31.3036 25.9129 31.5405 27.1952 31.0527 28.3103C30.7879 28.9096 30.4255 29.4671 29.9655 29.941C26.6483 33.2583 37.5199 44.1439 40.8372 40.8127C41.3111 40.3527 41.8686 39.9903 42.4679 39.7255C43.569 39.2377 44.8653 39.4886 45.7155 40.3388L48.6146 43.2518V43.2658Z" fill="#293153"/>
</svg>
