<svg width="71" height="72" viewBox="0 0 71 72" fill="none" xmlns="http://www.w3.org/2000/svg">
<path d="M57.7559 59.4263V12.575C57.7559 11.3448 57.2397 10.1653 56.3183 9.29334C55.3968 8.42137 54.1504 7.93292 52.8504 7.93292H25.8762C24.5762 7.93292 23.3298 8.42137 22.4083 9.29334C21.4869 10.1653 20.9707 11.3448 20.9707 12.575" fill="#F0A63E"/>
<path d="M53.5545 12.2738C52.7018 11.4196 51.5472 10.9418 50.3428 10.9418H25.3529C24.1485 10.9418 21.885 10.9343 20.1951 11.002C18.9792 11.0509 20.8106 14.2831 20.8106 15.491H45.8006C47.0049 15.491 48.1596 15.9688 49.0122 16.823C49.8648 17.6771 50.3428 18.8323 50.3428 20.0364L52.4189 52.9945L53.8374 52.2946L55.0341 53.446L54.8888 15.4947C54.8888 14.2906 54.4109 13.1317 53.5583 12.2813L53.5545 12.2738Z" fill="white"/>
<path d="M52.8506 52.5302V17.2171C52.8506 15.9869 52.4874 14.4962 51.5659 13.6243C50.6445 12.7523 49.2451 12.575 47.9451 12.575H20.9709C19.6709 12.575 18.4245 13.0635 17.503 13.9354C16.5816 14.8074 16.0654 15.9869 16.0654 17.2171V57.8308C16.0654 59.0609 16.5816 60.2404 17.503 61.1124C18.4245 61.9844 19.6709 62.4728 20.9709 62.4728H42.4279" fill="#F0A63E"/>
<path d="M47.3677 64.0788C51.7113 64.0788 55.2325 60.7467 55.2325 56.6363C55.2325 52.5259 51.7113 49.1938 47.3677 49.1938C43.0241 49.1938 39.5029 52.5259 39.5029 56.6363C39.5029 60.7467 43.0241 64.0788 47.3677 64.0788Z" fill="white"/>
<path d="M45.0737 54.2127H47.926C48.4728 54.2127 48.9163 54.3682 49.2604 54.683C49.6045 54.9978 49.7727 55.4826 49.7727 56.1375V59.5965H49.333V56.0832C49.333 55.7974 49.291 55.555 49.2107 55.3632C49.1304 55.1679 49.0195 55.0159 48.8857 54.8965C48.7519 54.7807 48.5989 54.6975 48.4345 54.6468C48.2663 54.5962 48.0981 54.5709 47.926 54.5709H45.5172V61.1342H45.0776V54.209L45.0737 54.2127ZM47.2034 55.754H47.6431V60.7796H50.1398C50.3118 60.7796 50.4762 60.7543 50.6368 60.7036C50.7974 60.653 50.935 60.5697 51.0574 60.454C51.1797 60.3382 51.2791 60.1826 51.3518 59.9908C51.4244 59.7991 51.4627 59.553 51.4627 59.26V54.2163H51.9024V59.2166C51.9024 59.8714 51.7456 60.3563 51.4321 60.671C51.1186 60.9858 50.6865 61.1414 50.1398 61.1414H47.2034V55.7576V55.754Z" fill="white"/>
<path d="M49.8911 66.8689C54.2347 66.8689 57.7559 63.5368 57.7559 59.4264C57.7559 55.316 54.2347 51.9839 49.8911 51.9839C45.5476 51.9839 42.0264 55.316 42.0264 59.4264C42.0264 63.5368 45.5476 66.8689 49.8911 66.8689Z" fill="#F0A63E"/>
<path d="M46.6069 56.0796H49.4592C50.006 56.0796 50.4495 56.2352 50.7936 56.55C51.1377 56.8648 51.3059 57.3496 51.3059 58.0045V61.4634H50.8662V57.9502C50.8662 57.6644 50.8242 57.422 50.7439 57.2302C50.6636 57.0348 50.5527 56.8829 50.4189 56.7635C50.2851 56.6477 50.1321 56.5645 49.9677 56.5138C49.7995 56.4632 49.6313 56.4378 49.4592 56.4378H47.0505V63.0011H46.6108V56.076L46.6069 56.0796ZM48.7366 57.621H49.1763V62.6466H51.673C51.845 62.6466 52.0094 62.6212 52.17 62.5706C52.3306 62.5199 52.4682 62.4367 52.5906 62.3209C52.7129 62.2052 52.8124 62.0496 52.885 61.8578C52.9576 61.666 52.9959 61.42 52.9959 61.127V56.0833H53.4356V61.0835C53.4356 61.7384 53.2788 62.2232 52.9653 62.538C52.6518 62.8528 52.2197 63.0084 51.673 63.0084H48.7366V57.6246V57.621Z" fill="#F0A63E"/>
<path d="M48.6534 65.6136C52.997 65.6136 56.5181 62.2814 56.5181 58.1711C56.5181 54.0607 52.997 50.7285 48.6534 50.7285C44.3098 50.7285 40.7886 54.0607 40.7886 58.1711C40.7886 62.2814 44.3098 65.6136 48.6534 65.6136Z" fill="#F0A63E"/>
<path d="M45.3691 54.8206H48.2214C48.7682 54.8206 49.2117 54.9762 49.5558 55.291C49.8999 55.6057 50.0681 56.0906 50.0681 56.7455V60.2044H49.6284V56.6912C49.6284 56.4054 49.5864 56.1629 49.5061 55.9712C49.4258 55.7758 49.3149 55.6238 49.1811 55.5044C49.0473 55.3887 48.8943 55.3054 48.7299 55.2548C48.5617 55.2041 48.3935 55.1788 48.2214 55.1788H45.8127V61.7421H45.373V54.817L45.3691 54.8206ZM47.4988 56.3619H47.9385V61.3875H50.4352C50.6072 61.3875 50.7716 61.3622 50.9322 61.3116C51.0928 61.2609 51.2304 61.1777 51.3528 61.0619C51.4751 60.9461 51.5746 60.7905 51.6472 60.5988C51.7198 60.407 51.7581 60.161 51.7581 59.8679V54.8242H52.1978V59.8245C52.1978 60.4794 52.041 60.9642 51.7275 61.279C51.414 61.5938 50.9819 61.7494 50.4352 61.7494H47.4988V56.3656V56.3619Z" fill="#F0A63E"/>
<path d="M50.3345 49.7979V14.4848C50.3345 13.2546 49.8183 12.0751 48.8969 11.2031C47.9754 10.3312 46.729 9.84271 45.429 9.84271H18.4548C17.1548 9.84271 15.9084 10.3312 14.9869 11.2031C14.0655 12.0751 13.5493 13.2546 13.5493 14.4848V55.0985C13.5493 56.3286 14.0655 57.5081 14.9869 58.3801C15.9084 59.2521 17.1548 59.7405 18.4548 59.7405H40.1374" stroke="#333F48" stroke-miterlimit="10"/>
<path d="M55.2398 56.6941V9.84273C55.2398 8.61256 54.7236 7.43305 53.8021 6.56108C52.8807 5.6891 51.6343 5.20065 50.3343 5.20065H23.36C22.0601 5.20065 20.8136 5.6891 19.8922 6.56108C18.9708 7.43305 18.4546 8.61256 18.4546 9.84273" stroke="#333F48" stroke-miterlimit="10"/>
<path d="M22.1328 19.1233H41.7508" stroke="#333F48" stroke-miterlimit="10"/>
<path d="M22.1328 26.0882H41.7508" stroke="#333F48" stroke-miterlimit="10"/>
<path d="M22.1328 33.0495H41.7508" stroke="#333F48" stroke-miterlimit="10"/>
<path d="M47.375 64.1366C51.7186 64.1366 55.2398 60.8045 55.2398 56.6941C55.2398 52.5837 51.7186 49.2516 47.375 49.2516C43.0314 49.2516 39.5103 52.5837 39.5103 56.6941C39.5103 60.8045 43.0314 64.1366 47.375 64.1366Z" stroke="#333F48" stroke-miterlimit="10"/>
<path d="M44.0908 53.3474H46.9431C47.4898 53.3474 47.9334 53.5029 48.2775 53.8177C48.6216 54.1325 48.7898 54.6173 48.7898 55.2722V58.7312H48.3501V55.2179C48.3501 54.9321 48.3081 54.6897 48.2278 54.4979C48.1475 54.3025 48.0366 54.1506 47.9028 54.0312C47.769 53.9154 47.616 53.8322 47.4516 53.7815C47.2834 53.7309 47.1151 53.7055 46.9431 53.7055H44.5343V60.2689H44.0946V53.3437L44.0908 53.3474ZM46.2205 54.8887H46.6602V59.9143H49.1569C49.3289 59.9143 49.4933 59.889 49.6539 59.8383C49.8145 59.7876 49.9521 59.7044 50.0745 59.5887C50.1968 59.4729 50.2962 59.3173 50.3689 59.1255C50.4415 58.9338 50.4798 58.6877 50.4798 58.3947V53.351H50.9195V58.3512C50.9195 59.0061 50.7627 59.491 50.4492 59.8057C50.1357 60.1205 49.7036 60.2761 49.1569 60.2761H46.2205V54.8923V54.8887Z" fill="#1D1D1B"/>
</svg>
