<svg width="72" height="71" viewBox="0 0 72 71" fill="none" xmlns="http://www.w3.org/2000/svg">
<path d="M27.5594 6.94566H46.5487C54.5703 6.94566 61.0769 13.5765 61.0769 21.7353V50.007C61.0769 52.9635 58.7172 55.3656 55.8129 55.3656H18.2952C15.3909 55.3656 13.0312 52.9635 13.0312 50.007V21.7353C13.0312 13.5765 19.5448 6.94566 27.5594 6.94566Z" fill="#CBCEF0"/>
<path d="M56.5614 17.5801H18.9459C17.635 17.5801 16.5723 18.662 16.5723 19.9965V35.0562C16.5723 36.3908 17.635 37.4726 18.9459 37.4726H56.5614C57.8724 37.4726 58.9351 36.3908 58.9351 35.0562V19.9965C58.9351 18.662 57.8724 17.5801 56.5614 17.5801Z" fill="white"/>
<path d="M25.4657 4.8147H44.4549C52.4765 4.8147 58.9831 11.4455 58.9831 19.6044V47.876C58.9831 50.8325 56.6234 53.2347 53.7192 53.2347H16.2014C13.2972 53.2347 10.9375 50.8325 10.9375 47.876V19.6044C10.9375 11.4455 17.4511 4.8147 25.4657 4.8147Z" stroke="#333F48" stroke-width="0.8" stroke-miterlimit="10"/>
<path d="M23.6155 53.2424L11.3911 65.6797" stroke="#333F48" stroke-width="0.8" stroke-linecap="round" stroke-linejoin="round"/>
<path d="M46.3057 53.2425L58.53 65.6797" stroke="#333F48" stroke-width="0.8" stroke-linecap="round" stroke-linejoin="round"/>
<path d="M22.2055 49.1898C24.6885 49.1898 26.7014 47.1407 26.7014 44.6129C26.7014 42.0852 24.6885 40.036 22.2055 40.036C19.7224 40.036 17.7095 42.0852 17.7095 44.6129C17.7095 47.1407 19.7224 49.1898 22.2055 49.1898Z" fill="white"/>
<path d="M50.5077 49.1898C52.9908 49.1898 55.0037 47.1407 55.0037 44.6129C55.0037 42.0852 52.9908 40.036 50.5077 40.036C48.0246 40.036 46.0117 42.0852 46.0117 44.6129C46.0117 47.1407 48.0246 49.1898 50.5077 49.1898Z" fill="white"/>
<path d="M43.079 8.08463H26.8404C25.9459 8.08463 25.2207 8.82283 25.2207 9.73345V9.74056C25.2207 10.6512 25.9459 11.3894 26.8404 11.3894H43.079C43.9735 11.3894 44.6987 10.6512 44.6987 9.74056V9.73345C44.6987 8.82283 43.9735 8.08463 43.079 8.08463Z" stroke="#333F48" stroke-width="0.8" stroke-miterlimit="10"/>
<path d="M20.8095 48.4795C23.2925 48.4795 25.3055 46.4304 25.3055 43.9026C25.3055 41.3749 23.2925 39.3257 20.8095 39.3257C18.3264 39.3257 16.3135 41.3749 16.3135 43.9026C16.3135 46.4304 18.3264 48.4795 20.8095 48.4795Z" stroke="#333F48" stroke-width="0.8" stroke-miterlimit="10"/>
<path d="M49.1117 48.4795C51.5948 48.4795 53.6077 46.4304 53.6077 43.9026C53.6077 41.3749 51.5948 39.3257 49.1117 39.3257C46.6286 39.3257 44.6157 41.3749 44.6157 43.9026C44.6157 46.4304 46.6286 48.4795 49.1117 48.4795Z" stroke="#333F48" stroke-width="0.8" stroke-miterlimit="10"/>
<path d="M52.7635 16.158H17.1598C15.919 16.158 14.9131 17.2398 14.9131 18.5744V33.6341C14.9131 34.9686 15.919 36.0505 17.1598 36.0505H52.7635C54.0043 36.0505 55.0102 34.9686 55.0102 33.6341V18.5744C55.0102 17.2398 54.0043 16.158 52.7635 16.158Z" stroke="#333F48" stroke-width="0.8" stroke-miterlimit="10"/>
</svg>
