<?xml version="1.0" encoding="UTF-8"?><svg id="Layer_2" xmlns="http://www.w3.org/2000/svg" width="87.53" height="86.58" viewBox="0 0 87.53 86.58"><g id="Layer_5"><rect width="87.53" height="86.58" fill="none" stroke-width="0"/><path d="m36.38,32.22l-8.84.11c-.72.01-1.44.1-2.14.27-4.14,1-7.14,4.59-7.38,8.84l-1.62,25.76c-.25,4.59,3.26,8.52,7.86,8.77,3.27.18,6.35-1.58,7.86-4.49.01-.02.02-.04.03-.07l5.43-13.1c.27-.64.83-1.12,1.5-1.28l10.92-2.63c.68-.16,1.39,0,1.92.46l10.79,9.19s.04.03.06.05c3.74,2.68,8.94,1.82,11.62-1.92,1.91-2.67,2.07-6.21.42-9.04h0s-13.15-22.19-13.15-22.19c-2.14-3.68-6.44-5.52-10.59-4.53-.7.17-1.38.42-2.03.73l-7.93,3.92c-2.38,1.18-4.74,1.14-4.74,1.14Z" fill="#fff" stroke="#494c54" stroke-linecap="round" stroke-linejoin="round" stroke-width=".92"/><path d="m26.09,38.9l-.1-.43c-.06-.25.09-.5.34-.56l2.55-.61c.25-.06.5.09.56.34l.54,2.24c.05.19.24.31.44.27l1.82-.44c.48-.12.97.18,1.08.66l.51,2.13c.06.25-.09.5-.34.56l-2.24.54c-.19.05-.31.24-.27.44l.54,2.24c.06.25-.09.5-.34.56l-2.55.61c-.25.06-.5-.09-.56-.34l-.54-2.24c-.05-.19-.24-.31-.44-.27l-2.24.54c-.25.06-.5-.09-.56-.34l-.61-2.55c-.06-.25.09-.5.34-.56l2.24-.54c.19-.05.31-.24.27-.44l-.12-.49-.32-1.31Z" fill="none" stroke="#9aa38d" stroke-linecap="round" stroke-linejoin="round" stroke-width=".92"/><path d="m52.07,34.89c-.88.21-1.76-.33-1.97-1.21s.33-1.76,1.21-1.97c.88-.21,1.76.33,1.97,1.21h0c.21.88-.33,1.76-1.21,1.97Zm1.61,6.7c-.88.21-1.76-.33-1.97-1.21s.33-1.76,1.21-1.97c.88-.21,1.76.33,1.97,1.21h0c.21.88-.33,1.76-1.21,1.97Zm2.36-4.14c-.88.21-1.76-.33-1.97-1.21s.33-1.76,1.21-1.97c.88-.21,1.76.33,1.97,1.21h0c.21.88-.33,1.76-1.21,1.97Zm-6.44,1.55c-1.2.29-2.42-.83-1.89-2.3.04-.11.11-.22.19-.3,1.07-1.14,2.62-.57,2.91.64h0c.21.88-.33,1.76-1.21,1.97Z" fill="none" stroke="#9aa38d" stroke-linecap="round" stroke-linejoin="round" stroke-width=".92"/><path d="m35.34,17.63c-.2,1.58-.11,3.18.26,4.73l.69,2.86c.12.48.6.78,1.08.66h0c.48-.12.78-.6.66-1.08l-.69-2.86c-.44-1.83-.42-3.74.06-5.56l1.23-4.66c.12-.48-.17-.97-.65-1.09-.47-.12-.96.16-1.09.63l-1.23,4.66-.33,1.71Z" fill="#fff" stroke="#494c54" stroke-linecap="round" stroke-linejoin="round" stroke-width=".92"/><path d="m40.7,30.45l-1-4.13c-.12-.48-.6-.78-1.08-.66l-2.86.69c-.48.12-.78.6-.66,1.08l1.16,4.8h.14s1.75.02,3.75-.72c.43-.16.67-.61.56-1.05Z" fill="#fff" stroke="#494c54" stroke-linecap="round" stroke-linejoin="round" stroke-width=".92"/><circle cx="36.74" cy="50.62" r="2.56" fill="none" stroke="#9aa38d" stroke-linecap="round" stroke-linejoin="round" stroke-width=".92"/><circle cx="49.26" cy="47.66" r="2.56" fill="none" stroke="#9aa38d" stroke-linecap="round" stroke-linejoin="round" stroke-width=".92"/><polyline points="70.42 26.7 79.08 33.6 78.58 39.15 81.5 42.81 81.5 47.26" fill="none" stroke="#9aa38d" stroke-linecap="round" stroke-linejoin="round" stroke-width=".92"/><polyline points="11.25 46.89 6.03 57.11 8.59 61.93 7.34 66.59 9.04 70.63" fill="none" stroke="#9aa38d" stroke-linecap="round" stroke-linejoin="round" stroke-width=".92"/></g></svg>