<?xml version="1.0" encoding="UTF-8"?><svg id="Layer_2" xmlns="http://www.w3.org/2000/svg" width="88.25" height="86.58" viewBox="0 0 88.25 86.58"><g id="Layer_5"><rect x=".36" width="87.53" height="86.58" fill="none" stroke-width="0"/><path d="m87.79,39.06v-5.84l-3.19-.59c-.47-2.55-1.46-4.91-2.85-6.98l1.88-2.73-4.13-4.13-2.71,1.86c-2.07-1.42-4.44-2.43-7-2.92l-.6-3.21h-5.84l-.6,3.21c-2.56.49-4.93,1.5-7,2.92l-2.71-1.86-4.13,4.13,1.88,2.73c-1.38,2.06-2.37,4.41-2.84,6.94l-3.41.63v5.84l3.45.64c.5,2.49,1.49,4.8,2.87,6.83l-1.95,2.84,4.13,4.13,2.86-1.97c2.02,1.36,4.33,2.32,6.8,2.8l.64,3.43h5.84l.64-3.43c2.48-.48,4.78-1.45,6.8-2.8l2.86,1.97,4.13-4.13-1.95-2.84c1.39-2.04,2.38-4.36,2.88-6.87l3.23-.6Z" fill="#fff" stroke="#494c54" stroke-linecap="round" stroke-linejoin="round" stroke-width=".92"/><path d="m50.94,33.55c.78-4.84,3.8-8.93,7.96-11.18" fill="#fff" stroke="#494c54" stroke-linecap="round" stroke-linejoin="round" stroke-width=".92"/><path d="m55.96,47.64c-3.2-2.85-5.23-7-5.23-11.61" fill="#fff" stroke="#494c54" stroke-linecap="round" stroke-linejoin="round" stroke-width=".92"/><path d="m78.92,45.04c-2.82,3.95-7.44,6.53-12.65,6.53" fill="#fff" stroke="#494c54" stroke-linecap="round" stroke-linejoin="round" stroke-width=".92"/><path d="m68.11,20.61c7.7.91,13.69,7.48,13.69,15.42" fill="#fff" stroke="#494c54" stroke-linecap="round" stroke-linejoin="round" stroke-width=".92"/><circle cx="66.27" cy="36.03" r="11.27" fill="none" stroke="#9aa38d" stroke-linecap="round" stroke-linejoin="round" stroke-width=".92"/><circle cx="66.27" cy="36.03" r="4.63" fill="#fff" stroke="#494c54" stroke-linecap="round" stroke-linejoin="round" stroke-width=".92"/><path d="m28.33,33.61l-8.63-1.94c-.7-.16-1.42-.23-2.14-.23-4.26.01-8.01,2.81-9.22,6.89L.81,63.02c-1.31,4.41,1.21,9.04,5.61,10.35,3.14.93,6.54-.07,8.68-2.55.02-.02.03-.04.05-.06l8.31-11.49c.41-.56,1.06-.9,1.76-.9l11.23-.03c.7,0,1.35.33,1.76.89l8.37,11.44s.03.04.05.06c3.02,3.47,8.28,3.83,11.75.82,2.47-2.15,3.45-5.56,2.5-8.7h0s-7.66-24.63-7.66-24.63c-1.23-4.08-4.99-6.86-9.25-6.85-.72,0-1.44.09-2.15.24l-8.62,1.98c-2.59.6-4.87.01-4.87.01Z" fill="#fff" stroke="#494c54" stroke-linecap="round" stroke-linejoin="round" stroke-width=".92"/><path d="m16.77,37.72v-.44c0-.25.21-.46.46-.46h2.62c.25,0,.46.2.46.46v2.3c0,.2.17.36.37.36h1.87c.49,0,.9.4.9.89v2.19c0,.26-.2.46-.46.46h-2.3c-.2,0-.36.17-.36.37v2.3c0,.25-.2.46-.46.46h-2.62c-.25,0-.46-.2-.46-.46v-2.3c0-.2-.17-.36-.37-.36h-2.3c-.25,0-.46-.2-.46-.46v-2.62c0-.25.2-.46.46-.46h2.3c.2,0,.36-.17.36-.37v-.51s0-1.35,0-1.35Z" fill="none" stroke="#9aa38d" stroke-linecap="round" stroke-linejoin="round" stroke-width=".92"/><path d="m42.98,39.83c-.9,0-1.64-.73-1.64-1.63s.73-1.64,1.63-1.64c.9,0,1.64.73,1.64,1.63h0c0,.9-.73,1.63-1.63,1.64Zm.02,6.9c-.9,0-1.64-.73-1.64-1.63s.73-1.64,1.63-1.64c.9,0,1.64.73,1.64,1.63h0c0,.9-.73,1.63-1.63,1.64Zm3.26-3.48c-.9,0-1.64-.73-1.64-1.63s.73-1.64,1.63-1.64c.9,0,1.64.73,1.64,1.63h0c0,.9-.73,1.63-1.63,1.64Zm-6.63.02c-1.24,0-2.16-1.37-1.31-2.68.06-.1.15-.19.25-.25,1.3-.86,2.68.06,2.69,1.29h0c0,.9-.73,1.63-1.63,1.64Z" fill="none" stroke="#9aa38d" stroke-linecap="round" stroke-linejoin="round" stroke-width=".92"/><path d="m30.69,19.17c-.56,1.49-.85,3.07-.84,4.66v2.94c0,.5.41.9.91.9h0c.5,0,.9-.4.9-.9v-2.94c-.01-1.88.45-3.74,1.34-5.4l2.28-4.25c.23-.44.06-.98-.38-1.21-.43-.23-.97-.06-1.2.36l-2.28,4.25-.72,1.59Z" fill="#fff" stroke="#494c54" stroke-linecap="round" stroke-linejoin="round" stroke-width=".92"/><path d="m32.94,32.88v-4.25c-.01-.49-.42-.9-.91-.9h-2.95c-.49,0-.9.41-.9.91v4.94s.14.03.14.03c0,0,1.7.43,3.82.17.45-.06.79-.44.79-.9Z" fill="#fff" stroke="#494c54" stroke-linecap="round" stroke-linejoin="round" stroke-width=".92"/><circle cx="24.42" cy="51.59" r="2.56" fill="none" stroke="#9aa38d" stroke-linecap="round" stroke-linejoin="round" stroke-width=".92"/><circle cx="37.28" cy="51.61" r="2.56" fill="none" stroke="#9aa38d" stroke-linecap="round" stroke-linejoin="round" stroke-width=".92"/></g></svg>