<svg width="41" height="41" viewBox="0 0 41 41" fill="none" xmlns="http://www.w3.org/2000/svg">
<path d="M14.1953 34.1514C14.1953 34.1514 14.2953 33.5314 14.8853 33.2314" stroke="white" stroke-width="0.3" stroke-miterlimit="10" stroke-linecap="round"/>
<path d="M21.866 37.8516C21.456 37.8616 21.036 37.8816 20.626 37.8816C21.036 37.8816 21.456 37.8716 21.866 37.8516Z" fill="#14C197"/>
<path d="M20.6257 37.8816C20.2157 37.8816 19.7957 37.8616 19.3857 37.8516C19.7957 37.8716 20.2157 37.8816 20.6257 37.8816Z" fill="#14C197"/>
<path d="M20.6256 40.0217C20.3156 40.0217 20.0056 40.0117 19.6856 40.0017H19.3156C16.4756 39.8617 13.6256 39.3317 10.8256 38.4117C7.13563 37.2017 4.17563 34.4517 2.70563 30.8717C2.59563 30.5917 2.48563 30.3117 2.38563 30.0217C1.30562 26.7817 0.765625 23.5017 0.765625 20.2717C0.765625 17.0417 1.27562 13.9817 2.28562 10.8517C3.62563 6.65172 6.94563 3.35172 11.1556 2.02172C14.2956 1.02172 17.4856 0.511719 20.6256 0.511719C23.7656 0.511719 27.1756 1.05172 30.4256 2.12172C34.3956 3.43172 37.5456 6.56172 38.8656 10.5117C39.9456 13.7517 40.4856 17.0317 40.4856 20.2617C40.4856 23.4917 39.9356 26.7717 38.8656 30.0117C38.7656 30.3217 38.6456 30.6217 38.5156 30.9217C37.0356 34.4717 34.0856 37.2017 30.4256 38.4017C27.6256 39.3217 24.7856 39.8517 21.9756 39.9817H21.5656C21.2556 40.0017 20.9456 40.0117 20.6356 40.0117L20.6256 40.0217Z" fill="#0B1A42"/>
<path d="M20.6257 38.952C20.3257 38.952 20.0257 38.952 19.7257 38.932H19.3557C16.6257 38.792 13.8757 38.282 11.1657 37.392C7.7757 36.282 5.0557 33.752 3.7057 30.462C3.5957 30.202 3.5057 29.952 3.4157 29.682C2.3757 26.552 1.8457 23.392 1.8457 20.272C1.8457 17.152 2.3357 14.202 3.3157 11.172C4.5457 7.31203 7.5957 4.27203 11.4757 3.04203C14.5157 2.07203 17.5857 1.58203 20.6157 1.58203C23.6457 1.58203 26.9357 2.10203 30.0757 3.14203C33.7257 4.34203 36.6257 7.22203 37.8357 10.852C38.8757 13.982 39.4057 17.142 39.4057 20.262C39.4057 23.382 38.8757 26.542 37.8357 29.672C37.7457 29.952 37.6357 30.232 37.5157 30.512C36.1557 33.772 33.4457 36.282 30.0757 37.392C27.3657 38.282 24.6157 38.802 21.9057 38.922H21.5157C21.2157 38.942 20.9157 38.952 20.6157 38.952H20.6257Z" fill="#6D7EB2"/>
<path d="M36.8253 11.1916C35.7153 7.8716 33.0853 5.2516 29.7453 4.1516C26.7053 3.1516 23.6453 2.6416 20.6153 2.6416C17.5853 2.6416 14.7353 3.1116 11.7953 4.0516C8.22527 5.1916 5.45527 7.9416 4.31527 11.4916C3.37527 14.4116 2.90527 17.3516 2.90527 20.2616C2.90527 23.2716 3.41527 26.3116 4.41527 29.3316C4.49527 29.5716 4.58527 29.8116 4.68527 30.0416C5.91527 33.0216 8.39527 35.3516 11.4953 36.3616C14.1253 37.2216 16.7553 37.7216 19.3753 37.8416C19.7853 37.8516 20.2053 37.8716 20.6153 37.8716C21.0253 37.8716 21.4453 37.8516 21.8553 37.8416C24.4753 37.7216 27.1153 37.2316 29.7353 36.3616C32.8153 35.3516 35.2853 33.0416 36.5253 30.0916C36.6253 29.8416 36.7253 29.5916 36.8153 29.3316C37.8253 26.3116 38.3253 23.2716 38.3253 20.2616C38.3253 17.2516 37.8153 14.2116 36.8153 11.1916H36.8253Z" fill="url(#paint0_linear_527_5763)"/>
<path d="M12.5858 6.41145C12.5858 7.14145 11.2858 7.05145 9.37583 8.34145C6.44583 10.3415 7.21583 12.0115 6.11583 11.6815C5.44583 11.4815 6.29583 9.17145 8.08583 7.72145C9.87583 6.27145 12.5758 5.71145 12.5858 6.41145Z" fill="white"/>
<path d="M5.58551 14.0216C5.96658 14.0216 6.27551 13.7127 6.27551 13.3316C6.27551 12.9505 5.96658 12.6416 5.58551 12.6416C5.20443 12.6416 4.89551 12.9505 4.89551 13.3316C4.89551 13.7127 5.20443 14.0216 5.58551 14.0216Z" fill="white"/>
<path opacity="0.07" d="M29.7452 4.16137C26.7052 3.16137 23.6452 2.65137 20.6152 2.65137C17.5852 2.65137 14.7352 3.12137 11.7952 4.06137C8.22523 5.20137 5.45523 7.95137 4.31523 11.5014C4.04523 12.3514 3.81523 13.2114 3.61523 14.0614C6.70523 11.3614 19.5152 1.50137 35.2552 8.17137C33.8952 6.32137 31.9852 4.90137 29.7452 4.16137Z" fill="white"/>
<path opacity="0.67" d="M4.68527 30.0517C5.91527 33.0317 8.39527 35.3617 11.4953 36.3717C14.1253 37.2317 16.7553 37.7317 19.3753 37.8517C19.7853 37.8617 20.2053 37.8817 20.6153 37.8817C21.0253 37.8817 21.4453 37.8617 21.8553 37.8517C24.4753 37.7317 27.1153 37.2417 29.7353 36.3717C32.8153 35.3617 35.2853 33.0517 36.5253 30.1017C36.6253 29.8517 36.7253 29.6017 36.8153 29.3417C37.8053 26.3717 38.3053 23.3817 38.3253 20.4217C38.2753 21.8717 37.3753 33.4917 21.8553 35.1517C5.30527 36.9317 2.90527 20.2617 2.90527 20.2617C2.90527 23.2717 3.41527 26.3117 4.41527 29.3317C4.49527 29.5717 4.58527 29.8117 4.68527 30.0417V30.0517Z" fill="#0B1A42"/>
<path d="M26.9052 27.532C26.6552 27.532 26.4152 27.432 26.2252 27.252C26.0352 27.072 25.9352 26.832 25.9252 26.572C25.9252 26.312 26.0252 26.062 26.2052 25.872C26.8452 25.222 27.3252 24.522 27.6752 23.742C28.8152 21.202 28.2952 18.132 26.3852 16.102L26.1952 15.902C25.8252 15.492 25.8352 14.902 26.2152 14.532C26.3952 14.352 26.6352 14.252 26.8852 14.252C27.1352 14.252 27.3952 14.362 27.5852 14.552C28.1152 15.082 28.5752 15.662 28.9552 16.292C29.3552 16.962 29.6652 17.682 29.8752 18.412C30.0752 19.112 30.1352 19.692 30.1752 20.072V20.172C30.2352 20.602 30.2452 21.632 30.0652 22.532V22.602C29.9952 22.932 29.8252 23.792 29.2752 24.892C28.8552 25.742 28.2752 26.532 27.5652 27.232C27.3752 27.412 27.1352 27.522 26.8752 27.522L26.9052 27.532Z" fill="#0B1A42"/>
<path d="M21.8556 29.8921C21.6256 29.8921 21.4056 29.8021 21.1756 29.6221L17.8456 26.9521C17.0156 26.2921 16.1956 25.6321 15.3656 24.9721C15.3556 24.9721 15.3156 24.9521 15.2956 24.9521C14.8456 24.9521 14.3856 24.9521 13.9356 24.9521H12.6956C11.6756 24.9521 11.0156 24.2921 11.0156 23.2621V18.5321C11.0156 17.5121 11.6756 16.8421 12.6956 16.8421H13.9856C14.4156 16.8421 14.8456 16.8421 15.2756 16.8421C15.3156 16.8421 15.3656 16.8221 15.3856 16.8121C17.3056 15.2821 19.2256 13.7521 21.1456 12.2121C21.3156 12.0721 21.5556 11.9121 21.8656 11.9121C21.9656 11.9121 22.0556 11.9321 22.1556 11.9621C22.5456 12.0821 22.8056 12.4221 22.8356 12.8221C22.8356 12.8921 22.8356 12.9521 22.8356 13.0221C22.8356 13.0221 22.8356 26.7821 22.8356 28.8321C22.8356 29.4321 22.5156 29.6921 22.2356 29.8121C22.1156 29.8621 21.9856 29.8921 21.8556 29.8921Z" fill="#0B1A42"/>
<path d="M25.1552 25.7922C25.0052 25.7922 24.8552 25.7522 24.7152 25.6822C24.3152 25.4722 24.1152 25.0322 24.2252 24.6022C24.2752 24.4222 24.3852 24.2322 24.5352 24.0722C25.2352 23.3322 25.6552 22.4722 25.7752 21.5122C25.9552 20.0522 25.5552 18.8222 24.5652 17.7422C24.3952 17.5622 24.2852 17.3822 24.2352 17.2022C24.1052 16.7822 24.3052 16.3322 24.7052 16.1122C24.8452 16.0322 25.0052 15.9922 25.1652 15.9922C25.4252 15.9922 25.6752 16.1022 25.8752 16.2922C26.4852 16.8922 26.9552 17.6022 27.2852 18.3922C27.6152 19.1822 27.7752 20.0122 27.7752 20.9822C27.7452 22.6822 27.0952 24.2322 25.8952 25.4622C25.6852 25.6722 25.4252 25.7922 25.1652 25.7922H25.1552Z" fill="#0B1A42"/>
<g opacity="0.63">
<path d="M29.7252 21.2123C29.6752 21.4523 29.5452 22.3323 28.9752 23.4823C28.5652 24.3023 28.0152 25.0523 27.3352 25.7323C27.0852 25.9823 26.7152 25.9723 26.4752 25.7323C26.2352 25.5023 26.9952 25.3623 27.2452 25.1123C27.8852 24.4523 28.4052 23.7223 28.7852 22.8823C29.9852 20.1923 28.6752 16.7423 26.6552 14.6023C26.5952 14.5323 26.5252 14.4723 26.4652 14.4023C26.2252 14.1423 26.2252 13.7623 26.4652 13.5223C26.7152 13.2823 27.0852 13.2823 27.3452 13.5423C27.8552 14.0423 28.2952 14.6023 28.6552 15.2123C29.0452 15.8623 29.3352 16.5323 29.5352 17.2423C29.7452 17.9723 29.7952 18.5723 29.8352 18.9423C29.8852 19.3723 29.8852 20.3723 29.7152 21.2023L29.7252 21.2123Z" fill="#CBE9F4"/>
<path d="M22.4655 19.6318C22.4655 22.2718 22.4655 24.9218 22.4655 27.5618C22.4655 27.8618 22.3655 28.0918 22.0855 28.2118C21.8255 28.3218 21.6055 28.2418 21.3955 28.0718C20.5255 27.3718 19.6555 26.6818 18.7855 25.9818C17.7155 25.1318 16.6555 24.2718 15.5755 23.4218C15.4955 23.3618 15.3855 23.3218 15.2855 23.3218C14.4155 23.3218 13.5555 23.3218 12.6855 23.3218C11.8655 23.3218 11.3555 22.8118 11.3555 21.9918C11.3555 20.4118 11.3555 18.8318 11.3555 17.2618C11.3555 16.4418 11.8655 15.9318 12.6855 15.9318C13.5455 15.9318 14.4055 15.9318 15.2655 15.9318C15.3755 15.9318 15.5055 15.8918 15.5855 15.8218C17.5055 14.2918 19.4255 12.7518 21.3455 11.2218C21.5455 11.0618 21.7555 10.9418 22.0255 11.0318C22.2755 11.1118 22.4355 11.3218 22.4555 11.5818C22.4555 11.6518 22.4555 11.7218 22.4555 11.8018C22.4555 14.4118 22.4555 17.0318 22.4555 19.6418L22.4655 19.6318Z" fill="#CBE9F4"/>
<path d="M27.4056 19.7322C27.3856 21.3022 26.8056 22.7522 25.6256 23.9522C25.4056 24.1822 25.1156 24.2322 24.8656 24.1022C24.6256 23.9722 25.2556 23.7622 25.3256 23.4922C25.3656 23.3522 25.4556 23.2222 25.5556 23.1122C26.2956 22.3322 26.1456 21.3322 26.2756 20.2622C26.4656 18.7122 25.8756 17.3922 24.8156 16.2422C24.7056 16.1222 24.6056 15.9822 24.5656 15.8422C24.4856 15.5722 24.6256 15.3022 24.8656 15.1722C25.1056 15.0422 25.3956 15.0822 25.6156 15.2922C26.1856 15.8622 26.6356 16.5222 26.9456 17.2722C27.2556 18.0222 27.4056 18.8122 27.4156 19.7322H27.4056Z" fill="#CBE9F4"/>
</g>
<path d="M29.7258 21.8414C29.6758 22.0814 29.5458 22.9614 28.9758 24.1114C28.5658 24.9314 28.0158 25.6814 27.3358 26.3614C27.0858 26.6114 26.7158 26.6014 26.4758 26.3614C26.2358 26.1314 26.2258 25.7414 26.4758 25.4814C27.1158 24.8214 27.6358 24.0914 28.0158 23.2514C29.2158 20.5614 28.6858 17.3614 26.6658 15.2214C26.6058 15.1514 26.5358 15.0914 26.4758 15.0214C26.2358 14.7614 26.2358 14.3814 26.4758 14.1414C26.7258 13.9014 27.0958 13.9014 27.3558 14.1614C27.8658 14.6614 28.3058 15.2214 28.6658 15.8314C29.0558 16.4814 29.3458 17.1514 29.5458 17.8614C29.7558 18.5914 29.8058 19.1914 29.8458 19.5614C29.8958 19.9914 29.8958 20.9914 29.7258 21.8214V21.8414Z" fill="white"/>
<path d="M22.4655 20.2617C22.4655 22.9017 22.4655 25.5517 22.4655 28.1917C22.4655 28.4917 22.3655 28.7217 22.0855 28.8417C21.8255 28.9517 21.6055 28.8717 21.3955 28.7017C20.5255 28.0017 19.6555 27.3117 18.7855 26.6117C17.7155 25.7617 16.6555 24.9017 15.5755 24.0517C15.4955 23.9917 15.3855 23.9517 15.2855 23.9517C14.4155 23.9517 13.5555 23.9517 12.6855 23.9517C11.8655 23.9517 11.3555 23.4417 11.3555 22.6217C11.3555 21.0417 11.3555 19.4617 11.3555 17.8917C11.3555 17.0717 11.8655 16.5617 12.6855 16.5617C13.5455 16.5617 14.4055 16.5617 15.2655 16.5617C15.3755 16.5617 15.5055 16.5217 15.5855 16.4517C17.5055 14.9217 19.4255 13.3817 21.3455 11.8517C21.5455 11.6917 21.7555 11.5717 22.0255 11.6617C22.2755 11.7417 22.4355 11.9517 22.4555 12.2117C22.4555 12.2817 22.4555 12.3517 22.4555 12.4317C22.4555 15.0417 22.4555 17.6617 22.4555 20.2717L22.4655 20.2617Z" fill="white"/>
<path d="M27.4052 20.3621C27.3852 21.9321 26.8052 23.3821 25.6252 24.5821C25.4052 24.8121 25.1152 24.8621 24.8652 24.7321C24.6252 24.6021 24.4852 24.3421 24.5552 24.0621C24.5952 23.9221 24.6852 23.7921 24.7852 23.6821C25.5252 22.9021 25.9852 21.9921 26.1152 20.9221C26.3052 19.3721 25.8752 18.0221 24.8152 16.8721C24.7052 16.7521 24.6052 16.6121 24.5652 16.4721C24.4852 16.2021 24.6252 15.9321 24.8652 15.8021C25.1052 15.6721 25.3952 15.7121 25.6152 15.9221C26.1852 16.4921 26.6352 17.1521 26.9452 17.9021C27.2552 18.6521 27.4052 19.4421 27.4152 20.3621H27.4052Z" fill="white"/>
<defs>
<linearGradient id="paint0_linear_527_5763" x1="19.5853" y1="-9.8084" x2="21.6253" y2="49.3716" gradientUnits="userSpaceOnUse">
<stop offset="0.12" stop-color="#4C6596"/>
<stop offset="0.44" stop-color="#3D4E88"/>
<stop offset="0.61" stop-color="#35417B"/>
<stop offset="0.91" stop-color="#2A3069"/>
</linearGradient>
</defs>
</svg>
