<?xml version="1.0" encoding="UTF-8"?><svg id="Layer_2" xmlns="http://www.w3.org/2000/svg" width="389.32" height="445.23" xmlns:xlink="http://www.w3.org/1999/xlink" viewBox="0 0 389.32 445.23"><defs><linearGradient id="linear-gradient" x1="208.89" y1="242.04" x2="342.45" y2="220.67" gradientUnits="userSpaceOnUse"><stop offset="0" stop-color="#f9e9ff"/><stop offset=".23" stop-color="#f7e5fe"/><stop offset=".42" stop-color="#f2dbfb"/><stop offset=".59" stop-color="#e9caf6"/><stop offset=".75" stop-color="#ddb2f0"/><stop offset=".9" stop-color="#cd94e8"/><stop offset="1" stop-color="#c27de2"/></linearGradient><linearGradient id="linear-gradient-2" x1="12793.91" y1="242.04" x2="12927.47" y2="220.67" gradientTransform="translate(12974.34) rotate(-180) scale(1 -1)" xlink:href="#linear-gradient"/><linearGradient id="linear-gradient-3" x1="77.87" y1="184.28" x2="86.13" y2="213.08" gradientUnits="userSpaceOnUse"><stop offset="0" stop-color="#f9e9ff"/><stop offset="1" stop-color="#ffe576"/></linearGradient></defs><g id="_כל_הדמויות"><rect width="389.32" height="445.23" fill="#e5e5e5" opacity="0"/><path d="m198.17,241.28c.26-.81,14.98-59.04,71.89-95.73.06-.04,10-7.46,54.2-23.91,2.15-.8,5.69-2.16,7.63-2.92,13.15-5.18,31.48-10.45,35.53-38.78,1.21,9.62.87,45.6-59.17,91.88,0,0,50.33,3.39,49.22-14.81-.08-1.36-.51-2.8-1.65-4.4-1.19-1.68-3.87-2.91-5.95-2.29-1.55.46-3.27,1.49-3.61,3.89-.16,1.14.35,2.12.69,2.7.57,1,1.56,1.51,2.56,1.2.9-.27,1.13-1.51.64-2.31-.37-.61-.99-1.02-1.96-.15,0,0,.4-1.98,2.67-1.09s1.17,5.99-2.9,5.07c-2.5-.57-3.73-3.08-3.67-4.93.05-1.68.82-3.75,2.05-4.89,2.03-1.88,4.34-2.19,6.29-1.78,6.72,1.39,10.04,8.66,6.24,16.05-4.77,9.26-26.25,17.33-26.25,17.33,0,0,13.07-1.4,19.99,8.11,6.17,8.48,3.93,19.06-3.75,20.71-2.49.53-5.14-.31-6.65-2.36-.94-1.28-1.58-3.14-1.12-5.81,0,0,0,0,0,0,0,.01,2.92,7.08,7.33,4.69,1.93-1.05,3.15-3.11,3.26-5.3.14-2.7-1.06-6.66-7.86-9.76-4.92-2.24-9.19-1.47-12.46.13-5.55,2.72-9.1,8.47-8.67,14.64.03.45.15,2.49.16,2.95.55,28.82-28.06,30.7-58.5,36.26,0,0,16.41,19.85,36,6.88,0,0-20.91,15.88-7.41,31.23,13.5,15.35,25.41,14.29,27.79,66.7,0,0-7.27-43.56-26.32-41.44-2.61.29-6.51,2.41-8.37,6.78-3.77,8.85,2.48,17.14,9.55,28.04,12.71,19.61,4.04,43.14-12.67,45h0s36.03-29-18.36-64.84c-3.95-2.6-8.78-3.67-13.41-2.71-5.67,1.17-10.5,5.13-8.75,17.8,2.27,16.5,18.78,19.85,23.82,8.21,0,0-2.53,16.58-19.96,10.41-2.91-1.03-5.45-3.2-7.4-5.7,0,0-12.78-13.57-4.82-33.04,10.15-24.84-37.16-56.11-37.17-56.11,0,0,0,0,0,0l1.3-21.57h0Z" fill="#c27de2"/><path d="m203.86,257.08s20.69-110.58,125.01-122.7c0,0,.44,10.35-31.72,40.75,0,0,16.74,6.61,31.72,1.76,0,0-15.55,7.96-15.2,29.11.15,9.17-4.75,17.7-12.71,22.26-9.15,5.24-24.56,10.33-50.52,12.51,0,0,11.45,23.8,27.76,24.24,0,0,.44,27.15,16.3,32.16,0,0-24.23,7.49-16.74,22.47,0,0-25.55-14.54-33.48-5.29,0,0,9.69-27.32-40.42-57.27Z" fill="url(#linear-gradient)"/><path d="m327.62,130.49c4.58,3.4-90.89,68.69-99.51,63.32.77,9.77,103.04-47.62,102.9-59.43-.09-7.49-3.4-3.89-3.4-3.89Z" fill="#c27de2"/><path d="m322.9,176.11c-29.26,42.83-110.08,58.8-114.85,51.82.66,19.57,121.85-27.7,120.82-51.04-.13-2.88-5.97-.78-5.97-.78Z" fill="#c27de2"/><path d="m284.78,307.7s-31.91-50.39-64.19-50.5c0,0,50.43,26.86,58.99,51.99l5.21-1.49Z" fill="#c27de2"/><path d="m191.15,241.28c-.26-.81-14.98-59.04-71.89-95.73-.06-.04-10-7.46-54.2-23.91-2.15-.8-5.69-2.16-7.63-2.92-13.15-5.18-31.48-10.45-35.53-38.78-1.21,9.62-.87,45.6,59.17,91.88,0,0-50.33,3.39-49.22-14.81.08-1.36.51-2.8,1.65-4.4,1.19-1.68,3.87-2.91,5.95-2.29,1.55.46,3.27,1.49,3.61,3.89.16,1.14-.35,2.12-.69,2.7-.57,1-1.56,1.51-2.56,1.2-.9-.27-1.13-1.51-.64-2.31.37-.61.99-1.02,1.96-.15,0,0-.4-1.98-2.67-1.09s-1.17,5.99,2.9,5.07c2.5-.57,3.73-3.08,3.67-4.93-.05-1.68-.82-3.75-2.05-4.89-2.03-1.88-4.34-2.19-6.29-1.78-6.72,1.39-10.04,8.66-6.24,16.05,4.77,9.26,26.25,17.33,26.25,17.33,0,0-13.07-1.4-19.99,8.11-6.17,8.48-3.93,19.06,3.75,20.71,2.49.53,5.14-.31,6.65-2.36.94-1.28,1.58-3.14,1.12-5.81,0,0,0,0,0,0,0,.01-2.92,7.08-7.33,4.69-1.93-1.05-3.15-3.11-3.26-5.3-.14-2.7,1.06-6.66,7.86-9.76,4.92-2.24,9.19-1.47,12.46.13,5.55,2.72,9.1,8.47,8.67,14.64-.03.45-.15,2.49-.16,2.95-.55,28.82,28.06,30.7,58.5,36.26,0,0-16.41,19.85-36,6.88,0,0,20.91,15.88,7.41,31.23-13.5,15.35-25.41,14.29-27.79,66.7,0,0,7.27-43.56,26.32-41.44,2.61.29,6.51,2.41,8.37,6.78,3.77,8.85-2.48,17.14-9.55,28.04-12.71,19.61-4.04,43.14,12.67,45h0s-36.03-29,18.36-64.84c3.95-2.6,8.78-3.67,13.41-2.71,5.67,1.17,10.5,5.13,8.75,17.8-2.27,16.5-18.78,19.85-23.82,8.21,0,0,2.53,16.58,19.96,10.41,2.91-1.03,5.45-3.2,7.4-5.7,0,0,12.78-13.57,4.82-33.04-10.15-24.84,37.16-56.11,37.17-56.11,0,0,0,0,0,0l-1.3-21.57h0Z" fill="#c27de2"/><path d="m185.46,257.08s-20.69-110.58-125.01-122.7c0,0-.44,10.35,31.72,40.75,0,0-16.74,6.61-31.72,1.76,0,0,15.55,7.96,15.2,29.11-.15,9.17,4.75,17.7,12.71,22.26,9.15,5.24,24.56,10.33,50.52,12.51,0,0-11.45,23.8-27.76,24.24,0,0-.44,27.15-16.3,32.16,0,0,24.23,7.49,16.74,22.47,0,0,25.55-14.54,33.48-5.29,0,0-9.69-27.32,40.42-57.27Z" fill="url(#linear-gradient-2)"/><path d="m61.69,130.49c-4.58,3.4,90.89,68.69,99.51,63.32-.77,9.77-103.04-47.62-102.9-59.43.09-7.49,3.4-3.89,3.4-3.89Z" fill="#c27de2"/><path d="m66.42,176.11c29.26,42.83,110.08,58.8,114.85,51.82-.66,19.57-121.85-27.7-120.82-51.04.13-2.88,5.97-.78,5.97-.78Z" fill="#c27de2"/><path d="m104.54,307.7s31.91-50.39,64.19-50.5c0,0-50.43,26.86-58.99,51.99l-5.21-1.49Z" fill="#c27de2"/><path d="m141.78,421.29c-3.98,0-11.32-.41-15.81-3.16-5.06-3.1-2.86-6.88.19-12.12l.85-1.47c3.08-5.34,24.32-8.6,29.22-9.29,1.56-1.16,6.19-11.08,5.99-13.03l-1.41-6.57c-.67-1.8-1.61-4.07-2.61-6.46-3.48-8.36-7.81-18.76-7.27-24.85,2.14-24.18,5.12-39.51,5.15-39.66l.32-1.64,39.87,11.08-.07,1.24c-.69,12.98-4.1,23.66-6.84,32.24-1.64,5.14-3.06,9.59-3.48,13.26-.31,2.73.44,10.89,2.07,22.38.49,3.43,1.5,6.72,3.02,9.8.44.89.94,1.78,1.43,2.64,1.43,2.53,2.92,5.15,3.14,8.3.08,1.08-.26,2.08-.99,2.89-2.13,2.39-7.11,2.8-12.03,3.01-.6.03-1.12.05-1.53.08-5.68.42-10.06,1.12-13.03,2.08-3.82,1.24-5.84,2.82-7.79,4.36-2.13,1.68-4.15,3.26-7.93,3.97-3.12.58-6.84.9-10.47.9h0Z" fill="#d18a88"/><path d="m247.54,421.29c-3.62,0-7.34-.32-10.46-.9-3.78-.71-5.8-2.29-7.93-3.97-1.95-1.53-3.96-3.12-7.79-4.36-2.97-.96-7.35-1.66-13.03-2.08-.41-.03-.93-.05-1.53-.08-4.92-.22-9.91-.63-12.03-3.01-.73-.82-1.07-1.82-.99-2.89.23-3.14,1.71-5.76,3.14-8.3.49-.86,1-1.76,1.43-2.65,1.52-3.08,2.53-6.38,3.02-9.8,1.63-11.49,2.38-19.64,2.07-22.38-.42-3.67-1.84-8.12-3.48-13.26-2.74-8.58-6.14-19.26-6.84-32.24l-.07-1.24,39.87-11.08.32,1.64c.03.15,3,15.48,5.14,39.66.54,6.09-3.79,16.49-7.27,24.85-1,2.4-1.94,4.66-2.61,6.46l-1.42,6.6c-.19,1.9,4.37,11.69,6.03,13,4.97.7,26.12,3.96,29.19,9.29l.85,1.47c3.05,5.23,5.25,9.02.19,12.12-4.49,2.75-11.83,3.16-15.81,3.16Z" fill="#d18a88"/><path d="m132.76,290.01c-.53,0-1.06-.02-1.61-.05-18.89-1.08-40.19-18.73-45.23-32.62-2.32-6.39-.43-9.95,1.57-11.82,2.4-2.25,5.13-3.39,8.1-3.39,7.76,0,15.87,7.9,22.06,14.78,2.73,3.04,5.49,4.58,8.19,4.58,4.26,0,8.07-3.72,10.9-6.95l28.72-33.63,10,6.61-.16.99c-.22,1.33-5.56,32.86-19.1,48.71-5.09,5.96-12.36,12.8-23.45,12.8Z" fill="#d18a88"/><path d="m195.06,236.86c-33.6,0-60.93-17.82-60.93-39.72,0-6.56,2.49-13.04,7.19-18.78-.16-1.72-.25-3.44-.25-5.12,0-29.77,24.22-53.98,53.98-53.98s53.98,24.22,53.98,53.98c0,1.68-.08,3.4-.25,5.12,4.71,5.73,7.19,12.21,7.19,18.78,0,21.9-27.33,39.72-60.93,39.72Z" fill="#d18a88"/><path d="m245.63,317.63c-.39,0-.78-.04-1.16-.11-9.73-1.83-15.52-5.76-17.21-11.69-3.57-12.53,13.65-29.73,18.41-34.35l-5.82-6.75-19.26-27.88c-.11-.42-7.98-3.38-3.99-8.52,1.54-1.99,3.77-2.99,6.63-2.99,3.24,0,7.2,1.28,12.1,3.91,7.62,4.09,15.89,10.35,22.11,16.75,5.51,5.67,12.27,14.34,13.16,23.49.68,6.98-2.09,13.08-8.24,18.12-9.14,7.49-12.95,12.75-14.32,14.99,3.01,1.8,4.69,3.89,5.02,6.23.34,2.39-.78,4.87-3.22,7.16-1.13,1.06-2.63,1.65-4.21,1.65Z" fill="#d18a88"/><path d="m194.34,353.68c-11.36,0-22.48-3.1-32.16-8.96l-.29-.18c-.59-.36-6.61-4.85-8.41-7.8-22.03-36.17-13.88-52.44.9-89.18,16.11-40.06,38.27-52.64,39.16-53.18l.8-.48.8.49c.89.54,22,13.68,39.15,53.17,15.57,35.84,22.87,61.63-.3,91.79-2.02,2.62-7.5,5.37-7.5,5.37-9.67,5.86-20.79,8.96-32.16,8.96Z" fill="#d18a88"/><path d="m162.33,132.54c-14.47-14.22-46.16-51.94-27.96-94.95,3.88-9.16,8.16-13.62,13.1-13.62,8.92,0,18.16,15.19,28.25,46.43,6.69,20.73,11.67,42.29,13.5,50.59l.36,1.63-1.65.23c-8.54,1.2-16.7,4.59-23.58,9.81l-1.06.81-.95-.94Z" fill="#d18a88"/><path d="m225.77,132.64c-6.88-5.22-15.04-8.62-23.58-9.81l-1.65-.23.36-1.63c1.83-8.31,6.81-29.87,13.5-50.59,10.08-31.24,19.33-46.43,28.25-46.43,4.94,0,9.22,4.46,13.1,13.62,18.2,43.01-13.49,80.73-27.96,94.95l-.95.94-1.06-.81Z" fill="#d18a88"/><path d="m189.58,393.74c-1.59-3.23-2.66-6.7-3.16-10.27-1.01-7.14-2.52-18.9-2.07-22.78,1.16-10.06,9.21-24.8,10.31-45.4l-37.07-10.3s-2.96,15.12-5.12,39.5c-.66,7.49,6.95,22.94,9.83,30.74l1.44,6.71c.48,2.23-4.9,14.04-7.04,14.81,0,0-25.43,3.51-28.35,8.57-3.66,6.36-5.68,8.98-1.57,11.5,5.68,3.47,17.74,3.45,25.19,2.06,6.72-1.25,7.24-5.59,15.52-8.27,3.8-1.23,9.04-1.83,13.4-2.15,3.23-.24,13.44-.04,13.12-4.33-.28-3.82-2.72-6.92-4.42-10.37Z" fill="#f6c1b8"/><path d="m153.95,397.17s-22.69,3.09-25.6,8.15c-3.66,6.36-5.68,8.98-1.57,11.5,5.68,3.47,17.74,3.45,25.19,2.06,6.72-1.25,7.24-5.59,15.52-8.27,3.8-1.23,9.04-1.83,13.4-2.15,3.23-.24,13.44-.04,13.13-4.33-.28-3.82-2.72-6.92-4.42-10.37-.45-.92-.86-1.86-1.22-2.81-.9.54-1.86,1.09-2.83,1.79-29.94,21.66-31.1,4.28-31.58,4.45Z" fill="#f9e3e1" opacity=".7"/><path d="m132.22,418.83l1.78.34s8.27-6.53,14.8-5.98c0,0-7.11-3.72-16.58,5.63Z" fill="#e8aaa6"/><path d="m124.59,412.78s-.41,1.46.64,2.77c0,0,.39-3.89,12.75-6.1,0,0-9.29-.21-13.4,3.33Z" fill="#e8aaa6"/><path d="m128.1,405.76l-.99,1.7s2.32-2.19,9.24-1.7c0,0-4.93-1.7-8.25,0Z" fill="#e8aaa6"/><path d="m126.78,416.81c5.68,3.47,17.74,3.45,25.19,2.06,6.72-1.25,7.24-5.59,15.52-8.27,3.8-1.23,9.04-1.83,13.4-2.15,3.23-.24,13.44-.04,13.12-4.33-.28-3.82-2.72-6.92-4.42-10.37-1.59-3.23-2.66-6.7-3.16-10.27-1.01-7.14-2.52-18.9-2.07-22.78.27-2.32.91-4.9,1.74-7.73l-4.1-8.82s-2.58,55.84,6.49,59.61c0,0-27.53-.34-35.92,9.83-6.39,7.75-21.78,1.38-25.32-6.35-2.91,5-4.13,7.33-.46,9.58Z" fill="#dd9990" opacity=".22"/><path d="m199.73,393.74c1.59-3.23,2.66-6.7,3.16-10.27,1.01-7.14,2.52-18.9,2.07-22.78-1.16-10.06-9.21-24.8-10.31-45.4l37.07-10.3s2.96,15.12,5.12,39.5c.66,7.49-6.95,22.94-9.83,30.74l-1.44,6.71c-.48,2.23,4.9,14.04,7.04,14.81,0,0,25.43,3.51,28.35,8.57,3.66,6.36,5.68,8.98,1.57,11.5-5.68,3.47-17.74,3.45-25.19,2.06-6.72-1.25-7.24-5.59-15.52-8.27-3.8-1.23-9.04-1.83-13.4-2.15-3.23-.24-13.44-.04-13.12-4.33.28-3.82,2.72-6.92,4.42-10.37Z" fill="#f6c1b8"/><path d="m235.37,397.17s22.69,3.09,25.6,8.15c3.66,6.36,5.68,8.98,1.57,11.5-5.68,3.47-17.74,3.45-25.19,2.06-6.72-1.25-7.24-5.59-15.52-8.27-3.8-1.23-9.04-1.83-13.4-2.15-3.23-.24-13.44-.04-13.13-4.33.28-3.82,2.72-6.92,4.42-10.37.45-.92.86-1.86,1.22-2.81.9.54,1.86,1.09,2.83,1.79,29.94,21.66,31.1,4.28,31.58,4.45Z" fill="#f9e3e1" opacity=".7"/><path d="m257.09,418.83l-1.78.34s-8.27-6.53-14.8-5.98c0,0,7.11-3.72,16.58,5.63Z" fill="#e8aaa6"/><path d="m264.73,412.78s.41,1.46-.64,2.77c0,0-.39-3.89-12.75-6.1,0,0,9.29-.21,13.4,3.33Z" fill="#e8aaa6"/><path d="m261.22,405.76l.99,1.7s-2.32-2.19-9.24-1.7c0,0,4.93-1.7,8.25,0Z" fill="#e8aaa6"/><path d="m262.54,416.81c-5.68,3.47-17.74,3.45-25.19,2.06-6.72-1.25-7.24-5.59-15.52-8.27-3.8-1.23-9.04-1.83-13.4-2.15-3.23-.24-13.44-.04-13.12-4.33.28-3.82,2.72-6.92,4.42-10.37,1.59-3.23,2.66-6.7,3.16-10.27,1.01-7.14,2.52-18.9,2.07-22.78-.27-2.32-.91-4.9-1.74-7.73l4.1-8.82s2.58,55.84-6.49,59.61c0,0,27.53-.34,35.92,9.83,6.39,7.75,21.78,1.38,25.32-6.35,2.91,5,4.13,7.33.46,9.58Z" fill="#dd9990" opacity=".22"/><path d="m173.79,228.25s-5.33,32.26-18.75,47.96c-5.73,6.7-12.91,12.84-23.8,12.21-24.87-1.43-52.84-32.26-42.69-41.77,8.32-7.8,18.76,1.07,27.96,11.3,8.99,9.98,16.56,3.13,21.41-2.39l27.85-32.6,8.02,5.3Z" fill="#f6c1b8"/><path d="m238.84,234.74c-.13-.04-.22-.06-.22-.06l.22.06Z" fill="#660f0a"/><path d="m152.44,332.45s38.75,46.97,84.45,0c0,0-39.51,43.11-84.45,0Z" fill="#d18a88"/><path d="m232.88,248.17c-17.18-39.56-38.42-52.4-38.54-52.47-.12.07-21.36,12.91-38.54,52.47-15.86,36.51-21.54,53.13.12,90.25,1.4,2.4,4.43,3.36,6.77,4.8.1.06.19.12.29.18,19.22,11.65,43.49,11.65,62.71,0,.1-.06.19-.12.29-.18,2.34-1.44,5.11-2.57,6.77-4.8,23.26-31.13,15.98-53.75.12-90.25Z" fill="#f6c1b8"/><path d="m232.22,291.48c-6.55-26.68-16.56-49.52-36.99-49.52-.06,0-.11,0-.16,0h0c-.06,0-.11,0-.16,0-20.43,0-30.44,22.84-36.99,49.52-7.28,29.66,16.56,49.52,36.99,49.52.05,0,.11,0,.16,0h0c.05,0,.11,0,.16,0,20.43,0,44.27-19.86,36.99-49.52Z" fill="#f9e3e1"/><path d="m162.69,343.22c.1.06.19.12.29.18,19.22,11.65,43.49,11.65,62.71,0,.1-.06.19-.12.29-.18,2.34-1.44,5.11-2.57,6.77-4.8,20.63-27.61,17.23-48.52,5.14-78.36-2.03,26.14-12.2,83.34-82.85,76.84.29.51.57,1.01.87,1.53,1.4,2.41,4.43,3.36,6.77,4.8Z" fill="#dd9990" opacity=".22"/><path d="m108.03,281.43h0c-1.01.32-2.1-.24-2.43-1.26l-17.95-60.56c-.32-1.01,1.04-1.43,1.36-.42l20.27,59.8c.32,1.01-.24,2.1-1.26,2.43Z" fill="#3c0d6d"/><polygon points="80.85 195.92 88.3 203.67 98.9 201.92 93.84 211.4 98.78 220.94 88.2 219.06 80.65 226.7 79.17 216.06 69.57 211.24 79.23 206.55 80.85 195.92" fill="#ffefbd"/><polygon points="80.41 215.17 72.6 211.26 80.46 207.45 81.77 198.82 87.82 205.11 96.43 203.69 92.32 211.39 96.33 219.14 87.74 217.61 81.61 223.82 80.41 215.17" fill="url(#linear-gradient-3)"/><path d="m91.42,226.32l-2.41-7.12c-.32-1.01-1.68-.6-1.36.42l2.4,8.1c.85-.43.96-.49,1.37-1.4Z" fill="#23024f"/><path d="m76.07,203.09s-6.1-15.89-14.7-11.42c-4.95,3.17,0,10.14,0,10.14,0,0-2.16-8.88,4.15-8.26s10.55,9.54,10.55,9.54Z" fill="#ffefbd"/><path d="m72.6,204.44s-3.23-2.99-4.85-1.28c-.49.52-.38,1.31-.29,1.62.08.28.32.73.74.94.54.27,1.32.21,1.68-.2.86-.98-.9-1.52-.9-1.52,0,0,.47.26.59.46.29.48-.07.81-.54.96-.53.17-1.12-.21-1.22-.92-.06-.39.12-.86.29-1.05.33-.39,1.05-1.03,4.51,1Z" fill="#ffefbd"/><path d="m95.16,195.71s1.7-4.06,3.88-3.18c.67.27.89,1.03.94,1.35.04.29.02.8-.28,1.16-.38.47-1.11.74-1.61.52-1.19-.53.19-1.76.19-1.76,0,0-.32.43-.35.66-.07.56.4.71.89.65.55-.07.93-.65.73-1.34-.11-.38-.47-.73-.7-.84-.46-.22-1.39-.5-3.69,2.78Z" fill="#ffefbd"/><path d="m79.96,193.09s-2.12-3.86-.07-5.02c.62-.35,1.36-.06,1.64.11.25.15.63.48.73.94.13.59-.11,1.33-.6,1.58-1.16.6-1.26-1.24-1.26-1.24,0,0,.14.52.3.68.39.4.81.13,1.06-.29.29-.48.07-1.14-.6-1.41-.37-.15-.86-.09-1.09.03-.46.23-1.26.77-.12,4.62Z" fill="#ffefbd"/><path d="m87.6,197.73s-2.67-14.23,7.57-15.36c0,0-6.7,3.21-7.57,15.36Z" fill="#ffefbd"/><path d="m97.58,209.57s3.29-4.03,13.44,0c0,0-8.18-1.82-13.44,0Z" fill="#ffefbd"/><path d="m68.17,210.61s-8.94,3.44-4.51,8.49c0,0-2.26-4.78,4.51-8.49Z" fill="#ffefbd"/><path d="m216.72,243.52l30.5,27.98s-40.87,37.3-2.46,44.5c1.44.27,2.95-.14,4.02-1.15,2.55-2.39,5.84-7.24-2.83-11.64,0,0,2.53-6.23,15.43-16.8,22.1-18.12-8.07-45.75-26.79-55.8-24.57-13.19-17.87,12.91-17.87,12.91Z" fill="#f6c1b8"/><path d="m230.66,304.27c-1.23-9.59,6.96-22.75,16.57-32.77,0,0-40.87,37.3-2.46,44.5.75.14,1.51.09,2.22-.12-5.15-1.6-15.43-4.64-16.33-11.61Z" fill="#d18a88"/><path d="m247.62,273.81l.56.62c3.14-2.72,2.29-2.43-.56-.62Z" fill="#f6c3b8"/><path d="m247.19,178.86c.2-1.85.3-3.72.3-5.61,0-28.96-23.48-52.44-52.44-52.44s-52.44,23.48-52.44,52.44c0,1.9.11,3.77.3,5.61-4.62,5.43-7.25,11.66-7.25,18.29,0,21.08,26.59,38.17,59.38,38.17s59.39-17.09,59.39-38.17c0-6.63-2.63-12.86-7.25-18.29Z" fill="#f6c1b8"/><path d="m242.24,185.13c-2.39-.04-4.45-1.65-4.99-3.98,0-.03-.01-.06-.02-.09-.02-.09-.04-.19-.05-.29-.3-2.58-4.99-40.9-20.53-37.64-15.61,3.27-18.12,36.24-18.25,38.17,0,.06,0,.12,0,.18v4.98c-1.06,1.03-1.64,1.6-2.7,2.64-.21,0-.42-.01-.64-.02-.21,0-.42.01-.64.02-1.06-1.03-1.64-1.6-2.7-2.64v-4.98c0-.06,0-.12,0-.18-.13-1.93-2.65-34.9-18.25-38.17-15.54-3.26-20.23,35.06-20.53,37.64-.01.1-.03.19-.05.29,0,.03-.01.06-.02.09-.54,2.32-2.6,3.94-4.99,3.98-7.75.12-12.21,2.82-12.21,12.02,0,21.08,26.59,38.17,59.39,38.17s59.39-17.09,59.39-38.17c0-9.2-4.46-11.9-12.21-12.02Z" fill="#f9e3e1"/><path d="m202.26,208.68l-7.34-1.95-.13.03-.13-.03-7.34,1.95-8.2-1.51s3.39,4.17,5.03,9.42c2.74,8.74,6.77,9.21,9.29,9.22,1.23,0,2.31-.01,2.71,0,2.52.06,6.55-.48,9.29-9.22,1.64-5.24,4.75-9.08,4.75-9.08l-7.92,1.18Z" fill="#ba6a6a"/><path d="m195.67,225.28h-2.24c-1.96,0-6.03-.02-8.8-8.85-1.17-3.76-3.2-6.93-4.32-8.52l6.61.61,7.74-1.27.12.03.12-.03,7.89,1.08,6.22-.15c-1.04,1.49-2.92,4.49-4.09,8.23-2.49,7.94-6.03,8.86-8.47,8.86,0,0-.59,0-.79,0Z" fill="#600f0e"/><path d="m193.43,225.8c1.23,0,2.31-.01,2.71,0,2.47.06,6.4-.46,9.14-8.76-4.52-4.53-9.71.02-9.71.02-6.21-7.58-10.57-3.3-11.84-1.67.15.39.29.79.41,1.19,2.74,8.74,6.77,9.21,9.29,9.22Z" fill="#f490b2"/><path d="m195.57,217.06c-6.21-7.58-10.57-3.3-11.84-1.67.15.39.29.79.41,1.19.11.36.23.7.35,1.04,2.39-3.4,7.63-2.72,9.72.15,2.63,3.63,6.18-2.96,10.48.9.2-.51.4-1.05.59-1.63-4.52-4.53-9.71.02-9.71.02Z" fill="#dd83a6"/><path d="m194.21,221.43s.5-3.38,1.36-4.37c0,0-.93,2.73-1.36,4.37Z" fill="#9e5671"/><polygon points="188.99 208.51 189.8 214.57 194.55 215.09 194.66 206.73 188.99 208.02 188.99 208.51" fill="#fff"/><polygon points="200.61 208.51 199.81 214.57 194.8 215.11 194.92 206.73 200.61 208.02 200.61 208.51" fill="#fff"/><path d="m211.31,202.89c.12,1.32,0,4.8-6.37,5.08-5.16-.08-7.89-1.09-9.14-1.74-.37-.19-.56-.67-.52-1.12.14-1.66.62-5.12.62-9.56,0-1.72-1.7.15-1.7.15,0,0,.72,1.24.72,5.33,0,1.3-.09,2.82-.19,4.03-.04.55-.37,1.02-.86,1.26-1.21.6-3.95,1.56-9.25,1.64-6.37-.29-6.49-3.76-6.37-5.08-2.17,2.95,1.59,5.91,6.61,5.91,2.17,0,4.51-.07,9.67-1.6h0s.26-.09.51,0c5.19,1.54,7.5,1.6,9.67,1.6,5.59,0,8.78-2.96,6.61-5.91Z" fill="#444242"/><path d="m178.35,199.7s3.28,5.26-6.27,7.8c0,0,7.76-2.77,6.27-7.8Z" fill="#444242"/><path d="m211.07,199.7s-3.28,5.26,6.27,7.8c0,0-7.76-2.77-6.27-7.8Z" fill="#444242"/><path d="m201.86,182.2c-2.34-.59-4.57-.89-6.79-.91-2.22.02-4.45.32-6.79.91-2.17.67-2.89,1.46-2.47,2.79,1.06,3.31,4.6,7.51,8.29,10.57h0c.61.46,1.25.52,1.93,0h0c3.69-3.05,7.23-7.25,8.29-10.57.43-1.33-.3-2.12-2.47-2.79Z" fill="#d89896"/><path d="m200.44,184.88c.28-1.41-1.05-3.23-2.48-3.4-.97-.12-1.94-.18-2.9-.19-2.22.02-4.45.32-6.79.91-2.17.67-2.89,1.46-2.47,2.79.44,1.37,1.3,2.89,2.42,4.42,2.52,3.44,6.93,2.66,10.01-.29,1.61-1.55,1.9-2.69,2.2-4.24Z" fill="#e0a2a2"/><path d="m188.05,183.9s2.25-.81,10.34-1.25c0,0-4.15,2.36-10.34,1.25Z" fill="#f4c9c9"/><path d="m174.26,70.88c-10.61-32.87-25.49-63.32-38.46-32.68-17.88,42.26,13.62,79.49,27.62,93.24,6.95-5.27,15.25-8.84,24.3-10.11-1.72-7.83-6.73-29.62-13.46-50.45Z" fill="#f6c1b8"/><path d="m151.95,46.39c-12.11,1.69-20.91,42.88,17.99,80.83,3.78-2.07,7.85-3.68,12.13-4.78-4.39-18.23-19.52-77.54-30.12-76.05Z" fill="#f9e3e1"/><path d="m151.95,46.39c-12.11,1.69-20.91,42.88,17.99,80.83.89-.49,1.89-.97,1.89-.97-8.25-7.26-16.63-21.32-20.7-30.8-12.59-29.31-2.87-48.62,8.24-42.4-2.59-4.41-5.12-6.98-7.43-6.66Z" fill="#e8aaa6"/><path d="m135.67,73.08s.56-35.88,16.81-34.92c0,0-2.87-3.93-8.4.96-12.12,10.7-8.4,33.96-8.4,33.96Z" fill="#f7f5e7"/><path d="m161.86,64.92s11.47,30.36,13.67,42.16c0,0-13.19-38.23-13.67-42.16Z" fill="#f9f8f2"/><path d="m215.86,70.84c10.61-32.87,25.49-63.32,38.46-32.68,17.88,42.26-13.62,79.49-27.62,93.24-6.95-5.27-15.25-8.84-24.3-10.11,1.72-7.83,6.73-29.62,13.46-50.45Z" fill="#f6c1b8"/><path d="m238.17,46.36c12.11,1.69,20.91,42.88-17.99,80.83-3.78-2.07-7.85-3.68-12.13-4.78,4.39-18.23,19.52-77.54,30.12-76.05Z" fill="#f9e3e1"/><path d="m238.17,46.36c12.11,1.69,20.91,42.88-17.99,80.83-.89-.49-1.89-.97-1.89-.97,8.25-7.26,16.63-21.32,20.7-30.8,12.59-29.31,2.87-48.62-8.24-42.4,2.59-4.41,5.12-6.98,7.43-6.66Z" fill="#e8aaa6"/><path d="m254.44,73.04s-.56-35.88-16.81-34.92c0,0,2.87-3.93,8.4.96,12.12,10.7,8.4,33.96,8.4,33.96Z" fill="#f7f5e7"/><path d="m228.26,64.88s-11.47,30.36-13.67,42.16c0,0,13.19-38.23,13.67-42.16Z" fill="#f9f8f2"/><path d="m163.09,183.49s-6.37-8.48-.98-17.74c.97-1.67,2.4-3.13,4.21-4.13,2.81-1.56,7.26-2.59,11.73,2.28,0,0,7.38,8.21.86,19.6l-1.13,1.55h-13.58l-1.1-1.55Z"/><path d="m177.44,184.89c2.25-2.46,3.69-6.19,3.69-10.36,0-7.41-4.52-13.41-10.09-13.41s-10.66,5.73-10.29,13.17c.23,4.64,1.64,8.14,3.9,10.6h12.8Z" fill="#fff"/><path d="m179.46,176.13c0-5.53-3.77-10.01-8.42-10.01s-8.42,4.48-8.42,10.01c0,3.77,1.76,7.05,4.35,8.76h8.14c2.59-1.71,4.35-4.99,4.35-8.76Z" fill="#7f5a28"/><ellipse cx="171.05" cy="177.13" rx="4.37" ry="5.45" fill="#151e21"/><ellipse cx="167.92" cy="173.33" rx="1.88" ry="1.65" fill="#fff"/><path d="m181.16,185.49s-20.23-5.1-22.01,2.03c0,0,3.65-3.78,22.01-2.03Z" fill="#d89896"/><path d="m167.08,161.9l.61-.34s.15-1.5,1.07-2.83c0,0-1.57,1.22-1.68,3.17Z"/><path d="m169.38,161.11l.67-.27s.45-1.47,1.63-2.67c0,0-1.8,1.02-2.3,2.94Z"/><path d="m171.82,160.95l.58-.09s.37-1.13,1.39-1.9c0,0-1.55.49-1.97,1.98Z"/><path d="m226.23,183.64s6.37-8.48.98-17.74c-.97-1.67-2.4-3.13-4.21-4.13-2.81-1.56-7.26-2.59-11.73,2.28,0,0-7.38,8.21-.86,19.6l1.13,1.55h13.58l1.1-1.55Z"/><path d="m211.87,185.04c-2.25-2.46-3.69-6.19-3.69-10.36,0-7.41,4.52-13.41,10.09-13.41s10.66,5.73,10.29,13.17c-.23,4.64-1.64,8.14-3.9,10.6h-12.8Z" fill="#fff"/><path d="m209.85,176.28c0-5.53,3.77-10.01,8.42-10.01s8.42,4.48,8.42,10.01c0,3.77-1.76,7.05-4.35,8.76h-8.14c-2.59-1.71-4.35-4.99-4.35-8.76Z" fill="#7f5a28"/><ellipse cx="218.27" cy="177.29" rx="4.37" ry="5.45" fill="#151e21"/><ellipse cx="215.07" cy="173.48" rx="1.88" ry="1.65" fill="#fff"/><path d="m208.16,185.64s20.23-5.1,22.01,2.03c0,0-3.65-3.78-22.01-2.03Z" fill="#d89896"/><path d="m222.24,162.06l-.61-.34s-.15-1.5-1.07-2.83c0,0,1.57,1.22,1.68,3.17Z"/><path d="m219.94,161.27l-.67-.27s-.45-1.47-1.63-2.67c0,0,1.8,1.02,2.3,2.94Z"/><path d="m217.49,161.1l-.58-.09s-.37-1.13-1.39-1.9c0,0,1.55.49,1.97,1.98Z"/><path d="m178.12,153.31s-8.04-10.74-16.26,5.31c0,0,7.66-11.72,16.26-5.31Z" fill="#444242"/><path d="m212.12,153.31s8.04-10.74,16.26,5.31c0,0-7.66-11.72-16.26-5.31Z" fill="#444242"/><path d="m195.06,235.31c32.8,0,59.39-17.09,59.39-38.17,0-2.79-.42-4.98-1.21-6.69-3.2,14.38-15.7,44.06-58.58,42.91-42.71-1.14-54.12-29.59-57.6-43.27-.91,1.75-1.39,4.05-1.39,7.05,0,21.08,26.59,38.17,59.39,38.17Z" fill="#f9d7d7"/><path d="m254.44,197.14c0-9.2-4.46-11.9-12.21-12.02-1.93-.03-3.64-1.11-4.51-2.75l-.46.48c-3.66,3.86-1.6,10.08,3.58,11.27,4.2.97,6.26,4.24.97,12.6-6.6,10.42-12.08,17.11-21.99,23.48,17.77-6.6,34.61-18.93,34.61-33.06Z" fill="#f9d7d7"/><path d="m135.67,197.14c0-9.2,4.46-11.9,12.21-12.02,1.93-.03,3.64-1.11,4.51-2.75l.46.48c3.66,3.86,1.6,10.08-3.58,11.27-4.2.97-6.26,4.24-.97,12.6,6.6,10.42,12.08,17.11,21.99,23.48-17.77-6.6-34.61-18.93-34.61-33.06Z" fill="#f9d7d7"/><path d="m162.63,244.07s-16.07,19.22-21.22,42.79c-.22,1.03.44.92,1.09-.36,0,0,1.29-12.71,20.13-42.43Z" fill="#d18a88"/><path d="m160.73,228.85s31.9,15.87,69.43-.92c0,0-34.25,26.34-69.43.92Z" fill="#e8aaa6" opacity=".59"/><path d="m106.06,248.94s-9.71-7.32-9.06.46c.65,7.78,8.51,4.51,8.51,4.51,0,0,2.38-.96.55-4.97Z" fill="#f6c3b8"/><path d="m107.04,251.46c.17-.44-6.53,5.19-9.63.02,0,0,2.4,7.23,9.63-.02Z" fill="#e8aaa6"/><path d="m185.05,227.93s10.01,8.93,18.81,0c0,0-8.29,5.99-18.81,0Z" fill="#f6c3b8"/></g></svg>