<svg width="41" height="41" viewBox="0 0 41 41" fill="none" xmlns="http://www.w3.org/2000/svg">
<path d="M22.0249 38.4482C21.6151 38.4611 21.1989 38.4804 20.7891 38.4804C21.1989 38.4804 21.6087 38.4676 22.0249 38.4482Z" fill="#00C392"/>
<path d="M20.7896 38.4804C20.3798 38.4804 19.9635 38.4611 19.5537 38.4482C19.9635 38.4676 20.3798 38.4804 20.7896 38.4804Z" fill="#00C392"/>
<path d="M20.7891 40.6172C20.4817 40.6172 20.1679 40.6043 19.8606 40.5979L19.4892 40.585C16.6716 40.4562 13.8349 39.9283 11.0558 39.0077C7.39303 37.7974 4.45384 35.0548 2.99385 31.4753C2.87859 31.1985 2.76973 30.9152 2.68008 30.6255C1.6107 27.3936 1.06641 24.1232 1.06641 20.8913C1.06641 17.6595 1.57228 14.6079 2.57122 11.4855C3.90954 7.30724 7.20092 4.01101 11.3824 2.67192C14.5137 1.68047 17.677 1.17188 20.7891 1.17188C23.9011 1.17188 27.2886 1.71266 30.5159 2.78136C34.4605 4.08183 37.5917 7.21711 38.898 11.1636C39.9674 14.3954 40.5117 17.6723 40.5117 20.8978C40.5117 24.1232 39.9674 27.4001 38.898 30.6319C38.7956 30.9409 38.6803 31.2435 38.5523 31.5397C37.0795 35.087 34.1531 37.8038 30.5159 39.0077C27.7368 39.9283 24.9129 40.4562 22.121 40.585L21.7176 40.5979C21.4102 40.6108 21.0964 40.6172 20.7891 40.6172Z" fill="#952362"/>
<path d="M20.789 39.5481C20.4881 39.5481 20.1935 39.5353 19.8925 39.5288L19.5211 39.516C16.8061 39.3936 14.0782 38.8786 11.3887 37.9902C8.02052 36.8764 5.32467 34.3527 3.97994 31.0694C3.87748 30.8119 3.77503 30.5543 3.69178 30.2904C2.66083 27.168 2.13574 24.0069 2.13574 20.8974C2.13574 17.7879 2.62241 14.8329 3.58933 11.8135C4.81879 7.96357 7.86044 4.92486 11.7089 3.69521C14.7249 2.72952 17.7794 2.24023 20.789 2.24023C23.7986 2.24023 27.0644 2.76171 30.1893 3.79822C33.8137 4.99568 36.6952 7.87988 37.8927 11.498C38.9236 14.6204 39.4487 17.7814 39.4487 20.8974C39.4487 24.0134 38.9236 27.168 37.8927 30.2904C37.7966 30.5736 37.6942 30.8505 37.5789 31.1273C36.2278 34.3849 33.5319 36.8893 30.1893 37.9902C27.4998 38.8786 24.772 39.3936 22.0761 39.516L21.6855 39.5288C21.3845 39.5417 21.09 39.5481 20.789 39.5481Z" fill="#F8F47C"/>
<path d="M36.8809 11.8334C35.7859 8.51787 33.1733 5.90406 29.8563 4.80961C26.8338 3.81173 23.805 3.30957 20.789 3.30957C17.7729 3.30957 14.949 3.77954 12.0354 4.71304C8.48793 5.84612 5.74085 8.59513 4.60744 12.1424C3.67253 15.0588 3.20508 17.9881 3.20508 20.898C3.20508 23.808 3.71095 26.9368 4.70989 29.9562C4.78673 30.1944 4.87638 30.4327 4.97243 30.6644C6.18909 33.6387 8.66083 35.9628 11.7345 36.98C14.3407 37.8427 16.9597 38.332 19.5659 38.4543C19.9757 38.4672 20.392 38.4865 20.8018 38.4865C21.2116 38.4865 21.6278 38.4672 22.0377 38.4543C24.6439 38.3385 27.2565 37.8427 29.8691 36.98C32.9299 35.9693 35.3825 33.6709 36.6055 30.7159C36.708 30.4648 36.8104 30.2138 36.8937 29.9562C37.8926 26.9368 38.3985 23.9046 38.3985 20.898C38.3985 17.8915 37.8926 14.8593 36.8937 11.8399H36.8809V11.8334Z" fill="url(#paint0_linear_527_5767)"/>
<path opacity="0.26" d="M29.8564 4.80961C26.834 3.81173 23.8052 3.30957 20.7891 3.30957C17.7731 3.30957 14.9492 3.77954 12.0356 4.71304C8.48809 5.84612 5.741 8.59513 4.60759 12.1424C4.33224 12.9922 4.10812 13.8485 3.91602 14.6983C6.97687 12.0008 19.7005 2.16362 35.325 8.81402C33.9803 6.96633 32.0784 5.54354 29.85 4.80961H29.8564Z" fill="white"/>
<path opacity="0.37" d="M4.96657 30.6638C6.18323 33.6382 8.65497 35.9623 11.7286 36.9795C14.3348 37.8421 16.9539 38.3314 19.5601 38.4537C19.9699 38.4666 20.3861 38.4859 20.7959 38.4859C21.2057 38.4859 21.622 38.4666 22.0318 38.4537C24.638 38.3379 27.2506 37.8421 29.8632 36.9795C32.9241 35.9687 35.3766 33.6704 36.5997 30.7153C36.7021 30.4643 36.8046 30.2132 36.8878 29.9557C37.8676 26.9878 38.3734 24.007 38.3862 21.0455C38.335 22.4941 37.4449 34.0888 22.0318 35.7562C5.58131 37.5267 3.19922 20.8975 3.19922 20.8975C3.19922 23.904 3.70509 26.9363 4.70403 29.9557C4.78087 30.1939 4.87052 30.4321 4.96657 30.6638Z" fill="#6D0033"/>
<path d="M5.85607 14.659C6.23448 14.659 6.54124 14.3506 6.54124 13.9701C6.54124 13.5897 6.23448 13.2812 5.85607 13.2812C5.47766 13.2812 5.1709 13.5897 5.1709 13.9701C5.1709 14.3506 5.47766 14.659 5.85607 14.659Z" fill="white"/>
<path d="M12.8037 7.05569C12.8037 7.78318 11.5102 7.69305 9.62122 8.98707C6.71405 10.9828 7.46966 12.6503 6.38107 12.3219C5.71511 12.1224 6.56037 9.81757 8.33413 8.36259C10.1079 6.90762 12.7973 6.35395 12.7973 7.04925L12.8037 7.05569Z" fill="white"/>
<g opacity="0.26">
<path d="M30.8108 15.4509V26.1637C30.8108 26.3568 30.7724 26.55 30.6892 26.7174C30.3818 27.3161 29.8887 27.5672 29.2228 27.5672H12.2536C11.4148 27.5672 10.7744 26.9298 10.7744 26.0864V15.4574C10.7744 14.6526 11.3891 14.0217 12.1832 13.9831C12.3369 13.9767 12.4585 13.8479 12.4713 13.6934C12.5033 13.1655 12.7595 12.9595 13.3422 13.0045C13.8353 13.0367 14.3283 13.0367 14.8278 13.0045C15.5642 12.9595 15.8203 13.1268 15.8396 13.7642C15.8396 13.8865 15.942 13.9831 16.0637 13.9831C16.4863 13.9767 16.9089 13.9767 17.3252 13.9831C17.4532 13.9831 17.5749 13.9187 17.6389 13.8028C17.9335 13.2942 18.2408 12.7921 18.5354 12.2835C18.7467 11.9101 19.0733 11.8135 19.6176 11.9487C20.4052 12.1354 21.2249 12.1096 22.0125 11.9358C22.544 11.8199 22.8577 11.9294 23.0627 12.2964C23.3508 12.7985 23.6518 13.2878 23.9399 13.7835C24.0232 13.938 24.132 13.9831 24.2985 13.9831C25.9058 13.9831 27.5195 13.996 29.1267 13.9702C29.6966 13.9638 30.1641 14.1505 30.4715 14.511C30.6956 14.7685 30.8044 15.1097 30.8044 15.4574L30.8108 15.4509ZM20.8278 25.2817C23.1011 25.2817 25.0093 23.2859 25.0157 21.0005C25.0285 18.7085 23.1011 16.6355 20.8214 16.6291C18.5354 16.6227 16.5631 18.6957 16.5567 20.9811C16.5567 23.2731 18.5354 25.2688 20.8278 25.2817ZM27.5451 15.8823H26.6486C26.3092 15.8823 26.0851 16.1076 26.0787 16.4231C26.0787 16.7321 26.3028 16.9896 26.6294 16.9896C27.2377 17.0025 27.8396 17.0025 28.448 16.9896C28.7681 16.9896 29.0115 16.7257 29.0051 16.4231C29.0051 16.1141 28.7617 15.8887 28.4288 15.8823H27.5451Z" fill="white"/>
<path d="M23.7215 21.0509C23.7215 22.6669 22.428 23.9866 20.8271 23.9931C19.2006 23.9931 17.8943 22.7055 17.8751 21.0638C17.8623 19.4608 19.1878 18.1152 20.7951 18.1152C22.4023 18.1152 23.715 19.4286 23.7215 21.0509Z" fill="white"/>
</g>
<path d="M30.8099 16.8036V27.7996C30.8099 27.9992 30.7714 28.1923 30.6882 28.3661C30.3808 28.9842 29.8878 29.2417 29.2218 29.2417H12.2526C11.4138 29.2417 10.7734 28.585 10.7734 27.7223V16.81C10.7734 15.986 11.3882 15.3357 12.1822 15.2907C12.3359 15.2842 12.4575 15.1555 12.4704 14.9945C12.5024 14.4473 12.7585 14.2413 13.3412 14.2863C13.8343 14.325 14.3274 14.3185 14.8268 14.2863C15.5632 14.2348 15.8194 14.4151 15.8386 15.0653C15.8386 15.1941 15.941 15.2907 16.0627 15.2907C16.4853 15.2842 16.908 15.2842 17.3242 15.2907C17.4522 15.2907 17.5739 15.2263 17.6379 15.1104C17.9325 14.5889 18.2399 14.0739 18.5344 13.546C18.7457 13.1661 19.0723 13.0631 19.6166 13.1983C20.4042 13.3915 21.2239 13.3657 22.0115 13.1855C22.543 13.0631 22.8568 13.179 23.0617 13.5524C23.3498 14.0675 23.6508 14.5696 23.939 15.0782C24.0222 15.2327 24.1311 15.2842 24.2975 15.2842C25.9048 15.2842 27.5185 15.2971 29.1258 15.2714C29.6957 15.2649 30.1631 15.4581 30.4705 15.825C30.6946 16.089 30.8035 16.4431 30.8035 16.7907V16.8036H30.8099ZM20.7884 26.5185C23.0617 26.5185 24.9187 23.7694 24.9251 21.426C24.9379 19.0697 23.0489 17.647 20.7692 17.6341C18.4832 17.6276 16.6134 19.3079 16.6134 21.6578C16.6134 24.0077 18.5024 26.512 20.7884 26.5185ZM27.5377 17.2478H26.6412C26.3018 17.2478 26.0777 17.4796 26.0713 17.8015C26.0713 18.1169 26.2954 18.3809 26.622 18.3873C27.2303 18.4002 27.8323 18.4002 28.4406 18.3873C28.7608 18.3873 29.0041 18.1169 28.9977 17.8015C28.9977 17.486 28.7544 17.2478 28.4214 17.2478H27.5377Z" fill="#501136"/>
<path d="M23.7146 21.998C23.7146 23.5109 22.4211 24.7535 20.8203 24.7599C19.1938 24.7599 17.8875 23.5496 17.8683 22.0109C17.8554 20.5109 19.181 19.249 20.7882 19.249C22.3955 19.249 23.7082 20.4787 23.7146 22.0045V21.998Z" fill="#501136"/>
<path d="M30.8099 16.0828V26.7955C30.8099 26.9887 30.7714 27.1818 30.6882 27.3492C30.3808 27.9479 29.8878 28.199 29.2218 28.199H12.2526C11.4138 28.199 10.7734 27.5616 10.7734 26.7183V16.0892C10.7734 15.2845 11.3882 14.6536 12.1822 14.6149C12.3359 14.6085 12.4575 14.4797 12.4704 14.3252C12.5024 13.7973 12.7585 13.5913 13.3412 13.6364C13.8343 13.6686 14.3274 13.6686 14.8268 13.6364C15.5632 13.5913 15.8194 13.7587 15.8386 14.396C15.8386 14.5184 15.941 14.6149 16.0627 14.6149C16.4853 14.6085 16.908 14.6085 17.3242 14.6149C17.4522 14.6149 17.5739 14.5505 17.6379 14.4347C17.9325 13.9261 18.2399 13.4239 18.5344 12.9153C18.7457 12.5419 19.0723 12.4453 19.6166 12.5805C20.4042 12.7672 21.2239 12.7415 22.0115 12.5677C22.543 12.4518 22.8568 12.5612 23.0617 12.9282C23.3498 13.4303 23.6508 13.9196 23.939 14.4154C24.0222 14.5699 24.1311 14.6149 24.2975 14.6149C25.9048 14.6149 27.5185 14.6278 29.1258 14.6021C29.6957 14.5956 30.1631 14.7823 30.4705 15.1428C30.6946 15.4004 30.8035 15.7416 30.8035 16.0892L30.8099 16.0828ZM20.7884 25.5466C23.0617 25.5466 24.9187 23.7117 24.9251 21.4263C24.9379 19.1344 23.0937 17.2674 20.8141 17.2609C18.528 17.2545 16.671 19.1022 16.6646 21.3877C16.6646 23.6796 18.496 25.5337 20.7884 25.5466ZM27.5377 16.5141H26.6412C26.3018 16.5141 26.0777 16.7395 26.0713 17.0549C26.0713 17.3639 26.2954 17.6215 26.622 17.6215C27.2303 17.6343 27.8323 17.6343 28.4406 17.6215C28.7608 17.6215 29.0041 17.3575 28.9977 17.0549C28.9977 16.7459 28.7544 16.5206 28.4214 16.5141H27.5377Z" fill="#952362"/>
<path d="M23.7146 21.3927C23.7146 23.0087 22.4211 24.3284 20.8203 24.3349C19.1938 24.3349 17.8875 23.0473 17.8683 21.4056C17.8554 19.8026 19.181 18.457 20.7882 18.457C22.3955 18.457 23.7082 19.7704 23.7146 21.3927Z" fill="#952362"/>
<defs>
<linearGradient id="paint0_linear_527_5767" x1="19.7644" y1="-9.12855" x2="21.8227" y2="49.9517" gradientUnits="userSpaceOnUse">
<stop offset="0.23" stop-color="#FFD800"/>
<stop offset="0.95" stop-color="#FD1A84"/>
</linearGradient>
</defs>
</svg>
