<svg width="41" height="41" viewBox="0 0 41 41" fill="none" xmlns="http://www.w3.org/2000/svg">
<path d="M21.6877 37.8633C21.2783 37.8726 20.8689 37.8912 20.4502 37.8912C20.8596 37.8912 21.269 37.8819 21.6877 37.8633Z" fill="#00C392"/>
<path d="M20.4592 37.8912C20.0498 37.8912 19.6404 37.8726 19.2217 37.8633C19.6311 37.8819 20.0405 37.8912 20.4592 37.8912Z" fill="#00C392"/>
<path d="M20.4594 40.0139C20.1524 40.0139 19.8453 40.0046 19.529 39.9953H19.1568C16.3376 39.8557 13.5091 39.3254 10.7364 38.4136C7.07985 37.2133 4.149 34.4871 2.67892 30.9329C2.56727 30.6538 2.45561 30.3746 2.36257 30.0862C1.29258 26.8762 0.75293 23.6197 0.75293 20.4191C0.75293 17.2184 1.25536 14.1759 2.26022 11.0682C3.60004 6.91853 6.89376 3.64342 11.0621 2.32221C14.179 1.32665 17.3425 0.824219 20.4501 0.824219C23.5577 0.824219 26.9445 1.36387 30.1638 2.42456C34.0995 3.71785 37.235 6.83479 38.5376 10.7519C39.6076 13.9619 40.1473 17.2184 40.1473 20.4191C40.1473 23.6197 39.6076 26.8762 38.5376 30.0862C38.4353 30.3933 38.3143 30.691 38.1934 30.9887C36.7233 34.5057 33.8018 37.2133 30.1638 38.4042C27.3911 39.3161 24.5626 39.8464 21.7806 39.9767H21.3805C21.0735 39.9953 20.7665 40.0139 20.4594 40.0139Z" fill="#952362"/>
<path d="M20.4597 38.9535C20.162 38.9535 19.8643 38.9442 19.5665 38.9349H19.1944C16.4868 38.8046 13.7606 38.2929 11.0717 37.409C7.71286 36.3018 5.01461 33.7989 3.66549 30.5331C3.56314 30.2819 3.4608 30.0214 3.37706 29.7609C2.34428 26.6625 1.82324 23.5177 1.82324 20.4287C1.82324 17.3397 2.31637 14.4088 3.27471 11.4035C4.50288 7.57945 7.53608 4.56486 11.3881 3.3367C14.4026 2.37835 17.4544 1.89453 20.4597 1.89453C23.465 1.89453 26.7308 2.41557 29.8478 3.43904C33.4671 4.62999 36.3422 7.48641 37.5424 11.0872C38.5752 14.1855 39.0962 17.3303 39.0962 20.4194C39.0962 23.5084 38.5752 26.6532 37.5424 29.7516C37.4494 30.0307 37.3377 30.3098 37.2261 30.5797C35.8769 33.8175 33.188 36.3018 29.8478 37.3997C27.1588 38.2836 24.4327 38.7953 21.7437 38.9163H21.3529C21.0552 38.9349 20.7575 38.9442 20.4597 38.9442V38.9535Z" fill="#F8F47C"/>
<path d="M36.5281 11.421C35.4302 8.12729 32.825 5.53139 29.5127 4.44279C26.4981 3.44723 23.4649 2.9541 20.4596 2.9541C17.4543 2.9541 14.6258 3.41932 11.7136 4.34975C8.16863 5.47556 5.42386 8.21103 4.28874 11.728C3.35831 14.631 2.88379 17.5339 2.88379 20.4276C2.88379 23.4142 3.38622 26.4288 4.38178 29.4248C4.46552 29.6667 4.54926 29.8993 4.6423 30.1319C5.86116 33.0907 8.3268 35.3982 11.3972 36.403C14.0024 37.259 16.6169 37.7521 19.2128 37.8638C19.6222 37.8731 20.0316 37.8917 20.4503 37.8917C20.8597 37.8917 21.2691 37.8731 21.6878 37.8638C24.2837 37.7428 26.8982 37.259 29.5034 36.403C32.5552 35.3982 35.0115 33.1093 36.2397 30.1785C36.342 29.9272 36.4444 29.676 36.5281 29.4248C37.5237 26.4288 38.0261 23.4142 38.0261 20.4276C38.0261 17.4409 37.5237 14.4263 36.5281 11.4303V11.421Z" fill="url(#paint0_linear_527_5766)"/>
<path opacity="0.26" d="M29.5126 4.44279C26.498 3.44723 23.4648 2.9541 20.4595 2.9541C17.4542 2.9541 14.6257 3.41932 11.7135 4.34975C8.16853 5.47556 5.42377 8.21103 4.28864 11.728C4.01882 12.5747 3.78621 13.4214 3.59082 14.2681C6.66124 11.5885 19.3616 1.80967 34.9742 8.42502C33.6251 6.58277 31.727 5.17783 29.5126 4.45209V4.44279Z" fill="white"/>
<path opacity="0.37" d="M4.6516 30.1233C5.87047 33.0821 8.3361 35.3895 11.4065 36.3944C14.0117 37.2504 16.6262 37.7435 19.2221 37.8552C19.6315 37.8645 20.0409 37.8831 20.4596 37.8831C20.869 37.8831 21.2784 37.8645 21.6971 37.8552C24.293 37.7342 26.9075 37.2504 29.5127 36.3944C32.5645 35.3895 35.0208 33.1007 36.249 30.1698C36.3513 29.9186 36.4537 29.6674 36.5374 29.4162C37.5144 26.4667 38.0168 23.508 38.0354 20.5678C37.9889 22.01 37.0957 33.5287 21.6971 35.1849C5.26569 36.9434 2.88379 20.4189 2.88379 20.4189C2.88379 23.4056 3.38622 26.4202 4.38178 29.4162C4.46552 29.6581 4.54926 29.8907 4.6423 30.1233H4.6516Z" fill="#6D0033"/>
<path d="M5.54445 14.2129C5.91957 14.2129 6.22366 13.9088 6.22366 13.5337C6.22366 13.1586 5.91957 12.8545 5.54445 12.8545C5.16933 12.8545 4.86523 13.1586 4.86523 13.5337C4.86523 13.9088 5.16933 14.2129 5.54445 14.2129Z" fill="white"/>
<path d="M12.4859 6.67744C12.4859 7.40317 11.1926 7.31013 9.30379 8.59412C6.40085 10.5759 7.1545 12.2321 6.0752 11.9065C5.4053 11.7111 6.26129 9.42221 8.0291 7.97074C9.79692 6.51927 12.4859 5.97031 12.4859 6.66814V6.67744Z" fill="white"/>
<g opacity="0.26">
<path d="M14.8674 29.8636C14.3185 29.6682 14.1789 29.2216 14.1417 28.7006C14.0394 27.4538 13.9091 26.2163 13.7881 24.9789C13.6858 23.9275 13.5928 22.8761 13.4997 21.8247C13.3881 20.6431 13.2671 19.4614 13.1555 18.2798C13.0996 17.7029 13.0438 17.126 12.988 16.5585C12.9601 16.27 12.9787 16.2607 13.2578 16.2607C17.8076 16.2607 22.3481 16.2607 26.8979 16.2607C27.0933 16.2607 27.1491 16.3073 27.1305 16.5027C27.0561 17.2656 26.9816 18.0379 26.9165 18.8008C26.8421 19.5824 26.7676 20.3639 26.6932 21.1362C26.6002 22.0573 26.5164 22.9691 26.4327 23.8903C26.3582 24.6439 26.2931 25.3976 26.2187 26.1512C26.1256 27.1282 26.0419 28.1051 25.9302 29.0821C25.8837 29.4821 25.6139 29.724 25.251 29.8636H14.886H14.8674ZM24.0787 18.1402C24.0787 18.1402 24.0787 17.8983 24.0973 17.7866C24.1159 17.554 24.0043 17.4052 23.8089 17.3959C23.6042 17.3866 23.4739 17.5075 23.4646 17.7401C23.4088 18.8101 23.353 19.8894 23.3064 20.9594C23.2506 22.0294 23.2041 23.0901 23.1483 24.1601C23.0831 25.5278 23.018 26.9049 22.9436 28.2726C22.925 28.5703 23.0366 28.7378 23.232 28.7564C23.446 28.775 23.5763 28.6168 23.5856 28.3005C23.66 26.7932 23.7251 25.2952 23.7903 23.7879C23.8182 23.1831 23.8461 22.5784 23.874 21.9829C23.9391 20.7082 24.0043 19.4242 24.0694 18.1495L24.0787 18.1402ZM16.0305 18.0379C16.0677 18.7822 16.1142 19.5265 16.1514 20.2616C16.2166 21.6386 16.291 23.0064 16.3561 24.3834C16.4026 25.3603 16.4399 26.3466 16.4864 27.3328C16.505 27.705 16.5329 28.0772 16.5515 28.4494C16.5515 28.5796 16.6073 28.682 16.7283 28.7378C16.9516 28.8401 17.1842 28.682 17.1749 28.4028C17.147 27.6678 17.1005 26.9328 17.0633 26.1977C16.9981 24.8207 16.9237 23.453 16.8586 22.0759C16.8027 20.8291 16.7469 19.5824 16.6911 18.3356C16.6818 18.1216 16.6725 17.9076 16.6539 17.7029C16.6353 17.5075 16.5143 17.3959 16.3282 17.3959C16.1514 17.3959 16.0398 17.5075 16.0305 17.7029C16.0305 17.8146 16.0305 17.9262 16.0305 18.0379ZM19.7429 23.0622C19.7429 24.7928 19.7429 26.5141 19.7429 28.2447C19.7429 28.3284 19.7429 28.4028 19.7429 28.4866C19.7615 28.6448 19.9104 28.7657 20.0592 28.7657C20.2081 28.7657 20.3384 28.6354 20.357 28.468C20.357 28.4028 20.357 28.3377 20.357 28.2726C20.357 24.8114 20.357 21.3502 20.357 17.889C20.357 17.8053 20.357 17.7308 20.357 17.6471C20.3291 17.4796 20.2081 17.3773 20.0313 17.3866C19.8266 17.3959 19.7336 17.5261 19.7336 17.7959C19.7336 19.5452 19.7336 21.3037 19.7336 23.0529L19.7429 23.0622Z" fill="white"/>
<path d="M24.209 11.9242C24.2183 12.0638 24.1904 12.2312 24.1439 12.3894C24.0788 12.6406 24.0788 12.6406 24.3486 12.7058C25.3162 12.9291 26.2932 13.1524 27.2608 13.3757C27.968 13.5431 28.2843 14.0549 28.1261 14.762C28.0703 15.0039 28.0052 15.2365 27.968 15.4784C27.94 15.6459 27.8749 15.6924 27.6981 15.6459C25.9303 15.2365 24.1625 14.8364 22.404 14.427C19.2871 13.7106 16.1701 12.9942 13.0532 12.2778C12.9974 12.2685 12.9508 12.2498 12.895 12.2405C12.7834 12.2219 12.7368 12.1568 12.7647 12.0451C12.8392 11.7195 12.9043 11.3938 12.9974 11.0775C13.1555 10.5658 13.6766 10.2587 14.2069 10.3704C15.2025 10.5937 16.198 10.8263 17.1936 11.0496C17.4727 11.1147 17.4727 11.1147 17.5472 10.8263C17.7239 10.0726 18.1892 9.59812 18.9428 9.43995C19.3057 9.36551 19.6499 9.44925 20.0035 9.53299C20.9525 9.75629 21.9109 9.96099 22.8599 10.1936C23.688 10.389 24.2276 11.0682 24.2276 11.9056L24.209 11.9242ZM23.4833 11.9242C23.4833 11.4032 23.1949 11.031 22.6366 10.9007C21.6317 10.6681 20.6176 10.4355 19.6127 10.2029C18.887 10.0354 18.4125 10.3239 18.245 11.0403C18.2016 11.2016 18.2636 11.3008 18.4311 11.338C19.9291 11.6823 21.4363 12.0265 22.9343 12.3708C23.4368 12.4825 23.4926 12.4452 23.4926 11.9149L23.4833 11.9242Z" fill="white"/>
</g>
<path d="M14.8674 31.4169C14.3185 31.2216 14.1789 30.7656 14.1417 30.2353C14.0394 28.9699 13.9091 27.7138 13.7881 26.4578C13.6858 25.3878 13.5928 24.3271 13.4997 23.2571C13.3881 22.0568 13.2671 20.8566 13.1555 19.6563C13.0996 19.0701 13.0438 18.4933 12.988 17.9071C12.9601 17.6187 12.9787 17.6094 13.2578 17.6094C17.8076 17.6094 22.3481 17.6094 26.8979 17.6094C27.0933 17.6094 27.1491 17.6652 27.1305 17.8606C27.0561 18.6421 26.9816 19.4144 26.9165 20.196C26.8421 20.9868 26.7676 21.7777 26.6932 22.5686C26.6002 23.499 26.5164 24.4294 26.4327 25.3598C26.3582 26.1228 26.2931 26.8858 26.2187 27.6487C26.1256 28.6443 26.0419 29.6305 25.9302 30.6261C25.8837 31.0355 25.6139 31.2774 25.251 31.4169H14.886H14.8674ZM24.0787 19.5261C24.0787 19.5261 24.0787 19.2841 24.0973 19.1632C24.1159 18.9306 24.0043 18.7724 23.8089 18.7631C23.6042 18.7538 23.4739 18.8748 23.4646 19.1167C23.4088 20.2053 23.353 21.2939 23.3064 22.3825C23.2506 23.4618 23.2041 24.5504 23.1483 25.6297C23.0831 27.0253 23.018 28.4117 22.9436 29.8073C22.925 30.1143 23.0366 30.2818 23.232 30.3004C23.446 30.319 23.5763 30.1516 23.5856 29.8352C23.66 28.3093 23.7251 26.7834 23.7903 25.2575C23.8182 24.6434 23.8461 24.0293 23.874 23.4246C23.9391 22.122 24.0043 20.8287 24.0694 19.5354L24.0787 19.5261ZM16.0305 19.4144C16.0677 20.1681 16.1142 20.9217 16.1514 21.6753C16.2166 23.071 16.291 24.4573 16.3561 25.853C16.4026 26.8485 16.4399 27.8441 16.4864 28.8397C16.505 29.2118 16.5329 29.5933 16.5515 29.9655C16.5515 30.0957 16.6073 30.1981 16.7283 30.2539C16.9516 30.3656 17.1842 30.1981 17.1749 29.9189C17.147 29.1746 17.1005 28.421 17.0633 27.6766C16.9981 26.281 16.9237 24.8946 16.8586 23.499C16.8027 22.2336 16.7469 20.9682 16.6911 19.7028C16.6818 19.4888 16.6725 19.2748 16.6539 19.0608C16.6353 18.8655 16.5143 18.7538 16.3282 18.7538C16.1514 18.7538 16.0398 18.8748 16.0305 19.0701C16.0305 19.1818 16.0305 19.3028 16.0305 19.4144ZM19.7429 24.5132C19.7429 26.2624 19.7429 28.0209 19.7429 29.7701C19.7429 29.8538 19.7429 29.9283 19.7429 30.012C19.7615 30.1795 19.9104 30.3004 20.0592 30.2911C20.2081 30.2911 20.3384 30.1609 20.357 29.9934C20.357 29.9283 20.357 29.8631 20.357 29.7887C20.357 26.281 20.357 22.7639 20.357 19.2562C20.357 19.1725 20.357 19.0981 20.357 19.0143C20.3291 18.8375 20.2081 18.7445 20.0313 18.7538C19.8266 18.7631 19.7336 18.8934 19.7336 19.1725C19.7336 20.9496 19.7336 22.736 19.7336 24.5132H19.7429Z" fill="#501136"/>
<path d="M24.209 13.2084C24.2183 13.3573 24.1904 13.5155 24.1439 13.6829C24.0788 13.9435 24.0788 13.9435 24.3486 13.9993C25.3162 14.2226 26.2932 14.4459 27.2608 14.6785C27.968 14.846 28.2843 15.367 28.1261 16.0835C28.0703 16.3254 28.0052 16.5673 27.968 16.8092C27.94 16.9767 27.8749 17.0232 27.6981 16.986C25.9303 16.5673 24.1625 16.1579 22.404 15.7485C19.2871 15.0228 16.1701 14.297 13.0532 13.5713C12.9974 13.562 12.9508 13.5434 12.895 13.5341C12.7834 13.5155 12.7368 13.4503 12.7647 13.3387C12.8392 13.013 12.9043 12.6781 12.9974 12.3617C13.1555 11.8407 13.6766 11.5244 14.2069 11.6453C15.2025 11.8686 16.198 12.1105 17.1936 12.3338C17.4727 12.399 17.4727 12.399 17.5472 12.1105C17.7239 11.3476 18.1892 10.8637 18.9428 10.7056C19.3057 10.6311 19.6499 10.7149 20.0035 10.7986C20.9525 11.0219 21.9109 11.2359 22.8599 11.4685C23.688 11.6732 24.2276 12.3524 24.2276 13.2084H24.209ZM23.4833 13.2084C23.4833 12.6781 23.1949 12.3059 22.6366 12.1663C21.6317 11.9244 20.6176 11.7011 19.6127 11.4592C18.887 11.2917 18.4125 11.5802 18.245 12.3059C18.2016 12.4734 18.2636 12.5757 18.4311 12.613C19.9291 12.9665 21.4363 13.3108 22.9343 13.6643C23.4368 13.7853 23.4926 13.7388 23.4926 13.1991L23.4833 13.2084Z" fill="#501136"/>
<path d="M14.8674 30.4857C14.3185 30.2903 14.1789 29.8437 14.1417 29.3226C14.0394 28.0759 13.9091 26.8384 13.7881 25.6009C13.6858 24.5495 13.5928 23.4982 13.4997 22.4468C13.3881 21.2651 13.2671 20.0835 13.1555 18.9018C13.0996 18.325 13.0438 17.7481 12.988 17.1805C12.9601 16.8921 12.9787 16.8828 13.2578 16.8828C17.8076 16.8828 22.3481 16.8828 26.8979 16.8828C27.0933 16.8828 27.1491 16.9293 27.1305 17.1247C27.0561 17.8877 26.9816 18.6599 26.9165 19.4229C26.8421 20.2044 26.7676 20.986 26.6932 21.7583C26.6002 22.6794 26.5164 23.5912 26.4327 24.5123C26.3582 25.266 26.2931 26.0196 26.2187 26.7733C26.1256 27.7502 26.0419 28.7272 25.9302 29.7041C25.8837 30.1042 25.6139 30.3461 25.251 30.4857H14.886H14.8674ZM24.0787 18.7623C24.0787 18.7623 24.0787 18.5204 24.0973 18.4087C24.1159 18.1761 24.0043 18.0272 23.8089 18.0179C23.6042 18.0086 23.4739 18.1296 23.4646 18.3622C23.4088 19.4322 23.353 20.5115 23.3064 21.5815C23.2506 22.6515 23.2041 23.7122 23.1483 24.7822C23.0831 26.1499 23.018 27.5269 22.9436 28.8947C22.925 29.1924 23.0366 29.3599 23.232 29.3785C23.446 29.3971 23.5763 29.2389 23.5856 28.9226C23.66 27.4153 23.7251 25.9173 23.7903 24.41C23.8182 23.8052 23.8461 23.2004 23.874 22.605C23.9391 21.3303 24.0043 20.0463 24.0694 18.7716L24.0787 18.7623ZM16.0305 18.6599C16.0677 19.4043 16.1142 20.1486 16.1514 20.8837C16.2166 22.2607 16.291 23.6284 16.3561 25.0055C16.4026 25.9824 16.4399 26.9687 16.4864 27.9549C16.505 28.3271 16.5329 28.6993 16.5515 29.0714C16.5515 29.2017 16.6073 29.304 16.7283 29.3599C16.9516 29.4622 17.1842 29.304 17.1749 29.0249C17.147 28.2899 17.1005 27.5548 17.0633 26.8198C16.9981 25.4428 16.9237 24.075 16.8586 22.698C16.8027 21.4512 16.7469 20.2044 16.6911 18.9577C16.6818 18.7437 16.6725 18.5297 16.6539 18.325C16.6353 18.1296 16.5143 18.0179 16.3282 18.0179C16.1514 18.0179 16.0398 18.1296 16.0305 18.325C16.0305 18.4366 16.0305 18.5483 16.0305 18.6599ZM19.7429 23.6842C19.7429 25.4148 19.7429 27.1361 19.7429 28.8667C19.7429 28.9505 19.7429 29.0249 19.7429 29.1086C19.7615 29.2668 19.9104 29.3878 20.0592 29.3878C20.2081 29.3878 20.3384 29.2575 20.357 29.09C20.357 29.0249 20.357 28.9598 20.357 28.8947C20.357 25.4335 20.357 21.9723 20.357 18.5111C20.357 18.4273 20.357 18.3529 20.357 18.2692C20.3291 18.1017 20.2081 17.9993 20.0313 18.0086C19.8266 18.0179 19.7336 18.1482 19.7336 18.418C19.7336 20.1672 19.7336 21.9257 19.7336 23.6749L19.7429 23.6842Z" fill="#952362"/>
<path d="M24.209 12.5482C24.2183 12.6878 24.1904 12.8553 24.1439 13.0134C24.0788 13.2646 24.0788 13.2646 24.3486 13.3298C25.3162 13.5531 26.2932 13.7764 27.2608 13.9997C27.968 14.1672 28.2843 14.6789 28.1261 15.386C28.0703 15.6279 28.0052 15.8605 27.968 16.1025C27.94 16.2699 27.8749 16.3165 27.6981 16.2699C25.9303 15.8605 24.1625 15.4605 22.404 15.0511C19.2871 14.3346 16.1701 13.6182 13.0532 12.9018C12.9974 12.8925 12.9508 12.8739 12.895 12.8646C12.7834 12.846 12.7368 12.7808 12.7647 12.6692C12.8392 12.3435 12.9043 12.0179 12.9974 11.7015C13.1555 11.1898 13.6766 10.8827 14.2069 10.9944C15.2025 11.2177 16.198 11.4503 17.1936 11.6736C17.4727 11.7387 17.4727 11.7387 17.5472 11.4503C17.7239 10.6967 18.1892 10.2221 18.9428 10.064C19.3057 9.98954 19.6499 10.0733 20.0035 10.157C20.9525 10.3803 21.9109 10.585 22.8599 10.8176C23.688 11.013 24.2276 11.6922 24.2276 12.5296L24.209 12.5482ZM23.4833 12.5482C23.4833 12.0272 23.1949 11.655 22.6366 11.5247C21.6317 11.2921 20.6176 11.0595 19.6127 10.8269C18.887 10.6594 18.4125 10.9479 18.245 11.6643C18.2016 11.8256 18.2636 11.9248 18.4311 11.962C19.9291 12.3063 21.4363 12.6506 22.9343 12.9948C23.4368 13.1065 23.4926 13.0693 23.4926 12.5389L23.4833 12.5482Z" fill="#952362"/>
<defs>
<linearGradient id="paint0_linear_527_5766" x1="19.4268" y1="-9.4113" x2="21.4552" y2="49.2802" gradientUnits="userSpaceOnUse">
<stop offset="0.23" stop-color="#FFD800"/>
<stop offset="0.95" stop-color="#FD1A84"/>
</linearGradient>
</defs>
</svg>
