<svg width="117" height="30" viewBox="0 0 117 30" fill="none" xmlns="http://www.w3.org/2000/svg">
<g clip-path="url(#clip0_527_5774)">
<path d="M84.5797 29.1406C83.5223 29.1406 20.4077 28.8016 13.0701 28.0975C9.12745 27.7193 6.36948 26.624 4.38859 24.6485C2.63063 22.8882 1.47139 20.515 0.84719 17.392L0.808973 17.2029L0.796234 17.1181C0.522349 15.0253 0.522349 13.8843 0.796234 11.811C1.83445 5.49337 6.30579 1.49674 13.0574 0.812163C19.6497 0.140625 26.2294 0.140625 32.5924 0.140625C34.4714 0.140625 40.9682 0.160184 47.2485 0.179744C47.2485 0.179744 72.3504 0.316659 77.4077 0.388377C77.4077 0.388377 97.7835 0.479654 104.121 1.15119C110.873 1.86837 115.338 5.84544 116.369 12.0718C116.656 14.2364 116.656 15.3317 116.382 17.4311L116.369 17.5289C115.955 19.6869 115.306 21.4668 114.376 22.9664C114.229 23.1946 114.083 23.4163 113.936 23.6249C111.994 26.3436 108.79 27.9149 104.134 28.4365C97.8472 29.1406 91.102 29.1406 84.5797 29.1406Z" fill="#491735"/>
<path d="M84.5797 28.0847C83.5032 28.0847 78.0701 28.0716 72.0446 28.0521C64.586 28.0325 56.1274 28.0064 54.0446 28.0064C48.809 28.0064 20.4523 27.7456 13.1402 27.048C9.37584 26.6894 6.76437 25.6658 4.92361 23.8142C3.27393 22.1647 2.18475 19.9219 1.5924 16.9554L1.56055 16.7859V16.7272C1.28667 14.7126 1.28667 13.6173 1.54781 11.6222C2.5287 5.71529 6.75163 1.95989 13.1338 1.31443C19.6943 0.649414 26.2484 0.649414 32.5924 0.649414C34.5287 0.649414 41.2803 0.668973 47.8153 0.688533C54.3822 0.708092 61.172 0.727651 63.1274 0.727651C66.0765 0.727651 72.4077 0.825448 77.4969 0.897166C80.8281 0.949324 83.707 0.988443 84.5797 0.988443C91.051 0.988443 97.7516 0.988443 104.045 1.65346C110.427 2.33152 114.65 6.07387 115.618 11.9286C115.885 13.9889 115.892 15.0321 115.618 17.0532V17.1053C115.217 19.1721 114.599 20.8607 113.72 22.2755C113.586 22.4907 113.446 22.6993 113.312 22.8884C111.503 25.4181 108.471 26.8915 104.045 27.3871C97.8026 28.0847 91.0765 28.0847 84.5733 28.0847H84.5797Z" fill="url(#paint0_linear_527_5774)"/>
<path d="M114.866 12.0586C113.956 6.57544 109.981 3.06779 103.962 2.42885C97.7071 1.76383 91.032 1.76383 84.5734 1.76383C82.3887 1.76383 68.0256 1.50304 63.1211 1.50304C59.223 1.50304 36.4587 1.4248 32.5861 1.4248C26.2613 1.4248 19.7199 1.4248 13.2039 2.08982C7.18483 2.70268 3.21668 6.21033 2.29948 11.7391C2.0447 13.6755 2.0447 14.673 2.29948 16.6094V16.642C2.31222 16.7007 2.32496 16.7528 2.3377 16.805C2.89821 19.6085 3.91732 21.7209 5.45235 23.2596C7.16572 24.9743 9.63069 25.9327 13.2103 26.2717C20.4651 26.9628 49.1339 27.2301 54.0447 27.2301C57.7963 27.2301 82.1594 27.3083 84.5797 27.3083C91.0638 27.3083 97.7708 27.3083 103.968 26.6173C108.172 26.1478 111.026 24.7787 112.701 22.4381C112.835 22.2555 112.962 22.0664 113.083 21.8643C113.905 20.5343 114.491 18.9304 114.866 16.9875V16.9549C115.128 15.0186 115.128 14.021 114.866 12.0651V12.0586Z" fill="url(#paint1_linear_527_5774)"/>
<path opacity="0.26" d="M13.2104 26.2658C20.4652 26.9569 49.134 27.2242 54.0448 27.2242C57.7964 27.2242 82.1595 27.3025 84.5799 27.3025C91.0639 27.3025 97.771 27.3025 103.968 26.6114C108.172 26.142 111.026 24.7728 112.701 22.4322C112.701 22.4322 112.701 22.4257 112.707 22.4192C97.255 25.5943 85.7455 24.9945 70.134 25.0075C31.7264 25.0532 11.6945 24.4729 2.49707 17.5098C3.08306 19.9612 4.05121 21.8519 5.45248 23.2537C7.16586 24.9684 9.63083 25.9268 13.2104 26.2658Z" fill="#491735"/>
<g opacity="0.63">
<path d="M16.7707 17.2417C16.9745 17.2417 17.121 17.17 17.2229 17.0201C17.3248 16.8701 17.3758 16.655 17.3758 16.3681V10.5133H18.5796C19.121 10.5133 19.5669 10.6242 19.9299 10.8393C20.2866 11.061 20.5541 11.3805 20.7325 11.8108C20.9108 12.2411 21 12.7822 21 13.4342V16.7136C21 16.8049 21.0191 16.8897 21.0509 16.9744C21.0828 17.0592 21.1465 17.1244 21.2293 17.17C21.3121 17.2157 21.4331 17.2352 21.5923 17.2352C21.7516 17.2352 21.8662 17.2091 21.949 17.157C22.0318 17.1048 22.0891 17.0331 22.121 16.9353C22.1528 16.844 22.1656 16.7397 22.1656 16.6224V13.4081C22.1656 12.4888 22.0255 11.726 21.7388 11.1197C21.4522 10.5133 21.0382 10.0569 20.4841 9.75703C19.9299 9.4506 19.242 9.30717 18.4204 9.31369L16.1465 9.33977C15.8089 9.34629 15.5796 9.40497 15.4649 9.50276C15.3503 9.60056 15.293 9.77659 15.293 10.0243C15.293 10.1613 15.3184 10.2656 15.363 10.3373C15.414 10.4155 15.4904 10.4677 15.5987 10.5068C15.707 10.5459 15.8535 10.559 16.0318 10.559C16.0828 10.559 16.1401 10.559 16.1974 10.559V16.0356" fill="#CAE8F3"/>
<path d="M27.7135 17.0397C28.1339 16.8572 28.5097 16.5899 28.8281 16.2443C29.1466 15.8988 29.395 15.475 29.5797 14.973C29.7644 14.4709 29.8536 13.9168 29.8536 13.2974C29.8536 12.515 29.7199 11.8239 29.4523 11.2306C29.1848 10.6373 28.8154 10.1679 28.3377 9.82886C27.86 9.48983 27.3122 9.32031 26.6816 9.32031H24.6944C24.5925 9.32031 24.4906 9.33987 24.4014 9.37247C24.3122 9.40507 24.2358 9.47027 24.1848 9.55502C24.1339 9.63978 24.1084 9.76366 24.1084 9.92013C24.1084 10.0701 24.1275 10.194 24.1657 10.2852C24.2039 10.3765 24.2613 10.4417 24.3377 10.4743C24.4141 10.5069 24.4906 10.52 24.5797 10.52H26.5288C27.2167 10.52 27.7517 10.7742 28.1402 11.2828C28.5224 11.7913 28.7135 12.4628 28.7135 13.2909C28.7135 13.8646 28.6116 14.3601 28.4141 14.7839C28.2103 15.2077 27.9301 15.5337 27.567 15.7684" fill="#CAE8F3"/>
<path d="M35.7768 10.357C35.4711 10.0114 35.0953 9.75714 34.6431 9.5811C34.1908 9.40507 33.6685 9.32031 33.0698 9.32031H31.5157C31.401 9.32031 31.3055 9.33987 31.2163 9.37247C31.1271 9.40507 31.0571 9.46375 31.0061 9.54851C30.9552 9.62674 30.9297 9.75062 30.9297 9.92013C30.9297 10.0896 30.9552 10.207 31.0061 10.2983C31.0571 10.3896 31.1271 10.4482 31.2163 10.4808C31.3055 10.5134 31.4074 10.5265 31.5284 10.5265H33.1144C33.5157 10.5265 33.866 10.5852 34.1654 10.709C34.4647 10.8329 34.7195 11.0155 34.9233 11.2567C35.1271 11.5044 35.28 11.8109 35.3819 12.176C35.4838 12.5411 35.5348 12.9649 35.5348 13.4473V16.7268C35.5348 16.8181 35.5539 16.9028 35.5857 16.9876C35.6176 17.0723 35.6813 17.1375 35.7641 17.1832C35.8469 17.2288 35.9679 17.2484 36.1208 17.2484C36.2736 17.2484 36.3947 17.2223 36.4838 17.1701C36.5666 17.118 36.624 17.0463 36.6558 16.9485C36.6877 16.8572 36.7004 16.7529 36.7004 16.6355V13.4213C36.7004 12.7432 36.624 12.1499 36.4711 11.6414C36.3182 11.1328 36.0889 10.709 35.7832 10.3635L35.7768 10.357Z" fill="#CAE8F3"/>
<path d="M41.5989 16.8445C42.0893 16.6815 42.5097 16.4859 42.8664 16.2446C43.2231 16.0034 43.5225 15.7165 43.7581 15.3905C43.9938 15.058 44.1722 14.6734 44.2932 14.2235C44.4142 13.7802 44.4779 13.2651 44.4779 12.6979L44.4906 9.94001C44.4906 9.82265 44.4715 9.71834 44.4397 9.62706C44.4078 9.53578 44.3441 9.45754 44.2549 9.40539C44.1658 9.35323 44.0384 9.32715 43.8728 9.32715C43.7072 9.32715 43.5989 9.35323 43.5225 9.39887C43.446 9.4445 43.3887 9.5097 43.3569 9.58794C43.325 9.66618 43.3123 9.75093 43.3123 9.84873V13.076C43.3123 13.5324 43.255 13.9301 43.1339 14.2691C43.0129 14.6082 42.8282 14.895 42.5734 15.1167C42.3186 15.3449 42.1021 16.1338 41.7008 16.2772L41.4715 16.3424L39.6435 9.88785C39.6116 9.76397 39.5671 9.65314 39.5097 9.55534C39.4588 9.45754 39.3823 9.39235 39.2804 9.35323C39.1785 9.31411 39.0448 9.32715 38.8664 9.37931C38.7008 9.42495 38.5862 9.48362 38.5288 9.56838C38.4651 9.64662 38.4397 9.73789 38.4524 9.82917C38.4651 9.92045 38.4842 10.0248 38.5161 10.1421L40.0702 15.3514C40.1403 15.5535 40.2358 15.7165 40.3505 15.8404C40.4014 15.8926 40.4524 15.9317 40.497 15.9773" fill="#CAE8F3"/>
<path d="M51.3504 17.242H52.6944C52.86 17.242 52.981 17.2289 53.0638 17.1963C53.1466 17.1637 53.1975 17.105 53.223 17.0203C53.2485 16.9355 53.2612 16.8051 53.2612 16.6356V12.9259C53.2612 12.1109 53.153 11.4328 52.9364 10.8852C52.7198 10.3375 52.4014 9.92676 51.9874 9.65293C51.5733 9.3791 51.0702 9.24219 50.4778 9.24219C50.1211 9.24219 49.809 9.29435 49.5415 9.39214C49.274 9.48994 49.0383 9.62685 48.8281 9.80941C48.6179 9.98544 48.4396 10.2006 48.2867 10.4483C48.1339 10.6961 47.9937 10.9634 47.8727 11.2633C47.8472 11.3285 47.8281 11.4002 47.809 11.4654L47.3886 9.80289C47.3695 9.72465 47.344 9.63337 47.3122 9.5421C47.2804 9.45082 47.2103 9.3791 47.1147 9.33346C47.0192 9.28783 46.8727 9.28783 46.6689 9.33346C46.5033 9.3791 46.3886 9.43778 46.3249 9.51602C46.2612 9.59426 46.2294 9.67901 46.2294 9.77681C46.2294 9.87461 46.2485 9.98544 46.2804 10.1093L46.9746 12.7759L46.2103 16.6487C46.1784 16.8443 46.2103 16.9942 46.2995 17.0985C46.3886 17.2028 46.5542 17.255 46.7835 17.255C46.93 17.255 47.0447 17.2289 47.1275 17.1702C47.2103 17.1116 47.2676 17.0333 47.3058 16.9355C47.3377 16.8377 47.3695 16.7334 47.3823 16.6161L48.0893 13.0693C48.1784 12.6846 48.2804 12.3326 48.4077 12.0196C48.5351 11.7001 48.6816 11.4263 48.86 11.1981C49.0319 10.9634 49.2421 10.7874 49.4778 10.657C49.7135 10.5266 49.9746 10.4614 50.2612 10.4614C50.6561 10.4614 50.9874 10.5527 51.2612 10.7287C51.5351 10.9047 51.7453 11.1851 51.8918 11.5567C52.0383 11.9283 52.1084 12.4108 52.1084 12.9911V16.0554H51.274" fill="#CAE8F3"/>
<path d="M56.0506 12.8282C55.9678 12.7761 55.8404 12.75 55.6748 12.75C55.5156 12.75 55.4009 12.7761 55.3181 12.8217C55.2353 12.8674 55.178 12.9391 55.1462 13.0304C55.1143 13.1216 55.1016 13.2194 55.1016 13.3368V16.6423C55.1016 16.7466 55.1143 16.8509 55.1462 16.9422C55.178 17.0335 55.229 17.1117 55.3118 17.1639C55.3882 17.2161 55.5092 17.2421 55.6621 17.2421C55.8277 17.2421 55.9551 17.2161 56.0379 17.1639C56.1207 17.1117 56.178 17.04 56.2098 16.9487C56.2417 16.8575 56.2544 16.7597 56.2544 16.6554V13.3498C56.2544 13.2325 56.2417 13.1347 56.2162 13.0434C56.1907 12.9521 56.1334 12.8804 56.0506 12.8282Z" fill="#CAE8F3"/>
<path d="M59.9874 9.77638C59.4523 9.46995 58.7835 9.31348 57.981 9.31348H55.5479C55.4459 9.31348 55.344 9.33304 55.2612 9.36563C55.1784 9.39823 55.102 9.45691 55.051 9.54167C55.0001 9.61991 54.9746 9.74378 54.9746 9.9133C54.9746 10.0828 55.0001 10.2002 55.051 10.2914C55.102 10.3827 55.1721 10.4414 55.2612 10.474C55.3504 10.5066 55.4459 10.5196 55.5606 10.5196H58.0192C58.5606 10.5196 59.0065 10.6305 59.3695 10.8456C59.7326 11.0608 59.9937 11.3868 60.1721 11.8171C60.3504 12.2474 60.4396 12.7885 60.4396 13.4405V16.72C60.4396 16.8112 60.4587 16.896 60.4905 16.9807C60.5224 17.0655 60.5861 17.1307 60.6689 17.1763C60.7517 17.222 60.8727 17.2415 61.0256 17.2415C61.1784 17.2415 61.2995 17.2155 61.3886 17.1633C61.4714 17.1111 61.5288 17.0394 61.5606 16.9416C61.5924 16.8503 61.6052 16.746 61.6052 16.6287V13.4144C61.6052 12.5017 61.4714 11.7454 61.1975 11.1455C60.93 10.5457 60.5224 10.0893 59.9874 9.7829V9.77638Z" fill="#CAE8F3"/>
<path d="M68.0509 17.242H69.4522C69.6178 17.242 69.7388 17.2289 69.8216 17.1963C69.9044 17.1637 69.9554 17.105 69.9808 17.0203C70.0063 16.9355 70.0191 16.8051 70.0191 16.6356V12.9259C70.0191 12.1109 69.9108 11.4328 69.6942 10.8852C69.4777 10.3375 69.1592 9.92676 68.7452 9.65293C68.3312 9.3791 67.828 9.24219 67.2356 9.24219C66.8789 9.24219 66.5668 9.29435 66.2993 9.39214C66.0318 9.48994 65.7961 9.62685 65.5859 9.80941C65.3757 9.98544 65.1974 10.2006 65.0445 10.4483C64.8917 10.6961 64.7515 10.9634 64.6305 11.2633C64.605 11.3285 64.5859 11.4002 64.5668 11.4654L64.1464 9.80289C64.1273 9.72465 64.1019 9.63337 64.07 9.5421C64.0382 9.45082 63.9681 9.3791 63.8726 9.33346C63.777 9.28783 63.6305 9.28783 63.4267 9.33346C63.2611 9.3791 63.1464 9.43778 63.0827 9.51602C63.0191 9.59426 62.9872 9.67901 62.9872 9.77681C62.9872 9.87461 63.0063 9.98544 63.0382 10.1093L63.7324 12.7759L62.9681 16.6487C62.9363 16.8443 62.9681 16.9942 63.0573 17.0985C63.1464 17.2028 63.312 17.255 63.5413 17.255C63.6878 17.255 63.8025 17.2289 63.8853 17.1702C63.9681 17.1116 64.0254 17.0333 64.0636 16.9355C64.0955 16.8377 64.1273 16.7334 64.1401 16.6161L64.8471 13.0693C64.9362 12.6846 65.0382 12.3326 65.1655 12.0196C65.2929 11.7001 65.4394 11.4263 65.6178 11.1981C65.7898 10.9634 65.9999 10.7874 66.2356 10.657C66.4713 10.5266 66.7324 10.4614 67.0191 10.4614C67.414 10.4614 67.7452 10.5527 68.0191 10.7287C68.2929 10.9047 68.5031 11.1851 68.6496 11.5567C68.7961 11.9283 68.8662 12.4108 68.8662 12.9911V16.0554H68.0382" fill="#CAE8F3"/>
<path d="M80.0704 9.77638C79.5353 9.46995 78.8665 9.31348 78.064 9.31348H75.6309C75.529 9.31348 75.427 9.33304 75.3442 9.36563C75.2614 9.39823 75.185 9.45691 75.1341 9.54167C75.0831 9.61991 75.0576 9.74378 75.0576 9.9133C75.0576 10.0828 75.0831 10.2002 75.1341 10.2914C75.185 10.3827 75.2551 10.4414 75.3442 10.474C75.4334 10.5066 75.529 10.5196 75.6436 10.5196H78.1022C78.6436 10.5196 79.0895 10.6305 79.4525 10.8456C79.8156 11.0608 80.0767 11.3868 80.2551 11.8171C80.4334 12.2474 80.5226 12.7885 80.5226 13.4405V16.72C80.5226 16.8112 80.5417 16.896 80.5735 16.9807C80.6054 17.0655 80.6691 17.1307 80.7519 17.1763C80.8347 17.222 80.9557 17.2415 81.1086 17.2415C81.2614 17.2415 81.3825 17.2155 81.4716 17.1633C81.5544 17.1111 81.6118 17.0394 81.6436 16.9416C81.6755 16.8503 81.6882 16.746 81.6882 16.6287V13.4144C81.6882 12.5017 81.5544 11.7454 81.2805 11.1455C81.013 10.5457 80.6054 10.0893 80.0704 9.7829V9.77638Z" fill="#CAE8F3"/>
<path d="M76.1278 12.8282C76.045 12.7761 75.9176 12.75 75.752 12.75C75.5927 12.75 75.4781 12.7761 75.3953 12.8217C75.3125 12.8674 75.2551 12.9391 75.2233 13.0304C75.1914 13.1216 75.1787 13.2194 75.1787 13.3368V16.6423C75.1787 16.7466 75.1914 16.8509 75.2233 16.9422C75.2551 17.0335 75.3061 17.1117 75.3889 17.1639C75.4653 17.2161 75.5864 17.2421 75.7392 17.2421C75.9048 17.2421 76.0322 17.2161 76.115 17.1639C76.1978 17.1117 76.2551 17.04 76.287 16.9487C76.3188 16.8575 76.3316 16.7597 76.3316 16.6554V13.3498C76.3316 13.2325 76.3188 13.1347 76.2934 13.0434C76.2679 12.9521 76.2106 12.8804 76.1278 12.8282Z" fill="#CAE8F3"/>
<path d="M88.7392 14.8624L88.5481 14.6277C88.5481 14.6277 88.5927 14.5886 88.6118 14.569C88.7265 14.4647 88.8156 14.3408 88.8857 14.2169C88.9558 14.0865 89.0195 13.9301 89.0704 13.741L89.9494 10.3637C89.994 10.2138 90.0258 10.0769 90.0386 9.95951C90.0513 9.84216 90.0386 9.74436 89.9876 9.6596C89.9367 9.57485 89.8284 9.50313 89.6628 9.45097C89.4717 9.38577 89.3252 9.37925 89.2233 9.42489C89.1214 9.47053 89.0513 9.54877 89.0003 9.65308C88.9494 9.7574 88.9048 9.8878 88.8602 10.0312L87.9112 13.8388L84.7137 9.86824C84.6118 9.7248 84.5099 9.60745 84.4207 9.52269C84.3316 9.43141 84.236 9.37925 84.1341 9.36621C84.0322 9.35317 83.9112 9.40533 83.7583 9.52269C83.5991 9.64656 83.5099 9.76392 83.4908 9.86824C83.4717 9.97255 83.4908 10.0834 83.5545 10.1942C83.6182 10.3051 83.7074 10.4289 83.8093 10.5593L84.4016 11.3026L82.9558 16.3619C82.9176 16.4989 82.8984 16.6227 82.8984 16.7401C82.8984 16.864 82.9239 16.9618 82.9812 17.04C83.0449 17.1182 83.1532 17.1834 83.3188 17.2291C83.5035 17.2617 83.6373 17.2682 83.7328 17.2356C83.822 17.203 83.8921 17.1378 83.943 17.027C83.994 16.9226 84.0386 16.7792 84.0832 16.5967L85.2105 12.3001L87.8984 15.6448" fill="#CAE8F3"/>
<path d="M92.7454 9.40507C92.6626 9.34639 92.5352 9.32031 92.376 9.32031C92.2167 9.32031 92.1021 9.34639 92.0193 9.39855C91.9365 9.45071 91.8792 9.52243 91.8473 9.6137C91.8155 9.70498 91.8027 9.80278 91.8027 9.90709V12.854C91.8027 12.9584 91.8155 13.0627 91.8473 13.1474C91.8792 13.2322 91.9301 13.3104 92.0129 13.3691C92.0894 13.4278 92.2104 13.4539 92.3632 13.4539C92.5288 13.4539 92.6562 13.4278 92.7327 13.3756C92.8155 13.3235 92.8728 13.2517 92.9046 13.1605C92.9365 13.0692 92.9492 12.9714 92.9492 12.8671V9.92013C92.9492 9.80278 92.9365 9.70498 92.911 9.62022C92.8855 9.53547 92.8282 9.46375 92.7454 9.40507Z" fill="#CAE8F3"/>
<path d="M98.7706 17.2415H99.9681C100.076 17.2219 100.166 17.1893 100.236 17.1111C100.318 17.0263 100.382 16.922 100.427 16.8047C100.471 16.6808 100.49 16.5569 100.478 16.42C100.471 16.2831 100.439 16.1722 100.388 16.0744C100.344 15.9962 100.28 15.8919 100.191 15.7615C100.102 15.6311 100.013 15.4942 99.9171 15.3507L98.9171 13.9034L100.662 10.3175C100.726 10.2132 100.764 10.1088 100.79 10.011C100.809 9.91324 100.802 9.82197 100.764 9.73721C100.726 9.65245 100.637 9.56769 100.509 9.48946C100.369 9.41122 100.248 9.36558 100.146 9.36558C100.044 9.36558 99.9617 9.38514 99.898 9.43078C99.8343 9.48294 99.7706 9.54813 99.7197 9.63941L98.2674 12.9645L95.9935 9.66549C95.9235 9.56769 95.8471 9.48946 95.7706 9.43078C95.6942 9.3721 95.605 9.34602 95.5095 9.35254C95.4139 9.35254 95.2929 9.41122 95.1591 9.52206C95.0127 9.64593 94.9235 9.76981 94.8916 9.89368C94.8598 10.0176 94.8916 10.1545 94.9999 10.3109L98.9362 15.8528L99.07 16.0418H98.7706" fill="#CAE8F3"/>
<path d="M103.815 9.62022C103.79 9.53547 103.733 9.46375 103.65 9.40507C103.567 9.34639 103.44 9.32031 103.28 9.32031C103.121 9.32031 103.006 9.34639 102.924 9.39855C102.841 9.45071 102.783 9.52243 102.752 9.6137C102.72 9.70498 102.707 9.80278 102.707 9.90709V12.854C102.707 12.9584 102.72 13.0627 102.752 13.1474C102.783 13.2322 102.834 13.3104 102.917 13.3691C102.994 13.4278 103.115 13.4539 103.268 13.4539C103.433 13.4539 103.561 13.4278 103.637 13.3756C103.72 13.3235 103.777 13.2517 103.809 13.1605C103.841 13.0692 103.854 12.9714 103.854 12.8671V9.92013C103.854 9.80278 103.841 9.70498 103.815 9.62022Z" fill="#CAE8F3"/>
</g>
<path d="M20.9494 19.0999C20.701 19.0999 20.4972 19.0543 20.338 18.9695C20.1469 18.8652 20.0004 18.7022 19.9112 18.5001C19.8475 18.3501 19.8157 18.1871 19.8157 18.0241V14.7447C19.8157 14.1709 19.7393 13.7015 19.5928 13.3429C19.459 13.0235 19.2679 12.7887 19.0068 12.6323C18.7393 12.4693 18.3762 12.3845 17.9367 12.3845H17.2743V17.6786C17.2743 18.0828 17.1915 18.4023 17.0259 18.6435C16.8221 18.9434 16.5036 19.0999 16.1278 19.0999H14.4399C14.2552 19.0999 14.0896 19.0673 13.9367 19.0086C13.7456 18.9304 13.5864 18.7935 13.4717 18.6109C13.3635 18.4349 13.3125 18.2132 13.3125 17.9459C13.3125 17.6786 13.3635 17.4439 13.4717 17.2678C13.5864 17.0788 13.7584 16.9418 13.9558 16.8636C14.1023 16.8115 14.2615 16.7854 14.4271 16.7854H15.0131V12.391C14.9367 12.378 14.8603 12.3584 14.7902 12.3389C14.5036 12.2476 14.3443 12.0716 14.2679 11.9412C14.166 11.7782 14.1087 11.5695 14.1087 11.3283C14.1087 10.911 14.2297 10.5916 14.4717 10.3829C14.6883 10.1939 15.0068 10.1026 15.4908 10.0896L17.8475 10.0635C18.7201 10.0635 19.4781 10.233 20.0959 10.572C20.752 10.9306 21.2488 11.4717 21.5864 12.1889C21.9049 12.867 22.0641 13.7211 22.0641 14.7186V17.9329C22.0641 18.1089 22.0386 18.2719 21.9877 18.4218C21.9176 18.637 21.7838 18.813 21.5928 18.9369C21.4208 19.0477 21.2106 19.0999 20.9431 19.0999H20.9494Z" fill="#491735"/>
<path d="M25.7073 19.1723C25.2168 19.1723 24.7518 19.1136 24.3378 18.9897C23.9238 18.8724 23.5608 18.7159 23.2487 18.5333C23.0576 18.4095 22.8983 18.2791 22.7773 18.1421C22.5926 17.9335 22.4971 17.7184 22.4971 17.4902C22.4971 17.3598 22.5225 17.2229 22.5671 17.0859C22.599 16.9816 22.6436 16.8838 22.6882 16.786L22.7073 16.7469L22.7327 16.7078C22.8346 16.5709 22.9302 16.46 23.0385 16.3753C23.2423 16.2058 23.4397 16.1732 23.5671 16.1732C23.7136 16.1732 23.8665 16.2123 24.013 16.2905C24.0894 16.3362 24.1659 16.3818 24.2487 16.4274C24.4716 16.5774 24.6818 16.6882 24.8983 16.76C25.1085 16.8317 25.376 16.8643 25.6945 16.8643C26.0639 16.8643 26.3824 16.7795 26.6563 16.6035C26.9302 16.4274 27.1404 16.1797 27.2996 15.8472C27.4652 15.5016 27.548 15.0779 27.548 14.5954C27.548 13.8913 27.3952 13.3305 27.0831 12.9263C26.8028 12.5547 26.427 12.3787 25.9047 12.3787H23.9557C23.7964 12.3787 23.6436 12.3461 23.5034 12.2874C23.3633 12.2287 23.1659 12.0983 23.0448 11.8049C22.9748 11.6419 22.9429 11.4463 22.9429 11.2181C22.9429 10.9508 22.9939 10.7292 23.1022 10.5531C23.2168 10.364 23.3824 10.2271 23.5862 10.1489C23.7391 10.0902 23.9047 10.0576 24.0703 10.0576H26.0576C26.7964 10.0576 27.4589 10.2597 28.0194 10.664C28.5735 11.0617 29.0066 11.6028 29.3124 12.2874C29.6117 12.9524 29.7582 13.7283 29.7582 14.5889C29.7582 15.2669 29.6563 15.8993 29.4461 16.46C29.2359 17.0273 28.9493 17.5162 28.5799 17.914C28.2104 18.3182 27.7773 18.6311 27.2805 18.8398C26.7901 19.0484 26.2614 19.1592 25.7009 19.1592L25.7073 19.1723Z" fill="#491735"/>
<path d="M35.4845 19.1002C35.2361 19.1002 35.0386 19.0546 34.873 18.9698C34.6819 18.8655 34.5354 18.7025 34.4463 18.5004C34.3826 18.3504 34.3507 18.1874 34.3507 18.0244V14.745C34.3507 14.3147 34.3061 13.9365 34.217 13.6236C34.1405 13.3367 34.0195 13.102 33.8666 12.9195C33.7201 12.7434 33.5418 12.613 33.3252 12.5283C33.0896 12.4305 32.803 12.3848 32.4717 12.3848H30.8858C30.701 12.3848 30.5354 12.3588 30.3889 12.3066C30.1851 12.2349 30.0131 12.0914 29.8921 11.8893C29.7902 11.7133 29.7393 11.4981 29.7393 11.2308C29.7393 10.944 29.7966 10.7223 29.9112 10.5463C30.0259 10.3702 30.1851 10.2398 30.3698 10.1616C30.5163 10.1029 30.6883 10.0703 30.873 10.0703H32.4272C33.0896 10.0703 33.6883 10.1681 34.1979 10.3702C34.7265 10.5723 35.1787 10.8853 35.5418 11.2895C35.8985 11.6937 36.1724 12.1958 36.3444 12.776C36.51 13.3367 36.5991 13.9887 36.5991 14.7189V17.9332C36.5991 18.1092 36.5737 18.2722 36.5227 18.4222C36.4526 18.6373 36.3189 18.8133 36.1278 18.9372C35.9558 19.0481 35.7393 19.1002 35.4781 19.1002H35.4845Z" fill="#491735"/>
<path d="M38.1469 19.4787C37.8857 19.4787 37.6564 19.3809 37.4845 19.1918C37.3507 19.0419 37.2552 18.8463 37.1851 18.5855C37.115 18.2856 37.1341 18.0443 37.2233 17.8422C37.3125 17.6466 37.459 17.4771 37.6628 17.3663C37.7966 17.2945 37.9494 17.2294 38.1214 17.1837L38.9685 16.949C38.9558 16.9099 38.9367 16.8708 38.924 16.8316L37.3634 11.6028C37.3189 11.4528 37.287 11.3094 37.2743 11.179C37.2552 10.9443 37.3189 10.7161 37.4654 10.527C37.5991 10.3445 37.8093 10.2206 38.0959 10.1423C38.2361 10.0967 38.3762 10.0771 38.5099 10.0771C38.6246 10.0771 38.7265 10.0967 38.8284 10.1293C39.0577 10.2075 39.2361 10.3705 39.3571 10.5922C39.4271 10.7226 39.4845 10.8726 39.5354 11.0421L41.0896 16.3296C41.2806 16.2383 41.459 16.1275 41.5991 16.0036C41.7838 15.8406 41.9176 15.6385 42.0068 15.3843C42.1023 15.1104 42.1533 14.7714 42.1533 14.3802V11.1529C42.1533 10.9834 42.1851 10.8269 42.2424 10.6835C42.3189 10.5009 42.4463 10.3445 42.6246 10.2336C42.7902 10.1293 43.0004 10.0771 43.2615 10.0771C43.5227 10.0771 43.7456 10.1293 43.9176 10.2336C44.1087 10.351 44.2488 10.527 44.3316 10.7356C44.3889 10.8921 44.4208 11.0616 44.4208 11.2507L44.408 14.0086C44.408 14.628 44.338 15.1887 44.2042 15.6842C44.0641 16.1927 43.8539 16.6426 43.5864 17.0272C43.3125 17.4119 42.9685 17.7444 42.5545 18.0182C42.1596 18.2856 41.6883 18.5072 41.1533 18.6833L38.6628 19.4135C38.4908 19.4656 38.3252 19.4852 38.166 19.4852L38.1469 19.4787Z" fill="#491735"/>
<path d="M48.8785 19.1003C48.7065 19.1003 48.5473 19.0677 48.3944 19.009C48.197 18.9308 48.0314 18.7939 47.9167 18.6113C47.8084 18.4288 47.7511 18.2136 47.7511 17.9463C47.7511 17.679 47.8021 17.4443 47.9103 17.2683C48.0314 17.0727 48.2033 16.9358 48.4135 16.864C48.56 16.8119 48.7256 16.7858 48.8912 16.7858H50.9294V14.2757C50.9294 13.7671 50.8721 13.3564 50.7511 13.0434C50.6492 12.7761 50.5154 12.5936 50.3371 12.4762C50.1524 12.3589 49.9103 12.2937 49.6237 12.2937C49.4263 12.2937 49.2543 12.3328 49.0951 12.4241C48.9231 12.5153 48.783 12.6457 48.6556 12.8153C48.5091 13.0043 48.3817 13.239 48.2734 13.5129C48.1587 13.7997 48.0568 14.1257 47.9804 14.4778L47.2798 18.0115C47.2607 18.1419 47.2224 18.2854 47.1779 18.4092C47.1078 18.6179 46.974 18.7874 46.7957 18.9113C46.6237 19.0351 46.4008 19.0938 46.146 19.0938C45.7638 19.0938 45.4709 18.983 45.2734 18.7678C45.1205 18.6048 44.9549 18.3114 45.0377 17.8355L45.7766 14.0801L45.1142 11.5439C45.0696 11.3744 45.0441 11.2179 45.0441 11.068C45.0441 10.8332 45.1269 10.6181 45.2798 10.4355C45.4199 10.2725 45.6173 10.1617 45.8912 10.09C46.0505 10.0509 46.1779 10.0378 46.2925 10.0378C46.4454 10.0378 46.5791 10.0639 46.7001 10.1226C46.9294 10.2269 47.0951 10.4095 47.1779 10.6376C47.2224 10.755 47.2543 10.8658 47.2798 10.9702L47.3435 11.2244C47.49 11.0223 47.6619 10.8463 47.8466 10.6833C48.1014 10.4616 48.4008 10.2921 48.7256 10.1747C49.0505 10.0574 49.4263 9.99219 49.8466 9.99219C50.5409 9.99219 51.146 10.1617 51.6492 10.4877C52.1587 10.8202 52.5473 11.3222 52.8084 11.9807C53.0505 12.5936 53.1779 13.3499 53.1779 14.23V17.9398C53.1779 18.168 53.1587 18.344 53.1142 18.4875C53.0377 18.7352 52.8658 18.9178 52.6365 19.009C52.49 19.0677 52.3116 19.0938 52.0759 19.0938H48.8976L48.8785 19.1003Z" fill="#491735"/>
<path d="M55.0253 19.0999C54.7578 19.0999 54.5412 19.0412 54.3692 18.9238C54.1909 18.8065 54.0635 18.6304 53.9934 18.4153C53.9425 18.2719 53.917 18.1089 53.917 17.9393V14.6338C53.917 14.4513 53.9425 14.2883 53.9934 14.1383C54.0635 13.9297 54.21 13.7536 54.4011 13.6363C54.5667 13.5385 54.7769 13.4863 55.0316 13.4863C55.3055 13.4863 55.5221 13.5385 55.6941 13.6493C55.8915 13.7732 56.0253 13.9558 56.089 14.1774C56.1272 14.3209 56.1527 14.4773 56.1527 14.6469V17.9524C56.1527 18.1219 56.1272 18.2784 56.0762 18.4283C56.0062 18.637 55.8724 18.8065 55.6813 18.9303C55.5093 19.0412 55.2928 19.0933 55.0189 19.0933L55.0253 19.0999Z" fill="#491735"/>
<path d="M60.3888 19.1005C60.1404 19.1005 59.9429 19.0549 59.7773 18.9701C59.5862 18.8658 59.4397 18.7028 59.3506 18.5007C59.2869 18.3508 59.255 18.1878 59.255 18.0248V14.7453C59.255 14.1716 59.1786 13.7021 59.0321 13.3436C58.8983 13.0241 58.7072 12.7894 58.4461 12.6329C58.1786 12.4699 57.8155 12.3852 57.376 12.3852H54.9174C54.7391 12.3852 54.5798 12.3591 54.4334 12.3069C54.2295 12.2352 54.0576 12.0852 53.9429 11.8896C53.841 11.7136 53.79 11.4985 53.79 11.2312C53.79 10.9443 53.8474 10.7226 53.962 10.5466C54.0767 10.3771 54.2295 10.2401 54.4206 10.1684C54.5735 10.1097 54.7391 10.0771 54.9111 10.0771H57.3442C58.2359 10.0771 59.0002 10.2597 59.6181 10.6118C60.255 10.9769 60.7391 11.5245 61.0576 12.2287C61.3569 12.9002 61.5098 13.7413 61.5098 14.7323V17.9465C61.5098 18.1226 61.4843 18.2856 61.4334 18.4355C61.3633 18.6507 61.2295 18.8267 61.0384 18.9506C60.8665 19.0614 60.6499 19.1136 60.3888 19.1136V19.1005Z" fill="#491735"/>
<path d="M65.6373 19.1003C65.4653 19.1003 65.3061 19.0677 65.1532 19.009C64.9558 18.9308 64.7902 18.7939 64.6755 18.6113C64.5672 18.4288 64.5099 18.2136 64.5099 17.9463C64.5099 17.679 64.5609 17.4443 64.6691 17.2683C64.7902 17.0727 64.9621 16.9358 65.1723 16.864C65.3188 16.8119 65.4844 16.7858 65.65 16.7858H67.6882V14.2757C67.6882 13.7671 67.6309 13.3564 67.5099 13.0434C67.408 12.7761 67.2742 12.5936 67.0959 12.4762C66.9112 12.3589 66.6691 12.2937 66.3825 12.2937C66.1851 12.2937 66.0131 12.3328 65.8538 12.4241C65.6819 12.5153 65.5417 12.6457 65.4144 12.8153C65.2679 13.0043 65.1405 13.239 65.0322 13.5129C64.9175 13.7997 64.8156 14.1257 64.7392 14.4778L64.0386 18.0115C64.0195 18.1419 63.9812 18.2854 63.9366 18.4092C63.8666 18.6179 63.7328 18.7874 63.5545 18.9113C63.3825 19.0351 63.1596 19.0938 62.9048 19.0938C62.5226 19.0938 62.2296 18.983 62.0322 18.7678C61.8793 18.6048 61.7137 18.3114 61.7965 17.8355L62.5354 14.0801L61.873 11.5439C61.8284 11.3744 61.8029 11.2179 61.8029 11.068C61.8029 10.8332 61.8857 10.6181 62.0386 10.4355C62.1787 10.2725 62.3761 10.1617 62.65 10.09C62.8093 10.0509 62.9366 10.0378 63.0513 10.0378C63.2042 10.0378 63.3379 10.0639 63.4589 10.1226C63.6882 10.2269 63.8538 10.4095 63.9366 10.6376C63.9812 10.755 64.0131 10.8658 64.0386 10.9702L64.1023 11.2244C64.2487 11.0223 64.4207 10.8463 64.6054 10.6833C64.8602 10.4616 65.1596 10.2921 65.4844 10.1747C65.8093 10.0574 66.1851 9.99219 66.6054 9.99219C67.2997 9.99219 67.9048 10.1617 68.408 10.4877C68.9175 10.8202 69.3061 11.3222 69.5672 11.9807C69.8093 12.5936 69.9366 13.3499 69.9366 14.23V17.9398C69.9366 18.168 69.9175 18.344 69.873 18.4875C69.7965 18.7352 69.6245 18.9178 69.3952 19.009C69.2487 19.0677 69.0704 19.0938 68.8347 19.0938H65.6564L65.6373 19.1003Z" fill="#491735"/>
<path d="M80.4718 19.1005C80.2234 19.1005 80.0259 19.0549 79.8603 18.9701C79.6692 18.8658 79.5227 18.7028 79.4336 18.5007C79.3699 18.3508 79.338 18.1878 79.338 18.0248V14.7453C79.338 14.1716 79.2616 13.7021 79.1151 13.3436C78.9813 13.0241 78.7902 12.7894 78.5291 12.6329C78.2616 12.4699 77.8985 12.3852 77.459 12.3852H75.0004C74.8221 12.3852 74.6629 12.3591 74.5164 12.3069C74.3125 12.2352 74.1406 12.0852 74.0259 11.8896C73.924 11.7136 73.873 11.4985 73.873 11.2312C73.873 10.9443 73.9304 10.7226 74.045 10.5466C74.1597 10.3771 74.3125 10.2401 74.5036 10.1684C74.6565 10.1097 74.8221 10.0771 74.9941 10.0771H77.4272C78.3189 10.0771 79.0832 10.2597 79.7011 10.6118C80.338 10.9769 80.8221 11.5245 81.1406 12.2287C81.4399 12.9002 81.5928 13.7413 81.5928 14.7323V17.9465C81.5928 18.1226 81.5673 18.2856 81.5164 18.4355C81.4463 18.6507 81.3125 18.8267 81.1215 18.9506C80.9495 19.0614 80.7329 19.1136 80.4718 19.1136V19.1005Z" fill="#491735"/>
<path d="M75.1083 19.0999C74.8408 19.0999 74.6242 19.0412 74.4522 18.9238C74.2739 18.8065 74.1465 18.6304 74.0764 18.4153C74.0255 18.2719 74 18.1089 74 17.9393V14.6338C74 14.4513 74.0255 14.2883 74.0764 14.1383C74.1465 13.9297 74.293 13.7536 74.4841 13.6363C74.6497 13.5385 74.8599 13.4863 75.1146 13.4863C75.3885 13.4863 75.6051 13.5385 75.7771 13.6493C75.9745 13.7732 76.1083 13.9558 76.172 14.1774C76.2102 14.3209 76.2357 14.4773 76.2357 14.6469V17.9524C76.2357 18.1219 76.2102 18.2784 76.1592 18.4283C76.0892 18.637 75.9554 18.8065 75.7643 18.9303C75.5924 19.0412 75.3758 19.0933 75.1019 19.0933L75.1083 19.0999Z" fill="#491735"/>
<path d="M88.8025 19.1911C88.6114 19.1911 88.4331 19.1324 88.2802 19.0151C88.1719 18.9303 88.07 18.8325 87.9745 18.7021L84.828 14.7903L83.9745 18.0436C83.9235 18.2457 83.8662 18.4153 83.8089 18.5587C83.6688 18.8716 83.4458 19.002 83.2802 19.0607C83.1783 19.0933 83.07 19.1129 82.949 19.1129C82.8471 19.1129 82.7325 19.0998 82.5923 19.0738C82.2675 18.989 82.0637 18.8586 81.9235 18.6826C81.7834 18.5 81.7133 18.2718 81.7261 18.0176C81.7261 17.8546 81.7579 17.685 81.8025 17.509L83.1719 12.7235L82.7579 12.2084C82.6305 12.0454 82.535 11.902 82.4586 11.7716C82.3248 11.5434 82.2802 11.2891 82.3248 11.0479C82.3758 10.8067 82.5286 10.585 82.7898 10.3764C83.0254 10.1938 83.242 10.1025 83.4649 10.1025H83.5668C83.7834 10.1351 83.9809 10.2395 84.1592 10.409C84.2739 10.5198 84.3885 10.6567 84.5159 10.8262L87.0191 13.9297L87.707 11.1783C87.7643 10.9827 87.8216 10.8328 87.879 10.7089C87.9809 10.4807 88.1528 10.3047 88.3758 10.2069C88.484 10.1547 88.6114 10.1351 88.7452 10.1351C88.879 10.1351 89.0318 10.1612 89.1974 10.2134C89.4904 10.3112 89.6942 10.4546 89.8153 10.6502C89.9363 10.8458 89.9809 11.087 89.9426 11.3348C89.9235 11.4717 89.8853 11.6282 89.8344 11.8107L88.9618 15.1684C88.8917 15.4096 88.8216 15.5987 88.7261 15.7682C88.6942 15.8269 88.6624 15.8791 88.6242 15.9312L89.7133 17.2808C89.8216 17.4047 89.9108 17.5547 89.9681 17.7046C90.0446 17.9132 90.0382 18.1414 89.9618 18.3566C89.8853 18.5587 89.7388 18.7347 89.535 18.8912C89.3312 19.0477 89.1274 19.1455 88.9299 19.1716H88.8981L88.8025 19.1781V19.1911Z" fill="#491735"/>
<path d="M91.7201 15.3122C91.4462 15.3122 91.2233 15.247 91.0513 15.1231C90.8857 14.9993 90.7583 14.8298 90.6946 14.6342C90.6436 14.4842 90.6182 14.3277 90.6182 14.1582V11.2113C90.6182 11.0418 90.6436 10.8853 90.6946 10.7353C90.7647 10.5267 90.9048 10.3507 91.0895 10.2333C91.2615 10.1225 91.4717 10.0703 91.7392 10.0703C92.0194 10.0703 92.2424 10.129 92.4207 10.2529C92.6054 10.3833 92.7328 10.5528 92.7965 10.7549C92.8411 10.8918 92.8602 11.0548 92.8602 11.2243V14.1713C92.8602 14.3408 92.8347 14.5038 92.7838 14.6472C92.7137 14.8558 92.5736 15.0253 92.3952 15.1492C92.2233 15.2601 92.0067 15.3187 91.7328 15.3187L91.7201 15.3122Z" fill="#491735"/>
<path d="M94.6245 19.1002C94.4462 19.1002 94.2806 19.0676 94.1213 19.0089C93.9239 18.9307 93.7519 18.7938 93.6436 18.6047C93.5353 18.4286 93.4844 18.207 93.4844 17.9397C93.4844 17.6724 93.5353 17.4376 93.6436 17.2616C93.7646 17.066 93.9366 16.9291 94.1468 16.8574C94.2933 16.8052 94.4525 16.7791 94.6118 16.7791H97.3697L93.9239 11.9284C93.6691 11.5633 93.6755 11.2504 93.7264 11.0483C93.7837 10.807 93.9366 10.5853 94.1786 10.3832C94.427 10.1942 94.6436 10.1029 94.8538 10.0898C95.0958 10.0898 95.2869 10.155 95.4525 10.2724C95.5799 10.3637 95.6946 10.481 95.7965 10.631L97.529 13.1411L98.6054 10.6766L98.6245 10.6505C98.7137 10.5006 98.8219 10.3702 98.943 10.2789C99.0958 10.1681 99.2806 10.1029 99.4844 10.1029C99.72 10.1094 99.9175 10.1746 100.134 10.2985C100.376 10.4484 100.529 10.6049 100.612 10.794C100.701 10.9896 100.726 11.2112 100.675 11.4264C100.644 11.5764 100.58 11.7328 100.491 11.8893L98.9048 15.1427L99.72 16.3228L100 16.7335C100.102 16.8835 100.172 17.0008 100.223 17.0921C100.312 17.2616 100.37 17.4572 100.382 17.6724C100.395 17.8875 100.363 18.0961 100.3 18.2852C100.23 18.4808 100.121 18.6568 99.9812 18.7938C99.9557 18.8264 99.9175 18.859 99.8729 18.885V19.0676H99.3315L94.6245 19.0741V19.1002Z" fill="#491735"/>
<path d="M102.63 15.3122C102.356 15.3122 102.133 15.247 101.961 15.1231C101.796 14.9993 101.668 14.8298 101.605 14.6342C101.554 14.4842 101.528 14.3277 101.528 14.1582V11.2113C101.528 11.0418 101.554 10.8853 101.605 10.7353C101.675 10.5267 101.815 10.3507 102 10.2333C102.172 10.1225 102.382 10.0703 102.649 10.0703C102.93 10.0703 103.153 10.129 103.331 10.2529C103.516 10.3833 103.643 10.5528 103.707 10.7549C103.751 10.8918 103.77 11.0548 103.77 11.2243V14.1713C103.77 14.3408 103.745 14.5038 103.694 14.6472C103.624 14.8558 103.484 15.0253 103.305 15.1492C103.133 15.2601 102.917 15.3187 102.643 15.3187L102.63 15.3122Z" fill="#491735"/>
<path d="M20.4775 10.4094C19.9234 10.1029 19.2355 9.95951 18.4138 9.96603L16.1399 9.99211C15.8023 9.99863 15.573 10.0573 15.4584 10.1551C15.3437 10.2529 15.2864 10.4289 15.2864 10.6767C15.2864 10.8136 15.3119 10.9179 15.3565 10.9896C15.4074 11.0679 15.4839 11.12 15.5921 11.1592C15.7004 11.1983 15.8469 11.2113 16.0253 11.2113C16.0762 11.2113 16.1335 11.2113 16.1909 11.2113V16.6879H15.0635C14.9616 16.6879 14.8597 16.701 14.7769 16.7336C14.6877 16.7662 14.6176 16.8248 14.5667 16.9096C14.5157 16.9944 14.4902 17.1248 14.4902 17.2943C14.4902 17.4573 14.5157 17.5746 14.5667 17.6594C14.6176 17.7441 14.6877 17.8028 14.7769 17.8419C14.866 17.8811 14.9616 17.8941 15.0762 17.8941H16.7641C16.9679 17.8941 17.1144 17.8224 17.2163 17.6724C17.3183 17.5225 17.3692 17.3073 17.3692 17.0204V11.1657H18.573C19.1144 11.1657 19.5603 11.2765 19.9234 11.4917C20.28 11.7133 20.5476 12.0328 20.7259 12.4631C20.9042 12.8934 20.9934 13.4346 20.9934 14.0865V17.366C20.9934 17.4573 21.0125 17.542 21.0444 17.6268C21.0762 17.7115 21.1399 17.7767 21.2227 17.8224C21.3055 17.868 21.4265 17.8876 21.5858 17.8876C21.745 17.8876 21.8597 17.8615 21.9425 17.8093C22.0253 17.7572 22.0826 17.6855 22.1144 17.5877C22.1463 17.4964 22.159 17.3921 22.159 17.2747V14.0605C22.159 13.1412 22.0189 12.3784 21.7323 11.772C21.4456 11.1657 21.0316 10.7093 20.4775 10.4094Z" fill="white"/>
<path d="M28.3441 10.4812C27.8664 10.1422 27.3186 9.97266 26.688 9.97266H24.7008C24.5988 9.97266 24.4969 9.99222 24.4078 10.0248C24.3186 10.0574 24.2422 10.1226 24.1912 10.2074C24.1402 10.2921 24.1148 10.416 24.1148 10.5725C24.1148 10.7224 24.1339 10.8463 24.1721 10.9376C24.2103 11.0289 24.2676 11.0941 24.3441 11.1267C24.4205 11.1593 24.4969 11.1723 24.5861 11.1723H26.5351C27.223 11.1723 27.7581 11.4266 28.1466 11.9351C28.5288 12.4437 28.7199 13.1152 28.7199 13.9432C28.7199 14.5169 28.6179 15.0124 28.4205 15.4362C28.2167 15.86 27.9364 16.186 27.5734 16.4207C27.2103 16.6554 26.7963 16.7663 26.325 16.7663C25.9492 16.7663 25.6307 16.7206 25.3632 16.6294C25.0957 16.5381 24.8409 16.4077 24.5988 16.2382C24.5288 16.1925 24.4587 16.1534 24.395 16.1143C24.3313 16.0817 24.2676 16.0621 24.2039 16.0621C24.1402 16.0621 24.0765 16.0882 24.0129 16.1404C23.9492 16.1925 23.8791 16.2708 23.809 16.3686C23.7772 16.4403 23.7453 16.5185 23.7199 16.5968C23.6944 16.675 23.6816 16.7532 23.6816 16.8249C23.6816 16.9032 23.7262 16.9945 23.8218 17.0988C23.9109 17.2031 24.032 17.2944 24.1657 17.3857C24.4332 17.5486 24.7581 17.679 25.1275 17.7899C25.4969 17.8942 25.9046 17.9529 26.3504 17.9529C26.8409 17.9529 27.2931 17.8616 27.7199 17.679C28.1402 17.4965 28.516 17.2292 28.8345 16.8836C29.153 16.5381 29.4014 16.1143 29.5861 15.6123C29.7708 15.1102 29.86 14.5561 29.86 13.9367C29.86 13.1543 29.7262 12.4632 29.4587 11.8699C29.1912 11.2766 28.8218 10.8072 28.3441 10.4682V10.4812Z" fill="white"/>
<path d="M35.7768 11.0093C35.4711 10.6638 35.0953 10.4095 34.6431 10.2334C34.1908 10.0574 33.6685 9.97266 33.0698 9.97266H31.5157C31.401 9.97266 31.3055 9.99222 31.2163 10.0248C31.1271 10.0574 31.0571 10.1161 31.0061 10.2008C30.9552 10.2791 30.9297 10.403 30.9297 10.5725C30.9297 10.742 30.9552 10.8593 31.0061 10.9506C31.0571 11.0419 31.1271 11.1006 31.2163 11.1332C31.3055 11.1658 31.4074 11.1788 31.5284 11.1788H33.1144C33.5157 11.1788 33.866 11.2375 34.1654 11.3614C34.4647 11.4852 34.7195 11.6678 34.9233 11.909C35.1271 12.1568 35.28 12.4632 35.3819 12.8283C35.4838 13.1934 35.5348 13.6172 35.5348 14.0997V17.3791C35.5348 17.4704 35.5539 17.5552 35.5857 17.6399C35.6176 17.7247 35.6813 17.7899 35.7641 17.8355C35.8469 17.8812 35.9679 17.9007 36.1208 17.9007C36.2736 17.9007 36.3947 17.8746 36.4838 17.8225C36.5666 17.7703 36.624 17.6986 36.6558 17.6008C36.6877 17.5095 36.7004 17.4052 36.7004 17.2879V14.0736C36.7004 13.3955 36.624 12.8022 36.4711 12.2937C36.3182 11.7852 36.0889 11.3614 35.7832 11.0158L35.7768 11.0093Z" fill="white"/>
<path d="M44.2544 10.0509C44.1653 9.99874 44.0379 9.97266 43.8723 9.97266C43.7067 9.97266 43.5984 9.99874 43.5219 10.0444C43.4455 10.09 43.3882 10.1552 43.3563 10.2334C43.3245 10.3117 43.3118 10.3964 43.3118 10.4942V13.7215C43.3118 14.1779 43.2544 14.5756 43.1334 14.9147C43.0124 15.2537 42.8277 15.5406 42.5729 15.7622C42.3181 15.9904 41.9869 16.173 41.5856 16.3164L41.3563 16.3816L39.6366 10.5334C39.6047 10.4095 39.5602 10.2986 39.5028 10.2008C39.4519 10.1031 39.3754 10.0379 39.2735 9.99874C39.1716 9.95962 39.0379 9.97266 38.8595 10.0248C38.6939 10.0705 38.5793 10.1291 38.5219 10.2139C38.4582 10.2921 38.4328 10.3834 38.4455 10.4747C38.4582 10.566 38.4774 10.6703 38.5092 10.7876L40.0633 15.9969C40.1334 16.1991 40.2289 16.362 40.3436 16.4859C40.3946 16.5381 40.4455 16.5772 40.4901 16.6228L38.885 17.0727C38.7512 17.1053 38.643 17.1509 38.5474 17.2096C38.4519 17.2618 38.3818 17.3335 38.3436 17.4248C38.3054 17.516 38.299 17.6399 38.3436 17.8029C38.3882 17.9724 38.4455 18.0963 38.5156 18.168C38.5856 18.2463 38.6748 18.2789 38.7831 18.2789C38.8914 18.2789 39.006 18.2593 39.127 18.2267L41.5984 17.503C42.0888 17.34 42.5092 17.1444 42.8659 16.9032C43.2226 16.662 43.5219 16.3751 43.7576 16.0491C43.9933 15.7166 44.1716 15.3319 44.2926 14.8821C44.4137 14.4387 44.4774 13.9236 44.4774 13.3564L44.4901 10.5986C44.4901 10.4812 44.471 10.3769 44.4391 10.2856C44.4073 10.1943 44.3436 10.1161 44.2544 10.0639V10.0509Z" fill="white"/>
<path d="M51.9805 10.3111C51.5665 10.0373 51.0633 9.90039 50.471 9.90039C50.1143 9.90039 49.8022 9.95255 49.5347 10.0503C49.2671 10.1481 49.0315 10.2851 48.8213 10.4676C48.6111 10.6436 48.4327 10.8588 48.2799 11.1066C48.127 11.3543 47.9869 11.6216 47.8659 11.9215C47.8404 11.9867 47.8213 12.0584 47.8022 12.1236L47.3818 10.4611C47.3627 10.3829 47.3372 10.2916 47.3054 10.2003C47.2735 10.109 47.2034 10.0373 47.1079 9.99167C47.0124 9.94603 46.8659 9.94603 46.662 9.99167C46.4964 10.0373 46.3818 10.096 46.3181 10.1742C46.2544 10.2525 46.2226 10.3372 46.2226 10.435C46.2226 10.5328 46.2417 10.6436 46.2735 10.7675L46.9678 13.4341L46.2035 17.3069C46.1716 17.5025 46.2035 17.6524 46.2926 17.7567C46.3818 17.861 46.5474 17.9132 46.7767 17.9132C46.9232 17.9132 47.0378 17.8871 47.1206 17.8284C47.2034 17.7698 47.2608 17.6915 47.299 17.5937C47.3308 17.4959 47.3627 17.3916 47.3754 17.2743L48.0824 13.7275C48.1716 13.3428 48.2735 12.9908 48.4009 12.6778C48.5283 12.3583 48.6748 12.0845 48.8531 11.8563C49.0251 11.6216 49.2353 11.4456 49.471 11.3152C49.7066 11.1848 49.9678 11.1196 50.2544 11.1196C50.6493 11.1196 50.9805 11.2109 51.2544 11.3869C51.5283 11.5629 51.7385 11.8433 51.885 12.2149C52.0315 12.5865 52.1015 13.069 52.1015 13.6493V16.7136H49.5219C49.4073 16.7136 49.3054 16.7266 49.2162 16.7592C49.127 16.7918 49.0506 16.8505 48.9996 16.9352C48.9487 17.02 48.9232 17.1504 48.9232 17.3199C48.9232 17.4829 48.9487 17.6003 48.9996 17.685C49.0506 17.7698 49.127 17.8284 49.2162 17.8676C49.3054 17.9002 49.4073 17.9197 49.5092 17.9197H52.6875C52.8531 17.9197 52.9741 17.9067 53.057 17.8741C53.1398 17.8415 53.1907 17.7828 53.2162 17.6981C53.2417 17.6133 53.2544 17.4829 53.2544 17.3134V13.6036C53.2544 12.7887 53.1461 12.1106 52.9296 11.5629C52.713 11.0153 52.3945 10.6045 51.9805 10.3307V10.3111Z" fill="white"/>
<path d="M56.0506 13.4806C55.9678 13.4284 55.8404 13.4023 55.6748 13.4023C55.5156 13.4023 55.4009 13.4284 55.3181 13.4741C55.2353 13.5197 55.178 13.5914 55.1462 13.6827C55.1143 13.774 55.1016 13.8718 55.1016 13.9891V17.2947C55.1016 17.399 55.1143 17.5033 55.1462 17.5946C55.178 17.6858 55.229 17.7641 55.3118 17.8162C55.3882 17.8684 55.5092 17.8945 55.6621 17.8945C55.8277 17.8945 55.9551 17.8684 56.0379 17.8162C56.1207 17.7641 56.178 17.6924 56.2098 17.6011C56.2417 17.5098 56.2544 17.412 56.2544 17.3077V14.0022C56.2544 13.8848 56.2417 13.787 56.2162 13.6957C56.1907 13.6045 56.1334 13.5327 56.0506 13.4806Z" fill="white"/>
<path d="M59.9874 10.4287C59.4523 10.1223 58.7835 9.96582 57.981 9.96582H55.5479C55.4459 9.96582 55.344 9.98538 55.2612 10.018C55.1784 10.0506 55.102 10.1093 55.051 10.194C55.0001 10.2723 54.9746 10.3961 54.9746 10.5656C54.9746 10.7352 55.0001 10.8525 55.051 10.9438C55.102 11.0351 55.1721 11.0937 55.2612 11.1263C55.3504 11.1589 55.4459 11.172 55.5606 11.172H58.0192C58.5606 11.172 59.0065 11.2828 59.3695 11.498C59.7326 11.7131 59.9937 12.0391 60.1721 12.4694C60.3504 12.8997 60.4396 13.4409 60.4396 14.0928V17.3723C60.4396 17.4636 60.4587 17.5483 60.4905 17.6331C60.5224 17.7178 60.5861 17.783 60.6689 17.8287C60.7517 17.8743 60.8727 17.8939 61.0256 17.8939C61.1784 17.8939 61.2995 17.8678 61.3886 17.8156C61.4714 17.7635 61.5288 17.6918 61.5606 17.594C61.5924 17.5027 61.6052 17.3984 61.6052 17.281V14.0668C61.6052 13.154 61.4714 12.3977 61.1975 11.7979C60.93 11.1981 60.5224 10.7417 59.9874 10.4352V10.4287Z" fill="white"/>
<path d="M68.7393 10.3111C68.3253 10.0373 67.8221 9.90039 67.2298 9.90039C66.8731 9.90039 66.561 9.95255 66.2935 10.0503C66.0259 10.1481 65.7903 10.2851 65.5801 10.4676C65.3699 10.6436 65.1915 10.8588 65.0387 11.1066C64.8858 11.3543 64.7457 11.6216 64.6247 11.9215C64.5992 11.9867 64.5801 12.0584 64.561 12.1236L64.1406 10.4611C64.1215 10.3829 64.096 10.2916 64.0642 10.2003C64.0323 10.109 63.9622 10.0373 63.8667 9.99167C63.7712 9.94603 63.6247 9.94603 63.4208 9.99167C63.2552 10.0373 63.1406 10.096 63.0769 10.1742C63.0132 10.2525 62.9813 10.3372 62.9813 10.435C62.9813 10.5328 63.0005 10.6436 63.0323 10.7675L63.7266 13.4341L62.9622 17.3069C62.9304 17.5025 62.9622 17.6524 63.0514 17.7567C63.1406 17.861 63.3062 17.9132 63.5355 17.9132C63.682 17.9132 63.7966 17.8871 63.8794 17.8284C63.9622 17.7698 64.0196 17.6915 64.0578 17.5937C64.0896 17.4959 64.1215 17.3916 64.1342 17.2743L64.8412 13.7275C64.9304 13.3428 65.0323 12.9908 65.1597 12.6778C65.2871 12.3583 65.4336 12.0845 65.6119 11.8563C65.7839 11.6216 65.9941 11.4456 66.2298 11.3152C66.4654 11.1848 66.7266 11.1196 67.0132 11.1196C67.4081 11.1196 67.7393 11.2109 68.0132 11.3869C68.2871 11.5629 68.4973 11.8433 68.6438 12.2149C68.7903 12.5865 68.8603 13.069 68.8603 13.6493V16.7136H66.2807C66.1661 16.7136 66.0642 16.7266 65.975 16.7592C65.8858 16.7918 65.8094 16.8505 65.7584 16.9352C65.7075 17.02 65.682 17.1504 65.682 17.3199C65.682 17.4829 65.7075 17.6003 65.7584 17.685C65.8094 17.7698 65.8858 17.8284 65.975 17.8676C66.0642 17.9002 66.1661 17.9197 66.268 17.9197H69.4463C69.6119 17.9197 69.7329 17.9067 69.8157 17.8741C69.8985 17.8415 69.9495 17.7828 69.975 17.6981C70.0005 17.6133 70.0132 17.4829 70.0132 17.3134V13.6036C70.0132 12.7887 69.9049 12.1106 69.6884 11.5629C69.4718 11.0153 69.1533 10.6045 68.7393 10.3307V10.3111Z" fill="white"/>
<path d="M80.0704 10.4287C79.5353 10.1223 78.8665 9.96582 78.064 9.96582H75.6309C75.529 9.96582 75.427 9.98538 75.3442 10.018C75.2614 10.0506 75.185 10.1093 75.1341 10.194C75.0831 10.2723 75.0576 10.3961 75.0576 10.5656C75.0576 10.7352 75.0831 10.8525 75.1341 10.9438C75.185 11.0351 75.2551 11.0937 75.3442 11.1263C75.4334 11.1589 75.529 11.172 75.6436 11.172H78.1022C78.6436 11.172 79.0895 11.2828 79.4525 11.498C79.8156 11.7131 80.0767 12.0391 80.2551 12.4694C80.4334 12.8997 80.5226 13.4409 80.5226 14.0928V17.3723C80.5226 17.4636 80.5417 17.5483 80.5735 17.6331C80.6054 17.7178 80.6691 17.783 80.7519 17.8287C80.8347 17.8743 80.9557 17.8939 81.1086 17.8939C81.2614 17.8939 81.3825 17.8678 81.4716 17.8156C81.5544 17.7635 81.6118 17.6918 81.6436 17.594C81.6755 17.5027 81.6882 17.3984 81.6882 17.281V14.0668C81.6882 13.154 81.5544 12.3977 81.2805 11.7979C81.013 11.1981 80.6054 10.7417 80.0704 10.4352V10.4287Z" fill="white"/>
<path d="M76.1278 13.4806C76.045 13.4284 75.9176 13.4023 75.752 13.4023C75.5927 13.4023 75.4781 13.4284 75.3953 13.4741C75.3125 13.5197 75.2551 13.5914 75.2233 13.6827C75.1914 13.774 75.1787 13.8718 75.1787 13.9891V17.2947C75.1787 17.399 75.1914 17.5033 75.2233 17.5946C75.2551 17.6858 75.3061 17.7641 75.3889 17.8162C75.4653 17.8684 75.5864 17.8945 75.7392 17.8945C75.9048 17.8945 76.0322 17.8684 76.115 17.8162C76.1978 17.7641 76.2551 17.6924 76.287 17.6011C76.3188 17.5098 76.3316 17.412 76.3316 17.3077V14.0022C76.3316 13.8848 76.3188 13.787 76.2934 13.6957C76.2679 13.6045 76.2106 13.5327 76.1278 13.4806Z" fill="white"/>
<path d="M89.9367 17.0012L88.5481 15.28C88.5481 15.28 88.5927 15.2409 88.6118 15.2213C88.7265 15.117 88.8156 14.9932 88.8857 14.8693C88.9558 14.7389 89.0195 14.5824 89.0704 14.3933L89.9494 11.0161C89.994 10.8661 90.0258 10.7292 90.0386 10.6119C90.0513 10.4945 90.0386 10.3967 89.9876 10.3119C89.9367 10.2272 89.8284 10.1555 89.6628 10.1033C89.4717 10.0381 89.3252 10.0316 89.2233 10.0772C89.1214 10.1229 89.0513 10.2011 89.0003 10.3054C88.9494 10.4097 88.9048 10.5401 88.8602 10.6836L87.9112 14.4911L84.7137 10.5206C84.6118 10.3771 84.5099 10.2598 84.4207 10.175C84.3316 10.0838 84.236 10.0316 84.1341 10.0186C84.0322 10.0055 83.9112 10.0577 83.7583 10.175C83.5991 10.2989 83.5099 10.4163 83.4908 10.5206C83.4717 10.6249 83.4908 10.7357 83.5545 10.8466C83.6182 10.9574 83.7074 11.0813 83.8093 11.2117L84.4016 11.9549L82.9558 17.0143C82.9176 17.1512 82.8984 17.2751 82.8984 17.3924C82.8984 17.5163 82.9239 17.6141 82.9812 17.6923C83.0449 17.7706 83.1532 17.8358 83.3188 17.8814C83.5035 17.914 83.6373 17.9205 83.7328 17.8879C83.822 17.8553 83.8921 17.7901 83.943 17.6793C83.994 17.575 84.0386 17.4316 84.0832 17.249L85.2105 12.9525L89.0322 17.7054C89.1023 17.7967 89.1723 17.8684 89.2424 17.9205C89.3125 17.9727 89.3953 17.9923 89.4972 17.9792C89.5991 17.9662 89.7201 17.9075 89.8539 17.7967C89.9749 17.7054 90.0513 17.6141 90.0895 17.5228C90.1214 17.4316 90.1277 17.3403 90.0895 17.2555C90.0577 17.1708 90.0067 17.086 89.9239 16.9947L89.9367 17.0012Z" fill="white"/>
<path d="M92.7454 10.0574C92.6626 9.99874 92.5352 9.97266 92.376 9.97266C92.2167 9.97266 92.1021 9.99874 92.0193 10.0509C91.9365 10.1031 91.8792 10.1748 91.8473 10.266C91.8155 10.3573 91.8027 10.4551 91.8027 10.5594V13.5064C91.8027 13.6107 91.8155 13.715 91.8473 13.7998C91.8792 13.8845 91.9301 13.9628 92.0129 14.0214C92.0894 14.0801 92.2104 14.1062 92.3632 14.1062C92.5288 14.1062 92.6562 14.0801 92.7327 14.028C92.8155 13.9758 92.8728 13.9041 92.9046 13.8128C92.9365 13.7215 92.9492 13.6237 92.9492 13.5194V10.5725C92.9492 10.4551 92.9365 10.3573 92.911 10.2726C92.8855 10.1878 92.8282 10.1161 92.7454 10.0574Z" fill="white"/>
<path d="M100.509 10.1418C100.369 10.0636 100.248 10.0179 100.146 10.0179C100.044 10.0179 99.9615 10.0375 99.8978 10.0831C99.8341 10.1353 99.7704 10.2005 99.7194 10.2918L98.2672 13.6168L95.9933 10.3178C95.9233 10.22 95.8468 10.1418 95.7704 10.0831C95.694 10.0244 95.6048 9.99836 95.5092 10.0049C95.4137 10.0049 95.2927 10.0636 95.1589 10.1744C95.0124 10.2983 94.9233 10.4222 94.8914 10.546C94.8596 10.6699 94.8914 10.8068 94.9997 10.9633L98.936 16.5051L99.0698 16.6942H95.2481C95.1462 16.6942 95.0443 16.7072 94.9551 16.7398C94.8659 16.7724 94.7895 16.8311 94.7385 16.9159C94.6876 17.0006 94.6621 17.131 94.6621 17.3005C94.6621 17.4635 94.6876 17.5809 94.7385 17.6656C94.7895 17.7504 94.8659 17.8091 94.9551 17.8482C95.0443 17.8873 95.1462 17.9003 95.2608 17.9003H99.9678C100.076 17.8808 100.165 17.8482 100.235 17.7699C100.318 17.6852 100.382 17.5809 100.426 17.4635C100.471 17.3396 100.49 17.2158 100.477 17.0788C100.471 16.9419 100.439 16.8311 100.388 16.7333C100.344 16.6551 100.28 16.5507 100.191 16.4204C100.102 16.29 100.012 16.153 99.9169 16.0096L98.9169 14.5622L100.662 10.9763C100.726 10.872 100.764 10.7677 100.79 10.6699C100.809 10.5721 100.802 10.4808 100.764 10.3961C100.726 10.3113 100.637 10.2266 100.509 10.1483V10.1418Z" fill="white"/>
<path d="M103.815 10.2726C103.79 10.1878 103.733 10.1161 103.65 10.0574C103.567 9.99874 103.44 9.97266 103.28 9.97266C103.121 9.97266 103.006 9.99874 102.924 10.0509C102.841 10.1031 102.783 10.1748 102.752 10.266C102.72 10.3573 102.707 10.4551 102.707 10.5594V13.5064C102.707 13.6107 102.72 13.715 102.752 13.7998C102.783 13.8845 102.834 13.9628 102.917 14.0214C102.994 14.0801 103.115 14.1062 103.268 14.1062C103.433 14.1062 103.561 14.0801 103.637 14.028C103.72 13.9758 103.777 13.9041 103.809 13.8128C103.841 13.7215 103.854 13.6237 103.854 13.5194V10.5725C103.854 10.4551 103.841 10.3573 103.815 10.2726Z" fill="white"/>
<path opacity="0.06" d="M111.28 5.38872C109.427 3.77181 106.949 2.74821 103.962 2.43526C99.1718 1.92672 94.14 1.80936 89.1464 1.78328C87.6177 1.77676 86.089 1.77676 84.5731 1.77676C84.4839 1.77676 84.3693 1.77676 84.2483 1.77676C84.2164 1.77676 84.191 1.77676 84.1591 1.77676C84.0381 1.77676 83.9107 1.77676 83.7642 1.77676C83.7387 1.77676 83.7196 1.77676 83.7005 1.77676C83.5413 1.77676 83.3629 1.77676 83.1718 1.77676C83.1018 1.77676 83.0253 1.77676 82.9489 1.77676C82.7833 1.77676 82.6113 1.77676 82.4266 1.77024C82.4075 1.77024 82.3884 1.77024 82.3629 1.77024C81.8852 1.77024 81.3566 1.7572 80.7833 1.75068C80.6814 1.75068 80.5859 1.75068 80.4839 1.75068C80.3438 1.75068 80.1973 1.75068 80.0572 1.75068C79.7451 1.75068 79.4266 1.74416 79.1018 1.73764C78.968 1.73764 78.8279 1.73764 78.6878 1.73764C78.6687 1.73764 78.6495 1.73764 78.6304 1.73764C77.4585 1.73764 76.2865 1.73764 75.1209 1.73764C74.2292 1.73764 71.9043 1.67896 68.8916 1.60073C68.6177 1.60073 68.3438 1.59421 68.0763 1.58769C68.0253 1.58769 67.9744 1.58769 67.9298 1.58769C67.7132 1.58769 67.5031 1.58769 67.2929 1.58117C67.2164 1.58117 67.14 1.58117 67.0636 1.58117C66.8852 1.58117 66.7132 1.58117 66.5476 1.58117C66.4457 1.58117 66.3438 1.58117 66.2419 1.58117C66.1081 1.58117 65.9808 1.58117 65.8534 1.58117C65.7387 1.58117 65.6241 1.58117 65.5094 1.58117C65.3757 1.58117 65.2419 1.58117 65.1145 1.58117C65.0253 1.58117 64.9425 1.58117 64.8534 1.58117C64.7196 1.58117 64.5922 1.58117 64.4648 1.58117C64.382 1.58117 64.2992 1.58117 64.2164 1.58117C64.0827 1.58117 63.9616 1.58117 63.8343 1.58117C63.7706 1.58117 63.7005 1.58117 63.6432 1.58117C63.4648 1.58117 63.2865 1.58117 63.1273 1.58117C59.2292 1.58117 36.4648 1.50293 32.5922 1.50293C31.5859 1.50293 30.5731 1.50293 29.554 1.50293C29.2929 1.50293 29.0381 1.50293 28.7769 1.50293C27.6814 1.50293 26.5859 1.51597 25.4839 1.52901C24.1145 1.56813 22.7451 1.60073 21.3757 1.62681C20.7833 1.64636 20.1909 1.67244 19.5986 1.69852C19.4139 1.70504 19.2292 1.71808 19.0381 1.7246C18.554 1.75068 18.0636 1.77676 17.5795 1.80284C17.2228 1.8224 16.8597 1.84848 16.503 1.87456C16.1464 1.90064 15.7897 1.9202 15.433 1.95279C14.6878 2.01147 13.9425 2.07667 13.2037 2.15491C12.8406 2.19403 12.4903 2.23967 12.1464 2.29834C12.0253 2.3179 11.9107 2.34398 11.7897 2.37006C11.5667 2.40918 11.3502 2.45482 11.1336 2.50046C10.9871 2.53306 10.8534 2.57217 10.7132 2.61129C10.5349 2.65693 10.3502 2.70909 10.1782 2.76125C10.0253 2.80689 9.87884 2.85904 9.73235 2.9112C9.57948 2.96336 9.42025 3.02204 9.27375 3.08072C9.11451 3.1394 8.96802 3.20459 8.81515 3.27631C8.68139 3.33499 8.554 3.39367 8.42025 3.45235C8.26101 3.53058 8.10814 3.60882 7.95528 3.68706C7.84063 3.74574 7.73235 3.81093 7.62407 3.86961C7.46483 3.96089 7.3056 4.05868 7.14636 4.15648C7.05719 4.21516 6.97439 4.27384 6.88521 4.33252C6.71961 4.44335 6.554 4.56071 6.40114 4.68458C6.33744 4.73022 6.28012 4.78238 6.21642 4.83454C6.04445 4.97797 5.87247 5.11489 5.70687 5.26485C5.68139 5.2844 5.66228 5.31048 5.63681 5.33004C4.21005 6.6666 3.18458 8.37478 2.61133 10.4155C8.92343 4.50855 39.6241 0.524962 111.28 5.38872Z" fill="white"/>
<path d="M11.2989 5.25859C11.1906 5.66934 10.4071 5.42811 9.05046 5.88449C6.96129 6.58211 7.17148 7.64483 6.55364 7.29928C6.17785 7.08413 7.05046 5.90405 8.36256 5.34335C9.67466 4.78265 11.4008 4.86089 11.2989 5.26511V5.25859Z" fill="white"/>
<path d="M6.413 8.16604C6.41848 7.94286 6.22907 7.75695 5.98994 7.75079C5.75081 7.74464 5.55251 7.92057 5.54703 8.14375C5.54155 8.36693 5.73096 8.55284 5.97009 8.55899C6.20922 8.56515 6.40752 8.38921 6.413 8.16604Z" fill="white"/>
</g>
<defs>
<linearGradient id="paint0_linear_527_5774" x1="1.35036" y1="14.367" x2="115.828" y2="14.367" gradientUnits="userSpaceOnUse">
<stop offset="0.44" stop-color="#A04E7F"/>
<stop offset="0.53" stop-color="#964071"/>
<stop offset="0.7" stop-color="#892E60"/>
</linearGradient>
<linearGradient id="paint1_linear_527_5774" x1="58.4396" y1="-3.29552" x2="58.7199" y2="28.7426" gradientUnits="userSpaceOnUse">
<stop offset="0.44" stop-color="#A04E7F"/>
<stop offset="0.53" stop-color="#964071"/>
<stop offset="0.7" stop-color="#892E60"/>
</linearGradient>
<clipPath id="clip0_527_5774">
<rect width="116" height="29" fill="white" transform="translate(0.585938 0.140625)"/>
</clipPath>
</defs>
</svg>
