<svg width="41" height="42" viewBox="0 0 41 42" fill="none" xmlns="http://www.w3.org/2000/svg">
<path d="M13.7246 34.819C13.7246 34.819 13.8245 34.2053 14.4168 33.8984" stroke="white" stroke-width="0.3" stroke-miterlimit="10" stroke-linecap="round"/>
<path d="M21.3674 38.502C20.9535 38.5162 20.5396 38.5305 20.1328 38.5305C20.5467 38.5305 20.9606 38.5162 21.3674 38.502Z" fill="#14C197"/>
<path d="M20.1245 38.5305C19.7106 38.5305 19.2967 38.5091 18.8828 38.502C19.2967 38.5234 19.7106 38.5305 20.1245 38.5305Z" fill="#14C197"/>
<path d="M20.1255 40.6644C19.8186 40.6644 19.5046 40.6572 19.1978 40.643L18.8267 40.6287C16.0008 40.5002 13.1606 39.9722 10.3704 39.0516C6.70241 37.8456 3.75519 35.1053 2.28515 31.5444C2.17097 31.2661 2.06393 30.9878 1.97116 30.6952C0.900744 27.4768 0.358398 24.2085 0.358398 20.9901C0.358398 17.7717 0.865063 14.7246 1.87126 11.6061C3.20571 7.44573 6.50973 4.16312 10.6986 2.82866C13.8314 1.83674 16.9998 1.33008 20.1255 1.33008C23.2511 1.33008 26.6407 1.87242 29.8805 2.93571C33.8339 4.23448 36.9738 7.3601 38.2797 11.2921C39.3502 14.5176 39.8925 17.7788 39.8925 20.9972C39.8925 24.2156 39.3502 27.484 38.2797 30.7024C38.1798 31.0092 38.0585 31.3161 37.9372 31.6086C36.46 35.141 33.5271 37.8599 29.8805 39.0587C27.0974 39.9793 24.2644 40.5074 21.4599 40.6358L21.0531 40.6501C20.7463 40.6572 20.4323 40.6715 20.1255 40.6715V40.6644Z" fill="#0B1A42"/>
<path d="M20.1259 39.601C19.8262 39.601 19.5265 39.5938 19.2268 39.5796L18.8557 39.5653C16.1369 39.444 13.3966 38.9302 10.6991 38.0453C7.32375 36.9321 4.61916 34.4202 3.27043 31.1447C3.16339 30.8878 3.06348 30.6309 2.97785 30.3668C1.94311 27.2555 1.41504 24.1013 1.41504 20.9971C1.41504 17.8929 1.90743 14.9528 2.87081 11.9414C4.10536 8.10215 7.15248 5.07644 11.0131 3.84902C14.0388 2.88565 17.1002 2.40039 20.1117 2.40039C23.1231 2.40039 26.4057 2.92133 29.5314 3.94893C33.1636 5.1478 36.0538 8.01652 37.2526 11.6274C38.2874 14.7387 38.8154 17.8929 38.8154 20.9971C38.8154 24.1013 38.2874 27.2555 37.2526 30.3668C37.1599 30.6523 37.0528 30.9306 36.9386 31.2018C35.5828 34.4487 32.8853 36.9463 29.5314 38.0453C26.8339 38.9302 24.1008 39.444 21.3962 39.5653L21.0037 39.5796C20.704 39.5867 20.4043 39.601 20.1117 39.601H20.1259Z" fill="#6D7EB2"/>
<path d="M36.2613 11.963C35.1623 8.65896 32.5434 6.05428 29.2179 4.96245C26.1922 3.9634 23.1522 3.46387 20.1265 3.46387C17.1008 3.46387 14.2749 3.93485 11.3491 4.86255C7.7953 5.99005 5.03362 8.73746 3.89898 12.2698C2.96415 15.1814 2.49316 18.1 2.49316 20.9973C2.49316 23.9945 2.99983 27.0202 3.99889 30.0316C4.07738 30.2743 4.17015 30.5098 4.26292 30.7381C5.4832 33.7067 7.95943 36.0188 11.0422 37.0322C13.6541 37.8956 16.2802 38.3809 18.892 38.5022C19.3059 38.5165 19.7198 38.5308 20.1337 38.5308C20.5476 38.5308 20.9614 38.5094 21.3682 38.5022C23.98 38.3809 26.599 37.8956 29.2179 37.0322C32.2865 36.026 34.7484 33.7282 35.9758 30.7881C36.0829 30.5383 36.1757 30.2885 36.2613 30.0316C37.2603 27.0202 37.767 24.0016 37.767 20.9973C37.767 17.993 37.2603 14.9744 36.2613 11.963Z" fill="url(#paint0_linear_527_5772)"/>
<path d="M12.1188 7.20277C12.1188 7.92352 10.82 7.83788 8.92891 9.12952C6.01024 11.1205 6.7738 12.7761 5.68198 12.455C5.01118 12.2551 5.86751 9.95731 7.64441 8.50868C9.4213 7.06005 12.1188 6.50343 12.1188 7.20277Z" fill="white"/>
<path d="M5.15382 14.7744C5.53217 14.7744 5.83888 14.4677 5.83888 14.0894C5.83888 13.711 5.53217 13.4043 5.15382 13.4043C4.77546 13.4043 4.46875 13.711 4.46875 14.0894C4.46875 14.4677 4.77546 14.7744 5.15382 14.7744Z" fill="white"/>
<path opacity="0.07" d="M29.2097 4.96245C26.184 3.9634 23.144 3.46387 20.1183 3.46387C17.0926 3.46387 14.2667 3.93485 11.3409 4.86255C7.78707 5.99005 5.02539 8.73746 3.89075 12.2698C3.61957 13.119 3.39122 13.9682 3.19141 14.8246C6.28135 12.1271 19.0336 2.31495 34.6974 8.95154C33.3486 7.10329 31.4362 5.69034 29.2097 4.96245Z" fill="white"/>
<path opacity="0.67" d="M4.26292 30.7369C5.4832 33.7055 7.95943 36.0176 11.0422 37.031C13.6541 37.8944 16.2802 38.3797 18.892 38.501C19.3059 38.5153 19.7198 38.5295 20.1337 38.5295C20.5476 38.5295 20.9614 38.5081 21.3682 38.501C23.98 38.3797 26.599 37.8944 29.2179 37.031C32.2865 36.0248 34.7484 33.7269 35.9758 30.7869C36.0829 30.5371 36.1757 30.2873 36.2613 30.0304C37.2461 27.0689 37.7456 24.1003 37.767 21.146C37.7171 22.5874 36.825 34.1551 21.3682 35.8107C4.87663 37.5804 2.49316 20.9961 2.49316 20.9961C2.49316 23.9933 2.99983 27.019 3.99889 30.0304C4.07738 30.2731 4.17015 30.5085 4.26292 30.7369Z" fill="#0B1A42"/>
<path opacity="0.63" d="M28.3893 17.4077H20.7679V15.3026C20.7679 14.2179 19.983 13.333 19.0125 13.333C18.6913 13.333 18.3702 13.4329 18.0919 13.6327L10.4206 18.9634C9.89963 19.3202 9.59277 19.9482 9.59277 20.6404C9.59277 21.3326 9.89963 21.9534 10.4206 22.3174L18.0919 27.6481C18.3702 27.8407 18.6913 27.9478 19.0125 27.9478C19.983 27.9478 20.7679 27.0629 20.7679 25.9782V24.2299H28.3893C29.6381 24.2299 30.6586 23.2094 30.6586 21.9606V19.6842C30.6586 18.4353 29.6381 17.4149 28.3893 17.4149V17.4077Z" fill="#CBE9F4"/>
<path d="M28.3893 18.1284H20.7679V16.0233C20.7679 14.9386 19.983 14.0537 19.0125 14.0537C18.6913 14.0537 18.3702 14.1536 18.0919 14.3534L10.4206 19.6841C9.89963 20.0409 9.59277 20.6689 9.59277 21.3611C9.59277 22.0533 9.89963 22.6741 10.4206 23.0381L18.0919 28.3688C18.3702 28.5614 18.6913 28.6685 19.0125 28.6685C19.983 28.6685 20.7679 27.7836 20.7679 26.6989V24.9506H28.3893C29.6381 24.9506 30.6586 23.9301 30.6586 22.6813V20.4049C30.6586 19.156 29.6381 18.1356 28.3893 18.1356V18.1284Z" fill="#0B1A42"/>
<path d="M28.7109 18.0925H20.0905V15.1953C20.0905 14.1677 19.1628 13.5254 18.4278 14.0392L14.4458 16.808L10.4638 19.5769C9.72169 20.0907 9.72169 21.3752 10.4638 21.889L14.4458 24.6578L18.4278 27.4266C19.1699 27.9404 20.0905 27.2981 20.0905 26.2705V23.7444H28.7109C29.6172 23.7444 30.3522 23.0093 30.3522 22.103V19.741C30.3522 18.8347 29.6172 18.0997 28.7109 18.0997V18.0925Z" fill="white"/>
<defs>
<linearGradient id="paint0_linear_527_5772" x1="19.0918" y1="-8.94585" x2="21.1327" y2="49.97" gradientUnits="userSpaceOnUse">
<stop offset="0.12" stop-color="#4C6596"/>
<stop offset="0.44" stop-color="#3D4E88"/>
<stop offset="0.61" stop-color="#35417B"/>
<stop offset="0.91" stop-color="#2A3069"/>
</linearGradient>
</defs>
</svg>
