<svg width="41" height="41" viewBox="0 0 41 41" fill="none" xmlns="http://www.w3.org/2000/svg">
<path d="M21.5285 38.3457C21.1136 38.36 20.6987 38.3743 20.291 38.3743C20.7059 38.3743 21.1208 38.36 21.5285 38.3457Z" fill="#14C197"/>
<path d="M20.2837 38.3743C19.8688 38.3743 19.4539 38.3529 19.0391 38.3457C19.4539 38.3672 19.8688 38.3743 20.2837 38.3743Z" fill="#14C197"/>
<path d="M20.2836 40.5135C19.9761 40.5135 19.6613 40.5063 19.3537 40.492L18.9818 40.4777C16.1492 40.349 13.3023 39.8196 10.5054 38.8969C6.82878 37.688 3.87457 34.9413 2.40105 31.3719C2.2866 31.0929 2.1793 30.814 2.08631 30.5207C1.01336 27.2947 0.469727 24.0186 0.469727 20.7926C0.469727 17.5665 0.977592 14.5122 1.98617 11.3863C3.32379 7.21609 6.63564 3.92569 10.8345 2.58807C13.9747 1.5938 17.1506 1.08594 20.2836 1.08594C23.4167 1.08594 26.8144 1.62957 30.0618 2.69537C34.0246 3.99722 37.172 7.13025 38.481 11.0716C39.5539 14.3047 40.0975 17.5737 40.0975 20.7997C40.0975 24.0257 39.5539 27.3018 38.481 30.5278C38.3808 30.8354 38.2592 31.143 38.1376 31.4363C36.6569 34.977 33.717 37.7023 30.0618 38.904C27.2722 39.8268 24.4324 40.3561 21.6213 40.4849L21.2135 40.4992C20.906 40.5063 20.5912 40.5206 20.2836 40.5206V40.5135Z" fill="#D43353"/>
<path d="M20.2836 39.448C19.9832 39.448 19.6827 39.4408 19.3823 39.4265L19.0103 39.4122C16.285 39.2906 13.5383 38.7756 10.8344 37.8886C7.45103 36.7727 4.74003 34.2549 3.38811 30.9716C3.28081 30.7141 3.18067 30.4566 3.09484 30.1919C2.05764 27.0732 1.52832 23.9116 1.52832 20.8C1.52832 17.6884 2.02188 14.7414 2.98754 11.7228C4.22501 7.87446 7.27936 4.84157 11.1492 3.61125C14.182 2.64559 17.2507 2.15918 20.2693 2.15918C23.2879 2.15918 26.5783 2.68135 29.7113 3.71139C33.3522 4.9131 36.2492 7.78862 37.4509 11.4081C38.4881 14.5268 39.0174 17.6884 39.0174 20.8C39.0174 23.9116 38.4881 27.0732 37.4509 30.1919C37.3579 30.478 37.2506 30.757 37.1361 31.0288C35.7771 34.2835 33.0732 36.787 29.7113 37.8886C27.0074 38.7756 24.2678 39.2906 21.5568 39.4122L21.1634 39.4265C20.863 39.4336 20.5625 39.448 20.2693 39.448H20.2836Z" fill="#F48C9F"/>
<path d="M36.4566 11.7439C35.355 8.43202 32.7298 5.82116 29.3965 4.72675C26.3636 3.72532 23.3164 3.22461 20.2836 3.22461C17.2507 3.22461 14.4181 3.69671 11.4853 4.6266C7.9231 5.75678 5.15488 8.5107 4.01755 12.0515C3.0805 14.9699 2.6084 17.8955 2.6084 20.7996C2.6084 23.8039 3.11626 26.8368 4.11769 29.8554C4.19637 30.0986 4.28936 30.3346 4.38235 30.5635C5.60552 33.5392 8.08762 35.8568 11.1777 36.8725C13.7957 37.738 16.4281 38.2244 19.0461 38.346C19.461 38.3603 19.8758 38.3746 20.2907 38.3746C20.7056 38.3746 21.1205 38.3532 21.5282 38.346C24.1462 38.2244 26.7714 37.738 29.3965 36.8725C32.4723 35.8639 34.9401 33.5606 36.1704 30.6136C36.2777 30.3632 36.3707 30.1129 36.4566 29.8554C37.458 26.8368 37.9659 23.811 37.9659 20.7996C37.9659 17.7882 37.458 14.7625 36.4566 11.7439Z" fill="url(#paint0_linear_527_5773)"/>
<path d="M12.2576 6.97301C12.2576 7.69547 10.9557 7.60963 9.06019 8.90433C6.1346 10.9 6.89998 12.5595 5.80556 12.2376C5.13318 12.0374 5.99154 9.73408 7.77265 8.28202C9.55375 6.82995 12.2576 6.27201 12.2576 6.97301Z" fill="white"/>
<path d="M5.27653 14.5628C5.65578 14.5628 5.96323 14.2554 5.96323 13.8761C5.96323 13.4969 5.65578 13.1895 5.27653 13.1895C4.89729 13.1895 4.58984 13.4969 4.58984 13.8761C4.58984 14.2554 4.89729 14.5628 5.27653 14.5628Z" fill="white"/>
<path opacity="0.07" d="M29.3886 4.72675C26.3557 3.72532 23.3085 3.22461 20.2756 3.22461C17.2427 3.22461 14.4101 3.69671 11.4774 4.6266C7.91515 5.75678 5.14692 8.5107 4.00959 12.0515C3.73778 12.9027 3.50888 13.7539 3.30859 14.6122C6.40586 11.9084 19.1883 2.07297 34.8892 8.72529C33.5373 6.87266 31.6203 5.45636 29.3886 4.72675Z" fill="white"/>
<path d="M4.38235 30.5627C5.60552 33.5384 8.08762 35.856 11.1777 36.8717C13.7957 37.7372 16.4281 38.2236 19.0461 38.3452C19.461 38.3595 19.8758 38.3738 20.2907 38.3738C20.7056 38.3738 21.1205 38.3524 21.5282 38.3452C24.1462 38.2236 26.7714 37.7372 29.3965 36.8717C32.4723 35.8631 34.9401 33.5598 36.1704 30.6128C36.2777 30.3624 36.3707 30.1121 36.4566 29.8546C37.4437 26.8861 37.9444 23.9104 37.9659 20.949C37.9158 22.394 37.0217 33.989 21.5282 35.6485C4.99751 37.4225 2.6084 20.7988 2.6084 20.7988C2.6084 23.8031 3.11626 26.836 4.11769 29.8546C4.19637 30.0978 4.28936 30.3338 4.38235 30.5627Z" fill="#D61D37"/>
<path opacity="0.63" d="M23.4087 18.9905L28.0009 14.3983C28.9523 13.4469 28.9523 11.909 28.0009 10.9577C27.0496 10.0063 25.5117 10.0063 24.5603 10.9577L19.9681 15.5499L15.3758 10.9577C14.4245 10.0063 12.8865 10.0063 11.9352 10.9577C10.9838 11.909 10.9838 13.4469 11.9352 14.3983L16.5274 18.9905L11.9352 23.5828C10.9838 24.5341 10.9838 26.072 11.9352 27.0234C12.8865 27.9747 14.4245 27.9747 15.3758 27.0234L19.9681 22.4311L24.5603 27.0234C25.5117 27.9747 27.0496 27.9747 28.0009 27.0234C28.9523 26.072 28.9523 24.5341 28.0009 23.5828L23.4087 18.9905Z" fill="#CBE9F4"/>
<path d="M23.4087 20.8421L28.0009 16.2498C28.9523 15.2985 28.9523 13.7606 28.0009 12.8092C27.0496 11.8579 25.5117 11.8579 24.5603 12.8092L19.9681 17.4015L15.3758 12.8092C14.4245 11.8579 12.8865 11.8579 11.9352 12.8092C10.9838 13.7606 10.9838 15.2985 11.9352 16.2498L16.5274 20.8421L11.9352 25.4343C10.9838 26.3857 10.9838 27.9236 11.9352 28.8749C12.8865 29.8263 14.4245 29.8263 15.3758 28.8749L19.9681 24.2827L24.5603 28.8749C25.5117 29.8263 27.0496 29.8263 28.0009 28.8749C28.9523 27.9236 28.9523 26.3857 28.0009 25.4343L23.4087 20.8421Z" fill="#B72A2A"/>
<path d="M23.4087 19.5843L28.0009 14.992C28.9523 14.0407 28.9523 12.5028 28.0009 11.5514C27.0496 10.6001 25.5117 10.6001 24.5603 11.5514L19.9681 16.1437L15.3758 11.5514C14.4245 10.6001 12.8865 10.6001 11.9352 11.5514C10.9838 12.5028 10.9838 14.0407 11.9352 14.992L16.5274 19.5843L11.9352 24.1765C10.9838 25.1279 10.9838 26.6658 11.9352 27.6171C12.8865 28.5685 14.4245 28.5685 15.3758 27.6171L19.9681 23.0249L24.5603 27.6171C25.5117 28.5685 27.0496 28.5685 28.0009 27.6171C28.9523 26.6658 28.9523 25.1279 28.0009 24.1765L23.4087 19.5843Z" fill="white"/>
<defs>
<linearGradient id="paint0_linear_527_5773" x1="19.2464" y1="-9.21452" x2="21.2921" y2="49.8409" gradientUnits="userSpaceOnUse">
<stop offset="0.5" stop-color="#EF6971"/>
<stop offset="0.87" stop-color="#E22D3F"/>
</linearGradient>
</defs>
</svg>
