<?xml version="1.0" encoding="UTF-8"?><svg id="Layer_2" xmlns="http://www.w3.org/2000/svg" width="389.32" height="445.23" xmlns:xlink="http://www.w3.org/1999/xlink" viewBox="0 0 389.32 445.23"><defs><linearGradient id="linear-gradient" x1="201.47" y1="-42.61" x2="199.46" y2="326.66" gradientUnits="userSpaceOnUse"><stop offset="0" stop-color="#726d6d"/><stop offset=".08" stop-color="#666161"/><stop offset=".27" stop-color="#4f4c4c"/><stop offset=".47" stop-color="#3f3d3d"/><stop offset=".69" stop-color="#353434"/><stop offset="1" stop-color="#333232"/></linearGradient><linearGradient id="linear-gradient-2" x1="274.84" y1="-42.21" x2="272.82" y2="327.06" xlink:href="#linear-gradient"/><linearGradient id="linear-gradient-3" x1="197.43" y1="-80.41" x2="198.67" y2="267.59" xlink:href="#linear-gradient"/><linearGradient id="linear-gradient-4" x1="124.39" y1="-43.03" x2="122.37" y2="326.24" xlink:href="#linear-gradient"/><linearGradient id="linear-gradient-5" x1="197.66" y1="-42.63" x2="195.65" y2="326.64" xlink:href="#linear-gradient"/><linearGradient id="linear-gradient-6" x1="141.24" y1="26.54" x2="143.99" y2="219.9" xlink:href="#linear-gradient"/><linearGradient id="linear-gradient-7" x1="178.42" y1="35.7" x2="178.68" y2="54.2" xlink:href="#linear-gradient"/><linearGradient id="linear-gradient-8" x1="178.02" y1="7.54" x2="182.01" y2="288.66" xlink:href="#linear-gradient"/><linearGradient id="linear-gradient-9" x1="247.25" y1="6.56" x2="251.24" y2="287.67" xlink:href="#linear-gradient"/><linearGradient id="linear-gradient-10" x1="300.7" y1="-84.75" x2="304.65" y2="273.43" xlink:href="#linear-gradient"/><linearGradient id="linear-gradient-11" x1="264.65" y1="-84.35" x2="268.6" y2="273.83" xlink:href="#linear-gradient"/><linearGradient id="linear-gradient-12" x1="222.59" y1="-57.21" x2="217.99" y2="283.1" gradientUnits="userSpaceOnUse"><stop offset="0" stop-color="#726d6d"/><stop offset=".37" stop-color="#555151"/><stop offset=".76" stop-color="#3c3a3a"/><stop offset="1" stop-color="#333232"/></linearGradient><linearGradient id="linear-gradient-13" x1="122.44" y1="198.81" x2="180.91" y2="199.89" gradientUnits="userSpaceOnUse"><stop offset="0" stop-color="#c50909"/><stop offset=".55" stop-color="#f81e2f"/><stop offset="1" stop-color="#c50909"/></linearGradient><linearGradient id="linear-gradient-14" x1="139.82" y1="-2.67" x2="144.16" y2="302.76" xlink:href="#linear-gradient"/><linearGradient id="linear-gradient-15" x1="4476.09" y1="-9.12" x2="4480.62" y2="310.8" gradientTransform="translate(4726.45) rotate(-180) scale(1 -1)" xlink:href="#linear-gradient"/><linearGradient id="linear-gradient-16" x1="295.67" y1="5.81" x2="299.65" y2="287" xlink:href="#linear-gradient"/><linearGradient id="linear-gradient-17" x1="296.79" y1="5.8" x2="300.78" y2="286.99" xlink:href="#linear-gradient"/><linearGradient id="linear-gradient-18" x1="296.2" y1="5.81" x2="300.19" y2="286.99" xlink:href="#linear-gradient"/><linearGradient id="linear-gradient-19" x1="297.33" y1="5.79" x2="301.32" y2="286.98" xlink:href="#linear-gradient"/><linearGradient id="linear-gradient-20" x1="6180.23" y1="199.19" x2="6238.01" y2="200.27" gradientTransform="translate(6448.58) rotate(-180) scale(1 -1)" xlink:href="#linear-gradient-13"/></defs><g id="_כל_הדמויות"><rect width="389.32" height="445.23" fill="#e5e5e5" opacity="0"/><path d="m348.25,322.36c-5.2-30.69-25.97-91.18-51.57-125.68-8.65-11.66-22.71-17.45-36.65-15.13-22.95,3.82-58.06,9.57-76.4,12.12-12.76-4.11-29.31-9.66-43.11-11.02-17.97-1.77-29.75,2.78-38.74,15.28-25.13,34.96-47.13,83.4-60.39,115.02-1.09,2.6.23,5.56,2.89,6.51,8.81,3.14,27.58,8.75,38.69,4.16,7.87-3.25,13.68-.53,17.41,2.75,6.2,5.46,13.37,8.83,20.85,9.05,6.69.2,27.24-1.27,30.7-6.66,7.69-11.97,13.05,3.24,17.4,1.35,20.84-9.06,33.63,20.07,41.42,7.81,3.7-5.82,6.97-9.51,9.86-11.72,5.32-.47,10.28.46,13.6,4.56,3.71,4.59,10.69,6.2,17.89,6.46,2.61.58,5.12.58,7.31-.21,8.14-.88,15.9-4.05,22.72-8.82,1.01-.71,2.17-1.41,3.44-2.05,4.62-2.32,10.89-3.71,18.49-.7,1.97.78,3.82,1.46,5.59,2.06,19.84,6.76,27.81,3,34.09.74,2.77-1,5-2.99,4.51-5.89Z" fill="#c50909"/><path d="m119.6,222.98c-9.8,8.61-34.66,86.25-39.56,101.77.95-.34,1.91-.71,2.91-1.12,7.87-3.25,13.68-.53,17.41,2.75.98.86,1.99,1.67,3.02,2.42,5.87-25.67,25.55-114.02,16.22-105.83Z" fill="#0a646b" opacity=".28"/><path d="m265.61,212.21l19.85,113.94s.07,0,.1,0c4.62-2.32,10.89-3.71,18.49-.7,1.97.78,3.82,1.46,5.59,2.06l-37.04-116.95-6.99,1.64Z" fill="#c50909"/><path d="m265.61,212.21l19.85,113.94s.07,0,.1,0c4.62-2.32,10.89-3.71,18.49-.7,1.97.78,3.82,1.46,5.59,2.06l-37.04-116.95-6.99,1.64Z" fill="#0a646b" opacity=".28"/><path d="m348.25,322.36s-.02-.09-.02-.13c-5.24-30.73-25.99-91.1-51.55-125.55-1.03-1.38-2.14-2.68-3.31-3.9-.11-.09-.2-.17-.27-.24l-6.47,2.23s39.79,37.92,56.26,127.4c.55,3,.11,4.87-3.78,7.7,1.34-.41,2.55-.86,3.69-1.28.31-.11.62-.23.92-.34,0,0,.01,0,.02,0,.52-.19,1.02-.41,1.49-.67.93-.51,1.74-1.16,2.29-1.95.28-.39.49-.82.63-1.27.09-.31.15-.63.17-.96.02-.33,0-.68-.06-1.05Z" fill="#0a646b" opacity=".28"/><path d="m109.22,197.85c-4.67,2.43-3.29-5.49-6.87-.72-.2.26-.39.53-.59.8-25.13,34.96-47.13,83.4-60.39,115.02-1.09,2.6.23,5.56,2.89,6.51,5.92,2.11,16.34,5.32,25.91,5.82-2.19-.67-5.2-1.27-9.16-1.77-34.01-4.24,22.46-88.17,48.21-125.67Z" fill="#0a646b" opacity=".28"/><path d="m198.68,159.79c-39.17,0-82.68,61.42-82.68,136.2,0,42.28,16.81,66.71,36.01,80.12,6.3,4.4,12.86,7.63,19.17,9.9,7.16,2.58,14.68,2.15,21.78-.6,2.01,1.28,4.5,2.05,7.22,2.05,2.86,0,5.48-.85,7.54-2.25,7.7,2.8,15.97,2.25,23.52-1.29,20.37-9.55,45.85-28.98,51.04-70.39.62-4.92.96-10.14.96-15.7,0-74.78-45.38-138.04-84.55-138.04Z" fill="url(#linear-gradient)"/><path d="m313.18,264.72c-.98-9.47-3.61-19.67-8.9-30.09-.83-1.62-1.73-3.25-2.69-4.88-3.15-5.37-6.59-10.89-9.45-15.2-1.38-2.09-2.73-4.07-4.04-5.94-7.5-10.71-13.83-17.89-18.64-22.61-1.44-1.31-2.7-2.46-3.7-3.44-.09.25-.05.94-.24.76-17.05-15.98-22.33-11.68-24.74-5.3-1.02,2.83-13.04,16.3-4.92,27.9,2.79,3.99,18.15,22.87,18.6,23.88.23.53.47,1.06.72,1.59.14.3.31.61.46.92.06-.09.12-.18.18-.27.93,1.98,1.97,3.97,3.13,6.01-.31-.44-.61-.87-.9-1.27.1.23.2.43.29.65,3.57,7.94,6.28,10.2,14.6,21.74,10.7,17.2,19.59,31.02,24.42,43.52.17.45.34.87.51,1.28.05.12.1.23.15.35.13.3.25.58.37.86.05.1.09.21.14.31.16.36.33.7.48,1.01.01.03.02.05.04.07.15.29.29.56.44.82.05.09.1.17.14.25.12.2.23.39.34.58.04.07.09.14.13.21.15.23.3.45.44.66.02.03.04.06.07.08.13.17.25.33.37.47.05.05.09.1.13.16.03.03.06.07.08.1.08.08.15.16.23.24.04.04.08.08.12.12.14.13.27.24.4.34.03.02.06.04.09.06.11.08.21.14.31.2.04.02.09.05.13.07.09.05.19.09.28.12.04.01.08.03.11.04.12.04.24.06.36.08.04,0,.07,0,.1,0,.09,0,.17,0,.26,0,.04,0,.09,0,.13-.01.08-.01.16-.03.24-.05.04-.01.08-.02.11-.03.11-.04.21-.08.32-.14.04-.02.08-.05.12-.07.35-.26.71-.59,1.06-.95,0,0,0-.01.01-.02.05-.06.1-.13.15-.2.05-.06.1-.13.14-.2.05-.07.1-.14.14-.21.08-.12.16-.24.23-.37.05-.08.09-.15.14-.23.05-.09.1-.18.15-.28.04-.07.07-.13.11-.2.05-.1.1-.2.15-.3.03-.06.06-.12.09-.18.12-.24.23-.48.34-.73,0-.01.01-.02.02-.04h0s-.01-.01-.02-.02c.66-1.46,1.21-3.12,1.72-4.77.04-.14.1-.31.17-.5.03-.08.05-.17.08-.25.24-.79.48-1.61.71-2.45,2.52-8.96,4.58-20.86,3.26-34.24Z" fill="url(#linear-gradient-2)"/><path d="m181.04,389.94c-3.64,0-7.2-.62-10.61-1.85-7.04-2.54-13.66-5.96-19.69-10.17-30.55-21.34-36.96-56.34-36.96-81.94,0-5.9.27-11.84.81-17.74-5.47,8.76-10.3,16.98-12.65,24.03-.69,2.07-1.36,3.79-2.04,5.26-1.16,2.5-3.05,5.83-6.04,5.83-.89,0-1.73-.3-2.51-.89-2.27-1.72-3.6-5.64-5.1-10.58l-.26-.85c-.25-.81-.5-1.66-.74-2.53-4.95-17.54-7.43-44.24,8.89-71.72,3.19-5.42,6.27-10.37,9.17-14.72,7.46-11.3,14.43-20.25,20.71-26.6-7.84-17.82-12.49-37.54-12.49-53.06v-.43c0-23.7,7.42-45.05,20.9-60.09,14.75-16.47,36.16-25.18,61.91-25.18h.41c.72-.01,1.48-.02,2.24-.02,25.44,0,47.07,8.78,62.55,25.39,14.39,15.44,22.31,36.74,22.31,59.98v.43c0,14.23-4.87,32.18-13.41,49.56.78.73,1.65,1.52,2.5,2.29,6.12,6,12.48,13.71,18.97,22.98,1.37,1.95,2.74,3.97,4.07,5.99,2.86,4.3,6.32,9.87,9.51,15.29.95,1.61,1.88,3.29,2.76,4.99,4.96,9.77,8.03,20.16,9.13,30.88,1.13,11.43,0,23.23-3.33,35.07-.24.85-.48,1.68-.73,2.49l-.1.33c-.06.16-.11.31-.14.43-.41,1.34-.96,3.06-1.66,4.67l-.1.3-.07.15c-.09.22-.22.49-.34.75l-.27.54-.3.55-.15.25c-.12.19-.21.34-.31.49l-.18.26-.17.24-.14.17-.06.09-.18.19c-.49.49-.91.86-1.3,1.16l-.09.07s-.25.15-.32.19c-.22.11-.43.2-.65.28l-.09.03-.16.04c-.15.04-.32.08-.5.1-.07,0-.17.02-.27.03-.11,0-.2,0-.28,0-.1,0-.2,0-.3-.01h-.12s-.08-.01-.08-.01c-.25-.03-.49-.08-.74-.16l-.09-.03-.15-.06c-.16-.06-.34-.14-.53-.23-.03-.02-.11-.06-.2-.1-.17-.1-.35-.21-.53-.34l-.13-.09c-.18-.13-.37-.3-.57-.49,0,0-.36-.36-.46-.46l-.3-.35c-.13-.16-.28-.35-.44-.56l-.08-.11c-.17-.23-.34-.49-.51-.76l-.14-.22c-.13-.21-.26-.43-.39-.65l-.16-.29c-.15-.28-.31-.57-.47-.89l-.06-.12c-.15-.3-.32-.66-.5-1.04l-.1-.23c-.17-.38-.3-.69-.44-1l-.15-.36c-.18-.44-.36-.88-.54-1.34-2.46-6.36-5.99-13.09-10.46-20.71.41,5.04.61,10.08.61,15.07,0,5.4-.33,10.78-.98,15.98-4.2,33.57-21.8,57.83-52.29,72.12-4.64,2.17-9.47,3.28-14.36,3.28-3.34,0-6.64-.52-9.82-1.56-2.32,1.33-5,2.03-7.82,2.03-2.64,0-5.19-.63-7.43-1.83-3.89,1.39-7.83,2.09-11.71,2.09Z"/><path d="m313.18,264.72c-.98-9.47-3.61-19.67-8.9-30.09-.83-1.62-1.73-3.25-2.69-4.88-3.15-5.37-6.59-10.89-9.45-15.2-1.38-2.09-2.73-4.07-4.04-5.94-7.5-10.71-13.83-17.89-18.64-22.61-1.44-1.31-2.7-2.46-3.7-3.44-.09.25-.05.94-.24.76-.04-.03-.07-.06-.11-.1,8.82-17.28,14.25-35.9,14.25-50.71v-.43c0-45.68-31.24-84.24-84.9-83.13h0c-53.5-.19-80.99,37.38-80.99,83.06v.43c0,15.6,4.75,35.43,12.89,53.49-.11.14-.21.27-.32.41-5.03,4.96-12.08,13.24-21.16,26.99-2.89,4.34-5.92,9.21-9.11,14.62-16.13,27.16-13.29,53.59-8.66,70,.24.85.48,1.67.72,2.47,1.08,3.51,2.54,8.77,4.58,10.31,1.43,1.08,3.14.33,5.2-4.11.62-1.33,1.27-2.98,1.95-5.03,3.08-9.23,10.19-20.26,17.44-31.77.08-.13.12-.25.21-.39,0,0,.16-.29.46-.84-1.27,8.86-1.96,18.03-1.96,27.41,0,42.28,16.81,66.71,36.01,80.12,6.3,4.4,12.86,7.63,19.17,9.9,7.16,2.58,14.68,2.15,21.78-.6,2.01,1.28,4.5,2.05,7.22,2.05,2.86,0,5.48-.85,7.54-2.25,7.7,2.8,15.97,2.25,23.52-1.29,20.37-9.55,45.85-28.98,51.04-70.39.62-4.92.96-10.14.96-15.7,0-8.44-.58-16.72-1.66-24.79,6.79,11.05,12.33,20.68,15.79,29.63.17.45.34.87.51,1.28.05.12.1.23.15.35.13.3.25.58.37.86.05.1.09.21.14.31.16.36.33.7.48,1.01.01.03.02.05.04.07.15.29.29.56.44.82.05.09.1.17.14.25.12.2.23.39.34.58.04.07.09.14.13.21.15.23.3.45.44.66.02.03.04.06.07.08.13.17.25.33.37.47.05.05.09.1.13.16.03.03.06.07.08.1.08.08.15.16.23.24.04.04.08.08.12.12.14.13.27.24.4.34.03.02.06.04.09.06.11.08.21.14.31.2.04.02.09.05.13.07.09.05.19.09.28.12.04.01.08.03.11.04.12.04.24.06.36.08.04,0,.07,0,.1,0,.09,0,.17,0,.26,0,.04,0,.09,0,.13-.01.08-.01.16-.03.24-.05.04-.01.08-.02.11-.03.11-.04.21-.08.32-.14.04-.02.08-.05.12-.07.35-.26.71-.59,1.06-.95,0,0,0-.01.01-.02.05-.06.1-.13.15-.2.05-.06.1-.13.14-.2.05-.07.1-.14.14-.21.08-.12.16-.24.23-.37.05-.08.09-.15.14-.23.05-.09.1-.18.15-.28.04-.07.07-.13.11-.2.05-.1.1-.2.15-.3.03-.06.06-.12.09-.18.12-.24.23-.48.34-.73,0-.01.01-.02.02-.04h0s-.01-.01-.02-.02c.66-1.46,1.21-3.12,1.72-4.77.04-.14.1-.31.17-.5.03-.08.05-.17.08-.25.24-.79.48-1.61.71-2.45,2.52-8.96,4.58-20.86,3.26-34.24Z" fill="url(#linear-gradient-3)"/><path d="m156.64,409.19c-1.45,0-2.63-.41-3.51-1.22-.79-.73-1.78-2.19-1.7-4.89.02-.64-.52-1.12-1.09-1.01-2.67.53-5.1.81-7.01.81-1.28,0-5.2,0-6.27-2.98-1.02-2.83,1.08-5.96,6.82-10.12,3.94-2.86,9.21-5.87,13.75-7.84,4.88-2.12,9.83-3.34,13.57-3.34.17,0,.34,0,.5,0,.4-.1.81-.16,1.23-.16,2.68,0,5.58,2.09,9.39,6.78,2.77,3.4,11.47,14.86,7.39,19.78-.93,1.13-2.41,1.7-4.4,1.7h0c-3.54,0-9.25-1.94-13.63-5.19-.37-.27-.85-.23-1.17.11-4.25,4.44-9.83,7.57-13.88,7.57Z"/><path d="m180.66,386.87c-4.44-5.45-6.94-6.42-8.69-5.79-3.38-.18-8.31.88-13.51,3.14-8.69,3.77-20.46,11.58-19.31,14.77.77,2.14,7.17,1.64,13.93-.06.7-.18,1.31.55,1.1,1.3-.76,2.69-.69,4.83.41,5.84,2.29,2.12,10.27-1.14,15.66-7.65.33-.4.89-.48,1.27-.13,5.24,4.71,14.55,7.48,16.56,5.06,2.1-2.53-2.83-10.86-7.41-16.48Z" fill="#e8953e"/><path d="m154.16,400.24c-.76,2.69-.69,4.83.41,5.84,2.29,2.12,10.27-1.14,15.66-7.65.33-.4.89-.48,1.27-.13,5.24,4.71,14.55,7.48,16.56,5.06,2.1-2.53-2.83-10.86-7.41-16.48-.7-.86-1.35-1.6-1.96-2.24.47,4.26.11,8.09-2.69,8.03-6.28-.14-5.76.86-9.16,3.31-3.4,2.45-10.99,2.73-10.99-1.58,0-1.71-1.35.87-2.99,4.6.07-.02.13-.03.2-.05.7-.18,1.31.55,1.1,1.3Z" fill="#d58238" opacity=".98"/><path d="m154.9,396.96l-.87,2.4c.15.24.22.56.13.88-.76,2.69-.69,4.83.41,5.84,2.26,2.09,10.02-1.05,15.4-7.36-19.32,14.82-15.07-1.76-15.07-1.76Z" fill="#b15b19"/><path d="m188.06,403.35c2.01-2.43-2.44-10.2-6.86-15.79,3.3,5.07,7.87,13.66,3.23,16.64,1.68.15,3-.1,3.63-.85Z" fill="#b15b19"/><path d="m168.17,381.32c-2.86.42-6.22,1.39-9.72,2.91-8.69,3.77-20.46,11.58-19.31,14.77.08.23.24.43.45.6,6.12-9.17,21.28-15.61,28.57-18.28Z" fill="#ffdfad"/><path d="m140.28,396.08c-.96,1.15-1.41,2.16-1.14,2.91.74,2.07,6.76,1.67,13.26.1l.06-1.09c-10.42,2.87-12.12.08-12.18-1.93Z" fill="#b15b19"/><path d="m156.14,392.05c-1.75,2.52-2.69,5.48-3.71,8.43" fill="none" stroke="#000" stroke-linecap="round" stroke-linejoin="round" stroke-width="3.16"/><path d="m243.92,409.19c1.45,0,2.63-.41,3.51-1.22.79-.73,1.78-2.19,1.7-4.89-.02-.64.52-1.12,1.09-1.01,2.67.53,5.1.81,7.01.81,1.28,0,5.2,0,6.27-2.98,1.02-2.83-1.08-5.96-6.82-10.12-3.94-2.86-9.21-5.87-13.75-7.84-4.88-2.12-9.83-3.34-13.57-3.34-.17,0-.34,0-.5,0-.4-.1-.81-.16-1.23-.16-2.68,0-5.58,2.09-9.39,6.78-2.77,3.4-11.47,14.86-7.39,19.78.93,1.13,2.41,1.7,4.4,1.7h0c3.54,0,9.25-1.94,13.63-5.19.37-.27.85-.23,1.17.11,4.25,4.44,9.83,7.57,13.88,7.57Z"/><path d="m219.9,386.87c4.44-5.45,6.94-6.42,8.69-5.79,3.38-.18,8.31.88,13.51,3.14,8.69,3.77,20.46,11.58,19.31,14.77-.77,2.14-7.17,1.64-13.93-.06-.7-.18-1.31.55-1.1,1.3.76,2.69.69,4.83-.41,5.84-2.29,2.12-10.27-1.14-15.66-7.65-.33-.4-.89-.48-1.27-.13-5.24,4.71-14.55,7.48-16.56,5.06-2.1-2.53,2.83-10.86,7.41-16.48Z" fill="#e8953e"/><path d="m246.39,400.24c.76,2.69.69,4.83-.41,5.84-2.29,2.12-10.27-1.14-15.66-7.65-.33-.4-.89-.48-1.27-.13-5.24,4.71-14.55,7.48-16.56,5.06-2.1-2.53,2.83-10.86,7.41-16.48.7-.86,1.35-1.6,1.96-2.24-.47,4.26-.11,8.09,2.69,8.03,6.28-.14,5.76.86,9.16,3.31,3.4,2.45,10.99,2.73,10.99-1.58,0-1.71,1.35.87,2.99,4.6-.07-.02-.13-.03-.2-.05-.7-.18-1.31.55-1.1,1.3Z" fill="#d58238" opacity=".98"/><path d="m245.65,396.96l.87,2.4c-.15.24-.22.56-.13.88.76,2.69.69,4.83-.41,5.84-2.26,2.09-10.02-1.05-15.4-7.36,19.32,14.82,15.07-1.76,15.07-1.76Z" fill="#b15b19"/><path d="m212.49,403.35c-2.01-2.43,2.44-10.2,6.86-15.79-3.3,5.07-7.87,13.66-3.23,16.64-1.68.15-3-.1-3.63-.85Z" fill="#b15b19"/><path d="m232.38,381.32c2.86.42,6.22,1.39,9.72,2.91,8.69,3.77,20.46,11.58,19.31,14.77-.08.23-.24.43-.45.6-6.12-9.17-21.28-15.61-28.57-18.28Z" fill="#ffdfad"/><path d="m260.27,396.08c.96,1.15,1.41,2.16,1.14,2.91-.74,2.07-6.76,1.67-13.26.1l-.06-1.09c10.42,2.87,12.12.08,12.18-1.93Z" fill="#b15b19"/><path d="m244.41,392.05c1.75,2.52,2.69,5.48,3.71,8.43" fill="none" stroke="#000" stroke-linecap="round" stroke-linejoin="round" stroke-width="3.16"/><path d="m105.17,213.31c-2.89,4.34-5.92,9.21-9.11,14.62-16.13,27.16-13.29,53.59-8.66,70,.24.85.48,1.67.72,2.47,1.08,3.51,2.54,8.77,4.58,10.31,1.43,1.08,3.14.33,5.2-4.11.62-1.33,1.27-2.98,1.95-5.03,3.08-9.23,10.19-20.26,17.44-31.77.08-.13.12-.25.21-.39,0,.07,28.11-51.87,40.61-67.17,5.44-6.66,5.14-17.58-.8-23.59-2.9-2.93-6.56-5.34-11.04-6.03-5.24-.8-11.83,3.1-19.94,13.69-5.03,4.96-12.08,13.24-21.16,26.99Z" fill="url(#linear-gradient-4)"/><path d="m126.3,186.14c-5.03,4.96-12.08,13.24-21.16,26.99-2.89,4.34-5.92,9.21-9.11,14.62-16.13,27.16-13.29,53.59-8.66,70,.24.85.48,1.67.72,2.47,1.08,3.51,2.54,8.77,4.58,10.31-18.07-62.23,33.63-124.39,33.63-124.39Z" fill="#d9d8da"/><path d="m179.85,236.99c-17.66,0-27.77-13.06-41.7-37.5-.66-1.15-8.59-2.73-9.22-3.91-10.63-19.99-17.38-44.36-17.38-63.14v-.43c0-23.7,7.42-45.05,20.9-60.09,14.75-16.47,36.16-25.18,61.91-25.18h.41c.72-.01,1.48-.02,2.24-.02,25.44,0,47.07,8.78,62.55,25.39,14.39,15.44,22.31,36.74,22.31,59.98v.43c0,19.63-9.19,45.72-23.26,66.92-.42.62-17.74,1.29-18.17,1.91-13.97,20.32-15.54,35.66-34.57,35.66h-26.02Z"/><path d="m205.86,234.78h-26.02c-37.39,0-66.08-64-66.08-102.35v-.43c0-45.68,27.49-83.25,80.99-83.06h0c53.66-1.11,84.9,37.45,84.9,83.13v.43c0,38.35-36.4,102.27-73.79,102.27Z" fill="url(#linear-gradient-5)"/><path d="m170.73,52.48c-37.75,9.43-57.09,41.99-57.09,80.28v.43c0,10.26,2.06,22.36,5.78,34.57-16.7-75.78,30.33-105.86,51.31-115.28Z" fill="url(#linear-gradient-6)"/><path d="m170.73,52.48c-37.75,9.43-57.09,41.99-57.09,80.28v.43c0,10.26,2.06,22.36,5.78,34.57-16.7-75.78,30.33-105.86,51.31-115.28Z" fill="#d9d8da"/><path d="m180.98,49.31c-.76.42-1.51.84-2.22,1.27.79-.32,1.54-.75,2.22-1.27Z" fill="none"/><path d="m178.76,50.58s-.09.04-.14.05c-.06.05-.11.09-.11.09.08-.05.16-.1.24-.14Z" fill="url(#linear-gradient-7)"/><path d="m178.76,50.58s-.09.04-.14.05c-.06.05-.11.09-.11.09.08-.05.16-.1.24-.14Z" fill="url(#linear-gradient-8)"/><path d="m201.13,49.29c-.4.14-.82.28-1.26.44.24,0,.46-.04.67-.15.18-.09.39-.19.58-.29Z" fill="none"/><path d="m279.53,132.83c0-38.77-22.52-72.39-62.14-81,72.7,33,51.14,117.23,44.08,139.16,11.04-19.12,18.06-40.9,18.06-57.73v-.43Z" fill="url(#linear-gradient-9)"/><path d="m279.53,132.83c0-38.77-22.52-72.39-62.14-81,74.03,26.94,66.37,99.32,44.08,139.16,11.04-19.12,18.06-40.9,18.06-57.73v-.43Z" fill="#d9d8da"/><path d="m169.74,201.9c3.23,1.57,6.6,2.93,10.12,4.01,0,0-4.09-1.56-10.12-4.01Z" fill="#424242" opacity=".17"/><path d="m265.08,249.29c-2.69-7.89-7.93-20.63-10.36-27.06-2.38-6.56-4.73-13.19-6.64-18.71-1.06-3.07-.42-6.62,1.63-8.84,6.54-7.07,13.21-16.4,16.1-27.14,8.38-31.2-9.16-76.18-30.91-80.46-20.41-4.01-31.44,48.95-35.37,92.46-2.32-.43-4.56-1.63-6.76-3.15-4.18-42.87-15.15-93.23-35.08-89.31-21.75,4.27-39.29,49.25-30.91,80.46,3.92,14.6,14.83,26.6,22.92,33.86,2.4,2.15,3.29,6,2.12,9.32-.02.05-.03.09-.05.14-4.55,12.1-11.69,31.39-14.54,38.74-12.04,31.06-10.98,60.01-4.52,79.14.11.33,12.51,35.84,41.1,44.48,5.54,1.67,15.11,2.83,26.11,2.73,11.16-.1,20.35-2.73,26.42-4.39,29.5-8.1,43.14-42.78,43.26-43.11,6.46-19.14,6.3-47.44-4.52-79.14Z" fill="#fff"/><path d="m137.47,230.19c.98-2.21-.93-4.69-2.81-3.63-13.32,7.55-42.17,62.44-38.96,83.63.74-.71,1.52-1.9,2.37-3.73.62-1.33,1.27-2.98,1.95-5.03,3.08-9.23,10.2-20.38,17.44-31.88.08-.13.19-.5.27-.64,0,.07.16-.05.16-.05-1.06,8.16-1.98,18.05-1.98,26.62,0,1.57.03,3.11.08,4.64.01.35.02.7.03,1.05.05,1.49.13,2.96.22,4.4.01.19.03.38.04.57.09,1.3.2,2.57.33,3.83.03.32.06.64.1.96.15,1.36.31,2.7.49,4.02.04.29.08.57.13.85.16,1.13.34,2.23.53,3.33.05.29.1.58.15.87.23,1.24.47,2.45.73,3.65.07.34.15.67.23,1.01.23,1.01.47,2,.72,2.98.06.25.12.51.19.75.29,1.11.61,2.2.93,3.28.11.38.23.75.35,1.12.29.92.58,1.82.89,2.71.13.37.26.73.39,1.1.3.82.6,1.64.91,2.44.16.4.32.81.48,1.21.35.87.71,1.72,1.09,2.57.19.42.38.83.57,1.24.27.58.54,1.16.82,1.72.21.43.42.86.64,1.29.39.77.79,1.53,1.2,2.27.25.45.51.9.76,1.34.23.41.47.82.71,1.22.42.7.84,1.39,1.27,2.07.26.41.52.81.78,1.21.32.49.65.97.99,1.45.18.26.36.52.55.78.65.91,1.31,1.8,1.98,2.67.1.13.2.26.3.39.4.51.8,1,1.21,1.5.09.11.18.21.26.32.81.96,1.63,1.9,2.46,2.8.04.05.08.09.12.14,1.38,1.5,2.8,2.91,4.25,4.25-34.31-63.56-14.27-121.23-6.32-139.25Z" fill="#211d1d" opacity=".8"/><path d="m204.62,142.49c0,30.56-18.41,55.33-41.11,55.33s-41.11-24.77-41.11-55.33,13.28-57.91,40.77-57.91c29.46,0,41.45,27.35,41.45,57.91Z" fill="#fff"/><path d="m268.5,142.94c0,30.56-18.41,55.33-41.11,55.33s-41.11-24.77-41.11-55.33,13.28-57.91,40.77-57.91c29.46,0,41.45,27.35,41.45,57.91Z" fill="#fff"/><path d="m268.56,224.98c-1.14-.67-2.23-.36-3.13.46-.93,1.02-1.54,1.92-.9,3.36,7.85,17.8,25.63,74.44-6.87,137.03,10.59-10.79,19.48-24.14,23.46-45.48.01-.07.03-.14.04-.21.03-.18.06-.37.1-.56.07-.42.14-.85.21-1.27.13-.78.26-1.57.38-2.37.02-.17.05-.33.07-.5.17-1.2.32-2.41.46-3.65.01-.12.03-.23.04-.35.47-4.43.48-9.11.72-14.04.51-10.65-.81-22.18-2.21-28.96-.11-1.09-.62-3.94-.72-4.48l2.13,10.31c6.78,11.04,9.12,15.05,13.08,23.74.12.26,2.72,7.06,4.93,10.75,1.48,2.47,2.88,2.36,2.89,2.36,2.92-20.57-20.85-78.05-34.68-86.17Z" fill="#211d1d" opacity=".8"/><circle cx="149.58" cy="151.69" r="18.96" fill="#fadafb" opacity=".63"/><circle cx="241.97" cy="150.64" r="18.96" fill="#fadafb" opacity=".63"/><path d="m164.66,133.45c0,8.44-4.96,11.33-10.66,11.33s-10-2.89-10-11.33,4.63-15.28,10.33-15.28,10.33,6.84,10.33,15.28Z" fill="#2b2b2b"/><path d="m164.05,133.34c0,7.94-4.66,10.66-10.04,10.66s-9.41-2.72-9.41-10.66,4.35-14.38,9.73-14.38,9.73,6.44,9.73,14.38Z" fill="#38332f"/><ellipse cx="155.68" cy="128.01" rx="3.35" ry="4.96" fill="#f1f1f1"/><path d="m147.06,134.73c.53.9,1.02,2.22,1.25,4.11.17,1.4-.86,2.45-1.59,1.59s-1.39-2.14-1.59-4.2c-.17-1.7,1.19-2.77,1.93-1.49Z" fill="#777"/><path d="m227.52,133.45c0,8.44,4.96,11.33,10.66,11.33s10-2.89,10-11.33-4.63-15.28-10.33-15.28-10.33,6.84-10.33,15.28Z" fill="#2b2b2b"/><path d="m228.13,133.34c0,7.94,4.66,10.66,10.04,10.66s9.41-2.72,9.41-10.66-4.35-14.38-9.73-14.38-9.73,6.44-9.73,14.38Z" fill="#38332f"/><ellipse cx="236.51" cy="128.01" rx="3.35" ry="4.96" fill="#f1f1f1"/><path d="m245.13,134.73c-.53.9-1.02,2.22-1.25,4.11-.17,1.4.86,2.45,1.59,1.59s1.39-2.14,1.59-4.2c.17-1.7-1.19-2.77-1.93-1.49Z" fill="#777"/><path d="m196.82,174.4c-.83,0-1.66-.22-2.38-.64-5.47-3.17-15-9-17.43-12.43-.67-.95-.93-2.25-.7-3.48.21-1.12.8-2.03,1.64-2.58,2.21-1.43,5.51-1.63,8.76-1.63,1.41,0,2.93.04,4.54.09,1.79.05,3.64.1,5.57.1s3.78-.05,5.57-.1c1.61-.05,3.13-.09,4.54-.09,3.24,0,6.55.2,8.75,1.63.84.55,1.43,1.46,1.64,2.58.24,1.23-.02,2.53-.7,3.48-2.43,3.44-11.96,9.27-17.43,12.43-.72.42-1.55.64-2.38.64Z" fill="#3b353f"/><path d="m178.62,160.18c-.7-.99-.49-2.67.4-3.25,3.08-1.99,9.88-1.12,17.79-1.12s14.71-.88,17.79,1.12c.9.58,1.11,2.26.4,3.25-2.33,3.29-12.97,9.64-16.81,11.86-.86.5-1.91.5-2.77,0-3.84-2.23-14.48-8.58-16.81-11.86Z" fill="#ecbdbd"/><path d="m178.62,160.18c2.33,3.29,12.97,9.64,16.81,11.86.86.5,1.91.5,2.77,0,3.84-2.23,14.48-8.58,16.81-11.86.52-.73.54-1.84.15-2.61-4.73,3.22-13.53,11.98-18.48,12.3-.03,0-.06.03-.1.03-3.63.33-18.01-12.7-18.01-12.7-.9.58-.64,1.99.06,2.98Z" fill="#b15b19"/><path d="m196.38,162.23c-9.57,0-17.77-2.74-21.81-4.38-1.23-.5-2.09-1.54-2.3-2.8-.21-1.23.24-2.46,1.19-3.31,1.29-1.14,3.21-1.47,5.44-1.86,1.84-.32,3.92-.68,5.52-1.52,1.09-.57,2.11-1.45,3.18-2.37,2.25-1.94,4.8-4.14,8.78-4.14,3.63,0,6.42,2.17,8.87,4.08,1.16.9,2.26,1.76,3.29,2.26,1.84.89,3.75,1.26,5.45,1.59,2.02.39,3.93.75,5.31,1.97.96.84,1.4,2.08,1.19,3.31-.21,1.26-1.08,2.3-2.3,2.8-4.04,1.64-12.24,4.38-21.81,4.38Z" fill="#3b353f"/><path d="m217.83,153.4c.83.73.58,1.97-.48,2.4-3.63,1.47-11.66,4.22-20.98,4.22s-17.35-2.75-20.98-4.22c-1.06-.43-1.3-1.67-.48-2.4,1.68-1.49,6.8-1.11,10.52-3.08s6.05-6.26,10.93-6.26c4.43,0,7.68,4.4,11.19,6.11,4.22,2.06,8.43,1.6,10.26,3.22Z" fill="#e8953e"/><path d="m189.81,149.74s5.24-7.13,10.19-2.04c0,0-6.99-1.02-10.19,2.04Z" fill="#ffdfad"/><path d="m167.05,331.85s7.76,6.88,24.87.55l-6.84,10.73s11.18,2.75,24.87-9.63c0,0-2.07,9.21-2.05,9.91,0,0,12.09.83,19.85-28.89" fill="none" stroke="#3b353f" stroke-linecap="round" stroke-linejoin="round" stroke-width="2.21"/><path d="m131,236.73c-12.59,21.06-15.5,38.89-15.5,38.89" fill="none" stroke="#000" stroke-linecap="round" stroke-linejoin="round" stroke-width="3.16"/><path d="m269.82,231.58c11.46,21.68,13.82,48.29,13.82,48.29" fill="none" stroke="#000" stroke-linecap="round" stroke-linejoin="round" stroke-width="2.21"/><path d="m304.53,310.85c.07-.04.14-.08.21-.13.05-.03.09-.07.14-.1.07-.05.13-.11.19-.17.04-.04.08-.07.12-.11.09-.09.19-.19.28-.29.04-.05.08-.1.12-.15-.36.36-.71.69-1.06.95Z" fill="url(#linear-gradient-10)"/><path d="m265.76,182.56c1.01.99,2.27,2.13,3.7,3.44-1.36-1.33-2.6-2.48-3.7-3.44Z" fill="url(#linear-gradient-11)"/><path d="m305.76,309.69c.05-.06.1-.13.14-.2.05-.07.1-.14.14-.21.08-.12.16-.24.23-.37.05-.08.09-.15.14-.23.05-.09.1-.18.15-.28.04-.07.07-.13.11-.2.05-.1.1-.2.15-.3.03-.06.06-.12.09-.18.12-.24.23-.48.34-.73,0-.01.01-.02.02-.04h0s-.01-.01-.02-.02c.66-1.46,1.21-3.12,1.72-4.77.04-.14.1-.31.17-.5.03-.08.05-.17.08-.25.24-.79.48-1.61.71-2.45,2.52-8.96,4.58-20.86,3.26-34.24-.98-9.47-3.61-19.67-8.9-30.09-.83-1.62-1.73-3.25-2.69-4.88-3.15-5.37-6.59-10.89-9.45-15.2-1.38-2.09-2.73-4.07-4.04-5.94-7.5-10.71-13.83-17.89-18.64-22.61-1.44-1.31-2.7-2.46-3.7-3.44,0,0,57.56,64.04,38.77,128.29.35-.26.71-.59,1.06-.95,0,0,0-.01.01-.02.05-.06.1-.13.15-.2Z" fill="#d9d8da"/><path d="m192.96,385.41c2.01,1.28,4.5,2.05,7.22,2.05,2.86,0,5.48-.85,7.54-2.25,7.7,2.8,15.97,2.25,23.52-1.29,20.37-9.55,45.85-28.98,51.04-70.39,0-.02,0-.05,0-.07,0-.25.03-.48.03-.73.14-5.5-.12-10.75-.83-15.79-.23-2.06-.49-4.11-.81-6.14l-.43-1.03s.11.07.3.21c0-.05-.02-.1-.02-.15,7.3,9.58-13.41-36.47-14.55-28.17-3.91,28.46-8.46,63.94-23.95,83.86-20.29,26.09-42.88,26.5-90,30.6,6.3,4.4,12.86,7.63,19.17,9.9,7.16,2.58,14.68,2.15,21.78-.6Zm87.01-96.3h0s0,0,0,0Z" fill="url(#linear-gradient-12)" opacity=".12"/><path d="m204.86,220.84s-2.08-4.29-4.19-6.49c1.54-.84,1.71-1.65,1.71-1.65-45.28-2.08-72.86-30.03-72.86-30.03-.47-.45-.6-.46-1.4-.64-.6-.13-2.68-.4-4.45.13-7.03,2.13-14.96,8.38-18.86,11.72-.47.4-2.73,3.63-2.73,3.63,47.69,15.43,72.95,18.25,86.01,18.61,5.9.16,11.65,1.83,16.76,4.74h0Z" fill="#c50909"/><path d="m127.82,184.29s32.32,28.35,71.07,30.15l-6.24.23s-27,1.77-81.24-20.04c0,0,9.29-10.78,16.4-10.34Z" fill="url(#linear-gradient-13)"/><path d="m113.64,132.76h0v.43c0,2.21.1,4.51.28,6.87.97,12.25,4.4,26.33,9.75,39.85,9.34,6.68,33.76,22.57,47.25,28.03-38.57-18.8-57.28-75.18-57.28-75.18Z" fill="url(#linear-gradient-14)" opacity=".09"/><path d="m279.53,132.76h0v.43c0,2.21-.1,4.51-.28,6.87-.97,12.25-4.4,26.33-9.75,39.85-9.34,6.68-39.98,26.09-53.47,31.55,38.57-18.8,63.5-78.7,63.5-78.7Z" fill="url(#linear-gradient-15)" opacity=".09"/><path d="m297.33,128.25c.05-.12.1-.23.15-.35-.05.12-.1.23-.15.35Z" fill="url(#linear-gradient-16)"/><path d="m298.47,125.72s.02-.05.04-.07c-.01.02-.02.05-.04.07Z" fill="url(#linear-gradient-17)"/><path d="m297.85,127.04c.05-.1.09-.21.14-.31-.05.1-.09.21-.14.31Z" fill="url(#linear-gradient-18)"/><path d="m298.95,124.82c.05-.09.1-.17.14-.25-.05.08-.1.17-.14.25Z" fill="url(#linear-gradient-19)"/><path d="m292.64,191.81s-14.79-14.34-25.31-14.05c-.81.02-.92.19-1.39.64,0,0-31.42,30.31-70.9,35.04,0,0,.52.69,2.25,1.38l-4.57,6.4.57-.33c5.02-2.88,10.66-4.46,16.44-4.73,13.21-.61,37.69-5.69,82.91-24.35Z" fill="#c50909"/><path d="m263.03,184.67s-31.94,28.35-70.23,30.15l6.16.23s26.68,1.77,80.27-20.04c0,0-9.18-10.78-16.21-10.34Z" fill="url(#linear-gradient-20)"/></g></svg>