<svg width="118" height="30" viewBox="0 0 118 30" fill="none" xmlns="http://www.w3.org/2000/svg">
<g clip-path="url(#clip0_527_5826)">
<path d="M85.3041 29.1406C84.2377 29.1406 78.9376 29.1276 73.0015 29.108H72.661C65.5236 29.0885 56.6452 29.0624 54.5123 29.0624C49.2251 29.0624 20.5854 28.8016 13.1845 28.0975C9.20787 27.7193 6.42613 26.624 4.42817 24.6485C2.65505 22.8882 1.48582 20.515 0.856236 17.392L0.81769 17.2029L0.804841 17.1181C0.528595 15.0253 0.528595 13.8843 0.804841 11.811C1.84558 5.49337 6.35547 1.49674 13.1653 0.812163C19.8145 0.140625 26.4508 0.140625 32.8687 0.140625C34.7639 0.140625 41.3167 0.160184 47.6511 0.179744H48.7432C55.1354 0.199303 61.7461 0.218862 63.6605 0.218862C66.6222 0.218862 72.9694 0.310139 78.0703 0.388377H78.2117C81.5523 0.440535 84.4368 0.479654 85.3041 0.479654C91.8569 0.479654 98.6282 0.479654 105.02 1.15119C111.83 1.86837 116.334 5.84544 117.374 12.0718C117.664 14.2364 117.664 15.3317 117.387 17.4311L117.374 17.5289C116.957 19.6869 116.302 21.4668 115.364 22.9664C115.216 23.1946 115.068 23.4163 114.92 23.6249C112.961 26.3436 109.729 27.9149 105.033 28.4365C98.6924 29.1406 91.8891 29.1406 85.3106 29.1406H85.3041Z" fill="#03072D"/>
<path d="M85.304 28.0847C84.2182 28.0847 78.7383 28.0716 72.6609 28.0521C65.138 28.0325 56.6065 28.0064 54.5057 28.0064C49.2249 28.0064 20.6237 27.7456 13.2486 27.048C9.45183 26.6894 6.81785 25.6658 4.96122 23.8142C3.29732 22.1647 2.19876 19.9219 1.60129 16.9554L1.56917 16.7859V16.7272C1.29292 14.7126 1.29292 13.6173 1.55632 11.6222C2.54567 5.71529 6.805 1.95989 13.2422 1.31443C19.8593 0.649414 26.4699 0.649414 32.8685 0.649414C34.8215 0.649414 41.6313 0.668973 48.2227 0.688533C54.8462 0.708092 61.6945 0.727651 63.6668 0.727651C66.6413 0.727651 73.0271 0.825448 78.1601 0.897166C81.52 0.949324 84.4238 0.988443 85.304 0.988443C91.8311 0.988443 98.5895 0.988443 104.937 1.65346C111.374 2.33152 115.633 6.07387 116.61 11.9286C116.88 13.9889 116.886 15.0321 116.61 17.0532V17.1053C116.205 19.1721 115.582 20.8607 114.695 22.2755C114.56 22.4907 114.419 22.6993 114.284 22.8884C112.46 25.4181 109.402 26.8915 104.937 27.3871C98.6409 28.0847 91.8568 28.0847 85.2975 28.0847H85.304Z" fill="#6D7EB1"/>
<path d="M115.852 12.0586C114.933 6.57544 110.925 3.06779 104.854 2.42885C98.5449 1.76383 91.8122 1.76383 85.2979 1.76383C83.0944 1.76383 68.6075 1.50304 63.6608 1.50304C59.7291 1.50304 36.7685 1.4248 32.8625 1.4248C26.4832 1.4248 19.8854 1.4248 13.3133 2.08982C7.24227 2.70268 3.2399 6.21033 2.3148 11.7391C2.05783 13.6755 2.05783 14.673 2.3148 16.6094V16.642C2.32765 16.7007 2.3405 16.7528 2.35335 16.805C2.91869 19.6085 3.94658 21.7209 5.49485 23.2596C7.22299 24.9743 9.70921 25.9327 13.3197 26.2717C20.637 26.9628 49.5529 27.2301 54.5061 27.2301C58.29 27.2301 82.8631 27.3083 85.3044 27.3083C91.8443 27.3083 98.6092 27.3083 104.86 26.6173C109.1 26.1478 111.978 24.7787 113.668 22.4381C113.803 22.2555 113.931 22.0664 114.053 21.8643C114.882 20.5343 115.473 18.9304 115.852 16.9875V16.9549C116.115 15.0186 116.115 14.021 115.852 12.0651V12.0586Z" fill="url(#paint0_linear_527_5826)"/>
<path opacity="0.37" d="M13.3194 26.2658C20.6367 26.9569 49.5527 27.2242 54.5058 27.2242C58.2898 27.2242 82.8628 27.3025 85.3041 27.3025C91.8441 27.3025 98.6089 27.3025 104.86 26.6114C109.1 26.142 111.978 24.7728 113.668 22.4322C113.668 22.4322 113.668 22.4257 113.674 22.4192C98.0885 25.5943 86.4797 24.9945 70.7337 25.0075C31.995 25.0532 11.7904 24.4729 2.51367 17.5098C3.10471 19.9612 4.08121 21.8519 5.49456 23.2537C7.22271 24.9684 9.70893 25.9268 13.3194 26.2658Z" fill="#0B1A42"/>
<path opacity="0.07" d="M112.235 5.38872C110.365 3.77181 107.866 2.74821 104.853 2.43526C100.022 1.92672 94.9466 1.80936 89.9099 1.78328C88.3681 1.77676 86.8263 1.77676 85.2973 1.77676C85.2073 1.77676 85.0917 1.77676 84.9696 1.77676C84.9375 1.77676 84.9118 1.77676 84.8797 1.77676C84.7576 1.77676 84.6291 1.77676 84.4814 1.77676C84.4557 1.77676 84.4364 1.77676 84.4171 1.77676C84.2565 1.77676 84.0766 1.77676 83.8839 1.77676C83.8132 1.77676 83.7361 1.77676 83.6591 1.77676C83.492 1.77676 83.3186 1.77676 83.1323 1.77024C83.113 1.77024 83.0937 1.77024 83.068 1.77024C82.5862 1.77024 82.053 1.7572 81.4748 1.75068C81.372 1.75068 81.2756 1.75068 81.1728 1.75068C81.0315 1.75068 80.8837 1.75068 80.7424 1.75068C80.4276 1.75068 80.1064 1.74416 79.7788 1.73764C79.6438 1.73764 79.5025 1.73764 79.3612 1.73764C79.3419 1.73764 79.3226 1.73764 79.3034 1.73764C78.1213 1.73764 76.9392 1.73764 75.7635 1.73764C74.8641 1.73764 72.5193 1.67896 69.4805 1.60073C69.2043 1.60073 68.9281 1.59421 68.6582 1.58769C68.6068 1.58769 68.5554 1.58769 68.5105 1.58769C68.292 1.58769 68.08 1.58769 67.868 1.58117C67.7909 1.58117 67.7139 1.58117 67.6368 1.58117C67.4569 1.58117 67.2834 1.58117 67.1164 1.58117C67.0136 1.58117 66.9108 1.58117 66.808 1.58117C66.6731 1.58117 66.5446 1.58117 66.4161 1.58117C66.3005 1.58117 66.1849 1.58117 66.0692 1.58117C65.9343 1.58117 65.7994 1.58117 65.6709 1.58117C65.581 1.58117 65.4975 1.58117 65.4075 1.58117C65.2726 1.58117 65.1441 1.58117 65.0156 1.58117C64.9321 1.58117 64.8486 1.58117 64.7651 1.58117C64.6302 1.58117 64.5081 1.58117 64.3796 1.58117C64.3154 1.58117 64.2447 1.58117 64.1869 1.58117C64.007 1.58117 63.8271 1.58117 63.6665 1.58117C59.7348 1.58117 36.7743 1.50293 32.8683 1.50293C31.8532 1.50293 30.8317 1.50293 29.8038 1.50293C29.5404 1.50293 29.2835 1.50293 29.0201 1.50293C27.9151 1.50293 26.8101 1.51597 25.6987 1.52901C24.3175 1.56813 22.9362 1.60073 21.555 1.62681C20.9575 1.64636 20.3601 1.67244 19.7626 1.69852C19.5763 1.70504 19.39 1.71808 19.1973 1.7246C18.709 1.75068 18.2143 1.77676 17.7261 1.80284C17.3663 1.8224 17.0001 1.84848 16.6404 1.87456C16.2806 1.90064 15.9209 1.9202 15.5611 1.95279C14.8094 2.01147 14.0578 2.07667 13.3126 2.15491C12.9464 2.19403 12.5931 2.23967 12.2461 2.29834C12.1241 2.3179 12.0084 2.34398 11.8864 2.37006C11.6615 2.40918 11.4431 2.45482 11.2247 2.50046C11.0769 2.53306 10.942 2.57217 10.8007 2.61129C10.6208 2.65693 10.4345 2.70909 10.261 2.76125C10.1068 2.80689 9.95907 2.85904 9.81131 2.9112C9.65713 2.96336 9.49652 3.02204 9.34876 3.08072C9.18815 3.1394 9.04039 3.20459 8.88621 3.27631C8.7513 3.33499 8.62281 3.39367 8.4879 3.45235C8.32729 3.53058 8.17311 3.60882 8.01892 3.68706C7.90329 3.74574 7.79407 3.81093 7.68486 3.86961C7.52425 3.96089 7.36364 4.05868 7.20303 4.15648C7.11309 4.21516 7.02958 4.27384 6.93964 4.33252C6.7726 4.44335 6.60557 4.56071 6.45139 4.68458C6.38714 4.73022 6.32932 4.78238 6.26508 4.83454C6.09162 4.97797 5.91817 5.11489 5.75113 5.26485C5.72544 5.2844 5.70616 5.31048 5.68047 5.33004C4.24141 6.6666 3.2071 8.37478 2.62891 10.4155C8.99542 4.50855 39.9607 0.524962 112.235 5.38872Z" fill="white"/>
<path d="M13.1657 4.26738C13.0565 4.67813 12.2663 4.4369 10.8979 4.89328C8.79075 5.5909 9.00276 6.65362 8.3796 6.30807C8.00056 6.09292 8.88069 4.91284 10.2041 4.35214C11.5275 3.79144 13.2685 3.86967 13.1657 4.2739V4.26738Z" fill="white"/>
<path d="M8.23696 7.16994C8.24249 6.94676 8.05144 6.76085 7.81025 6.7547C7.56906 6.74855 7.36905 6.92448 7.36353 7.14766C7.358 7.37084 7.54904 7.55675 7.79023 7.5629C8.03142 7.56905 8.23143 7.39312 8.23696 7.16994Z" fill="white"/>
<path d="M14.9319 19.7194C14.495 19.7194 14.1802 19.6086 13.9746 19.3804C13.7819 19.1653 13.6855 18.8654 13.6855 18.4676C13.6855 18.259 13.7112 18.0699 13.7691 17.9069C13.8462 17.6722 14.0003 17.4832 14.2059 17.3593C14.3922 17.2484 14.6235 17.1963 14.919 17.1963C15.3687 17.1963 15.6899 17.3136 15.8891 17.5484C16.0754 17.757 16.1653 18.0569 16.1653 18.4481C16.1653 18.6632 16.1396 18.8458 16.0818 19.0088C16.0047 19.2305 15.8634 19.413 15.6642 19.5434C15.4715 19.6673 15.2338 19.726 14.9383 19.726L14.9319 19.7194Z" fill="#03072D"/>
<path d="M14.932 17.0724C14.6686 17.0724 14.4695 17.0333 14.3089 16.9616C14.0904 16.8573 13.9298 16.6682 13.8592 16.44C13.8142 16.3031 13.7949 16.1401 13.7949 15.9576V10.3766C13.7949 10.2071 13.8142 10.0441 13.8592 9.90721C13.9298 9.69205 14.0712 9.51602 14.2703 9.39214C14.4438 9.29435 14.6558 9.24219 14.9192 9.24219C15.1826 9.24219 15.3946 9.28131 15.5616 9.37258C15.7736 9.48994 15.9214 9.66597 15.992 9.88765C16.037 10.0311 16.0563 10.1876 16.0563 10.3701V15.938C16.0563 16.1075 16.037 16.264 15.992 16.4074C15.9278 16.6356 15.78 16.8182 15.5745 16.9355C15.4074 17.0268 15.2019 17.0724 14.9256 17.0724H14.932Z" fill="#03072D"/>
<path d="M21.1763 19.7129C21.0735 19.7129 20.9643 19.6998 20.8422 19.6672C20.4567 19.5368 20.2255 19.3804 20.0713 19.1782C19.9556 19.0283 19.7886 18.6958 19.9621 18.2264C20.0777 17.9264 20.2062 17.5744 20.3539 17.1636L20.8358 15.8271C21.0092 15.3511 21.1763 14.8687 21.3497 14.3797C21.5168 13.8972 21.6774 13.4278 21.8251 12.991H17.8742C17.6943 12.991 17.5272 12.9584 17.3666 12.8997C17.1611 12.8215 16.9876 12.6715 16.872 12.4759C16.7692 12.2999 16.7178 12.0847 16.7178 11.8174C16.7178 11.5305 16.7756 11.3089 16.8912 11.1328C17.0133 10.9503 17.1867 10.8199 17.3923 10.7482C17.5401 10.696 17.7007 10.6699 17.8613 10.6699H22.6924C23.1228 10.6699 23.4826 10.7742 23.7653 10.9764C24.0608 11.1915 24.2535 11.4914 24.3306 11.85C24.3692 12.026 24.3756 12.2086 24.3499 12.4042L24.3692 12.4172L24.2664 12.8084C24.17 13.154 24.0479 13.5451 23.9066 13.9885C23.7653 14.4253 23.6175 14.8752 23.4569 15.3446C23.2963 15.814 23.1421 16.2704 22.9879 16.7203C22.8337 17.1701 22.6924 17.5809 22.5575 17.9525C22.4226 18.3241 22.3134 18.6306 22.2234 18.8653C22.1528 19.0348 22.0757 19.1717 21.9793 19.2956C21.8508 19.4586 21.6966 19.5759 21.5168 19.6477C21.414 19.6868 21.3047 19.7063 21.1891 19.7063L21.1763 19.7129Z" fill="#03072D"/>
<path d="M18.0544 21.728C17.7845 21.728 17.5661 21.6694 17.3927 21.552C17.2128 21.4281 17.0843 21.2586 17.0136 21.0565C16.9622 20.9065 16.9365 20.7435 16.9365 20.5675V14.8105C16.9365 14.641 16.9622 14.4846 17.0136 14.3346C17.0907 14.1194 17.232 13.9434 17.4248 13.8326C17.5982 13.7348 17.8038 13.6826 18.0608 13.6826C18.337 13.6826 18.5555 13.7348 18.7289 13.8456C18.9216 13.9695 19.0566 14.1455 19.1208 14.3542C19.1658 14.4911 19.185 14.6541 19.185 14.8236V20.5805C19.185 20.7631 19.1593 20.9261 19.1079 21.0761C19.0309 21.2782 18.8959 21.4412 18.7161 21.5585C18.5426 21.6694 18.3242 21.728 18.0479 21.728H18.0544Z" fill="#03072D"/>
<path d="M31.539 19.7063C31.2884 19.7063 31.0893 19.6607 30.9222 19.5759C30.7167 19.4651 30.5689 19.2956 30.4918 19.0804C30.4404 18.937 30.4147 18.7805 30.4147 18.6306V15.3511C30.4147 14.9273 30.3698 14.5492 30.2798 14.2362C30.1963 13.9429 30.0742 13.7016 29.9265 13.5191C29.7787 13.343 29.6053 13.2192 29.3868 13.1279C29.1491 13.0301 28.86 12.9844 28.526 12.9844H27.0419V18.5393C27.0419 18.7153 27.0163 18.8783 26.9649 19.0283C26.8942 19.2434 26.7593 19.4195 26.5665 19.5433C26.3931 19.6542 26.1747 19.7063 25.8984 19.7063C25.6222 19.7063 25.4166 19.6542 25.2431 19.5368C25.0568 19.4195 24.9219 19.25 24.8448 19.0413C24.787 18.8849 24.7549 18.7153 24.7549 18.5458V11.8239C24.7549 11.6479 24.787 11.4784 24.8448 11.3219C24.9219 11.1263 25.0568 10.9568 25.2367 10.846C25.4102 10.7351 25.6222 10.683 25.892 10.683L28.4746 10.6699C29.1363 10.6699 29.7337 10.7677 30.2477 10.9568C30.7873 11.1589 31.2435 11.4653 31.6097 11.8761C31.963 12.2803 32.2328 12.7823 32.4127 13.3626C32.5797 13.9233 32.6697 14.5818 32.6697 15.3185V18.5328C32.6697 18.7023 32.6504 18.8588 32.6118 19.0022C32.5476 19.2239 32.4127 19.413 32.2135 19.5368C32.0401 19.6477 31.8217 19.6998 31.5454 19.6998L31.539 19.7063Z" fill="#03072D"/>
<path d="M37.713 19.765C37.0063 19.765 36.3703 19.6411 35.8114 19.3999C35.2461 19.1522 34.7642 18.8066 34.3724 18.3698C33.9869 17.9395 33.6914 17.4244 33.4922 16.8442C33.2995 16.2769 33.2031 15.6576 33.2031 14.9925V11.8304C33.2031 11.6609 33.2288 11.4979 33.2802 11.348C33.3509 11.1328 33.4922 10.9503 33.6914 10.8329C33.8648 10.7286 34.0833 10.6764 34.3402 10.6764C34.5972 10.6764 34.8221 10.7286 34.9955 10.8394C35.1754 10.9568 35.3167 11.1263 35.3938 11.3284C35.4516 11.4914 35.4838 11.6609 35.4838 11.8435V14.9925C35.4838 15.4033 35.5416 15.7749 35.6508 16.1009C35.6572 16.0944 35.6701 16.0879 35.6765 16.0813C35.8307 15.9509 35.972 15.7619 36.1069 15.5141C36.2483 15.2533 36.3639 14.9534 36.4474 14.6079C36.5309 14.2623 36.5823 13.8972 36.5888 13.5191L36.6401 11.7587C36.653 11.5697 36.6915 11.4262 36.7494 11.2893C36.8329 11.0937 36.9742 10.9307 37.1605 10.8264C37.3275 10.7286 37.5396 10.6764 37.7965 10.6764C38.0535 10.6764 38.2848 10.7286 38.4582 10.8329C38.6638 10.9568 38.8051 11.1328 38.8694 11.348C38.9208 11.5045 38.9336 11.6674 38.9208 11.85L38.8437 13.5321C38.8051 14.145 38.7152 14.7252 38.5674 15.2468C38.4133 15.7945 38.2013 16.2769 37.9314 16.7007C37.7451 16.9876 37.5331 17.2419 37.3019 17.444C37.4432 17.4635 37.5909 17.4766 37.7451 17.4766C38.2655 17.4766 38.7024 17.3723 39.03 17.1701C39.3641 16.968 39.6082 16.6942 39.7752 16.3291C39.9551 15.9444 40.045 15.4946 40.045 14.9795V11.7522C40.045 11.5827 40.0772 11.4262 40.1478 11.2697C40.2313 11.0807 40.3663 10.9307 40.5526 10.8199C40.7196 10.7221 40.9316 10.6699 41.1886 10.6699C41.4455 10.6699 41.6832 10.7286 41.8567 10.8525C42.0366 10.9764 42.1651 11.1524 42.2357 11.348C42.2871 11.4979 42.3128 11.6609 42.3128 11.837V15.0121C42.3128 15.6706 42.2165 16.29 42.0173 16.8572C41.8182 17.4375 41.5098 17.9525 41.1051 18.3828C40.7003 18.8197 40.2056 19.1587 39.6339 19.3999C39.0685 19.6346 38.4197 19.7585 37.7002 19.7585L37.713 19.765Z" fill="#03072D"/>
<path d="M46.6872 19.7068C46.5137 19.7068 46.3531 19.6742 46.1989 19.6155C45.9998 19.5373 45.8327 19.4003 45.7171 19.2178C45.6079 19.0352 45.5501 18.8201 45.5501 18.5528C45.5501 18.2855 45.6015 18.0507 45.7107 17.8747C45.8327 17.6791 46.0062 17.5422 46.2182 17.4705C46.366 17.4183 46.533 17.3922 46.7 17.3922H48.7558V14.8821C48.7558 14.3736 48.698 13.9628 48.5759 13.6499C48.4731 13.3826 48.3382 13.2 48.1584 13.0827C47.9721 12.9653 47.7279 12.9001 47.4388 12.9001C47.2397 12.9001 47.0662 12.9392 46.9056 13.0305C46.7322 13.1218 46.5908 13.2522 46.4623 13.4217C46.3146 13.6108 46.1861 13.8455 46.0769 14.1193C45.9612 14.4062 45.8584 14.7322 45.7813 15.0842L45.0747 18.618C45.0554 18.7484 45.0169 18.8918 44.9719 19.0157C44.9012 19.2243 44.7663 19.3938 44.5864 19.5177C44.413 19.6416 44.1881 19.7003 43.9311 19.7003C43.5457 19.7003 43.2502 19.5894 43.051 19.3743C42.8968 19.2113 42.7298 18.9179 42.8133 18.4419L43.5585 14.6865L42.8904 12.1503C42.8454 11.9808 42.8197 11.8244 42.8197 11.6744C42.8197 11.4397 42.9032 11.2245 43.0574 11.042C43.1988 10.879 43.3979 10.7681 43.6742 10.6964C43.8348 10.6573 43.9633 10.6443 44.0789 10.6443C44.2331 10.6443 44.368 10.6703 44.4901 10.729C44.7213 10.8333 44.8884 11.0159 44.9719 11.2441C45.0169 11.3614 45.049 11.4723 45.0747 11.5766L45.1389 11.8309C45.2867 11.6288 45.4601 11.4527 45.6464 11.2897C45.9034 11.0681 46.2054 10.8985 46.533 10.7812C46.8606 10.6638 47.2397 10.5986 47.6637 10.5986C48.3639 10.5986 48.9742 10.7681 49.4818 11.0941C49.9957 11.4266 50.3876 11.9287 50.651 12.5872C50.8951 13.2 51.0236 13.9563 51.0236 14.8365V18.5462C51.0236 18.7744 51.0043 18.9505 50.9594 19.0939C50.8823 19.3417 50.7088 19.5242 50.4775 19.6155C50.3298 19.6742 50.1499 19.7003 49.9122 19.7003H46.7065L46.6872 19.7068Z" fill="#03072D"/>
<path d="M54.3327 19.7524C54.1593 19.7524 53.9794 19.7002 53.7931 19.5959C53.4976 19.4459 53.2856 19.2504 53.1699 19.0156C53.08 18.8396 52.9772 18.4745 53.2727 18.0312C53.671 17.4118 54.0308 16.825 54.3456 16.2838C54.6604 15.7427 54.943 15.2276 55.1872 14.7452C55.4313 14.2692 55.6433 13.7868 55.836 13.3108C55.8746 13.2065 55.9195 13.1022 55.9581 12.9848H52.9386C52.5789 12.9848 52.2898 12.887 52.0842 12.6914C51.8722 12.4959 51.7501 12.209 51.7244 11.8439L51.6152 9.73799C51.6152 9.52935 51.6409 9.35984 51.6923 9.2164C51.7437 9.06645 51.8722 8.8513 52.1485 8.71438C52.3219 8.6231 52.5339 8.58398 52.7909 8.58398C53.0736 8.58398 53.292 8.64918 53.459 8.77306C53.6196 8.89693 53.7353 9.06645 53.7995 9.26204C53.8509 9.412 53.8766 9.58151 53.8766 9.76407L53.928 10.6703H56.7611C57.1594 10.6703 57.4935 10.7681 57.7569 10.9637C58.0267 11.1658 58.213 11.4657 58.2901 11.8243C58.3287 12.0134 58.3351 12.222 58.3094 12.4437L58.3415 12.4698L58.2451 12.8479C58.0331 13.539 57.789 14.2106 57.5063 14.843C57.2301 15.4754 56.9089 16.1339 56.5556 16.8054C56.2022 17.477 55.7846 18.2398 55.3028 19.0743C55.2386 19.2112 55.1358 19.3547 55.0137 19.4655C54.8595 19.6089 54.6861 19.7002 54.4933 19.7393L54.4419 19.7524H54.3327Z" fill="#03072D"/>
<path d="M68.5365 19.707C68.2859 19.707 68.0868 19.6613 67.9197 19.5766C67.727 19.4723 67.5792 19.3093 67.4893 19.1072C67.4251 18.9572 67.3929 18.7942 67.3929 18.6312V15.3518C67.3929 14.778 67.3158 14.3086 67.1681 13.95C67.0332 13.6305 66.8404 13.3958 66.577 13.2393C66.3072 13.0764 65.941 12.9916 65.4978 12.9916H63.018C62.8381 12.9916 62.6775 12.9655 62.5297 12.9134C62.3241 12.8416 62.1507 12.6917 62.035 12.4961C61.9323 12.3201 61.8809 12.1049 61.8809 11.8376C61.8809 11.5507 61.9387 11.3291 62.0543 11.153C62.17 10.9835 62.3241 10.8466 62.5169 10.7749C62.6711 10.7162 62.8381 10.6836 63.0115 10.6836H65.4656C66.365 10.6836 67.136 10.8661 67.7591 11.2182C68.4016 11.5833 68.8898 12.131 69.211 12.8351C69.513 13.5067 69.6672 14.3477 69.6672 15.3387V18.553C69.6672 18.729 69.6415 18.892 69.5901 19.042C69.5194 19.2571 69.3845 19.4331 69.1918 19.557C69.0183 19.6679 68.7999 19.72 68.5365 19.72V19.707Z" fill="#03072D"/>
<path d="M63.1276 19.7063C62.8578 19.7063 62.6393 19.6476 62.4659 19.5303C62.286 19.4129 62.1575 19.2369 62.0869 19.0217C62.0355 18.8783 62.0098 18.7153 62.0098 18.5458V15.2403C62.0098 15.0577 62.0355 14.8947 62.0869 14.7448C62.1575 14.5361 62.3053 14.3601 62.498 14.2427C62.665 14.1449 62.8771 14.0928 63.134 14.0928C63.4103 14.0928 63.6287 14.1449 63.8022 14.2558C64.0013 14.3796 64.1362 14.5622 64.2005 14.7839C64.239 14.9273 64.2647 15.0838 64.2647 15.2533V18.5588C64.2647 18.7283 64.239 18.8848 64.1876 19.0348C64.1169 19.2434 63.982 19.4129 63.7893 19.5368C63.6158 19.6476 63.3974 19.6998 63.1212 19.6998L63.1276 19.7063Z" fill="#03072D"/>
<path d="M73.8307 19.7068C73.6573 19.7068 73.4967 19.6742 73.3425 19.6155C73.1433 19.5373 72.9763 19.4003 72.8607 19.2178C72.7514 19.0352 72.6936 18.8201 72.6936 18.5528C72.6936 18.2855 72.745 18.0507 72.8542 17.8747C72.9763 17.6791 73.1498 17.5422 73.3618 17.4705C73.5095 17.4183 73.6766 17.3922 73.8436 17.3922H75.8994V14.8821C75.8994 14.3736 75.8416 13.9628 75.7195 13.6499C75.6167 13.3826 75.4818 13.2 75.3019 13.0827C75.1156 12.9653 74.8715 12.9001 74.5824 12.9001C74.3832 12.9001 74.2098 12.9392 74.0492 13.0305C73.8757 13.1218 73.7344 13.2522 73.6059 13.4217C73.4581 13.6108 73.3296 13.8455 73.2204 14.1193C73.1048 14.4062 73.002 14.7322 72.9249 15.0842L72.2182 18.618C72.199 18.7484 72.1604 18.8918 72.1154 19.0157C72.0448 19.2243 71.9099 19.3938 71.73 19.5177C71.5565 19.6416 71.3317 19.7003 71.0747 19.7003C70.6892 19.7003 70.3937 19.5894 70.1946 19.3743C70.0404 19.2113 69.8733 18.9179 69.9569 18.4419L70.7021 14.6865L70.034 12.1503C69.989 11.9808 69.9633 11.8244 69.9633 11.6744C69.9633 11.4397 70.0468 11.2245 70.201 11.042C70.3423 10.879 70.5415 10.7681 70.8177 10.6964C70.9783 10.6573 71.1068 10.6443 71.2225 10.6443C71.3766 10.6443 71.5115 10.6703 71.6336 10.729C71.8649 10.8333 72.0319 11.0159 72.1154 11.2441C72.1604 11.3614 72.1925 11.4723 72.2182 11.5766L72.2825 11.8309C72.4302 11.6288 72.6037 11.4527 72.79 11.2897C73.047 11.0681 73.3489 10.8985 73.6766 10.7812C74.0042 10.6638 74.3832 10.5986 74.8072 10.5986C75.5075 10.5986 76.1178 10.7681 76.6253 11.0941C77.1393 11.4266 77.5312 11.9287 77.7946 12.5872C78.0387 13.2 78.1672 13.9563 78.1672 14.8365V18.5462C78.1672 18.7744 78.1479 18.9505 78.1029 19.0939C78.0258 19.3417 77.8524 19.5242 77.6211 19.6155C77.4733 19.6742 77.2935 19.7003 77.0558 19.7003H73.85L73.8307 19.7068Z" fill="#03072D"/>
<path d="M83.3829 19.765C82.6763 19.765 82.0402 19.6411 81.4813 19.3999C80.916 19.1522 80.4342 18.8066 80.0423 18.3698C79.6568 17.9395 79.3613 17.4244 79.1621 16.8442C78.9694 16.2769 78.873 15.6576 78.873 14.9925V11.8304C78.873 11.6609 78.8987 11.4979 78.9501 11.348C79.0208 11.1328 79.1621 10.9503 79.3613 10.8329C79.5348 10.7286 79.7532 10.6764 80.0102 10.6764C80.2671 10.6764 80.492 10.7286 80.6654 10.8394C80.8453 10.9568 80.9867 11.1263 81.0637 11.3284C81.1216 11.4914 81.1537 11.6609 81.1537 11.8435V14.9925C81.1537 15.4033 81.2115 15.7749 81.3207 16.1009C81.3271 16.0944 81.34 16.0879 81.3464 16.0813C81.5006 15.9509 81.6419 15.7619 81.7768 15.5141C81.9182 15.2533 82.0338 14.9534 82.1173 14.6079C82.2009 14.2623 82.2522 13.8972 82.2587 13.5191L82.3101 11.7587C82.3229 11.5697 82.3615 11.4262 82.4193 11.2893C82.5028 11.0937 82.6441 10.9307 82.8304 10.8264C82.9975 10.7286 83.2095 10.6764 83.4664 10.6764C83.7234 10.6764 83.9547 10.7286 84.1281 10.8329C84.3337 10.9568 84.4751 11.1328 84.5393 11.348C84.5907 11.5045 84.6035 11.6674 84.5907 11.85L84.5136 13.5321C84.4751 14.145 84.3851 14.7252 84.2374 15.2468C84.0832 15.7945 83.8712 16.2769 83.6014 16.7007C83.4151 16.9876 83.2031 17.2419 82.9718 17.444C83.1131 17.4635 83.2609 17.4766 83.415 17.4766C83.9354 17.4766 84.3723 17.3723 84.6999 17.1701C85.034 16.968 85.2781 16.6942 85.4451 16.3291C85.625 15.9444 85.715 15.4946 85.715 14.9795V11.7522C85.715 11.5827 85.7471 11.4262 85.8178 11.2697C85.9013 11.0807 86.0362 10.9307 86.2225 10.8199C86.3895 10.7221 86.6015 10.6699 86.8585 10.6699C87.1155 10.6699 87.3532 10.7286 87.5266 10.8525C87.7065 10.9764 87.835 11.1524 87.9057 11.348C87.9571 11.4979 87.9827 11.6609 87.9827 11.837V15.0121C87.9827 15.6706 87.8864 16.29 87.6872 16.8572C87.4881 17.4375 87.1797 17.9525 86.775 18.3828C86.3702 18.8197 85.8756 19.1587 85.3038 19.3999C84.7385 19.6346 84.0896 19.7585 83.3701 19.7585L83.3829 19.765Z" fill="#03072D"/>
<path d="M93.9002 19.7067C93.6497 19.7067 93.4505 19.661 93.2835 19.5763C93.0908 19.4719 92.943 19.309 92.8531 19.1068C92.7888 18.9569 92.7567 18.7939 92.7567 18.6309V15.3514C92.7567 14.9211 92.7117 14.543 92.6218 14.23C92.5447 13.9432 92.4226 13.7085 92.2684 13.5259C92.1207 13.3499 91.9408 13.2195 91.7224 13.1347C91.4847 13.0369 91.1956 12.9913 90.8615 12.9913H89.2619C89.0755 12.9913 88.9085 12.9652 88.7608 12.913C88.5552 12.8413 88.3817 12.6979 88.2597 12.4958C88.1569 12.3197 88.1055 12.1046 88.1055 11.8373C88.1055 11.5504 88.1633 11.3287 88.2789 11.1527C88.3946 10.9767 88.5552 10.8463 88.7415 10.768C88.8892 10.7094 89.0627 10.6768 89.249 10.6768H90.8165C91.4847 10.6768 92.0886 10.7746 92.6025 10.9767C93.1357 11.1788 93.5919 11.4917 93.958 11.896C94.3178 12.3002 94.5941 12.8022 94.7675 13.3825C94.9345 13.9432 95.0245 14.5951 95.0245 15.3254V18.5396C95.0245 18.7157 94.9988 18.8786 94.9474 19.0286C94.8767 19.2438 94.7418 19.4198 94.5491 19.5437C94.3756 19.6545 94.1572 19.7067 93.8938 19.7067H93.9002Z" fill="#03072D"/>
<path d="M96.8805 19.7063C96.6107 19.7063 96.3923 19.6476 96.2188 19.5303C96.0389 19.4129 95.9105 19.2369 95.8398 19.0217C95.7884 18.8783 95.7627 18.7153 95.7627 18.5458V15.2403C95.7627 15.0577 95.7884 14.8947 95.8398 14.7448C95.9105 14.5361 96.0582 14.3601 96.251 14.2427C96.418 14.1449 96.63 14.0928 96.887 14.0928C97.1632 14.0928 97.3816 14.1449 97.5551 14.2558C97.7542 14.3796 97.8892 14.5622 97.9534 14.7839C97.9919 14.9273 98.0176 15.0838 98.0176 15.2533V18.5588C98.0176 18.7283 97.9919 18.8848 97.9405 19.0348C97.8699 19.2434 97.735 19.4129 97.5422 19.5368C97.3688 19.6476 97.1504 19.6998 96.8741 19.6998L96.8805 19.7063Z" fill="#03072D"/>
<path d="M102.29 19.707C102.04 19.707 101.841 19.6613 101.674 19.5766C101.481 19.4723 101.333 19.3093 101.243 19.1072C101.179 18.9572 101.147 18.7942 101.147 18.6312V15.3518C101.147 14.778 101.07 14.3086 100.922 13.95C100.787 13.6305 100.594 13.3958 100.331 13.2393C100.061 13.0764 99.6949 12.9916 99.2517 12.9916H96.7719C96.592 12.9916 96.4314 12.9655 96.2836 12.9134C96.0781 12.8416 95.9046 12.6917 95.789 12.4961C95.6862 12.3201 95.6348 12.1049 95.6348 11.8376C95.6348 11.5507 95.6926 11.3291 95.8082 11.153C95.9239 10.9835 96.078 10.8466 96.2708 10.7749C96.425 10.7162 96.592 10.6836 96.7655 10.6836H99.2195C100.119 10.6836 100.89 10.8661 101.513 11.2182C102.155 11.5833 102.644 12.131 102.965 12.8351C103.267 13.5067 103.421 14.3477 103.421 15.3387V18.553C103.421 18.729 103.395 18.892 103.344 19.042C103.273 19.2571 103.138 19.4331 102.946 19.557C102.772 19.6679 102.554 19.72 102.29 19.72V19.707Z" fill="#03072D"/>
<path d="M15.5614 17.0986C15.3687 17.0986 15.2209 17.1247 15.1246 17.1834C15.0282 17.2421 14.964 17.3268 14.9254 17.4311C14.8933 17.5355 14.874 17.6659 14.874 17.8223C14.874 18.0701 14.9254 18.2526 15.0218 18.357C15.1181 18.4613 15.3045 18.5199 15.5743 18.5199C15.767 18.5199 15.9148 18.4873 16.0111 18.4287C16.1075 18.3635 16.1717 18.2852 16.2103 18.1809C16.2424 18.0766 16.2617 17.9527 16.2617 17.7962C16.2617 17.5485 16.2167 17.3659 16.1203 17.2616C16.0304 17.1573 15.8441 17.0986 15.5614 17.0986Z" fill="white"/>
<path d="M15.1821 15.8012C15.2657 15.8403 15.3941 15.8599 15.574 15.8599C15.7539 15.8599 15.876 15.8403 15.9595 15.7947C16.0366 15.7491 16.0944 15.6839 16.1201 15.5926C16.1458 15.5013 16.1586 15.4035 16.1586 15.2862V9.71827C16.1586 9.5944 16.1458 9.49008 16.1201 9.40532C16.0944 9.32057 16.0366 9.25537 15.9531 9.20973C15.8695 9.16409 15.7411 9.14453 15.5612 9.14453C15.3813 9.14453 15.2657 9.17061 15.1821 9.21625C15.0986 9.26841 15.0408 9.3336 15.0151 9.41836C14.9894 9.50312 14.9766 9.60092 14.9766 9.71827V15.2992C14.9766 15.4231 14.9894 15.5274 15.0151 15.6122C15.0408 15.6969 15.0986 15.7621 15.1821 15.8012Z" fill="white"/>
<path d="M24.4338 11.3155C24.3824 11.0873 24.2668 10.9048 24.0869 10.7744C23.9006 10.6375 23.65 10.5723 23.3352 10.5723H18.5041C18.4013 10.5723 18.2985 10.5853 18.2086 10.6179C18.1187 10.6505 18.0416 10.7027 17.9902 10.7874C17.9388 10.8657 17.9131 10.9895 17.9131 11.159C17.9131 11.3286 17.9388 11.4459 17.9902 11.5372C18.0416 11.6285 18.1187 11.6871 18.2086 11.7263C18.2985 11.7654 18.4013 11.7784 18.517 11.7784H23.2324C23.1553 12.0066 23.0783 12.2413 22.9883 12.5021C22.8406 12.9455 22.6799 13.4149 22.5065 13.9104C22.333 14.3994 22.166 14.8884 21.9925 15.3643C21.8191 15.8403 21.6585 16.2901 21.5107 16.7009C21.363 17.1181 21.228 17.4702 21.1124 17.7636C21.0482 17.9331 21.061 18.0765 21.1445 18.1874C21.228 18.2982 21.3822 18.396 21.6135 18.4742C21.7548 18.5068 21.8641 18.5134 21.9476 18.4808C22.0311 18.4482 22.1082 18.3895 22.1724 18.3047C22.2367 18.22 22.2945 18.1222 22.3395 18.0179C22.4294 17.7831 22.5386 17.4832 22.6671 17.1116C22.802 16.74 22.9433 16.3358 23.0975 15.8859C23.2517 15.4425 23.4059 14.9796 23.5665 14.5167C23.7271 14.0473 23.8749 13.5974 24.0162 13.1671C24.1575 12.7368 24.2732 12.3456 24.3695 12.0066C24.4466 11.7523 24.4788 11.5242 24.4338 11.3155Z" fill="white"/>
<path d="M19.0881 13.6691C19.0046 13.6169 18.8761 13.5908 18.7155 13.5908C18.5549 13.5908 18.4392 13.6169 18.3493 13.6625C18.2658 13.7147 18.208 13.7799 18.1758 13.8712C18.1437 13.9624 18.1309 14.0602 18.1309 14.1646V19.9215C18.1309 20.0389 18.1437 20.1432 18.1758 20.228C18.208 20.3192 18.2593 20.391 18.3429 20.4431C18.42 20.4953 18.542 20.5214 18.6962 20.5214C18.8632 20.5214 18.9917 20.4953 19.0688 20.4431C19.1523 20.391 19.2101 20.3192 19.2423 20.2345C19.2744 20.1497 19.2872 20.0519 19.2872 19.9346V14.1776C19.2872 14.0602 19.2744 13.9624 19.2487 13.8777C19.223 13.7929 19.1652 13.7212 19.0817 13.6691H19.0881Z" fill="white"/>
<path d="M31.8469 11.5959C31.545 11.2503 31.1595 10.9961 30.7034 10.8265C30.2473 10.657 29.7205 10.5723 29.123 10.5723L26.534 10.5853C26.3734 10.5853 26.2513 10.6114 26.1678 10.6635C26.0843 10.7157 26.0265 10.7874 25.9879 10.8787C25.9558 10.97 25.9365 11.0678 25.9365 11.1721V17.894C25.9365 17.9983 25.9558 18.1026 25.9879 18.1939C26.02 18.2852 26.0843 18.3634 26.1678 18.4156C26.2513 18.4677 26.3734 18.4938 26.534 18.4938C26.701 18.4938 26.8295 18.4677 26.9066 18.4156C26.9837 18.3634 27.0479 18.2917 27.0801 18.1939C27.1122 18.1026 27.125 17.9983 27.125 17.8809V11.7719H29.1551C29.5599 11.7719 29.9132 11.8306 30.2151 11.9545C30.5171 12.0783 30.774 12.2609 30.9732 12.5021C31.1724 12.7434 31.3265 13.0563 31.4358 13.4214C31.545 13.7865 31.5964 14.2103 31.5964 14.6928V17.9722C31.5964 18.0635 31.6092 18.1483 31.6413 18.233C31.6735 18.3178 31.7313 18.383 31.8148 18.4286C31.8983 18.4742 32.0204 18.4938 32.1746 18.4938C32.3416 18.4938 32.4701 18.4677 32.5472 18.4156C32.6243 18.3634 32.6885 18.2917 32.7142 18.1939C32.7399 18.1026 32.7527 17.9983 32.7527 17.8809V14.6667C32.7527 13.9821 32.6757 13.3823 32.5215 12.8737C32.3673 12.3652 32.136 11.9414 31.8341 11.5959H31.8469Z" fill="white"/>
<path d="M42.2036 10.6639C42.1201 10.6052 41.998 10.5791 41.8438 10.5791C41.6896 10.5791 41.5612 10.6052 41.4776 10.6508C41.3941 10.6965 41.3363 10.7617 41.2978 10.8464C41.2592 10.9312 41.2464 11.0094 41.2464 11.1007V14.328C41.2464 14.9278 41.1372 15.4559 40.9252 15.9123C40.7067 16.3752 40.3919 16.7338 39.9679 16.988C39.5439 17.2423 39.0235 17.3792 38.4004 17.3792C37.8093 17.3792 37.3083 17.2554 36.8842 17.0076C36.8136 16.9685 36.7493 16.9163 36.6851 16.8707C36.8971 16.8185 37.0962 16.7403 37.289 16.6229C37.6102 16.4208 37.8929 16.1274 38.1306 15.7558C38.3683 15.3842 38.561 14.9474 38.6959 14.4584C38.8308 13.9694 38.9208 13.4348 38.9529 12.8675L39.03 11.1659C39.0364 11.0616 39.03 10.9638 39.0043 10.879C38.9786 10.7943 38.9208 10.7225 38.8308 10.6704C38.7409 10.6182 38.6188 10.5921 38.4518 10.5921C38.2847 10.5921 38.1691 10.6182 38.0856 10.6639C38.0021 10.7095 37.9443 10.7812 37.9057 10.866C37.8736 10.9507 37.8479 11.042 37.8415 11.1398L37.7901 12.8936C37.7837 13.3109 37.7258 13.7151 37.6295 14.1063C37.5331 14.4975 37.3982 14.843 37.2312 15.143C37.0641 15.4494 36.8778 15.6841 36.6787 15.8601C36.4795 16.0362 36.2547 16.1209 36.017 16.1209H36.0041C35.972 16.0688 35.9399 16.0166 35.9142 15.9579C35.6957 15.5015 35.5865 14.9669 35.5865 14.3541V11.205C35.5865 11.0876 35.5673 10.9833 35.5351 10.8921C35.4966 10.8008 35.4388 10.7225 35.3553 10.6704C35.2717 10.6182 35.1497 10.5921 34.9891 10.5921C34.8285 10.5921 34.7064 10.6182 34.6165 10.6704C34.5265 10.7225 34.4687 10.8008 34.4366 10.8921C34.4045 10.9833 34.3916 11.0876 34.3916 11.192V14.3541C34.3916 14.9604 34.4751 15.5211 34.6486 16.0296C34.822 16.5382 35.0726 16.9815 35.4131 17.3597C35.7536 17.7378 36.1647 18.0377 36.6594 18.2529C37.1541 18.468 37.713 18.5724 38.349 18.5724C38.985 18.5724 39.576 18.468 40.0771 18.2594C40.5782 18.0508 41.0022 17.7574 41.3556 17.3727C41.7089 16.9946 41.9723 16.5512 42.1458 16.0427C42.3192 15.5341 42.4092 14.98 42.4092 14.3801V11.205C42.4092 11.0876 42.3963 10.9833 42.3642 10.8986C42.3321 10.8073 42.2743 10.7356 42.1907 10.6769L42.2036 10.6639Z" fill="white"/>
<path d="M49.8166 10.9176C49.399 10.6438 48.8915 10.5068 48.294 10.5068C47.9342 10.5068 47.6194 10.559 47.3496 10.6568C47.0798 10.7546 46.8421 10.8915 46.6301 11.0741C46.4181 11.2501 46.2382 11.4652 46.084 11.713C45.9298 11.9607 45.7885 12.2281 45.6664 12.528C45.6407 12.5932 45.6215 12.6649 45.6022 12.7301L45.1782 11.0675C45.1589 10.9893 45.1332 10.898 45.1011 10.8067C45.069 10.7155 44.9983 10.6438 44.9019 10.5981C44.8056 10.5525 44.6578 10.5525 44.4522 10.5981C44.2852 10.6438 44.1696 10.7024 44.1053 10.7807C44.0411 10.8589 44.009 10.9437 44.009 11.0415C44.009 11.1393 44.0282 11.2501 44.0604 11.374L44.7606 14.0406L43.9897 17.9133C43.9576 18.1089 43.9897 18.2589 44.0796 18.3632C44.1696 18.4675 44.3366 18.5197 44.5679 18.5197C44.7156 18.5197 44.8313 18.4936 44.9148 18.4349C44.9983 18.3762 45.0561 18.298 45.0947 18.2002C45.1268 18.1024 45.1589 17.9981 45.1718 17.8807L45.8849 14.3339C45.9748 13.9493 46.0776 13.5972 46.2061 13.2843C46.3346 12.9648 46.4823 12.691 46.6622 12.4628C46.8357 12.2281 47.0477 12.052 47.2854 11.9216C47.5231 11.7912 47.7865 11.726 48.0756 11.726C48.4739 11.726 48.8079 11.8173 49.0842 11.9933C49.3604 12.1694 49.5724 12.4497 49.7202 12.8214C49.868 13.193 49.9386 13.6755 49.9386 14.2557V17.32H47.3368C47.2211 17.32 47.1183 17.3331 47.0284 17.3656C46.9385 17.3982 46.8614 17.4569 46.81 17.5417C46.7586 17.6264 46.7329 17.7568 46.7329 17.9264C46.7329 18.0893 46.7586 18.2067 46.81 18.2915C46.8614 18.3762 46.9385 18.4349 47.0284 18.474C47.1183 18.5066 47.2211 18.5262 47.3239 18.5262H50.5297C50.6967 18.5262 50.8188 18.5131 50.9023 18.4805C50.9858 18.4479 51.0372 18.3893 51.0629 18.3045C51.0886 18.2197 51.1014 18.0893 51.1014 17.9198V14.2101C51.1014 13.3951 50.9922 12.717 50.7738 12.1694C50.5554 11.6217 50.2341 11.211 49.8166 10.9371V10.9176Z" fill="white"/>
<path d="M58.393 11.2898C58.3416 11.0616 58.2389 10.8856 58.0718 10.7617C57.9048 10.6379 57.6799 10.5727 57.3973 10.5727H54.0438L53.9667 9.11223C53.9667 8.98835 53.9538 8.87752 53.9217 8.78624C53.8896 8.69496 53.8382 8.61672 53.7675 8.56457C53.6968 8.51241 53.5812 8.48633 53.427 8.48633C53.26 8.48633 53.1251 8.51241 53.0287 8.55805C52.9323 8.6102 52.8681 8.6754 52.836 8.76016C52.8039 8.84492 52.791 8.94271 52.791 9.06007L52.8938 11.1464C52.9131 11.3681 52.9709 11.5311 53.0801 11.6289C53.1893 11.7267 53.3499 11.7788 53.5684 11.7788H57.3459C57.2367 12.1439 57.1146 12.509 56.9733 12.8611C56.7805 13.3501 56.5557 13.8456 56.3051 14.3411C56.0546 14.8366 55.7719 15.3582 55.4507 15.9058C55.1295 16.4535 54.7697 17.0468 54.365 17.6792C54.2622 17.8422 54.2365 17.9857 54.3007 18.1095C54.365 18.2334 54.4999 18.3508 54.7119 18.4551C54.834 18.5268 54.9432 18.5529 55.0331 18.5333C55.123 18.5138 55.2066 18.4681 55.2837 18.3964C55.3607 18.3247 55.425 18.2334 55.4764 18.1291C55.9518 17.3011 56.3629 16.5513 56.7163 15.8798C57.0696 15.2082 57.378 14.5693 57.6542 13.9499C57.9241 13.337 58.1618 12.6916 58.3673 12.0201L58.3545 12.007C58.4316 11.7332 58.4509 11.4919 58.4059 11.2768L58.393 11.2898Z" fill="white"/>
<path d="M68.1321 11.0352C67.5925 10.7287 66.9179 10.5723 66.1085 10.5723H63.6544C63.5516 10.5723 63.4488 10.5918 63.3653 10.6244C63.2818 10.657 63.2047 10.7157 63.1533 10.8005C63.1019 10.8787 63.0762 11.0026 63.0762 11.1721C63.0762 11.3416 63.1019 11.459 63.1533 11.5502C63.2047 11.6415 63.2753 11.7002 63.3653 11.7328C63.4552 11.7654 63.5516 11.7784 63.6672 11.7784H66.147C66.6931 11.7784 67.1428 11.8893 67.509 12.1044C67.8752 12.3196 68.1386 12.6456 68.3184 13.0759C68.4983 13.5062 68.5883 14.0473 68.5883 14.6993V17.9787C68.5883 18.07 68.6075 18.1548 68.6396 18.2395C68.6718 18.3243 68.736 18.3895 68.8195 18.4351C68.903 18.4808 69.0251 18.5003 69.1793 18.5003C69.3335 18.5003 69.4555 18.4742 69.5455 18.4221C69.629 18.3699 69.6868 18.2982 69.7189 18.2004C69.7511 18.1091 69.7639 18.0048 69.7639 17.8875V14.6732C69.7639 13.7604 69.629 13.0041 69.3528 12.4043C69.0829 11.8045 68.6718 11.3481 68.1321 11.0417V11.0352Z" fill="white"/>
<path d="M64.1613 14.0802C64.0778 14.028 63.9493 14.002 63.7823 14.002C63.6217 14.002 63.506 14.028 63.4225 14.0737C63.339 14.1193 63.2812 14.191 63.2491 14.2823C63.217 14.3736 63.2041 14.4714 63.2041 14.5887V17.8943C63.2041 17.9986 63.217 18.1029 63.2491 18.1942C63.2812 18.2855 63.3326 18.3637 63.4161 18.4158C63.4932 18.468 63.6153 18.4941 63.7694 18.4941C63.9365 18.4941 64.065 18.468 64.1485 18.4158C64.232 18.3637 64.2898 18.292 64.3219 18.2007C64.3541 18.1094 64.3669 18.0116 64.3669 17.9073V14.6018C64.3669 14.4844 64.3541 14.3866 64.3284 14.2953C64.3027 14.2041 64.2448 14.1323 64.1613 14.0802Z" fill="white"/>
<path d="M76.9591 10.9176C76.5416 10.6438 76.034 10.5068 75.4366 10.5068C75.0768 10.5068 74.762 10.559 74.4922 10.6568C74.2224 10.7546 73.9847 10.8915 73.7727 11.0741C73.5607 11.2501 73.3808 11.4652 73.2266 11.713C73.0724 11.9607 72.9311 12.2281 72.809 12.528C72.7833 12.5932 72.764 12.6649 72.7448 12.7301L72.3208 11.0675C72.3015 10.9893 72.2758 10.898 72.2437 10.8067C72.2116 10.7155 72.1409 10.6438 72.0445 10.5981C71.9482 10.5525 71.8004 10.5525 71.5948 10.5981C71.4278 10.6438 71.3121 10.7024 71.2479 10.7807C71.1837 10.8589 71.1515 10.9437 71.1515 11.0415C71.1515 11.1393 71.1708 11.2501 71.2029 11.374L71.9032 14.0406L71.1323 17.9133C71.1001 18.1089 71.1323 18.2589 71.2222 18.3632C71.3121 18.4675 71.4792 18.5197 71.7105 18.5197C71.8582 18.5197 71.9739 18.4936 72.0574 18.4349C72.1409 18.3762 72.1987 18.298 72.2373 18.2002C72.2694 18.1024 72.3015 17.9981 72.3143 17.8807L73.0274 14.3339C73.1174 13.9493 73.2202 13.5972 73.3487 13.2843C73.4772 12.9648 73.6249 12.691 73.8048 12.4628C73.9782 12.2281 74.1903 12.052 74.428 11.9216C74.6657 11.7912 74.929 11.726 75.2181 11.726C75.6165 11.726 75.9505 11.8173 76.2268 11.9933C76.503 12.1694 76.715 12.4497 76.8628 12.8214C77.0105 13.193 77.0812 13.6755 77.0812 14.2557V17.32H74.4793C74.3637 17.32 74.2609 17.3331 74.171 17.3656C74.081 17.3982 74.0039 17.4569 73.9525 17.5417C73.9012 17.6264 73.8755 17.7568 73.8755 17.9264C73.8755 18.0893 73.9012 18.2067 73.9525 18.2915C74.0039 18.3762 74.081 18.4349 74.171 18.474C74.2609 18.5066 74.3637 18.5262 74.4665 18.5262H77.6722C77.8393 18.5262 77.9613 18.5131 78.0449 18.4805C78.1284 18.4479 78.1798 18.3893 78.2055 18.3045C78.2312 18.2197 78.244 18.0893 78.244 17.9198V14.2101C78.244 13.3951 78.1348 12.717 77.9164 12.1694C77.6979 11.6217 77.3767 11.211 76.9591 10.9371V10.9176Z" fill="white"/>
<path d="M87.8677 10.6639C87.7841 10.6052 87.6621 10.5791 87.5079 10.5791C87.3537 10.5791 87.2252 10.6052 87.1417 10.6508C87.0582 10.6965 87.0004 10.7617 86.9618 10.8464C86.9233 10.9312 86.9104 11.0094 86.9104 11.1007V14.328C86.9104 14.9278 86.8012 15.4559 86.5892 15.9123C86.3708 16.3752 86.056 16.7338 85.632 16.988C85.208 17.2423 84.6876 17.3792 84.0645 17.3792C83.4734 17.3792 82.9723 17.2554 82.5483 17.0076C82.4776 16.9685 82.4134 16.9163 82.3492 16.8707C82.5612 16.8185 82.7603 16.7403 82.953 16.6229C83.2743 16.4208 83.5569 16.1274 83.7946 15.7558C84.0323 15.3842 84.2251 14.9474 84.36 14.4584C84.4949 13.9694 84.5848 13.4348 84.6169 12.8675L84.694 11.1659C84.7005 11.0616 84.694 10.9638 84.6683 10.879C84.6426 10.7943 84.5848 10.7225 84.4949 10.6704C84.4049 10.6182 84.2829 10.5921 84.1158 10.5921C83.9488 10.5921 83.8332 10.6182 83.7497 10.6639C83.6661 10.7095 83.6083 10.7812 83.5698 10.866C83.5377 10.9507 83.512 11.042 83.5055 11.1398L83.4541 12.8936C83.4477 13.3109 83.3899 13.7151 83.2935 14.1063C83.1972 14.4975 83.0623 14.843 82.8952 15.143C82.7282 15.4494 82.5419 15.6841 82.3427 15.8601C82.1436 16.0362 81.9187 16.1209 81.681 16.1209H81.6682C81.6361 16.0688 81.6039 16.0166 81.5782 15.9579C81.3598 15.5015 81.2506 14.9669 81.2506 14.3541V11.205C81.2506 11.0876 81.2313 10.9833 81.1992 10.8921C81.1607 10.8008 81.1028 10.7225 81.0193 10.6704C80.9358 10.6182 80.8137 10.5921 80.6531 10.5921C80.4925 10.5921 80.3705 10.6182 80.2805 10.6704C80.1906 10.7225 80.1328 10.8008 80.1006 10.8921C80.0685 10.9833 80.0557 11.0876 80.0557 11.192V14.3541C80.0557 14.9604 80.1392 15.5211 80.3126 16.0296C80.4861 16.5382 80.7366 16.9815 81.0771 17.3597C81.4176 17.7378 81.8288 18.0377 82.3235 18.2529C82.8181 18.468 83.377 18.5724 84.0131 18.5724C84.6491 18.5724 85.2401 18.468 85.7412 18.2594C86.2423 18.0508 86.6663 17.7574 87.0196 17.3727C87.373 16.9946 87.6364 16.5512 87.8098 16.0427C87.9833 15.5341 88.0732 14.98 88.0732 14.3801V11.205C88.0732 11.0876 88.0604 10.9833 88.0283 10.8986C87.9961 10.8073 87.9383 10.7356 87.8548 10.6769L87.8677 10.6639Z" fill="white"/>
<path d="M94.1956 11.6157C93.8872 11.2702 93.5081 11.0159 93.052 10.8399C92.5959 10.6639 92.0691 10.5791 91.4652 10.5791H89.8977C89.782 10.5791 89.6857 10.5987 89.5957 10.6313C89.5058 10.6639 89.4351 10.7225 89.3837 10.8073C89.3323 10.8855 89.3066 11.0094 89.3066 11.1789C89.3066 11.3484 89.3323 11.4658 89.3837 11.5571C89.4351 11.6483 89.5058 11.707 89.5957 11.7396C89.6857 11.7722 89.7885 11.7853 89.9105 11.7853H91.5102C91.9149 11.7853 92.2683 11.8439 92.5702 11.9678C92.8721 12.0917 93.1291 12.2742 93.3347 12.5155C93.5403 12.7632 93.6945 13.0697 93.7972 13.4348C93.9 13.7999 93.9514 14.2237 93.9514 14.7061V17.9856C93.9514 18.0769 93.9707 18.1616 94.0028 18.2464C94.035 18.3311 94.0992 18.3963 94.1827 18.442C94.2662 18.4876 94.3883 18.5072 94.5425 18.5072C94.6967 18.5072 94.8187 18.4811 94.9087 18.4289C94.9922 18.3768 95.05 18.305 95.0821 18.2072C95.1142 18.116 95.1271 18.0117 95.1271 17.8943V14.68C95.1271 14.002 95.05 13.4087 94.8958 12.9001C94.7416 12.3916 94.5103 11.9678 94.202 11.6223L94.1956 11.6157Z" fill="white"/>
<path d="M97.9084 14.0802C97.8249 14.028 97.6964 14.002 97.5294 14.002C97.3687 14.002 97.2531 14.028 97.1696 14.0737C97.0861 14.1193 97.0283 14.191 96.9961 14.2823C96.964 14.3736 96.9512 14.4714 96.9512 14.5887V17.8943C96.9512 17.9986 96.964 18.1029 96.9961 18.1942C97.0283 18.2855 97.0797 18.3637 97.1632 18.4158C97.2403 18.468 97.3623 18.4941 97.5165 18.4941C97.6835 18.4941 97.812 18.468 97.8956 18.4158C97.9791 18.3637 98.0369 18.292 98.069 18.2007C98.1011 18.1094 98.114 18.0116 98.114 17.9073V14.6018C98.114 14.4844 98.1011 14.3866 98.0754 14.2953C98.0497 14.2041 97.9919 14.1323 97.9084 14.0802Z" fill="white"/>
<path d="M103.106 12.4046C102.836 11.8048 102.425 11.3484 101.885 11.042C101.345 10.7356 100.671 10.5791 99.8614 10.5791H97.4073C97.3045 10.5791 97.2017 10.5987 97.1182 10.6313C97.0347 10.6639 96.9576 10.7225 96.9062 10.8073C96.8548 10.8855 96.8291 11.0094 96.8291 11.1789C96.8291 11.3484 96.8548 11.4658 96.9062 11.5571C96.9576 11.6483 97.0283 11.707 97.1182 11.7396C97.2081 11.7722 97.3045 11.7853 97.4201 11.7853H99.8999C100.446 11.7853 100.896 11.8961 101.262 12.1113C101.628 12.3264 101.891 12.6524 102.071 13.0827C102.251 13.513 102.341 14.0541 102.341 14.7061V17.9856C102.341 18.0769 102.36 18.1616 102.393 18.2464C102.425 18.3311 102.489 18.3963 102.572 18.442C102.656 18.4876 102.778 18.5072 102.932 18.5072C103.086 18.5072 103.208 18.4811 103.298 18.4289C103.382 18.3768 103.44 18.305 103.472 18.2072C103.504 18.116 103.517 18.0117 103.517 17.8943V14.68C103.517 13.7673 103.382 13.011 103.106 12.4112V12.4046Z" fill="white"/>
<g opacity="0.63">
<path d="M15.5614 16.4463C15.3687 16.4463 15.2209 16.4724 15.1246 16.531C15.0282 16.5897 14.964 16.6745 14.9254 16.7788C14.8933 16.8831 14.874 17.0135 14.874 17.17C14.874 17.4177 14.9254 17.6003 15.0218 17.7046C15.1181 17.8089 15.3045 17.8676 15.5743 17.8676C15.767 17.8676 15.9148 17.835 16.0111 17.7763C16.1075 17.7111 16.1717 17.6329 16.2103 17.5286C16.2424 17.4243 16.2617 17.3004 16.2617 17.1439C16.2617 16.8962 16.2167 16.7136 16.1203 16.6093C16.0304 16.505 15.8441 16.4463 15.5614 16.4463Z" fill="#CAE8F3"/>
<path d="M15.1821 15.1489C15.2657 15.188 15.3941 15.2076 15.574 15.2076C15.7539 15.2076 15.876 15.188 15.9595 15.1424C16.0366 15.0967 16.0944 15.0315 16.1201 14.9403C16.1458 14.849 16.1586 14.7512 16.1586 14.6338V9.06593C16.1586 8.94205 16.1458 8.83774 16.1201 8.75298C16.0944 8.66822 16.0366 8.60302 15.9531 8.55738C15.8695 8.51175 15.7411 8.49219 15.5612 8.49219C15.3813 8.49219 15.2657 8.51827 15.1821 8.5639C15.0986 8.61606 15.0408 8.68126 15.0151 8.76602C14.9894 8.85078 14.9766 8.94857 14.9766 9.06593V14.6469C14.9766 14.7707 14.9894 14.8751 15.0151 14.9598C15.0408 15.0446 15.0986 15.1098 15.1821 15.1489Z" fill="#CAE8F3"/>
<path d="M24.4338 10.6632C24.3824 10.435 24.2668 10.2524 24.0869 10.122C23.9006 9.98512 23.65 9.91992 23.3352 9.91992H18.5041C18.4013 9.91992 18.2985 9.93296 18.2086 9.96556C18.1187 9.99816 18.0416 10.0503 17.9902 10.1351C17.9388 10.2133 17.9131 10.3372 17.9131 10.5067C17.9131 10.6762 17.9388 10.7936 17.9902 10.8848C18.0416 10.9761 18.1187 11.0348 18.2086 11.0739C18.2985 11.113 18.4013 11.1261 18.517 11.1261H23.2324C23.1553 11.3543 23.0783 11.589 22.9883 11.8498C22.8406 12.2931 22.6799 12.7625 22.5065 13.2581C22.333 13.747 22.166 14.236 21.9925 14.712C21.8191 15.1879 21.6585 15.6378 21.5107 16.0485C21.363 16.4658 21.228 16.8179 21.1124 17.1112C21.0482 17.2808 21.061 17.4242 21.1445 17.535C21.228 17.6459 21.3822 17.7437 21.6135 17.8219C21.7548 17.8545 21.8641 17.861 21.9476 17.8284C22.0311 17.7958 22.1082 17.7371 22.1724 17.6524C22.2367 17.5676 22.2945 17.4698 22.3395 17.3655C22.4294 17.1308 22.5386 16.8309 22.6671 16.4593C22.802 16.0876 22.9433 15.6834 23.0975 15.2335C23.2517 14.7902 23.4059 14.3273 23.5665 13.8644C23.7271 13.395 23.8749 12.9451 24.0162 12.5148C24.1575 12.0845 24.2732 11.6933 24.3695 11.3543C24.4466 11.1 24.4788 10.8718 24.4338 10.6632Z" fill="#CAE8F3"/>
<path d="M19.0881 13.0177C19.0046 12.9655 18.8761 12.9395 18.7155 12.9395C18.5549 12.9395 18.4392 12.9655 18.3493 13.0112C18.2658 13.0633 18.208 13.1285 18.1758 13.2198C18.1437 13.3111 18.1309 13.4089 18.1309 13.5132V19.2702C18.1309 19.3875 18.1437 19.4918 18.1758 19.5766C18.208 19.6679 18.2593 19.7396 18.3429 19.7917C18.42 19.8439 18.542 19.87 18.6962 19.87C18.8632 19.87 18.9917 19.8439 19.0688 19.7917C19.1523 19.7396 19.2101 19.6679 19.2423 19.5831C19.2744 19.4984 19.2872 19.4006 19.2872 19.2832V13.5262C19.2872 13.4089 19.2744 13.3111 19.2487 13.2263C19.223 13.1416 19.1652 13.0698 19.0817 13.0177H19.0881Z" fill="#CAE8F3"/>
<path d="M31.8469 10.9435C31.545 10.598 31.1595 10.3437 30.7034 10.1742C30.2473 10.0047 29.7205 9.91992 29.123 9.91992L26.534 9.93296C26.3734 9.93296 26.2513 9.95904 26.1678 10.0112C26.0843 10.0634 26.0265 10.1351 25.9879 10.2264C25.9558 10.3176 25.9365 10.4154 25.9365 10.5197V17.2416C25.9365 17.346 25.9558 17.4503 25.9879 17.5416C26.02 17.6328 26.0843 17.7111 26.1678 17.7632C26.2513 17.8154 26.3734 17.8415 26.534 17.8415C26.701 17.8415 26.8295 17.8154 26.9066 17.7632C26.9837 17.7111 27.0479 17.6393 27.0801 17.5416C27.1122 17.4503 27.125 17.346 27.125 17.2286V11.1196H29.1551C29.5599 11.1196 29.9132 11.1782 30.2151 11.3021C30.5171 11.426 30.774 11.6085 30.9732 11.8498C31.1724 12.091 31.3265 12.404 31.4358 12.7691C31.545 13.1342 31.5964 13.558 31.5964 14.0404V17.3199C31.5964 17.4112 31.6092 17.4959 31.6413 17.5807C31.6735 17.6654 31.7313 17.7306 31.8148 17.7763C31.8983 17.8219 32.0204 17.8415 32.1746 17.8415C32.3416 17.8415 32.4701 17.8154 32.5472 17.7632C32.6243 17.7111 32.6885 17.6393 32.7142 17.5416C32.7399 17.4503 32.7527 17.346 32.7527 17.2286V14.0143C32.7527 13.3298 32.6757 12.7299 32.5215 12.2214C32.3673 11.7129 32.136 11.2891 31.8341 10.9435H31.8469Z" fill="#CAE8F3"/>
<path d="M42.2032 10.0115C42.1197 9.95284 41.9976 9.92676 41.8434 9.92676C41.6892 9.92676 41.5607 9.95284 41.4772 9.99848C41.3937 10.0441 41.3359 10.1093 41.2973 10.1941C41.2588 10.2788 41.246 10.3571 41.246 10.4483V13.6756C41.246 14.2755 41.1367 14.8036 40.9247 15.2599C40.7063 15.7228 40.8605 16.6356 40.4365 16.8899C40.0125 17.1442 38.3807 17.4701 37.7511 17.4701C37.1601 17.4701 37.3014 16.5965 36.8774 16.3487C36.8067 16.3096 36.7425 16.2575 36.6783 16.2118C36.8903 16.1597 37.0894 16.0814 37.2821 15.9641C37.6034 15.762 37.886 15.4686 38.1237 15.0969C38.3614 14.7253 38.5542 14.2885 38.6891 13.7995C38.824 13.3105 38.9139 12.7759 38.946 12.2087L39.0231 10.507C39.0296 10.4027 39.0231 10.3049 38.9974 10.2201C38.9717 10.1354 38.9139 10.0637 38.824 10.0115C38.734 9.95936 38.612 9.93328 38.4449 9.93328C38.2779 9.93328 38.1623 9.95936 38.0788 10.005C37.9952 10.0506 37.9374 10.1224 37.8989 10.2071C37.8668 10.2919 37.8411 10.3831 37.8346 10.4809L37.7832 12.2348C37.7768 12.652 37.719 13.0563 37.6226 13.4474C37.5263 13.8386 37.3914 14.1842 37.2243 14.4841C37.0573 14.7905 36.871 15.0252 36.6718 15.2013C36.4727 15.3773 36.8967 15.5012 36.659 15.5012L35.8881 16.6226C35.8559 16.5704 34.3141 15.8924 35.0722 15.3186C35.4705 15.0122 35.5797 14.3081 35.5797 13.6887V10.5396C35.5797 10.4223 35.5604 10.3179 35.5283 10.2267C35.4898 10.1354 35.4319 10.0572 35.3484 10.005C35.2649 9.95284 35.1428 9.92676 34.9822 9.92676C34.8216 9.92676 34.6996 9.95284 34.6096 10.005C34.5197 10.0572 34.4619 10.1354 34.4297 10.2267C34.3976 10.3179 34.3848 10.4223 34.3848 10.5266V13.6887C34.3848 14.295 34.4683 14.8557 34.6417 15.3643C34.8152 15.8728 35.0657 16.3161 35.4062 16.6943C35.7467 17.0724 36.1579 17.3724 36.6526 17.5875C37.1472 17.8027 37.7061 17.907 38.3422 17.907C38.9782 17.907 39.5692 17.8027 40.0703 17.594C40.5714 17.3854 40.9954 17.092 41.3487 16.7073C41.7021 16.3292 41.9655 15.8858 42.1389 15.3773C42.3124 14.8688 42.4023 14.3146 42.4023 13.7148V10.5396C42.4023 10.4223 42.3895 10.3179 42.3574 10.2332C42.3252 10.1419 42.2674 10.0702 42.1839 10.0115H42.2032Z" fill="#CAE8F3"/>
<path d="M49.8156 10.2662C49.398 9.99238 48.8905 9.85547 48.293 9.85547C47.9333 9.85547 47.6185 9.90763 47.3486 10.0054C47.0788 10.1032 46.8411 10.2401 46.6291 10.4227C46.4171 10.5987 46.2372 10.8139 46.083 11.0616C45.9289 11.3094 45.7875 11.5767 45.6655 11.8766C45.6398 11.9418 45.6205 12.0135 45.6012 12.0787L45.1772 10.4162C45.1579 10.3379 45.1322 10.2467 45.1001 10.1554C45.068 10.0641 44.9973 9.99238 44.901 9.94675C44.8046 9.90111 44.6568 9.90111 44.4513 9.94675C44.2842 9.99238 44.1686 10.0511 44.1043 10.1293C44.0401 10.2075 44.008 10.2923 44.008 10.3901C44.008 10.4879 44.0273 10.5987 44.0594 10.7226L44.7596 13.3892L43.9887 17.2619C43.9566 17.4575 43.9887 17.6075 44.0787 17.7118C44.1686 17.8161 44.3356 17.8683 44.5669 17.8683C44.7147 17.8683 44.8303 17.8422 44.9138 17.7835C44.9973 17.7248 45.0552 17.6466 45.0937 17.5488C45.1258 17.451 45.1579 17.3467 45.1708 17.2293L45.8839 13.6826C45.9738 13.2979 46.0766 12.9458 46.2051 12.6329C46.3336 12.3134 46.4814 12.0396 46.6612 11.8114C46.8347 11.5767 47.0467 11.4007 47.2844 11.2703C47.5221 11.1399 47.7855 11.0747 48.0746 11.0747C48.4729 11.0747 48.807 11.1659 49.0832 11.342C49.3595 11.518 49.5715 11.7984 49.7192 12.17C49.867 12.5416 49.9376 13.0241 49.9376 13.6043V16.6686H49.2438L49.2245 17.8748H50.5351C50.7021 17.8748 50.8242 17.8618 50.9077 17.8292C50.9912 17.7966 51.0426 17.7379 51.0683 17.6531C51.094 17.5684 51.1069 17.438 51.1069 17.2685V13.5587C51.1069 12.7437 50.9977 12.0657 50.7792 11.518C50.5608 10.9704 50.2396 10.5596 49.822 10.2858L49.8156 10.2662Z" fill="#CAE8F3"/>
<path d="M58.3921 10.6375C58.3407 10.4093 58.2379 10.2333 58.0708 10.1094C57.9038 9.98551 57.679 9.92032 57.3963 9.92032H54.0428L53.9657 8.45988C53.9657 8.33601 53.9528 8.22517 53.9207 8.13389C53.8886 8.04262 53.8372 7.96438 53.7665 7.91222C53.6959 7.86006 53.5802 7.83398 53.426 7.83398C53.259 7.83398 53.1241 7.86006 53.0277 7.9057C52.9314 7.95786 52.8671 8.02306 52.835 8.10782C52.8029 8.19257 52.79 8.29037 52.79 8.40773L52.8928 10.4941C52.9121 10.7157 52.9699 10.8787 53.0791 10.9765C53.1883 11.0743 53.349 11.1265 53.5674 11.1265H57.3449C57.2357 11.4916 57.1136 11.8567 56.9723 12.2088C56.7795 12.6977 56.5547 13.1932 56.3042 13.6888C56.0536 14.1843 55.7709 14.7058 55.4497 15.2535C55.1285 15.8012 54.7687 16.3945 54.364 17.0269C54.2612 17.1899 54.2355 17.3333 54.2998 17.4572C54.364 17.5811 54.4989 17.6984 54.7109 17.8027C54.833 17.8745 54.9422 17.9005 55.0321 17.881C55.1221 17.8614 55.2056 17.8158 55.2827 17.7441C55.3598 17.6723 55.424 17.5811 55.4754 17.4767C55.9508 16.6487 56.362 15.899 56.7153 15.2274C57.0686 14.5559 57.377 13.9169 57.6533 13.2976C57.9231 12.6847 58.1608 12.0392 58.3664 11.3677L58.3535 11.3547C58.4306 11.0808 58.4499 10.8396 58.4049 10.6245L58.3921 10.6375Z" fill="#CAE8F3"/>
<path d="M68.1321 10.3828C67.5925 10.0764 66.9179 9.91992 66.1085 9.91992H63.6544C63.5516 9.91992 63.4488 9.93948 63.3653 9.97208C63.2818 10.0047 63.2047 10.0634 63.1533 10.1481C63.1019 10.2264 63.0762 10.3502 63.0762 10.5197C63.0762 10.6893 63.1019 10.8066 63.1533 10.8979C63.2047 10.9892 63.2753 11.0478 63.3653 11.0804C63.4552 11.113 63.5516 11.1261 63.6672 11.1261H66.147C66.6931 11.1261 67.1428 11.2369 67.509 11.4521C67.8752 11.6672 68.1386 11.9932 68.3184 12.4235C68.4983 12.8538 68.5883 13.395 68.5883 14.0469V17.3264C68.5883 17.4177 68.6075 17.5024 68.6396 17.5872C68.6718 17.6719 68.736 17.7371 68.8195 17.7828C68.903 17.8284 69.0251 17.848 69.1793 17.848C69.3335 17.848 69.4555 17.8219 69.5455 17.7697C69.629 17.7176 69.6868 17.6459 69.7189 17.5481C69.7511 17.4568 69.7639 17.3525 69.7639 17.2351V14.0209C69.7639 13.1081 69.629 12.3518 69.3528 11.752C69.0829 11.1522 68.6718 10.6958 68.1321 10.3893V10.3828Z" fill="#CAE8F3"/>
<path d="M64.1613 13.4278C64.0778 13.3757 63.9493 13.3496 63.7823 13.3496C63.6217 13.3496 63.506 13.3757 63.4225 13.4213C63.339 13.467 63.2812 13.5387 63.2491 13.63C63.217 13.7212 63.2041 13.819 63.2041 13.9364V17.2419C63.2041 17.3462 63.217 17.4506 63.2491 17.5418C63.2812 17.6331 63.3326 17.7113 63.4161 17.7635C63.4932 17.8157 63.6153 17.8417 63.7694 17.8417C63.9365 17.8417 64.065 17.8157 64.1485 17.7635C64.232 17.7113 64.2898 17.6396 64.3219 17.5484C64.3541 17.4571 64.3669 17.3593 64.3669 17.255V13.9494C64.3669 13.8321 64.3541 13.7343 64.3284 13.643C64.3027 13.5517 64.2448 13.48 64.1613 13.4278Z" fill="#CAE8F3"/>
<path d="M76.9591 10.2662C76.5416 9.99238 76.034 9.85547 75.4366 9.85547C75.0768 9.85547 74.762 9.90763 74.4922 10.0054C74.2224 10.1032 73.9847 10.2401 73.7727 10.4227C73.5607 10.5987 73.3808 10.8139 73.2266 11.0616C73.0724 11.3094 72.9311 11.5767 72.809 11.8766C72.7833 11.9418 72.764 12.0135 72.7448 12.0787L72.3208 10.4162C72.3015 10.3379 72.2758 10.2467 72.2437 10.1554C72.2116 10.0641 72.1409 9.99238 72.0445 9.94675C71.9482 9.90111 71.8004 9.90111 71.5948 9.94675C71.4278 9.99238 71.3121 10.0511 71.2479 10.1293C71.1837 10.2075 71.1515 10.2923 71.1515 10.3901C71.1515 10.4879 71.1708 10.5987 71.2029 10.7226L71.9032 13.3892L71.1323 17.2619C71.1001 17.4575 71.1323 17.6075 71.2222 17.7118C71.3121 17.8161 71.4792 17.8683 71.7105 17.8683C71.8582 17.8683 71.9739 17.8422 72.0574 17.7835C72.1409 17.7248 72.1987 17.6466 72.2373 17.5488C72.2694 17.451 72.3015 17.3467 72.3143 17.2293L73.0274 13.6826C73.1174 13.2979 73.2202 12.9458 73.3487 12.6329C73.4772 12.3134 73.6249 12.0396 73.8048 11.8114C73.9782 11.5767 74.1903 11.4007 74.428 11.2703C74.6657 11.1399 74.929 11.0747 75.2181 11.0747C75.6165 11.0747 75.9505 11.1659 76.2268 11.342C76.503 11.518 76.715 11.7984 76.8628 12.17C77.0105 12.5416 77.0812 13.0241 77.0812 13.6043V16.6686H76.6829L76.7407 17.8748H77.6722C77.8393 17.8748 77.9613 17.8618 78.0449 17.8292C78.1284 17.7966 78.1798 17.7379 78.2055 17.6531C78.2312 17.5684 78.244 17.438 78.244 17.2685V13.5587C78.244 12.7437 78.1348 12.0657 77.9164 11.518C77.6979 10.9704 77.3767 10.5596 76.9591 10.2858V10.2662Z" fill="#CAE8F3"/>
<path d="M87.8672 10.0115C87.7837 9.95284 87.6617 9.92676 87.5075 9.92676C87.3533 9.92676 87.2248 9.95284 87.1413 9.99848C87.0578 10.0441 87 10.1093 86.9614 10.1941C86.9229 10.2788 86.91 10.3571 86.91 10.4483V13.6756C86.91 14.2755 86.8008 14.8036 86.5888 15.2599C86.3704 15.7228 86.3254 16.1858 85.9014 16.4465C85.4774 16.7073 84.3339 18.0308 83.7107 18.0308C83.1197 18.0308 82.9655 16.603 82.5415 16.3553C82.4708 16.3161 82.4066 16.264 82.3423 16.2183C82.5543 16.1662 82.7535 16.088 82.9462 15.9706C83.2674 15.7685 83.5501 15.4751 83.7878 15.1035C84.0255 14.7318 84.2182 14.295 84.3531 13.806C84.488 13.317 84.578 12.7824 84.6101 12.2152L84.6872 10.5135C84.6936 10.4092 84.6872 10.3114 84.6615 10.2267C84.6358 10.1419 84.578 10.0702 84.488 10.018C84.3981 9.96588 84.276 9.9398 84.109 9.9398C83.942 9.9398 83.8263 9.96588 83.7428 10.0115C83.6593 10.0572 83.6015 10.1289 83.5629 10.2136C83.5308 10.2984 83.5051 10.3897 83.4987 10.4875L83.4473 12.2413C83.4409 12.6585 83.3831 13.0628 83.2867 13.454C83.1903 13.8451 83.0554 14.1907 82.8884 14.4906C82.7214 14.797 82.535 15.0317 82.3359 15.2078C82.1367 15.3838 81.7898 16.5378 81.5521 16.5378L81.1345 15.9184C81.1024 15.8663 80.0874 15.273 80.6399 15.2078C81.1345 15.1491 81.2438 14.3211 81.2438 13.7017V10.5527C81.2438 10.4353 81.2245 10.331 81.1924 10.2397C81.1538 10.1484 81.096 10.0702 81.0125 10.018C80.929 9.96588 80.8069 9.9398 80.6463 9.9398C80.4857 9.9398 80.3636 9.96588 80.2737 10.018C80.1837 10.0702 80.1259 10.1484 80.0938 10.2397C80.0617 10.331 80.0488 10.4353 80.0488 10.5396V13.7017C80.0488 14.3081 80.1323 14.8688 80.3058 15.3773C80.4793 15.8858 80.7298 16.3292 81.0703 16.7073C81.4108 17.0855 81.8219 17.3854 82.3166 17.6005C82.8113 17.8157 83.3702 17.92 84.0062 17.92C84.6422 17.92 85.2333 17.8157 85.7344 17.6071C86.2355 17.3984 86.6595 17.105 87.0128 16.7204C87.3661 16.3422 87.6295 15.8989 87.803 15.3903C87.9765 14.8818 88.0664 14.3276 88.0664 13.7278V10.5527C88.0664 10.4353 88.0536 10.331 88.0214 10.2462C87.9893 10.155 87.9315 10.0832 87.848 10.0246L87.8672 10.0115Z" fill="#CAE8F3"/>
<path d="M94.1956 10.9634C93.8872 10.6179 93.5081 10.3636 93.052 10.1875C92.5959 10.0115 92.0691 9.92676 91.4652 9.92676H89.8977C89.782 9.92676 89.6857 9.94632 89.5957 9.97892C89.5058 10.0115 89.4351 10.0702 89.3837 10.1549C89.3323 10.2332 89.3066 10.3571 89.3066 10.5266C89.3066 10.6961 89.3323 10.8134 89.3837 10.9047C89.4351 10.996 89.5058 11.0547 89.5957 11.0873C89.6857 11.1199 89.7885 11.1329 89.9105 11.1329H91.5102C91.9149 11.1329 92.2683 11.1916 92.5702 11.3155C92.8721 11.4393 93.1291 11.6219 93.3347 11.8631C93.5403 12.1109 93.6945 12.4173 93.7972 12.7824C93.9 13.1475 93.9514 13.5713 93.9514 14.0538V17.3332C93.9514 17.4245 93.9707 17.5093 94.0028 17.594C94.035 17.6788 94.0992 17.744 94.1827 17.7896C94.2662 17.8353 94.3883 17.8548 94.5425 17.8548C94.6967 17.8548 94.8187 17.8287 94.9087 17.7766C94.9922 17.7244 95.05 17.6527 95.0821 17.5549C95.1142 17.4636 95.1271 17.3593 95.1271 17.242V14.0277C95.1271 13.3496 95.05 12.7563 94.8958 12.2478C94.7416 11.7393 94.5103 11.3155 94.202 10.9699L94.1956 10.9634Z" fill="#CAE8F3"/>
<path d="M97.9084 13.4278C97.8249 13.3757 97.6964 13.3496 97.5294 13.3496C97.3687 13.3496 97.2531 13.3757 97.1696 13.4213C97.0861 13.467 97.0283 13.5387 96.9961 13.63C96.964 13.7212 96.9512 13.819 96.9512 13.9364V17.2419C96.9512 17.3462 96.964 17.4506 96.9961 17.5418C97.0283 17.6331 97.0797 17.7113 97.1632 17.7635C97.2403 17.8157 97.3623 17.8417 97.5165 17.8417C97.6835 17.8417 97.812 17.8157 97.8956 17.7635C97.9791 17.7113 98.0369 17.6396 98.069 17.5484C98.1011 17.4571 98.114 17.3593 98.114 17.255V13.9494C98.114 13.8321 98.1011 13.7343 98.0754 13.643C98.0497 13.5517 97.9919 13.48 97.9084 13.4278Z" fill="#CAE8F3"/>
<path d="M103.106 11.7523C102.836 11.1525 102.425 10.6961 101.885 10.3897C101.345 10.0832 100.671 9.92676 99.8614 9.92676H97.4073C97.3045 9.92676 97.2017 9.94632 97.1182 9.97892C97.0347 10.0115 96.9576 10.0702 96.9062 10.1549C96.8548 10.2332 96.8291 10.3571 96.8291 10.5266C96.8291 10.6961 96.8548 10.8134 96.9062 10.9047C96.9576 10.996 97.0283 11.0547 97.1182 11.0873C97.2081 11.1199 97.3045 11.1329 97.4201 11.1329H99.8999C100.446 11.1329 100.896 11.2438 101.262 11.4589C101.628 11.6741 101.891 12 102.071 12.4304C102.251 12.8607 102.341 13.4018 102.341 14.0538V17.3332C102.341 17.4245 102.36 17.5093 102.393 17.594C102.425 17.6788 102.489 17.744 102.572 17.7896C102.656 17.8353 102.778 17.8548 102.932 17.8548C103.086 17.8548 103.208 17.8287 103.298 17.7766C103.382 17.7244 103.44 17.6527 103.472 17.5549C103.504 17.4636 103.517 17.3593 103.517 17.242V14.0277C103.517 13.1149 103.382 12.3586 103.106 11.7588V11.7523Z" fill="#CAE8F3"/>
</g>
<path d="M14.9319 19.7194C14.495 19.7194 14.1802 19.6086 13.9746 19.3804C13.7819 19.1653 13.6855 18.8654 13.6855 18.4676C13.6855 18.259 13.7112 18.0699 13.7691 17.9069C13.8462 17.6722 14.0003 17.4832 14.2059 17.3593C14.3922 17.2484 14.6235 17.1963 14.919 17.1963C15.3687 17.1963 15.6899 17.3136 15.8891 17.5484C16.0754 17.757 16.1653 18.0569 16.1653 18.4481C16.1653 18.6632 16.1396 18.8458 16.0818 19.0088C16.0047 19.2305 15.8634 19.413 15.6642 19.5434C15.4715 19.6673 15.2338 19.726 14.9383 19.726L14.9319 19.7194Z" fill="#03072D"/>
<path d="M14.932 17.0724C14.6686 17.0724 14.4695 17.0333 14.3089 16.9616C14.0904 16.8573 13.9298 16.6682 13.8592 16.44C13.8142 16.3031 13.7949 16.1401 13.7949 15.9576V10.3766C13.7949 10.2071 13.8142 10.0441 13.8592 9.90721C13.9298 9.69205 14.0712 9.51602 14.2703 9.39214C14.4438 9.29435 14.6558 9.24219 14.9192 9.24219C15.1826 9.24219 15.3946 9.28131 15.5616 9.37258C15.7736 9.48994 15.9214 9.66597 15.992 9.88765C16.037 10.0311 16.0563 10.1876 16.0563 10.3701V15.938C16.0563 16.1075 16.037 16.264 15.992 16.4074C15.9278 16.6356 15.78 16.8182 15.5745 16.9355C15.4074 17.0268 15.2019 17.0724 14.9256 17.0724H14.932Z" fill="#03072D"/>
<path d="M21.1763 19.7129C21.0735 19.7129 20.9643 19.6998 20.8422 19.6672C20.4567 19.5368 20.2255 19.3804 20.0713 19.1782C19.9556 19.0283 19.7886 18.6958 19.9621 18.2264C20.0777 17.9264 20.2062 17.5744 20.3539 17.1636L20.8358 15.8271C21.0092 15.3511 21.1763 14.8687 21.3497 14.3797C21.5168 13.8972 21.6774 13.4278 21.8251 12.991H17.8742C17.6943 12.991 17.5272 12.9584 17.3666 12.8997C17.1611 12.8215 16.9876 12.6715 16.872 12.4759C16.7692 12.2999 16.7178 12.0847 16.7178 11.8174C16.7178 11.5305 16.7756 11.3089 16.8912 11.1328C17.0133 10.9503 17.1867 10.8199 17.3923 10.7482C17.5401 10.696 17.7007 10.6699 17.8613 10.6699H22.6924C23.1228 10.6699 23.4826 10.7742 23.7653 10.9764C24.0608 11.1915 24.2535 11.4914 24.3306 11.85C24.3692 12.026 24.3756 12.2086 24.3499 12.4042L24.3692 12.4172L24.2664 12.8084C24.17 13.154 24.0479 13.5451 23.9066 13.9885C23.7653 14.4253 23.6175 14.8752 23.4569 15.3446C23.2963 15.814 23.1421 16.2704 22.9879 16.7203C22.8337 17.1701 22.6924 17.5809 22.5575 17.9525C22.4226 18.3241 22.3134 18.6306 22.2234 18.8653C22.1528 19.0348 22.0757 19.1717 21.9793 19.2956C21.8508 19.4586 21.6966 19.5759 21.5168 19.6477C21.414 19.6868 21.3047 19.7063 21.1891 19.7063L21.1763 19.7129Z" fill="#03072D"/>
<path d="M18.0544 21.728C17.7845 21.728 17.5661 21.6694 17.3927 21.552C17.2128 21.4281 17.0843 21.2586 17.0136 21.0565C16.9622 20.9065 16.9365 20.7435 16.9365 20.5675V14.8105C16.9365 14.641 16.9622 14.4846 17.0136 14.3346C17.0907 14.1194 17.232 13.9434 17.4248 13.8326C17.5982 13.7348 17.8038 13.6826 18.0608 13.6826C18.337 13.6826 18.5555 13.7348 18.7289 13.8456C18.9216 13.9695 19.0566 14.1455 19.1208 14.3542C19.1658 14.4911 19.185 14.6541 19.185 14.8236V20.5805C19.185 20.7631 19.1593 20.9261 19.1079 21.0761C19.0309 21.2782 18.8959 21.4412 18.7161 21.5585C18.5426 21.6694 18.3242 21.728 18.0479 21.728H18.0544Z" fill="#03072D"/>
<path d="M31.539 19.7063C31.2884 19.7063 31.0893 19.6607 30.9222 19.5759C30.7167 19.4651 30.5689 19.2956 30.4918 19.0804C30.4404 18.937 30.4147 18.7805 30.4147 18.6306V15.3511C30.4147 14.9273 30.3698 14.5492 30.2798 14.2362C30.1963 13.9429 30.0742 13.7016 29.9265 13.5191C29.7787 13.343 29.6053 13.2192 29.3868 13.1279C29.1491 13.0301 28.86 12.9844 28.526 12.9844H27.0419V18.5393C27.0419 18.7153 27.0163 18.8783 26.9649 19.0283C26.8942 19.2434 26.7593 19.4195 26.5665 19.5433C26.3931 19.6542 26.1747 19.7063 25.8984 19.7063C25.6222 19.7063 25.4166 19.6542 25.2431 19.5368C25.0568 19.4195 24.9219 19.25 24.8448 19.0413C24.787 18.8849 24.7549 18.7153 24.7549 18.5458V11.8239C24.7549 11.6479 24.787 11.4784 24.8448 11.3219C24.9219 11.1263 25.0568 10.9568 25.2367 10.846C25.4102 10.7351 25.6222 10.683 25.892 10.683L28.4746 10.6699C29.1363 10.6699 29.7337 10.7677 30.2477 10.9568C30.7873 11.1589 31.2435 11.4653 31.6097 11.8761C31.963 12.2803 32.2328 12.7823 32.4127 13.3626C32.5797 13.9233 32.6697 14.5818 32.6697 15.3185V18.5328C32.6697 18.7023 32.6504 18.8588 32.6118 19.0022C32.5476 19.2239 32.4127 19.413 32.2135 19.5368C32.0401 19.6477 31.8217 19.6998 31.5454 19.6998L31.539 19.7063Z" fill="#03072D"/>
<path d="M37.713 19.765C37.0063 19.765 36.3703 19.6411 35.8114 19.3999C35.2461 19.1522 34.7642 18.8066 34.3724 18.3698C33.9869 17.9395 33.6914 17.4244 33.4922 16.8442C33.2995 16.2769 33.2031 15.6576 33.2031 14.9925V11.8304C33.2031 11.6609 33.2288 11.4979 33.2802 11.348C33.3509 11.1328 33.4922 10.9503 33.6914 10.8329C33.8648 10.7286 34.0833 10.6764 34.3402 10.6764C34.5972 10.6764 34.8221 10.7286 34.9955 10.8394C35.1754 10.9568 35.3167 11.1263 35.3938 11.3284C35.4516 11.4914 35.4838 11.6609 35.4838 11.8435V14.9925C35.4838 15.4033 35.5416 15.7749 35.6508 16.1009C35.6572 16.0944 35.6701 16.0879 35.6765 16.0813C35.8307 15.9509 35.972 15.7619 36.1069 15.5141C36.2483 15.2533 36.3639 14.9534 36.4474 14.6079C36.5309 14.2623 36.5823 13.8972 36.5888 13.5191L36.6401 11.7587C36.653 11.5697 36.6915 11.4262 36.7494 11.2893C36.8329 11.0937 36.9742 10.9307 37.1605 10.8264C37.3275 10.7286 37.5396 10.6764 37.7965 10.6764C38.0535 10.6764 38.2848 10.7286 38.4582 10.8329C38.6638 10.9568 38.8051 11.1328 38.8694 11.348C38.9208 11.5045 38.9336 11.6674 38.9208 11.85L38.8437 13.5321C38.8051 14.145 38.7152 14.7252 38.5674 15.2468C38.4133 15.7945 38.2013 16.2769 37.9314 16.7007C37.7451 16.9876 37.5331 17.2419 37.3019 17.444C37.4432 17.4635 37.5909 17.4766 37.7451 17.4766C38.2655 17.4766 38.7024 17.3723 39.03 17.1701C39.3641 16.968 39.6082 16.6942 39.7752 16.3291C39.9551 15.9444 40.045 15.4946 40.045 14.9795V11.7522C40.045 11.5827 40.0772 11.4262 40.1478 11.2697C40.2313 11.0807 40.3663 10.9307 40.5526 10.8199C40.7196 10.7221 40.9316 10.6699 41.1886 10.6699C41.4455 10.6699 41.6832 10.7286 41.8567 10.8525C42.0366 10.9764 42.1651 11.1524 42.2357 11.348C42.2871 11.4979 42.3128 11.6609 42.3128 11.837V15.0121C42.3128 15.6706 42.2165 16.29 42.0173 16.8572C41.8182 17.4375 41.5098 17.9525 41.1051 18.3828C40.7003 18.8197 40.2056 19.1587 39.6339 19.3999C39.0685 19.6346 38.4197 19.7585 37.7002 19.7585L37.713 19.765Z" fill="#03072D"/>
<path d="M46.6872 19.7068C46.5137 19.7068 46.3531 19.6742 46.1989 19.6155C45.9998 19.5373 45.8327 19.4003 45.7171 19.2178C45.6079 19.0352 45.5501 18.8201 45.5501 18.5528C45.5501 18.2855 45.6015 18.0507 45.7107 17.8747C45.8327 17.6791 46.0062 17.5422 46.2182 17.4705C46.366 17.4183 46.533 17.3922 46.7 17.3922H48.7558V14.8821C48.7558 14.3736 48.698 13.9628 48.5759 13.6499C48.4731 13.3826 48.3382 13.2 48.1584 13.0827C47.9721 12.9653 47.7279 12.9001 47.4388 12.9001C47.2397 12.9001 47.0662 12.9392 46.9056 13.0305C46.7322 13.1218 46.5908 13.2522 46.4623 13.4217C46.3146 13.6108 46.1861 13.8455 46.0769 14.1193C45.9612 14.4062 45.8584 14.7322 45.7813 15.0842L45.0747 18.618C45.0554 18.7484 45.0169 18.8918 44.9719 19.0157C44.9012 19.2243 44.7663 19.3938 44.5864 19.5177C44.413 19.6416 44.1881 19.7003 43.9311 19.7003C43.5457 19.7003 43.2502 19.5894 43.051 19.3743C42.8968 19.2113 42.7298 18.9179 42.8133 18.4419L43.5585 14.6865L42.8904 12.1503C42.8454 11.9808 42.8197 11.8244 42.8197 11.6744C42.8197 11.4397 42.9032 11.2245 43.0574 11.042C43.1988 10.879 43.3979 10.7681 43.6742 10.6964C43.8348 10.6573 43.9633 10.6443 44.0789 10.6443C44.2331 10.6443 44.368 10.6703 44.4901 10.729C44.7213 10.8333 44.8884 11.0159 44.9719 11.2441C45.0169 11.3614 45.049 11.4723 45.0747 11.5766L45.1389 11.8309C45.2867 11.6288 45.4601 11.4527 45.6464 11.2897C45.9034 11.0681 46.2054 10.8985 46.533 10.7812C46.8606 10.6638 47.2397 10.5986 47.6637 10.5986C48.3639 10.5986 48.9742 10.7681 49.4818 11.0941C49.9957 11.4266 50.3876 11.9287 50.651 12.5872C50.8951 13.2 51.0236 13.9563 51.0236 14.8365V18.5462C51.0236 18.7744 51.0043 18.9505 50.9594 19.0939C50.8823 19.3417 50.7088 19.5242 50.4775 19.6155C50.3298 19.6742 50.1499 19.7003 49.9122 19.7003H46.7065L46.6872 19.7068Z" fill="#03072D"/>
<path d="M54.3327 19.7524C54.1593 19.7524 53.9794 19.7002 53.7931 19.5959C53.4976 19.4459 53.2856 19.2504 53.1699 19.0156C53.08 18.8396 52.9772 18.4745 53.2727 18.0312C53.671 17.4118 54.0308 16.825 54.3456 16.2838C54.6604 15.7427 54.943 15.2276 55.1872 14.7452C55.4313 14.2692 55.6433 13.7868 55.836 13.3108C55.8746 13.2065 55.9195 13.1022 55.9581 12.9848H52.9386C52.5789 12.9848 52.2898 12.887 52.0842 12.6914C51.8722 12.4959 51.7501 12.209 51.7244 11.8439L51.6152 9.73799C51.6152 9.52935 51.6409 9.35984 51.6923 9.2164C51.7437 9.06645 51.8722 8.8513 52.1485 8.71438C52.3219 8.6231 52.5339 8.58398 52.7909 8.58398C53.0736 8.58398 53.292 8.64918 53.459 8.77306C53.6196 8.89693 53.7353 9.06645 53.7995 9.26204C53.8509 9.412 53.8766 9.58151 53.8766 9.76407L53.928 10.6703H56.7611C57.1594 10.6703 57.4935 10.7681 57.7569 10.9637C58.0267 11.1658 58.213 11.4657 58.2901 11.8243C58.3287 12.0134 58.3351 12.222 58.3094 12.4437L58.3415 12.4698L58.2451 12.8479C58.0331 13.539 57.789 14.2106 57.5063 14.843C57.2301 15.4754 56.9089 16.1339 56.5556 16.8054C56.2022 17.477 55.7846 18.2398 55.3028 19.0743C55.2386 19.2112 55.1358 19.3547 55.0137 19.4655C54.8595 19.6089 54.6861 19.7002 54.4933 19.7393L54.4419 19.7524H54.3327Z" fill="#03072D"/>
<path d="M68.5365 19.707C68.2859 19.707 68.0868 19.6613 67.9197 19.5766C67.727 19.4723 67.5792 19.3093 67.4893 19.1072C67.4251 18.9572 67.3929 18.7942 67.3929 18.6312V15.3518C67.3929 14.778 67.3158 14.3086 67.1681 13.95C67.0332 13.6305 66.8404 13.3958 66.577 13.2393C66.3072 13.0764 65.941 12.9916 65.4978 12.9916H63.018C62.8381 12.9916 62.6775 12.9655 62.5297 12.9134C62.3241 12.8416 62.1507 12.6917 62.035 12.4961C61.9323 12.3201 61.8809 12.1049 61.8809 11.8376C61.8809 11.5507 61.9387 11.3291 62.0543 11.153C62.17 10.9835 62.3241 10.8466 62.5169 10.7749C62.6711 10.7162 62.8381 10.6836 63.0115 10.6836H65.4656C66.365 10.6836 67.136 10.8661 67.7591 11.2182C68.4016 11.5833 68.8898 12.131 69.211 12.8351C69.513 13.5067 69.6672 14.3477 69.6672 15.3387V18.553C69.6672 18.729 69.6415 18.892 69.5901 19.042C69.5194 19.2571 69.3845 19.4331 69.1918 19.557C69.0183 19.6679 68.7999 19.72 68.5365 19.72V19.707Z" fill="#03072D"/>
<path d="M63.1276 19.7063C62.8578 19.7063 62.6393 19.6476 62.4659 19.5303C62.286 19.4129 62.1575 19.2369 62.0869 19.0217C62.0355 18.8783 62.0098 18.7153 62.0098 18.5458V15.2403C62.0098 15.0577 62.0355 14.8947 62.0869 14.7448C62.1575 14.5361 62.3053 14.3601 62.498 14.2427C62.665 14.1449 62.8771 14.0928 63.134 14.0928C63.4103 14.0928 63.6287 14.1449 63.8022 14.2558C64.0013 14.3796 64.1362 14.5622 64.2005 14.7839C64.239 14.9273 64.2647 15.0838 64.2647 15.2533V18.5588C64.2647 18.7283 64.239 18.8848 64.1876 19.0348C64.1169 19.2434 63.982 19.4129 63.7893 19.5368C63.6158 19.6476 63.3974 19.6998 63.1212 19.6998L63.1276 19.7063Z" fill="#03072D"/>
<path d="M73.8307 19.7068C73.6573 19.7068 73.4967 19.6742 73.3425 19.6155C73.1433 19.5373 72.9763 19.4003 72.8607 19.2178C72.7514 19.0352 72.6936 18.8201 72.6936 18.5528C72.6936 18.2855 72.745 18.0507 72.8542 17.8747C72.9763 17.6791 73.1498 17.5422 73.3618 17.4705C73.5095 17.4183 73.6766 17.3922 73.8436 17.3922H75.8994V14.8821C75.8994 14.3736 75.8416 13.9628 75.7195 13.6499C75.6167 13.3826 75.4818 13.2 75.3019 13.0827C75.1156 12.9653 74.8715 12.9001 74.5824 12.9001C74.3832 12.9001 74.2098 12.9392 74.0492 13.0305C73.8757 13.1218 73.7344 13.2522 73.6059 13.4217C73.4581 13.6108 73.3296 13.8455 73.2204 14.1193C73.1048 14.4062 73.002 14.7322 72.9249 15.0842L72.2182 18.618C72.199 18.7484 72.1604 18.8918 72.1154 19.0157C72.0448 19.2243 71.9099 19.3938 71.73 19.5177C71.5565 19.6416 71.3317 19.7003 71.0747 19.7003C70.6892 19.7003 70.3937 19.5894 70.1946 19.3743C70.0404 19.2113 69.8733 18.9179 69.9569 18.4419L70.7021 14.6865L70.034 12.1503C69.989 11.9808 69.9633 11.8244 69.9633 11.6744C69.9633 11.4397 70.0468 11.2245 70.201 11.042C70.3423 10.879 70.5415 10.7681 70.8177 10.6964C70.9783 10.6573 71.1068 10.6443 71.2225 10.6443C71.3766 10.6443 71.5115 10.6703 71.6336 10.729C71.8649 10.8333 72.0319 11.0159 72.1154 11.2441C72.1604 11.3614 72.1925 11.4723 72.2182 11.5766L72.2825 11.8309C72.4302 11.6288 72.6037 11.4527 72.79 11.2897C73.047 11.0681 73.3489 10.8985 73.6766 10.7812C74.0042 10.6638 74.3832 10.5986 74.8072 10.5986C75.5075 10.5986 76.1178 10.7681 76.6253 11.0941C77.1393 11.4266 77.5312 11.9287 77.7946 12.5872C78.0387 13.2 78.1672 13.9563 78.1672 14.8365V18.5462C78.1672 18.7744 78.1479 18.9505 78.1029 19.0939C78.0258 19.3417 77.8524 19.5242 77.6211 19.6155C77.4733 19.6742 77.2935 19.7003 77.0558 19.7003H73.85L73.8307 19.7068Z" fill="#03072D"/>
<path d="M83.3829 19.765C82.6763 19.765 82.0402 19.6411 81.4813 19.3999C80.916 19.1522 80.4342 18.8066 80.0423 18.3698C79.6568 17.9395 79.3613 17.4244 79.1621 16.8442C78.9694 16.2769 78.873 15.6576 78.873 14.9925V11.8304C78.873 11.6609 78.8987 11.4979 78.9501 11.348C79.0208 11.1328 79.1621 10.9503 79.3613 10.8329C79.5348 10.7286 79.7532 10.6764 80.0102 10.6764C80.2671 10.6764 80.492 10.7286 80.6654 10.8394C80.8453 10.9568 80.9867 11.1263 81.0637 11.3284C81.1216 11.4914 81.1537 11.6609 81.1537 11.8435V14.9925C81.1537 15.4033 81.2115 15.7749 81.3207 16.1009C81.3271 16.0944 81.34 16.0879 81.3464 16.0813C81.5006 15.9509 81.6419 15.7619 81.7768 15.5141C81.9182 15.2533 82.0338 14.9534 82.1173 14.6079C82.2009 14.2623 82.2522 13.8972 82.2587 13.5191L82.3101 11.7587C82.3229 11.5697 82.3615 11.4262 82.4193 11.2893C82.5028 11.0937 82.6441 10.9307 82.8304 10.8264C82.9975 10.7286 83.2095 10.6764 83.4664 10.6764C83.7234 10.6764 83.9547 10.7286 84.1281 10.8329C84.3337 10.9568 84.4751 11.1328 84.5393 11.348C84.5907 11.5045 84.6035 11.6674 84.5907 11.85L84.5136 13.5321C84.4751 14.145 84.3851 14.7252 84.2374 15.2468C84.0832 15.7945 83.8712 16.2769 83.6014 16.7007C83.4151 16.9876 83.2031 17.2419 82.9718 17.444C83.1131 17.4635 83.2609 17.4766 83.415 17.4766C83.9354 17.4766 84.3723 17.3723 84.6999 17.1701C85.034 16.968 85.2781 16.6942 85.4451 16.3291C85.625 15.9444 85.715 15.4946 85.715 14.9795V11.7522C85.715 11.5827 85.7471 11.4262 85.8178 11.2697C85.9013 11.0807 86.0362 10.9307 86.2225 10.8199C86.3895 10.7221 86.6015 10.6699 86.8585 10.6699C87.1155 10.6699 87.3532 10.7286 87.5266 10.8525C87.7065 10.9764 87.835 11.1524 87.9057 11.348C87.9571 11.4979 87.9827 11.6609 87.9827 11.837V15.0121C87.9827 15.6706 87.8864 16.29 87.6872 16.8572C87.4881 17.4375 87.1797 17.9525 86.775 18.3828C86.3702 18.8197 85.8756 19.1587 85.3038 19.3999C84.7385 19.6346 84.0896 19.7585 83.3701 19.7585L83.3829 19.765Z" fill="#03072D"/>
<path d="M93.9002 19.7067C93.6497 19.7067 93.4505 19.661 93.2835 19.5763C93.0908 19.4719 92.943 19.309 92.8531 19.1068C92.7888 18.9569 92.7567 18.7939 92.7567 18.6309V15.3514C92.7567 14.9211 92.7117 14.543 92.6218 14.23C92.5447 13.9432 92.4226 13.7085 92.2684 13.5259C92.1207 13.3499 91.9408 13.2195 91.7224 13.1347C91.4847 13.0369 91.1956 12.9913 90.8615 12.9913H89.2619C89.0755 12.9913 88.9085 12.9652 88.7608 12.913C88.5552 12.8413 88.3817 12.6979 88.2597 12.4958C88.1569 12.3197 88.1055 12.1046 88.1055 11.8373C88.1055 11.5504 88.1633 11.3287 88.2789 11.1527C88.3946 10.9767 88.5552 10.8463 88.7415 10.768C88.8892 10.7094 89.0627 10.6768 89.249 10.6768H90.8165C91.4847 10.6768 92.0886 10.7746 92.6025 10.9767C93.1357 11.1788 93.5919 11.4917 93.958 11.896C94.3178 12.3002 94.5941 12.8022 94.7675 13.3825C94.9345 13.9432 95.0245 14.5951 95.0245 15.3254V18.5396C95.0245 18.7157 94.9988 18.8786 94.9474 19.0286C94.8767 19.2438 94.7418 19.4198 94.5491 19.5437C94.3756 19.6545 94.1572 19.7067 93.8938 19.7067H93.9002Z" fill="#03072D"/>
<path d="M96.8805 19.7063C96.6107 19.7063 96.3923 19.6476 96.2188 19.5303C96.0389 19.4129 95.9105 19.2369 95.8398 19.0217C95.7884 18.8783 95.7627 18.7153 95.7627 18.5458V15.2403C95.7627 15.0577 95.7884 14.8947 95.8398 14.7448C95.9105 14.5361 96.0582 14.3601 96.251 14.2427C96.418 14.1449 96.63 14.0928 96.887 14.0928C97.1632 14.0928 97.3816 14.1449 97.5551 14.2558C97.7542 14.3796 97.8892 14.5622 97.9534 14.7839C97.9919 14.9273 98.0176 15.0838 98.0176 15.2533V18.5588C98.0176 18.7283 97.9919 18.8848 97.9405 19.0348C97.8699 19.2434 97.735 19.4129 97.5422 19.5368C97.3688 19.6476 97.1504 19.6998 96.8741 19.6998L96.8805 19.7063Z" fill="#03072D"/>
<path d="M102.29 19.707C102.04 19.707 101.841 19.6613 101.674 19.5766C101.481 19.4723 101.333 19.3093 101.243 19.1072C101.179 18.9572 101.147 18.7942 101.147 18.6312V15.3518C101.147 14.778 101.07 14.3086 100.922 13.95C100.787 13.6305 100.594 13.3958 100.331 13.2393C100.061 13.0764 99.6949 12.9916 99.2517 12.9916H96.7719C96.592 12.9916 96.4314 12.9655 96.2836 12.9134C96.0781 12.8416 95.9046 12.6917 95.789 12.4961C95.6862 12.3201 95.6348 12.1049 95.6348 11.8376C95.6348 11.5507 95.6926 11.3291 95.8082 11.153C95.9239 10.9835 96.078 10.8466 96.2708 10.7749C96.425 10.7162 96.592 10.6836 96.7655 10.6836H99.2195C100.119 10.6836 100.89 10.8661 101.513 11.2182C102.155 11.5833 102.644 12.131 102.965 12.8351C103.267 13.5067 103.421 14.3477 103.421 15.3387V18.553C103.421 18.729 103.395 18.892 103.344 19.042C103.273 19.2571 103.138 19.4331 102.946 19.557C102.772 19.6679 102.554 19.72 102.29 19.72V19.707Z" fill="#03072D"/>
<path d="M15.5614 17.0986C15.3687 17.0986 15.2209 17.1247 15.1246 17.1834C15.0282 17.2421 14.964 17.3268 14.9254 17.4311C14.8933 17.5355 14.874 17.6659 14.874 17.8223C14.874 18.0701 14.9254 18.2526 15.0218 18.357C15.1181 18.4613 15.3045 18.5199 15.5743 18.5199C15.767 18.5199 15.9148 18.4873 16.0111 18.4287C16.1075 18.3635 16.1717 18.2852 16.2103 18.1809C16.2424 18.0766 16.2617 17.9527 16.2617 17.7962C16.2617 17.5485 16.2167 17.3659 16.1203 17.2616C16.0304 17.1573 15.8441 17.0986 15.5614 17.0986Z" fill="white"/>
<path d="M15.1821 15.8012C15.2657 15.8403 15.3941 15.8599 15.574 15.8599C15.7539 15.8599 15.876 15.8403 15.9595 15.7947C16.0366 15.7491 16.0944 15.6839 16.1201 15.5926C16.1458 15.5013 16.1586 15.4035 16.1586 15.2862V9.71827C16.1586 9.5944 16.1458 9.49008 16.1201 9.40532C16.0944 9.32057 16.0366 9.25537 15.9531 9.20973C15.8695 9.16409 15.7411 9.14453 15.5612 9.14453C15.3813 9.14453 15.2657 9.17061 15.1821 9.21625C15.0986 9.26841 15.0408 9.3336 15.0151 9.41836C14.9894 9.50312 14.9766 9.60092 14.9766 9.71827V15.2992C14.9766 15.4231 14.9894 15.5274 15.0151 15.6122C15.0408 15.6969 15.0986 15.7621 15.1821 15.8012Z" fill="white"/>
<path d="M24.4338 11.3155C24.3824 11.0873 24.2668 10.9048 24.0869 10.7744C23.9006 10.6375 23.65 10.5723 23.3352 10.5723H18.5041C18.4013 10.5723 18.2985 10.5853 18.2086 10.6179C18.1187 10.6505 18.0416 10.7027 17.9902 10.7874C17.9388 10.8657 17.9131 10.9895 17.9131 11.159C17.9131 11.3286 17.9388 11.4459 17.9902 11.5372C18.0416 11.6285 18.1187 11.6871 18.2086 11.7263C18.2985 11.7654 18.4013 11.7784 18.517 11.7784H23.2324C23.1553 12.0066 23.0783 12.2413 22.9883 12.5021C22.8406 12.9455 22.6799 13.4149 22.5065 13.9104C22.333 14.3994 22.166 14.8884 21.9925 15.3643C21.8191 15.8403 21.6585 16.2901 21.5107 16.7009C21.363 17.1181 21.228 17.4702 21.1124 17.7636C21.0482 17.9331 21.061 18.0765 21.1445 18.1874C21.228 18.2982 21.3822 18.396 21.6135 18.4742C21.7548 18.5068 21.8641 18.5134 21.9476 18.4808C22.0311 18.4482 22.1082 18.3895 22.1724 18.3047C22.2367 18.22 22.2945 18.1222 22.3395 18.0179C22.4294 17.7831 22.5386 17.4832 22.6671 17.1116C22.802 16.74 22.9433 16.3358 23.0975 15.8859C23.2517 15.4425 23.4059 14.9796 23.5665 14.5167C23.7271 14.0473 23.8749 13.5974 24.0162 13.1671C24.1575 12.7368 24.2732 12.3456 24.3695 12.0066C24.4466 11.7523 24.4788 11.5242 24.4338 11.3155Z" fill="white"/>
<path d="M19.0881 13.6691C19.0046 13.6169 18.8761 13.5908 18.7155 13.5908C18.5549 13.5908 18.4392 13.6169 18.3493 13.6625C18.2658 13.7147 18.208 13.7799 18.1758 13.8712C18.1437 13.9624 18.1309 14.0602 18.1309 14.1646V19.9215C18.1309 20.0389 18.1437 20.1432 18.1758 20.228C18.208 20.3192 18.2593 20.391 18.3429 20.4431C18.42 20.4953 18.542 20.5214 18.6962 20.5214C18.8632 20.5214 18.9917 20.4953 19.0688 20.4431C19.1523 20.391 19.2101 20.3192 19.2423 20.2345C19.2744 20.1497 19.2872 20.0519 19.2872 19.9346V14.1776C19.2872 14.0602 19.2744 13.9624 19.2487 13.8777C19.223 13.7929 19.1652 13.7212 19.0817 13.6691H19.0881Z" fill="white"/>
<path d="M31.8469 11.5959C31.545 11.2503 31.1595 10.9961 30.7034 10.8265C30.2473 10.657 29.7205 10.5723 29.123 10.5723L26.534 10.5853C26.3734 10.5853 26.2513 10.6114 26.1678 10.6635C26.0843 10.7157 26.0265 10.7874 25.9879 10.8787C25.9558 10.97 25.9365 11.0678 25.9365 11.1721V17.894C25.9365 17.9983 25.9558 18.1026 25.9879 18.1939C26.02 18.2852 26.0843 18.3634 26.1678 18.4156C26.2513 18.4677 26.3734 18.4938 26.534 18.4938C26.701 18.4938 26.8295 18.4677 26.9066 18.4156C26.9837 18.3634 27.0479 18.2917 27.0801 18.1939C27.1122 18.1026 27.125 17.9983 27.125 17.8809V11.7719H29.1551C29.5599 11.7719 29.9132 11.8306 30.2151 11.9545C30.5171 12.0783 30.774 12.2609 30.9732 12.5021C31.1724 12.7434 31.3265 13.0563 31.4358 13.4214C31.545 13.7865 31.5964 14.2103 31.5964 14.6928V17.9722C31.5964 18.0635 31.6092 18.1483 31.6413 18.233C31.6735 18.3178 31.7313 18.383 31.8148 18.4286C31.8983 18.4742 32.0204 18.4938 32.1746 18.4938C32.3416 18.4938 32.4701 18.4677 32.5472 18.4156C32.6243 18.3634 32.6885 18.2917 32.7142 18.1939C32.7399 18.1026 32.7527 17.9983 32.7527 17.8809V14.6667C32.7527 13.9821 32.6757 13.3823 32.5215 12.8737C32.3673 12.3652 32.136 11.9414 31.8341 11.5959H31.8469Z" fill="white"/>
<path d="M42.2036 10.6639C42.1201 10.6052 41.998 10.5791 41.8438 10.5791C41.6896 10.5791 41.5612 10.6052 41.4776 10.6508C41.3941 10.6965 41.3363 10.7617 41.2978 10.8464C41.2592 10.9312 41.2464 11.0094 41.2464 11.1007V14.328C41.2464 14.9278 41.1372 15.4559 40.9252 15.9123C40.7067 16.3752 40.3919 16.7338 39.9679 16.988C39.5439 17.2423 39.0235 17.3792 38.4004 17.3792C37.8093 17.3792 37.3083 17.2554 36.8842 17.0076C36.8136 16.9685 36.7493 16.9163 36.6851 16.8707C36.8971 16.8185 37.0962 16.7403 37.289 16.6229C37.6102 16.4208 37.8929 16.1274 38.1306 15.7558C38.3683 15.3842 38.561 14.9474 38.6959 14.4584C38.8308 13.9694 38.9208 13.4348 38.9529 12.8675L39.03 11.1659C39.0364 11.0616 39.03 10.9638 39.0043 10.879C38.9786 10.7943 38.9208 10.7225 38.8308 10.6704C38.7409 10.6182 38.6188 10.5921 38.4518 10.5921C38.2847 10.5921 38.1691 10.6182 38.0856 10.6639C38.0021 10.7095 37.9443 10.7812 37.9057 10.866C37.8736 10.9507 37.8479 11.042 37.8415 11.1398L37.7901 12.8936C37.7837 13.3109 37.7258 13.7151 37.6295 14.1063C37.5331 14.4975 37.3982 14.843 37.2312 15.143C37.0641 15.4494 36.8778 15.6841 36.6787 15.8601C36.4795 16.0362 36.2547 16.1209 36.017 16.1209H36.0041C35.972 16.0688 35.9399 16.0166 35.9142 15.9579C35.6957 15.5015 35.5865 14.9669 35.5865 14.3541V11.205C35.5865 11.0876 35.5673 10.9833 35.5351 10.8921C35.4966 10.8008 35.4388 10.7225 35.3553 10.6704C35.2717 10.6182 35.1497 10.5921 34.9891 10.5921C34.8285 10.5921 34.7064 10.6182 34.6165 10.6704C34.5265 10.7225 34.4687 10.8008 34.4366 10.8921C34.4045 10.9833 34.3916 11.0876 34.3916 11.192V14.3541C34.3916 14.9604 34.4751 15.5211 34.6486 16.0296C34.822 16.5382 35.0726 16.9815 35.4131 17.3597C35.7536 17.7378 36.1647 18.0377 36.6594 18.2529C37.1541 18.468 37.713 18.5724 38.349 18.5724C38.985 18.5724 39.576 18.468 40.0771 18.2594C40.5782 18.0508 41.0022 17.7574 41.3556 17.3727C41.7089 16.9946 41.9723 16.5512 42.1458 16.0427C42.3192 15.5341 42.4092 14.98 42.4092 14.3801V11.205C42.4092 11.0876 42.3963 10.9833 42.3642 10.8986C42.3321 10.8073 42.2743 10.7356 42.1907 10.6769L42.2036 10.6639Z" fill="white"/>
<path d="M49.8166 10.9176C49.399 10.6438 48.8915 10.5068 48.294 10.5068C47.9342 10.5068 47.6194 10.559 47.3496 10.6568C47.0798 10.7546 46.8421 10.8915 46.6301 11.0741C46.4181 11.2501 46.2382 11.4652 46.084 11.713C45.9298 11.9607 45.7885 12.2281 45.6664 12.528C45.6407 12.5932 45.6215 12.6649 45.6022 12.7301L45.1782 11.0675C45.1589 10.9893 45.1332 10.898 45.1011 10.8067C45.069 10.7155 44.9983 10.6438 44.9019 10.5981C44.8056 10.5525 44.6578 10.5525 44.4522 10.5981C44.2852 10.6438 44.1696 10.7024 44.1053 10.7807C44.0411 10.8589 44.009 10.9437 44.009 11.0415C44.009 11.1393 44.0282 11.2501 44.0604 11.374L44.7606 14.0406L43.9897 17.9133C43.9576 18.1089 43.9897 18.2589 44.0796 18.3632C44.1696 18.4675 44.3366 18.5197 44.5679 18.5197C44.7156 18.5197 44.8313 18.4936 44.9148 18.4349C44.9983 18.3762 45.0561 18.298 45.0947 18.2002C45.1268 18.1024 45.1589 17.9981 45.1718 17.8807L45.8849 14.3339C45.9748 13.9493 46.0776 13.5972 46.2061 13.2843C46.3346 12.9648 46.4823 12.691 46.6622 12.4628C46.8357 12.2281 47.0477 12.052 47.2854 11.9216C47.5231 11.7912 47.7865 11.726 48.0756 11.726C48.4739 11.726 48.8079 11.8173 49.0842 11.9933C49.3604 12.1694 49.5724 12.4497 49.7202 12.8214C49.868 13.193 49.9386 13.6755 49.9386 14.2557V17.32H47.3368C47.2211 17.32 47.1183 17.3331 47.0284 17.3656C46.9385 17.3982 46.8614 17.4569 46.81 17.5417C46.7586 17.6264 46.7329 17.7568 46.7329 17.9264C46.7329 18.0893 46.7586 18.2067 46.81 18.2915C46.8614 18.3762 46.9385 18.4349 47.0284 18.474C47.1183 18.5066 47.2211 18.5262 47.3239 18.5262H50.5297C50.6967 18.5262 50.8188 18.5131 50.9023 18.4805C50.9858 18.4479 51.0372 18.3893 51.0629 18.3045C51.0886 18.2197 51.1014 18.0893 51.1014 17.9198V14.2101C51.1014 13.3951 50.9922 12.717 50.7738 12.1694C50.5554 11.6217 50.2341 11.211 49.8166 10.9371V10.9176Z" fill="white"/>
<path d="M58.393 11.2898C58.3416 11.0616 58.2389 10.8856 58.0718 10.7617C57.9048 10.6379 57.6799 10.5727 57.3973 10.5727H54.0438L53.9667 9.11223C53.9667 8.98835 53.9538 8.87752 53.9217 8.78624C53.8896 8.69496 53.8382 8.61672 53.7675 8.56457C53.6968 8.51241 53.5812 8.48633 53.427 8.48633C53.26 8.48633 53.1251 8.51241 53.0287 8.55805C52.9323 8.6102 52.8681 8.6754 52.836 8.76016C52.8039 8.84492 52.791 8.94271 52.791 9.06007L52.8938 11.1464C52.9131 11.3681 52.9709 11.5311 53.0801 11.6289C53.1893 11.7267 53.3499 11.7788 53.5684 11.7788H57.3459C57.2367 12.1439 57.1146 12.509 56.9733 12.8611C56.7805 13.3501 56.5557 13.8456 56.3051 14.3411C56.0546 14.8366 55.7719 15.3582 55.4507 15.9058C55.1295 16.4535 54.7697 17.0468 54.365 17.6792C54.2622 17.8422 54.2365 17.9857 54.3007 18.1095C54.365 18.2334 54.4999 18.3508 54.7119 18.4551C54.834 18.5268 54.9432 18.5529 55.0331 18.5333C55.123 18.5138 55.2066 18.4681 55.2837 18.3964C55.3607 18.3247 55.425 18.2334 55.4764 18.1291C55.9518 17.3011 56.3629 16.5513 56.7163 15.8798C57.0696 15.2082 57.378 14.5693 57.6542 13.9499C57.9241 13.337 58.1618 12.6916 58.3673 12.0201L58.3545 12.007C58.4316 11.7332 58.4509 11.4919 58.4059 11.2768L58.393 11.2898Z" fill="white"/>
<path d="M68.1321 11.0352C67.5925 10.7287 66.9179 10.5723 66.1085 10.5723H63.6544C63.5516 10.5723 63.4488 10.5918 63.3653 10.6244C63.2818 10.657 63.2047 10.7157 63.1533 10.8005C63.1019 10.8787 63.0762 11.0026 63.0762 11.1721C63.0762 11.3416 63.1019 11.459 63.1533 11.5502C63.2047 11.6415 63.2753 11.7002 63.3653 11.7328C63.4552 11.7654 63.5516 11.7784 63.6672 11.7784H66.147C66.6931 11.7784 67.1428 11.8893 67.509 12.1044C67.8752 12.3196 68.1386 12.6456 68.3184 13.0759C68.4983 13.5062 68.5883 14.0473 68.5883 14.6993V17.9787C68.5883 18.07 68.6075 18.1548 68.6396 18.2395C68.6718 18.3243 68.736 18.3895 68.8195 18.4351C68.903 18.4808 69.0251 18.5003 69.1793 18.5003C69.3335 18.5003 69.4555 18.4742 69.5455 18.4221C69.629 18.3699 69.6868 18.2982 69.7189 18.2004C69.7511 18.1091 69.7639 18.0048 69.7639 17.8875V14.6732C69.7639 13.7604 69.629 13.0041 69.3528 12.4043C69.0829 11.8045 68.6718 11.3481 68.1321 11.0417V11.0352Z" fill="white"/>
<path d="M64.1613 14.0802C64.0778 14.028 63.9493 14.002 63.7823 14.002C63.6217 14.002 63.506 14.028 63.4225 14.0737C63.339 14.1193 63.2812 14.191 63.2491 14.2823C63.217 14.3736 63.2041 14.4714 63.2041 14.5887V17.8943C63.2041 17.9986 63.217 18.1029 63.2491 18.1942C63.2812 18.2855 63.3326 18.3637 63.4161 18.4158C63.4932 18.468 63.6153 18.4941 63.7694 18.4941C63.9365 18.4941 64.065 18.468 64.1485 18.4158C64.232 18.3637 64.2898 18.292 64.3219 18.2007C64.3541 18.1094 64.3669 18.0116 64.3669 17.9073V14.6018C64.3669 14.4844 64.3541 14.3866 64.3284 14.2953C64.3027 14.2041 64.2448 14.1323 64.1613 14.0802Z" fill="white"/>
<path d="M76.9591 10.9176C76.5416 10.6438 76.034 10.5068 75.4366 10.5068C75.0768 10.5068 74.762 10.559 74.4922 10.6568C74.2224 10.7546 73.9847 10.8915 73.7727 11.0741C73.5607 11.2501 73.3808 11.4652 73.2266 11.713C73.0724 11.9607 72.9311 12.2281 72.809 12.528C72.7833 12.5932 72.764 12.6649 72.7448 12.7301L72.3208 11.0675C72.3015 10.9893 72.2758 10.898 72.2437 10.8067C72.2116 10.7155 72.1409 10.6438 72.0445 10.5981C71.9482 10.5525 71.8004 10.5525 71.5948 10.5981C71.4278 10.6438 71.3121 10.7024 71.2479 10.7807C71.1837 10.8589 71.1515 10.9437 71.1515 11.0415C71.1515 11.1393 71.1708 11.2501 71.2029 11.374L71.9032 14.0406L71.1323 17.9133C71.1001 18.1089 71.1323 18.2589 71.2222 18.3632C71.3121 18.4675 71.4792 18.5197 71.7105 18.5197C71.8582 18.5197 71.9739 18.4936 72.0574 18.4349C72.1409 18.3762 72.1987 18.298 72.2373 18.2002C72.2694 18.1024 72.3015 17.9981 72.3143 17.8807L73.0274 14.3339C73.1174 13.9493 73.2202 13.5972 73.3487 13.2843C73.4772 12.9648 73.6249 12.691 73.8048 12.4628C73.9782 12.2281 74.1903 12.052 74.428 11.9216C74.6657 11.7912 74.929 11.726 75.2181 11.726C75.6165 11.726 75.9505 11.8173 76.2268 11.9933C76.503 12.1694 76.715 12.4497 76.8628 12.8214C77.0105 13.193 77.0812 13.6755 77.0812 14.2557V17.32H74.4793C74.3637 17.32 74.2609 17.3331 74.171 17.3656C74.081 17.3982 74.0039 17.4569 73.9525 17.5417C73.9012 17.6264 73.8755 17.7568 73.8755 17.9264C73.8755 18.0893 73.9012 18.2067 73.9525 18.2915C74.0039 18.3762 74.081 18.4349 74.171 18.474C74.2609 18.5066 74.3637 18.5262 74.4665 18.5262H77.6722C77.8393 18.5262 77.9613 18.5131 78.0449 18.4805C78.1284 18.4479 78.1798 18.3893 78.2055 18.3045C78.2312 18.2197 78.244 18.0893 78.244 17.9198V14.2101C78.244 13.3951 78.1348 12.717 77.9164 12.1694C77.6979 11.6217 77.3767 11.211 76.9591 10.9371V10.9176Z" fill="white"/>
<path d="M87.8677 10.6639C87.7841 10.6052 87.6621 10.5791 87.5079 10.5791C87.3537 10.5791 87.2252 10.6052 87.1417 10.6508C87.0582 10.6965 87.0004 10.7617 86.9618 10.8464C86.9233 10.9312 86.9104 11.0094 86.9104 11.1007V14.328C86.9104 14.9278 86.8012 15.4559 86.5892 15.9123C86.3708 16.3752 86.056 16.7338 85.632 16.988C85.208 17.2423 84.6876 17.3792 84.0645 17.3792C83.4734 17.3792 82.9723 17.2554 82.5483 17.0076C82.4776 16.9685 82.4134 16.9163 82.3492 16.8707C82.5612 16.8185 82.7603 16.7403 82.953 16.6229C83.2743 16.4208 83.5569 16.1274 83.7946 15.7558C84.0323 15.3842 84.2251 14.9474 84.36 14.4584C84.4949 13.9694 84.5848 13.4348 84.6169 12.8675L84.694 11.1659C84.7005 11.0616 84.694 10.9638 84.6683 10.879C84.6426 10.7943 84.5848 10.7225 84.4949 10.6704C84.4049 10.6182 84.2829 10.5921 84.1158 10.5921C83.9488 10.5921 83.8332 10.6182 83.7497 10.6639C83.6661 10.7095 83.6083 10.7812 83.5698 10.866C83.5377 10.9507 83.512 11.042 83.5055 11.1398L83.4541 12.8936C83.4477 13.3109 83.3899 13.7151 83.2935 14.1063C83.1972 14.4975 83.0623 14.843 82.8952 15.143C82.7282 15.4494 82.5419 15.6841 82.3427 15.8601C82.1436 16.0362 81.9187 16.1209 81.681 16.1209H81.6682C81.6361 16.0688 81.6039 16.0166 81.5782 15.9579C81.3598 15.5015 81.2506 14.9669 81.2506 14.3541V11.205C81.2506 11.0876 81.2313 10.9833 81.1992 10.8921C81.1607 10.8008 81.1028 10.7225 81.0193 10.6704C80.9358 10.6182 80.8137 10.5921 80.6531 10.5921C80.4925 10.5921 80.3705 10.6182 80.2805 10.6704C80.1906 10.7225 80.1328 10.8008 80.1006 10.8921C80.0685 10.9833 80.0557 11.0876 80.0557 11.192V14.3541C80.0557 14.9604 80.1392 15.5211 80.3126 16.0296C80.4861 16.5382 80.7366 16.9815 81.0771 17.3597C81.4176 17.7378 81.8288 18.0377 82.3235 18.2529C82.8181 18.468 83.377 18.5724 84.0131 18.5724C84.6491 18.5724 85.2401 18.468 85.7412 18.2594C86.2423 18.0508 86.6663 17.7574 87.0196 17.3727C87.373 16.9946 87.6364 16.5512 87.8098 16.0427C87.9833 15.5341 88.0732 14.98 88.0732 14.3801V11.205C88.0732 11.0876 88.0604 10.9833 88.0283 10.8986C87.9961 10.8073 87.9383 10.7356 87.8548 10.6769L87.8677 10.6639Z" fill="white"/>
<path d="M94.1956 11.6157C93.8872 11.2702 93.5081 11.0159 93.052 10.8399C92.5959 10.6639 92.0691 10.5791 91.4652 10.5791H89.8977C89.782 10.5791 89.6857 10.5987 89.5957 10.6313C89.5058 10.6639 89.4351 10.7225 89.3837 10.8073C89.3323 10.8855 89.3066 11.0094 89.3066 11.1789C89.3066 11.3484 89.3323 11.4658 89.3837 11.5571C89.4351 11.6483 89.5058 11.707 89.5957 11.7396C89.6857 11.7722 89.7885 11.7853 89.9105 11.7853H91.5102C91.9149 11.7853 92.2683 11.8439 92.5702 11.9678C92.8721 12.0917 93.1291 12.2742 93.3347 12.5155C93.5403 12.7632 93.6945 13.0697 93.7972 13.4348C93.9 13.7999 93.9514 14.2237 93.9514 14.7061V17.9856C93.9514 18.0769 93.9707 18.1616 94.0028 18.2464C94.035 18.3311 94.0992 18.3963 94.1827 18.442C94.2662 18.4876 94.3883 18.5072 94.5425 18.5072C94.6967 18.5072 94.8187 18.4811 94.9087 18.4289C94.9922 18.3768 95.05 18.305 95.0821 18.2072C95.1142 18.116 95.1271 18.0117 95.1271 17.8943V14.68C95.1271 14.002 95.05 13.4087 94.8958 12.9001C94.7416 12.3916 94.5103 11.9678 94.202 11.6223L94.1956 11.6157Z" fill="white"/>
<path d="M97.9084 14.0802C97.8249 14.028 97.6964 14.002 97.5294 14.002C97.3687 14.002 97.2531 14.028 97.1696 14.0737C97.0861 14.1193 97.0283 14.191 96.9961 14.2823C96.964 14.3736 96.9512 14.4714 96.9512 14.5887V17.8943C96.9512 17.9986 96.964 18.1029 96.9961 18.1942C97.0283 18.2855 97.0797 18.3637 97.1632 18.4158C97.2403 18.468 97.3623 18.4941 97.5165 18.4941C97.6835 18.4941 97.812 18.468 97.8956 18.4158C97.9791 18.3637 98.0369 18.292 98.069 18.2007C98.1011 18.1094 98.114 18.0116 98.114 17.9073V14.6018C98.114 14.4844 98.1011 14.3866 98.0754 14.2953C98.0497 14.2041 97.9919 14.1323 97.9084 14.0802Z" fill="white"/>
<path d="M103.106 12.4046C102.836 11.8048 102.425 11.3484 101.885 11.042C101.345 10.7356 100.671 10.5791 99.8614 10.5791H97.4073C97.3045 10.5791 97.2017 10.5987 97.1182 10.6313C97.0347 10.6639 96.9576 10.7225 96.9062 10.8073C96.8548 10.8855 96.8291 11.0094 96.8291 11.1789C96.8291 11.3484 96.8548 11.4658 96.9062 11.5571C96.9576 11.6483 97.0283 11.707 97.1182 11.7396C97.2081 11.7722 97.3045 11.7853 97.4201 11.7853H99.8999C100.446 11.7853 100.896 11.8961 101.262 12.1113C101.628 12.3264 101.891 12.6524 102.071 13.0827C102.251 13.513 102.341 14.0541 102.341 14.7061V17.9856C102.341 18.0769 102.36 18.1616 102.393 18.2464C102.425 18.3311 102.489 18.3963 102.572 18.442C102.656 18.4876 102.778 18.5072 102.932 18.5072C103.086 18.5072 103.208 18.4811 103.298 18.4289C103.382 18.3768 103.44 18.305 103.472 18.2072C103.504 18.116 103.517 18.0117 103.517 17.8943V14.68C103.517 13.7673 103.382 13.011 103.106 12.4112V12.4046Z" fill="white"/>
</g>
<defs>
<linearGradient id="paint0_linear_527_5826" x1="58.9389" y1="-3.29552" x2="59.2168" y2="28.7426" gradientUnits="userSpaceOnUse">
<stop offset="0.12" stop-color="#4C6596"/>
<stop offset="0.44" stop-color="#3D4E88"/>
<stop offset="0.61" stop-color="#35417B"/>
<stop offset="0.91" stop-color="#2A3069"/>
</linearGradient>
<clipPath id="clip0_527_5826">
<rect width="117" height="29" fill="white" transform="translate(0.585938 0.140625)"/>
</clipPath>
</defs>
</svg>
