<svg width="41" height="41" viewBox="0 0 41 41" fill="none" xmlns="http://www.w3.org/2000/svg">
<path d="M14.4434 34.4483C14.4434 34.4483 14.5429 33.8337 15.1331 33.5264" stroke="white" stroke-width="0.3" stroke-miterlimit="10" stroke-linecap="round"/>
<path d="M22.0593 38.1357C21.6469 38.15 21.2344 38.1643 20.8291 38.1643C21.2415 38.1643 21.654 38.15 22.0593 38.1357Z" fill="#14C197"/>
<path d="M20.8223 38.1643C20.4098 38.1643 19.9974 38.1429 19.585 38.1357C19.9974 38.1572 20.4098 38.1643 20.8223 38.1643Z" fill="#14C197"/>
<path d="M20.8222 40.3017C20.5165 40.3017 20.2036 40.2946 19.8978 40.2803L19.5281 40.266C16.7121 40.1373 13.882 39.6084 11.1016 38.6865C7.4466 37.4786 4.5098 34.7342 3.04495 31.1678C2.93117 30.8891 2.82451 30.6103 2.73207 30.3173C1.66543 27.094 1.125 23.8206 1.125 20.5973C1.125 17.374 1.62988 14.3222 2.63251 11.199C3.96226 7.03224 7.25461 3.7446 11.4287 2.4081C14.5504 1.41467 17.7077 0.907227 20.8222 0.907227C23.9368 0.907227 27.3145 1.4504 30.5429 2.51531C34.4823 3.81607 37.6111 6.94647 38.9124 10.8845C39.979 14.115 40.5195 17.3812 40.5195 20.6045C40.5195 23.8278 39.979 27.1011 38.9124 30.3244C38.8129 30.6318 38.692 30.9391 38.5711 31.2321C37.0991 34.7699 34.1765 37.4929 30.5429 38.6936C27.7696 39.6156 24.9466 40.1445 22.152 40.2731L21.7467 40.2874C21.4409 40.2946 21.128 40.3089 20.8222 40.3089V40.3017Z" fill="#347850"/>
<path d="M20.8226 39.237C20.5239 39.237 20.2252 39.2299 19.9266 39.2156L19.5568 39.2013C16.8476 39.0798 14.117 38.5652 11.429 37.679C8.06557 36.564 5.37054 34.0483 4.02657 30.7678C3.91991 30.5105 3.82036 30.2532 3.73503 29.9887C2.70394 26.8726 2.17773 23.7136 2.17773 20.6047C2.17773 17.4957 2.66839 14.5511 3.62836 11.5351C4.85855 7.68998 7.89491 4.65963 11.7419 3.43034C14.7569 2.46549 17.8075 1.97949 20.8083 1.97949C23.8091 1.97949 27.0802 2.50123 30.1947 3.5304C33.8142 4.7311 36.6941 7.60421 37.8888 11.2206C38.9198 14.3367 39.4461 17.4957 39.4461 20.6047C39.4461 23.7136 38.9198 26.8726 37.8888 29.9887C37.7963 30.2746 37.6897 30.5534 37.5759 30.8249C36.2248 34.0768 33.5369 36.5783 30.1947 37.679C27.5068 38.5652 24.7833 39.0798 22.0883 39.2013L21.6972 39.2156C21.3985 39.2227 21.0999 39.237 20.8083 39.237H20.8226Z" fill="#9AD5C4"/>
<path d="M36.9008 11.557C35.8057 8.24797 33.196 5.6393 29.8823 4.5458C26.8673 3.54521 23.8381 3.04492 20.823 3.04492C17.808 3.04492 14.9921 3.51663 12.0766 4.44574C8.53536 5.57497 5.78344 8.32658 4.6528 11.8644C3.72127 14.7804 3.25195 17.7035 3.25195 20.6052C3.25195 23.607 3.75683 26.6373 4.75236 29.6533C4.83058 29.8963 4.92302 30.1322 5.01546 30.3609C6.23143 33.3341 8.69892 35.6497 11.7708 36.6646C14.3734 37.5294 16.9902 38.0154 19.5928 38.1369C20.0053 38.1512 20.4177 38.1655 20.8301 38.1655C21.2426 38.1655 21.655 38.144 22.0603 38.1369C24.6629 38.0154 27.2726 37.5294 29.8823 36.6646C32.94 35.6569 35.3933 33.3555 36.6164 30.4109C36.723 30.1608 36.8155 29.9106 36.9008 29.6533C37.8963 26.6373 38.4012 23.6141 38.4012 20.6052C38.4012 17.5963 37.8963 14.5731 36.9008 11.557Z" fill="url(#paint0_linear_527_5769)"/>
<path d="M12.8433 6.78917C12.8433 7.51102 11.5491 7.42525 9.66468 8.71887C6.75632 10.7129 7.51719 12.371 6.42922 12.0494C5.76079 11.8493 6.6141 9.54792 8.38472 8.09707C10.1553 6.64623 12.8433 6.08876 12.8433 6.78917Z" fill="white"/>
<path d="M5.90335 14.3722C6.28037 14.3722 6.586 14.065 6.586 13.6861C6.586 13.3072 6.28037 13 5.90335 13C5.52633 13 5.2207 13.3072 5.2207 13.6861C5.2207 14.065 5.52633 14.3722 5.90335 14.3722Z" fill="white"/>
<path opacity="0.07" d="M29.8746 4.5458C26.8596 3.54521 23.8304 3.04492 20.8153 3.04492C17.8003 3.04492 14.9844 3.51663 12.0689 4.44574C8.52767 5.57497 5.77575 8.32658 4.64511 11.8644C4.3749 12.7149 4.14735 13.5654 3.94824 14.423C7.02727 11.7214 19.7345 1.89425 35.3429 8.541C33.999 6.68991 32.0932 5.2748 29.8746 4.5458Z" fill="white"/>
<path d="M5.01546 30.3602C6.23143 33.3334 8.69892 35.649 11.7708 36.6639C14.3734 37.5287 16.9902 38.0147 19.5928 38.1362C20.0053 38.1505 20.4177 38.1648 20.8301 38.1648C21.2426 38.1648 21.655 38.1433 22.0603 38.1362C24.6629 38.0147 27.2726 37.5287 29.8823 36.6639C32.94 35.6562 35.3933 33.3548 36.6164 30.4102C36.723 30.1601 36.8155 29.9099 36.9008 29.6526C37.8821 26.6866 38.3799 23.7135 38.4012 20.7546C38.3514 22.1983 37.4626 33.7836 22.0603 35.4417C5.627 37.2142 3.25195 20.6045 3.25195 20.6045C3.25195 23.6062 3.75683 26.6366 4.75236 29.6526C4.83058 29.8956 4.92302 30.1315 5.01546 30.3602Z" fill="#00844E"/>
<path fill-rule="evenodd" clip-rule="evenodd" d="M30.5152 14.8222C29.6974 13.9717 28.3535 13.9431 27.5073 14.765L17.7511 24.2348L14.2027 20.5398C13.385 19.6893 12.041 19.6607 11.1948 20.4826C10.3486 21.3045 10.3202 22.6553 11.1379 23.5058L16.0658 28.6303C16.1014 28.6731 16.1369 28.7089 16.1725 28.7446C16.9902 29.5951 18.3413 29.6165 19.1875 28.7946L30.4725 17.8382C31.3187 17.0163 31.3472 15.6655 30.5294 14.815L30.5152 14.8222Z" fill="#2D6644"/>
<path opacity="0.63" fill-rule="evenodd" clip-rule="evenodd" d="M30.5152 12.4638C29.6974 11.6133 28.3535 11.5847 27.5073 12.4066L17.7511 21.8764L14.2027 18.1814C13.385 17.3309 12.041 17.3023 11.1948 18.1242C10.3486 18.9461 10.3202 20.2969 11.1379 21.1474L16.0658 26.2719C16.1014 26.3147 16.1369 26.3505 16.1725 26.3862C16.9902 27.2367 18.3413 27.2581 19.1875 26.4362L30.4725 15.4798C31.3187 14.6579 31.3472 13.3071 30.5294 12.4566L30.5152 12.4638Z" fill="#CBE9F4"/>
<path fill-rule="evenodd" clip-rule="evenodd" d="M30.5152 13.372C29.6974 12.5215 28.3535 12.4929 27.5073 13.3148L17.7511 22.7846L14.2027 19.0896C13.385 18.2391 12.041 18.2105 11.1948 19.0324C10.3486 19.8543 10.3202 21.2051 11.1379 22.0556L16.0658 27.1801C16.1014 27.2229 16.1369 27.2587 16.1725 27.2944C16.9902 28.1449 18.3413 28.1663 19.1875 27.3444L30.4725 16.388C31.3187 15.5661 31.3472 14.2153 30.5294 13.3648L30.5152 13.372Z" fill="white"/>
<defs>
<linearGradient id="paint0_linear_527_5769" x1="19.7919" y1="-9.38378" x2="21.8464" y2="49.6215" gradientUnits="userSpaceOnUse">
<stop offset="0.44" stop-color="#62AB86"/>
<stop offset="0.55" stop-color="#46A07A"/>
<stop offset="0.76" stop-color="#168F67"/>
<stop offset="0.87" stop-color="#048960"/>
</linearGradient>
</defs>
</svg>
