<?xml version="1.0" encoding="UTF-8"?><svg id="Layer_2" xmlns="http://www.w3.org/2000/svg" width="152.69" height="152.69" viewBox="0 0 152.69 152.69"><g id="Layer_3"><path d="m93.2,77.74c6.43,0,8.62,2.84,8.93,7.47h.31v-15.26h-.31c-.31,4.68-2.5,7.53-8.93,7.53"/><path d="m102.56,36.99h-7.18l-29.54,79.21h-.8l-29.77-79.21h-10.38v-.57h31.59v.57h-10.26l24.41,64.75,24.18-64.75h-8.55v-.57h16.31v.57Z"/><polygon points="96.77 36.43 86.71 36.43 86.77 37 96.77 37 96.77 36.43"/><path d="m86.51,72.66v-13.47l-7.04,19.22c1.78-.14,3.23-.54,4.41-1.18,1.66-.9,2.63-2.69,2.63-4.58Z"/><path d="m127.22,91.74c-.68,13-6.96,23.95-20.19,23.95h-20.53v-31.04c0-1.9-.99-3.7-2.66-4.6-1.21-.65-2.7-1.05-4.55-1.18l-3.74,10.2v27.19s52.23,0,52.23,0v-24.52h-.57Z"/><circle cx="76.34" cy="76.34" r="76.06" fill="none" stroke="#000" stroke-miterlimit="10" stroke-width=".57"/></g></svg>