<?xml version="1.0" encoding="utf-8"?>
<!-- Generator: Adobe Illustrator 27.5.0, SVG Export Plug-In . SVG Version: 6.00 Build 0)  -->
<svg version="1.1" id="Layer_1" xmlns="http://www.w3.org/2000/svg" xmlns:xlink="http://www.w3.org/1999/xlink" x="0px" y="0px"
	 viewBox="0 0 1280 832" style="enable-background:new 0 0 1280 832;" xml:space="preserve">
<style type="text/css">
	.st0{fill:#FFFFFF;}
	.st1{fill:none;stroke:#D2DDC3;}
	.st2{fill:#D2DDC3;}
	.st3{fill:none;stroke:#494C54;stroke-width:2.3524;stroke-linecap:round;stroke-linejoin:round;}
	.st4{fill:none;stroke:#494C54;stroke-width:2.35;stroke-linecap:round;stroke-linejoin:round;}
</style>
<g>
	<path class="st0" d="M1280.1,342.5L0,342.6v-86.1c42.8-44.5,265.7-46.1,529.1-12c243.1,38.3,624.8,10.1,750.9-24.7L1280.1,342.5
		L1280.1,342.5z"/>
	<path class="st1" d="M0.4,256.4c42.7-30.2,204.1-52.2,513.6-13.3c309.5,38.9,640,1.2,766-22.4"/>
	<path class="st1" d="M0.3,215.9C47.6,189,208,179.7,509.4,240.7c301.4,61.1,641.4,47,770.4,32.8"/>
	<path class="st2" d="M1180.2,240.3c49.8-51.6,22.9-147.7-26.5-195.3c-49.3-47.6-114.2,0-129.6,64.1c-49.8,51.6-99.9,75-50.6,122.6
		c27.9,26.9,51.9,44,73,53.5c29.9-0.4,58-1.2,83.9-2.2C1148.2,272.7,1164.2,256.9,1180.2,240.3z"/>
	<path class="st3" d="M1132.6,112.4v125.8c0,4.8-4,8.7-8.9,8.7H958.3c-4.9,0-8.9-3.9-8.9-8.7V132.4"/>
	<path class="st3" d="M1083.3,137.3c33.9,0,61.3-27.7,61.3-61.8c0-34.2-27.4-61.8-61.3-61.8c-33.9,0-61.3,27.7-61.3,61.8
		C1022,109.6,1049.4,137.3,1083.3,137.3z"/>
	<path class="st3" d="M1077.2,273.9c0-1.7-1.4-3.1-3.1-3.1h-64.9c-1.7,0-3.1,1.4-3.1,3.1v12.2c24.7-0.1,48.5-0.5,71-1.1V273.9z"/>
	<path class="st3" d="M1176.6,128.4l16.7-7.1c2-0.9,4.3,0.7,4.3,3l1.8,71.1c0.1,2.6-2.4,4.5-4.7,3.6l-62.1-22.2V147l30.5-12.9
		L1176.6,128.4L1176.6,128.4z"/>
	<path class="st4" d="M972.7,138.5c26,0,47.1-21.2,47.1-47.5c0-26.2-21.1-47.5-47.1-47.5c-26,0-47.1,21.2-47.1,47.5
		C925.7,117.3,946.8,138.5,972.7,138.5z"/>
	<path class="st3" d="M1085.3,247.2h-87.2c-1.6,0-2.9,1.3-2.9,2.9v17.5c0,1.6,1.3,2.9,2.9,2.9h87.2c1.6,0,2.9-1.3,2.9-2.9v-17.5
		C1088.2,248.5,1086.9,247.2,1085.3,247.2z"/>
	<path class="st3" d="M947.5,148h-19c-0.9,0-1.7,0.7-1.7,1.7v48.5c0,0.9,0.7,1.7,1.7,1.7h19c0.9,0,1.7-0.7,1.7-1.7v-48.5
		C949.2,148.8,948.4,148,947.5,148z"/>
	<path class="st3" d="M1083.3,137.3c33.9,0,61.3-27.7,61.3-61.8c0-34.2-27.4-61.8-61.3-61.8c-33.9,0-61.3,27.7-61.3,61.8
		C1022,109.6,1049.4,137.3,1083.3,137.3z"/>
	<path class="st4" d="M1217.5,134.4l63.1-22.7"/>
	<path class="st4" d="M1217.5,161.8l53.3-3.4"/>
	<path class="st4" d="M1217.5,185.7l63.1,22.7"/>
	<path class="st4" d="M1216.8,119.1l12.1-8.2"/>
	<path class="st4" d="M1221.6,146.7l25.4-4.2"/>
	<path class="st4" d="M1221.5,174.9l16,3.6"/>
	<path class="st4" d="M1216.8,199.9l20.8,10.9"/>
	<path class="st3" d="M1148.8,141.1v39.2"/>
	<line class="st3" x1="1034.2" y1="112.4" x2="1014.9" y2="112.7"/>
</g>
</svg>
