<svg width="83" height="83" viewBox="0 0 83 83" fill="none" xmlns="http://www.w3.org/2000/svg">
<path d="M39.5528 33.4009C38.7015 36.3118 37.5894 38.7503 36.5514 41.2272C36.2713 41.4057 35.9774 41.7929 35.7358 41.8039C35.7495 41.9055 34.036 42.2433 33.1572 42.246C33.6323 41.046 34.0305 39.6455 34.3298 38.0445C33.9728 37.7891 33.2726 37.5475 33.2561 37.001C33.3659 34.925 34.0277 33.6069 34.7115 32.3574C34.9312 32.4371 37.9738 33.8128 39.5528 33.3982V33.4009Z" fill="#C6DFAF"/>
<g style="mix-blend-mode:multiply">
<g opacity="0.9">
<g opacity="0.9">
<path d="M24.1066 50.2948C22.838 50.4156 21.5665 50.5529 20.2979 50.7149C20.578 50.4623 20.8553 50.2124 21.1272 49.968C22.0608 49.2925 23.0769 50.2179 24.1066 50.2948Z" fill="#B8D590"/>
<path d="M27.5969 50.0337C27.5969 50.0337 27.5914 50.0419 27.5887 50.0474C26.6083 50.0941 25.628 50.1545 24.6504 50.2424C24.7163 50.2259 24.7822 50.2039 24.8481 50.1737C25.7598 49.6739 26.6687 49.3911 27.5942 50.0337H27.5969Z" fill="#B8D590"/>
<path d="M43.0733 40.9917C42.222 43.9026 41.1099 46.3411 40.0719 48.818C39.7918 48.9965 39.4979 49.3837 39.2563 49.3947C39.27 49.4963 37.5565 49.8341 36.6777 49.8368C37.1528 48.6368 37.551 47.2363 37.8503 45.6353C37.4933 45.38 36.7931 45.1383 36.7766 44.5918C36.8864 42.5158 37.5482 41.1977 38.232 39.9482C38.4517 40.0279 41.4943 41.4037 43.0733 40.989V40.9917Z" fill="#C6DFAF"/>
<path d="M46.3108 43.5285C47.8047 42.6442 50.905 46.8183 51.2071 47.6778C50.9407 48.919 49.3425 44.7752 48.969 45.8077C49.3452 46.3322 49.6034 46.8567 49.9658 47.1039C49.8862 47.3071 50.7952 49.8527 50.7155 50.0531C48.98 50.3497 46.2724 48.411 44.5479 48.779C44.6357 48.0403 45.9538 45.761 46.3136 43.5312L46.3108 43.5285Z" fill="#D4E7CB"/>
<path d="M43.7986 41.4906C44.183 41.3149 44.3917 42.8225 44.7212 42.6467C45.383 42.6467 45.438 43.3882 46.1162 43.52C45.7538 45.7443 45.9295 45.3571 45.1936 46.8729C45.3089 46.8674 45.4462 47.6363 45.5643 47.6308C45.0288 48.1718 44.6306 48.0373 44.5482 48.7759C42.95 49.122 41.3463 49.435 39.7344 49.6355C40.0612 49.0808 40.4181 49.3334 40.7669 49.3142C40.5747 48.6716 40.3303 48.6551 40.0721 48.8171C41.1102 46.3374 42.2223 43.9017 43.0736 40.9908L43.4086 40.9854C43.5185 41.3176 43.6173 41.6526 43.8013 41.4906H43.7986Z" fill="#C6DFAF"/>
<path d="M26.4321 47.1374C27.418 45.8083 28.0605 43.9685 28.5576 41.9336C28.8514 42.1121 29.4226 42.5295 29.818 42.038C30.565 42.0517 32.1439 42.4801 32.3828 41.7716C32.6218 41.0604 30.8231 44.795 30.1228 46.4866C30.0624 47.5576 29.689 48.4281 29.2359 49.2162C29.0848 49.153 29.1974 48.483 29.0464 48.3869C29.0464 48.4802 28.7965 49.2382 28.7965 49.2382C28.7965 49.2382 27.7035 49.2382 27.1598 49.2382C26.877 48.1782 26.2289 49.035 26.2097 49.2601L25.7374 49.2739L25.7236 49.2629C25.9296 48.9169 26.1328 48.5681 26.3333 48.2331C26.4458 47.9585 26.4349 47.1402 26.4349 47.1402L26.4321 47.1374Z" fill="#C9DFAC"/>
<path d="M36.7764 44.5915C36.8863 42.5154 37.5481 41.1973 38.2318 39.9479C37.9408 39.8518 37.2048 39.6046 37.1279 39.5771C37.2295 40.0412 37.3915 40.5355 37.2268 40.7442C36.7792 41.0381 36.2135 41.3401 35.8702 41.3511C35.4281 41.2193 34.9366 40.6014 34.4587 40.2966C34.077 40.4861 33.7008 40.6866 33.3356 40.909C33.3109 40.9227 33.1269 41.6751 33.1351 42.0074C32.8715 42.0184 32.6299 41.9086 32.3882 41.7658C32.369 41.9305 30.3232 44.564 30.1282 46.4808C30.0678 47.5517 29.6943 48.4222 29.2412 49.2104C29.2467 49.2131 29.3346 49.2186 29.4719 49.2296C29.6092 49.2378 29.7959 49.2515 30.0019 49.2653C30.4138 49.2927 30.8998 49.3229 31.2156 49.3422C31.1909 49.1444 30.9438 48.7078 30.8724 48.6392C30.9602 48.6364 31.5973 49.257 31.8472 49.3943C32.2509 49.43 33.2395 49.441 33.3301 49.3724C33.4454 49.3669 33.1983 48.8314 33.1846 48.2877C33.6953 49.0044 34.2198 49.474 34.7553 49.7321L35.1864 49.7651C35.2359 49.9738 35.2743 50.1138 35.2139 50.1166C35.126 50.1797 35.0354 50.2291 34.9448 50.2676C35.2112 50.3005 36.3425 50.4378 36.6419 50.4735C36.3343 50.328 36.0295 50.0973 35.7302 49.8035C36.0377 49.8172 36.348 49.8282 36.6556 49.8282L36.694 49.8145C37.1664 48.6172 37.5618 47.2249 37.8611 45.6295C37.5041 45.3741 36.8039 45.1324 36.7874 44.586L36.7764 44.5915Z" fill="#C9DFAC"/>
<path d="M6.97102 50.265C6.34492 49.2106 5.31789 49.2133 4.77966 47.8732C3.96682 45.4018 4.37599 42.5431 4.09863 39.668C6.73211 40.8158 9.40404 41.4447 12.0897 41.7495C11.4114 42.9633 10.2745 42.2932 9.69237 44.2566C9.68963 44.5285 9.9148 44.8059 10.0274 45.0777C9.3244 45.8906 8.16556 46.1487 8.14359 47.5135C8.12986 48.3483 8.32758 49.2572 8.40996 50.3419H8.15183C7.88546 49.9438 7.45433 50.2293 6.96827 50.2623L6.97102 50.265Z" fill="#ACCE73"/>
<path d="M12.0454 51.3253L10.1314 51.5258C10.1287 51.2649 10.1149 51.0177 10.0957 50.7761C10.8426 50.7623 11.5896 50.669 12.3365 50.5234C12.2349 50.7733 12.136 51.0397 12.0454 51.3253Z" fill="#ACCE73"/>
<path d="M10.0292 45.0802C9.91661 44.8056 9.69143 44.531 9.69418 44.2591C10.2736 42.2957 11.4105 42.9657 12.0915 41.752C13.124 41.8728 14.1565 41.9442 15.1918 41.9799C15.0133 42.1996 14.8348 42.4192 14.6563 42.6444C15.2302 42.6444 15.3373 44.5529 15.914 44.5529C14.2252 46.5521 11.9597 46.9475 10.6553 50.1082C9.90837 50.2538 9.16144 50.3362 8.41451 50.3499C8.33213 49.2652 8.13441 48.3562 8.14814 47.5214C8.17011 46.1566 9.32895 45.8958 10.0319 45.0857L10.0292 45.0802Z" fill="#ACCE73"/>
<path d="M15.9117 44.5506C15.335 44.5506 15.2279 42.6421 14.654 42.6421C14.8352 42.4197 15.0137 42.1972 15.1895 41.9775C16.384 42.0242 17.5813 42.0187 18.7758 41.9913C18.8555 42.0242 18.9351 42.0517 19.0147 42.0737C19.9292 42.2851 20.6981 42.1478 21.5548 42.3483C20.9946 43.4467 20.429 44.5506 19.844 45.5941C18.7401 44.0975 17.5483 42.859 16.2604 42.0929C16.719 42.3647 16.6009 43.7323 16.8316 44.0041C17.6746 45.5062 18.4353 48.6203 18.0069 49.9631C16.1973 50.191 14.3821 50.419 12.5642 50.6496C12.4434 50.3009 12.2731 49.7352 12.1743 49.7352C11.6663 49.8807 11.1582 50.0043 10.6475 50.1059C11.9518 46.9479 14.2173 46.5525 15.9062 44.5506H15.9117Z" fill="#B8D590"/>
<path d="M19.8472 45.5942C20.4321 44.5507 20.995 43.4468 21.558 42.3484C21.7749 42.4005 22.0001 42.4747 22.2335 42.5818C22.2335 42.3401 22.228 42.1012 22.1511 41.8651L22.6344 41.8403C22.8294 41.9804 23.0189 42.8207 23.288 41.8074L23.969 41.7717C24.2107 42.0793 24.4084 42.5021 24.5375 43.0871L24.5292 42.2687C24.7516 41.7195 24.9878 42.2577 25.2185 42.255C25.2185 42.1095 25.213 41.8815 25.2295 41.703C26.3059 42.3511 27.8108 41.5932 28.0881 41.585C28.2446 41.7195 28.4039 41.8403 28.5632 41.942C28.0662 43.9768 27.4236 45.8139 26.4377 47.1457C26.4377 47.1457 26.4487 47.9641 26.3361 48.2387C26.1384 48.5765 25.9325 48.9225 25.7265 49.2685C24.4496 47.9641 22.8514 49.4524 22.7855 49.4662L22.2417 49.5101C21.212 49.4277 19.633 48.041 18.4357 49.9165L18.0128 49.966C18.4384 48.6231 17.6805 45.5063 16.8375 44.007C16.6068 43.7324 15.8626 42.1809 16.2663 42.0957C17.6943 42.3484 19.9186 45.6931 19.8499 45.597L19.8472 45.5942Z" fill="#B8D590"/>
<path d="M54.4314 43.8193C54.8351 43.9457 55.2415 44.0747 55.6534 44.2038C55.2195 44.2395 54.7664 43.9896 54.5742 44.6377C54.371 44.4427 54.1513 44.4592 53.9316 44.4756C54.0827 44.201 54.2502 43.9868 54.4287 43.8193H54.4314Z" fill="#D4E7CA"/>
<path d="M53.8988 47.7637L53.55 47.7912C53.5171 47.2447 53.7176 46.6818 53.9647 46.9372C53.9317 46.3934 53.734 46.9564 53.7176 46.6845C53.6736 45.9596 53.8027 45.9211 53.9674 45.9953C54.0388 47.2145 53.94 48.4448 53.767 48.4585L53.5391 48.4777C53.6571 48.2223 53.8549 48.0685 53.9015 47.7637H53.8988Z" fill="#D4E7CA"/>
<path d="M49.9666 47.1045C49.6041 46.8574 49.3459 46.3329 48.9697 45.8084C49.3432 44.7758 49.6315 43.5703 49.8979 42.3291C50.9634 42.7849 52.0096 43.1721 53.0833 43.5181C52.9048 43.6884 52.7346 43.8999 52.5836 44.1772C52.8032 44.1607 53.0229 44.1415 53.2234 44.3365C53.1849 44.46 53.1575 44.6166 53.141 44.817V44.8335C52.979 44.7566 52.8499 44.7951 52.8911 45.52C52.9076 45.7946 53.1053 45.2289 53.1383 45.7754C52.8911 45.52 52.6934 46.0857 52.7236 46.6294L53.0696 46.602C53.0229 46.9095 52.8252 47.0606 52.7071 47.3187C51.7076 47.4011 50.7135 47.5384 49.7249 47.7141C49.8045 47.5137 49.8814 47.3105 49.9611 47.1073L49.9666 47.1045Z" fill="#D4E7CA"/>
</g>
</g>
</g>
<g style="mix-blend-mode:multiply">
<g opacity="0.9">
<g opacity="0.9">
<path d="M15.7236 44.1188C14.9629 44.2204 14.205 44.3385 13.4443 44.473C13.6118 44.2726 13.7794 44.0721 13.9441 43.8771C14.5071 43.3361 15.1085 44.0611 15.7236 44.1188Z" fill="#B8D590"/>
<path d="M17.8108 43.8928C17.8108 43.8928 17.8081 43.8983 17.8053 43.9038C17.2177 43.9478 16.6328 43.9999 16.0479 44.0741C16.089 44.0603 16.1275 44.0439 16.1659 44.0192C16.7124 43.621 17.2589 43.3903 17.8081 43.8928H17.8108Z" fill="#B8D590"/>
<path d="M27.1206 36.6569C26.5934 38.9608 25.9123 40.8913 25.278 42.8548C25.1105 42.9976 24.932 43.3051 24.7865 43.3134C24.7947 43.393 23.7677 43.6704 23.2432 43.6786C23.5342 42.7285 23.7814 41.619 23.9681 40.3558C23.7567 40.1554 23.3393 39.9687 23.3338 39.5375C23.4107 37.8954 23.8143 36.8519 24.2317 35.8633C24.3636 35.9264 26.1732 36.9919 27.1206 36.6569Z" fill="#C6DFAF"/>
<path d="M29.3827 36.7432C30.0033 36.8063 30.8408 37.4791 31.1896 37.6713C31.0221 38.6544 30.8436 39.6073 30.6129 40.4256C30.8353 40.8375 30.9864 41.2495 31.2006 41.4444C31.1511 41.6064 31.1044 41.7657 31.055 41.925C30.017 42.1694 28.9845 42.4989 27.9492 42.7982C28.0069 42.2133 29.152 38.5061 29.3799 36.7432H29.3827Z" fill="#D4E7CB"/>
<path d="M27.551 37.0477C27.7817 36.9049 27.9904 36.7649 28.1881 36.6221C28.5835 36.6221 28.9789 36.6413 29.3854 36.7402C29.1547 38.5004 28.8032 40.0876 28.3528 41.2876C28.4215 41.2821 28.4984 41.889 28.5698 41.8835C28.2457 42.3147 28.0096 42.2103 27.9547 42.7952C26.9963 43.0781 26.0379 43.3335 25.0713 43.5037C25.2718 43.0616 25.4832 43.2593 25.6892 43.2428C25.5793 42.7376 25.431 42.7266 25.2772 42.8556C25.9116 40.8922 26.5926 38.9617 27.1199 36.6578L27.3203 36.6523C27.3835 36.9159 27.4411 37.1768 27.551 37.0505V37.0477Z" fill="#C6DFAF"/>
<path d="M17.1327 41.6116C17.7314 40.5544 18.1268 39.0989 18.4344 37.4898C18.6101 37.6298 18.9479 37.9538 19.1868 37.5639C19.6344 37.5721 20.5763 37.8989 20.7218 37.336C20.8701 36.773 19.7717 39.7333 19.3406 41.0734C19.2994 41.9192 19.0687 42.6112 18.7941 43.2345C18.7035 43.1851 18.7749 42.6578 18.687 42.581C18.687 42.6551 18.5332 43.2537 18.5332 43.2537C18.5332 43.2537 17.8797 43.2592 17.5529 43.262C17.3909 42.4272 16.9982 43.1082 16.9844 43.284L16.7016 43.2977L16.6934 43.2894C16.8169 43.0148 16.9433 42.7402 17.0641 42.4711C17.1327 42.2542 17.13 41.6061 17.13 41.6061L17.1327 41.6116Z" fill="#C9DFAC"/>
<path d="M23.3334 39.5409C23.4103 37.8987 23.8139 36.8552 24.2313 35.8666C24.0583 35.7925 23.619 35.6003 23.5723 35.5811C23.63 35.9463 23.7233 36.3362 23.6245 36.5037C23.3553 36.7371 23.0148 36.9788 22.8089 36.9925C22.5453 36.8909 22.2542 36.4076 21.9713 36.1687C21.7434 36.3197 21.5155 36.4818 21.2958 36.6603C21.2821 36.6712 21.1667 37.2671 21.1695 37.528C21.013 37.539 20.8674 37.4539 20.7246 37.3413C20.7109 37.4704 19.4724 39.5629 19.3433 41.0787C19.3022 41.9245 19.0715 42.6165 18.7969 43.2398C18.7996 43.2398 18.8518 43.2481 18.9342 43.2536C19.0166 43.2591 19.1264 43.2673 19.25 43.2783C19.4944 43.2975 19.7855 43.3167 19.9749 43.3332C19.9612 43.1794 19.8157 42.8334 19.7745 42.7812C19.8267 42.7785 20.2029 43.2646 20.3539 43.3716C20.5956 43.3991 21.186 43.3991 21.2409 43.3469C21.3095 43.3414 21.1667 42.9213 21.1612 42.4902C21.4633 43.0531 21.7736 43.4211 22.0922 43.6215L22.3503 43.6435C22.3777 43.8083 22.3997 43.9181 22.364 43.9209C22.3091 43.973 22.2569 44.0115 22.202 44.0417C22.3613 44.0664 23.0368 44.168 23.2153 44.1955C23.0313 44.0829 22.8501 43.9016 22.6743 43.671C22.8583 43.6792 23.0423 43.6874 23.2263 43.6847L23.2483 43.6737C23.5393 42.7236 23.7837 41.6224 23.9705 40.362C23.759 40.1615 23.3416 39.9748 23.3361 39.5436L23.3334 39.5409Z" fill="#C9DFAC"/>
<path d="M5.47833 44.1986C5.11035 43.3693 4.49524 43.3776 4.18218 42.3231C3.70986 40.3761 3.97348 38.1161 3.8252 35.8506C5.3932 36.7403 6.98592 37.2209 8.58962 37.4461C8.17497 38.4072 7.49943 37.8854 7.14245 39.4397C7.1397 39.6539 7.27151 39.8708 7.33742 40.0878C6.91178 40.7331 6.21702 40.9445 6.1978 42.0237C6.18407 42.6828 6.29666 43.3995 6.34059 44.2563H6.18681C6.03029 43.9432 5.77216 44.1739 5.47833 44.2014V44.1986Z" fill="#ACCE73"/>
<path d="M8.50436 45.0025L7.35925 45.1728C7.35925 44.9668 7.35101 44.7718 7.34277 44.5824C7.79038 44.5659 8.23799 44.489 8.6856 44.3682C8.62244 44.5659 8.56203 44.7773 8.50711 45.0025H8.50436Z" fill="#ACCE73"/>
<path d="M7.33804 40.0851C7.27213 39.8709 7.13757 39.6539 7.14307 39.437C7.5028 37.8827 8.17833 38.4045 8.59024 37.4434C9.20536 37.534 9.82323 37.5834 10.4411 37.6026C10.334 37.7784 10.2242 37.9514 10.1171 38.1299C10.4603 38.1244 10.5125 39.632 10.8585 39.6292C9.83696 41.2192 8.4804 41.5432 7.68129 44.0477C7.23369 44.1685 6.78608 44.2371 6.34121 44.2509C6.29728 43.3941 6.18469 42.6774 6.19842 42.0183C6.22039 40.9419 6.91514 40.7277 7.33804 40.0823V40.0851Z" fill="#ACCE73"/>
<path d="M10.8577 39.6313C10.5144 39.6368 10.4595 38.1265 10.1162 38.132C10.2261 37.9535 10.3332 37.7805 10.4403 37.6047C11.1543 37.6349 11.871 37.624 12.585 37.5938C12.6316 37.6185 12.6811 37.6404 12.7278 37.6569C13.2742 37.8189 13.7356 37.7036 14.2463 37.8574C13.9031 38.7279 13.5598 39.6039 13.2056 40.4304C12.5548 39.2551 11.849 38.2858 11.0829 37.6871C11.3547 37.8986 11.2778 38.9778 11.4124 39.192C11.9067 40.3728 12.3433 42.8278 12.0797 43.8905C10.995 44.08 9.91029 44.2722 8.8201 44.4644C8.7487 44.1898 8.64984 43.7449 8.59217 43.7449C8.28736 43.863 7.98255 43.9646 7.67773 44.047C8.47684 41.5453 9.8334 41.2186 10.8549 39.6286L10.8577 39.6313Z" fill="#B8D590"/>
<path d="M13.2062 40.4303C13.5632 39.6037 13.9064 38.7277 14.247 37.8572C14.376 37.8957 14.5106 37.9534 14.6506 38.0357C14.6506 37.8463 14.6506 37.6568 14.6039 37.47L14.8923 37.4481C15.0076 37.5579 15.1175 38.2197 15.2822 37.4179L15.6886 37.3849C15.8314 37.6266 15.9468 37.9588 16.0209 38.4202V37.7721C16.1582 37.3355 16.2955 37.7611 16.4328 37.7556C16.4328 37.6403 16.4328 37.4618 16.4438 37.3218C17.0836 37.827 17.9871 37.2202 18.1546 37.2119C18.248 37.319 18.3413 37.4124 18.4375 37.4893C18.1272 39.0985 17.7317 40.5539 17.1358 41.6111C17.1358 41.6111 17.1358 42.2564 17.0699 42.4761C16.9491 42.7425 16.8255 43.0198 16.6992 43.2945C15.944 42.2729 14.9802 43.4565 14.939 43.4702L14.6149 43.5086C13.9998 43.4482 13.0634 42.3635 12.3357 43.8519L12.0831 43.8958C12.3467 42.8331 11.9101 40.3781 11.4158 39.1973C11.2812 38.9831 10.8446 37.7611 11.0862 37.6925C11.9375 37.882 13.2501 40.5099 13.2089 40.4358L13.2062 40.4303Z" fill="#B8D590"/>
<path d="M33.8948 38.8213C34.1365 38.9201 34.3781 39.0163 34.6225 39.1179C34.3617 39.1481 34.0953 38.9531 33.9745 39.4666C33.8536 39.3156 33.7218 39.3293 33.5928 39.343C33.6861 39.1261 33.7877 38.9558 33.8948 38.8213Z" fill="#D4E7CA"/>
<path d="M33.5517 41.941L33.343 41.9657C33.3265 41.5346 33.4501 41.0897 33.5957 41.2874C33.5792 40.8591 33.4584 41.3039 33.4501 41.0897C33.4281 40.5186 33.505 40.4856 33.6039 40.546C33.6396 41.5099 33.5737 42.4792 33.4693 42.493L33.332 42.5095C33.4034 42.3062 33.5243 42.1854 33.5545 41.9438L33.5517 41.941Z" fill="#D4E7CA"/>
<path d="M31.2039 41.4411C30.9897 41.2488 30.8359 40.8342 30.6162 40.4223C30.8469 39.6067 31.0254 38.6511 31.1929 37.668C31.8272 38.0222 32.4506 38.3215 33.0904 38.5879C32.9833 38.7225 32.879 38.8927 32.7884 39.1124C32.9202 39.0987 33.0492 39.0822 33.1701 39.236C33.1481 39.3348 33.1289 39.4557 33.1179 39.6149V39.6287C33.0218 39.5682 32.9449 39.6012 32.9641 40.1724C32.9723 40.3893 33.0932 39.9417 33.1096 40.3728C32.9641 40.1724 32.8405 40.62 32.857 41.0484L33.0657 41.0237C33.0355 41.2681 32.9174 41.3889 32.8433 41.5921C32.2446 41.6635 31.6515 41.7788 31.0583 41.9216C31.1078 41.7624 31.1544 41.6031 31.2039 41.4411Z" fill="#D4E7CA"/>
</g>
</g>
</g>
<g style="mix-blend-mode:multiply">
<g opacity="0.9">
<g opacity="0.9">
<path d="M13.2406 38.8574C12.6612 38.8519 12.0791 38.8574 11.4941 38.8821C11.6452 38.742 11.7935 38.6047 11.9417 38.4674C12.4278 38.105 12.7903 38.7448 13.2434 38.8574H13.2406Z" fill="#B8D590"/>
<path d="M14.8274 38.9149C14.8274 38.9149 14.8246 38.9204 14.8219 38.9232C14.377 38.8902 13.9349 38.8683 13.4873 38.86C13.5175 38.8518 13.5505 38.8435 13.5834 38.8298C14.042 38.5744 14.4759 38.4563 14.8274 38.9149Z" fill="#B8D590"/>
<path d="M22.6642 34.2439C21.9887 36.0041 21.2472 37.4541 20.5333 38.9342C20.3905 39.0276 20.2202 39.25 20.1104 39.2417C20.1076 39.3049 19.3058 39.4093 18.9131 39.3571C19.2481 38.6376 19.5666 37.7891 19.8605 36.8115C19.7259 36.6302 19.4376 36.4353 19.4843 36.0948C19.7424 34.8068 20.1708 34.027 20.6047 33.291C20.6953 33.3542 21.9173 34.4032 22.667 34.2412L22.6642 34.2439Z" fill="#C6DFAF"/>
<path d="M24.3479 34.5654C24.8038 34.6835 25.3475 35.3124 25.5864 35.5046C25.342 36.2625 25.0921 36.9957 24.8203 37.6163C24.9356 37.9678 24.9987 38.3111 25.136 38.4868C25.0811 38.6104 25.0235 38.7312 24.9685 38.8493C24.1612 38.9262 23.3511 39.069 22.541 39.1898C22.6564 38.734 23.9635 35.933 24.3479 34.5654Z" fill="#D4E7CB"/>
<path d="M22.9394 34.6013C23.1289 34.5162 23.3019 34.4256 23.4666 34.3377C23.7632 34.3816 24.057 34.442 24.3454 34.5656C23.9582 35.9304 23.5023 37.1442 23.019 38.0449C23.0712 38.0476 23.0547 38.5364 23.1069 38.5392C22.8131 38.8412 22.6483 38.7341 22.5357 39.19C21.786 39.3053 21.0364 39.4014 20.2949 39.4262C20.4981 39.0994 20.6327 39.2806 20.7892 39.2916C20.7672 38.8797 20.6601 38.855 20.5283 38.9374C21.2423 37.4572 21.9865 36.0073 22.6593 34.2471L22.8103 34.2635C22.8268 34.4777 22.8378 34.6919 22.9339 34.6041L22.9394 34.6013Z" fill="#C6DFAF"/>
<path d="M14.5987 37.0371C15.1754 36.2709 15.6477 35.1643 16.0761 33.9258C16.1887 34.0548 16.4029 34.3514 16.6308 34.0713C16.9631 34.1262 17.6276 34.4915 17.8061 34.0658C17.9846 33.6374 16.8038 35.8535 16.3205 36.8641C16.1859 37.5259 15.9306 38.0476 15.6477 38.5117C15.5873 38.4623 15.7054 38.0531 15.6477 37.9845C15.6395 38.0421 15.45 38.498 15.45 38.498C15.45 38.498 14.9612 38.4293 14.7168 38.3936C14.6976 37.7154 14.3214 38.2096 14.2912 38.3469L14.0797 38.3277L14.0742 38.3195C14.2005 38.1163 14.3269 37.9131 14.4504 37.7154C14.5273 37.5506 14.6042 37.0398 14.6042 37.0398L14.5987 37.0371Z" fill="#C9DFAC"/>
<path d="M19.4845 36.0952C19.7426 34.8073 20.171 34.0275 20.6049 33.2915C20.4841 33.2119 20.1793 33.0142 20.1491 32.9922C20.1491 33.2888 20.171 33.6046 20.0749 33.7254C19.8442 33.8792 19.5614 34.0329 19.4076 34.0192C19.2236 33.9094 19.0644 33.4947 18.8804 33.275C18.6909 33.3684 18.5014 33.47 18.3147 33.5881C18.3037 33.5936 18.1444 34.0522 18.1142 34.2609C17.9961 34.2499 17.8973 34.1675 17.8039 34.0632C17.7792 34.1648 16.5984 35.6778 16.3183 36.8614C16.1837 37.5232 15.9284 38.045 15.6455 38.509C15.6455 38.509 15.6867 38.52 15.7471 38.5365C15.8075 38.5502 15.8899 38.5695 15.9805 38.5914C16.1618 38.6326 16.376 38.682 16.516 38.715C16.5242 38.5914 16.4583 38.3031 16.4336 38.2564C16.4721 38.2591 16.6945 38.6875 16.7934 38.7864C16.9691 38.8331 17.4112 38.9017 17.4579 38.866C17.5101 38.8715 17.4524 38.52 17.5018 38.1795C17.6584 38.6573 17.8451 38.9841 18.0593 39.1791L18.2488 39.2258C18.2488 39.3576 18.2515 39.4482 18.2268 39.4454C18.1801 39.4811 18.1362 39.5059 18.0923 39.5223C18.2076 39.558 18.7019 39.7146 18.8309 39.7558C18.7074 39.6459 18.5948 39.4811 18.4904 39.2807C18.6277 39.3081 18.765 39.3356 18.9023 39.3548L18.9216 39.3493C19.2538 38.6326 19.5696 37.7896 19.8662 36.8147C19.7317 36.6335 19.4433 36.4385 19.49 36.098L19.4845 36.0952Z" fill="#C9DFAC"/>
<path d="M5.57292 37.7703C5.39717 37.0728 4.07631 38.119 3.97196 37.2485C3.85663 35.6558 8.23935 33.1212 8.40412 31.3115C9.46684 32.1903 7.55284 32.4237 8.72266 32.7807C8.29702 33.4946 7.8549 33.0058 7.39631 34.1949C7.3661 34.3652 7.44025 34.5491 7.46222 34.7276C7.06678 35.189 6.52031 35.2796 6.37477 36.1281C6.28415 36.6471 6.28141 37.2266 6.21001 37.9076L6.09467 37.8938C6.01504 37.6275 5.79535 37.7785 5.57292 37.7675V37.7703Z" fill="#ACCE73"/>
<path d="M7.73732 38.7452L6.86133 38.7507C6.88604 38.5887 6.90526 38.4322 6.919 38.2811C7.25402 38.3196 7.59727 38.3086 7.94877 38.2646C7.87737 38.4129 7.80598 38.575 7.73732 38.7452Z" fill="#ACCE73"/>
<path d="M7.4651 34.7274C7.44313 34.5489 7.36899 34.365 7.39919 34.1947C7.85779 33.0057 8.26146 32.9425 8.6871 32.2285C9.13745 32.3686 10.3567 32.7558 10.8153 32.8409C10.7137 32.9672 9.88438 33.3681 9.78278 33.4972C10.0409 33.5329 9.89537 34.7302 10.1535 34.7659C9.19512 35.9082 8.14338 36.0126 7.23992 37.8991C6.89117 37.9431 6.54791 37.9486 6.21289 37.9101C6.28429 37.2291 6.28978 36.6497 6.37765 36.1307C6.52594 35.2821 7.06966 35.1915 7.4651 34.7302V34.7274Z" fill="#ACCE73"/>
<path d="M10.1509 34.7666C9.89275 34.7309 10.0383 33.5336 9.78016 33.4979C9.88451 33.3688 9.98612 33.2425 10.0877 33.1162C10.6177 33.2206 11.1532 33.292 11.6914 33.3496C11.7244 33.3743 11.7573 33.3991 11.7903 33.4155C12.1775 33.605 12.5372 33.5666 12.8997 33.7451C12.5372 34.3959 12.1747 35.0494 11.8068 35.6618C11.4635 34.6595 11.0543 33.8137 10.5546 33.2563C10.733 33.454 10.5436 34.2998 10.6177 34.4838C10.8429 35.4723 10.8704 37.4605 10.5436 38.2733C9.71151 38.3035 8.87671 38.331 8.03916 38.3612C8.01993 38.136 8.00071 37.7735 7.95677 37.768C7.71512 37.8285 7.47347 37.8724 7.2373 37.9026C8.13801 36.0161 9.19251 35.9117 10.1509 34.7693V34.7666Z" fill="#B8D590"/>
<path d="M11.8059 35.6614C12.1738 35.049 12.5363 34.3955 12.8988 33.7447C12.9922 33.7913 13.0828 33.849 13.1789 33.9314C13.2036 33.7804 13.2256 33.6321 13.2146 33.4783L13.4343 33.4948C13.5084 33.5936 13.5084 34.1291 13.7309 33.514L14.0384 33.5332C14.1153 33.7419 14.162 34.0165 14.162 34.39L14.2416 33.8792C14.3982 33.5497 14.4476 33.9012 14.5519 33.9122C14.5657 33.8215 14.5876 33.6788 14.6123 33.5689C15.0297 34.0412 15.7794 33.6623 15.903 33.6733C15.9607 33.7666 16.0183 33.8518 16.0815 33.9259C15.6531 35.1616 15.1808 36.2683 14.6041 37.0372C14.6041 37.0372 14.5272 37.548 14.4503 37.7127C14.3268 37.9104 14.2004 38.1137 14.0741 38.3169C13.6347 37.4244 12.7697 38.251 12.7368 38.2564L12.4896 38.251C12.0365 38.1356 11.4708 37.1718 10.7459 38.2674L10.5509 38.2729C10.8777 37.4628 10.8502 35.4719 10.6251 34.4834C10.5509 34.2994 10.3724 33.2833 10.5619 33.2559C11.1743 33.503 11.8333 35.7273 11.8141 35.6614H11.8059Z" fill="#B8D590"/>
<path d="M27.4639 36.7188C27.6314 36.8231 27.8017 36.9275 27.972 37.0345C27.7742 37.0291 27.5957 36.8451 27.4447 37.2378C27.3733 37.1032 27.2745 37.1005 27.1729 37.0977C27.269 36.9357 27.3651 36.8149 27.4612 36.7188H27.4639Z" fill="#D4E7CA"/>
<path d="M26.8272 39.1432L26.6679 39.1377C26.7091 38.7945 26.8546 38.4567 26.9398 38.6297C26.9809 38.2892 26.8354 38.627 26.8546 38.4567C26.9095 38.0009 26.97 37.9871 27.0359 38.042C26.9452 38.8082 26.7777 39.5661 26.6981 39.5661H26.5938C26.6706 39.4123 26.775 39.33 26.8272 39.1405V39.1432Z" fill="#D4E7CA"/>
<path d="M25.1332 38.4842C24.9959 38.3084 24.9327 37.9624 24.8174 37.6137C25.0892 36.9931 25.3391 36.2599 25.5835 35.502C26.0147 35.8534 26.4431 36.1583 26.8907 36.4439C26.7946 36.54 26.6957 36.6608 26.6023 36.8228C26.7012 36.8256 26.8028 36.8283 26.8742 36.9629C26.844 37.037 26.8165 37.1331 26.7891 37.2567V37.2677C26.7232 37.21 26.66 37.2265 26.6078 37.6796C26.5886 37.8526 26.7341 37.5121 26.6929 37.8553C26.6078 37.6796 26.4623 38.0201 26.4211 38.3606L26.5804 38.3661C26.5282 38.5556 26.4238 38.638 26.3442 38.7917C25.8883 38.7808 25.4298 38.8055 24.9684 38.8522C25.0233 38.7313 25.0783 38.6105 25.1359 38.4897L25.1332 38.4842Z" fill="#D4E7CA"/>
</g>
</g>
</g>
<g style="mix-blend-mode:multiply">
<g opacity="0.9">
<g opacity="0.9">
<path d="M50.8899 36.7884C50.2391 36.1541 49.5992 35.5005 48.9759 34.8223C48.9677 35.1985 48.9594 35.5719 48.9512 35.9399C49.0336 37.0246 50.2418 36.4589 50.8899 36.7884Z" fill="#B8D590"/>
<path d="M52.7269 38.4585C52.7269 38.4585 52.7269 38.4475 52.7324 38.442C52.1997 37.9999 51.6752 37.544 51.1699 37.0635C51.1974 37.1074 51.2194 37.1568 51.2386 37.2145C51.4281 38.1042 51.7603 38.766 52.7269 38.4612V38.4585Z" fill="#B8D590"/>
<path d="M50.1111 41.0367C49.7871 42.8299 48.9221 45.0185 47.8429 47.3554C48.134 47.284 45.9454 47.8799 45.8438 48.5527C46.2859 48.8355 50.4544 49.036 50.1139 49.879C49.7734 50.7221 51.0695 45.2574 51.8027 43.1979C52.4865 42.05 52.8572 40.9818 53.1263 39.974C52.9973 39.9822 52.6128 40.7291 52.4618 40.7703C52.5249 40.6715 52.8902 39.7763 52.8902 39.7763C52.8902 39.7763 52.2586 39.3396 51.9455 39.1227C51.0695 40.125 51.2727 38.9634 51.4128 38.7218L51.1519 38.5186L51.1354 38.524C51.0201 38.9717 50.9048 39.4165 50.7949 39.8504C50.6741 40.1854 50.1194 41.0394 50.1194 41.0394L50.1111 41.0367Z" fill="#C9DFAC"/>
<path d="M54.3643 47.8503C53.0325 50.0774 50.3029 49.4485 50.5336 49.1025C50.388 48.9845 50.1766 49.0037 49.9404 49.0586C50.0393 48.8774 50.6269 45.291 51.805 43.1985C52.4888 42.0506 52.8595 40.9824 53.1286 39.9746C53.1341 39.9746 53.189 40.0021 53.2742 40.046C53.3593 40.0927 53.4746 40.1531 53.6037 40.2218C53.8591 40.3591 54.1584 40.5211 54.3561 40.6254C54.2106 40.8204 53.7739 41.1829 53.6861 41.2268C53.7355 41.2653 54.5181 40.8671 54.7543 40.8231C55.0124 40.9467 55.5863 41.3312 55.5946 41.4383C55.6577 41.4904 55.1552 41.9545 54.7817 42.5202C55.5561 41.971 56.174 41.6882 56.6573 41.6305L56.9264 41.7678C57.0967 41.5701 57.212 41.4355 57.1791 41.4081C57.1708 41.3037 57.1516 41.2186 57.1269 41.1417C57.3026 41.2131 58.0468 41.5234 58.2445 41.603C57.9699 41.6332 57.6377 41.7541 57.2669 41.9435C57.4537 42.0534 57.6404 42.1632 57.8161 42.2895L57.8271 42.3198C57.2944 43.7669 60.6858 42.9623 59.7878 44.7555C59.4116 44.8818 54.746 47.2846 54.3698 47.8503H54.3643Z" fill="#C9DFAC"/>
<path d="M40.9935 29.962C39.9226 30.8187 37.2067 28.0672 35.9984 29.2617C33.8702 31.5354 38.5633 37.2967 36.4735 40.2048C38.761 40.051 36.4735 40.2048 38.2255 40.96C38.6484 39.4139 37.5445 39.6611 38.5276 37.3653C38.7088 37.077 39.0246 36.8793 39.2718 36.6349C39.4118 35.5008 38.9175 34.7648 39.8237 33.3204C40.3784 32.4362 41.1006 31.5602 41.8778 30.4535L41.7295 30.3464C41.3066 30.6622 41.2517 30.1899 40.9908 29.9592L40.9935 29.962Z" fill="#ACCE73"/>
<path d="M44.6296 30.879L43.6602 29.9014C43.4845 30.1732 43.3087 30.4286 43.1357 30.6758C43.5559 30.9888 43.9239 31.387 44.2561 31.8401C44.366 31.5353 44.4868 31.2167 44.6269 30.8817L44.6296 30.879Z" fill="#ACCE73"/>
<path d="M39.2741 36.6347C39.027 36.8764 38.7112 37.0768 38.5299 37.3652C37.5441 39.6609 38.6508 39.4137 38.2279 40.9598C38.9034 41.2454 39.546 41.5831 40.1666 41.9621C40.2133 41.66 40.2572 41.3552 40.3039 41.0504C40.6334 41.2811 41.979 39.3176 42.3113 39.5483C42.682 36.7693 41.6412 35.4484 43.0088 31.6067C42.6765 31.1536 42.3003 30.7691 41.8801 30.4561C41.103 31.5627 40.3808 32.4387 39.8261 33.3229C38.9226 34.7646 39.4169 35.5033 39.2741 36.6375V36.6347Z" fill="#ACCE73"/>
<path d="M42.3087 39.5455C41.9765 39.3148 40.6336 41.2783 40.3014 41.0476C40.2547 41.3552 40.2107 41.6572 40.1641 41.9593C40.8835 42.3877 41.57 42.871 42.2401 43.3818C42.3087 43.379 42.3746 43.3818 42.4323 43.3928C43.1024 43.5355 43.4511 43.9886 44.08 44.1205C44.4946 42.7392 44.912 41.3552 45.2745 40.0261C43.6351 41.1575 42.1165 41.9813 40.8561 42.2724C41.3037 42.1708 42.1522 40.6879 42.468 40.4929C43.9619 39.2544 46.491 36.2832 47.1473 34.7014C46.2576 33.7376 45.3651 32.771 44.4699 31.8043C44.1651 32.1229 43.6873 32.6474 43.6323 32.6089C43.4374 32.252 43.2259 31.9197 43.0008 31.6094C41.6305 35.4511 42.6712 36.772 42.3033 39.551L42.3087 39.5455Z" fill="#B8D590"/>
<path d="M45.2771 40.0266C44.9146 41.3557 44.4972 42.7425 44.0825 44.121C44.2418 44.1539 44.4203 44.1677 44.629 44.1457C44.467 44.3983 44.3049 44.6482 44.099 44.8679L44.3626 45.0848C44.5686 45.0162 45.2441 44.2089 44.7169 45.3814L45.0848 45.6917C45.4308 45.4638 45.829 45.1013 46.2958 44.5384L45.7411 45.3952C45.4995 46.0624 45.9993 45.5901 46.1283 45.6862C46.0295 45.84 45.8757 46.0762 45.7659 46.2711C46.8203 46.0213 47.1801 47.419 47.3339 47.5398C47.5151 47.4602 47.6881 47.397 47.8474 47.3558C48.9266 45.0189 49.7916 42.8303 50.1156 41.0371C50.1156 41.0371 50.6731 40.1831 50.7912 39.8481C50.9038 39.4142 51.0191 38.9666 51.1317 38.5217C49.5197 39.3813 49.5994 37.1789 49.5692 37.135L49.2863 36.8714C48.6382 36.5473 46.7956 37.3711 47.3668 34.9217L47.1554 34.6992C46.4991 36.281 43.9699 39.2522 42.4761 40.4907C42.1603 40.6856 40.6884 42.0202 40.8641 42.2701C41.8555 42.5777 45.3869 39.9524 45.2825 40.0238L45.2771 40.0266Z" fill="#B8D590"/>
<path d="M64.0195 55.7286C64.3381 55.7561 64.6566 55.7863 64.9807 55.8137C64.7527 55.6023 64.3271 55.6847 64.6511 54.9267C64.404 55.0503 64.2886 54.946 64.1733 54.8389C64.0745 55.1876 64.0305 55.4787 64.0195 55.7286Z" fill="#D4E7CA"/>
<path d="M66.362 51.3708L66.1808 51.2033C65.7964 51.7635 65.5327 52.4335 65.8458 52.266C65.4613 52.8262 65.725 52.1534 65.5327 52.4335C65.022 53.1777 65.0686 53.2711 65.2142 53.2574C66.0765 52.0051 66.8426 50.6733 66.752 50.5882L66.6339 50.4756C66.5296 50.7914 66.5433 51.0303 66.362 51.3735V51.3708Z" fill="#D4E7CA"/>
<path d="M64.948 48.2457C64.5745 48.361 64.072 48.8087 63.5036 49.2096C63.0258 50.4426 62.3804 51.8266 61.7021 53.2381C62.6221 53.1859 63.4843 53.1969 64.3384 53.2628C64.3494 53.0129 64.396 52.7218 64.4949 52.3703C64.6102 52.4774 64.7228 52.5818 64.9727 52.4582C65.0359 52.3126 65.121 52.1396 65.2473 51.9199L65.2583 51.9035C65.1128 51.92 65.0633 51.8266 65.5741 51.0824C65.7663 50.7996 65.5027 51.4723 65.8872 50.9121C65.5741 51.0824 65.8377 50.4096 66.2222 49.8494L66.4034 50.0169C66.5847 49.6764 66.5709 49.4348 66.6753 49.119C66.1535 48.6302 65.6757 48.0892 65.2226 47.5098C65.132 47.7514 65.0441 47.9958 64.9507 48.243L64.948 48.2457Z" fill="#D4E7CA"/>
</g>
</g>
</g>
<g style="mix-blend-mode:multiply">
<g opacity="0.9">
<g opacity="0.9">
<path d="M53.7116 38.8023C52.7258 37.9923 51.7289 37.1959 50.7129 36.416C51.0891 36.4352 51.4626 36.4517 51.8278 36.4709C52.9674 36.6494 53.0361 38.0225 53.7116 38.8051V38.8023Z" fill="#B8D590"/>
<path d="M56.3701 41.0791C56.3701 41.0791 56.3618 41.0791 56.3563 41.0846C55.6286 40.4255 54.8899 39.7802 54.1348 39.1514C54.1952 39.1843 54.2556 39.2173 54.3242 39.242C55.3211 39.5303 56.1669 39.9697 56.3701 41.0791Z" fill="#B8D590"/>
<path d="M73.7252 45.5722C71.0697 47.0358 68.5625 47.9832 66.0801 49.0102C65.7561 48.9388 65.2755 49.0075 65.097 48.8427C65.0366 48.9251 63.5839 47.9557 62.9551 47.3406C64.1386 46.8244 65.4073 46.1104 66.7474 45.1877C66.676 44.7538 66.3492 44.0893 66.7199 43.6911C68.2605 42.2934 69.6582 41.8265 71.0258 41.4229C71.1246 41.6343 72.3137 44.7538 73.7252 45.5749V45.5722Z" fill="#C6DFAF"/>
<path d="M74.2746 48.617C75.9579 49.0399 75.2165 54.1888 74.8238 55.0099C73.7583 55.7019 75.546 51.6377 74.5547 52.1045C74.4503 52.7416 74.2663 53.2963 74.3487 53.7274C74.1483 53.8153 73.0004 56.2621 72.8027 56.3472C71.3638 55.3366 70.8063 52.0496 69.3262 51.094C69.9111 50.6326 72.4512 49.9434 74.2773 48.6143L74.2746 48.617Z" fill="#D4E7CB"/>
<path d="M73.8873 46.4369C74.2855 46.5825 73.371 47.8017 73.728 47.9061C74.1949 48.3729 73.7143 48.9386 74.1042 49.5098C72.2781 50.8334 72.6763 50.6823 71.0863 51.237C71.1742 51.3139 70.7266 51.9565 70.8144 52.0334C70.0538 52.0389 69.8671 51.6654 69.2849 52.1295C67.9064 51.248 66.5498 50.3418 65.2646 49.3477C65.888 49.1857 65.9649 49.6141 66.223 49.8475C66.5388 49.2571 66.3768 49.0731 66.0802 49.0045C68.5627 47.9775 71.0698 47.0328 73.7253 45.5664L73.9669 45.7998C73.8104 46.1129 73.6456 46.4204 73.8873 46.4342V46.4369Z" fill="#C6DFAF"/>
<path d="M57.5862 38.2041C59.2229 37.9569 60.9749 37.1029 62.7626 36.0127C62.845 36.3477 62.9575 37.0452 63.5836 36.9766C64.1027 37.5148 64.921 38.9318 65.591 38.594C66.2638 38.2562 62.3534 39.6375 60.6646 40.346C59.8682 41.0627 58.9895 41.4197 58.1107 41.6586C58.0476 41.5076 58.5995 41.1121 58.5611 40.9364C58.4952 41.005 57.784 41.3648 57.784 41.3648C57.784 41.3648 57.0096 40.5931 56.6251 40.2087C57.1716 39.2558 56.1061 39.4068 55.9359 39.5551L55.5898 39.2338V39.2146C55.977 39.113 56.367 39.0114 56.7459 38.9125C57.0205 38.7972 57.589 38.2068 57.589 38.2068L57.5862 38.2041Z" fill="#C9DFAC"/>
<path d="M66.7175 43.6877C68.258 42.29 69.6558 41.8231 71.0233 41.4195C70.886 41.1448 70.5373 40.4528 70.5016 40.3787C70.2462 40.7796 70.0128 41.2437 69.7492 41.2767C69.2247 41.1668 68.6123 40.9856 68.3569 40.7522C68.1345 40.3457 68.2223 39.5631 68.0988 39.0084C67.6951 38.8738 67.2859 38.7503 66.8685 38.6514C66.8411 38.6432 66.1793 39.0469 65.9514 39.2913C65.7564 39.1128 65.663 38.8656 65.5916 38.5938C65.4598 38.6954 62.1535 39.121 60.6652 40.3457C59.8688 41.0625 58.9901 41.4195 58.1113 41.6584C58.1113 41.6666 58.1717 41.7325 58.2624 41.8341C58.353 41.9357 58.4766 42.0785 58.6139 42.2323C58.8857 42.5398 59.2098 42.9051 59.4212 43.1412C59.542 42.9847 59.6766 42.4987 59.6738 42.3998C59.737 42.4602 59.7535 43.3472 59.8331 43.6218C60.094 43.9321 60.7887 44.6351 60.8986 44.6516C60.9837 44.7312 61.1869 44.1765 61.5604 43.7783C61.4176 44.6461 61.4588 45.3491 61.6565 45.9093L61.9393 46.2361C61.8295 46.42 61.7554 46.5464 61.7114 46.5052C61.6043 46.4887 61.5055 46.4612 61.4148 46.4228C61.5796 46.6342 62.2881 47.5295 62.4721 47.7656C62.3568 47.4443 62.3018 47.0654 62.2963 46.6452C62.505 46.8731 62.7165 47.0983 62.9362 47.3153L62.9719 47.3317C64.1527 46.8155 65.4131 46.1042 66.7477 45.1843C66.6763 44.7504 66.3495 44.0859 66.7203 43.6877H66.7175Z" fill="#C9DFAC"/>
<path d="M41.5766 26.7059C41.876 25.5141 41.1455 24.7946 41.7085 23.4655C42.8728 21.1368 45.1795 19.3986 47.0084 17.166C48.0656 19.8352 49.5183 22.1666 51.2099 24.2756C49.8725 24.6573 49.5375 23.3804 47.7416 24.3662C47.5466 24.5584 47.5136 24.9127 47.4011 25.1845C46.3301 25.2669 45.325 24.6326 44.3474 25.5855C43.7488 26.1676 43.249 26.953 42.5433 27.7796L42.3593 27.5983C42.4554 27.126 41.9474 27.0244 41.5794 26.7059H41.5766Z" fill="#ACCE73"/>
<path d="M44.43 31.0315L42.9307 29.826C43.1119 29.6393 43.2767 29.4525 43.4332 29.2686C43.9714 29.7848 44.5673 30.2462 45.2017 30.669C44.9518 30.7734 44.6964 30.8942 44.43 31.0343V31.0315Z" fill="#ACCE73"/>
<path d="M47.4008 25.1822C47.5134 24.9103 47.5463 24.5534 47.7413 24.3639C49.5372 23.378 49.8722 24.655 51.2096 24.2733C51.8549 25.0861 52.5387 25.866 53.2499 26.6184C52.967 26.6486 52.6869 26.6788 52.4013 26.7118C52.8105 27.1154 51.5391 28.5461 51.9483 28.9526C49.3395 29.1805 47.4557 27.8651 44.3032 29.186C43.6689 28.7631 43.0812 28.2935 42.543 27.78C43.2487 26.9507 43.7485 26.168 44.3471 25.5859C45.3247 24.633 46.3298 25.2646 47.4008 25.1849V25.1822Z" fill="#ACCE73"/>
<path d="M51.9458 28.9523C51.5367 28.5459 52.8054 27.1152 52.3989 26.7115C52.6845 26.6813 52.9674 26.6484 53.2475 26.6182C54.0631 27.4942 54.9143 28.3345 55.7821 29.1555C55.815 29.2352 55.8535 29.3121 55.8947 29.3835C56.3945 30.1798 57.037 30.6219 57.5039 31.3689C56.3313 31.7533 55.1532 32.1405 54.0026 32.4673C54.2745 30.6274 54.302 28.9111 53.9285 27.4557C54.0631 27.972 53.0168 28.859 52.9866 29.2132C52.528 30.8718 50.8694 33.6179 49.6199 34.2715C48.1755 33.1566 46.7283 32.0416 45.2756 30.9213C45.4349 30.589 45.7123 30.0672 45.6436 29.9986C45.1795 29.7432 44.7319 29.4741 44.3008 29.1857C47.4533 27.8649 49.3371 29.1802 51.9458 28.9523Z" fill="#B8D590"/>
<path d="M54.0027 32.4643C55.1533 32.1376 56.3313 31.7504 57.5039 31.3659C57.622 31.5554 57.7291 31.7668 57.8197 32.0057C57.9872 31.8327 58.1547 31.6625 58.2673 31.4373L58.627 31.7613C58.6682 31.9975 58.2096 32.728 59.1131 32.198L59.6211 32.6511C59.5744 33.041 59.4179 33.4776 59.0966 33.9857L59.6678 33.398C60.2143 33.1646 60.0001 33.7138 60.1676 33.8731C60.2692 33.7687 60.4285 33.6067 60.5658 33.4914C60.8733 34.7106 62.4743 35.2324 62.6775 35.4219C62.694 35.6278 62.7214 35.8255 62.7654 36.0095C60.9777 37.0997 59.2257 37.9537 57.589 38.2009C57.589 38.2009 57.0206 38.7885 56.746 38.9066C56.367 39.0055 55.9771 39.1071 55.5871 39.2087C55.6009 37.3853 53.4205 37.3139 53.3601 37.2754L52.9427 36.924C52.2726 36.1386 52.1271 34.0433 49.955 34.5294L49.6172 34.2658C50.8666 33.6122 52.5253 30.8689 52.9839 29.2075C53.0141 28.8505 53.5798 27.2248 53.9258 27.45C54.7606 28.6336 53.9834 32.5769 53.9999 32.4616L54.0027 32.4643Z" fill="#B8D590"/>
<path d="M79.7882 55.5836C79.986 55.9571 80.1837 56.336 80.3841 56.7177C80.0519 56.4349 79.9063 55.9406 79.3132 56.2646C79.3077 55.9845 79.1402 55.8417 78.9727 55.6989C79.2747 55.6111 79.5438 55.5781 79.7882 55.5836Z" fill="#D4E7CA"/>
<path d="M74.3039 54.7652C74.2215 54.3341 74.4083 53.7794 74.5099 53.1423C75.5012 52.6755 76.5584 52.0219 77.6212 51.3271C78.0578 52.4009 78.5274 53.4142 79.0436 54.4165C78.7965 54.411 78.5274 54.4439 78.2253 54.5318C78.3928 54.6746 78.5603 54.8147 78.5658 55.0975C78.4505 55.1607 78.3214 55.2485 78.1704 55.3803L78.1594 55.3913C78.099 55.2211 77.9781 55.1579 77.5003 55.7016C77.3191 55.9076 77.8573 55.6467 77.4948 56.0559C77.5003 55.7016 76.9621 55.9598 76.5996 56.3689L76.866 56.5941C76.6161 56.7808 76.3689 56.7479 76.1026 56.8467C75.3337 56.2014 74.5318 55.5973 73.708 55.0261C73.9057 54.9382 74.1034 54.8504 74.3039 54.7625V54.7652Z" fill="#D4E7CA"/>
</g>
</g>
</g>
<g style="mix-blend-mode:multiply">
<g opacity="0.9">
<g opacity="0.9">
<path d="M48.5134 43.5199C47.5275 42.7098 46.5307 41.9135 45.5146 41.1309C45.8909 41.1501 46.2643 41.1666 46.6296 41.1858C47.7664 41.3643 47.8378 42.7373 48.5134 43.5199Z" fill="#B8D590"/>
<path d="M51.1718 45.7969C51.1718 45.7969 51.1636 45.7969 51.1581 45.8024C50.4304 45.1433 49.6917 44.498 48.9365 43.8691C48.9969 43.9021 49.0574 43.935 49.126 43.9598C50.1228 44.2481 50.9686 44.6875 51.1718 45.7969Z" fill="#B8D590"/>
<path d="M68.524 50.2917C65.8685 51.7554 63.3586 52.7 60.8762 53.727C60.5521 53.6556 60.0716 53.7243 59.8931 53.5595C59.8327 53.6419 58.38 52.6725 57.7539 52.0574C58.9375 51.5412 60.2061 50.8272 61.5462 49.9045C61.4748 49.4706 61.148 48.8061 61.5188 48.4079C63.0621 47.0129 64.4598 46.5433 65.8246 46.1396C65.9235 46.3511 67.1125 49.4706 68.524 50.2917Z" fill="#C6DFAF"/>
<path d="M69.9355 50.083C71.6189 50.5086 70.8747 55.6548 70.482 56.4759C69.4165 57.1679 71.207 53.1037 70.2129 53.5705C70.1085 54.2076 69.9245 54.7623 70.0069 55.1934C69.8065 55.2813 68.535 55.9678 68.3401 56.053C66.9011 55.0397 66.4673 53.5156 64.9844 52.56C65.5693 52.0986 68.1094 51.4121 69.9355 50.083Z" fill="#D4E7CB"/>
<path d="M68.6859 51.1568C69.0841 51.3024 68.1697 52.5216 68.5267 52.626C68.9935 53.0928 68.5129 53.6585 68.9029 54.2297C67.0767 55.5505 67.4749 55.3995 65.8822 55.9569C65.9701 56.0338 65.5225 56.6764 65.6103 56.7533C64.8497 56.7588 64.663 56.3826 64.0808 56.8494C62.7023 55.9679 61.3457 55.059 60.0605 54.0677C60.6839 53.9056 60.7608 54.334 61.0189 54.5674C61.3375 53.977 61.1727 53.793 60.8789 53.7244C63.3613 52.6974 65.8685 51.7527 68.5267 50.2891L68.7683 50.5225C68.6118 50.8355 68.447 51.1431 68.6887 51.1568H68.6859Z" fill="#C6DFAF"/>
<path d="M52.388 42.9209C54.0247 42.6737 55.7766 41.8197 57.5643 40.7295C57.6467 41.0645 57.7593 41.762 58.3854 41.6934C58.9044 42.2316 59.7227 43.6486 60.3928 43.3108C61.0656 42.973 57.1552 44.3543 55.4663 45.06C54.67 45.7768 53.7885 46.1338 52.9125 46.3699C52.8493 46.2189 53.4013 45.8234 53.3628 45.6477C53.2969 45.7164 52.5857 46.0761 52.5857 46.0761C52.5857 46.0761 51.8113 45.3044 51.4269 44.92C51.9733 43.9671 50.9106 44.1181 50.7376 44.2664L50.3916 43.9451V43.9259C50.7788 43.8243 51.1687 43.7227 51.5477 43.6238C51.8223 43.5085 52.3907 42.9181 52.3907 42.9181L52.388 42.9209Z" fill="#C9DFAC"/>
<path d="M61.5193 48.4053C63.0626 47.0103 64.4603 46.5407 65.8251 46.137C65.6878 45.8624 65.339 45.1704 65.3033 45.0963C65.048 45.4972 64.8145 45.9613 64.5509 45.9942C64.0264 45.8844 63.4141 45.7032 63.1587 45.4697C62.9362 45.0633 63.0241 44.2807 62.9005 43.726C62.4969 43.5914 62.0877 43.4679 61.6703 43.369C61.6428 43.3608 60.981 43.7644 60.7531 44.0061C60.5581 43.8276 60.4648 43.5805 60.3934 43.3086C60.2616 43.4102 56.9553 43.8358 55.4669 45.0578C54.6706 45.7746 53.7891 46.1316 52.9131 46.3677C52.9131 46.376 52.9735 46.4419 53.0641 46.5435C53.1547 46.6451 53.2783 46.7879 53.4156 46.9416C53.6875 47.2492 54.0115 47.6144 54.223 47.8506C54.3438 47.6941 54.4783 47.208 54.4756 47.1092C54.5388 47.1696 54.5525 48.0565 54.6349 48.3312C54.8957 48.6415 55.5905 49.3445 55.7003 49.3609C55.7855 49.4406 55.9887 48.8859 56.3622 48.4877C56.2194 49.3554 56.2605 50.0584 56.4555 50.6186L56.7384 50.9454C56.6258 51.1294 56.5544 51.2557 56.5104 51.2145C56.4033 51.198 56.3045 51.1706 56.2139 51.1321C56.3786 51.3436 57.0871 52.2388 57.2711 52.475C57.1558 52.1537 57.1036 51.7747 57.0953 51.3546C57.3041 51.5825 57.5155 51.8077 57.7352 52.0246L57.7709 52.0411C58.9517 51.5248 60.2121 50.8163 61.5495 49.8937C61.4781 49.4598 61.1513 48.7952 61.522 48.3971L61.5193 48.4053Z" fill="#C9DFAC"/>
<path d="M36.3814 31.4178C36.6807 30.226 35.9502 29.5065 36.5159 28.1774C37.6802 25.8487 39.9897 24.1132 41.8158 21.8779C42.8731 24.5471 44.3257 26.8785 46.0173 28.9875C44.68 29.3692 44.345 28.0923 42.549 29.0754C42.3541 29.2676 42.3211 29.6218 42.2085 29.8937C41.1375 29.9761 40.1325 29.3417 39.1549 30.2946C38.5562 30.8768 38.0565 31.6622 37.348 32.4887L37.164 32.3075C37.2601 31.8352 36.7521 31.7336 36.3841 31.415L36.3814 31.4178Z" fill="#ACCE73"/>
<path d="M39.2318 35.7464L37.7324 34.5408C37.9137 34.3541 38.0784 34.1674 38.235 33.9834C38.7732 34.4997 39.3691 34.961 40.0034 35.3839C39.7535 35.4882 39.4981 35.6091 39.2318 35.7491V35.7464Z" fill="#ACCE73"/>
<path d="M42.2055 29.8968C42.318 29.6249 42.351 29.2679 42.546 29.0784C44.3419 28.0953 44.6769 29.3695 46.0142 28.9905C46.6596 29.8034 47.3433 30.5833 48.0518 31.3357C47.769 31.3659 47.4889 31.3961 47.2033 31.4291C47.6097 31.8327 46.341 33.2634 46.7502 33.6698C44.1414 33.8978 42.2576 32.5797 39.1051 33.9005C38.4708 33.4776 37.8831 33.008 37.3477 32.4918C38.0534 31.6625 38.5559 30.8798 39.1546 30.2977C40.1322 29.3448 41.1372 29.9791 42.2082 29.8968H42.2055Z" fill="#ACCE73"/>
<path d="M46.7505 33.6662C46.3414 33.2598 47.6128 31.8291 47.2036 31.4254C47.4892 31.3952 47.7721 31.3622 48.0522 31.332C48.8677 32.208 49.719 33.0483 50.5868 33.8694C50.6197 33.949 50.6554 34.0259 50.6994 34.0973C51.1992 34.8937 51.8417 35.3358 52.3086 36.0827C51.136 36.4672 49.9579 36.8516 48.8073 37.1784C49.0792 35.3385 49.1067 33.6223 48.7332 32.1668C48.8677 32.6831 47.8215 33.5701 47.7913 33.9243C47.3327 35.5829 45.6741 38.329 44.4246 38.9798C42.9802 37.8649 41.533 36.7473 40.0803 35.6296C40.2396 35.2974 40.5169 34.7756 40.4483 34.7069C39.9842 34.4516 39.5366 34.1797 39.1055 33.8941C42.258 32.5733 44.1418 33.8914 46.7505 33.6634V33.6662Z" fill="#B8D590"/>
<path d="M48.8075 37.1815C49.9581 36.8547 51.1362 36.4703 52.3088 36.0858C52.4268 36.2753 52.5339 36.4867 52.6246 36.7257C52.7921 36.5527 52.9596 36.3824 53.0722 36.1572L53.4319 36.4813C53.4703 36.7174 53.0145 37.4479 53.918 36.9179L54.426 37.371C54.3793 37.7609 54.2228 38.1975 53.9015 38.7056L54.4727 38.1179C55.0191 37.8845 54.8049 38.4337 54.9724 38.593C55.0741 38.4886 55.2333 38.3266 55.3706 38.2113C55.6754 39.4305 57.2791 39.9523 57.4824 40.1418C57.4988 40.3477 57.5263 40.5454 57.5702 40.7294C55.7825 41.8196 54.0305 42.6736 52.3939 42.9208C52.3939 42.9208 51.8255 43.5084 51.5508 43.6265C51.1719 43.7254 50.782 43.827 50.392 43.9286C50.4057 42.1052 48.2254 42.0338 48.1649 41.9954L47.7475 41.6439C47.0775 40.8585 46.932 38.7632 44.7626 39.2493L44.4248 38.9857C45.6743 38.3321 47.3329 35.5888 47.7915 33.9302C47.8217 33.5732 48.3874 31.9475 48.7334 32.1727C49.5682 33.3562 48.7883 37.2996 48.8075 37.1843V37.1815Z" fill="#B8D590"/>
<path d="M46.7832 20.5984C46.7008 20.1673 46.8876 19.6126 46.9892 18.9755C47.9805 18.5087 49.0377 17.8551 50.1005 17.1631C50.5371 18.2368 51.0039 19.2501 51.5202 20.2524C51.273 20.2469 51.0039 20.2799 50.7019 20.3677C50.8694 20.5105 51.0369 20.6506 51.0424 20.9334C50.927 20.9966 50.798 21.0845 50.6469 21.2163L50.6359 21.2273C50.5755 21.057 50.4547 20.9939 49.9769 21.5376C49.7957 21.7435 50.3339 21.4827 49.9714 21.8918C49.9769 21.5376 49.4387 21.7957 49.0762 22.2049L49.3425 22.43C49.0927 22.6168 48.8455 22.5838 48.5791 22.6827C47.8102 22.0374 47.0111 21.4332 46.1846 20.8593C46.3823 20.7714 46.58 20.6835 46.7805 20.5957L46.7832 20.5984Z" fill="#D4E7CA"/>
</g>
</g>
</g>
<g style="mix-blend-mode:multiply">
<g opacity="0.9">
<g opacity="0.9">
<path d="M66.8719 44.1106C68.2064 42.1307 69.1209 40.2277 70.0985 38.3549C70.0655 38.0967 70.1507 37.7233 70.0353 37.5722C70.104 37.531 69.4449 36.3228 69.0056 35.79C68.5168 36.6825 67.8687 37.6272 67.0531 38.613C66.7181 38.5279 66.221 38.2231 65.8805 38.4894C64.6778 39.6016 64.2137 40.6643 63.8018 41.7078C63.961 41.8012 66.3254 42.949 66.8691 44.1134L66.8719 44.1106Z" fill="#C6DFAF"/>
<path d="M70.0381 44.7912C70.2523 46.1395 74.3412 45.9171 75.014 45.6672C75.6318 44.8818 72.3201 45.9994 72.754 45.2553C73.2592 45.2196 73.7096 45.1125 74.0419 45.2058C74.1242 45.0548 76.1234 44.3243 76.2058 44.1761C75.5137 42.976 72.9764 42.3115 72.3283 41.084C71.9246 41.5096 71.2107 43.4538 70.0408 44.7939L70.0381 44.7912Z" fill="#D4E7CB"/>
<path d="M67.5392 44.2978C67.6243 44.6191 68.6431 43.9875 68.7035 44.2759C69.0385 44.6741 69.5136 44.3363 69.9338 44.6823C71.0981 43.3422 70.9525 43.6443 71.499 42.436C71.5539 42.5102 72.0894 42.2053 72.1443 42.2795C72.202 41.6836 71.9219 41.5106 72.3256 41.0877C71.7297 39.9453 71.1118 38.8194 70.4226 37.7402C70.2523 38.2181 70.5846 38.3059 70.7466 38.5256C70.2605 38.7343 70.1287 38.5915 70.0958 38.3554C69.1182 40.2309 68.201 42.1312 66.8691 44.1111L67.0339 44.3171C67.2893 44.2155 67.5447 44.1084 67.5364 44.3006L67.5392 44.2978Z" fill="#C6DFAF"/>
<path d="M62.2174 30.9429C61.9099 32.2088 61.119 33.5242 60.1387 34.8506C60.3941 34.9384 60.935 35.0757 60.8362 35.5618C61.2206 36.0066 62.2751 36.7481 61.9648 37.2479C61.6545 37.7504 63.0083 34.7819 63.6811 33.505C64.299 32.931 64.6395 32.2638 64.8866 31.5937C64.7713 31.5333 64.4253 31.9397 64.2907 31.8958C64.3484 31.8491 64.6807 31.3164 64.6807 31.3164C64.6807 31.3164 64.1287 30.6546 63.8541 30.325C63.0687 30.6875 63.2609 29.8637 63.39 29.7401L63.1621 29.4463H63.1484C63.0413 29.7401 62.9342 30.0394 62.8298 30.3305C62.72 30.5365 62.2174 30.9429 62.2174 30.9429Z" fill="#C9DFAC"/>
<path d="M65.8808 38.4834C64.678 39.5956 64.2139 40.6583 63.802 41.7018C63.5961 41.5755 63.0771 41.2542 63.0221 41.2185C63.3544 41.0455 63.7334 40.8945 63.78 40.6913C63.7306 40.2711 63.6318 39.7796 63.4643 39.5627C63.1622 39.3594 62.5388 39.3732 62.1159 39.2386C62.039 38.9118 61.9704 38.5851 61.921 38.25C61.9155 38.2281 62.2807 37.7393 62.4866 37.5745C62.3603 37.4097 62.1736 37.3191 61.9649 37.245C62.0555 37.1489 62.6185 34.5868 63.6812 33.5021C64.2991 32.9282 64.6396 32.2609 64.8867 31.5908C64.8922 31.5908 64.9389 31.643 65.0158 31.7199C65.0899 31.7995 65.1915 31.9039 65.3041 32.022C65.5265 32.2581 65.7902 32.5355 65.9604 32.7167C65.8286 32.7991 65.4387 32.8705 65.3618 32.8622C65.403 32.9172 66.1005 32.9886 66.3092 33.0737C66.5344 33.2989 67.0369 33.892 67.0424 33.9799C67.0973 34.0513 66.6497 34.1721 66.3119 34.4385C67.0039 34.3863 67.5504 34.4687 67.976 34.6609L68.2122 34.9053C68.3632 34.8312 68.4676 34.7818 68.4401 34.7433C68.4346 34.6582 68.4182 34.5785 68.3962 34.5044C68.55 34.6499 69.2035 35.2651 69.3765 35.4271C69.1321 35.3145 68.8411 35.2458 68.5115 35.2129C68.6763 35.3914 68.8383 35.5754 68.9921 35.7621L69.0031 35.7923C68.517 36.682 67.8717 37.6212 67.0561 38.6043C66.7211 38.5191 66.224 38.2143 65.8835 38.4807L65.8808 38.4834Z" fill="#C9DFAC"/>
<path d="M54.3114 17.5864C53.3558 17.7374 52.8422 17.1141 51.7603 17.4656C49.8545 18.218 48.3305 19.9041 46.4521 21.1838C48.4733 22.1998 50.1978 23.5014 51.7356 24.9733C52.1283 23.9518 51.1507 23.6003 52.0459 22.2602C52.2107 22.1202 52.4908 22.1202 52.7132 22.0488C52.8505 21.214 52.4248 20.3819 53.2404 19.6817C53.7402 19.2533 54.3883 18.9155 55.0885 18.4185L54.9595 18.2619C54.5833 18.3031 54.5393 17.8995 54.3141 17.5864H54.3114Z" fill="#ACCE73"/>
<path d="M52.7126 22.0485C52.4902 22.1199 52.2101 22.1199 52.0453 22.2599C51.1473 23.6 52.1249 23.9515 51.735 24.973C52.3281 25.536 52.8911 26.1264 53.4321 26.736C53.476 26.5163 53.5199 26.2994 53.5639 26.0769C53.8522 26.4257 55.0632 25.5277 55.3516 25.8765C55.7113 23.8471 54.8106 22.2764 56.0655 19.8983C55.7772 19.371 55.4504 18.8795 55.0852 18.4209C54.3877 18.9179 53.7369 19.2557 53.2371 19.6841C52.4215 20.3843 52.8471 21.2164 52.7098 22.0512L52.7126 22.0485Z" fill="#ACCE73"/>
<path d="M55.3521 25.8768C55.0638 25.5281 53.8528 26.4233 53.5644 26.0773C53.5205 26.2997 53.4766 26.5166 53.4326 26.7363C54.0615 27.4366 54.6629 28.1615 55.245 28.9002C55.3054 28.9304 55.3631 28.9661 55.4153 29.0046C56.0057 29.4522 56.3078 29.9877 56.8597 30.4051C57.2414 29.5126 57.6286 28.6146 57.9636 27.7359C56.5027 27.821 55.1544 27.7222 54.0395 27.3295C54.4349 27.4695 55.2038 26.7116 55.4839 26.7116C56.8185 26.4672 59.084 25.3578 59.6827 24.4241C58.9083 23.2131 58.1339 21.9994 57.3568 20.7856C57.0849 20.8872 56.6565 21.0684 56.6071 21.0108C56.4396 20.6291 56.2583 20.2584 56.0634 19.9014C54.8084 22.2822 55.7091 23.8502 55.3494 25.8796L55.3521 25.8768Z" fill="#B8D590"/>
<path d="M57.9664 27.7334C57.6314 28.6122 57.2442 29.5102 56.8625 30.4026C57.0026 30.5097 57.1618 30.6058 57.3431 30.6937C57.1975 30.8145 57.0493 30.9326 56.8653 31.004L57.0932 31.3088C57.2772 31.3555 57.8813 31.048 57.4008 31.7207L57.722 32.1519C58.0296 32.1436 58.3838 32.0503 58.804 31.8333L58.3042 32.2397C58.0845 32.6517 58.5294 32.5226 58.642 32.6626C58.5514 32.734 58.4141 32.8466 58.3152 32.9482C59.2489 33.2723 59.5482 34.5657 59.6827 34.7387C59.8448 34.7661 59.9985 34.8018 60.1386 34.8485C61.1189 33.5222 61.9098 32.2095 62.2174 30.9409C62.2174 30.9409 62.7171 30.5372 62.8297 30.3285C62.9341 30.0374 63.0412 29.7408 63.1483 29.4415C61.7176 29.3262 61.8137 27.6099 61.7862 27.5604L61.5391 27.209C60.9706 26.6268 59.3367 26.3687 59.8695 24.7018L59.6855 24.4189C59.0868 25.3526 56.8186 26.462 55.4867 26.7064C55.2066 26.7064 53.8913 27.0359 54.0423 27.3243C54.9128 28.0602 58.0598 27.7252 57.9664 27.7307V27.7334Z" fill="#B8D590"/>
<path d="M74.2998 49.5613C74.5799 49.7425 74.8627 49.9238 75.1483 50.1078C74.9506 49.8277 74.5717 49.6794 74.8682 49.2372C74.6485 49.2125 74.5469 49.0725 74.4481 48.9297C74.3575 49.1604 74.3135 49.3691 74.2998 49.5613Z" fill="#D4E7CA"/>
<path d="M76.4193 47.2552L76.26 47.03C75.914 47.2854 75.6723 47.6891 75.9497 47.711C75.6037 47.9664 75.8453 47.5628 75.6723 47.6891C75.211 48.0268 75.2522 48.1257 75.3813 48.1861C76.1556 47.6149 76.8504 46.9367 76.7708 46.8241L76.6664 46.6758C76.5703 46.8762 76.5785 47.0712 76.4165 47.2552H76.4193Z" fill="#D4E7CA"/>
<path d="M74.0386 45.2062C73.7064 45.1128 73.2588 45.2199 72.7507 45.2556C72.3141 46.0026 71.7292 46.7825 71.1113 47.5706C71.9242 47.988 72.6848 48.4246 73.4345 48.8997C73.4482 48.7047 73.4922 48.496 73.5828 48.2653C73.6816 48.4054 73.7833 48.5482 74.0029 48.5729C74.0606 48.4878 74.1375 48.3917 74.2528 48.2818L74.2638 48.2736C74.1348 48.2132 74.0936 48.117 74.5522 47.7765C74.7252 47.6475 74.4835 48.0511 74.8322 47.7985C74.5521 47.7765 74.7938 47.3729 75.1398 47.1175L75.2963 47.3427C75.4584 47.1587 75.4501 46.9637 75.549 46.7605C75.0959 46.1124 74.6785 45.4424 74.2858 44.7559C74.2034 44.9041 74.121 45.0552 74.0386 45.2062Z" fill="#D4E7CA"/>
</g>
</g>
</g>
<g style="mix-blend-mode:multiply">
<g opacity="0.9">
<g opacity="0.9">
<path d="M30.3838 56.4482C28.9147 56.5635 27.4428 56.6926 25.9736 56.8491C26.2949 56.5992 26.6162 56.3493 26.9293 56.1049C28.0057 55.4321 29.1893 56.363 30.3838 56.4482Z" fill="#B8D590"/>
<path d="M34.4243 56.2064C34.4243 56.2064 34.4188 56.2147 34.416 56.2202C33.2792 56.2614 32.1478 56.319 31.0137 56.3987C31.0906 56.3822 31.1675 56.3602 31.2443 56.3328C32.2961 55.8385 33.3478 55.5584 34.4243 56.2064Z" fill="#B8D590"/>
<path d="M52.3036 47.2381C51.3315 50.1462 50.0546 52.5792 48.8655 55.0507C48.5415 55.2265 48.2037 55.6137 47.9236 55.6219C47.9401 55.7235 45.9575 56.053 44.9414 56.053C45.4851 54.853 45.9382 53.4552 46.2787 51.857C45.8641 51.5989 45.054 51.3545 45.0293 50.808C45.1446 48.732 45.9053 47.4166 46.6934 46.1699C46.9488 46.2523 50.4802 47.6418 52.3064 47.2354L52.3036 47.2381Z" fill="#C6DFAF"/>
<path d="M56.0683 49.7942C57.7929 48.9155 61.4067 53.106 61.7582 53.9683C61.4561 55.2095 59.5861 51.0574 59.1577 52.0872C59.5943 52.6144 59.8991 53.1389 60.3193 53.3888C60.2286 53.592 61.2914 56.1431 61.2035 56.3436C59.1961 56.6319 56.0491 54.6795 54.0527 55.0365C54.1516 54.2978 55.6674 52.024 56.0711 49.797L56.0683 49.7942Z" fill="#D4E7CB"/>
<path d="M53.1466 47.7428C53.5915 47.567 53.8414 49.0774 54.2204 48.9044C54.9865 48.9098 55.0552 49.6513 55.8405 49.7831C55.4314 52.0074 55.6318 51.6202 54.786 53.1333C54.9206 53.1278 55.0826 53.8994 55.2172 53.8912C54.5993 54.4294 54.138 54.2921 54.0446 55.0336C52.1938 55.3713 50.3402 55.6762 48.4756 55.8684C48.8518 55.3137 49.2665 55.5691 49.6701 55.5526C49.4449 54.91 49.1594 54.8908 48.8628 55.0528C50.0518 52.5786 51.3288 50.1456 52.3009 47.2402H52.6881C52.8171 47.5698 52.9352 47.9048 53.1439 47.7455L53.1466 47.7428Z" fill="#C6DFAF"/>
<path d="M33.0622 53.3037C34.1991 51.9773 34.9323 50.1429 35.5007 48.1109C35.8412 48.2921 36.5058 48.7095 36.9616 48.2234C37.8294 48.2427 39.6583 48.6793 39.9301 47.9681C40.202 47.2568 38.137 50.9832 37.3351 52.6721C37.272 53.743 36.8436 54.6135 36.3218 55.3989C36.1461 55.333 36.2751 54.6657 36.0994 54.5696C36.0994 54.663 35.8138 55.4209 35.8138 55.4209C35.8138 55.4209 34.5479 55.4154 33.9163 55.4099C33.5812 54.3472 32.837 55.2012 32.8178 55.4264L32.2714 55.4374L32.2549 55.4264C32.491 55.0804 32.7245 54.7344 32.9551 54.3994C33.0842 54.1247 33.065 53.3064 33.065 53.3064L33.0622 53.3037Z" fill="#C9DFAC"/>
<path d="M45.0294 50.8102C45.1448 48.7342 45.9054 47.4188 46.6936 46.1721C46.3558 46.0732 45.5018 45.8234 45.4139 45.7959C45.532 46.26 45.7214 46.7543 45.5347 46.9657C45.0157 47.2568 44.3649 47.5561 43.9667 47.5671C43.4532 47.4326 42.8793 46.8119 42.3246 46.5044C41.8852 46.6911 41.4486 46.8888 41.0257 47.1113C40.9982 47.125 40.7868 47.8774 40.8005 48.2097C40.4957 48.2179 40.2128 48.1081 39.9355 47.9653C39.9135 48.1301 37.5574 50.7525 37.3404 52.6693C37.2773 53.7403 36.8489 54.6108 36.3271 55.3961C36.3354 55.3989 36.437 55.4071 36.5935 55.4181C36.7528 55.4264 36.967 55.4401 37.2059 55.4566C37.681 55.484 38.2467 55.517 38.6119 55.5389C38.5817 55.3412 38.2933 54.9046 38.211 54.8332C38.3126 54.8332 39.0512 55.4538 39.3451 55.5911C39.8119 55.6296 40.957 55.6433 41.0614 55.5774C41.1959 55.5746 40.9076 55.0364 40.8884 54.4899C41.4843 55.2094 42.0939 55.6817 42.7145 55.9426L43.2115 55.9756C43.272 56.1843 43.3131 56.3243 43.2445 56.3271C43.1429 56.3902 43.0385 56.4397 42.9342 56.4781C43.2417 56.5111 44.5544 56.6538 44.9004 56.6923C44.5434 56.544 44.1891 56.3133 43.8404 56.0168C44.1974 56.0332 44.5571 56.0442 44.9114 56.0442L44.9553 56.0305C45.4963 54.8359 45.9466 53.4437 46.2844 51.851C45.8697 51.5928 45.0596 51.3484 45.0349 50.802L45.0294 50.8102Z" fill="#C9DFAC"/>
<path d="M10.5359 56.3354C9.80541 55.2754 8.61637 55.2754 7.98752 53.9326C7.03188 51.4557 7.49322 48.597 7.1582 45.7246C10.2118 46.8862 13.3121 47.5288 16.4234 47.8473C15.6436 49.0583 14.3227 48.3828 13.6609 50.3435C13.6609 50.6154 13.9218 50.8927 14.0536 51.1673C13.2435 51.9747 11.9034 52.23 11.8842 53.5948C11.8732 54.4296 12.1066 55.3413 12.2082 56.426H11.9089C11.5986 56.0251 11.1016 56.308 10.5386 56.3382L10.5359 56.3354Z" fill="#ACCE73"/>
<path d="M16.418 57.4173L14.202 57.6095C14.1965 57.3486 14.18 57.1015 14.1553 56.8598C15.0203 56.8488 15.8853 56.761 16.7503 56.6182C16.6322 56.8681 16.5224 57.1344 16.418 57.42V57.4173Z" fill="#ACCE73"/>
<path d="M14.0506 51.1647C13.9188 50.8901 13.6552 50.6155 13.6579 50.3409C14.3197 48.3802 15.6406 49.0557 16.4205 47.8447C17.615 47.971 18.8123 48.0479 20.0123 48.0864C19.8064 48.3061 19.6032 48.5258 19.3945 48.7482C20.059 48.7482 20.1936 50.6622 20.8609 50.6622C18.9139 52.6558 16.2914 53.0375 14.7976 56.19C13.9325 56.3328 13.0675 56.4097 12.2053 56.4207C12.1037 55.336 11.8702 54.4243 11.8812 53.5895C11.9005 52.2247 13.2405 51.9693 14.0506 51.162V51.1647Z" fill="#ACCE73"/>
<path d="M20.8612 50.6617C20.1939 50.6617 20.0593 48.7477 19.3948 48.7477C19.6035 48.5253 19.8067 48.3056 20.0126 48.0859C21.3967 48.1381 22.7834 48.1409 24.1674 48.1161C24.2608 48.1491 24.3542 48.1793 24.4448 48.1985C25.5075 48.4155 26.3945 48.2809 27.3886 48.4869C26.7432 49.5825 26.0979 50.6865 25.4251 51.7245C24.14 50.2224 22.7532 48.9784 21.2566 48.204C21.7893 48.4786 21.6603 49.8434 21.9266 50.118C22.9125 51.6229 23.805 54.7424 23.3189 56.0852C21.2236 56.3049 19.1229 56.5246 17.0194 56.7443C16.8766 56.3955 16.6762 55.8271 16.5636 55.8271C15.9759 55.9699 15.3855 56.0907 14.7979 56.1896C16.2917 53.0371 18.9142 52.6526 20.8612 50.6617Z" fill="#B8D590"/>
<path d="M25.4247 51.7245C26.0975 50.6838 26.7455 49.5826 27.3881 48.4869C27.6407 48.5391 27.9016 48.6132 28.1707 48.7231C28.168 48.4814 28.1625 48.2425 28.0691 48.0036L28.6293 47.9816C28.8573 48.1217 29.0797 48.9647 29.3845 47.9514L30.1726 47.9185C30.4555 48.2288 30.6861 48.6517 30.8399 49.2366L30.8262 48.4183C31.0816 47.8691 31.3589 48.41 31.6225 48.4073C31.6198 48.2617 31.617 48.0338 31.6335 47.8553C32.883 48.5089 34.624 47.7592 34.9425 47.751C35.1265 47.8883 35.3105 48.0091 35.4945 48.108C34.9288 50.1401 34.1929 51.9772 33.056 53.3008C33.056 53.3008 33.0725 54.1191 32.9461 54.3937C32.7182 54.7315 32.4821 55.0775 32.2459 55.4207C30.7603 54.1109 28.9177 55.591 28.838 55.6047L28.2092 55.6459C27.0174 55.558 25.1803 54.163 23.8017 56.0331L23.3102 56.0825C23.7962 54.7425 22.9038 51.6202 21.9179 50.1153C21.6488 49.8407 20.7783 48.2837 21.2479 48.2013C22.901 48.4595 25.4988 51.8179 25.4164 51.7218L25.4247 51.7245Z" fill="#B8D590"/>
<path d="M65.4733 50.124C65.9402 50.2531 66.4125 50.3822 66.8903 50.514C66.3878 50.5469 65.8633 50.2943 65.6436 50.9424C65.4074 50.7474 65.1548 50.7611 64.8994 50.7776C65.0724 50.503 65.2674 50.2915 65.4733 50.124Z" fill="#D4E7CA"/>
<path d="M64.8774 54.0669L64.4737 54.0944C64.4325 53.5479 64.6604 52.9877 64.9488 53.2403C64.9076 52.6966 64.6824 53.2568 64.6604 52.985C64.6055 52.26 64.7565 52.2215 64.946 52.2984C65.0366 53.5204 64.9268 54.7479 64.7263 54.7617L64.46 54.7809C64.5945 54.5255 64.8252 54.3745 64.8774 54.0669Z" fill="#D4E7CA"/>
<path d="M60.3169 53.3866C59.8967 53.1367 59.5919 52.6094 59.1553 52.0849C59.5837 51.0551 59.9104 49.8496 60.2153 48.6084C61.4537 49.0697 62.6675 49.4624 63.9115 49.8139C63.7055 49.9842 63.5105 50.1956 63.3375 50.4702C63.5902 50.4538 63.8456 50.4373 64.0817 50.6322C64.0378 50.7558 64.0076 50.9123 63.9884 51.1128V51.1293C63.8016 51.0524 63.6506 51.0908 63.7028 51.8131C63.722 52.0877 63.9499 51.5247 63.9911 52.0712C63.7028 51.8131 63.4776 52.3787 63.516 52.9225L63.917 52.895C63.8648 53.2026 63.6341 53.3536 63.4996 53.6117C62.3407 53.6914 61.1929 53.8232 60.0477 53.9907C60.1384 53.7902 60.229 53.5898 60.3196 53.3838L60.3169 53.3866Z" fill="#D4E7CA"/>
</g>
</g>
</g>
<g style="mix-blend-mode:multiply">
<g opacity="0.9">
<g opacity="0.9">
<path d="M50.1987 52.9404C49.5424 55.9034 48.595 58.4078 47.7245 60.9506C47.4554 61.1456 47.1918 61.552 46.9501 61.5795C46.9721 61.6783 46.692 61.2664 45.8133 61.3296C46.2087 60.0994 45.1048 59.5392 45.297 57.9245C44.9235 57.6938 44.2096 57.4988 44.1574 56.9551C44.1272 54.8763 44.7011 53.517 45.2998 52.2236C45.5249 52.2895 48.6527 53.4594 50.1987 52.9404Z" fill="#C6DFAF"/>
<path d="M53.5978 55.2583C55.0285 54.2752 58.4007 58.235 58.7577 59.0698C58.5737 60.3275 56.7036 56.299 56.3988 57.3535C56.808 57.8506 57.1018 58.3586 57.4808 58.581C57.4149 58.7897 61.5257 57.9439 61.4598 58.1499C59.749 58.5618 53.8807 60.1325 52.1836 60.6131C52.222 59.8689 53.3864 57.5073 53.5951 55.2583H53.5978Z" fill="#D4E7CB"/>
<path d="M50.9564 53.3927C51.3271 53.1895 51.6374 54.6806 51.9532 54.4856C52.6122 54.4444 52.7194 55.1776 53.4031 55.2627C53.1889 57.5063 53.34 57.1081 52.7056 58.6706C52.821 58.6569 53.0077 59.4148 53.1258 59.4011C52.626 59.975 52.2223 59.8679 52.1866 60.6121C50.6131 61.0652 49.0369 61.4826 47.4414 61.7901C47.7325 61.2135 48.1032 61.4414 48.4492 61.4002C48.2158 60.7714 47.9687 60.7714 47.7243 60.9498C48.5948 58.407 49.5421 55.9026 50.1985 52.9396L50.5307 52.9121C50.6625 53.2361 50.7834 53.5629 50.9564 53.3899V53.3927Z" fill="#C6DFAF"/>
<path d="M34.0049 60.1837C34.9001 58.7915 35.4191 56.9132 35.7788 54.8509C36.0837 55.0101 36.6823 55.3864 37.0448 54.8728C37.7917 54.8371 39.3954 55.1584 39.5849 54.4362C39.7771 53.7085 38.2283 57.5557 37.6434 59.2913C37.6544 60.3622 37.053 58.6761 36.6521 59.4917C36.4983 59.4368 34.0049 60.1865 34.0049 60.1865V60.1837Z" fill="#C9DFAC"/>
<path d="M44.1549 56.9548C44.1246 54.876 44.6986 53.5167 45.2972 52.2233C45.0006 52.1464 44.251 51.9487 44.1713 51.9268C44.3031 52.3826 44.4981 52.8659 44.3471 53.0856C43.9187 53.4069 43.375 53.7474 43.0345 53.7831C42.5841 53.6815 42.0514 53.0966 41.5543 52.8247C41.1864 53.0389 40.8239 53.2641 40.4751 53.5112C40.4504 53.525 40.3186 54.2884 40.3488 54.6206C40.0852 54.6481 39.838 54.5575 39.5881 54.4284C39.5799 54.5932 37.7126 57.3585 37.6467 59.2835C37.6 58.9842 46.327 60.4066 46.5494 59.5004C46.176 59.2697 44.2125 57.493 44.1576 56.9493L44.1549 56.9548Z" fill="#C9DFAC"/>
<path d="M14.7933 64.6028C14.0958 63.5922 13.0743 63.6636 12.4482 62.362C11.4706 59.9482 11.6903 57.0703 11.2207 54.2227C13.9228 55.192 16.6332 55.6424 19.3326 55.7659C18.7367 57.0209 17.5559 56.4277 17.1083 58.4269C17.122 58.6987 17.3664 58.9596 17.4982 59.2232C16.8529 60.08 15.7133 60.4178 15.7819 61.7798C15.8231 62.6146 16.0812 63.5071 16.235 64.5863L15.9769 64.6055C15.6858 64.2211 15.2739 64.5369 14.7906 64.6028H14.7933Z" fill="#ACCE73"/>
<path d="M17.5005 59.2229C17.3714 58.9566 17.127 58.6984 17.1106 58.4266C17.5582 56.4274 18.7362 57.0206 19.3349 55.7656C20.3729 55.8178 21.4082 55.8205 22.4434 55.7848C22.2814 56.0155 22.1166 56.2489 21.9519 56.4823C22.5231 56.4439 22.7592 58.3414 23.3332 58.303C21.7816 60.412 19.5463 60.9557 18.4561 64.1961C17.7202 64.391 16.9815 64.5228 16.2373 64.586C16.0835 63.5095 15.8254 62.6143 15.7842 61.7795C15.7156 60.4175 16.8552 60.0797 17.5005 59.2229Z" fill="#ACCE73"/>
<path d="M23.3331 58.3029C22.7591 58.3413 22.523 56.4438 21.9518 56.4822C22.1166 56.2461 22.2813 56.0154 22.4433 55.7847C23.6379 55.7518 24.8324 55.6667 26.0215 55.5596C26.1039 55.587 26.1862 55.6117 26.2659 55.6255C27.194 55.7765 27.952 55.587 28.8197 55.7298C28.3337 56.864 27.8449 58.0036 27.3286 59.0828C26.1286 57.6631 24.8571 56.507 23.5198 55.8287C23.9949 56.0703 23.9702 57.4406 24.2173 57.6988C25.1592 59.1404 26.4608 59.1295 26.1231 60.4997C24.3326 60.8485 22.2017 64.2646 20.403 64.6161C20.2602 64.2756 20.0515 63.7236 19.9527 63.7291C19.4556 63.9104 18.9558 64.0669 18.4561 64.2014C19.5462 60.9611 21.7815 60.4174 23.3331 58.3084V58.3029Z" fill="#B8D590"/>
<path d="M27.3319 59.0801C27.8454 58.0009 28.3342 56.8613 28.823 55.7272C29.0427 55.7656 29.2733 55.8233 29.5122 55.9139C29.4958 55.675 29.4765 55.4361 29.3804 55.2027L29.861 55.1478C30.0642 55.2741 30.3114 56.1007 30.5091 55.0709L31.1846 54.9885C31.4482 55.2796 31.6707 55.6887 31.8409 56.2627L31.7778 55.4443C31.9645 54.8814 32.2363 55.4032 32.4643 55.3839C32.4533 55.2384 32.4341 55.0132 32.4396 54.8347C33.5572 55.4114 35.0071 54.5519 35.2845 54.5244C35.452 54.648 35.6168 54.7606 35.7843 54.8484C35.4218 56.9107 34.9055 58.7891 34.0103 60.1813C34.0103 60.1813 25.0636 61.5241 24.1217 60.0825C23.8746 59.8243 23.1276 55.9359 23.5258 55.8233C24.9675 55.9798 27.4115 59.168 27.3346 59.0774L27.3319 59.0801Z" fill="#B8D590"/>
<path d="M61.7207 55.0078C62.1326 55.1067 62.5445 55.2083 62.9646 55.3099C62.5335 55.373 62.0667 55.1561 61.9184 55.8152C61.7042 55.6339 61.4845 55.6669 61.2676 55.6971C61.3994 55.4115 61.5532 55.1891 61.7207 55.0078Z" fill="#D4E7CA"/>
<path d="M57.4833 58.58C57.1071 58.3576 56.8105 57.8496 56.4014 57.3526C56.7062 56.2981 56.9121 55.0733 57.0961 53.8184C58.1918 54.2028 59.26 54.5186 60.353 54.7932C60.1854 54.9745 60.0317 55.1996 59.8999 55.4852C60.1168 55.4523 60.3337 55.4221 60.5507 55.6033C60.5205 55.7296 60.504 55.8862 60.5012 56.0866V56.1031C60.3365 56.0372 60.2102 56.0839 60.3008 56.8033C60.3365 57.0752 60.4958 56.4985 60.5644 57.0422C60.3008 56.8033 60.1415 57.38 60.2074 57.921L60.5507 57.8688C60.526 58.1791 60.3365 58.3439 60.2349 58.6075C59.2435 58.7585 58.2605 58.9617 57.2856 59.2007C57.3515 58.9947 57.4147 58.7887 57.4806 58.58H57.4833Z" fill="#D4E7CA"/>
</g>
</g>
</g>
<path d="M14.7607 66.0936L6.97837 51.4076C5.21814 48.17 3.22999 44.7676 1.07707 41.7305C0.85189 41.4119 0.437234 41.2362 0.753032 41.011C1.07158 40.7858 1.51095 40.86 1.73612 41.1785C3.93847 44.2843 5.77834 47.6675 7.55779 50.9408L15.3704 65.3164C20.8515 61.7823 26.7693 59.5524 32.9754 58.6819C38.5279 57.9021 42.9821 58.5968 46.2169 60.7387C47.5872 61.6806 49.4793 61.7877 50.9347 61.0051C51.4345 60.7387 51.8903 60.3735 52.3709 59.9918C52.6647 59.7584 52.9668 59.5167 53.2881 59.2916C55.2487 57.9185 57.6378 57.3446 59.7221 56.9135C65.8705 55.6448 72.4529 54.9555 79.7876 54.8127C77.1651 52.896 74.6277 50.8392 72.2194 48.6808C71.9311 48.4199 71.9064 47.975 72.1645 47.6867C72.4254 47.3956 72.7439 47.8295 72.9883 48.1315C74.4053 49.8588 77.9725 52.0639 81.1716 54.2937C81.4243 54.4695 81.7785 55.3592 81.4709 55.3812C68.1415 56.3862 57.7861 58.2865 52.7443 61.2193C50.2646 62.6637 47.5927 62.5566 45.8078 61.3319C42.8777 59.3904 38.3659 59.3492 33.1676 60.0797C26.9285 60.9529 20.9119 62.4358 15.4308 66.0963C15.3154 66.1732 14.8541 66.2693 14.758 66.0963L14.7607 66.0936Z" fill="#010101"/>
<path d="M1.07734 41.73C0.786256 41.4746 0.346885 41.1863 0.753303 41.0105C1.32998 40.7606 2.62338 39.8846 3.21378 39.6869C3.5845 39.5633 3.98268 39.7638 4.10625 40.1318C4.22983 40.4997 4.03211 40.9007 3.66139 41.0242C3.10668 41.211 2.55472 41.4224 2.01649 41.6558C1.89567 41.7071 1.78766 41.7876 1.69246 41.8975C1.55241 42.0568 1.2119 41.8481 1.07734 41.7327V41.73Z" fill="#010101"/>
<path d="M48.8342 60.4748C48.7655 60.4748 48.6996 60.4336 48.6722 60.3649C47.6479 57.8715 47.7055 54.7959 48.8314 51.7011C50.166 48.0406 52.7363 44.652 56.2705 41.9031C59.1264 39.6816 62.6249 37.8417 66.9582 36.2819C65.209 34.7084 53.6288 24.1553 49.5537 17.1061C41.2029 20.319 34.5958 28.8868 33.0882 38.4733C33.08 38.531 33.0415 38.5831 32.9866 38.6079C32.9317 38.6326 32.8685 38.6271 32.8191 38.5969C28.2936 35.697 23.5841 33.8956 18.8224 33.2393C13.8136 32.55 8.85144 33.3025 4.82296 35.3593C5.44357 36.6884 6.06418 38.012 6.68479 39.3328C9.45283 45.2286 12.3142 51.3249 14.9257 57.3827C21.5493 53.9117 29.7463 53.1675 39.2916 55.1721C43.5425 56.0646 46.4726 57.7095 48.252 60.2002C48.3097 60.2798 48.2905 60.3897 48.2108 60.4446C48.1312 60.5023 48.0213 60.483 47.9637 60.4034C46.2391 57.9896 43.3777 56.3914 39.2175 55.5154C29.6749 53.5108 21.4998 54.2742 14.9202 57.7836C14.8763 57.8056 14.8269 57.8111 14.7802 57.7946C14.7335 57.7782 14.6951 57.7425 14.6758 57.6985C12.0451 51.5858 9.159 45.4318 6.36625 39.4839C5.72092 38.1108 5.07559 36.735 4.43027 35.3565C4.38908 35.2714 4.42478 35.1698 4.50716 35.1258C8.62626 32.9757 13.7257 32.1821 18.8691 32.8933C23.6006 33.5469 28.2799 35.3181 32.7807 38.1602C34.3954 28.4996 41.1122 19.9099 49.5674 16.7244C49.6498 16.6942 49.7404 16.7244 49.7816 16.8013C54.0654 24.342 67.2768 36.1007 67.4086 36.2188C67.4553 36.26 67.4772 36.3231 67.4635 36.3835C67.4525 36.444 67.4086 36.4961 67.3482 36.5154C62.9215 38.0834 59.3681 39.937 56.4792 42.1832C52.9972 44.8909 50.4653 48.2246 49.1555 51.8219C48.0598 54.8316 48.0021 57.8193 48.9907 60.2304C49.0264 60.321 48.9852 60.4226 48.8946 60.4611C48.8726 60.4693 48.8507 60.4748 48.8287 60.4748H48.8342Z" fill="#010101"/>
<path d="M49.5315 60.4938H49.5233C49.4271 60.4883 49.3503 60.4087 49.3557 60.3098C49.3557 60.2439 49.6798 53.7742 55.1417 48.3123C57.9097 45.5442 61.4769 43.3639 65.7415 41.837C68.0949 40.994 70.5362 40.4118 72.6781 39.9313C66.2496 33.8597 60.3565 27.0467 55.1637 19.6708C54.0707 19.528 52.9476 19.7504 51.992 20.3051C51.9068 20.3546 51.7997 20.3243 51.7503 20.242C51.7009 20.1568 51.7311 20.0497 51.8135 20.0003C52.8597 19.3934 54.0927 19.1573 55.2873 19.333C55.3339 19.3413 55.3779 19.366 55.4053 19.4072C60.6613 26.8792 66.634 33.7746 73.1587 39.9038C73.2053 39.9477 73.2246 40.0164 73.2081 40.0796C73.1916 40.1427 73.1394 40.1894 73.0763 40.2059C70.8712 40.6947 68.3118 41.2906 65.8569 42.1693C61.6417 43.6796 58.1184 45.8298 55.3861 48.5622C50.0258 53.9225 49.7045 60.2604 49.7018 60.3263C49.6963 60.4197 49.6194 60.4966 49.526 60.4966L49.5315 60.4938Z" fill="#010101"/>
<path d="M50.3781 60.4753C50.3397 60.4753 50.3012 60.4643 50.271 60.4368C50.1941 60.3764 50.1804 60.2666 50.2408 60.1897C50.3781 60.0139 53.6267 55.8646 55.2689 54.3982C60.2228 49.9798 69.2052 46.0969 77.3967 47.8324C75.6667 45.0451 73.5522 42.7165 70.9462 40.7228C70.8693 40.6624 70.8556 40.5526 70.9132 40.4757C70.9736 40.3988 71.0835 40.3851 71.1604 40.4427C73.9119 42.5462 76.1225 45.0204 77.9157 48.0026C77.9514 48.0631 77.9486 48.1399 77.9075 48.1976C77.8663 48.2553 77.7949 48.28 77.7235 48.2663C69.5484 46.3385 60.4754 50.227 55.505 54.6591C53.8849 56.1035 50.5511 60.36 50.5182 60.4039C50.4825 60.4478 50.433 60.4725 50.3781 60.4725V60.4753Z" fill="#010101"/>
<path d="M48.5515 60.4856C48.4911 60.4856 48.4307 60.4527 48.3977 60.3978C46.6622 57.3634 44.545 54.4992 42.4992 51.7312L32.6847 38.4485C32.627 38.3716 32.6435 38.259 32.7232 38.2013C32.8 38.1436 32.9126 38.1601 32.9703 38.2398L42.7847 51.5225C44.8361 54.2988 46.9588 57.1711 48.7053 60.222C48.7547 60.3072 48.7245 60.4142 48.6394 60.4637C48.6119 60.4802 48.5817 60.4856 48.5515 60.4856Z" fill="#010101"/>
<path d="M45.5612 48.5735C45.5419 48.5735 45.5227 48.5707 45.5035 48.5653C45.4129 48.535 45.3634 48.4334 45.3936 48.3428C47.4697 42.2328 52.3055 37.2158 58.3359 34.9173C58.4265 34.8816 58.5281 34.9283 58.5638 35.0189C58.5995 35.1095 58.5528 35.2111 58.4622 35.2468C52.5307 37.5068 47.769 42.447 45.7287 48.4582C45.7039 48.5323 45.6353 48.579 45.5612 48.579V48.5735Z" fill="#010101"/>
<path d="M43.0758 44.9794C43.0511 44.9794 43.0291 44.9739 43.0072 44.9656C42.9165 44.9272 42.8753 44.8229 42.9138 44.735C43.0593 44.3972 43.1994 44.0649 43.3394 43.7382C44.8607 40.1545 46.1734 37.057 49.4275 34.7228C49.5071 34.6651 49.6169 34.6844 49.6746 34.764C49.7323 34.8436 49.7131 34.9535 49.6334 35.0084C46.459 37.2876 45.1628 40.3413 43.6635 43.8755C43.5234 44.205 43.3834 44.5373 43.2378 44.875C43.2104 44.9409 43.1445 44.9821 43.0758 44.9821V44.9794Z" fill="#010101"/>
<path d="M52.1463 32.9649C52.0941 32.9649 52.0419 32.9401 52.0062 32.8962C51.9458 32.8193 51.9596 32.7095 52.0392 32.6491C52.9893 31.9131 53.9587 31.4573 54.7358 31.0948L54.7908 31.0673C54.8786 31.0261 54.983 31.0646 55.0242 31.1525C55.0654 31.2403 55.0269 31.3447 54.939 31.3859L54.8841 31.4106C54.1235 31.7676 53.1733 32.2124 52.2534 32.9264C52.2204 32.9511 52.1847 32.9621 52.1463 32.9621V32.9649Z" fill="#010101"/>
<path d="M39.8247 41.7631C39.8055 41.7631 39.7836 41.7604 39.7643 41.7521C39.6737 41.7192 39.627 41.6176 39.66 41.527C42.2166 34.6316 45.9952 30.4521 51.9102 27.9779C52.0008 27.9394 52.1024 27.9833 52.1409 28.0712C52.1793 28.1618 52.1354 28.2634 52.0475 28.3019C46.2286 30.7349 42.5104 34.8513 39.9923 41.6478C39.9648 41.7192 39.8989 41.7631 39.8275 41.7631H39.8247Z" fill="#010101"/>
<path d="M36.9654 39.2071C36.9489 39.2071 36.9325 39.2071 36.916 39.1989C36.8226 39.1714 36.7677 39.0753 36.7952 38.982C36.9133 38.5755 37.0231 38.1719 37.1329 37.7737C37.6931 35.7169 38.2204 33.7754 39.6923 32.1031C39.7554 32.0317 39.868 32.0234 39.9394 32.0866C40.0136 32.1498 40.0191 32.2623 39.9559 32.3365C38.5389 33.9457 38.0199 35.8514 37.4707 37.8671C37.3609 38.268 37.251 38.6717 37.1329 39.0808C37.111 39.1577 37.0396 39.2071 36.9627 39.2071H36.9654Z" fill="#010101"/>
<path d="M41.5575 30.3728C41.5191 30.3728 41.4779 30.3591 41.4477 30.3344C41.3735 30.274 41.3598 30.1614 41.4229 30.0872C42.2413 29.0794 43.2628 27.8245 44.5095 27.0968C44.5919 27.0473 44.7018 27.0748 44.7512 27.1599C44.8006 27.2451 44.7704 27.3522 44.688 27.4016C43.4935 28.0963 42.4967 29.3238 41.6976 30.3097C41.6619 30.3536 41.6124 30.3756 41.5603 30.3756L41.5575 30.3728Z" fill="#010101"/>
<path d="M46.1843 26.3385C46.1376 26.3385 46.091 26.3193 46.0553 26.2836C45.9894 26.2122 45.9921 26.1023 46.0635 26.0337C46.6594 25.4707 47.8237 24.6524 48.6119 24.3366C48.7025 24.3009 48.8041 24.3449 48.8398 24.4355C48.8755 24.5261 48.8315 24.6277 48.7409 24.6634C48.0022 24.96 46.8626 25.7591 46.3052 26.2891C46.2722 26.322 46.2283 26.3385 46.1843 26.3385Z" fill="#010101"/>
<path d="M47.7803 60.7965C46.7121 60.7965 45.7098 60.6428 44.7816 60.3352C44.6882 60.305 44.6388 60.2061 44.669 60.1128C44.6992 60.0194 44.7981 59.97 44.8914 60.0002C46.4732 60.5219 48.2856 60.5824 50.282 60.1787C52.152 59.7997 53.948 59.0583 55.483 58.3937C55.5709 58.3553 55.6752 58.3937 55.7137 58.4844C55.7521 58.575 55.7137 58.6766 55.6231 58.715C54.0715 59.3851 52.2564 60.1347 50.3506 60.5219C49.4582 60.7032 48.5986 60.7938 47.7776 60.7938L47.7803 60.7965Z" fill="#010101"/>
<path d="M15.6677 61.6174C15.654 61.6174 15.6403 61.6174 15.6238 61.6119C15.5771 61.6009 15.5359 61.5707 15.5139 61.5268C14.0146 58.8933 12.6388 56.1307 11.3097 53.4561C8.85472 48.5241 6.3146 43.4219 2.8985 38.9156C2.85731 38.8635 2.85181 38.7921 2.87927 38.7317C3.35434 37.7513 4.14796 36.9302 5.10908 36.4195C5.19421 36.3755 5.30131 36.4057 5.34799 36.4909C5.39467 36.576 5.36172 36.6831 5.27659 36.7298C4.41158 37.1911 3.69486 37.9188 3.2445 38.7893C6.64962 43.3011 9.17875 48.3841 11.6255 53.2995C12.9271 55.9138 14.2727 58.6159 15.7309 61.1945C22.4532 56.9875 30.6201 55.3261 38.1635 56.6305C41.8597 57.2704 44.8282 58.539 46.9894 60.4036C47.0635 60.4668 47.0717 60.5794 47.0086 60.6508C46.9454 60.7249 46.8328 60.7332 46.7614 60.67C44.6497 58.8494 41.7389 57.6054 38.1058 56.9765C30.5871 55.6749 22.445 57.3555 15.7666 61.5899C15.7391 61.6091 15.7062 61.6174 15.6732 61.6174H15.6677Z" fill="#010101"/>
<path d="M17.3476 51.4081C17.2844 51.4081 17.2267 51.3751 17.1938 51.3175C17.1471 51.2323 17.1773 51.1252 17.2624 51.0785C20.1623 49.4776 23.7075 48.6812 27.5135 48.7636C30.6578 48.835 34.0464 49.4941 37.8744 50.7765C37.9678 50.8067 38.0172 50.9083 37.9843 50.9989C37.9541 51.0923 37.8552 51.1417 37.7618 51.1088C33.9695 49.8373 30.6166 49.1838 27.5053 49.1151C23.7541 49.03 20.2776 49.8154 17.43 51.3861C17.4025 51.3998 17.375 51.4081 17.3448 51.4081H17.3476Z" fill="#010101"/>
<path d="M33.9667 46.3737C33.9447 46.3737 33.9228 46.3709 33.9035 46.3627C32.0087 45.624 30.0151 45.1929 27.983 45.083C27.8869 45.0775 27.8128 44.9952 27.8155 44.8963C27.821 44.8002 27.8896 44.7233 28.0022 44.7288C30.0728 44.8414 32.1021 45.278 34.0326 46.0304C34.1232 46.0661 34.1672 46.1677 34.1315 46.2584C34.104 46.327 34.0381 46.3709 33.9667 46.3709V46.3737Z" fill="#010101"/>
<path d="M15.648 47.2805C15.5931 47.2805 15.5409 47.2558 15.5052 47.2091C15.4475 47.1295 15.4668 47.0197 15.5437 46.962C17.9657 45.2073 21.1401 44.8146 23.9247 44.5812C24.0098 44.5702 24.1059 44.6443 24.1141 44.7432C24.1224 44.8393 24.051 44.9244 23.9521 44.9327C21.2143 45.1606 18.0975 45.545 15.7496 47.2476C15.7194 47.2696 15.6837 47.2805 15.6453 47.2805H15.648Z" fill="#010101"/>
<path d="M13.0695 42.8866C13.0064 42.8866 12.946 42.8509 12.913 42.7932C12.8691 42.7081 12.902 42.601 12.9871 42.5543C19.2097 39.2975 27.6676 39.7259 31.6577 42.1726C31.74 42.2221 31.7675 42.3319 31.7153 42.4143C31.6632 42.4967 31.5561 42.5214 31.4737 42.472C27.5633 40.0774 19.2674 39.6627 13.1492 42.8646C13.1245 42.8784 13.0942 42.8839 13.0668 42.8839L13.0695 42.8866Z" fill="#010101"/>
<path d="M29.6991 39.2062C29.6744 39.2062 29.6497 39.2007 29.625 39.1897L29.3504 39.0606C27.9306 38.3961 26.7032 37.8194 25.1763 37.413C25.083 37.3883 25.0253 37.2922 25.0528 37.1988C25.0775 37.1054 25.1736 37.0478 25.2697 37.0752C26.8267 37.4899 28.0679 38.072 29.5014 38.7448L29.776 38.8739C29.8639 38.9151 29.9023 39.0194 29.8611 39.1073C29.8309 39.1705 29.7678 39.2089 29.7019 39.2089L29.6991 39.2062Z" fill="#010101"/>
<path d="M10.7191 38.7311C10.6532 38.7311 10.5928 38.6954 10.5598 38.6322C10.5159 38.5444 10.5516 38.44 10.6395 38.3961C14.2972 36.5837 18.5674 36.6386 22.3377 36.6853C22.4338 36.6853 22.5135 36.7677 22.5107 36.8638C22.5107 36.9599 22.4311 37.0368 22.335 37.0368C18.6085 36.9901 14.3796 36.9352 10.7987 38.7091C10.774 38.7229 10.7466 38.7284 10.7218 38.7284L10.7191 38.7311Z" fill="#010101"/>
<path d="M30.4768 29.1149C30.3917 29.1149 30.3148 29.0518 30.3038 28.9639C29.9935 26.8247 30.3423 24.5757 31.2842 22.6287C31.3281 22.5409 31.4324 22.5052 31.5203 22.5464C31.6082 22.5875 31.6439 22.6946 31.6027 22.7825C30.691 24.6663 30.3532 26.844 30.6553 28.9145C30.669 29.0106 30.6031 29.1012 30.507 29.1149C30.4988 29.1149 30.4905 29.1149 30.4823 29.1149H30.4768Z" fill="#010101"/>
<path d="M28.0961 28.4117C28.0192 28.4117 27.9506 28.3623 27.9258 28.2854C27.5414 26.9783 27.0965 25.6684 26.6077 24.3942C26.572 24.3036 26.6187 24.202 26.7093 24.1663C26.8 24.1306 26.9016 24.1773 26.9373 24.2679C27.4288 25.5531 27.8764 26.8712 28.2664 28.1866C28.2938 28.2799 28.2416 28.3788 28.1483 28.4063C28.1318 28.4117 28.1153 28.4145 28.0988 28.4145L28.0961 28.4117Z" fill="#010101"/>
<path d="M24.6117 29.2494C24.5732 29.2494 24.5348 29.2357 24.5018 29.2109C23.0354 28.0301 21.1928 27.3573 19.3117 27.3162C19.2156 27.3162 19.136 27.2338 19.1387 27.1349C19.1387 27.0388 19.2129 26.9647 19.32 26.9619C21.2779 27.0059 23.1974 27.7061 24.7242 28.9336C24.8011 28.994 24.8121 29.1066 24.7517 29.1807C24.716 29.2247 24.6666 29.2466 24.6144 29.2466L24.6117 29.2494Z" fill="#010101"/>
</svg>
