<svg width="83" height="83" viewBox="0 0 83 83" fill="none" xmlns="http://www.w3.org/2000/svg">
<g style="mix-blend-mode:multiply">
<g opacity="0.9">
<g opacity="0.9">
<path d="M38.9267 41.7761C37.4618 41.8873 35.9941 41.9957 34.5264 42.107C34.8655 41.8698 35.2018 41.6326 35.5292 41.3983C36.649 40.7629 37.7221 41.6941 38.9237 41.7761H38.9267Z" fill="#C0E2F5"/>
<path d="M43.0554 41.4281L43.0467 41.4427L39.5645 41.7297C39.6434 41.7121 39.7223 41.6887 39.8013 41.6594C40.9035 41.1587 41.9736 40.8571 43.0554 41.4281Z" fill="#C0E2F5"/>
<path d="M58.6427 28.0781C59.0666 31.0093 58.7041 33.8322 58.1193 36.7048C57.8298 37.0211 57.5696 37.5452 57.2714 37.6946C57.324 37.8088 55.2657 38.986 54.1634 39.3374C54.5698 37.9874 54.792 36.5174 54.8067 34.8922C54.3593 34.8073 53.5377 34.8337 53.4325 34.3271C53.2073 32.3153 53.6488 30.8688 53.9909 29.4515C54.1049 29.4515 54.9324 29.4866 55.9235 29.3139C56.9059 29.1411 58.0374 28.7194 58.6427 28.0752V28.0781Z" fill="#D7ECF9"/>
<path d="M61.9463 25.5712C62.8585 24.8508 64.49 24.2564 65.1215 23.8991C65.5835 25.006 68.6213 19.5975 68.8376 20.6868C69.4516 20.7161 74.2466 23.9694 74.7115 23.7996C75.0273 22.6253 72.8666 27.5975 72.9017 27.8172C71.4895 29.7001 65.0163 31.6474 63.2883 33.4131C63.1801 33.0734 63.1421 31.5595 62.9287 29.9255C62.7269 28.2857 62.3556 26.5434 61.9463 25.5712Z" fill="#DDF0FA"/>
<path d="M59.4841 28.0369C59.7502 27.6445 59.9695 27.2697 60.1712 26.9066C60.7326 26.4468 61.3115 26.0017 61.946 25.5684C62.7588 27.5127 63.212 29.5128 63.1418 31.3341C63.2529 31.2317 63.7412 31.7265 63.8581 31.6182C63.554 32.5142 63.0628 32.7339 63.288 33.4074C61.6945 35.0501 59.8467 36.5201 57.917 37.6358C58.1801 36.9506 58.6742 36.9652 59.0923 36.7134C58.6742 36.2566 58.3877 36.4088 58.1187 36.6987C58.7064 33.8261 59.066 31.0032 58.6421 28.072L58.9286 27.8641C59.1596 28.072 59.3876 28.2799 59.4812 28.034L59.4841 28.0369Z" fill="#D9EEF9"/>
<path d="M41.8243 38.6346C43.023 37.2905 43.8066 35.4428 44.3797 33.4047C44.6896 33.5628 45.3065 33.9172 45.7334 33.3901C46.5316 33.3491 48.2332 33.5101 48.4437 32.7664C48.546 32.4003 48.1923 33.2027 47.6806 34.3213C47.1543 35.4369 46.4877 36.8542 46.0842 37.7122C46.0228 38.7635 45.5872 39.6683 45.0346 40.4941C44.8562 40.4443 44.9995 39.7796 44.8241 39.6976C44.8241 39.7913 44.5141 40.5556 44.5141 40.5556C44.5141 40.5556 44.1896 40.579 43.7832 40.6054C43.3797 40.6259 42.8973 40.6522 42.5757 40.6698C42.2862 39.6478 41.4968 40.5029 41.4588 40.7283L40.9033 40.7606L40.8857 40.7488C41.143 40.4004 41.4003 40.0519 41.6518 39.7122C41.798 39.437 41.8243 38.6346 41.8243 38.6346Z" fill="#C8E5F6"/>
<path d="M53.4322 34.3268C53.2071 32.315 53.6486 30.8685 53.9907 29.4512C53.7012 29.4687 52.9761 29.4951 52.8943 29.4863C53.0755 29.8904 53.327 30.3004 53.21 30.5493C52.8329 30.9739 52.3241 31.4453 51.9762 31.5478C51.5142 31.5625 50.9412 31.0998 50.4354 30.9124C50.0757 31.1935 49.719 31.4717 49.3623 31.7499C49.339 31.7674 49.2074 32.5346 49.2366 32.8568C48.9647 32.927 48.6986 32.8626 48.4384 32.7631C48.4297 32.8392 47.9355 33.6269 47.3712 34.5962C46.8157 35.5742 46.19 36.7631 46.0819 37.7089C46.0205 38.7602 45.5848 39.665 45.0322 40.4908C45.041 40.4908 45.1433 40.4937 45.3071 40.4849C45.4708 40.4761 45.693 40.4644 45.9386 40.4527C46.4298 40.4351 47.0175 40.3883 47.4005 40.3561C47.3654 40.1687 47.0613 39.7792 46.9736 39.7236C47.0759 39.706 47.8537 40.2126 48.1665 40.3004C48.6577 40.2536 49.8623 40.0574 49.9705 39.9578C50.1108 39.9256 49.7746 39.4659 49.722 38.9388C50.3798 39.5069 51.064 39.8436 51.7511 39.9139L52.2861 39.8114C52.3738 39.9959 52.4352 40.1189 52.3592 40.1423C52.254 40.2331 52.1487 40.3063 52.0405 40.3737C52.3738 40.3414 53.8211 40.0515 54.2041 39.9637C53.7919 39.9403 53.3767 39.8378 52.9644 39.6679C53.3504 39.5684 53.7363 39.46 54.1193 39.3458L54.1632 39.3165C54.5667 37.9695 54.7889 36.5083 54.8035 34.889C54.3562 34.8041 53.5346 34.8304 53.4293 34.3238L53.4322 34.3268Z" fill="#CCE6F7"/>
<path d="M20.2354 42.0892C19.5279 41.1609 18.4724 41.3776 17.759 40.2268C16.5895 38.0686 16.6509 35.2282 15.9141 32.5693C19.3173 32.7919 22.6066 33.0086 25.89 33.2223C25.0538 34.4405 23.7118 33.8636 23.0393 35.8578C23.0364 36.1272 23.2995 36.3673 23.4252 36.6279C22.6212 37.4888 21.3318 37.89 21.3581 39.2341C21.3728 40.0511 21.6096 40.912 21.7207 41.9603L21.4546 41.9955C21.1681 41.6382 20.7295 41.9691 20.2383 42.0862L20.2354 42.0892Z" fill="#AFD9F2"/>
<path d="M25.4891 42.6285C24.8166 42.7222 24.1529 42.8276 23.4951 42.936C23.4951 42.6812 23.4804 42.4382 23.4629 42.2039C24.2406 42.1307 25.0271 42.0019 25.8253 41.8262C25.7054 42.0751 25.5943 42.3415 25.4891 42.6285Z" fill="#B8DEF4"/>
<path d="M23.422 36.6253C23.2963 36.3676 23.0331 36.1246 23.0361 35.8552C23.7114 33.8639 25.0505 34.4408 25.8867 33.2197C27.0943 33.2754 28.2989 33.331 29.5035 33.3896C29.2812 33.6063 29.062 33.82 28.8368 34.0396C29.5005 34.0396 29.483 35.9225 30.1379 35.9255C28.0825 37.8552 25.492 38.3032 24.0535 41.5038C23.2612 41.6971 22.4835 41.8552 21.7145 41.9577C21.6034 40.9065 21.3637 40.0485 21.352 39.2315C21.3256 37.8874 22.615 37.4862 23.4191 36.6253H23.422Z" fill="#B8DEF4"/>
<path d="M30.141 35.9285C29.489 35.9255 29.5066 34.0427 28.8399 34.0427C29.0622 33.823 29.2844 33.6093 29.5066 33.3926C30.8895 33.4424 32.252 33.4746 33.6086 33.4834C33.6963 33.5185 33.7841 33.5478 33.8718 33.5712C34.8863 33.8055 35.7605 33.7 36.6961 33.9197C35.974 34.9856 35.2401 36.0515 34.4858 37.0559C33.3835 35.5536 32.1584 34.2886 30.7346 33.5156C31.2404 33.7908 30.9948 35.132 31.2316 35.4043C32.0678 36.9007 32.6292 39.99 32.0386 41.296C30.0124 41.46 28.0154 41.6708 26.0711 41.9432C25.9571 41.6035 25.7963 41.053 25.694 41.0588C25.1443 41.2287 24.5975 41.3663 24.0596 41.5039C25.4951 38.3033 28.0885 37.8553 30.144 35.9255L30.141 35.9285Z" fill="#BBDFF5"/>
<path d="M34.4858 37.0596C35.2402 36.0523 35.974 34.9893 36.6962 33.9234C36.936 33.9791 37.1786 34.0581 37.4272 34.1694C37.4476 33.9322 37.4652 33.698 37.3979 33.4608L37.933 33.4461C38.1376 33.5867 38.2809 34.4183 38.6581 33.4227L39.4066 33.3934C39.6492 33.698 39.8334 34.1167 39.9358 34.6906L39.9825 33.8854C40.2632 33.3407 40.4854 33.8707 40.7369 33.8649C40.7427 33.7214 40.7544 33.4988 40.7837 33.3231C41.921 33.9498 43.5876 33.1269 43.877 33.0977C44.0407 33.2177 44.2103 33.3261 44.3799 33.411C43.8068 35.4491 43.0233 37.2968 41.8245 38.6409C41.8245 38.6409 41.7982 39.4432 41.652 39.7185C41.4006 40.0582 41.1433 40.4066 40.886 40.7551C39.4855 39.5047 37.547 40.9337 37.4622 40.9484L36.8366 40.9835C35.67 40.8781 34.0122 39.4608 32.5094 41.2676L32.0357 41.3056C32.6263 39.9996 32.0649 36.9103 31.2287 35.4139C30.9919 35.1416 30.2639 33.6013 30.7317 33.5252C32.3632 33.7946 34.5531 37.168 34.4829 37.0655L34.4858 37.0596Z" fill="#C0E2F5"/>
<path d="M69.7059 20.6578C70.1065 20.3503 70.5129 20.0399 70.9251 19.7266C70.5918 20.1717 70.0801 20.4469 70.3024 21.0619C70.0246 21.1292 69.855 21.3547 69.6854 21.5772C69.6504 21.2463 69.662 20.9418 69.7088 20.6578H69.7059Z" fill="#EAF5FB"/>
<path d="M71.5651 23.8051L71.2902 24.1652C70.9482 23.8314 70.7873 23.2604 71.1411 23.1872C70.799 22.8563 70.9598 23.4244 70.7873 23.2604C70.3312 22.8182 70.416 22.666 70.5944 22.5576C71.3633 23.3014 71.9949 24.2209 71.8574 24.4024L71.6762 24.6426C71.6265 24.3556 71.7054 24.0569 71.5651 23.808V23.8051Z" fill="#EAF5FB"/>
</g>
</g>
</g>
<g opacity="0.9">
<g opacity="0.9">
<path d="M52.9749 42.9727C52.051 43.4178 51.1329 43.8746 50.2207 44.346C50.364 44.0971 50.5072 43.8511 50.6476 43.611C51.1709 42.8936 52.1767 43.2157 52.972 42.9727H52.9749Z" fill="#C0E2F5"/>
<path d="M55.5298 41.8007C55.5298 41.8007 55.5298 41.8065 55.5298 41.8124C54.8047 42.1228 54.0855 42.4449 53.3721 42.7846C53.4189 42.7524 53.4627 42.7202 53.5036 42.6821C54.0562 42.0906 54.6673 41.6426 55.5327 41.8036L55.5298 41.8007Z" fill="#C0E2F5"/>
<path d="M64.7724 31.4209C64.9069 33.5849 64.7197 35.5088 64.594 37.4414C64.4303 37.6376 64.3133 37.9773 64.1321 38.0535C64.1701 38.1149 62.9684 38.8265 62.3076 39.0783C62.3486 38.1501 62.2755 37.1105 62.0767 35.9685C61.7404 35.9012 61.1498 35.9392 60.9919 35.582C60.5241 34.1764 60.6703 33.1193 60.8545 32.1003C61.0416 32.0915 63.6906 32.1413 64.7665 31.4209H64.7724Z" fill="#D7ECF9"/>
<path d="M67.6553 30.4452C68.4593 30.211 69.7516 30.3867 70.2604 30.3838C70.3919 31.2769 70.4972 32.1554 70.4913 32.9401C70.9153 33.1803 71.2515 33.4555 71.5907 33.517C71.5848 33.6751 71.579 33.8303 71.5731 33.9855C70.3451 34.6708 69.1552 35.4204 67.9535 36.1495C67.8249 35.6342 67.9827 32.0148 67.6553 30.4452Z" fill="#DDF0FA"/>
<path d="M65.4513 31.5493C65.694 31.3238 65.9074 31.11 66.1062 30.9021C66.6033 30.7176 67.112 30.5507 67.6558 30.4482C67.9775 32.0178 68.0856 33.5024 67.9336 34.7118C68.0184 34.6737 68.3283 35.1452 68.4131 35.1071C68.1529 35.6167 67.8196 35.6401 67.9511 36.1525C66.8372 36.8319 65.7145 37.4937 64.5537 38.0823C64.6531 37.6225 64.9894 37.6869 65.2466 37.5786C64.9338 37.2096 64.7438 37.2682 64.5917 37.4468C64.7145 35.5142 64.9046 33.5903 64.7701 31.4263L65.0215 31.3297C65.1911 31.52 65.3577 31.7103 65.4513 31.5551V31.5493Z" fill="#D9EEF9"/>
<path d="M53.8955 40.2142C54.2873 39.0516 54.2873 37.649 54.1265 36.1614C54.3925 36.1966 54.9305 36.3078 55.1001 35.8715C55.6644 35.6695 56.9625 35.5026 56.9538 34.9667C56.945 34.4279 56.5795 37.4118 56.4977 38.7325C56.7345 39.4587 56.6848 40.141 56.5503 40.794C56.4187 40.794 56.331 40.3196 56.1907 40.2991C56.217 40.3606 56.2258 40.9345 56.2258 40.9345C56.2258 40.9345 55.4042 41.2449 54.9948 41.4001C54.5037 40.7793 54.2405 41.5319 54.2873 41.6842L53.9364 41.8306H53.9218C53.9832 41.5378 54.0475 41.2479 54.1089 40.9697C54.1206 40.7559 53.8984 40.2171 53.8984 40.2171L53.8955 40.2142Z" fill="#C8E5F6"/>
<path d="M60.9951 35.5813C60.5273 34.1758 60.6735 33.1187 60.8577 32.0996C60.6121 32.1172 59.9952 32.164 59.9309 32.167C60.1297 32.4451 60.3812 32.7263 60.3139 32.9107C60.0537 33.2329 59.7116 33.5901 59.4543 33.6984C59.0888 33.7365 58.5538 33.4671 58.1152 33.4027C57.8813 33.637 57.6503 33.8741 57.434 34.126C57.4194 34.1406 57.4808 34.6911 57.5743 34.9108C57.3784 34.9927 57.1679 34.9898 56.9486 34.9635C56.9779 35.0777 56.1358 37.4027 56.4925 38.7292C56.7293 39.4554 56.6796 40.1377 56.5452 40.7907C56.551 40.7907 56.6182 40.7702 56.7235 40.738C56.8288 40.7058 56.972 40.659 57.1299 40.6092C57.4457 40.5096 57.8199 40.3896 58.0626 40.3134C57.9924 40.1904 57.6913 39.9708 57.6182 39.9474C57.6825 39.921 58.3257 40.1494 58.5509 40.167C58.8637 40.0762 59.6093 39.801 59.659 39.7307C59.7467 39.6956 59.4192 39.4115 59.2643 39.0543C59.8373 39.3822 60.3578 39.5433 60.8285 39.5638L61.1589 39.4613C61.2524 39.5843 61.3168 39.6692 61.2729 39.6868C61.2232 39.7541 61.1676 39.8127 61.1092 39.8625C61.3168 39.8098 62.2085 39.5755 62.4424 39.5169C62.1705 39.5082 61.881 39.4408 61.577 39.3325C61.8138 39.2534 62.0477 39.1743 62.2816 39.0865L62.305 39.066C62.343 38.1377 62.2728 37.107 62.074 35.9679C61.7378 35.9005 61.1472 35.9386 60.9893 35.5813H60.9951Z" fill="#CCE6F7"/>
<path d="M40.1044 47.9038C39.3618 47.3855 38.5928 47.6871 37.8472 46.9521C36.6017 45.5465 36.1748 43.526 35.2275 41.6988C37.4905 41.6988 39.6512 41.3386 41.7388 40.7646C41.5429 41.7661 40.5196 41.649 40.5927 43.1219C40.6599 43.3035 40.8997 43.4206 41.0546 43.5699C40.7389 44.3137 39.9377 44.8232 40.274 45.7339C40.4786 46.2932 40.8617 46.8379 41.2037 47.5348L41.0108 47.611C40.7067 47.4206 40.4582 47.7369 40.1015 47.9009L40.1044 47.9038Z" fill="#AFD9F2"/>
<path d="M44.1833 47.1335L42.7974 47.8216C42.7272 47.6518 42.6541 47.4878 42.5752 47.3355C43.1307 47.1101 43.6687 46.8319 44.192 46.5186C44.1803 46.7147 44.1745 46.9197 44.1833 47.1335Z" fill="#B8DEF4"/>
<path d="M41.0578 43.5725C40.9028 43.4232 40.6631 43.306 40.5958 43.1245C40.5228 41.6516 41.5461 41.7687 41.742 40.7672C42.546 40.5476 43.3384 40.2987 44.1219 40.0234C44.0459 40.2196 43.9699 40.4188 43.8939 40.6179C44.3237 40.451 44.8996 41.6896 45.3324 41.5227C44.5868 43.3382 42.9904 44.2548 42.8296 46.7292C42.3063 47.0425 41.7683 47.3149 41.2128 47.5403C40.8707 46.8434 40.4877 46.2958 40.283 45.7394C39.9468 44.8258 40.7479 44.3163 41.0637 43.5754L41.0578 43.5725Z" fill="#B8DEF4"/>
<path d="M45.326 41.52C44.8933 41.6869 44.3173 40.4512 43.8875 40.6152C43.9635 40.416 44.0395 40.2169 44.1155 40.0207C45.0219 39.7074 45.9166 39.3589 46.8054 38.9958C46.8727 38.9958 46.9399 38.99 47.0042 38.9812C47.7469 38.8582 48.2848 38.5449 48.9807 38.4336C48.8462 39.3238 48.7117 40.2169 48.5451 41.0749C47.3288 40.4014 46.1125 39.9212 44.9459 39.7835C45.3611 39.8333 45.6271 40.7704 45.8698 40.8875C46.8931 41.6401 48.2731 43.4878 48.3024 44.5039C47.0042 45.1774 45.7002 45.8539 44.3933 46.5303C44.212 46.3341 43.9372 46.0091 43.8641 46.0354C43.522 46.2814 43.1712 46.5098 42.8145 46.7236C42.9753 44.2492 44.5716 43.3297 45.3172 41.5171L45.326 41.52Z" fill="#BBDFF5"/>
<path d="M48.5484 41.0777C48.7151 40.2197 48.8496 39.3236 48.9841 38.4364C49.1595 38.4071 49.3466 38.3924 49.5513 38.3954C49.487 38.2372 49.4227 38.0791 49.2999 37.9444L49.6566 37.7892C49.8408 37.8273 50.2033 38.328 50.1361 37.5784L50.636 37.3587C50.8992 37.4934 51.1565 37.716 51.4079 38.0674L51.1857 37.5257C51.2091 37.0981 51.5278 37.388 51.6974 37.3178C51.6593 37.2211 51.5979 37.0718 51.5629 36.9488C52.5394 37.0688 53.4692 36.1377 53.6738 36.0527C53.8288 36.0967 53.9779 36.1318 54.1241 36.1523C54.2849 37.6399 54.2849 39.0425 53.8931 40.205C53.8931 40.205 54.1182 40.7438 54.1036 40.9576C54.0422 41.2358 53.9808 41.5257 53.9165 41.8156C52.6154 41.3178 51.8055 42.7614 51.7588 42.7907L51.3611 42.9752C50.5659 43.2153 49.0192 42.7497 48.6069 44.3398L48.3028 44.495C48.2736 43.4818 46.8936 41.634 45.8703 40.8785C45.6276 40.7643 44.6657 39.9473 44.9463 39.7746C46.0779 39.5315 48.6215 41.1099 48.5455 41.0659L48.5484 41.0777Z" fill="#C0E2F5"/>
<path d="M71.1463 37.5374C70.8071 37.4759 70.4709 37.2007 70.0469 36.9606C70.0528 36.1758 69.2312 32.9927 69.0996 32.0996C70.0235 32.0996 73.035 32.9254 73.9355 32.8551C73.8478 33.0162 73.456 34.5008 73.418 34.7263C73.5788 34.6531 72.652 34.7263 72.8596 34.7995C72.8654 34.8932 72.883 35.0015 72.9268 35.1392L72.9327 35.1509C72.7894 35.145 72.7017 35.2065 72.9298 35.6721C73.0145 35.8478 73.0145 35.4203 73.1841 35.7717C72.9298 35.6721 72.9298 36.0996 73.0993 36.451L73.3537 36.3368C73.4005 36.5535 73.2923 36.7087 73.2718 36.9108C72.5409 37.2475 71.8275 37.6165 71.1287 38.0089C71.1346 37.8537 71.1404 37.6985 71.1463 37.5404V37.5374Z" fill="#E6F3FC"/>
</g>
</g>
<g opacity="0.9">
<g opacity="0.9">
<path d="M47.0777 36.8818C46.1947 37.4968 45.3205 38.1234 44.4551 38.7676C44.5662 38.4924 44.6773 38.223 44.7855 37.9565C45.2182 37.1454 46.2971 37.2742 47.0777 36.8818Z" fill="#C0E2F5"/>
<path d="M49.5251 35.2324C49.5251 35.2324 49.5251 35.2383 49.5251 35.2441C48.8263 35.6892 48.1363 36.146 47.4521 36.6175C47.4931 36.5765 47.534 36.5384 47.572 36.4916C48.0544 35.7976 48.61 35.2353 49.5251 35.2353V35.2324Z" fill="#C0E2F5"/>
<path d="M57.4772 23.1631C57.9362 25.2919 58.0269 27.2451 58.1877 29.1924C58.0473 29.4179 57.9771 29.7781 57.8046 29.8893C57.8514 29.945 56.7258 30.8762 56.0855 31.251C55.989 30.3198 55.7609 29.2978 55.3867 28.1968C55.0329 28.1909 54.4306 28.3432 54.2172 28.0182C53.5272 26.7063 53.5242 25.6258 53.5593 24.5774C53.7494 24.5335 56.4773 24.0826 57.4772 23.166V23.1631Z" fill="#D7ECF9"/>
<path d="M60.293 21.6462C61.0824 21.2597 62.439 21.1923 62.9595 21.0957C63.2284 21.9625 63.4653 22.8146 63.5764 23.5994C64.0471 23.7575 64.433 23.9683 64.7897 23.9654C64.8073 24.1235 64.8248 24.2787 64.8424 24.4339C63.6816 25.3476 62.5706 26.3168 61.4449 27.2714C61.2373 26.7853 60.8602 23.1514 60.293 21.6462Z" fill="#DDF0FA"/>
<path d="M58.1939 23.1604C58.4102 22.891 58.5973 22.6362 58.7698 22.3903C59.2523 22.1121 59.7493 21.8515 60.2931 21.6465C60.8574 23.1487 61.1878 24.607 61.2112 25.8398C61.2931 25.7871 61.679 26.197 61.7638 26.1443C61.5708 26.7007 61.2317 26.7856 61.4451 27.2717C60.4042 28.159 59.3488 29.0257 58.2436 29.831C58.2786 29.3537 58.6324 29.3566 58.878 29.1985C58.5009 28.8881 58.3137 28.9818 58.1851 29.1897C58.0243 27.2424 57.9336 25.2893 57.4746 23.1604L57.7173 23.0169C57.919 23.1721 58.1178 23.3332 58.1909 23.1604H58.1939Z" fill="#D9EEF9"/>
<path d="M47.6135 33.9622C47.8445 32.7294 47.634 31.3356 47.248 29.8831C47.5287 29.8685 48.0959 29.8773 48.2041 29.4117C48.7538 29.1042 50.0636 28.6942 49.973 28.1613C49.8853 27.6254 49.9525 30.665 50.0636 31.9944C50.4145 32.6709 50.4642 33.3619 50.4233 34.0384C50.2888 34.0647 50.128 33.6079 49.9818 33.6138C50.0169 33.6694 50.1134 34.2404 50.1134 34.2404C50.1134 34.2404 49.3152 34.706 48.9175 34.9373C48.3211 34.4102 48.1632 35.2097 48.2334 35.3561L47.8942 35.5669H47.8796C47.9001 35.2653 47.9234 34.9666 47.9439 34.6767C47.9234 34.46 47.6164 33.9652 47.6164 33.9652L47.6135 33.9622Z" fill="#C8E5F6"/>
<path d="M54.2183 28.0149C53.5283 26.7031 53.5254 25.6225 53.5604 24.5742C53.3119 24.6386 52.6862 24.7997 52.619 24.8173C52.8646 25.0574 53.1657 25.2887 53.1248 25.4849C52.9055 25.8539 52.6073 26.2755 52.3588 26.4307C51.9875 26.5391 51.3998 26.3693 50.9407 26.3868C50.7332 26.665 50.5343 26.9432 50.3501 27.236C50.3355 27.2536 50.4817 27.7924 50.6104 27.9915C50.4232 28.1116 50.2069 28.1467 49.9759 28.1614C50.0227 28.2697 49.5022 30.7441 50.0665 31.9945C50.4174 32.6709 50.4671 33.362 50.4262 34.0384C50.432 34.0384 50.4993 34.0033 50.6016 33.9506C50.7039 33.8979 50.8443 33.8247 50.9992 33.7456C51.3091 33.5875 51.6746 33.3971 51.9144 33.2771C51.8237 33.1687 51.4816 33.0047 51.4027 32.9959C51.467 32.9579 52.16 33.0633 52.3939 33.0399C52.7009 32.8905 53.426 32.4747 53.4669 32.3957C53.5517 32.3429 53.1716 32.1233 52.9611 31.7954C53.5985 32.015 54.154 32.0794 54.6422 32.0091L54.9668 31.8451C55.0808 31.9506 55.1598 32.0208 55.1159 32.0472C55.075 32.1233 55.0282 32.1907 54.9756 32.2551C55.1831 32.1614 56.0603 31.7631 56.2913 31.6607C56.0106 31.7016 55.7036 31.6929 55.3761 31.6402C55.6071 31.5172 55.8381 31.3913 56.0603 31.2624L56.0837 31.239C55.9872 30.3078 55.7591 29.2946 55.3878 28.1965C55.034 28.1906 54.4317 28.3429 54.2183 28.0179V28.0149Z" fill="#CCE6F7"/>
<path d="M34.5906 44.2142C33.7514 43.8394 33.0088 44.2816 32.1317 43.69C30.6435 42.5246 29.9067 40.5949 28.6641 38.9521C30.9855 38.5246 33.155 37.7603 35.2133 36.7969C35.1607 37.8306 34.0935 37.9067 34.3859 39.3591C34.4824 39.529 34.7455 39.5992 34.9268 39.7193C34.7134 40.5187 33.9649 41.1747 34.4444 42.0209C34.7367 42.5392 35.2104 43.0107 35.6665 43.6403L35.4794 43.7545C35.1402 43.6227 34.9297 43.9829 34.5876 44.2142H34.5906Z" fill="#AFD9F2"/>
<path d="M38.6657 42.6794L37.3441 43.6252C37.2476 43.4671 37.1453 43.3207 37.0459 43.1831C37.5839 42.8522 38.0955 42.4744 38.5838 42.0645C38.5984 42.2606 38.6277 42.4656 38.6657 42.6794Z" fill="#B8DEF4"/>
<path d="M34.9264 39.7187C34.7451 39.5987 34.482 39.5284 34.3855 39.3585C34.0931 37.9061 35.1603 37.83 35.213 36.7963C36.0053 36.4273 36.7801 36.0291 37.5461 35.6074C37.4964 35.8183 37.4496 36.0291 37.3999 36.2429C37.8151 35.9969 38.5899 37.1184 39.0109 36.8724C38.5139 38.8197 37.0111 40.0321 37.2128 42.5269C36.7216 42.9369 36.21 43.3088 35.672 43.6397C35.2159 43.0101 34.7422 42.5387 34.4498 42.0204C33.9703 41.1741 34.7159 40.5181 34.9323 39.7187H34.9264Z" fill="#B8DEF4"/>
<path d="M39.008 36.8761C38.5899 37.125 37.8151 36.0006 37.397 36.2465C37.4467 36.0328 37.4964 35.8219 37.5432 35.6111C38.4291 35.1279 39.2946 34.6126 40.1542 34.0855C40.2243 34.0708 40.2916 34.0562 40.3588 34.0328C41.1015 33.7721 41.6102 33.3593 42.3061 33.1162C42.3002 34.0269 42.2944 34.9435 42.2505 35.8278C40.8997 35.3856 39.5811 35.1367 38.3648 35.2187C38.7975 35.1894 39.2127 36.0738 39.4788 36.1441C40.6395 36.7004 42.3324 38.2817 42.5136 39.2861C41.2798 40.2026 40.0431 41.1192 38.8004 42.0387C38.587 41.8776 38.2537 41.6053 38.1835 41.6463C37.8678 41.9538 37.5432 42.2495 37.207 42.5277C37.0052 40.0328 38.5081 38.8205 39.0051 36.8732L39.008 36.8761Z" fill="#BBDFF5"/>
<path d="M42.2502 35.8272C42.294 34.9399 42.2999 34.0263 42.3057 33.1156C42.4841 33.0541 42.6712 33.0044 42.8817 32.9692C42.7911 32.8228 42.7034 32.6793 42.5572 32.5651L42.8992 32.3455C43.0922 32.3455 43.5396 32.7818 43.3612 32.0468L43.8436 31.7335C44.1331 31.8184 44.4313 31.9912 44.7412 32.2957L44.4342 31.8008C44.3962 31.3704 44.7646 31.5988 44.9313 31.4992C44.8757 31.4114 44.7909 31.2737 44.7383 31.1595C45.7587 31.098 46.5774 29.9941 46.7733 29.8711C46.937 29.8857 47.0978 29.8945 47.2498 29.8857C47.6358 31.3382 47.8434 32.732 47.6153 33.9648C47.6153 33.9648 47.9252 34.4597 47.9428 34.6764C47.9223 34.9663 47.8989 35.265 47.8784 35.5637C46.4692 35.3118 45.8493 36.9019 45.8055 36.9429L45.4254 37.2035C44.6447 37.593 42.987 37.4202 42.7998 39.0805L42.5104 39.2943C42.3291 38.2899 40.6392 36.7086 39.4755 36.1523C39.2094 36.0849 38.1013 35.4524 38.3615 35.2269C39.4872 34.7701 42.332 35.8653 42.2472 35.836L42.2502 35.8272Z" fill="#C0E2F5"/>
<path d="M66.8367 20.0936C67.1788 19.9999 67.5238 19.9062 67.8746 19.8125C67.5676 20.0175 67.1466 20.0555 67.246 20.5299C67.0267 20.4977 66.8718 20.6002 66.7168 20.7027C66.7256 20.4714 66.7694 20.2722 66.8367 20.0936Z" fill="#EAF5FB"/>
<path d="M67.9211 22.7085L67.6755 22.8724C67.4475 22.5562 67.3831 22.1316 67.6609 22.1814C67.4328 21.8651 67.4972 22.2897 67.3861 22.1316C67.0849 21.7099 67.1639 21.6338 67.313 21.6104C67.8217 22.319 68.2076 23.1067 68.0848 23.1887L67.924 23.297C67.9153 23.0921 68.003 22.9164 67.924 22.7114L67.9211 22.7085Z" fill="#EAF5FB"/>
<path d="M64.7902 23.9651C64.4335 23.9651 64.0476 23.7572 63.5769 23.5991C63.4658 22.8143 63.226 21.9622 62.96 21.0954C63.9102 20.9226 64.8195 20.7177 65.7346 20.4775C65.6674 20.6562 65.6235 20.8553 65.6148 21.0866C65.7697 20.9841 65.9217 20.8816 66.144 20.9139C66.1615 21.0046 66.1995 21.11 66.2638 21.2389L66.2697 21.2477C66.1206 21.2682 66.0416 21.3472 66.3428 21.7689C66.4568 21.927 66.3925 21.5024 66.6176 21.8187C66.3428 21.7689 66.4071 22.1935 66.6322 22.5098L66.8778 22.3458C66.9597 22.5508 66.8691 22.7265 66.8778 22.9344C66.1761 23.4058 65.5007 23.9095 64.8399 24.4307C64.8224 24.2755 64.8049 24.1203 64.7873 23.9622L64.7902 23.9651Z" fill="#E6F3FC"/>
</g>
</g>
<g opacity="0.9">
<g opacity="0.9">
<path d="M44.3658 33.6348C43.4828 34.2497 42.6086 34.8764 41.7432 35.5206C41.8543 35.2453 41.9654 34.9759 42.0736 34.7094C42.5063 33.8983 43.5851 34.0272 44.3658 33.6348Z" fill="#C0E2F5"/>
<path d="M46.8161 31.9883C46.8161 31.9883 46.8161 31.9941 46.8161 32C46.1173 32.4451 45.4273 32.9019 44.7432 33.3734C44.7841 33.3324 44.825 33.2943 44.863 33.2474C45.3455 32.5534 45.901 31.9912 46.8161 31.9912V31.9883Z" fill="#C0E2F5"/>
<path d="M54.7662 19.915C55.2253 22.0439 55.3159 23.9971 55.4767 25.9444C55.3364 26.1698 55.2662 26.53 55.0937 26.6413C55.1405 26.6969 54.0148 27.6281 53.3745 28.0029C53.278 27.0718 53.05 26.0498 52.6757 24.9487C52.322 24.9429 51.7197 25.0952 51.5062 24.7701C50.8162 23.4583 50.8133 22.3777 50.8484 21.3294C51.0384 21.2855 53.7663 20.8345 54.7662 19.918V19.915Z" fill="#D7ECF9"/>
<path d="M56.6934 18.8C57.4828 18.4135 59.6142 19.2188 60.1346 19.1221C60.4036 19.9889 61.5117 18.9435 61.6228 19.7254C62.0936 19.8835 63.0087 19.7722 63.3654 19.7693C63.383 19.9274 69.1311 20.3432 69.1486 20.4984C72.7273 22.2466 61.7983 23.4121 58.7341 24.0241C58.5266 23.538 57.2606 20.3022 56.6904 18.8H56.6934Z" fill="#DDF0FA"/>
<path d="M55.4819 19.9153C55.6983 19.6459 55.8854 19.3911 56.0579 19.1452C56.5404 18.867 57.0374 18.6063 57.5812 18.4014C58.1455 19.9036 58.4759 21.3619 58.4993 22.5947C58.5811 22.542 58.9671 22.9519 59.0519 22.8992C58.8589 23.4556 58.5198 23.5405 58.7332 24.0266C57.6923 24.9139 56.6368 25.7806 55.5317 26.5859C55.5667 26.1086 55.9205 26.1115 56.1661 25.9534C55.7889 25.643 55.6018 25.7367 55.4732 25.9446C55.3124 23.9973 55.2217 22.0441 54.7627 19.9153L55.0054 19.7718C55.2071 19.927 55.4059 20.0881 55.479 19.9153H55.4819Z" fill="#D9EEF9"/>
<path d="M44.9045 30.7152C45.1355 29.4823 44.925 28.0885 44.5391 26.6361C44.8197 26.6214 45.387 26.6302 45.4951 26.1646C46.0448 25.8571 47.3547 25.4472 47.264 24.9142C47.1763 24.3784 47.2436 27.4179 47.3547 28.7473C47.7055 29.4238 47.7552 30.1149 47.7143 30.7913C47.5798 30.8176 47.419 30.3608 47.2728 30.3667C47.3079 30.4223 47.4044 30.9933 47.4044 30.9933C47.4044 30.9933 46.6062 31.4589 46.2085 31.6903C45.6121 31.1632 45.4542 31.9626 45.5244 32.109L45.1852 32.3198H45.1706C45.1911 32.0182 45.2145 31.7196 45.2349 31.4297C45.2145 31.213 44.9075 30.7181 44.9075 30.7181L44.9045 30.7152Z" fill="#C8E5F6"/>
<path d="M51.5064 24.7708C50.8164 23.4589 50.8134 22.3784 50.8485 21.3301C50.6 21.3945 49.9743 21.5556 49.9071 21.5731C50.1527 21.8132 50.4538 22.0446 50.4129 22.2408C50.1936 22.6097 49.8954 23.0314 49.6469 23.1866C49.2755 23.295 48.6879 23.1251 48.2288 23.1427C48.0212 23.4209 47.8224 23.6991 47.6382 23.9919C47.6236 24.0095 47.7698 24.5483 47.8984 24.7474C47.7113 24.8674 47.495 24.9026 47.264 24.9172C47.3108 25.0256 46.7903 27.5 47.3546 28.7503C47.7055 29.4268 47.7552 30.1178 47.7142 30.7943C47.7201 30.7943 47.7873 30.7591 47.8897 30.7064C47.992 30.6537 48.1323 30.5805 48.2873 30.5014C48.5972 30.3433 48.9627 30.153 49.2024 30.0329C49.1118 29.9246 48.7697 29.7606 48.6908 29.7518C48.7551 29.7137 49.448 29.8192 49.6819 29.7957C49.9889 29.6464 50.714 29.2306 50.755 29.1515C50.8398 29.0988 50.4597 28.8792 50.2492 28.5512C50.8865 28.7708 51.4421 28.8353 51.9303 28.765L52.2549 28.601C52.3689 28.7064 52.4478 28.7767 52.404 28.803C52.3631 28.8792 52.3163 28.9465 52.2636 29.011C52.4712 28.9172 53.3484 28.519 53.5793 28.4165C53.2987 28.4575 52.9917 28.4487 52.6642 28.396C52.8952 28.273 53.1262 28.1471 53.3484 28.0183L53.3718 27.9948C53.2753 27.0636 53.0472 26.0505 52.6759 24.9524C52.3221 24.9465 51.7198 25.0988 51.5064 24.7737V24.7708Z" fill="#CCE6F7"/>
<path d="M31.8816 40.9662C31.0425 40.5913 30.2998 41.0335 29.4227 40.442C27.9345 39.2765 27.1977 37.3468 25.9551 35.704C28.2766 35.2765 30.446 34.5122 32.5043 33.5488C32.4517 34.5825 31.3845 34.6586 31.6769 36.1111C31.7734 36.2809 32.0365 36.3512 32.2178 36.4713C32.0044 37.2707 31.2559 37.9266 31.7354 38.7729C32.0278 39.2912 32.5014 39.7626 32.9575 40.3922L32.7704 40.5064C32.4312 40.3746 32.2207 40.7348 31.8787 40.9662H31.8816Z" fill="#AFD9F2"/>
<path d="M35.9567 39.4323L34.6351 40.3782C34.5387 40.22 34.4363 40.0736 34.3369 39.936C34.8749 39.6051 35.3865 39.2273 35.8748 38.8174C35.8894 39.0136 35.9187 39.2186 35.9567 39.4323Z" fill="#B8DEF4"/>
<path d="M32.2174 36.4746C32.0362 36.3545 31.773 36.2842 31.6765 36.1144C31.3842 34.662 32.4513 34.5858 32.504 33.5522C33.2963 33.1832 34.0711 32.785 34.8371 32.3633C34.7874 32.5741 34.7407 32.785 34.691 32.9987C35.1061 32.7527 35.8809 33.8743 36.302 33.6283C35.8049 35.5756 34.3021 36.7879 34.5038 39.2828C34.0126 39.6928 33.501 40.0647 32.963 40.3955C32.5069 39.766 32.0332 39.2945 31.7409 38.7762C31.2614 37.9299 32.0069 37.274 32.2233 36.4746H32.2174Z" fill="#B8DEF4"/>
<path d="M36.2961 33.6291C35.878 33.878 35.1032 32.7535 34.6851 32.9995C34.7348 32.7857 34.7845 32.5749 34.8313 32.364C35.7172 31.8809 36.5827 31.3655 37.4422 30.8384C37.5124 30.8238 37.5797 30.8091 37.6469 30.7857C38.3895 30.5251 38.8983 30.1122 39.5941 29.8691C39.5883 30.7798 39.5824 31.6964 39.5386 32.5807C38.1878 32.1386 36.8692 31.8897 35.6529 31.9716C36.0856 31.9424 36.5008 32.8267 36.7669 32.897C37.9276 33.4534 39.6205 35.0346 39.8017 36.039C38.5679 36.9556 37.3311 37.8721 36.0885 38.7916C35.8751 38.6306 35.5418 38.3582 35.4716 38.3992C35.1558 38.7067 34.8313 39.0024 34.4951 39.2806C34.2933 36.7857 35.7962 35.5734 36.2932 33.6261L36.2961 33.6291Z" fill="#BBDFF5"/>
<path d="M39.5412 32.5831C39.585 31.6958 39.5909 30.7822 39.5967 29.8715C39.7751 29.81 39.9622 29.7602 40.1727 29.7251C40.0821 29.5787 39.9944 29.4352 39.8482 29.321L40.1903 29.1013C40.3832 29.1013 40.8306 29.5377 40.6522 28.8027L41.1346 28.4893C41.4241 28.5743 41.7223 28.747 42.0322 29.0516L41.7252 28.5567C41.6872 28.1262 42.0556 28.3546 42.2223 28.2551C42.1667 28.1672 42.0819 28.0296 42.0293 27.9154C43.0497 27.8539 43.8684 26.7499 44.0643 26.627C44.228 26.6416 44.3888 26.6504 44.5408 26.6416C44.9268 28.094 45.1344 29.4879 44.9063 30.7207C44.9063 30.7207 45.2162 31.2156 45.2338 31.4323C45.2133 31.7222 45.1899 32.0208 45.1695 32.3195C43.7602 32.0677 43.1404 33.6577 43.0965 33.6987L42.7164 33.9594C41.9358 34.3488 40.278 34.1761 40.0909 35.8364L39.8014 36.0502C39.6201 35.0458 37.9302 33.4645 36.7665 32.9081C36.5005 32.8408 35.3923 32.2083 35.6526 31.9828C36.7782 31.526 39.623 32.6211 39.5383 32.5919L39.5412 32.5831Z" fill="#C0E2F5"/>
</g>
</g>
<g opacity="0.9">
<g opacity="0.9">
<path d="M41.5299 30.2607C40.6469 30.8757 39.7727 31.5023 38.9072 32.1466C39.0183 31.8713 39.1294 31.6019 39.2376 31.3354C39.6703 30.5243 40.7492 30.6531 41.5299 30.2607Z" fill="#C0E2F5"/>
<path d="M43.9802 28.6123C43.9802 28.6123 43.9802 28.6182 43.9802 28.624C43.2814 29.0691 42.5914 29.5259 41.9072 29.9974C41.9482 29.9564 41.9891 29.9183 42.0271 29.8715C42.5095 29.1775 43.065 28.6152 43.9802 28.6152V28.6123Z" fill="#C0E2F5"/>
<path d="M52.2782 18.5768C52.7373 20.7056 52.4829 20.6236 52.6408 22.568C52.5004 22.7935 52.4303 23.1537 52.2578 23.2649C52.3046 23.3206 51.1789 24.2518 50.5386 24.6266C50.4421 23.6954 50.214 22.6734 49.8398 21.5724C49.486 21.5665 48.8837 21.7188 48.6703 21.3938C47.9803 20.0819 47.9774 19.0014 48.0124 17.953C48.2025 17.9091 51.2783 19.4933 52.2782 18.5768Z" fill="#D7ECF9"/>
<path d="M52.2777 18.5762C53.1022 19.44 55.64 17.9876 55.6663 19.2204C55.7482 19.1677 56.1341 19.5776 56.2189 19.5249C56.026 20.0813 55.6868 20.1662 55.9002 20.6523C54.8594 21.5396 53.8039 22.4064 52.6987 23.2116C52.7338 22.7343 53.0876 22.7373 53.3331 22.5791C52.956 22.2687 52.7689 22.3624 52.6402 22.5703C52.4794 20.623 51.7338 18.7841 52.2777 18.5791V18.5762Z" fill="#D9EEF9"/>
<path d="M42.0657 27.3411C42.2966 26.1083 42.0861 24.7145 41.7002 23.262C41.9809 23.2474 42.5481 23.2562 42.6563 22.7906C43.2059 22.4831 44.5158 22.0732 44.4252 21.5402C44.3374 21.0043 44.4047 24.0439 44.5158 25.3733C44.8666 26.0498 44.9164 26.7408 44.8754 27.4173C44.7409 27.4436 44.5801 26.9868 44.4339 26.9927C44.469 27.0483 44.5655 27.6193 44.5655 27.6193C44.5655 27.6193 43.7673 28.0849 43.3697 28.3162C42.7732 27.7892 42.6153 28.5886 42.6855 28.735L42.3463 28.9458H42.3317C42.3522 28.6442 42.3756 28.3455 42.3961 28.0556C42.3756 27.8389 42.0686 27.3441 42.0686 27.3441L42.0657 27.3411Z" fill="#C8E5F6"/>
<path d="M48.6704 21.3939C47.9804 20.082 47.9775 19.0014 48.0126 17.9531C47.7641 18.0175 47.1384 18.1786 47.0711 18.1962C47.3167 18.4363 47.6179 18.6676 47.577 18.8638C47.3577 19.2328 47.0594 19.6545 46.8109 19.8097C46.4396 19.918 45.8519 19.7482 45.3929 19.7657C45.1853 20.0439 44.9865 20.3221 44.8023 20.6149C44.7877 20.6325 44.9339 21.1713 45.0625 21.3704C44.8754 21.4905 44.659 21.5256 44.428 21.5403C44.4748 21.6486 43.9544 24.123 44.5187 25.3734C44.8695 26.0498 44.9192 26.7409 44.8783 27.4173C44.8842 27.4173 44.9514 27.3822 45.0537 27.3295C45.1561 27.2768 45.2964 27.2036 45.4514 27.1245C45.7613 26.9664 46.1268 26.776 46.3665 26.656C46.2759 26.5476 45.9338 26.3836 45.8548 26.3749C45.9192 26.3368 46.6121 26.4422 46.846 26.4188C47.153 26.2694 47.8781 25.8536 47.919 25.7746C48.0038 25.7218 47.6237 25.5022 47.4132 25.1743C48.0506 25.3939 48.6061 25.4583 49.0944 25.388L49.4189 25.224C49.533 25.3295 49.6119 25.3997 49.568 25.4261C49.5271 25.5022 49.4803 25.5696 49.4277 25.634C49.6353 25.5403 50.5124 25.142 50.7434 25.0396C50.4627 25.0806 50.1557 25.0718 49.8283 25.0191C50.0592 24.8961 50.2902 24.7702 50.5124 24.6413L50.5358 24.6179C50.4393 23.6867 50.2113 22.6735 49.84 21.5754C49.4862 21.5695 48.8839 21.7218 48.6704 21.3968V21.3939Z" fill="#CCE6F7"/>
<path d="M29.0427 37.5931C28.2036 37.2183 27.4609 37.6605 26.5838 37.0689C25.0956 35.9035 24.3588 33.9738 23.1162 32.331C25.4377 31.9035 27.6071 31.1392 29.6655 30.1758C29.6128 31.2095 28.5457 31.2856 28.838 32.738C28.9345 32.9079 29.1977 32.9781 29.3789 33.0982C29.1655 33.8976 28.417 34.5536 28.8965 35.3998C29.1889 35.9181 29.6626 36.3896 30.1187 37.0192L29.9315 37.1334C29.5924 37.0016 29.3819 37.3618 29.0398 37.5931H29.0427Z" fill="#AFD9F2"/>
<path d="M33.1178 36.0583L31.7963 37.0041C31.6998 36.846 31.5975 36.6996 31.498 36.562C32.036 36.2311 32.5477 35.8533 33.036 35.4434C33.0506 35.6396 33.0798 35.8445 33.1178 36.0583Z" fill="#B8DEF4"/>
<path d="M29.3815 33.0976C29.2002 32.9776 28.9371 32.9073 28.8406 32.7375C28.5482 31.285 29.6154 31.2089 29.668 30.1752C30.4604 29.8062 31.2352 29.408 32.0012 28.9863C31.9515 29.1972 31.9047 29.408 31.855 29.6218C32.2702 29.3758 33.045 30.4973 33.466 30.2513C32.969 32.1987 31.4662 33.411 31.6679 35.9059C31.1767 36.3158 30.665 36.6877 30.1271 37.0186C29.671 36.389 29.1973 35.9176 28.9049 35.3993C28.4254 34.553 29.171 33.8971 29.3873 33.0976H29.3815Z" fill="#B8DEF4"/>
<path d="M33.4602 30.255C33.0421 30.5039 32.2673 29.3795 31.8492 29.6254C31.8989 29.4117 31.9486 29.2008 31.9954 28.99C32.8813 28.5068 33.7467 27.9915 34.6063 27.4644C34.6765 27.4497 34.7437 27.4351 34.811 27.4117C35.5536 27.1511 36.0623 26.7382 36.7582 26.4951C36.7524 27.4058 36.7465 28.3224 36.7027 29.2067C35.3519 28.7645 34.0332 28.5156 32.817 28.5976C33.2497 28.5683 33.6649 29.4527 33.9309 29.523C35.0917 30.0793 36.7845 31.6606 36.9658 32.665C35.732 33.5816 34.4952 34.4981 33.2526 35.4176C33.0392 35.2565 32.7059 34.9842 32.6357 35.0252C32.3199 35.3327 31.9954 35.6284 31.6591 35.9066C31.4574 33.4117 32.9602 32.1994 33.4573 30.2521L33.4602 30.255Z" fill="#BBDFF5"/>
<path d="M36.7023 29.2061C36.7462 28.3188 36.752 27.4052 36.7579 26.4945C36.9362 26.433 37.1233 26.3833 37.3338 26.3481C37.2432 26.2017 37.1555 26.0582 37.0093 25.944L37.3514 25.7244C37.5444 25.7244 37.9917 26.1607 37.8133 25.4257L38.2958 25.1124C38.5852 25.1973 38.8835 25.3701 39.1934 25.6746L38.8864 25.1797C38.8484 24.7493 39.2168 24.9777 39.3834 24.8781C39.3279 24.7903 39.2431 24.6526 39.1904 24.5384C40.2108 24.4769 41.0295 23.373 41.2254 23.25C41.3891 23.2646 41.5499 23.2734 41.702 23.2646C42.0879 24.7171 42.2955 26.1109 42.0674 27.3437C42.0674 27.3437 42.3774 27.8386 42.3949 28.0553C42.3744 28.3452 42.3511 28.6439 42.3306 28.9426C40.9213 28.6907 40.3015 30.2808 40.2576 30.3218L39.8775 30.5824C39.0969 30.9719 37.4391 30.7991 37.252 32.4594L36.9625 32.6732C36.7813 31.6688 35.0913 30.0875 33.9276 29.5312C33.6616 29.4638 32.5535 28.8313 32.8137 28.6058C33.9393 28.149 36.7842 29.2442 36.6994 29.2149L36.7023 29.2061Z" fill="#C0E2F5"/>
</g>
</g>
<g opacity="0.9">
<g opacity="0.9">
<path d="M33.8355 29.7188C32.9525 30.3337 32.0783 30.9603 31.2129 31.6046C31.324 31.3293 31.4351 31.0599 31.5433 30.7934C31.976 29.9823 33.0549 30.1111 33.8355 29.7188Z" fill="#C0E2F5"/>
<path d="M36.2859 28.0713C36.2859 28.0713 36.2859 28.0771 36.2859 28.083C35.5871 28.5281 34.8971 28.9849 34.2129 29.4564C34.2538 29.4154 34.2948 29.3773 34.3328 29.3304C34.8152 28.6364 35.3707 28.0742 36.2859 28.0742V28.0713Z" fill="#C0E2F5"/>
<path d="M48.0105 17.9535C48.4696 20.0823 44.7885 20.0794 44.9493 22.0267C44.809 22.2522 44.7388 22.6124 44.5663 22.7236C44.6131 22.7793 43.4874 23.7105 42.8471 24.0853C42.7506 23.1541 42.5226 22.1321 42.1483 21.0311C41.7946 21.0252 41.1923 21.1775 40.9788 20.8525C40.2888 19.5406 40.7859 21.5845 40.8239 20.5362C40.9204 19.7778 46.8235 17.4293 48.0134 17.9535H48.0105Z" fill="#D7ECF9"/>
<path d="M34.3739 26.7996C34.6049 25.5668 33.2717 26.0265 32.8857 24.5741C33.1664 24.5595 35.0523 23.6283 35.1604 23.1627C35.7101 22.8552 40.3034 22.0119 40.2157 21.476C40.1279 20.9401 36.713 23.4994 36.8241 24.8318C37.1749 25.5082 37.2246 26.1993 37.1837 26.8757C37.0492 26.9021 36.8884 26.4453 36.7422 26.4511C36.7773 26.5068 36.8738 27.0778 36.8738 27.0778C36.8738 27.0778 36.0756 27.5434 35.6779 27.7747C35.0815 27.2476 34.9236 28.0471 34.9938 28.1935L34.6546 28.4043H34.64C34.6605 28.1027 34.6839 27.804 34.7043 27.5141C34.6839 27.2974 34.3769 26.8025 34.3769 26.8025L34.3739 26.7996Z" fill="#C8E5F6"/>
<path d="M40.9761 20.8519C40.2861 19.54 38.5377 21.9588 38.6663 22.1579C37.2571 22.196 34.7543 23.4786 36.8244 24.8314C37.1752 25.5079 37.2249 26.1989 37.184 26.8754C37.1898 26.8754 37.2571 26.8402 37.3594 26.7875C37.4618 26.7348 37.6021 26.6616 37.7571 26.5825C38.067 26.4244 38.4324 26.2341 38.6722 26.114C38.5816 26.0057 38.2395 25.8417 38.1605 25.8329C38.2249 25.7948 38.9178 25.9003 39.1517 25.8768C39.4587 25.7275 40.1838 25.3117 40.2247 25.2326C40.3095 25.1799 39.9294 24.9603 39.7189 24.6323C40.3563 24.8519 40.9118 24.9164 41.4001 24.8461L41.7246 24.6821C41.8386 24.7875 41.9176 24.8578 41.8737 24.8841C41.8328 24.9603 41.786 25.0276 41.7334 25.0921C41.941 24.9983 42.8181 24.6001 43.0491 24.4976C42.7684 24.5386 42.4614 24.5298 42.1339 24.4771C42.3649 24.3541 42.5959 24.2282 42.8181 24.0994L42.8415 24.0759C42.745 23.1447 42.517 22.1316 42.1456 21.0335C41.7919 21.0276 41.1896 21.1799 40.9761 20.8548V20.8519Z" fill="#CCE6F7"/>
<path d="M21.3513 37.0521C20.5122 36.6773 19.7695 37.1194 18.8924 36.5279C17.4042 35.3625 16.6674 33.4327 15.4248 31.79C17.7463 31.3624 19.9157 30.5982 21.9741 29.6348C21.9214 30.6684 20.8543 30.7446 21.1466 32.197C21.2431 32.3668 21.5063 32.4371 21.6875 32.5572C21.4741 33.3566 20.7256 34.0125 21.2051 34.8588C21.4975 35.3771 21.9711 35.8486 22.4273 36.4782L22.2401 36.5924C21.901 36.4606 21.6905 36.8208 21.3484 37.0521H21.3513Z" fill="#AFD9F2"/>
<path d="M25.4264 35.5144L24.1049 36.4602C24.0084 36.3021 23.906 36.1556 23.8066 36.018C24.3446 35.6871 24.8563 35.3094 25.3445 34.8994C25.3592 35.0956 25.3884 35.3006 25.4264 35.5144Z" fill="#B8DEF4"/>
<path d="M21.6872 32.5566C21.5059 32.4366 21.2427 32.3663 21.1463 32.1964C20.8539 30.744 21.9211 30.6679 21.9737 29.6342C22.766 29.2652 23.5408 28.867 24.3069 28.4453C24.2572 28.6561 24.2104 28.867 24.1607 29.0807C24.5759 28.8348 25.3507 29.9563 25.7717 29.7103C25.2746 31.6576 23.7718 32.8699 23.9736 35.3648C23.4824 35.7748 22.9707 36.1467 22.4327 36.4776C21.9766 35.848 21.503 35.3765 21.2106 34.8582C20.7311 34.012 21.4767 33.356 21.693 32.5566H21.6872Z" fill="#B8DEF4"/>
<path d="M25.7688 29.7101C25.3507 29.959 24.5759 28.8345 24.1578 29.0805C24.2075 28.8668 24.2572 28.6559 24.304 28.4451C25.1899 27.9619 26.0553 27.4465 26.9149 26.9195C26.9851 26.9048 27.0523 26.8902 27.1196 26.8667C27.8622 26.6061 28.3709 26.1932 29.0668 25.9502C29.061 26.8609 29.0551 27.7774 29.0112 28.6618C27.6605 28.2196 26.3418 27.9707 25.1255 28.0527C25.5583 28.0234 25.9734 28.9078 26.2395 28.978C27.4002 29.5344 29.0931 31.1157 29.2744 32.1201C28.0406 33.0366 26.8038 33.9532 25.5612 34.8727C25.3478 34.7116 25.0144 34.4393 24.9443 34.4803C24.6285 34.7877 24.304 35.0835 23.9677 35.3617C23.766 32.8668 25.2688 31.6545 25.7659 29.7072L25.7688 29.7101Z" fill="#BBDFF5"/>
<path d="M29.0119 28.6658C29.0557 27.7785 29.0616 26.8649 29.0674 25.9542C29.2458 25.8927 29.4329 25.8429 29.6434 25.8078C29.5528 25.6614 33.2894 24.2734 33.5993 24.575C33.5993 24.575 34.6051 25.5677 34.3741 26.8005C34.3741 26.8005 34.684 27.2954 34.7016 27.512C34.6811 27.8019 34.6577 28.1006 34.6372 28.3993C33.228 28.1475 32.6081 29.7375 32.5643 29.7785L32.1842 30.0391C31.4035 30.4286 29.7457 30.2558 29.5586 31.9162L29.2692 32.1299C29.0879 31.1255 27.398 29.5443 26.2343 28.9879C25.9682 28.9205 24.8601 28.288 25.1203 28.0626C26.246 27.6057 29.0908 28.7009 29.006 28.6716L29.0119 28.6658Z" fill="#C0E2F5"/>
</g>
</g>
<g style="mix-blend-mode:multiply">
<g opacity="0.9">
<g opacity="0.9">
<path d="M36.1867 66.668C34.4471 66.5362 32.7016 66.4015 30.959 66.2697C31.3829 66.0677 31.801 65.8686 32.2133 65.6724C33.5962 65.1746 34.7745 66.3722 36.1867 66.6709V66.668Z" fill="#C0E2F5"/>
<path d="M41.0961 67.0017L41.0844 67.0163L36.9443 66.7264C37.0408 66.7206 37.1344 66.7118 37.2338 66.6913C38.5846 66.3369 39.8769 66.1905 41.099 67.0017H41.0961Z" fill="#C0E2F5"/>
<path d="M60.802 55.1416C61.0184 58.4096 60.3137 61.4228 59.343 64.4535C58.9688 64.7493 58.6121 65.2734 58.2466 65.3847C58.2963 65.5165 55.7526 66.4477 54.4165 66.638C55.0275 65.2383 55.434 63.6746 55.6094 61.9059C55.0889 61.7361 54.1183 61.6248 54.0393 61.0538C53.9691 58.8224 54.6328 57.3202 55.1737 55.8385C55.3082 55.862 56.2848 56.0406 57.4689 56.023C58.6443 56.0054 60.0214 55.7419 60.802 55.1445V55.1416Z" fill="#D7ECF9"/>
<path d="M64.9482 52.9807C66.0944 52.3511 68.0825 51.9851 68.8632 51.7069C69.3017 52.9924 73.4155 47.6249 73.5646 48.8489C74.2868 48.9895 79.6344 53.3585 80.1957 53.256C80.684 52.029 77.6462 57.0774 77.6696 57.3204C75.8188 59.1272 67.986 60.1345 65.7727 61.7597C65.6763 61.3732 65.7786 59.7128 65.688 57.8973C65.609 56.0759 65.34 54.114 64.9512 52.9837L64.9482 52.9807Z" fill="#DDF0FA"/>
<path d="M61.7991 55.245C62.1499 54.8643 62.4481 54.4924 62.72 54.1323C63.4276 53.7282 64.1556 53.3416 64.945 52.9814C65.714 55.2421 66.0561 57.4998 65.7959 59.4734C65.9391 59.3827 66.4654 60.0035 66.6145 59.9068C66.1701 60.8322 65.5649 60.9844 65.7666 61.7575C63.7229 63.2714 61.4014 64.554 59.0127 65.4383C59.3899 64.7356 59.9717 64.838 60.4892 64.636C60.0419 64.0679 59.6852 64.1821 59.3402 64.4515C60.3138 61.4207 61.0155 58.4075 60.7991 55.1396L61.1587 54.961C61.4102 55.2274 61.6587 55.4939 61.7932 55.2421L61.7991 55.245Z" fill="#D9EEF9"/>
<path d="M39.9114 63.745C41.4581 62.4887 42.5633 60.6088 43.4375 58.4858C43.7883 58.7112 44.4842 59.2061 45.0368 58.7025C45.9841 58.7962 47.9781 59.2647 48.2968 58.4916C48.4518 58.108 47.9576 58.9221 47.2442 60.0553C46.5162 61.1827 45.5894 62.6088 45.0309 63.4756C44.8555 64.6117 44.2532 65.5224 43.5193 66.3248C43.3118 66.2399 43.5457 65.54 43.3468 65.4199C43.341 65.5195 42.8966 66.3013 42.8966 66.3013C42.8966 66.3013 42.5106 66.2691 42.0282 66.2311C41.5516 66.1842 40.9786 66.1286 40.5956 66.0905C40.3529 64.928 39.3383 65.7245 39.2711 65.9617L38.6132 65.9002L38.5928 65.8855C38.9319 65.5517 39.2682 65.215 39.5986 64.8899C39.7974 64.6147 39.9085 63.745 39.9085 63.745H39.9114Z" fill="#C8E5F6"/>
<path d="M54.0432 61.0541C53.973 58.8227 54.6367 57.3205 55.1776 55.8388C54.8326 55.8095 53.973 55.7129 53.8795 55.6895C54.0549 56.1609 54.3122 56.6499 54.1485 56.9018C53.6602 57.2971 53.014 57.7246 52.593 57.7773C52.0463 57.7129 51.4147 57.1126 50.8358 56.8198C50.3855 57.0628 49.9353 57.3059 49.4879 57.546C49.4587 57.5606 49.2277 58.3747 49.2336 58.7319C48.9032 58.7612 48.5991 58.647 48.3009 58.4947C48.2834 58.5767 47.6226 59.3498 46.8624 60.3103C46.111 61.2795 45.2543 62.4684 45.035 63.4787C44.8596 64.6148 44.2573 65.5255 43.5234 66.3279C43.5322 66.3308 43.655 66.3513 43.848 66.3689C44.0409 66.3894 44.307 66.4157 44.5994 66.445C45.1812 66.5094 45.88 66.5592 46.3332 66.5914C46.3098 66.3806 45.9882 65.9062 45.8888 65.8272C46.0116 65.8272 46.8799 66.5124 47.2396 66.6617C47.8243 66.6969 49.2657 66.691 49.4032 66.6002C49.5727 66.5885 49.219 66.0292 49.2102 65.4465C49.9324 66.1785 50.7072 66.6646 51.5141 66.8608L52.1574 66.8403C52.2421 67.057 52.3006 67.2034 52.2129 67.2122C52.0813 67.2913 51.9498 67.3557 51.8123 67.4084C52.21 67.4318 53.9438 67.3645 54.4087 67.3352C53.9233 67.2386 53.4438 67.0541 52.9731 66.7964C53.438 66.7554 53.9058 66.7027 54.3707 66.6471L54.4262 66.6236C55.0344 65.2269 55.4378 63.6719 55.6133 61.9091C55.0928 61.7393 54.1221 61.628 54.0432 61.057V61.0541Z" fill="#CCE6F7"/>
<path d="M14.0834 63.7837C13.3378 62.6505 12.0718 62.7032 11.3408 61.3269C10.1713 58.7734 10.5163 55.687 9.90527 52.6621C13.9021 53.4937 17.7644 54.2961 21.6238 55.0984C20.5157 56.2815 18.9895 55.4205 17.9983 57.4762C17.9691 57.769 18.2556 58.0765 18.3784 58.381C17.3434 59.1805 15.7821 59.3972 15.6827 60.8642C15.6183 61.7573 15.8172 62.7354 15.8464 63.8979L15.5277 63.8921C15.2236 63.4528 14.674 63.7369 14.0834 63.7837Z" fill="#AFD9F2"/>
<path d="M20.2354 65.2769C19.4314 65.2623 18.639 65.2623 17.8525 65.2682C17.8759 64.99 17.8847 64.7235 17.8847 64.4629C18.8086 64.5156 19.753 64.5127 20.712 64.46C20.5483 64.7118 20.3875 64.9841 20.2354 65.274V65.2769Z" fill="#B8DEF4"/>
<path d="M18.3784 58.3773C18.2556 58.0728 17.9691 57.7653 17.9983 57.4725C18.9894 55.4168 20.5157 56.2778 21.6238 55.0947C23.0447 55.3641 24.4598 55.6335 25.8779 55.9029C25.5943 56.0991 25.3136 56.2982 25.03 56.4974C25.8135 56.6116 25.6118 58.6614 26.3808 58.7785C23.764 60.5267 20.6618 60.5677 18.6532 63.8093C17.6971 63.8825 16.7674 63.9206 15.8464 63.9001C15.8171 62.7375 15.6183 61.7566 15.6827 60.8664C15.7821 59.3964 17.3463 59.1826 18.3784 58.3832V58.3773Z" fill="#B8DEF4"/>
<path d="M26.3809 58.7789C25.6119 58.6618 25.8136 56.6149 25.0301 56.4978C25.3137 56.2986 25.5973 56.1024 25.878 55.9033C27.5036 56.1961 29.1117 56.4655 30.711 56.7115C30.8104 56.7642 30.9127 56.814 31.0121 56.8521C32.1875 57.2855 33.2283 57.3177 34.3131 57.7189C33.357 58.7555 32.3863 59.7891 31.3981 60.7555C30.2402 58.9282 28.9187 57.3382 27.3106 56.2489C27.8808 56.6354 27.4597 58.0556 27.7112 58.3924C28.5503 60.1669 28.9158 63.631 28.0913 64.9546C25.6821 64.7848 23.305 64.6677 20.9806 64.6296C20.8812 64.2401 20.7438 63.6105 20.621 63.5988C19.9573 63.6896 19.2936 63.7423 18.6475 63.8038C20.6561 60.5651 23.7611 60.5212 26.375 58.773L26.3809 58.7789Z" fill="#BBDFF5"/>
<path d="M31.4006 60.7586C32.3888 59.7922 33.3595 58.7586 34.3156 57.722C34.5904 57.8244 34.8711 57.9533 35.1547 58.1143C35.2015 57.8596 35.2454 57.6048 35.1898 57.3383L35.8243 57.4145C36.0494 57.6048 36.14 58.536 36.6809 57.514L37.5669 57.6107C37.8241 57.9855 38.0025 58.4745 38.0668 59.1158L38.2013 58.2461C38.5873 57.7015 38.7948 58.3164 39.0931 58.3545C39.1165 58.1993 39.1515 57.9591 39.2012 57.7717C40.4819 58.6502 42.5314 58.0411 42.8735 58.0587C43.0577 58.2198 43.2448 58.3632 43.4378 58.4862C42.5636 60.6092 41.4584 62.4892 39.9117 63.7454C39.9117 63.7454 39.8006 64.618 39.6018 64.8904C39.2714 65.2183 38.9323 65.5522 38.596 65.886C37.064 64.2813 34.6343 65.5053 34.5349 65.5053L33.7952 65.435C32.4268 65.1188 30.6083 63.2857 28.6581 64.9987L28.0938 64.9577C28.9183 63.6341 28.5558 60.17 27.7137 58.3955C27.4623 58.0587 26.7518 56.2549 27.3132 56.252C29.2136 56.8288 31.4708 60.8816 31.4006 60.7586Z" fill="#C0E2F5"/>
<path d="M74.5876 48.9664C75.0934 48.6999 75.6021 48.4335 76.1167 48.1611C75.6811 48.5887 75.0495 48.7995 75.2513 49.5081C74.915 49.5345 74.6928 49.7483 74.4706 49.962C74.4589 49.596 74.5028 49.268 74.5876 48.9635V48.9664Z" fill="#EAF5FB"/>
<path d="M76.4794 52.718L76.1197 53.0636C75.7484 52.639 75.6139 51.9889 76.0379 51.9713C75.6636 51.5526 75.8011 52.1997 75.6139 51.9889C75.1169 51.4266 75.2338 51.2773 75.4531 51.1895C76.2893 52.1324 76.9442 53.2422 76.763 53.4179L76.5261 53.6492C76.494 53.3271 76.6168 53.0167 76.4764 52.718H76.4794Z" fill="#EAF5FB"/>
</g>
</g>
</g>
<g style="mix-blend-mode:multiply">
<g opacity="0.9">
<g opacity="0.9">
<path d="M62.9062 36.2959C61.4502 36.8025 59.9941 37.3091 58.5381 37.8157C58.9445 37.8947 59.3509 37.9709 59.7485 38.047C61.0467 38.1641 61.7718 36.8698 62.9062 36.2959Z" fill="#C0E2F5"/>
<path d="M67.0193 34.9053L67.0076 34.8965L63.54 36.0766C63.6219 36.0619 63.7067 36.0473 63.7944 36.0414C65.0312 36.0414 66.1685 35.8745 67.0193 34.9053Z" fill="#C0E2F5"/>
<path d="M66.7711 37.9653C68.3851 38.6974 69.768 40.0591 71.0077 41.6872C71.2562 41.4149 71.7328 40.8351 72.3205 41.1425C73.107 40.8497 74.7618 40.2963 73.8905 39.4851C73.0046 38.6828 71.8819 37.6637 71.2036 37.0488C70.7884 36.1147 70.0604 35.4675 69.2476 34.9434C69.0926 35.0634 69.4552 35.611 69.3119 35.7574C69.2827 35.6725 68.7213 35.1015 68.7213 35.1015C68.7213 35.1015 68.3997 35.2157 67.9991 35.3562C67.6015 35.5027 67.1249 35.6813 66.8091 35.7984C66.8735 36.8497 65.8209 36.3958 65.7098 36.2054L65.1631 36.4046L65.1514 36.4221C65.5168 36.633 65.8852 36.8438 66.2419 37.0517C66.4758 37.2421 66.7741 37.9653 66.7741 37.9653H66.7711Z" fill="#C8E5F6"/>
<path d="M44.7141 43.7488C44.3428 44.8879 43.2493 45.1309 42.9452 46.475C42.5417 48.9318 39.1384 47.5907 39.3226 50.3257C42.5388 48.7122 50.2342 52.0036 53.3422 50.4458C52.12 49.6785 50.8511 49.822 49.5266 48.2788C49.4331 48.0358 49.6056 47.7049 49.6407 47.4179C48.5706 46.964 47.1876 47.1309 46.7607 45.8923C46.4976 45.1397 46.4391 44.2554 46.1906 43.251L45.9216 43.3271C45.7637 43.7722 45.2287 43.6521 44.7141 43.7459V43.7488Z" fill="#AFD9F2"/>
<path d="M49.6141 41.0811C48.9328 41.2743 48.2545 41.4529 47.582 41.6257C47.6668 41.857 47.737 42.0855 47.7984 42.308C48.5761 42.0532 49.3802 41.8453 50.2134 41.6755C50.0146 41.4969 49.8158 41.3007 49.617 41.084L49.6141 41.0811Z" fill="#B8DEF4"/>
<path d="M49.6405 47.4206C49.6054 47.7105 49.4329 48.0384 49.5265 48.2815C50.8509 49.8218 52.1228 49.6812 53.342 50.4484C54.491 49.8979 55.4705 48.4074 56.6166 47.8569C56.3301 47.7515 56.0436 47.6461 55.7541 47.5377C56.3973 47.2625 55.7453 45.5494 56.3739 45.2771C53.7338 44.3635 51.0731 45.0282 48.6025 42.6973C47.7693 42.8495 46.9652 43.0282 46.1875 43.2507C46.4331 44.2551 46.4945 45.1394 46.7576 45.892C47.1845 47.1307 48.5704 46.9638 49.6376 47.4176L49.6405 47.4206Z" fill="#B8DEF4"/>
<path d="M56.3769 45.2775C55.7453 45.5499 56.3973 47.2629 55.757 47.5382C56.0465 47.6465 56.333 47.7519 56.6196 47.8573C57.9411 47.2395 59.248 46.645 60.5579 46.077C60.631 46.0096 60.7041 45.9452 60.783 45.8866C61.6865 45.2512 62.5665 44.9876 63.3998 44.3991C62.3414 43.7226 61.2713 43.055 60.2041 42.4488C59.6427 44.2761 58.8855 45.9423 57.7686 47.2395C58.1633 46.7797 57.4733 45.6553 57.6107 45.3068C57.9148 43.5938 57.4148 40.5396 56.4032 39.5879C54.3858 40.276 52.3859 40.9115 50.4094 41.4678C50.4153 41.8251 50.4445 42.3961 50.3422 42.4342C49.7545 42.5045 49.1756 42.6099 48.6113 42.7036C51.0819 45.0316 53.7396 44.3698 56.3827 45.2834L56.3769 45.2775Z" fill="#BBDFF5"/>
<path d="M60.2013 42.4453C61.2714 43.0544 62.3386 43.7221 63.397 44.3956C63.6075 44.2462 63.818 44.0705 64.0227 43.8685C64.1221 44.0764 64.2186 44.2843 64.2332 44.5274L64.7565 44.3194C64.9057 44.1057 64.7653 43.2858 65.4641 44.0413L66.198 43.7601C66.3295 43.3795 66.3675 42.9227 66.274 42.3546L66.5927 43.072C67.0488 43.4527 67.0839 42.8758 67.3295 42.7792C67.385 42.908 67.4698 43.1071 67.5575 43.2536C68.4463 42.2111 70.3351 42.2726 70.6246 42.1789C70.7444 42.0002 70.8702 41.8333 71.0047 41.6869C69.762 40.0588 68.382 38.6971 66.7681 37.9651C66.7681 37.9651 66.4699 37.2418 66.236 37.0515C65.8793 36.8435 65.5109 36.6327 65.1454 36.4219C64.2127 38.1466 61.8532 37.64 61.7684 37.6635L61.1515 37.8919C60.058 38.4717 58.9324 40.4541 56.8682 39.4234L56.3975 39.5844C57.4091 40.5332 57.9091 43.5903 57.605 45.3033C57.4705 45.6489 57.2834 47.359 57.7629 47.236C59.2481 46.3136 60.2305 42.3253 60.1984 42.4453H60.2013Z" fill="#C0E2F5"/>
</g>
</g>
</g>
<g style="mix-blend-mode:multiply">
<g opacity="0.9">
<g opacity="0.9">
<path d="M60.6284 53.6855C59.7425 54.1834 58.8595 54.6841 57.9707 55.1819C58.1081 54.9564 58.2455 54.7309 58.383 54.5084C58.8888 53.8378 59.8478 54.0047 60.6284 53.6855Z" fill="#C0E2F5"/>
<path d="M63.111 52.2598V52.2686L61.0146 53.4662C61.0585 53.434 61.1024 53.3989 61.1433 53.3579C61.6813 52.7634 62.2573 52.2832 63.111 52.2598Z" fill="#C0E2F5"/>
<path d="M68.7645 40.5615C69.934 41.973 72.2993 43.9027 72.8168 45.5894C72.7321 45.8441 71.007 45.8559 70.8696 46.0257C70.9369 46.0696 70.0129 47.3083 69.4282 47.8237C69.2674 46.992 68.9545 46.1545 68.4604 45.2965C68.1534 45.3873 67.6476 45.6479 67.4254 45.4137C66.6652 44.4269 66.4956 43.5308 66.2734 42.6845C66.3465 42.6523 66.8757 42.421 67.4429 42.0315C68.0043 41.645 68.5861 41.0828 68.7674 40.5645L68.7645 40.5615Z" fill="#D7ECF9"/>
<path d="M57.7773 47.3399C58.1253 46.6869 58.9673 45.8846 59.2539 45.5068C59.8854 45.949 60.4818 46.4117 60.9526 46.9183C61.3473 46.7484 61.7098 46.6606 61.9467 46.4322C62.0373 46.5376 62.1309 46.6401 62.2215 46.7426C61.9174 48.154 61.5753 49.6064 61.0374 51.053C60.8649 50.9095 60.3737 50.1247 59.7363 49.3282C59.1047 48.5288 58.3358 47.7235 57.7773 47.337V47.3399Z" fill="#DDF0FA"/>
<path d="M69.2792 40.2861C69.3231 39.9992 69.3465 39.7356 69.3611 39.4867C69.5716 39.0768 69.7967 38.6668 70.0599 38.251C71.168 39.027 72.0714 39.9406 72.5889 40.9186C72.627 40.8308 73.086 40.945 73.1269 40.8542C73.2146 41.4164 72.972 41.68 73.3199 41.967C72.8258 43.3081 72.1211 44.6346 71.2557 45.803C71.2089 45.3638 71.5247 45.2232 71.706 44.9655C71.3025 44.8513 71.168 45.0182 71.092 45.2496C70.5745 43.5658 69.9312 41.9728 68.7617 40.5614L68.8787 40.3652C69.0863 40.4062 69.2938 40.4472 69.2763 40.2891L69.2792 40.2861Z" fill="#D9EEF9"/>
<path d="M61.4756 51.1643C61.8147 50.0984 61.7358 48.8919 61.4639 47.6503C61.7065 47.6386 62.2036 47.6415 62.3059 47.2345C62.7942 46.9739 63.9111 46.5464 63.8117 46.0925C63.762 45.8699 63.7883 46.397 63.8117 47.1379C63.8263 47.8817 63.8467 48.8275 63.8555 49.3985C64.1421 49.9695 64.1479 50.5757 64.0543 51.176C63.9257 51.2023 63.8117 50.8129 63.6772 50.8216C63.7064 50.8685 63.7473 51.3663 63.7473 51.3663C63.7473 51.3663 63.5514 51.4747 63.3058 51.6123C63.0603 51.7441 62.7649 51.9022 62.5691 52.0076C62.072 51.5596 61.841 52.2448 61.8878 52.3736L61.5516 52.5581H61.537C61.5925 52.2975 61.6451 52.0369 61.6978 51.7821C61.7036 51.5947 61.4726 51.1643 61.4726 51.1643H61.4756Z" fill="#C8E5F6"/>
<path d="M67.4258 45.4108C66.6656 44.424 66.4961 43.5279 66.2739 42.6816C66.0984 42.7783 65.6511 43.0096 65.5955 43.0301C65.8353 43.1882 66.1189 43.3259 66.1218 43.4928C66.0166 43.8295 65.8441 44.2307 65.6569 44.3888C65.3704 44.5352 64.8705 44.465 64.4962 44.5177C64.3588 44.7724 64.2184 45.0272 64.081 45.279C64.0723 45.2937 64.2243 45.7388 64.3442 45.8969C64.1951 46.017 64.0109 46.0609 63.815 46.0872C63.8325 46.1312 63.7653 46.6934 63.7126 47.3727C63.6659 48.055 63.6395 48.8662 63.8617 49.3962C64.1483 49.9672 64.1541 50.5734 64.0606 51.1736C64.0664 51.1736 64.1307 51.1414 64.2301 51.0887C64.3296 51.036 64.467 50.9628 64.6161 50.8808C64.9172 50.7227 65.271 50.5236 65.502 50.3918C65.4201 50.304 65.1102 50.1927 65.04 50.1868C65.0985 50.1458 65.7417 50.178 65.9669 50.1312C66.2592 49.9584 66.9551 49.4928 66.9902 49.4079C67.0691 49.3493 66.7154 49.2088 66.5224 48.9482C67.1101 49.0477 67.6422 49.0184 68.0954 48.8515L68.3994 48.6348C68.5106 48.7051 68.5866 48.752 68.5486 48.7871C68.5106 48.8662 68.4667 48.9364 68.4199 49.0038C68.6187 48.8867 69.4374 48.2981 69.6508 48.137C69.3848 48.2483 69.0924 48.3186 68.7825 48.3537C68.993 48.1839 69.2035 48.0111 69.4082 47.8383L69.4257 47.8091C69.2649 46.9804 68.952 46.1458 68.4609 45.2907C68.1539 45.3815 67.648 45.6421 67.4258 45.4079V45.4108Z" fill="#CCE6F7"/>
<path d="M49.0062 59.4696C48.2752 59.1943 47.6817 59.6248 46.8806 59.2353C45.483 58.4535 44.6439 56.9454 43.3633 55.7683C45.5649 54.8634 47.6934 53.9849 49.819 53.1123C49.6699 54.0025 48.6524 54.105 48.8424 55.3524C48.9243 55.493 49.1611 55.5428 49.3219 55.6394C49.0822 56.3334 48.398 56.9337 48.8278 57.6306C49.088 58.0552 49.5032 58.4359 49.895 58.9542L49.74 59.0538C49.4506 58.9513 49.2781 59.2588 49.0062 59.4667V59.4696Z" fill="#AFD9F2"/>
<path d="M52.4679 58.1755C52.0761 58.4274 51.6901 58.6821 51.313 58.9369C51.234 58.8051 51.1492 58.6792 51.0674 58.5621C51.5323 58.2897 51.9854 57.9852 52.4328 57.6543C52.4328 57.8212 52.4474 57.994 52.4679 58.1755Z" fill="#B8DEF4"/>
<path d="M49.3223 55.6419C49.1644 55.5423 48.9247 55.4954 48.8428 55.3549C48.6498 54.1045 49.6702 54.0049 49.8194 53.1148C50.5942 52.7809 51.366 52.45 52.1379 52.1162C52.0648 52.2948 51.9946 52.4764 51.9215 52.6579C52.3367 52.4588 52.9069 53.4515 53.3191 53.2582C52.6262 54.8893 51.138 55.9054 51.2257 58.0167C50.7871 58.3564 50.3515 58.6726 49.8983 58.9596C49.5036 58.4413 49.0913 58.0606 48.8311 57.636C48.4013 56.9391 49.0855 56.3388 49.3252 55.6448L49.3223 55.6419Z" fill="#B8DEF4"/>
<path d="M53.3186 53.2554C52.9093 53.4486 52.3391 52.456 51.921 52.6551C51.9941 52.4735 52.0643 52.2949 52.1374 52.1133C53.0174 51.7239 53.8829 51.3315 54.7366 50.9274C54.8009 50.9186 54.8653 50.9098 54.9296 50.8952C55.6401 50.7136 56.1517 50.3945 56.8067 50.2275C56.6839 51.0065 56.5494 51.7854 56.3886 52.5409C55.2337 52.0841 54.0758 51.7883 52.9443 51.8088C53.3449 51.803 53.6051 52.5789 53.839 52.6522C54.8243 53.188 56.1283 54.6405 56.1605 55.5043C54.9413 56.2012 53.7542 56.9099 52.6198 57.639C52.4444 57.4955 52.1725 57.2525 52.1111 57.2876C51.8187 57.5424 51.5175 57.7796 51.2252 58.0138C51.1404 55.9025 52.6256 54.8864 53.3186 53.2554Z" fill="#BBDFF5"/>
<path d="M56.389 52.5416C56.5498 51.7861 56.6813 51.0072 56.8071 50.2282C56.9737 50.1873 57.1521 50.155 57.3421 50.1375C57.2807 50.0086 57.2193 49.8769 57.1053 49.7744L57.4357 49.6045C57.6052 49.6162 57.9532 50.0116 57.883 49.3761L58.342 49.136C58.5876 49.2238 58.8332 49.3878 59.073 49.6572L58.8537 49.2209C58.8625 48.852 59.1636 49.0628 59.3215 48.9837C59.2806 48.9047 59.2192 48.7846 59.1841 48.685C60.0905 48.6733 60.8799 47.7392 61.0524 47.6367C61.1927 47.6514 61.3301 47.6572 61.4646 47.6484C61.7336 48.89 61.8126 50.0965 61.4763 51.1624C61.4763 51.1624 61.7073 51.5928 61.7015 51.7802C61.6488 52.035 61.5933 52.2956 61.5407 52.5533C60.2776 52.3161 59.5028 53.6514 59.4531 53.6836L59.073 53.8886C58.3099 54.1844 56.8334 53.9384 56.4474 55.3381L56.1609 55.5021C56.1287 54.6382 54.8218 53.1858 53.8394 52.6499C53.6084 52.5767 52.6758 51.9881 52.9447 51.8066C54.0499 51.4581 56.4621 52.5709 56.389 52.5387V52.5416Z" fill="#C0E2F5"/>
<path d="M62.2568 42.9771C62.4147 42.696 62.5726 42.409 62.7334 42.1221C62.6632 42.4559 62.4264 42.7546 62.7539 43.0123C62.5989 43.1323 62.5638 43.2992 62.5258 43.4691C62.4001 43.308 62.3153 43.144 62.2568 42.9801V42.9771Z" fill="#EAF5FB"/>
<path d="M64.391 44.0692L64.3296 44.3415C64.0109 44.2683 63.736 44.0165 63.9348 43.873C63.6162 43.8027 63.8939 44.0516 63.736 44.0165C63.3121 43.9227 63.3209 43.8173 63.3969 43.7061C64.1103 43.8642 64.7857 44.157 64.7564 44.2946L64.7184 44.4733C64.5985 44.3386 64.5547 44.157 64.391 44.0662V44.0692Z" fill="#EAF5FB"/>
<path d="M63.0785 46.98C62.8417 47.2084 62.4792 47.2962 62.0845 47.4661C61.6137 46.9595 61.0144 46.4968 60.3857 46.0546C60.9062 45.3811 61.3623 44.6754 61.7979 43.9346C61.8564 44.0986 61.9383 44.2625 62.0611 44.4265C62.0991 44.2596 62.14 44.0927 62.295 43.9726C62.3593 44.0224 62.4382 44.0722 62.5493 44.1191H62.5581C62.4792 44.2303 62.4704 44.3357 62.8914 44.4324C63.0493 44.4704 62.7745 44.2186 63.0932 44.2918C62.8914 44.4324 63.1692 44.6871 63.4849 44.7633L63.5493 44.4939C63.713 44.5846 63.7539 44.7633 63.8738 44.9009C63.7013 45.7003 63.5288 46.4939 63.3563 47.2904C63.2657 47.1879 63.175 47.0854 63.0815 46.98H63.0785Z" fill="#E6F3FC"/>
</g>
</g>
</g>
<g style="mix-blend-mode:multiply">
<g opacity="0.9">
<g opacity="0.9">
<path d="M69.1968 53.1055C68.3109 53.6033 67.4279 54.104 66.5391 54.6018C66.6765 54.3763 66.8139 54.1509 66.9513 53.9283C67.4571 53.2577 68.4161 53.4247 69.1968 53.1055Z" fill="#C0E2F5"/>
<path d="M71.6764 51.6797V51.6885L69.5801 52.8861C69.6239 52.8539 69.6678 52.8188 69.7087 52.7778C70.2467 52.1834 70.8227 51.7031 71.6764 51.6797Z" fill="#C0E2F5"/>
<path d="M66.3457 46.7628C66.6936 46.1098 67.5357 45.3074 67.8222 44.9297C68.4537 45.3719 69.0502 45.8345 69.5209 46.3411C69.9156 46.1713 70.2782 46.0834 70.515 45.855C70.6056 45.9604 70.6992 46.0629 70.7898 46.1654C70.4858 47.5769 70.1437 49.0293 69.6057 50.4758C69.4332 50.3324 68.942 49.5476 68.3046 48.7511C67.6731 47.9517 66.9041 47.1464 66.3457 46.7599V46.7628Z" fill="#DDF0FA"/>
<path d="M70.0439 50.5842C70.3831 49.5183 70.3041 48.3118 70.0322 47.0702C70.2749 47.0585 70.7719 47.0615 70.8743 46.6544C71.3625 46.3938 72.4794 45.9663 72.38 45.5124C72.3303 45.2898 72.3566 45.8169 72.38 46.5578C72.3946 47.3016 72.4151 48.2474 72.4239 48.8184C72.7104 49.3894 72.7163 49.9956 72.6227 50.5959C72.494 50.6222 72.38 50.2328 72.2455 50.2416C72.2748 50.2884 72.3157 50.7862 72.3157 50.7862C72.3157 50.7862 72.1198 50.8946 71.8742 51.0322C71.6286 51.164 71.3333 51.3221 71.1374 51.4275C70.6404 50.9795 70.4094 51.6647 70.4562 51.7936L70.1199 51.978H70.1053C70.1609 51.7174 70.2135 51.4568 70.2661 51.202C70.272 51.0146 70.041 50.5842 70.041 50.5842H70.0439Z" fill="#C8E5F6"/>
<path d="M72.6494 44.702C72.6406 44.7166 72.7927 45.1617 72.9125 45.3199C72.7634 45.4399 72.5792 45.4838 72.3833 45.5102C72.4009 45.5541 72.3336 46.1164 72.281 46.7957C72.2342 47.478 72.2079 48.2891 72.4301 48.8192C72.7166 49.3902 72.7225 49.9963 72.6289 50.5966C72.6348 50.5966 72.6991 50.5644 72.7985 50.5117C72.8979 50.459 73.0353 50.3858 73.1844 50.3038C73.4856 50.1457 73.8394 49.9465 74.0703 49.8148C73.9885 49.7269 73.6786 49.6156 73.6084 49.6098C73.6669 49.5688 74.3101 49.601 74.5352 49.5542C74.8276 49.3814 75.5235 48.9158 75.5585 48.8309C75.6375 48.7723 75.2837 48.6317 75.0907 48.3711C75.6784 48.4707 75.1697 50.3975 75.6258 50.2277C75.6258 50.2277 76.6345 45.2935 76.3246 45.3286C76.5351 45.1588 72.7868 44.4502 72.6494 44.702Z" fill="#CCE6F7"/>
<path d="M57.5745 58.8915C56.8436 58.6162 56.2501 59.0467 55.4489 58.6572C54.0514 57.8754 53.2123 56.3673 51.9316 55.1901C54.1332 54.2853 56.2618 53.4068 58.3873 52.5342C58.2382 53.4244 57.2208 53.5269 57.4108 54.7743C57.4927 54.9149 57.7295 54.9647 57.8903 55.0613C57.6505 55.7553 56.9664 56.3556 57.3962 57.0525C57.6564 57.4771 58.0716 57.8578 58.4634 58.3761L58.3084 58.4757C58.0189 58.3732 57.8464 58.6806 57.5745 58.8885V58.8915Z" fill="#AFD9F2"/>
<path d="M61.0333 57.5945C60.6415 57.8463 60.2556 58.1011 59.8784 58.3558C59.7995 58.2241 59.7147 58.0981 59.6328 57.981C60.0977 57.7087 60.5509 57.4041 60.9982 57.0732C60.9982 57.2402 61.0128 57.4129 61.0333 57.5945Z" fill="#B8DEF4"/>
<path d="M57.8907 55.0647C57.7328 54.9651 57.493 54.9183 57.4112 54.7777C57.2182 53.5274 58.2386 53.4278 58.3877 52.5376C59.1625 52.2038 59.9344 51.8729 60.7063 51.5391C60.6332 51.7177 60.563 51.8992 60.4899 52.0808C60.9051 51.8817 61.4752 52.8744 61.8875 52.6811C61.1945 54.3121 59.7063 55.3283 59.7941 57.4395C59.3555 57.7792 58.9198 58.0955 58.4667 58.3825C58.0719 57.8641 57.6597 57.4835 57.3995 57.0589C56.9697 56.3619 57.6538 55.7616 57.8936 55.0676L57.8907 55.0647Z" fill="#B8DEF4"/>
<path d="M61.884 52.6753C61.4747 52.8686 60.9046 51.8759 60.4865 52.075C60.5595 51.8935 60.6297 51.7148 60.7028 51.5333C61.5829 51.1438 62.4483 50.7514 63.3021 50.3473C63.3664 50.3385 63.4307 50.3297 63.495 50.3151C64.2055 50.1336 64.7172 49.8144 65.3721 49.6475C65.2493 50.4264 65.1148 51.2053 64.954 51.9608C63.7991 51.504 62.6413 51.2082 61.5098 51.2287C61.9103 51.2229 62.1705 51.9989 62.4044 52.0721C63.3898 52.608 64.6938 54.0604 64.7259 54.9242C63.5067 55.6211 62.3197 56.3298 61.1852 57.0589C61.0098 56.9154 60.7379 56.6724 60.6765 56.7075C60.3841 56.9623 60.083 57.1995 59.7906 57.4338C59.7058 55.3225 61.1911 54.3064 61.884 52.6753Z" fill="#BBDFF5"/>
<path d="M64.9573 51.9635C65.1181 51.208 65.2497 50.429 65.3754 49.6501C65.5421 49.6091 65.7204 49.5769 65.9105 49.5593C65.8491 49.4305 65.7877 49.2987 65.6736 49.1962L66.004 49.0264C66.1736 49.0381 66.5215 49.4334 66.4514 48.798L66.9104 48.5579C67.156 48.6457 67.4016 48.8097 67.6413 49.0791L67.4221 48.6428C67.4308 48.2738 67.732 48.4847 67.8899 48.4056C67.8489 48.3265 67.7875 48.2065 67.7524 48.1069C68.6588 48.0952 69.4482 47.1611 69.6207 47.0586C69.7611 47.0732 69.8985 47.0791 70.033 47.0703C70.302 48.3119 70.3809 49.5183 70.0447 50.5842C70.0447 50.5842 70.2757 51.0147 70.2698 51.2021C70.2172 51.4569 70.1616 51.7175 70.109 51.9752C68.8459 51.738 68.0711 53.0733 68.0214 53.1055L67.6413 53.3105C66.8782 53.6062 65.4017 53.3602 65.0158 54.76L64.7293 54.9239C64.6971 54.0601 63.3902 52.6077 62.4078 52.0718C62.1768 51.9986 61.2441 51.41 61.5131 51.2285C62.6183 50.88 65.0304 51.9927 64.9573 51.9605V51.9635Z" fill="#C0E2F5"/>
<path d="M70.8252 42.397C70.9831 42.1159 71.141 41.829 71.3018 41.542C71.2316 41.8758 70.9948 42.1745 71.3222 42.4322C71.1673 42.5522 71.1322 42.7192 71.0942 42.889C70.9685 42.7279 70.8837 42.564 70.8252 42.4V42.397Z" fill="#EAF5FB"/>
<path d="M72.9593 43.492L72.8979 43.7643C72.5792 43.6911 72.3044 43.4393 72.5032 43.2958C72.1845 43.2255 72.4623 43.4744 72.3044 43.4393C71.8804 43.3456 71.8892 43.2402 71.9652 43.1289C72.6786 43.287 73.354 43.5799 73.3248 43.7175L73.2868 43.8961C73.1669 43.7614 73.123 43.5799 72.9593 43.4891V43.492Z" fill="#EAF5FB"/>
<path d="M71.644 46.4028C71.4071 46.6312 71.0446 46.7191 70.6499 46.8889C70.1792 46.3823 69.5798 45.9197 68.9512 45.4775C69.4716 44.804 69.9277 44.0983 70.3634 43.3574C70.4218 43.5214 70.5037 43.6854 70.6265 43.8494C70.6645 43.6825 70.7054 43.5156 70.8604 43.3955C70.9247 43.4453 71.0037 43.4951 71.1148 43.5419H71.1235C71.0446 43.6532 71.0358 43.7586 71.4569 43.8552C71.6147 43.8933 71.3399 43.6415 71.6586 43.7147C71.4569 43.8552 71.7346 44.11 72.0504 44.1861L72.1147 43.9167C72.2784 44.0075 72.3194 44.1861 72.4392 44.3238C72.2667 45.1232 72.0942 45.9167 71.9217 46.7132C71.8311 46.6107 71.7405 46.5083 71.6469 46.4028H71.644Z" fill="#E6F3FC"/>
</g>
</g>
</g>
<g style="mix-blend-mode:multiply">
<g opacity="0.9">
<g opacity="0.9">
<path d="M30.173 58.1983C28.4334 58.0665 26.6879 57.9318 24.9453 57.8C25.3693 57.598 25.7874 57.3988 26.1996 57.2026C27.5826 56.7048 28.7608 57.9025 30.173 58.2012V58.1983Z" fill="#C0E2F5"/>
<path d="M35.0844 58.5319L35.0727 58.5466L30.9326 58.2567C31.0291 58.2508 31.1227 58.242 31.2221 58.2215C32.5729 57.8672 33.8652 57.7208 35.0873 58.5319H35.0844Z" fill="#C0E2F5"/>
<path d="M54.7913 46.6699C55.0076 49.9379 54.303 52.9511 53.3323 55.9818C52.9581 56.2776 52.6014 56.8018 52.2359 56.913C52.2856 57.0448 49.7419 57.976 48.4057 58.1663C49.0168 56.7666 49.4232 55.2029 49.5986 53.4342C49.0782 53.2644 48.1075 53.1531 48.0286 52.5821C47.9584 50.3508 48.6221 48.8486 49.163 47.3669C49.2975 47.3903 50.274 47.5689 51.4582 47.5513C52.6335 47.5338 54.0106 47.2702 54.7913 46.6729V46.6699Z" fill="#D7ECF9"/>
<path d="M58.9336 44.5081C60.0797 43.8785 62.0679 43.5125 62.8485 43.2343C63.2871 44.5198 67.4009 39.1523 67.55 40.3763C68.2721 40.5168 73.6197 44.8858 74.1811 44.7833C74.6694 43.5564 71.6316 48.6047 71.655 48.8478C69.8042 50.6545 61.9714 51.6619 59.7581 53.2871C59.6616 52.9005 59.7639 51.2402 59.6733 49.4247C59.5944 47.6033 59.3254 45.6413 58.9365 44.511L58.9336 44.5081Z" fill="#DDF0FA"/>
<path d="M55.7883 46.7753C56.1392 46.3946 56.4374 46.0227 56.7093 45.6625C57.4169 45.2584 58.1449 44.8719 58.9343 44.5117C59.7033 46.7723 60.0453 49.0301 59.7851 51.0037C59.9284 50.9129 60.4547 51.5337 60.6038 51.4371C60.1594 52.3624 59.5541 52.5147 59.7559 53.2878C57.7122 54.8017 55.3907 56.0843 53.002 56.9686C53.3791 56.2658 53.9609 56.3683 54.4785 56.1663C54.0311 55.5982 53.6744 55.7124 53.3294 55.9818C54.303 52.951 55.0047 49.9378 54.7884 46.6699L55.148 46.4912C55.3995 46.7577 55.648 47.0242 55.7825 46.7724L55.7883 46.7753Z" fill="#D9EEF9"/>
<path d="M33.9007 55.2752C35.4473 54.019 36.5525 52.139 37.4267 50.016C37.7776 50.2415 38.4734 50.7364 39.026 50.2327C39.9733 50.3264 41.9674 50.795 42.286 50.0219C42.441 49.6383 41.9469 50.4524 41.2335 51.5856C40.5055 52.713 39.5786 54.1391 39.0202 55.0058C38.8448 56.142 38.2425 57.0527 37.5086 57.855C37.301 57.7701 37.5349 57.0703 37.3361 56.9502C37.3302 57.0498 36.8858 57.8316 36.8858 57.8316C36.8858 57.8316 36.4999 57.7994 36.0175 57.7613C35.5409 57.7145 34.9678 57.6589 34.5848 57.6208C34.3421 56.4583 33.3276 57.2547 33.2603 57.4919L32.6025 57.4304L32.582 57.4158C32.9212 57.082 33.2574 56.7452 33.5878 56.4202C33.7866 56.1449 33.8977 55.2752 33.8977 55.2752H33.9007Z" fill="#C8E5F6"/>
<path d="M48.5195 53.246C48.4903 50.6135 49.2797 48.8243 49.9317 47.0585C49.5399 47.0322 48.5663 46.9385 48.4581 46.9121C48.6453 47.4656 48.9289 48.0366 48.7359 48.3382C48.1745 48.8184 47.429 49.3367 46.9495 49.4099C46.3267 49.3455 45.625 48.6515 44.973 48.3206C44.4555 48.6193 43.938 48.9151 43.4263 49.2108C43.3942 49.2284 43.1106 50.1947 43.1106 50.6164C42.7363 50.6574 42.3913 50.5285 42.0551 50.3558C42.0317 50.4524 41.2627 51.3836 40.3768 52.5315C39.4997 53.694 38.4998 55.1171 38.2278 56.3148C38.0027 57.6589 37.2952 58.7511 36.4443 59.7145C36.456 59.7175 36.5934 59.738 36.8127 59.7555C37.032 59.7731 37.3332 59.7995 37.6636 59.8258C38.3243 59.8873 39.1137 59.9312 39.6313 59.9576C39.6079 59.7087 39.2541 59.1552 39.1459 59.0674C39.2862 59.0645 40.2569 59.8551 40.6633 60.022C41.327 60.0484 42.9673 60.0103 43.1222 59.899C43.3152 59.8815 42.9264 59.2314 42.9293 58.5432C43.7333 59.3924 44.6017 59.9459 45.5139 60.1596L46.2448 60.1216C46.3355 60.3763 46.3998 60.5462 46.2975 60.5608C46.1454 60.6574 45.9934 60.7365 45.8384 60.8009C46.2887 60.8185 48.2622 60.6984 48.7885 60.6516C48.2418 60.5491 47.698 60.3412 47.1688 60.0513C47.698 59.9898 48.2301 59.9195 48.7593 59.8405L48.8236 59.8112C49.5458 58.1479 50.0428 56.3002 50.2826 54.2152C49.6949 54.0278 48.5926 53.9166 48.5195 53.243V53.246Z" fill="#CCE6F7"/>
<path d="M8.07197 55.311C7.32641 54.1778 4.82073 56.7136 4.08979 55.3374C2.92028 52.7839 5.68325 49.1353 5.07218 46.1074C9.06898 46.9391 11.753 45.8205 15.6124 46.6228C14.5043 47.8058 12.9781 46.9449 11.9869 49.0006C11.9577 49.2934 12.2442 49.6009 12.367 49.9054C11.332 50.7048 9.77069 50.9215 9.67128 52.3886C9.60696 53.2817 9.80577 54.2598 9.83501 55.4223L9.51632 55.4164C9.21225 54.9772 8.66258 55.2612 8.07197 55.3081V55.311Z" fill="#AFD9F2"/>
<path d="M14.2208 56.8072C13.4167 56.7926 12.6244 56.7926 11.8379 56.7984C11.8613 56.5203 11.8701 56.2538 11.8701 55.9932C12.794 56.0459 13.7383 56.0429 14.6973 55.9902C14.5336 56.2421 14.3728 56.5144 14.2208 56.8043V56.8072Z" fill="#B8DEF4"/>
<path d="M12.3667 49.9076C12.2439 49.6031 11.9573 49.2956 11.9866 49.0028C12.9777 46.9471 14.5039 47.808 15.6121 46.625C17.033 46.8944 18.4481 47.1638 19.8662 47.4332C19.5825 47.6294 19.3019 47.8285 19.0183 48.0276C19.8018 48.1418 19.6001 50.1916 20.369 50.3088C17.7523 52.057 14.6501 52.098 12.6415 55.3396C11.6854 55.4128 10.7557 55.4508 9.83467 55.4303C9.80543 54.2678 9.60661 53.2868 9.67094 52.3966C9.77034 50.9266 11.3346 50.7129 12.3667 49.9135V49.9076Z" fill="#B8DEF4"/>
<path d="M20.3691 50.3062C19.6002 50.1891 19.8019 48.1422 19.0183 48.0251C19.302 47.826 19.5856 47.6298 19.8662 47.4307C21.4919 47.7235 23.0999 47.9929 24.6993 48.2389C24.7987 48.2916 24.901 48.3414 25.0004 48.3794C26.1758 48.8128 27.2166 48.845 28.3013 49.2462C27.3453 50.2828 26.3746 51.3165 25.3863 52.2828C24.2285 50.4556 22.907 48.8655 21.2989 47.7762C21.869 48.1627 21.448 49.5829 21.6995 49.9197C22.5386 51.6942 22.9041 55.1584 22.0795 56.482C19.6704 56.3121 17.2933 56.195 14.9689 56.1569C14.8695 55.7675 14.7321 55.1379 14.6093 55.1262C13.9456 55.217 13.2819 55.2697 12.6357 55.3312C14.6444 52.0925 17.7494 52.0486 20.3633 50.3004L20.3691 50.3062Z" fill="#BBDFF5"/>
<path d="M25.3889 52.2888C26.3771 51.3225 27.3478 50.2888 28.3039 49.2522C28.5787 49.3547 28.8594 49.4836 29.143 49.6446C29.1898 49.3899 29.2337 49.1351 29.1781 48.8686L29.8126 48.9448C30.0377 49.1351 30.1283 50.0663 30.6692 49.0443L31.5551 49.1409C31.8124 49.5158 31.9908 50.0048 32.0551 50.6461L32.1896 49.7764C32.5755 49.2317 32.7831 49.8467 33.0813 49.8847C33.1047 49.7295 33.1398 49.4894 33.1895 49.302C34.4701 50.1805 36.5197 49.5714 36.8618 49.589C37.046 49.75 37.2331 49.8935 37.4261 50.0165C36.5519 52.1395 35.4467 54.0195 33.9 55.2757C33.9 55.2757 33.7889 56.1483 33.5901 56.4206C33.2597 56.7486 32.9205 57.0824 32.5843 57.4163C31.0522 55.8116 28.6226 57.0356 28.5232 57.0356L27.7835 56.9653C26.4151 56.6491 24.5965 54.816 22.6464 56.529L22.0821 56.488C22.9066 55.1644 22.544 51.7003 21.702 49.9257C21.4506 49.589 20.7401 47.7852 21.3014 47.7822C23.2019 48.3591 25.4591 52.4118 25.3889 52.2888Z" fill="#C0E2F5"/>
<path d="M68.5768 40.4967C69.0826 40.2302 69.5914 39.9637 70.106 39.6914C69.6703 40.1189 69.0388 40.3298 69.2405 41.0384C68.9043 41.0648 68.6821 41.2785 68.4599 41.4923C68.4482 41.1263 68.492 40.7983 68.5768 40.4938V40.4967Z" fill="#EAF5FB"/>
<path d="M70.4657 44.2483L70.1061 44.5938C69.7348 44.1692 69.6003 43.5191 70.0242 43.5016C69.65 43.0828 69.7874 43.73 69.6003 43.5191C69.1032 42.9569 69.2202 42.8076 69.4394 42.7197C70.2756 43.6626 70.9306 44.7725 70.7493 44.9481L70.5125 45.1795C70.4803 44.8574 70.6031 44.547 70.4628 44.2483H70.4657Z" fill="#EAF5FB"/>
</g>
</g>
</g>
<g style="mix-blend-mode:multiply">
<g opacity="0.9">
<g opacity="0.9">
<path d="M35.8111 41.9625C34.2907 41.7166 32.7674 41.4706 31.2441 41.2246C31.5658 41.4882 31.8844 41.7458 32.2002 42.0035C33.2849 42.7239 34.5392 41.9274 35.8111 41.9625Z" fill="#C0E2F5"/>
<path d="M40.0923 42.695L40.0865 42.6804L36.4756 42.0713C36.5545 42.0976 36.6364 42.124 36.7153 42.1621C37.803 42.7506 38.8819 43.143 40.0923 42.695Z" fill="#C0E2F5"/>
<path d="M38.4224 45.2714C39.4955 46.6829 40.0685 48.5394 40.3901 50.5599C40.7381 50.4398 41.431 50.1529 41.8052 50.7034C42.6385 50.8205 44.4425 50.8264 44.5594 51.5614C44.6179 51.9245 44.3548 51.1163 43.9718 49.9889C43.5741 48.8615 43.0683 47.4325 42.7613 46.5657C42.8403 45.5467 42.504 44.6301 42.0391 43.7839C41.8462 43.8131 41.9046 44.4691 41.7088 44.5306C41.7234 44.4427 41.5012 43.6726 41.5012 43.6726C41.5012 43.6726 41.1649 43.6199 40.7439 43.5555C40.3258 43.4969 39.8229 43.4266 39.4867 43.3798C39.0452 44.3373 38.3347 43.4354 38.3259 43.2158L37.75 43.1309L37.7295 43.1396C37.9517 43.4998 38.1739 43.86 38.3932 44.2114C38.5072 44.4896 38.4283 45.2685 38.4283 45.2685L38.4224 45.2714Z" fill="#C8E5F6"/>
<path d="M16.269 39.8752C15.4006 40.701 19.0027 41.0407 18.0964 42.0802C16.5789 44.051 9.88638 43.6322 8.75488 46.1271C12.3511 46.2384 17.2192 49.767 20.6897 49.8724C19.9793 48.6162 18.7922 48.1388 18.3566 46.1535C18.3887 45.8929 18.6987 45.6849 18.8653 45.4478C18.1402 44.54 16.8421 44.0275 17.0526 42.7362C17.1783 41.9485 17.5438 41.1432 17.804 40.1417L16.6695 38.3408C16.3216 38.6571 16.766 40.0392 16.269 39.8752Z" fill="#AFD9F2"/>
<path d="M21.8472 39.8572C21.1571 39.702 20.473 39.538 19.8005 39.3682C19.7654 39.6141 19.7186 39.8455 19.666 40.071C20.4701 40.2174 21.277 40.4136 22.0898 40.6595C21.9992 40.4077 21.9173 40.1383 21.8442 39.8543L21.8472 39.8572Z" fill="#B8DEF4"/>
<path d="M18.8658 45.4506C18.6992 45.6878 18.3922 45.8957 18.3571 46.1563C18.7927 48.1417 19.9798 48.6219 20.6903 49.8752C21.9621 49.9367 23.5322 49.0904 24.8011 49.1519C24.5993 48.9235 24.3976 48.6922 24.1929 48.4608C24.8888 48.5253 25.1285 46.7068 25.8127 46.7654C23.921 44.7068 21.2662 44.0274 20.1961 40.8034C19.3921 40.5428 18.5998 40.3144 17.8074 40.1416C17.5472 41.1431 17.1817 41.9513 17.056 42.7361C16.8455 44.0304 18.1436 44.5399 18.8687 45.4476L18.8658 45.4506Z" fill="#B8DEF4"/>
<path d="M25.8089 46.7656C25.1248 46.707 24.885 48.5225 24.1892 48.461C24.3938 48.6924 24.5956 48.9237 24.7973 49.1521C26.2504 49.237 27.686 49.3366 29.107 49.4567C29.2035 49.4303 29.2999 49.4098 29.3935 49.3981C30.4899 49.2693 31.3904 49.4567 32.4021 49.3307C31.791 48.2326 31.1653 47.1375 30.5133 46.0921C29.1538 47.4332 27.6977 48.5372 26.0984 49.1492C26.6656 48.9325 26.5896 47.6148 26.8761 47.3747C27.955 46.0101 28.9637 43.0847 28.5222 41.767C26.42 41.4127 24.3588 41.0232 22.356 40.5723C22.1922 40.8885 21.9466 41.4068 21.8385 41.3893C21.2859 41.1726 20.7303 40.9881 20.1865 40.8036C21.2566 44.0276 23.9114 44.707 25.8031 46.7656H25.8089Z" fill="#BBDFF5"/>
<path d="M30.5162 46.0917C31.1683 47.1341 31.7939 48.2322 32.405 49.3303C32.6623 49.2981 32.9284 49.2454 33.2032 49.1634C33.1915 49.3948 33.1769 49.6232 33.0746 49.8428L33.633 49.9072C33.864 49.7901 34.13 49.0024 34.3873 49.998L35.1651 50.0976C35.4604 49.8252 35.7118 49.4416 35.896 48.897L35.8346 49.6788C36.0568 50.2293 36.358 49.7403 36.6211 49.7725C36.6094 49.9131 36.5919 50.1268 36.5977 50.2996C37.8754 49.8047 39.5069 50.7564 39.808 50.8121C39.9981 50.7125 40.1881 50.6246 40.3782 50.5602C40.0565 48.5397 39.4864 46.6832 38.4105 45.2718C38.4105 45.2718 38.4894 44.4928 38.3754 44.2146C38.159 43.8632 37.9339 43.5031 37.7117 43.1429C36.0744 44.2176 34.2353 42.6509 34.1505 42.6304L33.5014 42.5367C32.2647 42.528 30.335 43.7373 29.0076 41.8486L28.5164 41.7666C28.9579 43.0843 27.9492 46.0097 26.8703 47.3743C26.5867 47.6144 25.6131 49.0317 26.0926 49.1488C27.8381 49.0434 30.5923 46.0009 30.5075 46.0917H30.5162Z" fill="#C0E2F5"/>
</g>
</g>
</g>
<path d="M56.2502 67.7994C54.531 67.7994 53.6217 65.9633 53.344 64.2181C52.9902 62.0131 53.0165 59.076 55.1392 57.5943C55.6216 57.2576 56.1449 57.0526 56.6537 56.8535C56.7677 56.8095 56.8817 56.7656 56.9928 56.7188C58.2735 56.1975 59.4956 55.4508 60.6768 54.7305L76.7517 44.9295C77.047 44.7509 77.43 44.8446 77.6084 45.1374C77.7867 45.4332 77.6581 45.439 77.3657 45.6206L62.434 54.2502C61.2118 54.9969 58.7091 56.5753 57.2969 57.0321C52.3089 58.6485 53.3352 66.06 55.7561 66.8623C56.1508 66.9941 57.1741 66.8184 57.563 66.5431C63.8169 62.1624 70.4568 57.9223 77.2809 54.5021C77.5879 54.3469 77.9417 54.1624 78.0937 54.4728C78.2487 54.7802 78.123 55.1551 77.816 55.3103C71.0474 58.7041 64.4689 62.6251 58.2647 66.9707C57.7618 67.3221 57.1361 67.7613 56.3584 67.7964C56.3204 67.7964 56.2824 67.7964 56.2473 67.7964L56.2502 67.7994Z" fill="#010101"/>
<path d="M39.8101 58.6015C39.778 58.6015 39.7458 58.6015 39.7136 58.5927C28.8664 56.9031 17.99 55.9338 7.37665 55.7113C7.16614 56.0305 6.8416 56.2677 6.44689 56.3848C5.81828 56.5722 5.10196 56.4287 4.62538 56.0129C3.82426 55.3189 3.6693 54.2208 3.62545 53.4536C3.51434 51.6117 3.7921 49.7229 4.43241 47.9923C5.06395 46.2793 6.53753 44.6658 8.27133 45.1665C8.54324 45.2456 8.77714 45.3686 8.98473 45.4769C9.1163 45.5443 9.2391 45.6087 9.35605 45.6556C9.71275 45.7961 10.1367 45.8196 10.587 45.8459C20.1623 46.3935 29.8196 47.4213 39.2985 48.9001C51.0667 42.3876 62.4226 36.8678 74.0154 32.0303C74.3341 31.8985 74.6966 32.0479 74.8311 32.367C74.9627 32.6862 73.9014 32.9146 73.5827 33.0493C61.9753 37.8956 51.3766 42.9059 39.5821 49.4389C39.4593 49.5063 39.202 49.6527 39.0646 49.6322C29.5594 48.1417 20.1156 47.1958 10.508 46.6483C10.0051 46.619 9.6075 46.6043 9.06368 46.3906C8.88532 46.3203 8.90579 46.2119 8.75375 46.1329C8.58418 46.045 8.0462 45.9015 7.89709 45.8576C6.86499 45.5619 5.60192 47.1168 5.17505 48.0392C4.22482 50.089 3.88566 52.3701 4.32131 54.0539C4.53767 54.8884 4.82127 55.4419 5.16043 55.7347C5.31539 55.8694 6.23638 55.8167 6.45859 55.7493C6.61647 55.7025 7.11644 55.4917 7.15445 55.354C7.23047 55.0817 7.6895 55.3072 7.97603 55.3218C18.7092 55.5268 28.7378 55.6322 39.7136 57.3335L72.8927 41.0611C73.2026 40.9088 73.5768 41.0377 73.7259 41.3481C73.878 41.6585 73.7493 42.0304 73.4394 42.1826L40.085 58.54C40.0002 58.581 39.9066 58.6044 39.8101 58.6044V58.6015Z" fill="#010101"/>
<path d="M39.8309 43.9482C31.8782 42.9292 23.4372 42.3377 15.122 41.6495C14.7799 41.6202 14.1747 41.6378 14.201 41.2952C14.2273 40.9526 14.5285 40.6949 14.8735 40.7242C23.1887 41.4094 31.6384 42.0038 39.9507 42.8706C42.3862 43.1254 42.433 35.7959 39.9303 35.4709C31.8665 34.4255 23.7413 33.4064 15.6103 33.5177H15.6015C15.2624 33.5177 14.9817 33.2424 14.9788 32.9028C14.9729 32.5572 15.1396 32.8705 15.4816 32.8676C23.6916 32.7593 32.2554 33.5382 40.3425 34.9408C43.4622 35.4826 42.7576 44.323 39.8279 43.9482H39.8309Z" fill="#010101"/>
<path d="M73.3687 41.8783C73.322 41.8783 73.2752 41.8578 73.2459 41.8168C72.5793 40.9442 72.4945 39.7817 72.4858 38.9823C72.4682 36.7685 73.012 34.5664 74.0617 32.6162C74.1026 32.5401 74.1962 32.5108 74.2722 32.5518C74.3482 32.5928 74.3774 32.6865 74.3365 32.7626C73.3132 34.666 72.7811 36.8153 72.7957 38.9793C72.8015 39.7348 72.8805 40.8271 73.4886 41.6265C73.5412 41.6939 73.5295 41.7934 73.4594 41.8461C73.4301 41.8666 73.398 41.8783 73.3658 41.8783H73.3687Z" fill="#010101"/>
<path d="M77.4215 54.8975C77.401 54.8975 77.3805 54.8946 77.363 54.8858C76.4654 54.5198 75.7695 53.5798 75.5444 52.4348C75.3427 51.407 75.4976 50.3587 75.676 49.3719C75.9537 47.8111 76.2724 46.5373 76.9186 45.3865C76.9595 45.3103 77.056 45.284 77.132 45.3279C77.208 45.3689 77.2344 45.4655 77.1905 45.5417C76.5648 46.6544 76.2549 47.8989 75.983 49.4275C75.8134 50.385 75.6614 51.4041 75.8514 52.3763C76.0561 53.4217 76.6788 54.2709 77.4799 54.5988C77.5589 54.631 77.5969 54.7218 77.5647 54.8009C77.5413 54.8624 77.4829 54.8975 77.4215 54.8975Z" fill="#010101"/>
<path d="M39.7659 57.8695C39.7162 57.8695 39.6665 57.8461 39.6373 57.7993C38.0029 55.3659 37.8947 52.0276 39.3683 49.4947C39.4122 49.4185 39.5057 49.3951 39.5817 49.439C39.6548 49.4829 39.6811 49.5766 39.6373 49.6528C38.2222 52.0862 38.3245 55.2897 39.8946 57.6265C39.9414 57.6968 39.9238 57.7963 39.8536 57.8432C39.8273 57.8607 39.7981 57.8695 39.7659 57.8695Z" fill="#010101"/>
<path d="M15.0193 41.1927C14.9725 41.1927 14.9228 41.1693 14.8936 41.1283C14.8439 41.058 14.8585 40.9614 14.9287 40.9116C16.0543 40.0946 16.3029 38.487 16.3906 37.3508C16.5514 35.304 16.1859 33.913 15.2737 33.1019C15.2094 33.0433 15.2035 32.9467 15.262 32.8823C15.3205 32.8179 15.4169 32.812 15.4813 32.8706C16.4695 33.752 16.8701 35.2249 16.7005 37.3772C16.6069 38.5749 16.3409 40.2703 15.11 41.1664C15.0836 41.1869 15.0515 41.1957 15.0193 41.1957V41.1927Z" fill="#010101"/>
<path d="M56.3173 67.4599C56.3173 67.4599 56.3085 67.4599 56.3027 67.4599C48.4143 66.7746 40.8184 66.2153 33.4738 65.6736C26.6263 65.1699 20.1619 64.6926 13.8962 64.148C13.8816 64.148 13.8699 64.145 13.8553 64.1392C12.8934 63.7907 12.2121 62.8039 11.832 61.2021C11.5397 59.9723 11.4578 58.9679 11.5747 58.0425C11.7209 56.8829 11.8759 56.2182 12.6098 55.533C12.6741 55.4744 12.7004 55.5974 12.7589 55.6589C12.8173 55.7204 13.1916 55.4744 13.1302 55.533C12.4489 56.1713 12.0221 56.9942 11.8847 58.0835C11.7706 58.9708 11.8525 59.94 12.1332 61.1319C12.484 62.6136 13.0922 63.5243 13.9401 63.8405C20.194 64.3822 26.6556 64.8595 33.4914 65.3632C40.8359 65.9049 48.4319 66.4642 56.3232 67.1495C56.408 67.1582 56.4723 67.2315 56.4635 67.3193C56.4577 67.4013 56.3875 67.4628 56.3085 67.4628L56.3173 67.4599Z" fill="#010101"/>
<path d="M77.2113 45.3923H77.2025C74.3109 45.2166 71.4105 44.8096 68.5832 44.1858C68.4984 44.1683 68.4458 44.0834 68.4633 43.9984C68.4809 43.9135 68.5657 43.8608 68.6475 43.8784C71.4602 44.4992 74.343 44.9033 77.2171 45.079C77.3019 45.0848 77.3692 45.158 77.3633 45.2429C77.3575 45.3249 77.2902 45.3894 77.2083 45.3894L77.2113 45.3923Z" fill="#010101"/>
<path d="M7.30615 45.679C7.22721 45.679 7.15996 45.6175 7.15119 45.5355C7.14242 45.4506 7.20674 45.3745 7.29153 45.3657C8.67448 45.2398 10.0136 44.7742 11.3088 44.3203L18.9369 41.6585C19.0159 41.6292 19.1065 41.6731 19.1358 41.7551C19.165 41.8371 19.1211 41.925 19.0393 41.9543L11.4111 44.6161C10.0984 45.0729 8.74173 45.5473 7.31785 45.6761C7.312 45.6761 7.30908 45.6761 7.30323 45.6761L7.30615 45.679Z" fill="#010101"/>
<path d="M42.3922 43.6205C42.3337 43.6205 41.0648 43.7581 41.0384 43.7025C41.0004 43.6263 42.246 43.3628 42.3249 43.3247C52.219 38.5546 62.4493 33.6233 72.3609 28.7126C73.1766 27.4388 73.4602 25.8634 73.1445 24.3846C72.8141 22.8326 71.8229 21.5237 70.3522 20.695C65.0339 19.7843 54.444 18.859 46.2779 18.2938L15.3443 32.8034C15.2683 32.8386 15.1747 32.8063 15.1367 32.7273C15.1016 32.6482 15.1367 32.5574 15.2127 32.5194L46.1843 17.9922C46.2077 17.9805 46.234 17.9775 46.2603 17.9775C54.4527 18.5427 65.1041 19.4739 70.4312 20.3904C70.4487 20.3934 70.4663 20.3992 70.4809 20.408C72.0422 21.2806 73.0977 22.6716 73.4485 24.3202C73.7848 25.8927 73.4748 27.5706 72.5977 28.9176C72.5831 28.941 72.5626 28.9586 72.5363 28.9732C62.6101 33.8898 52.3652 38.8298 42.4594 43.6058C42.436 43.6176 42.4155 43.6205 42.3922 43.6205Z" fill="#010101"/>
<path d="M74.3136 32.572H74.3078C71.5974 32.449 68.852 32.2938 66.1475 32.1181C66.0627 32.1123 65.9955 32.039 66.0013 31.9512C66.0072 31.8663 66.0803 31.8019 66.168 31.8048C68.8696 31.9834 71.6121 32.1357 74.3224 32.2587C74.4072 32.2616 74.4744 32.3348 74.4715 32.4226C74.4686 32.5076 74.3984 32.572 74.3166 32.572H74.3136Z" fill="#010101"/>
<path d="M6.8539 55.0851C6.4855 55.0851 6.11418 54.8362 5.9066 54.4497C5.73409 54.1247 5.68731 53.7615 5.6493 53.3897C5.57913 52.6634 5.51481 51.7088 5.65223 50.7718C5.78672 49.8582 6.11126 48.9709 6.40656 48.2095C6.62585 47.6414 6.85682 47.0968 7.26323 46.678C7.66379 46.2681 8.34795 45.9548 8.97072 46.1861C9.05258 46.2154 9.09351 46.3061 9.06428 46.3852C9.03504 46.4672 8.9444 46.5082 8.86546 46.4789C8.37134 46.2974 7.81875 46.558 7.48836 46.8947C7.12289 47.2696 6.9153 47.7615 6.69894 48.3208C6.41241 49.0675 6.09372 49.9372 5.96215 50.8157C5.82765 51.7176 5.89198 52.6488 5.96215 53.3574C5.99431 53.6971 6.03817 54.0251 6.18435 54.3004C6.33639 54.5873 6.61415 54.7777 6.85975 54.7718C6.94454 54.7718 7.01471 54.8421 7.01471 54.927C7.01471 55.0119 6.94746 55.0822 6.85975 55.0851H6.8539Z" fill="#010101"/>
<path d="M56.7654 66.8622C56.7361 66.8622 56.7069 66.8534 56.6806 66.8359C55.6982 66.1975 54.9848 65.032 54.7246 63.6353C54.4907 62.3761 54.6135 61.0847 54.7596 59.8724C54.824 59.3336 54.9351 58.7304 55.397 58.3936C55.4672 58.3439 55.5637 58.3585 55.6134 58.4288C55.6631 58.4991 55.6485 58.5957 55.5783 58.6455C55.2158 58.909 55.1251 59.4361 55.0666 59.9105C54.9234 61.0994 54.8006 62.3615 55.0286 63.5796C55.2742 64.8915 55.9379 65.9837 56.8472 66.5752C56.9203 66.6221 56.9408 66.7187 56.894 66.7919C56.8648 66.8388 56.8151 66.8622 56.7624 66.8622H56.7654Z" fill="#010101"/>
<path d="M41.1109 43.404C41.0729 43.404 41.0349 43.3894 41.0056 43.363C40.9413 43.3044 40.9384 43.2049 40.9968 43.1434C41.6401 42.4435 42.0816 41.5445 42.2424 40.6075C42.5377 38.8681 41.9032 37.1053 41.3448 35.5504C41.3155 35.4684 41.3565 35.3805 41.4383 35.3512C41.5202 35.3219 41.6079 35.3629 41.6372 35.4449C42.181 36.9589 42.8593 38.8417 42.5494 40.6602C42.3798 41.6558 41.9091 42.6134 41.2249 43.3542C41.1927 43.3864 41.1518 43.404 41.1109 43.404Z" fill="#010101"/>
<path d="M43.5172 34.7249C43.4617 34.7249 43.4061 34.6927 43.3769 34.64C43.3389 34.5639 43.3681 34.4702 43.4471 34.4292L69.7172 21.2402C69.7932 21.2021 69.8868 21.2314 69.9277 21.3105C69.9657 21.3866 69.9365 21.4803 69.8575 21.5213L43.5903 34.7103C43.5669 34.722 43.5435 34.7278 43.5202 34.7278L43.5172 34.7249Z" fill="#010101"/>
<path d="M50.6863 38.9347C50.6863 38.9347 50.6659 38.9347 50.6542 38.9318C50.5694 38.9142 50.5168 38.8322 50.5343 38.7473C50.9846 36.595 50.391 34.2055 48.9847 32.513C48.9292 32.4456 48.9379 32.349 49.0052 32.2934C49.0724 32.2377 49.1689 32.2465 49.2245 32.3139C50.6893 34.0767 51.3091 36.5657 50.8384 38.8117C50.8238 38.8849 50.7594 38.9347 50.6863 38.9347Z" fill="#010101"/>
<path d="M51.8593 38.4255C51.8593 38.4255 51.8447 38.4255 51.8389 38.4255C51.7541 38.4138 51.6927 38.3347 51.7044 38.2498C51.9967 36.0419 51.3418 33.6846 49.9559 31.9423C49.9033 31.8749 49.9121 31.7754 49.9793 31.7226C50.0466 31.6699 50.146 31.6817 50.1986 31.7461C51.6371 33.5528 52.3154 35.9979 52.0114 38.2878C51.9997 38.3669 51.9353 38.4226 51.8564 38.4226L51.8593 38.4255Z" fill="#010101"/>
<path d="M65.1131 32.0011C65.1131 32.0011 65.0926 32.0011 65.0809 31.9982C64.9962 31.9806 64.9435 31.8986 64.9611 31.8137C65.4113 29.6585 64.8178 27.2719 63.4115 25.5794C63.3559 25.512 63.3647 25.4154 63.4319 25.3598C63.4992 25.3041 63.5957 25.3129 63.6512 25.3803C65.116 27.1431 65.7359 29.6321 65.2651 31.8781C65.2505 31.9513 65.1862 32.0011 65.1131 32.0011Z" fill="#010101"/>
<path d="M66.2851 31.4918C66.2851 31.4918 66.2705 31.4918 66.2646 31.4918C66.1798 31.4801 66.1184 31.4011 66.1301 31.3161C66.4225 29.1082 65.7676 26.7509 64.3817 25.0086C64.3291 24.9413 64.3379 24.8417 64.4051 24.789C64.4724 24.7363 64.5718 24.7451 64.6244 24.8124C66.0629 26.6192 66.7412 29.0643 66.4371 31.3542C66.4254 31.4333 66.3611 31.4889 66.2822 31.4889L66.2851 31.4918Z" fill="#010101"/>
<path d="M23.3202 64.4228C23.25 64.4228 23.1857 64.3759 23.1682 64.3056C22.5571 61.884 22.6945 59.2573 23.5512 56.9117C23.5804 56.8297 23.6711 56.7887 23.75 56.818C23.8319 56.8473 23.8728 56.9381 23.8436 57.0172C23.0074 59.3041 22.8729 61.8635 23.4693 64.2266C23.4898 64.3115 23.4401 64.3964 23.3553 64.4169C23.3436 64.4198 23.329 64.4228 23.3173 64.4228H23.3202Z" fill="#010101"/>
<path d="M24.7706 64.561C24.6975 64.561 24.6303 64.5083 24.6186 64.4322C24.2034 62.0193 24.3554 59.498 25.0542 57.1466C25.0776 57.0646 25.1653 57.0178 25.2472 57.0412C25.3291 57.0646 25.3758 57.1525 25.3524 57.2344C24.6683 59.5419 24.5192 62.0105 24.9256 64.3795C24.9402 64.4644 24.8817 64.5464 24.7969 64.561C24.7882 64.561 24.7794 64.561 24.7706 64.561Z" fill="#010101"/>
<path d="M56.3761 56.7716C56.3761 56.7716 56.3644 56.7716 56.3557 56.7716C52.9524 56.3529 49.4936 56.0161 46.0757 55.776C45.9909 55.7702 45.9236 55.697 45.9324 55.6091C45.9383 55.5242 46.0201 55.4568 46.0991 55.4656C49.5228 55.7057 52.9875 56.0425 56.3937 56.4612C56.4785 56.4729 56.5399 56.5491 56.5282 56.634C56.5194 56.7131 56.4522 56.7716 56.3732 56.7716H56.3761Z" fill="#010101"/>
<path d="M45.7128 66.2503C45.6426 66.2503 45.5812 66.2034 45.5608 66.1331C44.7626 63.0145 44.9556 59.6411 46.1017 56.6367C46.1338 56.5547 46.2245 56.5167 46.3034 56.5459C46.3824 56.5781 46.4233 56.666 46.3941 56.748C45.2684 59.6938 45.0813 62.9999 45.8649 66.057C45.8853 66.1419 45.8356 66.2268 45.7537 66.2473C45.7421 66.2503 45.7274 66.2532 45.7157 66.2532L45.7128 66.2503Z" fill="#010101"/>
<path d="M47.5874 66.1886C47.5143 66.1886 47.45 66.1388 47.4354 66.0656C46.7571 62.947 46.9325 59.6966 47.9471 56.6687C47.9734 56.5867 48.064 56.5428 48.143 56.5692C48.2248 56.5955 48.2687 56.6863 48.2424 56.7654C47.2453 59.7405 47.0729 62.9323 47.7395 65.9982C47.757 66.0831 47.7044 66.1651 47.6196 66.1827C47.6079 66.1827 47.5962 66.1856 47.5874 66.1856V66.1886Z" fill="#010101"/>
<path d="M56.768 59.685C56.7154 59.685 56.6628 59.6557 56.6335 59.6059C56.5897 59.5298 56.616 59.4361 56.692 59.3922L68.0275 52.9119C68.1006 52.868 68.1971 52.8943 68.2409 52.9705C68.2848 53.0466 68.2585 53.1403 68.1825 53.1842L56.847 59.6645C56.8236 59.6791 56.7973 59.685 56.771 59.685H56.768Z" fill="#010101"/>
<path d="M70.0277 52.0831C69.9751 52.0831 69.9254 52.0568 69.8961 52.0099C69.8523 51.9367 69.8757 51.8401 69.9488 51.7962C71.5948 50.7859 73.2877 49.8079 74.9835 48.8825C75.0595 48.8415 75.1531 48.8679 75.194 48.944C75.2349 49.0202 75.2057 49.1139 75.1326 49.1549C73.4427 50.0743 71.7527 51.0524 70.1125 52.0597C70.0862 52.0743 70.0599 52.0831 70.0306 52.0831H70.0277Z" fill="#010101"/>
<path d="M55.5806 61.9252C55.528 61.9252 55.4783 61.8989 55.449 61.852C55.4022 61.7788 55.4256 61.6822 55.4987 61.6382C57.9138 60.1243 60.4048 58.6602 62.9017 57.281C62.9748 57.24 63.0713 57.2663 63.1122 57.3425C63.1532 57.4186 63.1269 57.5123 63.0508 57.5533C60.5598 58.9267 58.0746 60.3908 55.6624 61.9018C55.6361 61.9194 55.6069 61.9252 55.5806 61.9252Z" fill="#010101"/>
<path d="M64.9106 56.5807C64.8551 56.5807 64.8024 56.5514 64.7761 56.5016C64.7323 56.4255 64.7586 56.3318 64.8346 56.2878C67.1882 54.9496 69.5828 53.6173 71.954 52.3259C72.03 52.2849 72.1236 52.3112 72.1645 52.3874C72.2054 52.4635 72.1762 52.5572 72.1031 52.5982C69.7319 53.8896 67.3373 55.222 64.9866 56.5572C64.9632 56.5719 64.9369 56.5777 64.9106 56.5777V56.5807Z" fill="#010101"/>
<path d="M73.3432 51.8897C73.2876 51.8897 73.235 51.8604 73.2057 51.8107C73.1648 51.7345 73.1911 51.6408 73.2671 51.5998L75.0126 50.6335C75.0887 50.5925 75.1822 50.6189 75.2231 50.695C75.2641 50.7711 75.2378 50.8648 75.1617 50.9058L73.4162 51.8722C73.3929 51.8868 73.3665 51.8927 73.3402 51.8927L73.3432 51.8897Z" fill="#010101"/>
<path d="M56.09 63.5475C56.0374 63.5475 55.9877 63.5211 55.9585 63.4743C55.9146 63.4011 55.9351 63.3044 56.0082 63.2605C60.5897 60.4318 65.2648 57.6265 69.9078 54.9237C69.9809 54.8798 70.0774 54.9061 70.1212 54.9793C70.1651 55.0526 70.1388 55.1492 70.0657 55.1931C65.4257 57.8959 60.7535 60.7012 56.1748 63.527C56.1485 63.5416 56.1222 63.5504 56.093 63.5504L56.09 63.5475Z" fill="#010101"/>
<path d="M71.6967 54.3645C71.644 54.3645 71.5943 54.3381 71.5651 54.2913C71.5183 54.2181 71.5388 54.1214 71.6119 54.0746C72.5767 53.4538 73.603 52.9091 74.6585 52.4582C74.7374 52.426 74.828 52.4611 74.8631 52.5402C74.8982 52.6192 74.8602 52.71 74.7813 52.7452C73.7404 53.1903 72.7317 53.7261 71.7815 54.3381C71.7551 54.3557 71.7259 54.3616 71.6967 54.3616V54.3645Z" fill="#010101"/>
<path d="M56.5484 65.0326C56.4987 65.0326 56.449 65.0092 56.4168 64.9623C56.37 64.8891 56.3905 64.7925 56.4607 64.7456C62.4983 60.772 68.799 57.0384 75.1845 53.6475C75.2606 53.6065 75.3541 53.6358 75.395 53.7119C75.436 53.788 75.4067 53.8817 75.3307 53.9227C68.954 57.3107 62.6649 61.0384 56.6332 65.0063C56.6069 65.0238 56.5776 65.0326 56.5484 65.0326Z" fill="#010101"/>
<path d="M31.9572 35.8636C31.9572 35.8636 31.9426 35.8636 31.9338 35.8636C27.2412 35.152 22.4579 34.7713 17.7126 34.7303C17.6278 34.7303 17.5576 34.66 17.5576 34.5722C17.5576 34.4873 17.6278 34.417 17.7126 34.417C22.4725 34.458 27.2704 34.8387 31.9777 35.5532C32.0625 35.5649 32.121 35.6469 32.1093 35.7318C32.0976 35.8079 32.0303 35.8636 31.9543 35.8636H31.9572Z" fill="#010101"/>
<path d="M40.1875 36.8212C40.1875 36.8212 40.1699 36.8212 40.1611 36.8212C38.401 36.5196 36.6058 36.3205 34.8223 36.2297C34.7375 36.2238 34.6703 36.1506 34.6761 36.0657C34.682 35.9808 34.7463 35.9134 34.8399 35.9193C36.6351 36.013 38.4449 36.2121 40.2167 36.5167C40.3015 36.5313 40.357 36.6104 40.3453 36.6953C40.3336 36.7714 40.2664 36.8241 40.1933 36.8241L40.1875 36.8212Z" fill="#010101"/>
<path d="M30.0299 37.2193C30.0299 37.2193 30.0211 37.2193 30.0153 37.2193C26.15 36.8796 22.2234 36.6629 18.3465 36.5692C18.2617 36.5692 18.1915 36.496 18.1944 36.4081C18.1944 36.3232 18.2734 36.2617 18.3552 36.2559C22.2409 36.3466 26.1734 36.5663 30.0445 36.9059C30.1293 36.9147 30.1936 36.9879 30.1848 37.0758C30.179 37.1578 30.1088 37.2193 30.0299 37.2193Z" fill="#010101"/>
<path d="M40.9392 38.4813C40.9392 38.4813 40.9187 38.4813 40.91 38.4813C39.2726 38.1709 37.6002 37.9455 35.9395 37.8078C35.8547 37.802 35.7904 37.7258 35.7963 37.638C35.8021 37.5531 35.8869 37.4887 35.9629 37.4945C37.6353 37.6351 39.3194 37.8635 40.9655 38.1739C41.0503 38.1885 41.1059 38.2705 41.0883 38.3554C41.0737 38.4316 41.0094 38.4813 40.9363 38.4813H40.9392Z" fill="#010101"/>
<path d="M25.5044 38.3672H25.4927C22.9022 38.1944 20.2708 38.1358 17.6745 38.1915C17.5985 38.1915 17.5166 38.1241 17.5166 38.0392C17.5166 37.9543 17.5838 37.8811 17.6686 37.8811C20.2766 37.8254 22.9168 37.8811 25.5161 38.0568C25.6008 38.0626 25.6681 38.1358 25.6622 38.2237C25.6564 38.3057 25.5892 38.3701 25.5073 38.3701L25.5044 38.3672Z" fill="#010101"/>
<path d="M36.3276 39.5701C36.3276 39.5701 36.313 39.5701 36.3071 39.5701C33.5822 39.1953 30.8104 38.8878 28.0738 38.6506C27.989 38.6418 27.9246 38.5686 27.9334 38.4808C27.9422 38.3958 28.0182 38.3314 28.103 38.3373C30.8455 38.5715 33.6231 38.8819 36.3539 39.2568C36.4387 39.2685 36.5001 39.3475 36.4855 39.4325C36.4738 39.5115 36.4095 39.5672 36.3305 39.5672L36.3276 39.5701Z" fill="#010101"/>
<path d="M41.6991 40.2149C41.6991 40.2149 41.6815 40.2149 41.6727 40.2149C40.5763 40.0275 39.4536 39.9103 38.3396 39.8664C38.2548 39.8635 38.1876 39.7903 38.1905 39.7053C38.1934 39.6204 38.2695 39.5501 38.3513 39.556C39.477 39.5999 40.6143 39.72 41.7254 39.9074C41.8102 39.922 41.8686 40.0011 41.854 40.086C41.8423 40.1622 41.7751 40.2149 41.702 40.2149H41.6991Z" fill="#010101"/>
<path d="M40.8211 41.8252C40.8211 41.8252 40.8124 41.8252 40.8094 41.8252C37.6898 41.5704 34.5321 41.2542 31.427 40.8764C30.7195 40.7915 30.0119 40.7036 29.3044 40.6129C25.3544 40.118 21.2698 39.6055 17.2321 39.6787C17.1502 39.6729 17.0742 39.6114 17.0742 39.5265C17.0742 39.4416 17.1415 39.3683 17.2263 39.3683C21.2815 39.2951 25.3807 39.8076 29.3424 40.3054C30.0499 40.3932 30.7575 40.4811 31.4651 40.5689C34.5672 40.9438 37.7219 41.2629 40.8358 41.5148C40.9206 41.5206 40.9849 41.5968 40.979 41.6817C40.9732 41.7637 40.9059 41.8252 40.8241 41.8252H40.8211Z" fill="#010101"/>
<path d="M39.7397 51.196C39.6783 51.196 39.6198 51.1608 39.5964 51.0993C39.5642 51.0203 39.6022 50.9295 39.6812 50.8944C45.7831 48.3848 51.8207 45.5298 57.6332 42.4082C57.7092 42.3672 57.8028 42.3965 57.8437 42.4726C57.8846 42.5488 57.8554 42.6425 57.7794 42.6835C51.9581 45.8109 45.9088 48.6718 39.8011 51.1843C39.7806 51.193 39.7601 51.196 39.7426 51.196H39.7397Z" fill="#010101"/>
<path d="M61.1833 40.9967C61.1277 40.9967 61.0722 40.9674 61.0459 40.9147C61.0049 40.8386 61.0342 40.7449 61.1102 40.7039C64.4404 38.9469 67.8904 37.3217 71.361 35.8722C71.4399 35.84 71.5305 35.8751 71.5656 35.9571C71.5978 36.0362 71.5598 36.127 71.4808 36.1621C68.0162 37.6087 64.5749 39.2309 61.2535 40.982C61.2301 40.9938 61.2067 40.9996 61.1804 40.9996L61.1833 40.9967Z" fill="#010101"/>
<path d="M39.9215 53.3421C39.866 53.3421 39.8104 53.3099 39.7812 53.2572C39.7432 53.1811 39.7724 53.0873 39.8514 53.0464C43.3453 51.2835 46.9269 49.5881 50.4968 48.0039C50.5728 47.9687 50.6664 48.0039 50.7015 48.0829C50.7366 48.162 50.7015 48.2528 50.6226 48.2879C47.0555 49.8692 43.4768 51.5646 39.9888 53.3245C39.9654 53.3363 39.942 53.3421 39.9186 53.3421H39.9215Z" fill="#010101"/>
<path d="M54.4898 46.3058C54.4313 46.3058 54.3757 46.2736 54.3494 46.218C54.3114 46.1389 54.3465 46.0481 54.4225 46.0101C57.6007 44.4815 60.7817 42.8475 63.8751 41.1491C63.9511 41.1081 64.0447 41.1345 64.0856 41.2106C64.1265 41.2868 64.1002 41.3805 64.0242 41.4215C60.925 43.1228 57.741 44.7597 54.557 46.2883C54.5365 46.3 54.5132 46.3029 54.4898 46.3029V46.3058Z" fill="#010101"/>
<path d="M67.066 39.9041C67.0046 39.9041 66.949 39.8689 66.9227 39.8104C66.8876 39.7313 66.9227 39.6405 67.0046 39.6054L71.5218 37.6552C71.6008 37.62 71.6914 37.6552 71.7265 37.7372C71.7616 37.8162 71.7265 37.907 71.6446 37.9421L67.1274 39.8924C67.1069 39.9012 67.0865 39.9041 67.066 39.9041Z" fill="#010101"/>
<path d="M40.0846 55.5241C40.0291 55.5241 39.9735 55.4918 39.9443 55.4391C39.9063 55.363 39.9355 55.2693 40.0144 55.2283L61.0072 44.7187C61.0832 44.6806 61.1767 44.7099 61.2177 44.789C61.2557 44.8651 61.2235 44.9588 61.1475 44.9998L40.1548 55.5094C40.1314 55.5211 40.108 55.527 40.0846 55.527V55.5241Z" fill="#010101"/>
<path d="M63.7096 43.7928C63.654 43.7928 63.5985 43.7635 63.5722 43.7079C63.5312 43.6318 63.5605 43.5381 63.6394 43.4971C66.1217 42.1969 68.7151 41.0432 71.3406 40.0681C71.4225 40.0388 71.5102 40.0798 71.5395 40.1588C71.5687 40.2408 71.5278 40.3287 71.4488 40.358C68.835 41.3272 66.2562 42.4751 63.7827 43.7694C63.7593 43.7811 63.7359 43.787 63.7096 43.787V43.7928Z" fill="#010101"/>
<path d="M22.3317 49.4418C22.3317 49.4418 22.3229 49.4418 22.32 49.4418L8.58406 48.3496C8.49927 48.3437 8.43495 48.2676 8.4408 48.1826C8.44665 48.0977 8.52267 48.0362 8.60745 48.0392L22.3434 49.1314C22.4282 49.1373 22.4925 49.2134 22.4866 49.2983C22.4808 49.3803 22.4106 49.4418 22.3317 49.4418Z" fill="#010101"/>
<path d="M36.4297 50.7917C36.4297 50.7917 36.418 50.7917 36.4122 50.7917L25.0767 49.6291C24.9919 49.6204 24.9276 49.5442 24.9363 49.4593C24.9451 49.3744 25.0241 49.3129 25.1059 49.3187L36.4414 50.4813C36.5262 50.4901 36.5905 50.5662 36.5818 50.6511C36.573 50.7302 36.5057 50.7917 36.4268 50.7917H36.4297Z" fill="#010101"/>
<path d="M36.5351 52.5984C36.5351 52.5984 36.5234 52.5984 36.5205 52.5984C26.8954 51.6292 17.1241 50.8473 7.47564 50.2705C7.39086 50.2646 7.32361 50.1914 7.32946 50.1065C7.3353 50.0216 7.4084 49.9571 7.49319 49.9601C17.1475 50.5369 26.9246 51.3188 36.5526 52.288C36.6374 52.2968 36.7017 52.373 36.693 52.4579C36.6842 52.5369 36.6169 52.5984 36.538 52.5984H36.5351Z" fill="#010101"/>
<path d="M17.581 53.7517C17.581 53.7517 17.5694 53.7517 17.5664 53.7517L7.17532 52.7063C7.09053 52.6975 7.02621 52.6214 7.03498 52.5365C7.04375 52.4515 7.11977 52.39 7.20456 52.3959L17.5957 53.4413C17.6805 53.4501 17.7448 53.5262 17.736 53.6111C17.7272 53.6902 17.66 53.7517 17.581 53.7517Z" fill="#010101"/>
<path d="M36.2952 55.3393C36.2952 55.3393 36.2835 55.3393 36.2806 55.3393L20.729 53.802C20.6442 53.7932 20.5799 53.7171 20.5887 53.6322C20.5975 53.5472 20.6764 53.4857 20.7583 53.4916L36.3098 55.0289C36.3946 55.0377 36.459 55.1139 36.4502 55.1988C36.4414 55.2778 36.3742 55.3393 36.2952 55.3393Z" fill="#010101"/>
</svg>
