<svg width="83" height="83" viewBox="0 0 83 83" fill="none" xmlns="http://www.w3.org/2000/svg">
<g style="mix-blend-mode:multiply">
<g opacity="0.9">
<g opacity="0.9">
<path d="M66.3955 16.0385C66.5214 16.3216 66.6826 19.531 66.895 19.8181C67.1035 20.0973 67.5164 20.1209 67.6029 20.2625C68.0395 19.9479 70.6668 19.9007 70.9617 19.4405C71.237 19.5978 71.6461 17.6117 71.8152 17.8712C71.8742 17.769 75.996 12.5813 76.055 12.483C75.8977 11.7279 74.6234 12.7662 73.7699 12.8291C72.6057 12.955 71.182 14.2647 70.8359 13.5292C70.7454 13.6826 70.1909 14.0916 69.8133 14.8153C69.4475 15.5508 66.7573 15.7002 66.3994 16.0424L66.3955 16.0385Z" fill="#F7B6A4"/>
<path d="M68.0591 8.80185C68.9677 9.34461 69.7149 9.45867 70.3757 9.66712C70.3403 9.77331 70.2616 10.0919 70.2498 10.1273C70.0807 9.95423 69.9234 9.74971 69.7936 9.74578C69.5537 9.81657 69.2744 9.96209 69.18 10.1037C69.1171 10.3279 69.2587 10.7133 69.2626 11.0122C69.0738 11.142 68.8851 11.2718 68.6884 11.3858C68.6766 11.3937 68.299 11.2836 68.1535 11.1892C68.0788 11.3111 68.0591 11.4566 68.0552 11.6061C67.9765 11.5668 66.2893 11.8539 65.3965 11.4724C64.9127 11.2285 64.425 11.1931 63.9609 11.2325C63.9609 11.2285 63.9806 11.1813 64.0121 11.1066C64.0435 11.0358 64.0868 10.9375 64.1379 10.8274C64.2362 10.615 64.3542 10.3593 64.429 10.1981C64.5076 10.261 64.6335 10.497 64.6453 10.552C64.6689 10.5088 64.5706 10.0329 64.5824 9.87163C64.6767 9.66318 64.9481 9.17942 64.9993 9.15582C65.0346 9.10076 65.1998 9.36034 65.4319 9.51373C65.2588 9.07716 65.1998 8.70353 65.2352 8.37709L65.3454 8.15291C65.2706 8.07425 65.2195 8.01525 65.1998 8.04672C65.1448 8.07425 65.0976 8.10571 65.0543 8.14111C65.1094 8.00345 65.4044 7.38204 65.5105 7.20898C65.4633 7.4135 65.4633 7.63375 65.4909 7.86973C65.5813 7.70848 65.6797 7.54722 65.7898 7.38597L65.8095 7.37024C66.4899 7.45676 67.2175 7.66521 67.9765 8.02312C67.949 8.25516 67.8271 8.6406 68.0552 8.80579L68.0591 8.80185Z" fill="#F4C3B8"/>
<path d="M65.6604 14.0887C66.1992 13.9078 66.7695 13.774 67.3437 13.6718C67.3437 13.5498 67.3319 13.424 67.3083 13.2863C67.4224 13.3296 67.5325 13.3729 67.6348 13.4555L67.7016 13.2195C67.6584 13.0976 67.2965 12.8419 67.8039 12.9048C67.8393 12.7947 67.8786 12.6885 67.9179 12.5784C67.8117 12.3975 67.6466 12.2126 67.4027 12.0238L67.7763 12.2008C68.0674 12.2087 67.855 11.9766 67.9022 11.8665C67.9691 11.898 68.0713 11.9491 68.1539 11.9806C68.0477 11.3159 68.7163 10.7692 68.7832 10.6473C68.7596 10.5411 68.7399 10.4349 68.7321 10.3326C67.7134 10.0691 66.742 9.93541 65.9239 10.1517C65.9239 10.1517 65.5581 9.95901 65.4087 9.95508C65.212 9.98654 65.0075 10.0219 64.8069 10.0573C64.9642 10.5568 64.8069 10.9462 64.6103 11.2372C64.4136 11.5243 64.1737 11.7053 64.1658 11.7249L64.0636 12.0435C64.0125 12.3621 64.1068 12.8222 64.1029 13.247C64.099 13.6757 63.9928 14.0729 63.5169 14.3247L63.4736 14.5842C64.1344 14.4938 65.5778 15.359 66.2779 15.9962C66.4037 16.1614 67.1313 16.7435 67.1785 16.5271C67.1274 16.1181 66.7223 15.5164 66.3526 14.9972C65.9829 14.482 65.6407 14.0493 65.6604 14.0769V14.0887Z" fill="#F4C3B8"/>
</g>
</g>
</g>
<g style="mix-blend-mode:multiply">
<g opacity="0.9">
<g opacity="0.9">
<path d="M64.559 67.1523C64.028 68.7177 63.556 70.3145 63.0919 71.9074C62.9582 71.4551 62.8206 71.0028 62.6908 70.5583C62.4273 69.1189 63.9336 68.3322 64.5629 67.1523H64.559Z" fill="#F9C7B8"/>
<path d="M66.1174 62.8809C66.1174 62.8809 66.1214 62.8927 66.1292 62.8966C65.6415 64.0765 65.2089 65.2761 64.792 66.4796C64.8077 66.393 64.8195 66.3026 64.8195 66.2082C64.7527 64.8788 64.91 63.6478 66.1174 62.8809Z" fill="#F9C7B8"/>
<path d="M65.535 39.8369C68.0521 42.4681 69.9557 45.1229 71.9458 47.6715C71.9615 48.0923 72.1936 48.639 72.0638 48.9261C72.1778 48.9654 71.521 51.1247 71.0019 52.1433C70.0029 50.9516 68.7443 49.7363 67.2223 48.5171C66.7346 48.7924 66.0541 49.4846 65.4603 49.2132C63.3089 47.9704 62.306 46.4758 61.3975 44.9774C61.6059 44.7492 64.9647 41.9096 65.535 39.8369Z" fill="#FBD8CF"/>
<path d="M68.1465 35.5063C68.9292 34.354 70.762 33.2291 71.4266 32.71C72.5397 33.7443 73.5937 34.7709 74.4275 35.8013C75.2181 35.6794 75.9457 35.6951 76.4412 35.4316C76.5985 35.6401 76.7559 35.8485 76.9132 36.053C76.0873 38.1847 75.3714 40.3557 74.6792 42.5307C73.9477 42.0194 70.2192 37.2133 68.1426 35.5063H68.1465Z" fill="#FCE1DA"/>
<path d="M66.5302 39.2747C66.5932 38.728 66.6286 38.2206 66.6561 37.7408C67.0809 36.9699 67.5528 36.2148 68.1428 35.5068C70.2312 37.2098 71.9539 39.0072 73.0866 40.7141C73.1534 40.5765 74.0502 40.8597 74.117 40.722C74.3451 41.6423 73.9518 42.016 74.6794 42.5312C74.0187 44.541 73.3815 46.5547 72.6067 48.5094C72.2174 47.829 72.7051 47.5576 72.8978 47.1525C72.0994 47.0188 71.9303 47.2901 71.9421 47.6756C69.952 45.127 68.0484 42.4722 65.5312 39.841L65.7436 39.4477C66.1645 39.5067 66.5814 39.5814 66.5302 39.2786V39.2747Z" fill="#FBDCD4"/>
<path d="M62.342 62.8134C61.4256 60.9728 59.7895 59.2737 57.8623 57.6376C58.2202 57.3702 58.9832 56.8943 58.6764 56.1627C59.1209 55.2699 60.4856 53.5945 59.8563 52.9416C59.2231 52.2848 62.2201 56.3908 63.6556 58.082C64.7765 58.6995 65.512 59.5884 66.1216 60.5284C65.9682 60.6739 65.3075 60.2019 65.1226 60.3317C65.2249 60.3789 65.9092 61.0593 65.9092 61.0593C65.9092 61.0593 65.3154 62.3533 65.0204 62.9983C63.7107 62.8016 64.3006 64.0051 64.5366 64.1349L64.3046 64.7052L64.2849 64.717C64.0096 64.304 63.7382 63.8872 63.4826 63.4781C63.2427 63.2067 62.3459 62.8134 62.3459 62.8134H62.342Z" fill="#FACDC1"/>
<path d="M65.4602 49.2134C63.3088 47.9706 62.3059 46.476 61.3974 44.9775C61.1142 45.2725 60.4023 46.0159 60.3276 46.0945C60.8861 46.2243 61.5114 46.299 61.6334 46.6097C61.6727 47.3019 61.6452 48.1318 61.4603 48.5526C61.0591 49.0128 60.1034 49.2724 59.4938 49.6814C59.4702 50.2399 59.4623 50.7945 59.4859 51.3529C59.4859 51.3883 60.186 52.0058 60.5478 52.171C60.4023 52.4896 60.1506 52.7295 59.8596 52.9419C60.0248 53.0559 61.6923 56.8749 63.6589 58.0823C64.7798 58.6998 65.5152 59.5887 66.1249 60.5287C66.1406 60.4972 66.9626 58.9948 67.3598 58.2711C67.1317 58.2003 66.5221 58.2632 66.408 58.3144C66.4552 58.2082 67.4778 57.7795 67.7689 57.5553C68.0363 57.0991 68.5948 55.9428 68.5791 55.8051C68.642 55.6675 67.9222 55.6753 67.3284 55.4039C68.3942 55.1798 69.2005 54.8179 69.7865 54.3342L70.0697 53.8504C70.3214 53.9015 70.4944 53.9369 70.463 54.0038C70.4787 54.1415 70.4826 54.2712 70.4708 54.3971C70.6596 54.1061 71.4619 52.8632 71.6704 52.5368C71.3282 52.8121 70.9113 53.0441 70.4236 53.2369L70.9861 52.1749L70.9939 52.1238C69.9949 50.936 68.7442 49.7286 67.2261 48.5133C66.7384 48.7886 66.058 49.4808 65.4641 49.2095L65.4602 49.2134Z" fill="#FAD0C4"/>
<path d="M49.2998 77.8694C49.9016 76.6266 50.464 75.3641 51.0028 74.0938C51.1601 74.4163 51.3214 74.7388 51.4787 75.0652C51.7501 74.3494 53.9132 75.0849 54.1846 74.373" fill="#F8BEAC"/>
<path d="M54.1847 74.3727C53.9134 75.0846 51.7502 74.3491 51.4788 75.0649C51.3176 74.7385 51.1603 74.416 51.0029 74.0934C51.6165 72.6225 52.1986 71.1358 52.7649 69.6452C52.8396 69.5626 52.9144 69.4761 52.9734 69.3896C53.6538 68.3552 53.9016 67.3444 54.5623 66.3887C55.4787 67.6079 56.3912 68.8193 57.2486 70.0267C55.0697 70.6717 53.0992 71.5566 51.6361 72.8113C52.1553 72.3629 53.6066 73.1377 54.0156 72.9804C56.0844 72.6304 59.8837 73.1692 61.154 74.3098" fill="#F8C0B1"/>
<path d="M57.2516 70.0228C56.3981 68.8154 55.4817 67.6001 54.5653 66.3848C54.7344 66.1409 54.9311 65.901 55.1671 65.6651C54.9036 65.551 54.64 65.4369 54.3372 65.4212L54.5614 64.8155C54.817 64.6425 55.8317 64.8155 54.8603 63.9935L55.1828 63.144C55.6508 62.9985 56.2133 62.967 56.9212 63.0929L56.0245 62.6996C55.5446 62.1568 56.2604 62.1332 56.3745 61.85C56.2133 61.7792 55.9655 61.6691 55.7806 61.5629C57.051 60.5639 57.0667 58.3654 57.2083 58.0232C57.4403 57.9013 57.6606 57.7676 57.8572 57.626C59.7844 59.2621 61.4206 60.9612 62.3369 62.8018C62.3369 62.8018 63.2337 63.1951 63.4736 63.4665C63.7292 63.8755 64.0006 64.2924 64.2759 64.7054C62.1875 65.5864 62.9741 68.2254 62.9662 68.3159L62.7421 68.9884C62.1285 70.1762 59.812 71.4308 61.3026 73.7631L61.1531 74.298C59.8827 73.1574 56.0835 72.6186 54.0147 72.9687C53.6057 73.126 51.5369 73.3423 51.6352 72.7995C52.6027 71.128 57.3932 69.9678 57.2476 70.015L57.2516 70.0228Z" fill="#F9C7B8"/>
<path d="M76.083 28.4589C76.4921 28.0814 76.905 27.7038 77.3259 27.3184C77.0624 27.8257 76.4921 28.1836 77.023 28.7893C76.6848 28.8994 76.5471 29.1551 76.4134 29.4107C76.2325 29.0764 76.1302 28.7578 76.0791 28.455L76.083 28.4589Z" fill="#FDECE7"/>
<path d="M79.7845 31.4247L79.576 31.8259C78.99 31.5349 78.5456 30.9764 78.9782 30.8544C78.3961 30.5634 78.8366 31.1219 78.5456 30.9764C77.7668 30.5909 77.818 30.4218 78.0067 30.2881C79.3164 30.941 80.516 31.7866 80.4098 31.9871L80.2722 32.2546C80.0873 31.9714 80.0676 31.6607 79.7845 31.4247Z" fill="#FDECE7"/>
<path d="M76.4423 35.4319C75.9428 35.6954 75.2152 35.6797 74.4286 35.8016C73.5948 34.7751 72.5408 33.7446 71.4277 32.7103C72.6312 31.7624 73.7246 30.7909 74.8337 29.7959C74.8849 30.0987 74.9871 30.4173 75.168 30.7516C75.3018 30.496 75.4355 30.2364 75.7776 30.1263C75.8799 30.2443 76.0215 30.3662 76.2181 30.5038L76.2339 30.5117C76.0412 30.6494 75.994 30.8185 76.7688 31.2C77.0637 31.3455 76.6193 30.787 77.2053 31.0741C76.7688 31.2 77.2171 31.7585 77.8031 32.0456L78.0155 31.6405C78.3026 31.8765 78.3223 32.1872 78.5072 32.4703C77.9211 33.6385 77.402 34.838 76.9182 36.0455C76.7609 35.8409 76.6036 35.6325 76.4463 35.424L76.4423 35.4319Z" fill="#FDE8E3"/>
</g>
</g>
</g>
<g style="mix-blend-mode:multiply">
<g opacity="0.9">
<g opacity="0.9">
<path d="M56.1088 65.1055C55.5778 66.6708 55.1058 68.2676 54.6417 69.8605C54.508 69.4082 54.3704 68.9559 54.2406 68.5115C53.9771 67.072 55.4834 66.2854 56.1127 65.1055H56.1088Z" fill="#F9C7B8"/>
<path d="M57.6672 60.834C57.6672 60.834 57.6712 60.8458 57.679 60.8497C57.1913 62.0296 56.7587 63.2292 56.3418 64.4327C56.3575 64.3462 56.3693 64.2557 56.3693 64.1613C56.3025 62.832 56.4598 61.6009 57.6672 60.834Z" fill="#F9C7B8"/>
<path d="M57.0848 37.7939C59.6019 40.4251 61.5055 43.0799 63.4956 45.6285C63.5113 46.0493 63.7434 46.596 63.6136 46.8831C63.7276 46.9225 63.0708 49.0817 62.5517 50.1003C61.5527 48.9086 60.2941 47.6933 58.7721 46.4741C58.2844 46.7494 57.604 47.4416 57.0101 47.1702C54.8587 45.9274 53.8558 44.4329 52.9473 42.9344C53.1557 42.7063 56.5145 39.8666 57.0848 37.7939Z" fill="#FBD8CF"/>
<path d="M59.6924 33.4595C60.4751 32.3071 62.3079 31.1822 62.9725 30.6631C64.0856 31.6975 65.1396 32.724 65.9734 33.7544C66.764 33.6325 67.4916 33.6482 67.9871 33.3847C68.1445 33.5932 68.3018 33.8016 68.4591 34.0061C67.6332 36.1378 66.9174 38.3089 66.2251 40.4838C65.4936 39.9725 61.7651 35.1664 59.6885 33.4595H59.6924Z" fill="#FCE1DA"/>
<path d="M58.08 37.2278C58.143 36.6811 58.1784 36.1737 58.2059 35.6939C58.6307 34.923 59.1026 34.1679 59.6926 33.46C61.781 35.163 63.5037 36.9603 64.6364 38.6673C64.7032 38.5296 65.5999 38.8128 65.6668 38.6751C65.8949 39.5955 65.5016 39.9691 66.2292 40.4843C65.5685 42.4941 64.9313 44.5078 64.1565 46.4625C63.7672 45.7821 64.2549 45.5107 64.4476 45.1056C63.6492 44.9719 63.4801 45.2433 63.4919 45.6287C61.5018 43.0801 59.5982 40.4253 57.0811 37.7941L57.2934 37.4008C57.7143 37.4598 58.1312 37.5346 58.08 37.2317V37.2278Z" fill="#FBDCD4"/>
<path d="M53.8918 60.7666C52.9754 58.9259 51.3393 57.2269 49.4121 55.5907C49.77 55.3233 50.533 54.8474 50.2262 54.1158C50.6707 53.223 52.0354 51.5476 51.4061 50.8947C50.7729 50.2379 53.7699 54.344 55.2054 56.0352C56.3263 56.6526 57.0618 57.5415 57.6714 58.4815C57.518 58.627 56.8573 58.155 56.6724 58.2848C56.7747 58.332 57.459 59.0124 57.459 59.0124C57.459 59.0124 56.8652 60.3064 56.5702 60.9514C55.2605 60.7548 55.8504 61.9583 56.0864 62.0881L55.8544 62.6583L55.8347 62.6701C55.5594 62.2572 55.288 61.8403 55.0324 61.4312C54.7925 61.1599 53.8957 60.7666 53.8957 60.7666H53.8918Z" fill="#FACDC1"/>
<path d="M57.0061 47.1704C54.8547 45.9276 53.8518 44.433 52.9433 42.9346C52.6601 43.2295 51.9482 43.9729 51.8735 44.0515C52.432 44.1813 53.0573 44.2561 53.1792 44.5668C53.2186 45.259 53.1911 46.0888 53.0062 46.5097C52.605 46.9698 51.6493 47.2294 51.0397 47.6385C51.0161 48.1969 51.0082 48.7515 51.0318 49.31C51.0318 49.3454 51.7319 49.9629 52.0937 50.128C51.9482 50.4466 51.6965 50.6865 51.4055 50.8989C51.5706 51.013 53.2382 54.8319 55.2048 56.0394C56.3257 56.6568 57.0611 57.5457 57.6707 58.4857C57.6865 58.4542 58.5085 56.9518 58.9057 56.2281C58.6776 56.1574 58.068 56.2203 57.9539 56.2714C58.0011 56.1652 59.0237 55.7365 59.3147 55.5123C59.5822 55.0561 60.1407 53.8998 60.1249 53.7621C60.1879 53.6245 59.4681 53.6324 58.8742 53.361C59.9401 53.1368 60.7464 52.775 61.3324 52.2912L61.6156 51.8074C61.8673 51.8586 62.0403 51.894 62.0089 51.9608C62.0246 52.0985 62.0285 52.2283 62.0167 52.3541C62.2055 52.0631 63.0078 50.8203 63.2163 50.4938C62.8741 50.7691 62.4572 51.0012 61.9695 51.1939L62.5319 50.132L62.5398 50.0808C61.5408 48.8931 60.2901 47.6856 58.772 46.4703C58.2843 46.7457 57.6039 47.4379 57.01 47.1665L57.0061 47.1704Z" fill="#FAD0C4"/>
<path d="M40.8496 75.8265C41.4514 74.5836 42.0138 73.3211 42.5526 72.0508C42.7099 72.3733 42.8712 72.6958 43.0285 73.0222C43.2999 72.3064 45.463 73.0419 45.7344 72.33" fill="#F8BEAC"/>
<path d="M45.7345 72.3258C45.4632 73.0377 43.3 72.3022 43.0286 73.018C42.8674 72.6916 42.7101 72.3691 42.5527 72.0466C43.1663 70.5756 43.7484 69.0889 44.3147 67.5983C44.3895 67.5157 44.4642 67.4292 44.5232 67.3427C45.2036 66.3083 45.4514 65.2975 46.1121 64.3418C47.0285 65.561 47.941 66.7724 48.7984 67.9798C46.6195 68.6248 44.649 69.5098 43.1859 70.7644C43.7051 70.316 45.1564 71.0908 45.5654 70.9335C47.6342 70.5835 51.4335 71.1223 52.7038 72.2629" fill="#F8C0B1"/>
<path d="M48.8014 67.9799C47.9479 66.7724 47.0315 65.5571 46.1151 64.3418C46.2842 64.098 46.4809 63.8581 46.7169 63.6221C46.4534 63.508 46.1899 63.394 45.887 63.3782L46.1112 62.7725C46.3668 62.5995 47.3816 62.7725 46.4101 61.9505L46.7326 61.101C47.2006 60.9555 47.7631 60.924 48.471 61.0499L47.5743 60.6566C47.0944 60.1138 47.8103 60.0902 47.9243 59.8071C47.7631 59.7363 47.5153 59.6261 47.3304 59.5199C48.6008 58.521 48.6165 56.3224 48.7581 55.9802C48.9902 55.8583 49.2104 55.7246 49.4071 55.583C51.3342 57.2191 52.9704 58.9182 53.8868 60.7588C53.8868 60.7588 54.7835 61.1521 55.0234 61.4235C55.279 61.8326 55.5504 62.2495 55.8257 62.6624C53.7373 63.5434 54.5239 66.1825 54.516 66.2729L54.2919 66.9455C53.6783 68.1332 51.3618 69.3879 52.8524 71.7201L52.7029 72.255C51.4326 71.1145 47.6333 70.5756 45.5645 70.9257C45.1555 71.083 43.0867 71.2993 43.185 70.7566C44.1526 69.085 48.943 67.9248 48.7974 67.972L48.8014 67.9799Z" fill="#F9C7B8"/>
<path d="M67.6328 26.4121C68.0419 26.0345 68.4548 25.6569 68.8757 25.2715C68.6122 25.7788 68.0419 26.1367 68.5728 26.7424C68.2346 26.8526 68.0969 27.1082 67.9632 27.3638C67.7823 27.0295 67.68 26.711 67.6289 26.4081L67.6328 26.4121Z" fill="#FDECE7"/>
<path d="M71.3343 29.3779L71.1258 29.779C70.5398 29.488 70.0954 28.9295 70.528 28.8076C69.9459 28.5165 70.3864 29.075 70.0954 28.9295C69.3166 28.5441 69.3678 28.3749 69.5565 28.2412C70.8662 28.8941 72.0658 29.7397 71.9596 29.9403L71.822 30.2077C71.6371 29.9245 71.6174 29.6138 71.3343 29.3779Z" fill="#FDECE7"/>
<path d="M67.9921 33.385C67.4926 33.6485 66.765 33.6328 65.9784 33.7547C65.1446 32.7282 64.0906 31.6978 62.9775 30.6634C64.181 29.7155 65.2744 28.7441 66.3835 27.749C66.4347 28.0519 66.5369 28.3704 66.7178 28.7047C66.8516 28.4491 66.9853 28.1895 67.3274 28.0794C67.4297 28.1974 67.5713 28.3193 67.7679 28.457L67.7837 28.4648C67.591 28.6025 67.5438 28.7716 68.3186 29.1531C68.6135 29.2986 68.1691 28.7401 68.7551 29.0273C68.3186 29.1531 68.7669 29.7116 69.353 29.9987L69.5653 29.5936C69.8524 29.8296 69.8721 30.1403 70.057 30.4235C69.4709 31.5916 68.9518 32.7911 68.468 33.9986C68.3107 33.7941 68.1534 33.5856 67.9961 33.3772L67.9921 33.385Z" fill="#FDE8E3"/>
</g>
</g>
</g>
<g style="mix-blend-mode:multiply">
<g opacity="0.9">
<g opacity="0.9">
<path d="M48.9828 59.4961C48.4518 61.0614 47.9799 62.6582 47.5158 64.2511C47.382 63.7988 47.2444 63.3465 47.1146 62.9021C46.8511 61.4626 48.3574 60.676 48.9867 59.4961H48.9828Z" fill="#F9C7B8"/>
<path d="M50.5403 55.2246C50.5403 55.2246 50.5442 55.2364 50.5521 55.2403C50.0644 56.4202 49.6317 57.6198 49.2148 58.8233C49.2306 58.7368 49.2424 58.6463 49.2424 58.5519C49.1755 57.2226 49.3328 55.9915 50.5403 55.2246Z" fill="#F9C7B8"/>
<path d="M49.9539 32.1855C52.4711 34.8167 54.3746 37.4715 56.3647 40.0201C56.3805 40.4409 56.6125 40.9876 56.4827 41.2747C56.5968 41.3141 55.94 43.4733 55.4208 44.4919C54.4218 43.3002 53.1633 42.0849 51.6412 40.8657C51.1535 41.141 50.4731 41.8332 49.8792 41.5618C47.7278 40.319 46.7249 38.8245 45.8164 37.326C46.0249 37.0979 49.3836 34.2582 49.9539 32.1855Z" fill="#FBD8CF"/>
<path d="M52.5655 27.8511C53.3481 26.6987 55.1809 25.5738 55.8456 25.0547C56.9586 26.0891 58.0127 27.1156 58.8465 28.146C59.637 28.0241 60.3646 28.0398 60.8602 27.7763C61.0175 27.9848 61.1748 28.1932 61.3321 28.3977C60.5062 30.5294 59.7904 32.7005 59.0982 34.8754C58.3666 34.3641 54.6382 29.558 52.5615 27.8511H52.5655Z" fill="#FCE1DA"/>
<path d="M50.9521 31.6194C51.015 31.0727 51.0504 30.5653 51.078 30.0855C51.5027 29.3146 51.9747 28.5595 52.5646 27.8516C54.6531 29.5546 56.3757 31.3519 57.5084 33.0589C57.5753 32.9212 58.472 33.2044 58.5389 33.0667C58.767 33.9871 58.3737 34.3607 59.1013 34.8759C58.4406 36.8857 57.8034 38.8994 57.0286 40.8541C56.6392 40.1737 57.1269 39.9023 57.3197 39.4972C56.5213 39.3635 56.3521 39.6349 56.3639 40.0203C54.3738 37.4717 52.4703 34.8169 49.9531 32.1857L50.1655 31.7924C50.5863 31.8514 51.0032 31.9262 50.9521 31.6233V31.6194Z" fill="#FBDCD4"/>
<path d="M46.7639 55.1582C45.8475 53.3175 44.2114 51.6185 42.2842 49.9823C42.6421 49.7149 43.4051 49.239 43.0983 48.5074C43.5427 47.6147 44.9075 45.9392 44.2782 45.2863C43.645 44.6295 46.642 48.7356 48.0775 50.4268C49.1984 51.0442 49.9339 51.9331 50.5435 52.8731C50.3901 53.0186 49.7294 52.5466 49.5445 52.6764C49.6468 52.7236 50.3311 53.404 50.3311 53.404C50.3311 53.404 49.7372 54.698 49.4423 55.343C48.1326 55.1464 48.7225 56.3499 48.9585 56.4797L48.7265 57.0499L48.7068 57.0617C48.4315 56.6488 48.1601 56.2319 47.9045 55.8228C47.6645 55.5515 46.7678 55.1582 46.7678 55.1582H46.7639Z" fill="#FACDC1"/>
<path d="M49.8791 41.5581C47.7278 40.3153 46.7248 38.8207 45.8163 37.3223C45.5331 37.6172 44.8213 38.3606 44.7465 38.4392C45.305 38.569 45.9304 38.6438 46.0523 38.9545C46.0916 39.6467 46.0641 40.4765 45.8792 40.8974C45.4781 41.3575 44.5224 41.6171 43.9127 42.0261C43.8891 42.5846 43.8813 43.1392 43.9049 43.6977C43.9049 43.7331 44.6049 44.3506 44.9668 44.5157C44.8213 44.8343 44.5696 45.0742 44.2785 45.2866C44.4437 45.4007 46.1113 49.2196 48.0778 50.4271C49.1987 51.0445 49.9342 51.9334 50.5438 52.8734C50.5595 52.8419 51.3815 51.3395 51.7788 50.6158C51.5506 50.545 50.941 50.608 50.827 50.6591C50.8742 50.5529 51.8967 50.1242 52.1878 49.9C52.4552 49.4438 53.0137 48.2875 52.998 48.1498C53.0609 48.0122 52.3412 48.0201 51.7473 47.7487C52.8131 47.5245 53.6194 47.1627 54.2054 46.6789L54.4886 46.1951C54.7403 46.2463 54.9134 46.2817 54.8819 46.3485C54.8976 46.4862 54.9016 46.616 54.8898 46.7418C55.0786 46.4508 55.8809 45.208 56.0893 44.8815C55.7472 45.1568 55.3303 45.3889 54.8426 45.5816L55.405 44.5197L55.4129 44.4685C54.4139 43.2808 53.1632 42.0733 51.645 40.858C51.1573 41.1334 50.4769 41.8256 49.883 41.5542L49.8791 41.5581Z" fill="#FAD0C4"/>
<path d="M27.9053 79.4643C30.3005 76.5696 32.1372 73.4468 33.7222 70.2139C34.7566 71.5983 33.4862 72.731 35.4252 74.3121C35.728 74.434 36.1331 74.2688 36.4832 74.2491C37.081 75.4802 36.8686 77.0337 38.3789 77.6433" fill="#F7B6A4"/>
<path d="M44.3186 74.5087L43.6933 76.9275C43.4022 76.8174 43.1191 76.7269 42.8438 76.6483C43.1505 75.728 43.3904 74.7801 43.5596 73.8008C43.7916 74.0368 44.0433 74.2727 44.3186 74.5087Z" fill="#F8BEAC"/>
<path d="M38.3823 77.6436C36.8681 77.034 37.0844 75.4805 36.4866 74.2494C36.1326 74.2691 35.7275 74.4343 35.4286 74.3124C33.4896 72.7313 34.76 71.5986 33.7256 70.2142C34.3273 68.9713 34.8898 67.7088 35.4286 66.4385C35.5859 66.761 35.7472 67.0835 35.9045 67.4099C36.1759 66.6941 38.339 67.4296 38.6104 66.7177C40.0027 69.7107 39.4167 72.692 42.3467 75.6693" fill="#F8BEAC"/>
<path d="M38.6066 66.7174C38.3352 67.4293 36.1721 66.6938 35.9007 67.4096C35.7394 67.0832 35.5821 66.7607 35.4248 66.4382C36.0384 64.9672 36.6204 63.4805 37.1868 61.9899C37.2615 61.9073 37.3362 61.8208 37.3952 61.7343C38.0757 60.6999 38.3234 59.6891 38.9842 58.7334C39.9006 59.9526 40.813 61.164 41.6704 62.3714C39.4915 63.0164 37.5211 63.9014 36.058 65.156C36.5772 64.7076 38.0285 65.4824 38.4375 65.3251C40.5063 64.9751 44.3055 65.5139 45.5759 66.6545C44.9427 68.9435 44.3685 71.2561 43.7982 73.5726C43.3577 73.5648 42.6537 73.5255 42.6104 73.6434C42.5475 74.3317 42.457 75.0082 42.339 75.6729C39.4089 72.6916 39.995 69.7144 38.6027 66.7213L38.6066 66.7174Z" fill="#F8C0B1"/>
<path d="M41.6705 62.3715C40.817 61.164 39.9007 59.9487 38.9843 58.7334C39.1534 58.4896 39.35 58.2497 39.586 58.0137C39.3225 57.8996 39.059 57.7856 38.7562 57.7698L38.9803 57.1642C39.236 56.9911 40.2507 57.1642 39.2792 56.3422L39.6017 55.4926C40.0698 55.3471 40.6322 55.3156 41.3401 55.4415L40.4434 55.0482C39.9636 54.5054 40.6794 54.4818 40.7935 54.1987C40.6322 54.1279 40.3844 54.0177 40.1996 53.9116C41.4699 52.9126 41.4857 50.714 41.6272 50.3718C41.8593 50.2499 42.0795 50.1162 42.2762 49.9746C44.2034 51.6107 45.8395 53.3098 46.7559 55.1505C46.7559 55.1505 47.6526 55.5438 47.8925 55.8151C48.1482 56.2242 48.4196 56.6411 48.6949 57.054C46.6064 57.935 47.393 60.5741 47.3852 60.6645L47.161 61.3371C46.5474 62.5248 44.2309 63.7795 45.7215 66.1117L45.5721 66.6466C44.3017 65.5061 40.5024 64.9672 38.4336 65.3173C38.0246 65.4746 35.9558 65.6909 36.0542 65.1482C37.0217 63.4766 41.8121 62.3164 41.6666 62.3636L41.6705 62.3715Z" fill="#F9C7B8"/>
<path d="M60.5059 20.8037C60.9149 20.4261 61.3279 20.0485 61.7487 19.6631C61.4852 20.1704 60.9149 20.5283 61.4459 21.134C61.1076 21.2442 60.97 21.4998 60.8363 21.7554C60.6553 21.4211 60.5531 21.1026 60.502 20.7997L60.5059 20.8037Z" fill="#FDECE7"/>
<path d="M64.2073 23.7695L63.9989 24.1706C63.4128 23.8796 62.9684 23.3211 63.401 23.1992C62.819 22.9081 63.2595 23.4666 62.9684 23.3211C62.1897 22.9357 62.2408 22.7665 62.4296 22.6328C63.7393 23.2857 64.9389 24.1313 64.8327 24.3319L64.695 24.5993C64.5102 24.3161 64.4905 24.0054 64.2073 23.7695Z" fill="#FDECE7"/>
<path d="M60.8642 27.7757C60.3647 28.0392 59.6371 28.0234 58.8505 28.1454C58.0167 27.1188 56.9627 26.0884 55.8496 25.054C57.0531 24.1062 58.1465 23.1347 59.2556 22.1396C59.3067 22.4425 59.409 22.7611 59.5899 23.0954C59.7236 22.8397 59.8573 22.5801 60.1995 22.47C60.3018 22.588 60.4434 22.7099 60.64 22.8476L60.6557 22.8555C60.463 22.9931 60.4158 23.1622 61.1906 23.5437C61.4856 23.6893 61.0412 23.1308 61.6272 23.4179C61.1906 23.5437 61.639 24.1022 62.225 24.3893L62.4374 23.9842C62.7245 24.2202 62.7442 24.5309 62.929 24.8141C62.343 25.9822 61.8238 27.1818 61.3401 28.3892C61.1828 28.1847 61.0254 27.9762 60.8681 27.7678L60.8642 27.7757Z" fill="#FDE8E3"/>
</g>
</g>
</g>
<g style="mix-blend-mode:multiply">
<g opacity="0.9">
<g opacity="0.9">
<path d="M39.641 57.1797C39.11 58.745 38.6381 60.3418 38.174 61.9347C38.0403 61.4824 37.9026 61.0301 37.7728 60.5857C37.5093 59.1462 39.0156 58.3596 39.6449 57.1797H39.641Z" fill="#F9C7B8"/>
<path d="M41.1946 52.9072C41.1946 52.9072 41.1985 52.919 41.2064 52.923C40.7187 54.1029 40.286 55.3024 39.8691 56.5059C39.8849 56.4194 39.8967 56.3289 39.8967 56.2346C39.8298 54.9052 39.9871 53.6742 41.1946 52.9072Z" fill="#F9C7B8"/>
<path d="M40.6131 29.8682C43.1302 32.4993 45.0338 35.1541 47.0239 37.7027C47.0397 38.1236 47.2717 38.6702 47.1419 38.9573C47.256 38.9967 46.5992 41.1559 46.08 42.1746C45.081 40.9829 43.8224 39.7675 42.3004 38.5483C41.8127 38.8236 41.1323 39.5158 40.5384 39.2445C38.387 38.0016 37.3841 36.5071 36.4756 35.0086C36.684 34.7805 40.0428 31.9409 40.6131 29.8682Z" fill="#FBD8CF"/>
<path d="M43.2246 25.5347C44.0073 24.3823 45.8401 23.2574 46.5048 22.7383C47.6178 23.7727 48.6719 24.7992 49.5057 25.8296C50.2962 25.7077 51.0238 25.7234 51.5194 25.4599C51.6767 25.6684 51.834 25.8768 51.9913 26.0813C51.1654 28.213 50.4496 30.3841 49.7574 32.559C49.0258 32.0477 45.2973 27.2416 43.2207 25.5347H43.2246Z" fill="#FCE1DA"/>
<path d="M41.6123 29.302C41.6752 28.7553 41.7106 28.248 41.7381 27.7681C42.1629 26.9973 42.6348 26.2421 43.2248 25.5342C45.3132 27.2372 47.0359 29.0346 48.1686 30.7415C48.2355 30.6038 49.1322 30.887 49.199 30.7494C49.4272 31.6697 49.0339 32.0433 49.7615 32.5585C49.1007 34.5683 48.4636 36.582 47.6888 38.5367C47.2994 37.8563 47.7871 37.5849 47.9798 37.1798C47.1814 37.0461 47.0123 37.3175 47.0241 37.7029C45.034 35.1543 43.1304 32.4995 40.6133 29.8684L40.8257 29.4751C41.2465 29.5341 41.6634 29.6088 41.6123 29.3059V29.302Z" fill="#FBDCD4"/>
<path d="M37.424 52.8418C36.5076 51.0011 34.8715 49.3021 32.9443 47.6659C33.3022 47.3985 34.0652 46.9226 33.7585 46.191C34.2029 45.2982 35.5677 43.6228 34.9384 42.9699C34.3052 42.3131 37.3021 46.4192 38.7377 48.1103C39.8586 48.7278 40.594 49.6167 41.2037 50.5567C41.0503 50.7022 40.3895 50.2302 40.2047 50.36C40.3069 50.4072 40.9913 51.0876 40.9913 51.0876C40.9913 51.0876 40.3974 52.3816 40.1024 53.0266C38.7927 52.83 39.3827 54.0335 39.6187 54.1633L39.3866 54.7335L39.3669 54.7453C39.0916 54.3324 38.8203 53.9155 38.5646 53.5064C38.3247 53.2351 37.428 52.8418 37.428 52.8418H37.424Z" fill="#FACDC1"/>
<path d="M40.5383 39.2446C38.3869 38.0018 37.384 36.5073 36.4755 35.0088C36.1923 35.3038 35.4804 36.0471 35.4057 36.1258C35.9642 36.2556 36.5896 36.3303 36.7115 36.641C36.7508 37.3332 36.7233 38.1631 36.5384 38.5839C36.1373 39.0441 35.1815 39.3036 34.5719 39.7127C34.5483 40.2712 34.5405 40.8257 34.5641 41.3842C34.5641 41.4196 35.2641 42.0371 35.626 42.2023C35.4804 42.5208 35.2287 42.7608 34.9377 42.9731C35.1029 43.0872 36.7705 46.9061 38.737 48.1136C39.8579 48.7311 40.5934 49.6199 41.203 50.5599C41.2187 50.5284 42.0407 49.026 42.4379 48.3024C42.2098 48.2316 41.6002 48.2945 41.4862 48.3456C41.5333 48.2394 42.5559 47.8107 42.847 47.5866C43.1144 47.1303 43.6729 45.974 43.6572 45.8364C43.7201 45.6987 43.0004 45.7066 42.4065 45.4352C43.4723 45.211 44.2786 44.8492 44.8646 44.3654L45.1478 43.8817C45.3995 43.9328 45.5725 43.9682 45.5411 44.035C45.5568 44.1727 45.5607 44.3025 45.549 44.4283C45.7377 44.1373 46.5401 42.8945 46.7485 42.568C46.4063 42.8433 45.9894 43.0754 45.5018 43.2681L46.0642 42.2062L46.072 42.1551C45.0731 40.9673 43.8224 39.7599 42.3042 38.5446C41.8165 38.8199 41.1361 39.5121 40.5422 39.2407L40.5383 39.2446Z" fill="#FAD0C4"/>
<path d="M34.9778 72.1913L34.3525 74.6101C34.0614 74.5 33.7782 74.4096 33.5029 74.3309C33.8097 73.4106 34.0496 72.4627 34.2187 71.4834C34.4508 71.7194 34.7025 71.9554 34.9778 72.1913Z" fill="#F8BEAC"/>
<path d="M27.1428 71.936C26.7888 71.9556 26.3837 72.1208 26.0848 71.9989C24.1459 70.4178 25.4162 69.2851 24.3818 67.9007C24.9836 66.6579 25.546 65.3954 26.0848 64.125C26.2421 64.4475 26.4034 64.77 26.5607 65.0965C26.8321 64.3806 28.9953 65.1161 29.2666 64.4042C30.6589 67.3973 30.0729 70.3785 33.003 73.3558C32.8339 74.3351 32.6136 75.2908 32.3069 76.2111C31.064 75.8493 29.9667 75.7038 29.0385 75.3301C27.5243 74.7205 27.7406 73.167 27.1428 71.936Z" fill="#F8BEAC"/>
<path d="M29.2668 64.4C28.9954 65.1119 26.8322 64.3764 26.5609 65.0922C26.3996 64.7658 26.2423 64.4433 26.085 64.1208C26.6985 62.6498 27.2806 61.1632 27.8469 59.6725C27.9217 59.59 27.9964 59.5034 28.0554 59.4169C28.7358 58.3825 28.9836 57.3717 29.6443 56.416C30.5607 57.6352 31.4732 58.8466 32.3306 60.0541C30.1517 60.6991 28.1813 61.584 26.7182 62.8386C27.2373 62.3903 28.6886 63.1651 29.0976 63.0077C31.1664 62.6577 34.9657 63.1965 36.2361 64.3371C35.6028 66.6261 35.0286 68.9387 34.4583 71.2553C34.0178 71.2474 33.3138 71.2081 33.2706 71.3261C33.2076 72.0143 33.1172 72.6908 32.9992 73.3555C30.0691 70.3743 30.6551 67.397 29.2628 64.404L29.2668 64.4Z" fill="#F8C0B1"/>
<path d="M32.3307 60.0541C31.4772 58.8466 30.5608 57.6313 29.6444 56.416C29.8135 56.1722 30.0102 55.9323 30.2462 55.6963C29.9827 55.5822 29.7192 55.4682 29.4163 55.4525L29.6405 54.8468C29.8961 54.6737 30.9108 54.8468 29.9394 54.0248L30.2619 53.1752C30.7299 53.0297 31.2924 52.9983 32.0003 53.1241L31.1036 52.7308C30.6237 52.1881 31.3396 52.1645 31.4536 51.8813C31.2924 51.8105 31.0446 51.7004 30.8597 51.5942C32.1301 50.5952 32.1458 48.3966 32.2874 48.0545C32.5195 47.9325 32.7397 47.7988 32.9364 47.6572C34.8635 49.2934 36.4997 50.9924 37.416 52.8331C37.416 52.8331 38.3128 53.2264 38.5527 53.4977C38.8083 53.9068 39.0797 54.3237 39.355 54.7366C37.2666 55.6176 38.0532 58.2567 38.0453 58.3472L37.8211 59.0197C37.2076 60.2075 34.8911 61.4621 36.3817 63.7944L36.2322 64.3293C34.9619 63.1887 31.1626 62.6499 29.0938 62.9999C28.6848 63.1572 26.616 63.3735 26.7143 62.8308C27.6818 61.1593 32.4723 59.999 32.3267 60.0462L32.3307 60.0541Z" fill="#F9C7B8"/>
<path d="M51.1612 18.4902C51.5702 18.1126 51.9832 17.735 52.404 17.3496C52.1405 17.857 51.5702 18.2149 52.1011 18.8206C51.7629 18.9307 51.6253 19.1863 51.4915 19.442C51.3106 19.1077 51.2084 18.7891 51.1572 18.4862L51.1612 18.4902Z" fill="#FDECE7"/>
<path d="M54.8626 21.4511L54.6541 21.8523C54.0681 21.5612 53.6237 21.0027 54.0563 20.8808C53.4742 20.5898 53.9147 21.1483 53.6237 21.0027C52.845 20.6173 52.8961 20.4482 53.0849 20.3145C54.3946 20.9673 55.5941 21.8129 55.4879 22.0135L55.3503 22.281C55.1654 21.9978 55.1458 21.6871 54.8626 21.4511Z" fill="#FDECE7"/>
<path d="M51.5195 25.4602C51.02 25.7237 50.2924 25.708 49.5058 25.8299C48.672 24.8034 47.6179 23.773 46.5049 22.7386C47.7084 21.7907 48.8018 20.8193 49.9109 19.8242C49.962 20.1271 50.0643 20.4456 50.2452 20.7799C50.3789 20.5243 50.5126 20.2647 50.8548 20.1546C50.957 20.2726 51.0986 20.3945 51.2953 20.5322L51.311 20.54C51.1183 20.6777 51.0711 20.8468 51.8459 21.2283C52.1409 21.3738 51.6965 20.8153 52.2825 21.1024C51.8459 21.2283 52.2943 21.7868 52.8803 22.0739L53.0927 21.6688C53.3798 21.9048 53.3994 22.2155 53.5843 22.4987C52.9983 23.6668 52.4791 24.8663 51.9954 26.0738C51.838 25.8693 51.6807 25.6608 51.5234 25.4524L51.5195 25.4602Z" fill="#FDE8E3"/>
</g>
</g>
</g>
<g style="mix-blend-mode:multiply">
<g opacity="0.9">
<g opacity="0.9">
<path d="M33.0697 50.6787C32.5387 52.244 32.0668 53.8409 31.6027 55.4337C31.469 54.9814 31.3313 54.5291 31.2015 54.0847C30.938 52.6452 32.4444 51.8586 33.0736 50.6787H33.0697Z" fill="#F9C7B8"/>
<path d="M34.6243 46.4072C34.6243 46.4072 34.6282 46.419 34.6361 46.423C34.1484 47.6029 33.7157 48.8024 33.2988 50.0059C33.3146 49.9194 33.3264 49.8289 33.3264 49.7346C33.2595 48.4052 33.4168 47.1742 34.6243 46.4072Z" fill="#F9C7B8"/>
<path d="M34.0408 23.3672C36.558 25.9984 38.4616 28.6532 40.4517 31.2017C40.4674 31.6226 40.6994 32.1693 40.5696 32.4564C40.6837 32.4957 40.0269 34.6549 39.5077 35.6736C38.5087 34.4819 37.2502 33.2666 35.7281 32.0473C35.2404 32.3227 34.56 33.0149 33.9661 32.7435C31.8148 31.5007 30.8118 30.0061 29.9033 28.5076C30.1118 28.2795 33.4706 25.4399 34.0408 23.3672Z" fill="#FBD8CF"/>
<path d="M36.6533 19.0327C37.436 17.8803 39.2688 16.7555 39.9335 16.2363C41.0465 17.2707 42.1006 18.2972 42.9344 19.3277C43.7249 19.2058 44.4525 19.2215 44.9481 18.958C45.1054 19.1664 45.2627 19.3749 45.42 19.5794C44.5941 21.7111 43.8783 23.8821 43.1861 26.0571C42.4545 25.5458 38.726 20.7396 36.6494 19.0327H36.6533Z" fill="#FCE1DA"/>
<path d="M35.0361 22.801C35.099 22.2543 35.1344 21.747 35.1619 21.2672C35.5867 20.4963 36.0587 19.7411 36.6486 19.0332C38.7371 20.7362 40.4597 22.5336 41.5924 24.2405C41.6593 24.1029 42.556 24.386 42.6229 24.2484C42.851 25.1687 42.4577 25.5423 43.1853 26.0576C42.5245 28.0673 41.8874 30.081 41.1126 32.0357C40.7232 31.3553 41.2109 31.0839 41.4036 30.6788C40.6052 30.5451 40.4361 30.8165 40.4479 31.2019C38.4578 28.6533 36.5542 25.9986 34.0371 23.3674L34.2495 22.9741C34.6703 23.0331 35.0872 23.1078 35.0361 22.805V22.801Z" fill="#FBDCD4"/>
<path d="M30.8479 46.3398C29.9315 44.4992 28.2953 42.8001 26.3682 41.164C26.7261 40.8965 27.4891 40.4206 27.1823 39.6891C27.6267 38.7963 28.9915 37.1208 28.3622 36.468C27.729 35.8111 30.7259 39.9172 32.1615 41.6084C33.2824 42.2259 34.0179 43.1147 34.6275 44.0547C34.4741 44.2003 33.8134 43.7283 33.6285 43.8581C33.7308 43.9053 34.4151 44.5857 34.4151 44.5857C34.4151 44.5857 33.8212 45.8796 33.5262 46.5247C32.2166 46.328 32.8065 47.5315 33.0425 47.6613L32.8104 48.2316L32.7908 48.2434C32.5155 47.8304 32.2441 47.4135 31.9884 47.0045C31.7485 46.7331 30.8518 46.3398 30.8518 46.3398H30.8479Z" fill="#FACDC1"/>
<path d="M33.966 32.7398C31.8147 31.4969 30.8118 30.0024 29.9032 28.5039C29.6201 28.7989 28.9082 29.5422 28.8335 29.6209C29.3919 29.7507 30.0173 29.8254 30.1392 30.1361C30.1785 30.8283 30.151 31.6582 29.9662 32.079C29.565 32.5392 28.6093 32.7988 27.9997 33.2078C27.9761 33.7663 27.9682 34.3208 27.9918 34.8793C27.9918 34.9147 28.6919 35.5322 29.0537 35.6974C28.9082 36.016 28.6565 36.2559 28.3654 36.4683C28.5306 36.5823 30.1982 40.4013 32.1647 41.6087C33.2856 42.2262 34.0211 43.115 34.6307 44.055C34.6464 44.0236 35.4684 42.5212 35.8657 41.7975C35.6376 41.7267 35.0279 41.7896 34.9139 41.8407C34.9611 41.7345 35.9837 41.3059 36.2747 41.0817C36.5422 40.6254 37.1006 39.4691 37.0849 39.3315C37.1478 39.1938 36.4281 39.2017 35.8342 38.9303C36.9001 38.7061 37.7063 38.3443 38.2923 37.8605L38.5755 37.3768C38.8272 37.4279 39.0003 37.4633 38.9688 37.5302C38.9845 37.6678 38.9885 37.7976 38.9767 37.9235C39.1655 37.6324 39.9678 36.3896 40.1763 36.0632C39.8341 36.3385 39.4172 36.5705 38.9295 36.7632L39.4919 35.7013L39.4998 35.6502C38.5008 34.4624 37.2501 33.255 35.732 32.0397C35.2443 32.315 34.5638 33.0072 33.97 32.7358L33.966 32.7398Z" fill="#FAD0C4"/>
<path d="M25.0311 71.4483C23.5956 71.7786 23.1787 73.0529 21.4599 73.167C18.3568 73.163 15.3244 71.4758 11.9893 70.6499C14.3845 67.7552 16.2212 64.6323 17.8062 61.3994C18.8406 62.7838 17.5702 63.9165 19.5092 65.4976C19.812 65.6195 20.2171 65.4543 20.5672 65.4347C21.165 66.6657 20.9526 68.2193 22.4629 68.8289C23.3871 69.2025 24.4844 69.348 25.7312 69.7099L25.625 70.0284C25.0626 70.1818 25.1963 70.8347 25.0272 71.4483H25.0311Z" fill="#F7B6A4"/>
<path d="M28.4055 65.6904L27.7802 68.1092C27.4892 67.999 27.206 67.9086 26.9307 67.8299C27.2374 66.9096 27.4774 65.9617 27.6465 64.9824C27.8785 65.2184 28.1302 65.4544 28.4055 65.6904Z" fill="#F8BEAC"/>
<path d="M20.5705 65.4311C20.2166 65.4507 19.8115 65.6159 19.5126 65.494C17.5736 63.9129 18.844 62.7802 17.8096 61.3958C18.4113 60.153 18.9737 58.8905 19.5126 57.6201C19.6699 57.9426 19.8311 58.2651 19.9885 58.5916C20.2598 57.8758 22.423 58.6112 22.6944 57.8994C24.0867 60.8924 23.5006 63.8736 26.4307 66.8509C26.2616 67.8302 26.0414 68.7859 25.7346 69.7063C24.4918 69.3444 23.3944 69.1989 22.4663 68.8253C20.952 68.2156 21.1684 66.6621 20.5705 65.4311Z" fill="#F8BEAC"/>
<path d="M22.6945 57.8991C22.4231 58.6109 20.26 57.8755 19.9886 58.5913C19.8273 58.2648 19.67 57.9423 19.5127 57.6198C20.1262 56.1489 20.7083 54.6622 21.2747 53.1716C21.3494 53.089 21.4241 53.0025 21.4831 52.9159C22.1635 51.8815 22.4113 50.8708 23.0721 49.915C23.9885 51.1343 24.9009 52.3456 25.7583 53.5531C23.5794 54.1981 21.609 55.083 20.1459 56.3376C20.6651 55.8893 22.1163 56.6641 22.5254 56.5068C24.5941 56.1567 28.3934 56.6955 29.6638 57.8361C29.0306 60.1251 28.4564 62.4377 27.8861 64.7543C27.4456 64.7464 26.7416 64.7071 26.6983 64.8251C26.6354 65.5134 26.5449 66.1898 26.4269 66.8545C23.4968 63.8733 24.0829 60.896 22.6906 57.903L22.6945 57.8991Z" fill="#F8C0B1"/>
<path d="M25.7594 53.5531C24.9059 52.3457 23.9895 51.1304 23.0731 49.9151C23.2423 49.6712 23.4389 49.4313 23.6749 49.1953C23.4114 49.0813 23.1479 48.9672 22.845 48.9515L23.0692 48.3458C23.3248 48.1727 24.3396 48.3458 23.3681 47.5238L23.6906 46.6743C24.1586 46.5287 24.7211 46.4973 25.429 46.6231L24.5323 46.2298C24.0525 45.6871 24.7683 45.6635 24.8823 45.3803C24.7211 45.3095 24.4733 45.1994 24.2884 45.0932C25.5588 44.0942 25.5745 41.8957 25.7161 41.5535C25.9482 41.4316 26.1684 41.2978 26.3651 41.1562C28.2922 42.7924 29.9284 44.4914 30.8448 46.3321C30.8448 46.3321 31.7415 46.7254 31.9814 46.9968C32.237 47.4058 32.5084 47.8227 32.7837 48.2357C30.6953 49.1167 31.4819 51.7557 31.474 51.8462L31.2499 52.5187C30.6363 53.7065 28.3198 54.9611 29.8104 57.2934L29.6609 57.8283C28.3906 56.6877 24.5913 56.1489 22.5225 56.4989C22.1135 56.6562 20.0447 56.8726 20.143 56.3298C21.1106 54.6583 25.901 53.498 25.7554 53.5452L25.7594 53.5531Z" fill="#F9C7B8"/>
<path d="M44.5899 11.9853C44.9989 11.6077 45.4119 11.2302 45.8327 10.8447C45.5692 11.3521 44.9989 11.71 45.5299 12.3157C45.1916 12.4258 45.054 12.6814 44.9202 12.9371C44.7393 12.6028 44.6371 12.2842 44.5859 11.9814L44.5899 11.9853Z" fill="#FDECE7"/>
<path d="M48.2903 14.9511L48.0819 15.3523C47.4959 15.0612 47.0514 14.5027 47.4841 14.3808C46.902 14.0898 47.3425 14.6483 47.0514 14.5027C46.2727 14.1173 46.3238 13.9482 46.5126 13.8145C47.8223 14.4673 49.0219 15.3129 48.9157 15.5135L48.778 15.781C48.5932 15.4978 48.5735 15.1871 48.2903 14.9511Z" fill="#FDECE7"/>
<path d="M44.9472 18.9583C44.4477 19.2218 43.7201 19.206 42.9335 19.328C42.0997 18.3015 41.0457 17.271 39.9326 16.2366C41.1361 15.2888 42.2295 14.3173 43.3386 13.3223C43.3897 13.6251 43.492 13.9437 43.6729 14.278C43.8066 14.0223 43.9404 13.7628 44.2825 13.6526C44.3848 13.7706 44.5264 13.8926 44.723 14.0302L44.7388 14.0381C44.546 14.1757 44.4988 14.3448 45.2736 14.7264C45.5686 14.8719 45.1242 14.3134 45.7102 14.6005C45.2736 14.7264 45.722 15.2848 46.308 15.5719L46.5204 15.1668C46.8075 15.4028 46.8272 15.7135 47.012 15.9967C46.426 17.1648 45.9069 18.3644 45.4231 19.5718C45.2658 19.3673 45.1085 19.1589 44.9511 18.9504L44.9472 18.9583Z" fill="#FDE8E3"/>
</g>
</g>
</g>
<g style="mix-blend-mode:multiply">
<g opacity="0.9">
<g opacity="0.9">
<path d="M25.6876 43.8037C25.2156 45.2353 24.8105 46.6945 24.4054 48.1536C24.256 47.7289 24.1104 47.308 23.961 46.8911C23.6503 45.55 25.1055 44.8735 25.6836 43.8037H25.6876Z" fill="#F9C7B8"/>
<path d="M27.067 39.9062C27.067 39.9062 27.0709 39.9141 27.0788 39.922C26.6383 40.9957 26.2568 42.093 25.8832 43.1942C25.895 43.1117 25.9028 43.033 25.9028 42.9465C25.7888 41.7154 25.9028 40.5788 27.067 39.9102V39.9062Z" fill="#F9C7B8"/>
<path d="M25.7033 18.5537C28.2715 21.0787 30.2341 23.5998 32.2793 26.0264C32.3068 26.4158 32.5585 26.931 32.4405 27.1906C32.5546 27.2299 31.9804 29.2082 31.5045 30.1325C30.478 28.9959 29.2037 27.8238 27.658 26.6478C27.19 26.8878 26.5449 27.5052 25.9511 27.2299C23.7918 26.0028 22.7535 24.5869 21.8057 23.1711C22.0023 22.9665 25.2077 20.4534 25.7033 18.5537Z" fill="#FBD8CF"/>
<path d="M28.1221 14.6331C28.8497 13.5908 30.6156 12.6154 31.2527 12.1553C32.3815 13.1503 33.4552 14.1375 34.3126 15.1208C35.0835 15.0342 35.8032 15.0736 36.2831 14.8494C36.4483 15.05 36.6095 15.2466 36.7708 15.4393C36.0314 17.3822 35.4021 19.3684 34.7964 21.3585C34.0609 20.863 30.2262 16.281 28.1221 14.6291V14.6331Z" fill="#FCE1DA"/>
<path d="M26.6618 18.0663C26.7051 17.559 26.7248 17.0949 26.7326 16.6504C27.1259 15.9504 27.5625 15.27 28.117 14.6328C30.2291 16.2807 31.9871 18.0034 33.1592 19.6238C33.2182 19.4979 34.111 19.7929 34.1739 19.6671C34.4295 20.5284 34.0559 20.8588 34.7874 21.3622C34.2093 23.1989 33.6508 25.0435 32.9546 26.8251C32.5495 26.1841 33.0176 25.9481 33.1946 25.5784C32.404 25.425 32.2467 25.6728 32.2742 26.0267C30.2291 23.6001 28.2665 21.0751 25.6982 18.554L25.891 18.1961C26.3079 18.2669 26.7208 18.3456 26.6579 18.0663H26.6618Z" fill="#FBDCD4"/>
<path d="M23.3554 39.7098C22.3918 37.9754 20.7242 36.3471 18.7695 34.766C19.1117 34.534 19.8472 34.1171 19.5168 33.4288C19.9219 32.6186 21.208 31.1162 20.5669 30.4869C19.9219 29.8576 23.0093 33.7631 24.4803 35.3757C25.6051 35.9853 26.3602 36.8348 26.9895 37.7276C26.844 37.8574 26.1793 37.3972 25.9984 37.5113C26.1007 37.5585 26.7968 38.2114 26.7968 38.2114C26.7968 38.2114 26.258 39.3873 25.9905 39.9733C24.6966 39.7452 25.318 40.8779 25.554 41.0117L25.3455 41.5308L25.3259 41.5426C25.0427 41.1493 24.7595 40.756 24.4921 40.3666C24.2443 40.1071 23.3515 39.7138 23.3515 39.7138L23.3554 39.7098Z" fill="#FACDC1"/>
<path d="M25.951 27.2307C23.7918 26.0036 22.7535 24.5878 21.8056 23.1719C21.5382 23.4354 20.8617 24.0961 20.7909 24.1669C21.3455 24.3046 21.9629 24.399 22.0927 24.6861C22.1557 25.3272 22.1557 26.0941 21.9865 26.4756C21.605 26.8886 20.6768 27.0931 20.0908 27.4549C20.0908 27.9701 20.0987 28.4854 20.138 29.0006C20.138 29.036 20.8499 29.6299 21.2117 29.7911C21.0819 30.0822 20.842 30.2946 20.5588 30.4833C20.724 30.5974 22.4978 34.1882 24.4722 35.3721C25.597 35.9817 26.3522 36.8312 26.9815 37.724C26.9972 37.6965 27.7563 36.3317 28.1181 35.6788C27.8939 35.6041 27.2961 35.6435 27.182 35.6867C27.2253 35.5923 28.2164 35.2305 28.4957 35.0338C28.7434 34.6209 29.2508 33.5708 29.2311 33.441C29.2862 33.3151 28.5822 33.2954 27.9883 33.028C29.0306 32.8589 29.8132 32.5521 30.3717 32.1234L30.6313 31.6868C30.883 31.7419 31.0521 31.7812 31.0246 31.8442C31.0482 31.974 31.0521 32.0919 31.0443 32.2099C31.2212 31.9464 31.9646 30.8255 32.1612 30.5305C31.8348 30.7744 31.4336 30.975 30.9577 31.1362L31.4769 30.1726L31.4847 30.1254C30.4622 28.9888 29.1879 27.8286 27.654 26.6526C27.186 26.8925 26.541 27.51 25.9471 27.2347L25.951 27.2307Z" fill="#FAD0C4"/>
<path d="M18.4938 62.7525C17.0936 63.0081 16.7278 64.1762 15.0366 64.2195C11.9846 64.1094 8.94047 62.4418 5.63281 61.5608C7.88643 58.9611 9.58942 56.1332 11.0368 53.1992C12.1026 54.5168 10.8912 55.5197 12.8538 57.0536C13.1567 57.1755 13.55 57.0378 13.8961 57.03C14.5253 58.1902 14.372 59.6218 15.8783 60.2393C16.8026 60.6169 17.8841 60.7899 19.123 61.1675L19.0286 61.4585C18.482 61.5844 18.6353 62.1901 18.4898 62.7525H18.4938Z" fill="#F7B6A4"/>
<path d="M21.6119 57.5427L21.0809 59.761C20.7899 59.6508 20.5107 59.5564 20.2354 59.4699C20.5067 58.6283 20.7073 57.7591 20.841 56.8584C21.077 57.0865 21.3327 57.3146 21.6119 57.5427Z" fill="#F8BEAC"/>
<path d="M13.8964 57.0348C13.5503 57.0427 13.157 57.1803 12.8542 57.0584C10.8916 55.5285 12.103 54.5255 11.0371 53.2041C11.5877 52.0713 12.0951 50.9229 12.5828 49.7666C12.7519 50.0694 12.9171 50.3762 13.0862 50.6791C13.3301 50.0262 15.4814 50.7813 15.7253 50.1324C17.2001 52.9523 16.7242 55.6897 19.7094 58.549C19.5796 59.4497 19.3948 60.3267 19.1234 61.1684C17.8845 60.7869 16.8029 60.6178 15.8786 60.2402C14.3684 59.6227 14.5257 58.1911 13.8964 57.0309V57.0348Z" fill="#F8BEAC"/>
<path d="M15.7255 50.1323C15.4816 50.7812 13.3303 50.0261 13.0864 50.6789C12.9173 50.3722 12.7521 50.0693 12.583 49.7665C13.1376 48.4253 13.6567 47.0684 14.1641 45.7076C14.2349 45.6329 14.3057 45.5542 14.3607 45.4756C14.9979 44.5395 15.2024 43.6153 15.8238 42.75C16.7677 43.9102 17.7077 45.0626 18.5926 46.211C16.4728 46.7302 14.5652 47.4853 13.169 48.5945C13.6646 48.1972 15.1198 48.9642 15.517 48.8344C17.5425 48.5827 21.2986 49.2119 22.5886 50.3092C22.0458 52.4055 21.5581 54.5254 21.0783 56.6532C20.6457 56.6335 19.9495 56.5706 19.9102 56.6768C19.8709 57.31 19.804 57.9354 19.7136 58.545C16.7284 55.6857 17.2004 52.9483 15.7294 50.1283L15.7255 50.1323Z" fill="#F8C0B1"/>
<path d="M18.5926 46.2156C17.7077 45.0671 16.7677 43.9148 15.8238 42.7545C15.9811 42.5343 16.166 42.3219 16.3901 42.1095C16.1266 41.9954 15.8631 41.8814 15.5681 41.8539L15.7687 41.3032C16.0126 41.1498 17.0194 41.3504 16.0362 40.556L16.3233 39.7812C16.7756 39.6632 17.3301 39.6514 18.0341 39.7969L17.1374 39.4036C16.6458 38.8844 17.3498 38.8884 17.456 38.6327C17.2947 38.5619 17.047 38.4518 16.8621 38.3456C18.0774 37.4646 18.0145 35.4313 18.1482 35.1166C18.3724 35.0104 18.5848 34.8964 18.7735 34.7705C20.7283 36.3516 22.3958 37.9798 23.3594 39.7143C23.3594 39.7143 24.2522 40.1115 24.5 40.3672C24.7635 40.7565 25.0467 41.1499 25.3338 41.5432C23.3083 42.2865 24.1736 44.7564 24.1696 44.8429L23.973 45.4604C23.4106 46.5381 21.1727 47.6197 22.7184 49.83L22.5886 50.3216C21.2985 49.2204 17.5425 48.5911 15.517 48.8468C15.1198 48.9765 13.0943 49.1063 13.169 48.6068C14.0618 47.0926 18.7381 46.1841 18.5926 46.2234V46.2156Z" fill="#F9C7B8"/>
<path d="M35.6885 8.38383C36.0778 8.04952 36.4711 7.71522 36.8723 7.37305C36.6285 7.83321 36.0818 8.14392 36.6285 8.726C36.2981 8.81646 36.1722 9.04851 36.0503 9.28056C35.8615 8.96592 35.7514 8.66701 35.6885 8.38383Z" fill="#FDECE7"/>
<path d="M39.4337 11.2546L39.241 11.6204C38.655 11.3333 38.1988 10.7984 38.6196 10.7001C38.0336 10.413 38.4898 10.9439 38.1988 10.7984C37.42 10.413 37.4633 10.2596 37.6442 10.1416C38.9539 10.7905 40.1653 11.6165 40.0709 11.7974L39.945 12.0412C39.7523 11.7738 39.7208 11.4828 39.4337 11.2546Z" fill="#FDECE7"/>
<path d="M36.2823 14.8494C35.8024 15.0735 35.0827 15.0342 34.3118 15.1207C33.4544 14.1414 32.3847 13.1503 31.252 12.1552C32.4043 11.3215 33.4466 10.4601 34.5046 9.5752C34.5675 9.85837 34.6776 10.1533 34.8664 10.4719C34.9883 10.2399 35.1142 10.0039 35.4445 9.91343C35.5507 10.0236 35.6923 10.1455 35.889 10.2792L35.9047 10.2871C35.7199 10.4051 35.6766 10.5624 36.4553 10.9439C36.7503 11.0894 36.2941 10.5545 36.8801 10.8456C36.4553 10.9439 36.9155 11.4788 37.5015 11.7659L37.6942 11.4001C37.9853 11.6282 38.0128 11.9153 38.2055 12.1867C37.6667 13.2486 37.1987 14.3381 36.766 15.4432C36.6048 15.2466 36.4435 15.0499 36.2783 14.8533L36.2823 14.8494Z" fill="#FDE8E3"/>
</g>
</g>
</g>
<g style="mix-blend-mode:multiply">
<g opacity="0.9">
<g opacity="0.9">
<path d="M19.1503 40.6436C18.7256 42.0988 18.3834 43.5854 18.0451 45.0761C17.8131 44.612 17.585 44.1557 17.3608 43.7034C16.8299 42.26 18.5564 41.7094 19.1503 40.6475V40.6436Z" fill="#F9C7B8"/>
<path d="M20.4367 36.6982C20.4367 36.6982 20.4445 36.71 20.4524 36.714C20.0276 37.7955 19.6737 38.9047 19.3354 40.0216C19.3394 39.939 19.3433 39.8525 19.3354 39.7621C19.0641 38.4563 19.0798 37.2764 20.4406 36.6982H20.4367Z" fill="#F9C7B8"/>
<path d="M16.4219 14.1152C19.8672 17.0453 22.5692 19.9086 25.3577 22.6853C25.4364 23.0982 25.8021 23.6646 25.6802 23.9281C25.8257 23.9832 25.3341 25.9969 24.8464 26.9172C23.4581 25.6114 21.7511 24.2427 19.7178 22.8347C19.1632 23.0353 18.4356 23.6135 17.6726 23.2595C14.8723 21.7374 13.4328 20.1327 12.1113 18.5438C12.3355 18.3511 16.0168 16.0621 16.418 14.1192L16.4219 14.1152Z" fill="#FBD8CF"/>
<path d="M18.9814 10.2605C19.768 9.24579 21.8407 8.41199 22.5801 7.99902C24.0826 9.16713 25.5142 10.3234 26.6823 11.4483C27.6262 11.4404 28.5151 11.5623 29.0853 11.3775C29.3095 11.6056 29.5298 11.8298 29.75 12.05C29.046 14.0126 28.4915 16.0302 27.9566 18.0557C26.993 17.454 21.7582 12.2231 18.9814 10.2605Z" fill="#FCE1DA"/>
<path d="M17.5546 13.71C17.5546 13.183 17.5231 12.6953 17.4877 12.2272C17.8968 11.535 18.3609 10.8664 18.9784 10.2607C21.7669 12.2233 24.1267 14.2252 25.751 16.0541C25.8139 15.9282 26.9466 16.3333 27.0096 16.2114C27.4186 17.1435 26.9978 17.4542 27.9535 18.0599C27.4383 19.9281 26.9506 21.8041 26.282 23.6015C25.7117 22.8818 26.2662 22.6891 26.4432 22.3154C25.4521 22.0676 25.283 22.3154 25.3538 22.6891C22.5613 19.9163 19.8633 17.053 16.418 14.119L16.6186 13.7651C17.1416 13.883 17.6608 14.0128 17.5507 13.71H17.5546Z" fill="#FBDCD4"/>
<path d="M15.8283 36.089C14.4478 34.1579 12.21 32.2661 9.62598 30.394C10.0232 30.1856 10.8845 29.8277 10.4047 29.0725C10.8177 28.2623 12.2375 26.8268 11.3801 26.0952C10.5148 25.3637 14.7546 29.8041 16.7487 31.6565C18.2039 32.4195 19.2265 33.3949 20.1035 34.3978C19.9383 34.5197 19.0652 33.9613 18.8568 34.0596C18.9905 34.1186 19.9187 34.8855 19.9187 34.8855C19.9187 34.8855 19.3798 36.0615 19.1124 36.6514C17.4881 36.2739 18.3769 37.5285 18.6876 37.6937L18.487 38.2168L18.4635 38.2246C18.0701 37.7802 17.6768 37.3358 17.3071 36.8992C16.9768 36.6003 15.8283 36.0851 15.8283 36.0851V36.089Z" fill="#FACDC1"/>
<path d="M17.673 23.2596C14.8727 21.7376 13.4333 20.1329 12.1118 18.5439C11.8089 18.7917 11.0499 19.4131 10.9673 19.48C11.6673 19.6885 12.4382 19.8497 12.6349 20.1683C12.7843 20.8487 12.8669 21.655 12.7017 22.0365C12.277 22.4258 11.1521 22.5438 10.4678 22.8585C10.5189 23.4012 10.5897 23.94 10.6959 24.4907C10.6998 24.5261 11.6437 25.2261 12.1078 25.4385C11.978 25.7296 11.7067 25.9262 11.3763 26.0914C11.5926 26.229 14.1766 30.1935 16.7449 31.6527C18.2001 32.4157 19.2227 33.3911 20.0997 34.394C20.1154 34.3664 20.902 33.0174 21.2796 32.3685C20.9925 32.2662 20.261 32.2426 20.1272 32.2741C20.1666 32.1758 21.3583 31.9083 21.6769 31.7313C21.9364 31.3262 22.4517 30.2761 22.4123 30.1385C22.4674 30.0126 21.5943 29.9182 20.8313 29.5682C22.0977 29.5052 23.0298 29.2653 23.6748 28.876L23.9501 28.4433C24.2648 28.5299 24.4811 28.5889 24.4496 28.6518C24.489 28.7894 24.5126 28.9153 24.5165 29.0372C24.7053 28.7776 25.5037 27.6843 25.7121 27.3932C25.3346 27.6135 24.8626 27.7826 24.2923 27.8966L24.8272 26.9409V26.8937C23.4428 25.5919 21.7437 24.2311 19.7182 22.827C19.1637 23.0276 18.4361 23.6057 17.673 23.2518V23.2596Z" fill="#FAD0C4"/>
<path d="M15.6234 54.6324L15.2104 56.9057C14.8407 56.7562 14.4828 56.6264 14.1367 56.5085C14.3806 55.655 14.534 54.7622 14.5969 53.8301C14.9115 54.0936 15.2537 54.361 15.6234 54.6324Z" fill="#F8BEAC"/>
<path d="M6.03859 53.2571C5.61382 53.2256 5.14186 53.3279 4.75642 53.1666C2.1685 51.3456 3.55292 50.4214 2.08984 48.919C2.6444 47.7902 3.14782 46.6378 3.62372 45.4736C3.86363 45.8119 4.10354 46.1501 4.34346 46.4884C4.57551 45.8276 7.31288 46.8581 7.541 46.2012C9.66875 49.324 9.38164 52.148 13.3776 55.4792C13.3147 56.4113 13.1809 57.312 12.941 58.1694C11.3717 57.6345 10.0149 57.3356 8.83102 56.84C6.89991 56.0298 6.93531 54.5392 6.03072 53.2531L6.03859 53.2571Z" fill="#F8BEAC"/>
<path d="M7.54423 46.204C7.31612 46.8608 4.57481 45.8304 4.34669 46.4911C4.10678 46.149 3.86687 45.8147 3.62695 45.4764C4.16578 44.1274 4.66133 42.7587 5.13723 41.3861C5.21982 41.3153 5.29455 41.2406 5.35354 41.1658C6.03789 40.2534 6.19128 39.3016 6.85989 38.4639C8.14991 39.7854 9.43994 41.099 10.6552 42.4008C8.09092 42.7155 5.81764 43.2975 4.2169 44.3162C4.78719 43.9543 6.66324 44.9179 7.14306 44.8235C9.61693 44.7803 14.3208 45.8501 16.0356 47.144C15.5951 49.2875 15.2254 51.4625 14.8596 53.6414C14.3208 53.5706 13.4595 53.429 13.4201 53.5391C13.4398 54.1998 13.428 54.8488 13.3808 55.482C9.38095 52.1507 9.66806 49.3268 7.54423 46.204Z" fill="#F8C0B1"/>
<path d="M10.6566 42.402C9.4413 41.1002 8.15127 39.7866 6.86124 38.4651C7.03036 38.2527 7.23488 38.0443 7.49053 37.8515C7.15229 37.7021 6.81405 37.5566 6.44828 37.4936L6.63313 36.9352C6.92024 36.8014 8.18274 37.12 6.88091 36.1761L7.15229 35.3934C7.69898 35.3187 8.38332 35.3659 9.26431 35.594L8.11194 35.0827C7.44726 34.4849 8.31646 34.5635 8.41872 34.304C8.2142 34.2135 7.89563 34.0719 7.65571 33.9382C9.0598 33.1477 8.76089 31.0002 8.89068 30.6856C9.15812 30.5991 9.4059 30.5047 9.62615 30.3906C12.2101 32.2627 14.448 34.1545 15.8285 36.0856C15.8285 36.0856 16.9769 36.5969 17.3073 36.8998C17.677 37.3363 18.0703 37.7807 18.4636 38.2252C16.0448 38.7837 17.3781 41.4778 17.386 41.5643L17.209 42.1897C16.6348 43.2634 13.9879 44.1562 16.1392 46.6418L16.033 47.1413C14.3222 45.8434 9.61435 44.7736 7.14049 44.8208C6.66459 44.9152 4.175 44.8287 4.21433 44.3135C5.15038 42.8189 10.8257 42.3784 10.6527 42.3981L10.6566 42.402Z" fill="#F9C7B8"/>
<path d="M33.4286 8.58524L33.2988 8.82516C33.0353 8.52232 32.9645 8.21554 32.583 7.94416L32.3863 8.306C31.6312 7.94023 31.0098 7.33061 31.5171 7.27162C30.762 6.90585 31.3834 7.51546 31.0098 7.33061" fill="#FDECE7"/>
</g>
</g>
</g>
<g style="mix-blend-mode:multiply">
<g opacity="0.9">
<g opacity="0.9">
<path d="M49.5244 13.2773C50.5549 13.6942 51.6246 14.0521 52.6905 14.4101C52.3247 14.5556 51.9629 14.7011 51.605 14.8427C50.4841 15.1534 50.2481 13.8004 49.5244 13.2773Z" fill="#F9C7B8"/>
<path d="M46.7354 12.0421C46.7354 12.0421 46.7432 12.0381 46.7472 12.0303C47.5023 12.4236 48.2889 12.7657 49.0795 13.0961C49.0165 13.0883 48.9536 13.0804 48.8867 13.0804C47.8917 13.2062 47.0225 13.1158 46.7314 12.0381L46.7354 12.0421Z" fill="#F9C7B8"/>
<path d="M29.6309 13.6544C32.1441 11.212 34.5353 9.33205 36.8676 7.38127C37.1783 7.34981 37.6385 7.10596 37.8194 7.21215C37.8744 7.10596 39.3139 7.60939 39.9432 8.04202C38.838 9.01741 37.6542 10.2327 36.4074 11.6958C36.5018 12.1323 36.8558 12.7262 36.5176 13.2847C35.1095 15.326 33.7802 16.321 32.4705 17.2295C32.3486 17.0486 31.0271 14.0871 29.6309 13.6544Z" fill="#FBD8CF"/>
<path d="M27.0392 11.4523C26.3706 10.7876 25.9576 9.14757 25.7295 8.55762Z" fill="#FCE1DA"/>
<path d="M36.8677 7.38184C34.5354 9.33654 32.148 11.2126 29.6309 13.655L29.391 13.478C29.5326 13.0847 29.6781 12.6993 29.4461 12.7622C29.0567 12.7307 28.6949 12.7189 28.3448 12.715C27.8729 12.3571 27.4245 11.9599 27.0391 11.4486" fill="#FBDCD4"/>
<path d="M37.6352 6.73284C37.0453 7.1222 36.9588 6.68564 36.7031 6.52832Z" fill="#FBDCD4"/>
<path d="M45.8239 15.5269C44.2586 16.4551 42.6342 18.044 40.9902 19.8964C40.8762 19.5779 40.6992 18.8975 40.0896 19.216C39.535 18.8503 38.6108 17.6704 37.9854 18.28C37.3601 18.8935 41.065 15.9398 42.6382 14.5397C43.3501 13.4778 44.1721 12.758 45.0058 12.1523C45.0806 12.2861 44.5771 12.9153 44.6322 13.0845C44.6912 12.9861 45.348 12.3254 45.348 12.3254C45.348 12.3254 46.1661 12.8131 46.5712 13.053C46.1268 14.2683 47.1454 13.6705 47.2988 13.4463L47.6646 13.6312V13.6508C47.3027 13.9222 46.933 14.1936 46.5712 14.4492C46.3155 14.6852 45.82 15.5269 45.82 15.5269H45.8239Z" fill="#FACDC1"/>
<path d="M36.5217 13.289C35.1137 15.3302 33.7843 16.3253 32.4746 17.2338C32.628 17.4816 33.0095 18.103 33.0528 18.1698C33.2769 17.6507 33.4736 17.0725 33.7292 16.9427C34.2484 16.8719 34.8501 16.8601 35.1176 17.0135C35.3654 17.3636 35.3378 18.2288 35.4991 18.7716C35.9042 18.7677 36.3132 18.748 36.7262 18.7008C36.7537 18.7008 37.3673 18.0243 37.5718 17.6821C37.7763 17.8001 37.8904 18.0204 37.9808 18.28C38.1027 18.1226 41.2964 16.4079 42.6336 14.5397C43.3454 13.4778 44.1674 12.758 45.0012 12.1523C44.9816 12.1366 44.0613 11.4523 43.6208 11.118C43.5185 11.3303 43.4241 11.8888 43.4359 11.995C43.369 11.9557 43.2865 11.0314 43.1881 10.7758C42.9128 10.5516 42.1891 10.0914 42.0869 10.1111C42.0004 10.06 41.8391 10.7207 41.5048 11.2831C41.5835 10.3117 41.5048 9.58408 41.2767 9.06492L40.9856 8.82894C41.08 8.59296 41.1469 8.43171 41.1902 8.45924C41.2964 8.43564 41.3907 8.42778 41.4812 8.43564C41.3082 8.27439 40.5805 7.59398 40.3878 7.41699C40.5137 7.71983 40.5884 8.09347 40.6199 8.53397L39.967 8.06594H39.9316C38.8264 9.03739 37.6504 10.2448 36.4116 11.704C36.5059 12.1405 36.8599 12.7344 36.5217 13.2929V13.289Z" fill="#FAD0C4"/>
<path d="M62.9835 19.7148C62.9009 21.0205 63.7425 21.347 63.4318 22.9281C62.72 25.7874 60.7849 28.6624 59.4123 31.7734C57.8273 29.7007 55.9473 28.155 53.9297 26.8453C55.1883 25.8267 55.731 26.9437 57.3357 25.0833C57.493 24.8002 57.4655 24.4344 57.5323 24.108C58.5746 23.4983 59.6719 23.6242 60.4663 22.2005C60.954 21.3313 61.308 20.3126 61.8626 19.1484L62.071 19.231C62.0553 19.7423 62.5666 19.5889 62.9795 19.7148H62.9835Z" fill="#F7B6A4"/>
<path d="M59.5135 16.876L61.1536 17.3401C61.0081 17.6114 60.8743 17.8789 60.7524 18.1345C60.1428 17.8946 59.5017 17.7176 58.8174 17.6114C59.0455 17.3873 59.2775 17.1434 59.5135 16.876Z" fill="#F8BEAC"/>
<path d="M57.5349 24.1085C57.472 24.431 57.4995 24.7967 57.3383 25.0838C55.7297 26.9442 55.1869 25.8272 53.9323 26.8458C53.1536 26.3503 52.3512 25.8901 51.541 25.4535C51.8163 25.2923 52.0877 25.131 52.363 24.9698C51.8989 24.7495 52.9333 22.724 52.4731 22.5077C54.9942 21.084 57.0551 21.4851 59.9223 18.6455C60.6066 18.7556 61.2595 18.913 61.8652 19.1529C61.3145 20.317 60.9566 21.3357 60.469 22.2049C59.6745 23.6286 58.5772 23.5028 57.5349 24.1124V24.1085Z" fill="#F8BEAC"/>
<path d="M52.473 22.5047C52.9371 22.721 51.8988 24.7465 52.3629 24.9668C52.0876 25.128 51.8123 25.2893 51.5409 25.4505C50.597 24.955 49.6373 24.4869 48.6659 24.0307C48.6226 23.9638 48.5754 23.9009 48.5243 23.8498C47.9186 23.2677 47.2303 23.0907 46.6758 22.5244C47.781 21.6237 48.8822 20.723 49.9677 19.8774C49.9441 21.8557 50.1447 23.6295 50.7346 24.9196C50.5262 24.4633 51.4269 23.0907 51.4033 22.7171C51.6196 20.8253 52.8821 17.2974 54.0148 16.0742C55.5565 16.5501 57.1258 16.9709 58.7029 17.3878C58.5967 17.7929 58.404 18.4458 58.4827 18.4812C58.9743 18.5088 59.4502 18.5599 59.9143 18.6346C57.0511 21.4742 54.9902 21.0731 52.4652 22.4968L52.473 22.5047Z" fill="#F8C0B1"/>
<path d="M49.9732 19.8803C48.8877 20.7259 47.7864 21.6226 46.6812 22.5272C46.5397 22.3817 46.4099 22.2126 46.2919 22.008C46.1464 22.2558 46.0048 22.5036 45.9222 22.7828L45.5289 22.6059C45.4581 22.3777 45.8199 21.4338 44.994 22.3659L44.4434 22.1064C44.4434 21.6816 44.5456 21.1624 44.8052 20.5056L44.3136 21.3512C43.8023 21.8193 43.9517 21.1624 43.7708 21.068C43.6843 21.2175 43.5466 21.4535 43.4247 21.6265C42.9803 20.5017 41.3638 20.5922 41.1436 20.4742C41.1082 20.2657 41.061 20.0691 40.998 19.896C42.642 18.0436 44.2664 16.4546 45.8317 15.5264C45.8317 15.5264 46.3273 14.6808 46.5829 14.4488C46.9448 14.1931 47.3105 13.9218 47.6802 13.6504C47.8494 15.5343 49.9771 14.6887 50.04 14.6887L50.4845 14.8657C51.2199 15.373 51.6132 17.4536 53.6702 15.9709L54.032 16.0849C52.8993 17.3081 51.6368 20.836 51.4205 22.7278C51.4441 23.0975 51.1295 24.9932 50.7519 24.9303C49.7411 24.1161 49.985 19.7544 49.985 19.8881L49.9732 19.8803Z" fill="#F9C7B8"/>
</g>
</g>
</g>
<g style="mix-blend-mode:multiply">
<g opacity="0.9">
<g opacity="0.9">
<path d="M53.792 8.6377C54.8224 9.05459 55.8922 9.4125 56.9581 9.7704C56.5923 9.91592 56.2305 10.0614 55.8726 10.203C54.7516 10.5137 54.5157 9.16079 53.792 8.6377Z" fill="#F9C7B8"/>
<path d="M51.003 7.4034C51.003 7.4034 51.0108 7.39947 51.0148 7.3916C51.7699 7.7849 52.5565 8.12707 53.347 8.45745C53.2841 8.44958 53.2212 8.44172 53.1543 8.44172C52.1593 8.56757 51.2901 8.47711 50.999 7.39947L51.003 7.4034Z" fill="#F9C7B8"/>
<path d="M40.6789 7.05664C40.7733 7.4932 41.1273 8.08709 40.789 8.64558C39.381 10.6868 38.0517 11.6819 36.742 12.5904C36.6201 12.4095 35.2986 9.44791 33.9023 9.01528" fill="#FBD8CF"/>
<path d="M50.0905 10.8843C48.5252 11.8125 46.9008 13.4014 45.2568 15.2539C45.1428 14.9353 44.9658 14.2549 44.3562 14.5735C43.8016 14.2077 42.8774 13.0278 42.252 13.6374C41.6267 14.2509 45.3316 11.2973 46.9048 9.8971C47.6166 8.83519 48.4386 8.11545 49.2724 7.50977C49.3472 7.64349 48.8437 8.27277 48.8988 8.44189C48.9578 8.34356 49.6146 7.68282 49.6146 7.68282C49.6146 7.68282 50.4327 8.17051 50.8378 8.41042C50.3934 9.62572 51.412 9.02791 51.5654 8.80373L51.9312 8.98858V9.00824C51.5693 9.27962 51.1996 9.551 50.8378 9.80664C50.5821 10.0426 50.0866 10.8843 50.0866 10.8843H50.0905Z" fill="#FACDC1"/>
<path d="M40.6782 7.05707C40.7725 7.49363 41.1265 8.08752 40.7883 8.64601C39.3803 10.6872 38.0509 11.6823 36.7412 12.5908C36.8946 12.8386 37.2761 13.46 37.3194 13.5269C37.5435 13.0077 37.7402 12.4296 37.9958 12.2998C38.515 12.229 39.1167 12.2172 39.3842 12.3706C39.632 12.7206 39.6044 13.5859 39.7657 14.1286C40.1708 14.1247 40.5798 14.105 40.9928 14.0578C41.0203 14.0578 41.6339 13.3814 41.8384 13.0392C42.0429 13.1572 42.157 13.3774 42.2474 13.637C42.3693 13.4797 45.563 11.7649 46.9002 9.8967C47.6121 8.83479 48.4341 8.11505 49.2678 7.50937C49.2482 7.49363 48.3279 6.80929 47.8874 6.47498C47.7851 6.68737 47.6907 7.24585 47.7025 7.35205C47.6357 7.31272 47.5531 6.38846 47.4547 6.13281" fill="#FAD0C4"/>
<path d="M67.2501 15.0771C67.1675 16.3829 68.0092 16.7093 67.6984 18.2904C66.9866 21.1497 65.0515 24.0247 63.6789 27.1357C62.0939 25.063 60.2139 23.5173 58.1963 22.2076C59.4549 21.189 59.9976 22.306 61.6023 20.4457C61.7596 20.1625 61.7321 19.7967 61.7989 19.4703C62.8412 18.8607 63.9385 18.9865 64.7329 17.5628C65.2206 16.6936 65.5746 15.6749 66.1292 14.5107L66.3376 14.5933C66.3219 15.1046 66.8332 14.9512 67.2461 15.0771H67.2501Z" fill="#F7B6A4"/>
<path d="M63.786 12.2363L65.426 12.7004C65.2805 12.9718 65.1468 13.2392 65.0249 13.4949C64.4153 13.255 63.7742 13.078 63.0898 12.9718C63.318 12.7476 63.55 12.5038 63.786 12.2363Z" fill="#F8BEAC"/>
<path d="M61.8035 19.4688C61.7406 19.7913 61.7681 20.1571 61.6068 20.4442C59.9982 22.3045 59.4555 21.1875 58.2008 22.2062C57.4221 21.7106 56.6198 21.2505 55.8096 20.8139C56.0849 20.6526 56.3563 20.4914 56.6316 20.3301C56.1675 20.1099 57.2019 18.0844 56.7417 17.8681C59.2628 16.4443 61.3236 16.8455 64.1908 14.0059C64.8752 14.116 65.528 14.2733 66.1337 14.5132C65.5831 15.6774 65.2252 16.696 64.7375 17.5652C63.943 18.989 62.8457 18.8631 61.8035 19.4727V19.4688Z" fill="#F8BEAC"/>
<path d="M56.7416 17.865C57.2057 18.0814 56.1674 20.1069 56.6315 20.3271C56.3562 20.4884 56.0808 20.6496 55.8095 20.8109C54.8655 20.3153 53.9059 19.8473 52.9344 19.391C52.8912 19.3242 52.844 19.2613 52.7928 19.2101C52.1872 18.628 51.4989 18.4511 50.9443 17.8847C52.0495 16.984 53.1508 16.0834 54.2363 15.2378C54.2127 17.2161 54.4132 18.9899 55.0032 20.2799C54.7948 19.8237 55.6954 18.4511 55.6718 18.0774C55.8881 16.1856 57.1506 12.6577 58.2833 11.4346C59.8251 11.9105 61.3943 12.3313 62.9715 12.7482C62.8653 13.1533 62.6726 13.8062 62.7512 13.8416C63.2429 13.8691 63.7188 13.9202 64.1829 13.995C61.3196 16.8346 59.2587 16.4334 56.7337 17.8572L56.7416 17.865Z" fill="#F8C0B1"/>
<path d="M54.2398 15.2416C53.1543 16.0872 52.053 16.9839 50.9478 17.8885C50.8063 17.743 50.6765 17.5739 50.5585 17.3694C50.413 17.6171 50.2714 17.8649 50.1888 18.1442L49.7955 17.9672C49.7247 17.7391 50.0865 16.7951 49.2606 17.7273L48.71 17.4677C48.71 17.0429 48.8122 16.5238 49.0718 15.867L48.5802 16.7126C48.0689 17.1806 48.2183 16.5238 48.0374 16.4294C47.9509 16.5788 47.8132 16.8148 47.6913 16.9879C47.2469 15.863 45.6304 15.9535 45.4102 15.8355C45.3748 15.627 45.3276 15.4304 45.2646 15.2573C46.9086 13.4049 48.533 11.816 50.0983 10.8878C50.0983 10.8878 50.5939 10.0422 50.8495 9.81012C51.2114 9.55447 51.5771 9.2831 51.9468 9.01172C52.116 10.8956 54.2437 10.05 54.3066 10.05L54.7511 10.227C55.4865 10.7344 55.8798 12.8149 57.9368 11.3322L58.2986 11.4463C57.1659 12.6694 55.9034 16.1973 55.6871 18.0891C55.7107 18.4588 55.3961 20.3545 55.0185 20.2916C54.0077 19.4775 54.2516 15.1158 54.2516 15.2495L54.2398 15.2416Z" fill="#F9C7B8"/>
</g>
</g>
</g>
<g style="mix-blend-mode:multiply">
<g opacity="0.9">
<g opacity="0.9">
<path d="M72.6386 29.6904C72.9218 30.3118 73.2443 30.9254 73.5708 31.535C73.3466 31.4446 73.1224 31.358 72.9022 31.2676C72.2729 30.9333 72.7409 30.2293 72.6386 29.6904Z" fill="#F9C7B8"/>
<path d="M71.9179 27.9609C71.9179 27.9609 71.9258 27.9609 71.9297 27.9609C72.0989 28.4565 72.3034 28.9403 72.5158 29.424C72.4922 29.3926 72.4686 29.365 72.4371 29.3375C71.9415 28.9717 71.5915 28.5627 71.9179 27.9609Z" fill="#F9C7B8"/>
<path d="M63.6189 21.4436C65.7702 21.42 67.6305 21.593 69.4948 21.711C69.6482 21.829 69.955 21.9155 69.9904 22.0375C70.0611 22.0139 70.4859 22.8477 70.5842 23.3078C69.6796 23.2764 68.6374 23.3157 67.4654 23.4416C67.3238 23.6736 67.2294 24.0905 66.84 24.1967C65.3494 24.5113 64.3347 24.3894 63.3711 24.24C63.3947 24.1062 64.0594 22.2302 63.6189 21.4475V21.4436Z" fill="#FBD8CF"/>
<path d="M63.3994 19.3626C63.3837 18.7805 63.895 17.8798 64.0405 17.5219C64.9451 17.4747 65.8222 17.4433 66.5891 17.4787C66.9352 17.1955 67.2971 16.9713 67.4504 16.7393C67.5999 16.7511 67.7494 16.7629 67.8988 16.7707C68.2331 17.6517 68.6382 18.5052 69.0512 19.3547C68.5163 19.4373 65.008 19.2053 63.3955 19.3626H63.3994Z" fill="#FCE1DA"/>
<path d="M63.9153 20.9675C63.754 20.7866 63.5967 20.6292 63.4433 20.4798C63.3843 20.1219 63.3528 19.7561 63.3961 19.3628C65.0126 19.2016 66.4874 19.1858 67.6359 19.3235C67.6202 19.2645 68.159 19.0639 68.1472 19.001C68.5798 19.1976 68.5169 19.4297 69.0518 19.351C69.4254 20.1415 69.8148 20.9282 70.1098 21.7423C69.6811 21.6676 69.8266 21.4355 69.7794 21.2546C69.3389 21.467 69.3507 21.5968 69.4923 21.7069C67.628 21.5889 65.7677 21.4158 63.6163 21.4394L63.5849 21.2585C63.813 21.1445 64.045 21.0343 63.9113 20.9635L63.9153 20.9675Z" fill="#FBDCD4"/>
<path d="M70.0391 29.1246C68.9497 28.8768 67.5535 28.8965 66.0353 29.0263C66.1179 28.8375 66.3264 28.4599 65.9213 28.3419C65.8308 27.9447 65.9173 27.0283 65.3785 27.0362C64.8397 27.044 67.7383 27.2997 69.0323 27.339C69.7992 27.166 70.4678 27.1935 71.0971 27.2761C71.0735 27.3666 70.5819 27.4374 70.5347 27.5317C70.6015 27.5121 71.1758 27.4963 71.1758 27.4963L71.4117 28.338C70.6999 28.692 71.4078 28.8572 71.5691 28.8218L71.6556 29.0617V29.0735C71.3724 29.0381 71.0932 29.0027 70.8257 28.9634C70.6133 28.9634 70.0352 29.1246 70.0352 29.1246H70.0391Z" fill="#FACDC1"/>
<path d="M66.8449 24.1922C65.3542 24.5069 64.3395 24.3849 63.3759 24.2355C63.3405 24.4085 63.2461 24.849 63.2383 24.8962C63.5569 24.7586 63.8912 24.5855 64.0603 24.6366C64.3199 24.8254 64.5952 25.0771 64.6502 25.2541C64.6109 25.5137 64.2333 25.8873 64.076 26.198C64.2609 26.3672 64.4497 26.5324 64.6542 26.6857C64.666 26.6975 65.2244 26.6543 65.4604 26.5913C65.4998 26.729 65.4604 26.8785 65.3896 27.0318C65.5116 27.0161 67.659 27.6021 69.0434 27.3347C69.8103 27.1616 70.479 27.1892 71.1082 27.2718C71.1082 27.256 70.9863 26.5638 70.9312 26.2295C70.7936 26.2806 70.5183 26.4891 70.479 26.5402C70.4632 26.497 70.8211 26.0486 70.8841 25.8952C70.8565 25.6789 70.7307 25.1676 70.6756 25.1322C70.6599 25.0732 70.3059 25.3013 69.9205 25.4075C70.3688 25.0063 70.6363 24.6484 70.7582 24.3259L70.7307 24.0978C70.8723 24.0349 70.9706 23.9877 70.9784 24.0192C71.0335 24.0546 71.0807 24.09 71.12 24.1293C71.1122 23.9838 71.0728 23.3741 71.065 23.2129C70.9942 23.4017 70.8683 23.5983 70.6953 23.8068L70.6048 23.323L70.593 23.3073C69.6884 23.2758 68.654 23.3151 67.4859 23.441C67.3443 23.6731 67.2499 24.09 66.8606 24.1961L66.8449 24.1922Z" fill="#FAD0C4"/>
<path d="M75.9103 38.2491C75.3203 38.7958 75.5563 39.2952 74.75 39.8695C73.224 40.8409 71.1434 41.3011 69.2202 42.1073C69.3893 40.5145 69.2084 39.0278 68.8623 37.5923C69.8534 37.6709 69.6214 38.3985 71.1238 38.2491C71.3165 38.1901 71.4581 38.0131 71.6233 37.899C72.3469 38.0681 72.7796 38.5873 73.7353 38.2923C74.3213 38.1114 74.9113 37.8086 75.6467 37.5254L75.7057 37.6512C75.4855 37.8715 75.7765 38.0209 75.9063 38.2491H75.9103Z" fill="#F7B6A4"/>
<path d="M75.5638 35.5195L76.0987 36.4202C75.9178 36.4792 75.7487 36.5421 75.5835 36.605C75.4143 36.2393 75.202 35.8892 74.9424 35.551C75.139 35.551 75.3436 35.5353 75.5638 35.5195Z" fill="#F8BEAC"/>
<path d="M71.6236 37.9032C71.4584 38.0212 71.3168 38.1943 71.1241 38.2533C69.6217 38.4027 69.8498 37.6751 68.8626 37.5964C68.725 37.0458 68.5637 36.5031 68.3867 35.9642C68.5755 36.0075 68.7682 36.0508 68.957 36.098C68.8429 35.803 70.1605 35.3389 70.0464 35.0479C71.773 35.4805 72.5203 36.5306 74.9981 36.4795C75.2577 36.8177 75.4819 37.1638 75.651 37.5296C74.9116 37.8128 74.3216 38.1156 73.7395 38.2965C72.7838 38.5954 72.3473 38.0763 71.6275 37.9032H71.6236Z" fill="#F8BEAC"/>
<path d="M70.046 35.044C70.16 35.335 68.8425 35.7991 68.9565 36.0941C68.7638 36.0508 68.575 36.0076 68.3862 35.9604C68.1778 35.339 67.9457 34.7254 67.7058 34.1119C67.7137 34.0647 67.7215 34.0175 67.7176 33.9703C67.694 33.4551 67.462 33.0853 67.4541 32.5977C68.3272 32.6645 69.2004 32.7314 70.0381 32.814C69.1886 33.6832 68.5317 34.5602 68.2486 35.3862C68.3469 35.0951 69.3301 34.8631 69.4796 34.69C70.3763 33.9388 72.4294 32.9044 73.4519 32.8376C73.9357 33.7028 74.4588 34.5524 74.9819 35.4058C74.7616 35.5435 74.4037 35.7519 74.4234 35.7991C74.6318 36.0194 74.8206 36.2436 74.9976 36.4756C72.5198 36.5267 71.7725 35.4766 70.046 35.044Z" fill="#F8C0B1"/>
<path d="M70.0421 32.8171C69.2005 32.7345 68.3313 32.6676 67.4582 32.6008C67.4582 32.4789 67.47 32.3451 67.5054 32.2036C67.3362 32.2547 67.1671 32.3019 67.0137 32.3923L66.9115 32.1446C66.9744 32.0148 67.5368 31.7473 66.7738 31.8103L66.6362 31.4602C66.8131 31.2714 67.0806 31.0866 67.4739 30.9017L66.8957 31.0708C66.471 31.063 66.8131 30.8309 66.7738 30.7129C66.6716 30.7444 66.5103 30.7877 66.3844 30.8152C66.6637 30.1269 65.9046 29.4819 65.8574 29.3364C65.9282 29.2263 65.9911 29.1201 66.0383 29.0178C67.5565 28.888 68.9488 28.8684 70.0421 29.1161C70.0421 29.1161 70.6203 28.951 70.8327 28.9549C71.1001 28.9942 71.3794 29.0296 71.6586 29.065C70.9389 29.9775 72.2407 30.4966 72.2682 30.5242L72.3902 30.7916C72.5042 31.3304 71.8002 32.4199 73.3419 32.6323L73.456 32.8328C72.4334 32.8997 70.3804 33.9341 69.4837 34.6853C69.3381 34.8583 68.3942 35.5702 68.2526 35.3814C68.1464 34.5909 70.1011 32.7502 70.0421 32.8092V32.8171Z" fill="#F9C7B8"/>
<path d="M64.8506 14.8242C64.9214 14.5843 64.9922 14.3444 65.0669 14.1045C65.1141 14.3365 64.9568 14.6197 65.4287 14.6276C65.2989 14.7652 65.3225 14.8832 65.3461 15.0012C65.1416 14.9619 64.9804 14.899 64.8506 14.8282V14.8242Z" fill="#FDECE7"/>
<path d="M67.7026 14.5254L67.738 14.7102C67.3486 14.8086 66.9357 14.785 67.1048 14.6158C66.7154 14.7142 67.1284 14.7378 66.9357 14.7889C66.4204 14.9226 66.385 14.8558 66.4322 14.7574C67.3014 14.5372 68.1864 14.4074 68.206 14.4979L68.2296 14.6198C68.0408 14.5962 67.9228 14.5097 67.6987 14.5333L67.7026 14.5254Z" fill="#FDECE7"/>
<path d="M67.45 16.7404C67.2966 16.9725 66.9347 17.1967 66.5886 17.4798C65.8217 17.4444 64.9446 17.4759 64.04 17.5231C64.3036 16.8702 64.5041 16.2449 64.7008 15.6077C64.8306 15.6785 64.9918 15.7414 65.1963 15.7808C65.1727 15.6628 65.1492 15.5487 65.2789 15.4071C65.3694 15.4071 65.4835 15.3993 65.625 15.3796H65.6368C65.5897 15.4779 65.625 15.5409 66.1403 15.4071C66.3369 15.356 65.924 15.3324 66.3094 15.2341C66.1403 15.4071 66.5532 15.4307 66.9387 15.3285L66.9033 15.1436C67.1275 15.124 67.2454 15.2066 67.4342 15.2301C67.5522 15.7532 67.7135 16.2645 67.8983 16.768C67.7489 16.7562 67.5994 16.7483 67.45 16.7365V16.7404Z" fill="#FDE8E3"/>
</g>
</g>
</g>
<path d="M62.5168 30.6092C63.0557 30.4283 63.6259 30.2945 64.2002 30.1923C64.2002 30.0704 64.1884 29.9445 64.1648 29.8068C64.2788 29.8501 64.3889 29.8934 64.4912 29.976L64.5581 29.74C64.5148 29.6181 64.153 29.3624 64.6603 29.4253C64.6957 29.3152 64.7351 29.209 64.7744 29.0989C64.6682 28.918 64.503 28.7331 64.2592 28.5443L64.6328 28.7213C64.9238 28.7292 64.7114 28.4972 64.7586 28.387C64.8255 28.4185 64.9278 28.4696 65.0104 28.5011C64.9042 27.8364 65.5728 27.2897 65.6396 27.1678C65.616 27.0616 65.5964 26.9554 65.5885 26.8532C64.5699 26.5896 63.5984 26.4559 62.7803 26.6722C62.7803 26.6722 62.4146 26.4795 62.2651 26.4756C62.0685 26.5071 61.864 26.5424 61.6634 26.5778C61.8207 27.0773 61.6634 27.4667 61.4667 27.7577C61.2701 28.0449 61.0302 28.2258 61.0223 28.2454L60.92 28.564C60.8689 28.8826 60.9633 29.3427 60.9594 29.7675C60.9554 30.1962 60.8492 30.5934 60.3733 30.8452L60.3301 31.1047C60.9908 31.0143 62.4342 31.8795 63.1343 32.5167C63.2602 32.6819 63.9878 33.264 64.035 33.0476C63.9838 32.6386 63.5787 32.0369 63.209 31.5177C62.8393 31.0025 62.4972 30.5698 62.5168 30.5974V30.6092Z" fill="#FBDCD4"/>
<path d="M62.749 67.8506C53.4632 76.397 42.6159 78.5248 30.7068 75.1542C18.0661 71.5791 9.85396 62.9933 6.81375 50.4785C3.41169 36.473 7.59641 24.1666 19.0533 15.1954C29.7747 6.79846 41.8254 5.47697 54.4032 11.0107C55.6775 11.5731 57.994 11.5377 57.4316 14.5229C49.8055 10.5663 42.0299 8.6627 33.4599 10.4876C19.0454 13.5593 7.55708 27.4035 7.66328 42.172C7.77733 57.7663 19.3836 71.3588 34.4117 74.0411C44.7201 75.8818 53.4711 72.7786 61.5534 66.7611C62.6232 66.3875 62.8867 66.8949 62.749 67.8466V67.8506Z" fill="#1F1F1F"/>
<path d="M52.3374 24.8742C43.8381 21.2912 35.5945 20.2962 27.878 26.3334C23.1623 30.0186 20.6216 34.8916 20.1221 40.8855C19.1939 52.008 28.3224 62.1355 39.7596 62.3519C44.9276 62.4502 49.6 60.7747 53.5291 57.2901C57.4503 53.8094 59.5348 49.4241 60.3371 44.2639C61.1276 39.1746 58.4257 34.7854 56.9823 29.1179C64.4982 36.748 63.8375 49.4044 56.4041 57.3569C48.3414 65.986 34.6624 66.6349 25.6362 58.8161C16.6886 51.068 15.6975 37.5424 23.0915 28.1897C30.6901 18.5775 45.9895 17.9088 52.3334 24.8703L52.3374 24.8742Z" fill="#191A1A"/>
<path d="M62.7493 67.8498C62.3521 67.4879 61.9549 67.1261 61.5537 66.7643C73.7382 54.4067 75.9131 40.4603 67.7128 24.7676C71.4728 26.1835 73.6792 30.026 74.4972 38.1359C75.689 49.931 72.106 60.0939 62.7493 67.8498Z" fill="#282828"/>
<path d="M48.7866 38.9512C50.8239 44.4063 49.5064 48.2173 44.9244 50.7659C40.8026 53.0589 36.8617 52.347 33.4243 49.2596C30.1088 46.2823 29.448 41.248 31.6741 37.378C34.1952 32.9966 37.9394 31.6672 43.8664 33.6652C37.3966 34.4164 31.3398 35.8087 32.7399 44.0208C33.3456 47.5802 35.9925 49.7355 39.8508 49.8377C47.2921 50.0344 47.7876 44.4023 48.7827 38.9512H48.7866Z" fill="#1F1F1F"/>
<path d="M60.6224 20.3877C61.0904 20.8518 61.5584 21.3159 62.0264 21.7839C54.8605 28.9853 47.6946 36.1827 40.5286 43.384L39.0498 41.9091C46.2393 34.7353 53.4328 27.5615 60.6224 20.3916V20.3877Z" fill="#2A2A2A"/>
<path d="M78.8037 12.1987C78.316 11.2233 77.313 11.4671 76.613 11.5969C71.7911 12.474 69.9308 10.5665 70.8 5.77213C70.9258 5.07205 71.1933 4.07307 70.1982 3.58931C69.1874 3.09375 68.7115 3.97868 68.1255 4.47817C63.2525 8.65896 58.7138 13.0089 60.6214 20.3833C60.3539 21.5868 60.8219 22.0509 62.0254 21.7795C69.4195 23.7106 73.7655 19.1719 77.9423 14.2871C78.4497 13.6971 79.3031 13.1937 78.8037 12.1987ZM63.1031 18.1375C61.2113 12.1397 65.4983 10.3895 68.1688 7.32567C70.4932 12.9813 65.7303 14.5742 63.1031 18.1375ZM64.574 19.2938C67.7598 16.525 69.5414 12.1239 75.5432 14.0236C72.09 16.8357 70.3202 21.4058 64.574 19.2938Z" fill="#1C1C1C"/>
</svg>
