<svg width="83" height="83" viewBox="0 0 83 83" fill="none" xmlns="http://www.w3.org/2000/svg">
<path d="M24.3 9.38498C24.6582 7.47668 25.6 6.60594 27.556 5.87761C33.7337 3.57462 39.8149 3.22063 45.9927 4.74239C49.0232 6.90296 51.5588 9.88138 55.4345 10.6382C55.0722 14.3775 57.9901 16.945 58.3402 20.4239C58.4569 21.5998 59.2297 23.0564 58.1672 23.9231C56.7425 25.0909 55.5995 23.7237 54.6778 23.1459C56.4688 25.2577 59.2498 27.5403 54.4122 30.0712C54.7503 33.2327 52.8104 35.2427 50.8544 37.2487C48.6087 35.8449 46.6004 33.7576 46.3952 31.2145C46.045 26.812 43.7309 25.4652 40.0967 25.1234C39.1911 25.038 38.3137 24.7531 37.4002 24.6514C36.6516 24.5456 35.9151 24.4073 35.2913 23.9475C33.0294 21.7584 30.9085 19.4921 31.001 15.8626C31.0292 14.7762 30.4859 13.873 29.367 14.2066C25.0486 15.4924 24.9118 12.1925 24.292 9.38498H24.3Z" fill="#FFF8C6"/>
<path d="M45.7877 59.0006L44.214 61.8488C42.2661 64.0826 43.8599 67.4394 41.6866 69.6C39.1632 69.7872 36.9899 70.7596 35.3599 72.9243C34.5026 73.5956 33.6535 75.0075 32.6312 73.3393C31.4842 71.4758 29.4196 70.9875 27.85 69.7628C26.868 69.0507 26.7593 67.8707 26.4655 66.7884C25.4312 61.9749 25.4674 57.0353 25.4473 52.0998C25.5559 51.8638 25.6565 51.6278 25.7572 51.3877C25.6284 50.7326 25.9181 50.2321 26.3488 49.7846C29.1016 49.8659 28.9326 52.2666 29.3833 54.1179C29.979 56.5633 29.7415 59.2203 31.2347 61.4419C32.6996 63.6228 34.5026 64.2006 36.9335 63.3136C39.4127 62.4103 38.1489 60.3677 38.4105 58.789C40.5436 54.4719 43.1797 50.5495 46.5362 47.0991C47.9408 45.6547 49.1885 45.4309 50.7621 46.2691C51.6435 47.3595 51.2974 48.629 51.1163 49.8781C50.5448 52.1771 49.1643 54.1545 48.5043 56.4168C47.8805 57.6009 46.9468 58.4269 45.7877 58.9924V59.0006Z" fill="#F9F19A"/>
<path d="M54.9993 11.3334C51.0471 10.5075 47.7429 8.74564 45.9922 4.74593C49.6667 2.93935 52.3994 5.88115 54.8141 7.26457C58.0499 9.11997 61.4548 11.7281 62.642 16.09C63.3624 18.7469 67.0248 19.5933 66.6304 23.0437C65.8496 24.0283 64.5416 24.1097 64.2841 26.0831C63.3705 32.984 60.9879 39.2989 54.633 43.1358C53.3532 43.9089 52.339 45.0807 51.0149 45.7887C50.6245 45.8579 50.2502 45.8253 49.888 45.6789C48.9422 44.9587 48.089 44.1856 48.2661 42.7615C48.407 42.3709 48.576 41.8826 48.9181 41.7402C56.1584 38.6885 57.5831 31.7145 59.6879 25.1717C60.0985 23.9022 59.9214 22.7548 59.6236 21.5585C58.8508 18.4214 56.9351 15.7197 56.8265 12.31C56.8023 11.4799 55.8968 11.1219 54.9993 11.3294V11.3334Z" fill="#FCF4C8"/>
<path d="M26.6302 49.9356C26.3404 50.4198 26.0466 50.9081 25.7568 51.3923C25.7931 48.1209 24.2637 45.7732 22.513 43.165C18.0497 36.5165 15.0151 29.3186 18.3636 20.5299C19.1645 18.4303 19.9735 17.5921 21.8811 17.5107C23.5514 20.2247 23.978 23.4798 23.6037 26.4745C22.8953 32.1628 25.1652 36.1015 28.7713 39.6129C29.7291 43.3644 30.6347 47.1078 26.6262 49.9397L26.6302 49.9356Z" fill="#F9F9DF"/>
<path d="M28.2523 39.5759C24.5456 37.045 22.0222 34.148 22.7587 28.7038C23.2537 25.054 22.2275 21.2455 21.8813 17.5103C21.7646 16.0415 21.6399 14.5726 21.5352 13.1037C21.4105 11.3541 21.3823 9.66552 23.8775 10.0399C24.2518 12.8799 24.6181 15.4393 28.6145 13.8849C30.1358 13.2909 30.7435 15.1626 29.8903 16.2083C28.7232 17.6446 29.4275 19.7685 27.717 20.8753C26.405 21.7257 27.8981 22.0593 28.1436 22.4092C29.347 24.106 31.1178 25.4161 31.1701 27.8412C29.3389 31.1533 29.0089 34.681 29.3792 38.3145C29.1941 38.9208 28.856 39.3846 28.2443 39.584L28.2523 39.5759Z" fill="#FCF8CD"/>
<path d="M50.7048 45.675C51.4131 44.0759 52.866 43.3394 54.1015 42.2896C57.454 39.4414 60.8428 37.0367 61.7644 31.6658C62.2111 29.0658 63.0322 26.0304 63.8009 23.2188C64.646 20.1265 65.7005 24.0814 66.6302 23.0398C66.6905 25.2451 66.7509 27.4504 66.8072 29.6558C66.9159 31.1572 65.6804 32.2802 65.6119 33.7328C64.3482 36.8089 63.4467 40.007 61.2694 42.7006C60.0258 44.2386 59.1202 45.6587 56.9349 45.7645C55.6591 45.8255 54.6006 46.9892 53.8359 48.1895C52.8016 48.7388 51.8236 49.4956 50.584 49.3492C50.5076 48.3645 50.4311 47.3757 50.3546 46.3911C50.2661 46.1469 50.2862 45.9598 50.419 45.8255C50.5518 45.6912 50.6484 45.6383 50.7048 45.6668V45.675Z" fill="#F9F9DF"/>
<path d="M30.7584 27.7558C30.05 26.6612 29.7361 25.29 28.5649 24.521C24.7778 22.0349 27.8606 19.1135 28.5971 16.4402C28.7179 15.9967 29.9414 15.5817 29.4383 14.6621C29.0318 13.9134 28.2792 14.4546 27.6594 14.5726C23.2847 15.4026 22.6166 14.6011 23.8803 10.0358C24.0091 9.80793 24.1459 9.59228 24.2989 9.38477C24.979 9.55566 26.4279 9.24642 26.1019 10.2067C24.7335 14.2634 26.8424 13.5594 29.2693 13.0915C30.8228 12.7904 32.493 12.8067 31.9537 15.5125C31.2292 19.1175 34.7226 20.7491 35.4994 23.6909C35.5919 25.998 33.5635 26.5839 32.3441 27.829C31.7887 28.122 31.2413 28.3213 30.7584 27.7558Z" fill="#FCF4C8"/>
<path d="M25.4465 52.1045C26.8108 56.8976 26.7867 61.882 26.7625 66.8664C26.352 67.0942 26.1105 66.9559 26.0139 66.5083C25.9093 66.1421 25.8006 65.7719 25.696 65.4057C24.4242 63.4811 22.589 61.8657 22.7017 59.1762C21.7478 56.1001 26.1025 55.0666 25.4465 52.1045Z" fill="#F9F19A"/>
<path d="M34.6953 71.9649C36.8002 71.0331 37.9311 66.7079 41.1629 69.7107C41.8752 73.3198 41.2313 74.5527 38.4744 74.8334C37.9231 74.2272 37.3717 73.6209 36.8203 73.0146C36.2649 72.8722 35.6411 73.0634 35.1219 72.7257C34.8925 72.5264 34.7476 72.2741 34.6993 71.9649H34.6953Z" fill="#F4EFBA"/>
<path d="M50.5847 49.354C51.3614 47.9299 52.6614 48.2716 53.8366 48.1943C53.4422 49.5533 53.0518 50.9164 52.6574 52.2754C52.3153 53.5002 51.2649 54.0779 50.4519 54.8714C50.1983 55.3637 49.9448 55.852 49.6953 56.3443C49.0956 56.5437 48.4798 57.272 47.9123 56.3646C47.6025 53.5734 49.816 51.7383 50.5847 49.354Z" fill="#FFF8EE"/>
<path d="M34.6949 71.965C34.9243 72.083 35.1537 72.201 35.3831 72.319C34.1838 76.0258 33.8377 76.1478 30.0183 74.2354C28.3441 73.4664 28.6862 71.3832 27.676 70.1828C27.511 69.9184 27.5029 69.7231 27.6519 69.5929C27.8048 69.4586 27.9175 69.4098 27.9899 69.4504C30.2115 70.134 32.9925 69.9346 33.56 73.263C33.5882 73.4298 34.3166 72.4451 34.6949 71.965Z" fill="#F4EFBA"/>
<path d="M38.4698 74.8284C41.4078 74.218 41.0335 71.8296 41.1583 69.7056C43.6173 67.6386 41.3233 63.7447 44.213 61.8486C43.3799 65.6368 42.6112 69.4452 41.6815 73.213C41.2589 74.9219 40.7035 76.9971 38.4658 74.8284H38.4698Z" fill="#FDFDFD"/>
<path d="M30.0195 74.2348C32.1687 74.8248 34.3621 75.5572 35.3843 72.3184C35.8874 72.4974 36.7205 71.9847 36.8171 73.0141C34.7887 75.2683 32.8368 78.1531 30.0236 74.2348H30.0195Z" fill="#FDFDFD"/>
<path d="M22.7019 59.1768C23.1527 61.5571 25.4668 62.9039 25.6962 65.4062C23.4304 64.0309 21.8527 62.2732 22.7019 59.1768Z" fill="#F4EFBA"/>
<path d="M47.9121 56.3641C48.5077 56.356 49.0994 56.3478 49.695 56.3438C48.5359 57.4668 47.9081 59.4646 45.7871 59.0007C46.4954 58.1218 47.2038 57.243 47.9121 56.3641Z" fill="#FDFDFD"/>
<path d="M65.6129 33.7333C65.0172 32.0976 66.3453 30.999 66.8082 29.6562C67.2147 31.239 66.9249 32.6306 65.6129 33.7333Z" fill="#FDFDFD"/>
<path d="M27.9898 69.4457C27.8851 69.6898 27.7805 69.934 27.6758 70.1781C26.2833 69.3928 26.0217 68.0135 26.0137 66.5039C26.2632 66.6219 26.5127 66.744 26.7623 66.862C27.1728 67.7205 27.5833 68.5831 27.9898 69.4416V69.4457Z" fill="#FDFDFD"/>
<path d="M50.4521 54.8704C50.8868 53.7311 51.7078 52.9417 52.6576 52.2744C53.1366 54.2478 51.5871 54.3658 50.4521 54.8704Z" fill="#FDFDFD"/>
<path d="M31.8664 27.3933C33.0778 26.1563 34.2892 24.9235 35.5006 23.6865C36.0882 23.6947 36.6798 23.6987 37.2674 23.7069C38.2696 24.9113 39.7707 26.1197 37.8268 27.7554C36.877 28.557 36.9495 28.915 37.7946 29.505C38.4466 29.9607 39.2999 30.6362 39.1429 31.3686C38.0442 36.4954 41.6704 34.6155 43.8074 34.6481C45.7795 34.6806 47.5704 34.9451 48.476 36.8697C49.3533 38.7373 48.9952 40.5886 47.4417 42.1389C47.1962 42.9974 45.8278 40.9223 45.6668 43.2375C45.4293 46.6757 42.2056 47.1314 39.6299 47.4854C36.9414 47.8557 33.5447 44.8447 32.8886 41.9599C32.8283 41.7035 32.8041 41.4309 32.6431 41.2112C29.4717 36.9063 29.7454 32.2434 31.8664 27.3933Z" fill="#FDE98D"/>
<path d="M54.9998 11.3341C56.9356 10.6383 58.469 10.4349 57.8653 13.454C57.7446 14.0643 57.9377 14.9066 58.2879 15.3989C63.2623 22.3485 59.5637 29.107 57.0161 35.8165C55.5512 39.6698 51.8284 40.8619 48.7174 42.7133C48.1821 42.7418 47.9004 42.4814 47.8682 41.928C48.6892 40.3004 48.5564 38.0992 50.6049 37.2081C52.7178 34.5226 52.915 30.763 55.7604 28.3664C56.9839 27.337 56.1186 25.4816 54.9072 24.5213C53.8165 23.6628 52.4683 23.1257 52.1182 21.311C54.8509 20.2042 55.3057 23.9964 57.7285 23.5611C57.8331 20.0537 56.4245 17.0712 54.7342 14.223C53.9856 12.9657 53.5388 12.0828 55.6357 12.217C55.4224 11.9241 55.2091 11.627 54.9998 11.3341Z" fill="#FCF4C8"/>
<path d="M50.6093 37.2033C49.7762 38.9326 48.9431 40.6578 48.114 42.3871C47.7518 42.4563 47.4902 42.3139 47.3091 42.0006C48.8505 36.235 48.3193 35.6653 42.3186 36.0112C40.6484 36.1088 38.9138 35.9298 37.4327 34.9451C36.8612 34.5667 36.2897 34.054 36.5392 33.3338C37.4971 30.5548 37.5293 30.5751 35.3037 29.1348C35.0059 28.9394 34.8046 28.5895 34.209 27.9182C36.825 27.5398 38.9218 26.7585 37.2717 23.7109C39.437 24.0527 41.6062 24.366 43.7634 24.7363C45.3048 25.0008 46.8744 26.3883 46.7497 27.434C46.2506 31.6534 49.752 33.7814 50.6133 37.2074L50.6093 37.2033Z" fill="#FDE98D"/>
<path d="M28.2524 39.5763C28.5019 39.084 28.7475 38.5876 28.997 38.0952C30.5907 37.7535 30.9529 39.0392 31.46 40.1053C32.2972 41.8671 32.4139 43.9219 33.7661 45.5332C34.6274 46.5626 34.229 48.1942 33.0337 49.2074C30.2446 51.5714 31.0536 53.6831 33.1423 55.6932C34.5912 57.0888 35.5048 59.3836 38.1168 58.9157C38.2938 58.9483 38.4709 58.9849 38.652 59.0174C39.626 60.6816 40.7609 63.3833 38.6118 63.8309C36.6719 64.2378 34.2893 67.1633 31.6291 63.66C29.5162 60.8769 29.0815 58.0328 28.5543 54.9648C28.2323 53.1013 28.2725 51.1686 26.6426 49.9276C29.1741 46.7294 28.502 43.1203 28.2645 39.5682L28.2524 39.5763Z" fill="#F9F19A"/>
<path d="M50.7058 45.6755C50.585 45.9156 50.4683 46.1556 50.3556 46.3957C46.2868 46.77 44.3831 50.6802 42.568 53.2843C41.3365 55.0502 39.7951 56.9992 38.648 59.0255H38.636C37.9518 59.2493 37.2596 59.2005 36.8933 58.582C35.7262 56.6127 37.4286 51.3191 39.4047 50.1106C41.2157 49.0039 43.1596 47.9785 44.3831 46.0743C46.0936 43.4092 47.9087 42.7581 50.0457 45.289C50.2711 45.411 50.4925 45.5412 50.7098 45.6755H50.7058Z" fill="#EFEB9A"/>
<path d="M50.0411 45.2883C47.2883 43.4126 46.1533 45.4958 44.3624 47.4286C42.8612 49.048 41.5935 52.1444 38.418 51.1028C38.249 51.0458 37.9713 51.3184 37.7459 51.4405C39.5047 53.7231 35.8986 56.9131 38.6354 59.033C36.3615 60.2577 32.0229 58.1948 30.5378 54.4677C29.8899 52.8361 28.7791 49.9065 32.1759 48.8242C33.5885 48.3766 33.7616 46.684 33.2223 46.1835C30.8558 43.9944 31.6808 40.0069 29.0004 38.0986C27.4671 34.3471 28.0466 30.9008 30.7632 27.7555C31.1335 27.6335 31.4997 27.5155 31.87 27.3975C32.2443 28.199 33.5241 29.0372 32.7997 29.8225C28.9723 33.985 32.2845 37.1262 33.3631 40.7556C33.9668 42.786 34.4337 44.0555 36.4138 45.1703C40.37 47.396 43.2596 46.8142 45.1874 42.2977C45.9642 40.483 46.6041 41.9641 47.3124 42.0007C47.5781 42.1309 47.8477 42.257 48.1174 42.3872C48.3226 42.493 48.5238 42.6029 48.7251 42.7087C49.1678 43.5672 49.6065 44.4298 50.0492 45.2883H50.0411Z" fill="#FDE98D"/>
<path d="M24.7701 65.0599C30.0987 54.9569 21.5866 45.4886 18.7814 36.1627C16.0487 27.0688 17.7189 15.8102 25.2731 9.51155C29.5513 5.93907 35.1254 4.5231 40.5667 4.20166C47.0101 3.81919 53.695 4.5231 58.2991 9.58072C65.4267 17.4092 66.449 30.2547 60.8306 39.1737C57.6149 44.2801 52.8136 48.056 48.801 52.4708C44.5068 57.1947 41.605 62.6999 40.4097 69.0148C40.3212 69.4828 41.6815 69.6862 41.7741 69.1939C43.07 62.3378 46.4144 56.6577 51.1635 51.6814C55.0955 47.5637 59.591 43.8366 62.525 38.8685C67.8536 29.8519 66.5818 17.1366 59.5226 9.38134C52.7331 1.91902 39.9791 2.10619 31.1008 5.17005C21.6027 8.44957 16.2701 17.3726 16.1856 27.3088C16.1332 33.3389 18.1496 38.5633 20.7294 43.9017C23.8203 50.3021 27.1245 57.7929 23.4782 64.7018C23.2246 65.182 24.5568 65.4668 24.7701 65.0599Z" fill="#232020" stroke="#232020" stroke-miterlimit="10"/>
<path d="M24.6897 65.1698C29.5715 61.7275 30.9882 54.021 32.2117 48.585C33.0045 45.0573 33.5921 41.4889 34.0308 37.9001C34.4212 34.702 35.049 31.2801 34.2763 28.1023C34.1515 27.5977 33.2299 27.5977 32.9603 27.9314C31.2337 30.035 31.1532 32.6757 31.6925 35.2513C32.0225 36.8137 32.3123 39.1656 34.3487 39.1086C36.2282 39.0598 38.7316 37.0538 39.951 35.7803C41.6655 33.9859 42.5871 31.6625 42.2088 29.1765C42.1283 28.6475 41.1503 28.7126 40.8928 29.0056C38.482 31.7276 37.4075 35.7721 37.7093 39.3934C37.8904 41.5825 39.0817 43.1409 41.3797 42.498C44.1728 41.7167 46.6802 39.0069 47.2798 36.1587C47.5817 34.7305 46.813 32.6879 45.1911 34.1486C43.4323 35.7355 42.6314 39.9386 43.4082 42.1074C44.2412 44.4348 46.4025 43.4867 47.8191 42.2213C48.6361 41.493 51.1636 38.4006 48.451 38.5145C47.3523 38.5593 46.6037 40.0648 46.1489 40.8419C45.0904 42.6404 44.3419 44.6138 43.6939 46.5953C42.1605 51.2949 41.0175 56.1531 39.782 60.9422C39.2266 63.0906 36.9325 68.6324 40.7841 68.9253C41.6132 68.9904 41.7379 68.1563 40.8928 68.0912C40.1241 68.0343 39.9671 66.0486 40.0597 65.5156C40.1402 65.0355 40.273 64.5676 40.3897 64.0956C40.7076 62.818 41.0377 61.5485 41.3677 60.2749C42.0277 57.7278 42.6998 55.1847 43.388 52.6458C44.1326 49.8871 44.8329 47.0877 45.8994 44.4307C46.4025 43.1815 47.0263 42.0423 47.6662 40.8664C47.8433 40.5368 48.5436 39.784 47.8996 40.2886C47.3241 40.7402 46.8653 41.9283 46.1046 42.1277C44.2694 42.6119 44.4103 40.4635 44.5511 39.3568C44.7001 38.1646 45.1307 36.9928 45.6539 35.9186C46.4266 34.3317 46.1046 35.3042 45.835 36.3214C45.4607 37.7333 44.5753 38.9621 43.5369 39.9468C42.402 41.025 40.7076 42.266 39.2869 40.7687C38.647 40.0933 39.0656 37.7577 39.1662 36.8137C39.46 34.051 40.3293 31.4794 42.1766 29.3921C41.7379 29.3351 41.2993 29.2782 40.8606 29.2212C41.1463 31.1173 40.5748 32.9402 39.4399 34.4538C38.635 35.528 36.3007 37.8432 34.7995 37.9652C33.089 38.1076 32.9804 35.2961 32.8234 34.0591C32.5578 31.9636 32.8757 29.978 34.2401 28.3139C33.8014 28.2569 33.3627 28.1999 32.924 28.143C33.6766 31.219 33.0367 34.6084 32.6584 37.713C32.2559 41.0128 31.7247 44.3005 31.0284 47.5515C29.8372 53.0974 28.5171 61.0928 23.5588 64.5879C22.9993 64.9826 24.259 65.4627 24.6856 65.1657L24.6897 65.1698Z" fill="#232020"/>
<path d="M23.6472 65.0681C27.9938 66.4515 32.4611 67.3955 37.0049 67.7902C37.9064 67.8675 38.8079 67.9163 39.7094 67.9611C40.9571 68.018 42.0316 68.4575 42.3858 69.9182C42.4824 70.3169 42.2208 71.1063 42.1443 71.5091C41.927 72.6606 41.6936 73.804 41.4722 74.9555C41.1744 76.4772 41.3555 78.5076 39.307 78.593C38.2686 78.6378 36.8761 78.0112 35.8619 77.7711C34.7149 77.4985 33.5638 77.2218 32.4168 76.9492C29.9779 76.3674 27.535 75.7814 25.0961 75.1996C23.8283 74.8944 22.4479 74.7195 21.2204 74.2719C20.6247 74.0562 20.3551 74.2149 20.1659 73.5476C20.0693 73.214 20.5442 72.2252 20.6448 71.8794C20.8581 71.1388 22.8503 63.8189 23.4138 64.1526C23.9933 64.4944 24.9874 63.8718 24.2106 63.412C22.2507 62.2565 21.4256 64.2258 20.9547 65.8615C20.3913 67.8064 19.8399 69.7554 19.2805 71.7004C19.0632 72.4531 18.4595 73.5151 18.8418 74.2922C19.2443 75.1141 20.8984 75.1915 21.6027 75.3583L27.6316 76.7987C31.5073 77.7264 35.3709 78.7151 39.2587 79.5777C41.4118 80.0538 41.9833 79.4068 42.422 77.291C42.8325 75.2932 43.2833 73.2791 43.6012 71.2609C43.7501 70.3291 43.9111 69.3526 43.4845 68.4737C42.3697 66.1952 38.3129 66.956 36.2966 66.7567C32.1593 66.3376 28.0984 65.4587 24.1342 64.1973C23.4138 63.9695 22.7819 64.7995 23.6512 65.0762L23.6472 65.0681Z" fill="#232020" stroke="#232020" stroke-miterlimit="10"/>
<path d="M22.4 63.8477C23.5591 66.5901 26.3843 67.2859 29.0728 67.5381C33.3469 67.941 37.6452 68.1607 41.9274 68.4699C41.8308 68.2787 41.7302 68.0874 41.6296 67.8962C35.0252 67.5707 28.7468 65.1334 22.1545 64.637C21.917 64.6208 21.3294 64.8283 21.7963 65.0521C27.5877 67.8637 34.6026 67.8677 40.877 68.6164C41.6779 68.7141 41.7624 68.1688 40.9454 68.0712C35.0614 67.3673 28.2236 67.4161 22.8105 64.7917C22.6897 64.93 22.569 65.0683 22.4523 65.2067C29.0446 65.699 35.3069 68.1363 41.9274 68.4658C42.8732 68.5106 42.2051 67.9369 41.6296 67.8921L33.4234 67.3021C30.087 67.0621 25.2736 67.5056 23.7361 63.8721C23.5792 63.5059 22.247 63.4855 22.4 63.8436V63.8477Z" fill="#232020"/>
<path d="M30.6832 70.4224C33.7299 71.0897 36.8006 71.4315 39.9157 71.4275C40.8454 71.4275 40.2779 70.7317 39.634 70.7317C36.7604 70.7317 33.9351 70.4346 31.1259 69.8202C30.5102 69.686 29.7696 70.219 30.6792 70.4184L30.6832 70.4224Z" fill="#232020"/>
<path d="M26.3962 73.2106C31.0607 73.9267 35.7494 74.3051 40.4702 74.3499C41.3999 74.358 40.8123 73.7029 40.1845 73.6948C35.5844 73.65 31.0245 73.2797 26.4767 72.584C25.6637 72.4578 25.5832 73.0885 26.3962 73.2106Z" fill="#232020"/>
</svg>
