<svg width="83" height="83" viewBox="0 0 83 83" fill="none" xmlns="http://www.w3.org/2000/svg">
<g style="mix-blend-mode:multiply">
<g opacity="0.9">
<g opacity="0.9">
<path d="M35.975 34.344C34.1471 34.1492 32.3191 33.934 30.4912 33.6846C30.8875 34.0262 31.2805 34.3645 31.6631 34.6993C32.9888 35.6218 34.4853 34.4192 35.975 34.344Z" fill="#A7D8DC"/>
<path d="M41.0048 34.7777C41.0048 34.7777 40.9979 34.7675 40.9945 34.7606C39.58 34.6718 38.1689 34.5659 36.7578 34.4258C36.8535 34.4497 36.9491 34.4804 37.0414 34.5214C38.3397 35.2082 39.6449 35.608 41.0013 34.7777H41.0048Z" fill="#A7D8DC"/>
<path d="M63.0596 47.1943C61.9219 43.3061 60.3912 40.0397 58.9698 36.7221C58.5701 36.4795 58.1601 35.9568 57.8116 35.9363C57.8355 35.803 55.3755 35.311 54.1045 35.2803C54.7537 36.8861 55.2832 38.7585 55.6659 40.8871C55.1432 41.2185 54.125 41.5191 54.084 42.2435C54.1762 45.0042 55.0885 46.7706 56.0417 48.4482C56.3629 48.3457 60.7944 46.5998 63.0596 47.1943Z" fill="#C6E5E7"/>
<path d="M68.5296 47.1158C70.0295 47.027 72.0932 45.9165 72.9474 45.6022C72.6023 43.9485 72.223 42.3358 71.7139 40.9555C72.2709 40.2688 72.6638 39.5786 73.1934 39.2608C73.084 38.9875 72.9781 38.7176 72.8688 38.4477C70.3746 38.0069 67.9009 37.4261 65.4238 36.8965C65.5297 37.8805 68.0786 44.1467 68.5262 47.1158H68.5296Z" fill="#D1EAEC"/>
<path d="M64.1219 46.5481C64.672 46.7941 65.164 47.0367 65.6355 47.2793C66.5888 47.293 67.5489 47.2691 68.5329 47.1153C68.0784 44.1496 67.3199 41.4744 66.3052 39.4414C66.4726 39.4517 66.6947 38.4335 66.8621 38.4472C66.1036 37.716 65.5296 37.8834 65.4305 36.8994C63.1345 36.3972 60.8316 35.9393 58.5117 35.6318C58.9661 36.3767 59.4889 36.0521 59.9911 36.0863C59.6973 36.9336 59.3386 36.9507 58.973 36.7286C60.3909 40.0462 61.9216 43.3125 63.0627 47.2007L63.5445 47.2178C63.7119 46.7771 63.8691 46.3363 64.1253 46.555L64.1219 46.5481Z" fill="#CBE7EA"/>
<path d="M39.235 38.5941C40.6153 40.3845 41.4866 42.8445 42.1426 45.5573C42.5731 45.3284 43.4102 44.7886 43.9671 45.4514C45.0468 45.4514 47.3394 44.9253 47.6571 45.8751C47.9783 46.8284 45.4978 41.8195 44.5411 39.5542C44.4864 38.1329 43.9773 36.9644 43.3453 35.9052C43.1266 35.9872 43.2667 36.8756 43.048 37.002C43.0548 36.879 42.7132 35.8642 42.7132 35.8642C42.7132 35.8642 41.1347 35.8369 40.3488 35.8232C39.9047 37.2241 38.9992 36.0692 38.9787 35.772L38.2988 35.7412L38.2783 35.7549C38.5619 36.2195 38.8489 36.6876 39.1257 37.1386C39.2794 37.5076 39.235 38.5941 39.235 38.5941Z" fill="#B0DCDF"/>
<path d="M54.0804 42.2466C54.1727 45.0073 55.0849 46.7737 56.0382 48.4513C55.6145 48.5709 54.5451 48.8818 54.4324 48.9125C54.5929 48.2975 54.8424 47.6483 54.61 47.3648C53.9711 46.965 53.1682 46.5482 52.6693 46.5208C52.027 46.6848 51.2958 47.4912 50.5988 47.8841C50.0556 47.621 49.5192 47.3477 48.9964 47.0402C48.9622 47.0231 48.7197 46.0186 48.7402 45.5744C48.3609 45.5539 48.0056 45.6906 47.6537 45.8751C47.6297 45.6564 44.7597 42.1065 44.5376 39.5542C44.483 38.1329 43.9739 36.9644 43.3418 35.9052C43.352 35.9018 43.4785 35.895 43.6766 35.8847C43.8748 35.8779 44.1447 35.8642 44.442 35.8505C45.0365 35.8266 45.7403 35.7993 46.1947 35.7788C46.1503 36.0385 45.7813 36.6125 45.6754 36.7047C45.8018 36.7115 46.738 35.9052 47.107 35.7275C47.6912 35.69 49.116 35.7036 49.2458 35.7959C49.4132 35.8061 49.0408 36.51 49.0032 37.2343C49.7617 36.2981 50.5339 35.6865 51.3129 35.3551L51.9348 35.3244C52.0133 35.0476 52.0714 34.8631 51.986 34.8563C51.8596 34.7674 51.7332 34.6991 51.6033 34.6479C51.9894 34.6103 53.626 34.4599 54.0599 34.4189C53.6124 34.6069 53.1648 34.9041 52.7206 35.2868C53.1682 35.2765 53.6123 35.2697 54.0565 35.2799L54.1112 35.3004C54.7569 36.9029 55.2831 38.765 55.6658 40.8867C55.143 41.2181 54.1249 41.5188 54.0839 42.2432L54.0804 42.2466Z" fill="#B5DEE1"/>
<path d="M11.2454 33.9306C10.3058 35.3144 8.82638 35.2836 8.00979 37.0501C6.75928 40.313 7.26153 44.1192 6.76953 47.9254C10.6031 46.4699 14.481 45.7045 18.3692 45.3697C17.4262 43.7399 15.7657 44.6009 14.9901 41.9769C14.9901 41.6148 15.3283 41.256 15.4992 40.8938C14.5117 39.7971 12.8478 39.4212 12.8581 37.6104C12.8649 36.5 13.1758 35.3007 13.3296 33.8589L12.9571 33.8486C12.5608 34.3748 11.9492 33.9819 11.2454 33.9272V33.9306Z" fill="#90D0D4"/>
<path d="M15.4961 40.8968C15.3253 41.2555 14.9905 41.6177 14.987 41.9799C15.7626 44.6039 17.4231 43.7429 18.3661 45.3726C19.8592 45.2394 21.3523 45.171 22.8454 45.154C22.596 44.8567 22.3466 44.5595 22.0903 44.2588C22.9172 44.2759 23.1324 41.7407 23.9661 41.7578C21.5915 39.0586 18.332 38.4743 16.5485 34.2445C15.4756 34.0292 14.3994 33.9028 13.3231 33.8652C13.1694 35.3037 12.8584 36.5063 12.8516 37.6168C12.8414 39.431 14.5053 39.8068 15.4927 40.9002L15.4961 40.8968Z" fill="#99D3D8"/>
<path d="M23.9694 41.7547C23.1391 41.7377 22.9239 44.2728 22.0936 44.2557C22.3465 44.5564 22.5959 44.8537 22.8487 45.1509C24.5741 45.1202 26.2996 45.1578 28.025 45.2295C28.1412 45.1885 28.2573 45.1509 28.3735 45.127C29.7026 44.8673 30.8062 45.0723 32.0498 44.8298C31.2743 43.3537 30.4952 41.8743 29.6821 40.4735C28.0455 42.4312 26.2859 44.0439 24.3999 45.0279C25.0696 44.6794 24.9431 42.8617 25.2848 42.503C26.549 40.5316 27.7414 36.4145 27.1674 34.6207C24.5639 34.2722 21.9501 33.9203 19.3329 33.5684C19.1484 34.0262 18.8819 34.7745 18.7419 34.771C18.0141 34.5626 17.2829 34.3849 16.5518 34.238C18.3353 38.4679 21.5914 39.0521 23.9694 41.7513V41.7547Z" fill="#A0D5D9"/>
<path d="M29.6815 40.4734C30.4947 41.8742 31.2737 43.3537 32.0493 44.8297C32.3636 44.7682 32.6916 44.6759 33.0299 44.5392C33.0196 44.8604 33.0094 45.1782 32.8864 45.4891L33.5834 45.5335C33.8704 45.3524 34.171 44.242 34.523 45.595L35.5035 45.6599C35.8623 45.2567 36.1595 44.7032 36.368 43.9277L36.3304 45.0142C36.6345 45.7522 36.9932 45.0381 37.3246 45.0517C37.3178 45.2465 37.3076 45.5472 37.3246 45.7829C38.8963 44.9492 41.0454 45.9982 41.4452 46.0152C41.6775 45.841 41.9098 45.6838 42.1422 45.554C41.4862 42.8411 40.6183 40.3811 39.2346 38.5908C39.2346 38.5908 39.2756 37.5043 39.1252 37.1353C38.8485 36.6809 38.5649 36.2162 38.2779 35.7515C36.3953 37.4496 34.1369 35.4338 34.0378 35.4099L33.2554 35.3347C31.7691 35.4167 29.4423 37.2173 27.775 34.6958L27.1634 34.6172C27.7374 36.4109 26.545 40.5281 25.2808 42.4995C24.9392 42.8582 23.8185 44.898 24.3959 45.0244C26.463 44.7272 29.7806 40.3436 29.6781 40.47L29.6815 40.4734Z" fill="#A7D8DC"/>
<path d="M79.5383 43.7364C80.1226 43.5792 80.7137 43.4187 81.3116 43.2581C80.6863 43.2 80.0269 43.5177 79.7672 42.6533C79.47 42.9062 79.1522 42.8788 78.8379 42.8515C79.0463 43.2205 79.2821 43.5075 79.5349 43.7364H79.5383Z" fill="#E3F2F3"/>
<path d="M78.8928 38.485L78.3905 38.4372C78.3256 39.1615 78.5955 39.9132 78.9611 39.5817C78.8962 40.3027 78.6297 39.551 78.5955 39.9132C78.5101 40.8733 78.6946 40.9279 78.9338 40.8323C79.0773 39.2127 78.9714 37.5796 78.7185 37.5557L78.3871 37.5215C78.5477 37.8632 78.8313 38.0716 78.8894 38.4816L78.8928 38.485Z" fill="#E3F2F3"/>
<path d="M73.1933 39.2609C72.6637 39.5787 72.2708 40.2688 71.7139 40.9556C72.223 42.3359 72.5988 43.9452 72.9473 45.6023C74.5019 45.0249 76.0223 44.5397 77.5803 44.1058C77.3275 43.8735 77.0917 43.5899 76.8799 43.2174C77.1942 43.2448 77.512 43.2755 77.8092 43.0227C77.758 42.8553 77.7238 42.6503 77.7067 42.3838V42.3633C77.471 42.4624 77.2865 42.4043 77.3685 41.4476C77.3992 41.0854 77.6691 41.8371 77.7341 41.1128C77.3685 41.4476 77.102 40.6891 77.1635 39.9682L77.6623 40.016C77.6042 39.606 77.3241 39.3976 77.1601 39.0525C75.7182 38.9158 74.29 38.7074 72.8687 38.4512C72.9746 38.7211 73.084 38.991 73.1933 39.2643V39.2609Z" fill="#DDEFF1"/>
</g>
</g>
</g>
<g style="mix-blend-mode:multiply">
<g opacity="0.9">
<g opacity="0.9">
<path d="M36.4462 43.6458C34.6456 43.4647 32.8484 43.2631 31.0479 43.0273C31.4374 43.3485 31.8234 43.6663 32.2027 43.9806C33.5044 44.8484 34.9805 43.7175 36.4462 43.6458Z" fill="#A7D8DC"/>
<path d="M41.3934 44.0521C41.3934 44.0521 41.3866 44.0419 41.3832 44.035C39.9926 43.953 38.6054 43.854 37.2148 43.7207C37.3071 43.7446 37.4028 43.772 37.495 43.8095C38.7729 44.4553 40.0541 44.8311 41.39 44.0521H41.3934Z" fill="#A7D8DC"/>
<path d="M63.0826 55.7204C61.9654 52.068 60.462 48.9998 59.068 45.8804C58.6751 45.6514 58.2719 45.1628 57.9268 45.1423C57.9508 45.0159 55.5283 44.5547 54.2812 44.5273C54.9167 46.0375 55.4361 47.7937 55.8119 49.7959C55.2994 50.1068 54.2949 50.3904 54.2539 51.0703C54.3427 53.6636 55.2413 55.3241 56.1741 56.8992C56.4884 56.8035 60.8515 55.1635 63.0826 55.7204Z" fill="#C6E5E7"/>
<path d="M68.4676 55.6414C69.9436 55.5594 71.9765 54.5139 72.817 54.2167C72.4788 52.6621 72.1064 51.1485 71.6075 49.8501C72.1576 49.2044 72.5437 48.5552 73.063 48.258C72.9571 48.0017 72.8512 47.7455 72.7453 47.496C70.2921 47.0826 67.8594 46.5359 65.4199 46.0371C65.5224 46.963 68.0268 52.85 68.4642 55.6414H68.4676Z" fill="#D1EAEC"/>
<path d="M64.1278 55.1124C64.6676 55.3413 65.1528 55.5702 65.6141 55.7991C66.5537 55.8128 67.4967 55.7889 68.4636 55.6454C68.0194 52.8608 67.278 50.3427 66.2769 48.4327C66.4409 48.443 66.6596 47.4863 66.827 47.4966C66.0822 46.8098 65.515 46.967 65.4193 46.0411C63.1575 45.5696 60.8956 45.1391 58.6133 44.8486C59.0609 45.5491 59.5768 45.245 60.0688 45.2757C59.7784 46.0718 59.4264 46.0855 59.0677 45.8805C60.4617 48.9999 61.965 52.0681 63.0823 55.7205L63.5572 55.7342C63.7246 55.3208 63.875 54.9074 64.1278 55.1124Z" fill="#CBE7EA"/>
<path d="M39.6481 47.6396C41.0045 49.324 41.8587 51.6337 42.5044 54.1826C42.9281 53.9673 43.7515 53.4616 44.2982 54.0835C45.3608 54.0835 47.6158 53.5881 47.9301 54.4798C48.2479 55.375 45.8118 50.6702 44.8688 48.5416C44.8175 47.2057 44.3153 46.1055 43.6969 45.1113C43.4816 45.1864 43.6217 46.0235 43.403 46.1397C43.4099 46.0235 43.075 45.0703 43.075 45.0703C43.075 45.0703 41.5238 45.0464 40.7483 45.0327C40.3109 46.3481 39.4192 45.2616 39.4021 44.9849L38.7324 44.9541L38.7119 44.9678C38.9921 45.4051 39.2723 45.8424 39.5422 46.2695C39.6925 46.6146 39.6515 47.6362 39.6515 47.6362L39.6481 47.6396Z" fill="#B0DCDF"/>
<path d="M54.2543 51.0705C54.3432 53.6637 55.2418 55.3242 56.1745 56.8993C55.7577 57.0121 54.7053 57.3025 54.596 57.3333C54.7532 56.7558 54.9992 56.1443 54.7737 55.8778C54.145 55.5019 53.3557 55.109 52.8672 55.0851C52.2351 55.2388 51.5176 55.9973 50.8274 56.3663C50.2944 56.1203 49.7648 55.8607 49.2523 55.5737C49.2181 55.5566 48.979 54.6136 49.0029 54.1967C48.6305 54.1762 48.282 54.3061 47.9335 54.4803C47.9096 54.2753 45.0874 50.9406 44.8721 48.5421C44.8209 47.2062 44.3186 46.106 43.7002 45.1118C43.7104 45.1084 43.8334 45.1015 44.0282 45.0913C44.223 45.0844 44.4895 45.0742 44.7799 45.0605C45.3641 45.0366 46.0543 45.0127 46.5053 44.9956C46.4643 45.2416 46.0987 45.7815 45.9928 45.8635C46.1158 45.8703 47.0417 45.1118 47.4005 44.9478C47.9745 44.9136 49.3787 44.9239 49.5051 45.0093C49.6691 45.0161 49.3036 45.6789 49.266 46.3589C50.0142 45.4774 50.7727 44.9034 51.5415 44.5959L52.1531 44.5651C52.2317 44.3054 52.2863 44.1312 52.2043 44.1278C52.0813 44.0458 51.9549 43.9809 51.8285 43.933C52.2077 43.8989 53.8204 43.7554 54.2441 43.7178C53.8033 43.892 53.3626 44.1722 52.9252 44.5309C53.3626 44.5207 53.8033 44.5139 54.2407 44.5241L54.2919 44.5412C54.9274 46.048 55.4399 47.7939 55.8158 49.7926C55.3033 50.1036 54.2988 50.3871 54.2578 51.0671L54.2543 51.0705Z" fill="#B5DEE1"/>
<path d="M12.1092 43.2597C11.1833 44.5615 9.72775 44.5307 8.92141 46.1913C7.68799 49.256 8.17999 52.8333 7.69141 56.4106C11.4668 55.0439 15.2833 54.323 19.1065 54.0086C18.1806 52.478 16.544 53.2877 15.7821 50.8209C15.7855 50.4792 16.117 50.1409 16.2844 49.8027C15.314 48.7709 13.674 48.4189 13.6877 46.7174C13.6945 45.6753 14.0054 44.5444 14.1558 43.1948L13.7902 43.1846C13.4007 43.68 12.7994 43.311 12.1058 43.2597H12.1092Z" fill="#90D0D4"/>
<path d="M19.3495 42.0639L16.6367 41.7666C16.623 42.0912 16.5957 42.4021 16.5615 42.7028C17.6207 42.7369 18.6799 42.8736 19.7356 43.0752C19.599 42.7609 19.4691 42.426 19.3495 42.0673V42.0639Z" fill="#99D3D8"/>
<path d="M16.2882 49.8061C16.1208 50.1444 15.7893 50.4826 15.7859 50.8243C16.5478 53.2877 18.1844 52.4814 19.1104 54.0121C20.5795 53.8856 22.0487 53.8241 23.5213 53.8036C23.2753 53.5235 23.0293 53.2467 22.7799 52.9631C23.5965 52.9802 23.8083 50.5988 24.6249 50.6124C22.2913 48.0739 19.0864 47.5272 17.3337 43.5536C16.2779 43.352 15.2187 43.2324 14.1596 43.1982C14.0058 44.5512 13.6983 45.6788 13.6915 46.7208C13.6778 48.4258 15.3178 48.7777 16.2882 49.8061Z" fill="#99D3D8"/>
<path d="M24.6242 50.6128C23.8076 50.5957 23.5924 52.9772 22.7792 52.9635C23.0286 53.2471 23.2746 53.5273 23.5206 53.804C25.2187 53.7767 26.9168 53.8108 28.6149 53.8758C28.7311 53.8348 28.8438 53.804 28.9566 53.7801C30.2617 53.5375 31.3517 53.7288 32.5748 53.4999C31.8129 52.1128 31.0476 50.7222 30.2481 49.4067C28.6354 51.2483 26.9031 52.7619 25.0479 53.6878C25.7073 53.3598 25.5843 51.6515 25.9191 51.3167C27.1662 49.4648 28.3416 45.5937 27.7778 43.9093C25.2153 43.5813 22.646 43.2499 20.0698 42.9219C19.8853 43.3524 19.6256 44.0562 19.4889 44.0528C18.7714 43.858 18.0539 43.6906 17.333 43.554C19.0858 47.5276 22.2906 48.0742 24.6242 50.6128Z" fill="#A0D5D9"/>
<path d="M30.2446 49.4066C31.0441 50.7221 31.8061 52.1126 32.5714 53.4998C32.8823 53.4417 33.2035 53.3563 33.5383 53.2265C33.5281 53.5271 33.5178 53.8244 33.3982 54.1217L34.0816 54.1627C34.3617 53.9918 34.659 52.9497 35.0075 54.2207L35.971 54.2822C36.3263 53.903 36.6167 53.3836 36.8217 52.6559L36.7842 53.6775C37.0848 54.3677 37.4367 53.7014 37.7613 53.7116C37.7545 53.8962 37.7442 54.1763 37.7613 54.3984C39.3091 53.616 41.424 54.6 41.8169 54.6171C42.0459 54.4531 42.2748 54.3062 42.5037 54.1866C41.8614 51.6377 41.0072 49.3246 39.6473 47.6436C39.6473 47.6436 39.6883 46.622 39.538 46.2769C39.2647 45.8499 38.9879 45.4125 38.7078 44.9752C36.8525 46.5708 34.6316 44.6745 34.536 44.654L33.7672 44.5857C32.3049 44.6643 30.0157 46.3555 28.3757 43.9843L27.7744 43.9092C28.3381 45.597 27.1594 49.4647 25.9157 51.3166C25.5809 51.6514 24.4738 53.5716 25.0444 53.6877C27.0774 53.4076 30.3471 49.2905 30.2446 49.4066Z" fill="#A7D8DC"/>
<path d="M79.302 52.4674C79.8794 52.3205 80.4602 52.1701 81.0479 52.0164C80.4329 51.9617 79.7837 52.2624 79.5309 51.4492C79.2371 51.685 78.9262 51.6611 78.6152 51.6337C78.8202 51.9788 79.0526 52.2487 79.302 52.4674Z" fill="#E3F2F3"/>
<path d="M78.6728 47.5338L78.1808 47.4894C78.1193 48.1693 78.3824 48.8766 78.7412 48.5657C78.6762 49.2456 78.4132 48.5383 78.3824 48.8766C78.297 49.7786 78.4815 49.8299 78.7138 49.741C78.8573 48.2206 78.7514 46.6831 78.5054 46.6626L78.1808 46.6318C78.338 46.953 78.6182 47.1478 78.6728 47.5338Z" fill="#E3F2F3"/>
<path d="M73.0629 48.2619C72.5402 48.5626 72.1541 49.2118 71.6074 49.8541C72.1063 51.149 72.4753 52.6626 72.8169 54.2206C74.3442 53.6774 75.8441 53.2229 77.3782 52.8129C77.1288 52.5977 76.8964 52.3278 76.6914 51.9793C77.0024 52.0066 77.3133 52.0339 77.6071 51.7948C77.5559 51.6376 77.5217 51.4463 77.5046 51.1934V51.1729C77.2723 51.2652 77.0912 51.2139 77.1732 50.3119C77.2039 49.9703 77.4705 50.6775 77.532 49.9976C77.1732 50.3119 76.9101 49.6013 76.9716 48.9213L77.4636 48.9658C77.409 48.5797 77.1288 48.3849 76.9716 48.0603C75.5537 47.9305 74.1494 47.7357 72.7486 47.4932C72.8545 47.746 72.9604 47.9988 73.0663 48.2551L73.0629 48.2619Z" fill="#DDEFF1"/>
</g>
</g>
</g>
<g style="mix-blend-mode:multiply">
<g opacity="0.9">
<g opacity="0.9">
<path d="M35.1713 65.1046C33.3776 65.1832 31.5804 65.2823 29.7832 65.4155C30.1932 65.0944 30.5964 64.78 30.9961 64.4691C32.3491 63.6252 33.7295 64.9304 35.1747 65.1046H35.1713Z" fill="#A7D8DC"/>
<path d="M40.0985 64.9881C40.0985 64.9881 40.0917 64.9983 40.0883 65.0052C38.7045 65.0052 37.3242 65.0188 35.9404 65.0701C36.0361 65.0496 36.1283 65.0257 36.224 64.9915C37.536 64.3833 38.8344 64.0622 40.0985 64.9881Z" fill="#A7D8DC"/>
<path d="M62.4232 53.8944C61.0531 57.7381 59.3413 60.9293 57.7355 64.182C57.3289 64.4007 56.895 64.8995 56.5533 64.8995C56.567 65.0362 54.1377 65.3744 52.8975 65.3232C53.6355 63.7447 54.2778 61.8963 54.7937 59.7745C54.3086 59.4089 53.3348 59.0399 53.3416 58.3053C53.6184 55.531 54.6263 53.809 55.665 52.1826C55.9691 52.3056 60.1716 54.3488 62.4198 53.8978L62.4232 53.8944Z" fill="#C6E5E7"/>
<path d="M67.7496 54.3281C69.2051 54.5126 71.1424 55.7666 71.9521 56.139C71.5045 57.7858 71.0262 59.3814 70.4385 60.7412C70.9373 61.469 71.2722 62.1899 71.7676 62.5453C71.6446 62.8152 71.5216 63.0783 71.3986 63.3413C68.9386 63.6249 66.4888 64.052 64.0391 64.4278C64.2065 63.4438 67.1141 57.2938 67.7496 54.3315V54.3281Z" fill="#D1EAEC"/>
<path d="M63.4142 54.615C63.9677 54.4031 64.4631 54.1879 64.938 53.976C65.8674 54.0239 66.8001 54.1093 67.7499 54.328C67.1076 57.2868 66.1919 59.9347 65.0644 61.9164C65.2284 61.9164 65.3753 62.9551 65.5393 62.9551C64.7535 63.6418 64.2034 63.4368 64.0394 64.4243C61.7673 64.783 59.4918 65.0939 57.2129 65.2579C57.7083 64.5336 58.1935 64.8958 58.6855 64.8958C58.4531 64.0245 58.1081 63.9835 57.7391 64.1851C59.3449 60.9324 61.0532 57.7412 62.4267 53.8975L62.8983 53.9145C63.0315 54.369 63.1545 54.8234 63.421 54.6184L63.4142 54.615Z" fill="#CBE7EA"/>
<path d="M38.6329 61.0281C40.0986 59.3129 41.1134 56.8905 41.9334 54.1982C42.3366 54.4578 43.1156 55.0523 43.7032 54.4237C44.7556 54.492 46.9525 55.1719 47.3283 54.2357C47.7076 53.2962 44.9537 58.182 43.8672 60.4029C43.7203 61.831 43.1429 62.9756 42.4561 64.004C42.2477 63.9084 42.4459 63.02 42.2375 62.88C42.2375 63.0064 41.8343 64.004 41.8343 64.004C41.8343 64.004 40.2968 63.9289 39.528 63.8913C39.1898 62.4529 38.2297 63.5565 38.1887 63.8571L37.5225 63.8469L37.502 63.8298C37.8095 63.3788 38.1204 62.9278 38.4176 62.487C38.5919 62.1249 38.6226 61.0281 38.6226 61.0281H38.6329Z" fill="#B0DCDF"/>
<path d="M53.3445 58.3051C53.6213 55.5308 54.6292 53.8087 55.6679 52.1824C55.2647 52.0321 54.2431 51.6528 54.1338 51.6152C54.25 52.2439 54.4481 52.917 54.2021 53.1869C53.553 53.5491 52.7398 53.9181 52.2546 53.9112C51.6396 53.7062 50.9836 52.8452 50.3276 52.4045C49.7809 52.6334 49.2377 52.876 48.7081 53.1527C48.6739 53.1664 48.3699 54.1641 48.363 54.6117C47.9906 54.6117 47.6558 54.4477 47.3243 54.2392C47.2868 54.4579 44.2493 57.8507 43.8632 60.4064C43.7163 61.8345 43.1389 62.9791 42.4521 64.0075C42.4624 64.011 42.5854 64.028 42.7767 64.0485C42.9681 64.069 43.2312 64.0998 43.5182 64.1306C44.0956 64.1921 44.7789 64.2672 45.2231 64.315C45.1992 64.0485 44.878 63.4472 44.7789 63.3515C44.9019 63.3515 45.7629 64.2262 46.108 64.4278C46.6752 64.503 48.0658 64.5816 48.1956 64.4961C48.3596 64.4961 48.0418 63.765 48.0555 63.0304C48.732 64.0246 49.4427 64.6875 50.1807 65.0701L50.7854 65.1419C50.8435 65.4255 50.8879 65.6168 50.8025 65.6168C50.6727 65.6954 50.5463 65.7569 50.4164 65.8013C50.7889 65.8628 52.3776 66.1225 52.7945 66.1908C52.3708 65.9756 51.954 65.6441 51.5474 65.2307C51.9813 65.2717 52.4152 65.3059 52.8491 65.323L52.9038 65.3059C53.6418 63.7308 54.2773 61.8926 54.7932 59.7777C54.308 59.4121 53.3343 59.0431 53.3411 58.3085L53.3445 58.3051Z" fill="#B5DEE1"/>
<path d="M11.0428 63.9287C10.2228 62.4732 8.77753 62.4083 8.10103 60.5769C7.09994 57.2115 7.84819 53.4087 7.62269 49.541C11.2615 51.2528 14.9891 52.2744 18.7542 52.8586C17.7258 54.4371 16.1644 53.4668 15.2316 56.0601C15.2111 56.4256 15.5152 56.8083 15.6553 57.1841C14.6201 58.2262 12.9698 58.4961 12.8605 60.3241C12.7921 61.4413 13.0176 62.6747 13.0689 64.1337L12.7033 64.12C12.3514 63.5631 11.7295 63.9184 11.0428 63.9321V63.9287Z" fill="#90D0D4"/>
<path d="M18.1259 65.6847L15.4199 65.8282C15.4302 65.4797 15.4233 65.1448 15.4131 64.8202C16.4654 64.851 17.5246 64.7758 18.5838 64.6289C18.4232 64.9569 18.2729 65.3088 18.1294 65.6847H18.1259Z" fill="#99D3D8"/>
<path d="M15.6554 57.1839C15.5154 56.8115 15.2113 56.4254 15.2318 56.0598C16.1645 53.4666 17.7259 54.4403 18.7544 52.8584C20.1996 53.0907 21.6517 53.2513 23.1072 53.3675C22.8441 53.6511 22.5811 53.9347 22.3111 54.2217C23.1209 54.2592 23.1585 56.8252 23.9682 56.8628C21.4706 59.4321 18.259 59.8079 16.2363 63.9558C15.1771 64.1027 14.1179 64.1642 13.069 64.13C13.0143 62.6711 12.7923 61.4411 12.8606 60.3204C12.9699 58.4925 14.6202 58.2226 15.6554 57.1805V57.1839Z" fill="#99D3D8"/>
<path d="M23.9678 56.8664C23.158 56.8288 23.117 54.2628 22.3107 54.2253C22.5772 53.9383 22.8403 53.6547 23.1068 53.3711C24.7878 53.5112 26.4722 53.5863 28.1567 53.6273C28.266 53.6786 28.3787 53.7196 28.4881 53.7538C29.7659 54.0988 30.8558 53.9656 32.0483 54.2902C31.1941 55.7252 30.3365 57.167 29.4482 58.5269C27.9824 56.4495 26.3766 54.7104 24.6067 53.6C25.2354 53.9963 24.9928 55.8174 25.2969 56.2001C26.3971 58.2672 27.282 62.4902 26.6021 64.2635C24.0395 64.448 21.4702 64.6359 18.8974 64.8204C18.7471 64.3455 18.5387 63.5767 18.402 63.5699C17.6777 63.7339 16.9533 63.8637 16.2324 63.9662C18.2551 59.8218 21.4668 59.4425 23.9644 56.8732L23.9678 56.8664Z" fill="#A0D5D9"/>
<path d="M29.449 58.5235C30.3339 57.1671 31.1915 55.7253 32.0491 54.2869C32.3532 54.3689 32.6641 54.485 32.9853 54.6422C32.9955 54.321 33.0058 53.9999 32.9101 53.6753H33.59C33.8565 53.8769 34.0752 55.0146 34.5125 53.6753H35.4726C35.7972 54.1024 36.05 54.6798 36.197 55.4724L36.2311 54.3757C36.5796 53.6548 36.8769 54.3928 37.2015 54.403C37.2083 54.2049 37.2185 53.9042 37.2493 53.665C38.7253 54.6046 40.8915 53.6889 41.281 53.6958C41.4962 53.8871 41.7115 54.0613 41.9302 54.2049C41.1101 56.8972 40.0954 59.3196 38.6296 61.0348C38.6296 61.0348 38.5989 62.1316 38.4246 62.4937C38.124 62.9311 37.8165 63.3821 37.509 63.8365C35.787 62.0051 33.4499 63.8912 33.3543 63.9082L32.5889 63.9322C31.1437 63.7511 29.0014 61.7933 27.2042 64.226L26.6029 64.267C27.2828 62.4971 26.3979 58.2707 25.2977 56.2036C24.9902 55.8209 24.0336 53.6923 24.6076 53.6035C26.6029 54.034 29.5413 58.6636 29.449 58.5304V58.5235Z" fill="#A7D8DC"/>
<path d="M78.2492 58.4385C78.8096 58.6366 79.3733 58.8314 79.9473 59.033C79.3323 59.0501 78.7139 58.6879 78.403 59.5421C78.1297 59.2687 77.8187 59.2756 77.5078 59.2858C77.7367 58.9271 77.9861 58.6537 78.2492 58.4385Z" fill="#E3F2F3"/>
<path d="M77.2683 63.6861L76.7763 63.6998C76.7627 62.9652 77.077 62.2272 77.4084 62.5825C77.3948 61.8514 77.0804 62.5928 77.0736 62.2272C77.0565 61.2534 77.241 61.209 77.4665 61.3218C77.4973 62.9618 77.2854 64.6018 77.0394 64.6086L76.7148 64.6189C76.8959 64.284 77.1829 64.0927 77.2683 63.6861Z" fill="#E3F2F3"/>
<path d="M71.7676 62.5381C71.2722 62.1828 70.9373 61.4619 70.4385 60.7341C71.0261 59.3777 71.5011 57.7787 71.9521 56.1318C73.4281 56.8118 74.8768 57.3994 76.3664 57.9358C76.1033 58.1511 75.8539 58.4244 75.625 58.7866C75.9359 58.7764 76.2434 58.7695 76.5168 59.0429C76.4553 59.2069 76.4074 59.4119 76.3733 59.6818V59.7023C76.1478 59.5895 75.9633 59.6305 75.9803 60.6043C75.9872 60.9733 76.3015 60.2284 76.3118 60.963C75.9803 60.6043 75.666 61.3491 75.6797 62.0803L76.1683 62.0666C76.0863 62.4766 75.7958 62.6645 75.6148 63.0028C74.2002 63.0472 72.796 63.1668 71.3917 63.3342C71.5147 63.0711 71.6377 62.8046 71.7607 62.5381H71.7676Z" fill="#DDEFF1"/>
</g>
</g>
</g>
<g style="mix-blend-mode:multiply">
<g opacity="0.9">
<g opacity="0.9">
<path d="M21.2428 23.605C18.7897 23.1813 16.3399 22.7337 13.8936 22.252C14.3958 22.662 14.8912 23.0685 15.3798 23.4649C17.0779 24.5992 19.2236 23.5059 21.2428 23.605Z" fill="#A7D8DC"/>
<path d="M27.9944 24.6676C27.9944 24.6676 27.9842 24.654 27.9842 24.6471C26.0811 24.3841 24.1848 24.1039 22.292 23.7861C22.4184 23.8237 22.5448 23.8681 22.6678 23.9228C24.3557 24.8043 26.0777 25.3851 27.9944 24.6676Z" fill="#A7D8DC"/>
<path d="M56.568 40.4455C55.4166 36.1952 53.6707 32.5564 52.0819 28.8766C51.566 28.5726 51.0638 27.9712 50.5923 27.9063C50.6367 27.7696 47.3601 26.9531 45.6483 26.7686C46.3658 28.5452 46.8954 30.5884 47.1995 32.8878C46.4615 33.1748 45.0538 33.373 44.9274 34.1349C44.7771 37.0664 45.8362 39.0481 46.9535 40.9341C47.3942 40.8658 53.5614 39.5504 56.5646 40.4455H56.568Z" fill="#C6E5E7"/>
<path d="M63.9719 41.0163C66.0083 41.1017 68.9091 40.1724 70.0946 39.9435C69.7906 38.1497 69.4386 36.4004 68.892 34.8799C69.7154 34.2205 70.3133 33.5372 71.0616 33.2638C70.942 32.9632 70.8224 32.6625 70.7062 32.3653C67.3784 31.5999 64.095 30.6911 60.7979 29.8301C60.8423 30.8824 63.6679 37.8183 63.9754 41.0163H63.9719Z" fill="#D1EAEC"/>
<path d="M58.0679 39.889C58.7854 40.2135 59.4311 40.5313 60.0393 40.8422C61.3274 40.972 62.6257 41.0609 63.9685 41.013C63.6473 37.8219 62.8922 34.8972 61.7203 32.6251C61.9458 32.6558 62.3456 31.6069 62.5711 31.6377C61.6212 30.7732 60.8251 30.8826 60.7875 29.8268C57.733 29.0205 54.6649 28.262 51.5625 27.6572C52.1058 28.5011 52.8438 28.2176 53.5168 28.3132C53.0317 29.1742 52.5499 29.1469 52.0784 28.8701C53.6672 32.5499 55.4097 36.1887 56.5645 40.439L57.2137 40.5142C57.4836 40.07 57.7399 39.6225 58.0645 39.8821L58.0679 39.889Z" fill="#CBE7EA"/>
<path d="M25.2233 28.4944C26.9111 30.5547 27.8439 33.2607 28.4589 36.2127C29.0636 36.0214 30.2458 35.5533 30.9359 36.3186C32.3949 36.4485 35.5451 36.1649 35.8833 37.207C36.225 38.2525 33.3686 32.6594 32.2992 30.1447C32.3675 28.6345 31.7935 27.3362 31.0453 26.1403C30.7412 26.2018 30.8437 27.1585 30.5328 27.2644C30.5533 27.1346 30.1945 26.0207 30.1945 26.0207C30.1945 26.0207 28.0659 25.8021 27.0033 25.6962C26.2653 27.1243 25.1549 25.7952 25.1583 25.4775L24.2427 25.3613L24.2119 25.375C24.5502 25.9012 24.8884 26.4308 25.2164 26.9433C25.3873 27.3533 25.2233 28.4944 25.2233 28.4944Z" fill="#B0DCDF"/>
<path d="M44.9274 34.1355C44.7771 37.0671 45.8362 39.0487 46.9535 40.9347C46.3692 41.0133 44.8932 41.2115 44.7395 41.232C45.0162 40.5999 45.416 39.9439 45.1358 39.6159C44.3124 39.1171 43.2669 38.5772 42.5972 38.4918C41.7123 38.5875 40.6463 39.3528 39.6623 39.6842C38.955 39.3426 38.2546 38.9872 37.5815 38.6011C37.5371 38.5772 37.3082 37.4839 37.3834 37.0192C36.8709 36.9509 36.3823 37.0568 35.8869 37.2071C35.8766 36.9714 32.3506 32.8714 32.3028 30.1449C32.3711 28.6347 31.7971 27.3363 31.0488 26.1405C31.0625 26.1405 31.2333 26.1473 31.5032 26.1576C31.7732 26.1712 32.1388 26.1917 32.5385 26.2157C33.3448 26.2601 34.2947 26.3147 34.9165 26.3523C34.8311 26.6223 34.2776 27.186 34.1238 27.268C34.2947 27.2885 35.6409 26.5471 36.1568 26.407C36.9494 26.4378 38.8765 26.6223 39.0405 26.735C39.266 26.7658 38.692 27.4662 38.569 28.2281C39.6896 27.3261 40.7932 26.7726 41.8797 26.5197L42.7236 26.5608C42.8569 26.2772 42.9526 26.0892 42.8364 26.0722C42.6724 25.9628 42.5084 25.8774 42.341 25.8057C42.8671 25.8125 45.0948 25.8467 45.6825 25.8569C45.0572 26.0004 44.4217 26.2635 43.7862 26.612C44.391 26.653 44.9957 26.7008 45.5937 26.7623L45.6654 26.7897C46.3795 28.5629 46.9022 30.5924 47.2097 32.8885C46.4717 33.1755 45.0641 33.3736 44.9377 34.1355H44.9274Z" fill="#B5DEE1"/>
<path d="M12.9441 34.9622C13.9042 36.5408 13.9862 32.574 14.8882 34.2277C15.3221 34.2003 15.7697 34.1422 16.2446 34.0363C16.2002 34.3746 16.1523 34.7094 15.9576 35.0272L16.8938 35.157C17.3003 34.9998 17.8163 33.8587 18.1613 35.3347L19.4802 35.5226C20.0064 35.1399 20.4642 34.5864 20.8195 33.7937L20.6589 34.9417C20.9972 35.7583 21.5507 35.0477 21.9983 35.0989C21.9709 35.3039 21.9265 35.6217 21.9265 35.8745C24.1371 35.1809 26.9354 36.5476 27.4752 36.6159C27.8066 36.4588 28.1346 36.3187 28.4626 36.2128C27.8476 33.2642 26.9149 30.5581 25.227 28.4945C25.227 28.4945 25.3911 27.3499 25.2202 26.9433C24.8922 26.4308 24.554 25.9046 24.2157 25.375C21.5029 26.9467 18.6499 24.5414 18.5201 24.5072L17.4712 24.3364C15.4519 24.2475 12.1309 25.8704 10.1287 23.0038L9.31213 22.8467C9.91005 24.8147 7.88737 29.0275 5.98428 30.9613C5.48886 31.2996 3.76685 33.3257 4.53902 33.5272C7.3612 33.4623 13.1046 34.8461 12.9509 34.9657L12.9441 34.9622Z" fill="#A7D8DC"/>
<path d="M79.1867 38.7579C79.993 38.6622 80.8096 38.5631 81.633 38.464C80.7925 38.3274 79.87 38.587 79.6069 37.6406C79.1799 37.873 78.7528 37.8046 78.3291 37.7363C78.5751 38.1531 78.8655 38.4845 79.1867 38.7579Z" fill="#E3F2F3"/>
<path d="M78.8351 33.1241L78.162 33.0148C78.0049 33.7733 78.2919 34.6001 78.8215 34.296C78.6643 35.0511 78.3739 34.2243 78.2953 34.6001C78.0835 35.608 78.3295 35.6866 78.6609 35.6149C79.0162 33.9202 79.0333 32.1777 78.6985 32.123L78.2543 32.0479C78.4388 32.4305 78.7975 32.6834 78.8351 33.1241Z" fill="#E3F2F3"/>
<path d="M71.0583 33.2638C70.31 33.5372 69.7121 34.2205 68.8887 34.8799C69.4388 36.4003 69.7873 38.1497 70.0913 39.9434C72.2473 39.5198 74.3519 39.1884 76.5045 38.915C76.1867 38.6417 75.8929 38.3103 75.6469 37.89C76.0705 37.9583 76.4942 38.0267 76.9213 37.7943C76.87 37.6133 76.8393 37.3912 76.8461 37.1042V37.0803C76.5215 37.1554 76.2755 37.0734 76.484 36.0689C76.5625 35.6863 76.853 36.5165 77.0101 35.7614C76.484 36.0689 76.197 35.2387 76.3507 34.4836L77.0204 34.5929C76.9828 34.1522 76.624 33.8993 76.4361 33.5167C74.5023 33.1989 72.5924 32.8094 70.6961 32.3652C70.8157 32.6625 70.9319 32.9597 71.0514 33.2638H71.0583Z" fill="#DDEFF1"/>
</g>
</g>
</g>
<path d="M60.7363 11.7544C63.1929 11.382 65.6461 10.9925 68.0993 10.5723C67.5936 10.9003 67.0879 11.2214 66.5959 11.5392C64.8808 12.448 62.759 11.6417 60.7397 11.751L60.7363 11.7544Z" fill="#A7D8DC"/>
<path d="M53.9746 12.697C53.9746 12.697 53.9849 12.6867 53.9849 12.6799C55.888 12.4407 57.7876 12.1913 59.6839 11.9111C59.5575 11.9419 59.4311 11.9795 59.3081 12.0239C57.6065 12.738 55.8777 13.2197 53.9746 12.697Z" fill="#A7D8DC"/>
<path d="M2.60114 24.5466C1.79821 24.4851 0.985044 24.4236 0.165039 24.3621C1.00554 24.2425 1.92463 24.4236 2.20138 23.6855C2.62505 23.8564 3.04872 23.7983 3.47581 23.7368C3.22297 24.0648 2.92572 24.3245 2.60114 24.5431V24.5466Z" fill="#E3F2F3"/>
<path d="M3.05159 20.1696L3.72468 20.0739C3.86818 20.6582 3.56409 21.3074 3.04476 21.0784C3.18826 21.6627 3.49234 21.0135 3.56409 21.3074C3.75543 22.0829 3.50943 22.1513 3.18142 22.1C2.85684 20.7914 2.87051 19.4419 3.20876 19.394L3.65293 19.3291C3.46501 19.6298 3.09942 19.8314 3.05159 20.173V20.1696Z" fill="#E3F2F3"/>
<path d="M25.1582 25.4447C26.3848 22.1271 28.1922 19.2741 29.8459 16.3939C30.3652 16.1479 30.8777 15.673 31.3492 15.6149C31.3048 15.509 34.5951 14.8154 36.3068 14.6445C35.5586 16.0351 34.9948 17.6273 34.6463 19.4176C35.3775 19.6261 36.7783 19.7559 36.8945 20.3436C36.9902 22.6157 35.8968 24.1702 34.7488 25.6531C34.3081 25.6087 28.1751 24.6964 25.1582 25.4481V25.4447Z" fill="#C6E5E7"/>
<path d="M17.7542 26.0222C15.7179 26.1247 12.841 25.4585 11.6589 25.3013C11.9937 23.9039 12.3764 22.544 12.9538 21.355C12.144 20.8596 11.5598 20.3403 10.8184 20.1387C10.9448 19.9029 10.8184 15.8405 11.1908 19.4349C14.1189 10.1825 17.8226 18.0169 21.1299 17.2926C21.065 18.1092 18.1198 23.5383 17.7542 26.0222Z" fill="#D1EAEC"/>
<path d="M23.6682 25.0417C22.9439 25.3082 22.2981 25.5644 21.6831 25.8173C20.395 25.9403 19.0967 26.0325 17.7539 26.0223C18.1332 23.5418 18.9395 21.2628 20.149 19.4793C19.9235 19.5101 19.5408 18.7003 19.3153 18.7277C20.2823 18.0409 18.6969 16.4282 18.7516 15.6116C21.8163 14.9317 27.2694 15.9704 30.3786 15.4442C29.8216 16.1071 29.0905 15.9021 28.4174 15.9875C28.8855 16.6469 29.3672 16.6162 29.8421 16.3941C28.1885 19.2777 26.3845 22.1307 25.1544 25.4449L24.5019 25.5132C24.2388 25.1715 23.9928 24.8299 23.6648 25.0383L23.6682 25.0417Z" fill="#CBE7EA"/>
<path d="M56.6705 15.6148C54.9451 17.2446 53.9679 19.3595 53.2982 21.6555C52.7003 21.5188 51.525 21.1772 50.8246 21.7819C49.3656 21.9083 46.2257 21.7443 45.8669 22.5609C45.5082 23.3775 48.4602 18.9871 49.5706 17.0225C49.5296 15.8506 50.1241 14.8358 50.8929 13.8962C51.197 13.9372 51.074 14.682 51.3849 14.7572C51.3678 14.6547 51.7471 13.7869 51.7471 13.7869C51.7471 13.7869 53.8757 13.5785 54.9382 13.476C55.6489 14.5727 56.7833 13.517 56.7867 13.271L57.7058 13.165L57.7365 13.1753C57.388 13.5887 57.0429 14.0055 56.7047 14.4087C56.527 14.7299 56.6705 15.6114 56.6705 15.6114V15.6148Z" fill="#B0DCDF"/>
<path d="M36.8947 20.3437C36.9903 22.6158 35.897 24.1704 34.749 25.6533C35.3298 25.7011 36.799 25.8309 36.9562 25.8446C36.6897 25.3594 36.3036 24.8572 36.5906 24.5975C37.4208 24.1944 38.4766 23.7604 39.1463 23.6818C40.0278 23.7399 41.0801 24.3139 42.0573 24.5565C42.7714 24.2798 43.4752 23.9894 44.1551 23.6784C44.203 23.6613 44.449 22.8072 44.3806 22.4484C44.8931 22.3869 45.3817 22.4587 45.8737 22.568C45.8874 22.3869 49.4851 19.1445 49.5774 17.0296C49.5364 15.8576 50.1309 14.8429 50.8997 13.9033C50.886 13.9033 50.7152 13.9101 50.4452 13.9272C50.1787 13.9443 49.8132 13.9648 49.41 13.9887C48.6036 14.04 47.6538 14.098 47.032 14.1356C47.1106 14.344 47.6572 14.7711 47.8076 14.8326C47.6367 14.8531 46.3042 14.303 45.7951 14.2005C45.0025 14.2381 43.0754 14.4158 42.9114 14.5046C42.6859 14.532 43.2463 15.065 43.3556 15.6526C42.252 14.9727 41.1621 14.5627 40.0824 14.385L39.2385 14.4329C39.1087 14.2176 39.0164 14.0707 39.1326 14.057C39.2966 13.9716 39.464 13.8999 39.6348 13.8418C39.1121 13.8555 36.8844 13.9238 36.2967 13.9409C36.9186 14.04 37.5473 14.2313 38.1759 14.4944C37.5712 14.5388 36.9664 14.5832 36.3685 14.6447L36.2967 14.6652C35.5519 16.0524 34.9916 17.6377 34.6465 19.4212C35.3777 19.6297 36.7785 19.7595 36.8947 20.3472V20.3437Z" fill="#B5DEE1"/>
<path d="M68.8164 20.4125C67.8324 21.6527 67.8188 18.5811 66.886 19.8795C66.4521 19.8658 66.0079 19.8282 65.5364 19.7565C65.5774 20.0161 65.615 20.2758 65.8063 20.5184L64.8702 20.6345C64.467 20.5184 63.9716 19.6471 63.6026 20.7951L62.2837 20.966C61.7644 20.679 61.3202 20.2587 60.9786 19.6505L61.1186 20.5355C60.7633 21.1744 60.2235 20.6345 59.7793 20.6824C59.8032 20.8395 59.8442 21.0855 59.8374 21.2803C57.6439 20.7815 54.8217 21.8919 54.2853 21.9534C53.9573 21.8372 53.6293 21.7347 53.3047 21.6596C53.9744 19.3601 54.9515 17.2452 56.677 15.6189C56.677 15.6189 56.5335 14.7339 56.7111 14.4162C57.0494 14.013 57.3945 13.5996 57.743 13.1828C60.4251 14.3513 63.3156 12.4379 63.4488 12.4072L64.5012 12.2568C66.5204 12.1509 69.8039 13.3502 71.8573 11.0917L72.6773 10.9551C72.0452 12.4926 73.9893 15.7214 75.8548 17.1871C76.3434 17.4399 78.0278 18.9809 77.2522 19.1483C74.4335 19.1483 68.6764 20.3236 68.8267 20.4159L68.8164 20.4125Z" fill="#A7D8DC"/>
<path d="M10.8181 20.1388C11.5595 20.337 12.1437 20.8563 12.9535 21.3552C12.3761 22.5442 11.9968 23.9074 11.6586 25.3014C9.51289 25.011 7.41504 24.7924 5.27278 24.6181C5.59737 24.3994 5.89462 24.1364 6.14745 23.8084C5.72378 23.8699 5.30011 23.9279 4.87645 23.7571C4.93111 23.6136 4.96528 23.4428 4.96528 23.2207V23.2036C5.28986 23.2548 5.53587 23.1899 5.34453 22.4143C5.27278 22.1205 4.9687 22.7697 4.8252 22.1854C5.34453 22.4143 5.64862 21.7652 5.50512 21.1809L4.83203 21.2766C4.87645 20.9349 5.24203 20.7333 5.43337 20.4293C7.37063 20.1491 9.88531 15.7484 11.7884 15.3691C11.6654 15.6015 10.9376 19.8997 10.8146 20.1354L10.8181 20.1388Z" fill="#DDEFF1"/>
<path d="M79.9036 59.5746C79.7601 57.1283 77.8433 56.4996 75.9163 56.1067C74.0986 55.7343 72.2434 55.4131 70.3949 55.3618C59.137 55.0441 47.9166 55.9188 36.6893 56.5816C36.1324 56.6158 35.6472 56.7388 35.3534 57.2478C34.5778 57.3913 34.3967 56.626 33.9321 56.298C32.0051 54.9313 27.454 54.8493 27.0953 56.4108C26.6238 58.4608 24.5738 60.3946 26.3231 62.7487C22.1513 63.2065 18.1299 63.4047 14.1085 63.2236C11.9184 63.1245 9.7112 62.9366 7.63043 62.0893C6.48585 61.6246 5.35492 60.9549 5.36517 59.6942C5.37542 58.4608 6.63276 58.0166 7.68852 57.6339C7.94135 57.5417 8.20444 57.4665 8.47094 57.4153C12.5334 56.6568 16.6129 56.8959 20.6856 57.2547C22.452 57.4084 24.2014 57.5178 25.9951 57.3469C25.9097 56.4757 25.2264 56.2946 24.7959 56.2502C19.9134 55.765 15.0378 54.8391 10.1109 55.6352C8.99369 55.8162 8.49827 55.7753 8.56661 54.4086C8.83994 48.9111 7.83885 43.4854 7.47668 38.0256C7.14527 33.0372 6.66351 28.0523 6.92318 23.0468C7.16235 18.4787 8.3206 16.7738 11.4981 16.193C12.7213 15.9709 13.965 15.8 15.2052 15.7522C23.0431 15.4413 30.881 15.1543 38.7188 14.8946C45.7333 14.6589 52.7478 14.488 59.7588 14.242C64.1322 14.0883 68.4918 13.9174 72.872 14.3889C74.5872 14.5734 75.414 15.349 75.6669 16.8626C76.0188 18.9776 76.422 21.1061 76.4937 23.2382C76.8388 33.437 77.8091 43.605 77.7647 53.8209C77.7613 54.7468 77.2249 56.4278 78.5198 56.4654C79.9753 56.5098 79.825 54.7468 79.8421 53.6706C80.0027 42.006 79.6644 30.3585 78.1918 18.7726C77.6144 14.2386 76.1315 12.5952 72.5269 12.4141C69.7526 12.274 66.968 12.2194 64.1868 12.2604C46.9701 12.5234 29.7774 13.176 12.5949 14.3924C6.4551 14.8263 5.11917 17.5938 4.89025 22.343C4.36408 33.2354 5.05425 44.1073 6.93685 54.8664C7.11452 55.8743 7.0291 56.2126 6.13734 56.6909C3.22974 58.2592 3.06574 61.2214 5.95284 62.7829C7.5211 63.6336 8.47436 64.2794 8.18052 66.2406C8.02335 67.2861 8.91169 68.0958 9.81028 68.6903C11.0984 69.5411 12.5265 70.0194 14.0162 70.3372C19.746 71.5706 25.568 71.6799 31.3901 71.6594C42.8496 71.6218 54.2613 70.1527 65.7448 70.6617C67.9896 70.7608 70.2959 70.3132 72.5201 69.8486C76.5313 69.0115 77.5597 66.9615 76.1965 62.9981C77.8501 62.3045 80.0402 62.1337 79.8899 59.5678L79.9036 59.5746ZM30.2694 56.5816C32.4936 56.6636 34.4992 58.5667 34.4617 60.562C34.4275 62.3045 32.5552 63.989 30.6999 63.9411C29.1658 63.9035 27.3447 62.0756 27.3379 60.5689C27.3242 57.7467 28.233 56.5098 30.2728 56.5816H30.2694ZM72.5064 68.3555C71.1329 68.7962 69.7321 69.1106 68.2663 69.1003C64.5832 69.0764 60.9 69.0935 58.621 69.0935C50.4757 68.7723 43.755 69.319 37.0344 69.7051C29.3332 70.1458 21.6628 70.0262 14.0436 68.6732C12.8204 68.4546 11.6655 68.0275 10.5893 67.4022C9.47544 66.7531 9.07569 65.6461 9.48569 64.5561C9.87861 63.5175 10.7704 64.44 11.4366 64.481C16.3601 64.7714 21.2767 64.7406 26.1489 63.9309C26.863 63.8113 27.2593 63.8079 27.7513 64.3067C28.9403 65.5094 30.5632 65.8408 31.9743 65.2736C33.6041 64.6176 35.1313 64.8807 36.7338 64.9081C47.2264 65.0686 57.702 64.3887 68.1809 64.0368C70.1797 63.9685 72.175 63.6507 74.1533 63.3227C75.151 63.1587 75.291 63.4901 75.3286 64.3716C75.4414 67.0196 75.151 67.5081 72.5064 68.3555ZM76.0735 61.2078C73.5041 62.1645 70.7742 62.2089 68.1194 62.3421C59.3283 62.776 50.5235 63.0118 41.7221 63.227C39.5799 63.2783 37.4547 63.5038 35.0254 63.6883C36.7406 61.5187 36.1188 59.4755 35.4115 57.4289C35.3773 57.3879 35.3432 57.3572 35.3124 57.3128C35.3124 57.3128 35.3568 57.2513 35.3534 57.2547C35.3739 57.3128 35.3944 57.3708 35.4149 57.4289C36.0128 58.1533 36.8773 57.8389 37.605 57.815C47.9302 57.4836 58.2486 56.9335 68.5841 57.0087C71.0749 57.0258 73.5554 57.2068 75.9812 57.8253C77.0062 58.0849 78.1303 58.4881 78.1679 59.6703C78.2089 60.8934 76.9379 60.89 76.0735 61.2112V61.2078Z" fill="#020203"/>
<path d="M71.6695 35.3571C71.2356 31.1033 70.4463 26.788 71.7686 22.5718C72.3767 20.6346 71.8198 20.1597 69.9441 20.1255C60.842 19.9649 51.74 19.7121 43.1709 19.5037C34.0859 19.5037 25.534 19.4968 16.9854 19.5105C15.9468 19.5105 14.9013 19.5857 13.8728 19.7121C13.3638 19.7736 12.8444 19.8487 12.7248 20.6346C11.3547 29.6922 10.4869 38.7738 11.4128 47.9339C11.7784 51.5453 12.3729 51.9793 15.9775 51.9827C25.6399 51.9895 35.3023 52.0613 44.9647 51.9929C52.4643 51.9383 59.9673 52.3038 67.4635 51.6034C71.2834 51.2481 72.4963 50.1206 72.4758 46.3417C72.4553 42.6585 72.0419 39.0129 71.6695 35.3537V35.3571ZM69.6058 37.7419C69.8142 40.7828 70.0158 43.827 70.3233 46.8576C70.5044 48.6412 69.7527 49.3245 68.0512 49.5158C62.5913 50.1342 57.1041 50.2538 51.6272 50.247C39.5356 50.2367 27.4439 50.0249 15.3523 49.9942C13.6542 49.9907 13.2852 49.2562 13.1417 47.8246C12.3934 40.3181 13.1485 32.8629 13.8421 25.4043C13.8489 25.3359 13.8523 25.2642 13.8728 25.1993C14.2418 23.9898 13.2237 22.2883 14.2897 21.6152C15.1712 21.0548 16.7155 21.5366 17.966 21.5571C33.3924 21.8304 48.8187 22.1072 64.2484 21.9705C66.1823 21.9534 68.1195 22.0969 70.3882 21.54C68.4475 27.1195 69.2402 32.4392 69.6024 37.7419H69.6058Z" fill="#030304"/>
<path d="M45.2442 35.3773C43.4641 34.2703 41.6328 33.2487 39.74 32.3364C39.5555 32.2476 39.371 32.0802 39.1865 32.2818C38.9712 32.5209 39.2548 32.6815 39.3129 32.8831C38.7867 32.9275 38.8653 33.4093 38.8072 33.7134C38.5168 35.2167 38.3904 36.7406 38.4314 38.2746C38.4587 39.2621 38.9234 39.6413 39.8459 39.2655C41.6294 38.5377 43.3958 37.7621 45.1417 36.9421C46.0506 36.5151 46.095 35.9103 45.2408 35.3807L45.2442 35.3773ZM39.3505 38.425C39.2309 36.5424 39.7468 34.7213 39.3539 32.9173C39.3436 32.9139 39.3334 32.907 39.3231 32.9002L39.347 32.8763C39.347 32.8763 39.3505 32.9036 39.3539 32.9173C41.298 33.8193 43.1566 34.8819 45.2306 36.0846C43.1806 36.9011 41.3185 37.6426 39.3505 38.425Z" fill="#040405"/>
<g style="mix-blend-mode:multiply">
<g opacity="0.9">
<g opacity="0.9">
<path d="M65.6289 19.3066C68.1163 19.3647 70.607 19.3989 73.1012 19.3955C72.5306 19.6996 71.9634 20.0036 71.4099 20.3009C69.5239 21.0867 67.6311 19.6005 65.6289 19.3066Z" fill="#A7D8DC"/>
<path d="M58.7949 19.0464C58.7949 19.0464 58.8052 19.0361 58.8086 19.0293C60.7253 19.1386 62.6421 19.2275 64.5589 19.2821C64.429 19.2958 64.2958 19.3129 64.166 19.3436C62.3414 19.8835 60.5374 20.1226 58.7949 19.0498V19.0464Z" fill="#A7D8DC"/>
<path d="M27.7173 29.0166C29.6682 25.0669 32.0804 21.8347 34.3491 18.5273C34.9128 18.3292 35.521 17.8337 35.9959 17.8611C35.9788 17.7176 39.3511 17.5467 41.0663 17.6971C40.0208 19.3029 39.1085 21.206 38.3637 23.4029C39.0333 23.8266 40.3727 24.2913 40.3522 25.0635C39.9319 27.9711 38.5106 29.7067 37.0517 31.3433C36.6314 31.1896 30.8333 28.7091 27.7139 29.0097L27.7173 29.0166Z" fill="#C6E5E7"/>
<path d="M20.3406 28.1489C18.3247 27.8414 15.6597 26.3688 14.5391 25.9144C15.1848 24.2129 15.8647 22.5661 16.6984 21.1789C16.0185 20.3726 15.5641 19.5867 14.8841 19.1733C15.0584 18.9 15.2326 18.6301 15.4069 18.3601C18.8202 18.2508 22.2164 17.9911 25.6194 17.7861C25.3734 18.8111 21.2631 25.0739 20.344 28.1489H20.3406Z" fill="#D1EAEC"/>
<path d="M26.3508 28.1822C25.582 28.3633 24.8918 28.5512 24.2324 28.7391C22.9443 28.6161 21.6528 28.4556 20.3408 28.148C21.2702 25.0799 22.5753 22.3568 24.1641 20.3512C23.9386 20.3409 23.7473 19.2305 23.5183 19.2168C24.6185 18.5506 25.377 18.8103 25.6162 17.7852C28.7698 17.5837 31.9234 17.4299 35.0872 17.4367C34.3936 18.1611 33.724 17.7408 33.0441 17.7067C33.3516 18.6462 33.8299 18.7112 34.3458 18.5301C32.0771 21.834 29.665 25.0696 27.714 29.0193L27.0614 28.9681C26.8804 28.4795 26.7198 27.9909 26.3474 28.1856L26.3508 28.1822Z" fill="#CBE7EA"/>
<path d="M60.7769 23.3381C58.72 25.0362 57.285 27.5098 56.1131 30.2876C55.5562 29.9835 54.4868 29.2968 53.6633 29.9152C52.2044 29.7614 49.1704 28.8765 48.6374 29.8332C48.101 30.7933 51.9823 25.8527 53.5164 23.5977C53.7385 22.1012 54.5551 20.9396 55.5186 19.9111C55.8056 20.0273 55.5186 20.9498 55.8056 21.1138C55.8124 20.9806 56.3762 19.959 56.3762 19.959C56.3762 19.959 58.5082 20.1571 59.5708 20.2562C60.0184 21.8006 61.368 20.7072 61.4226 20.3963L62.3451 20.4612L62.3725 20.4817C61.9386 20.9327 61.5046 21.3871 61.0844 21.8245C60.8384 22.1935 60.7803 23.3483 60.7803 23.3483L60.7769 23.3381Z" fill="#B0DCDF"/>
<path d="M40.3552 25.0696C39.935 27.9772 38.5136 29.7129 37.0547 31.3495C37.6116 31.5374 39.0227 32.0158 39.1696 32.067C39.0193 31.3939 38.7528 30.6696 39.0944 30.4031C39.9999 30.0717 41.1274 29.7471 41.8005 29.7881C42.6512 30.0512 43.5498 31.0113 44.4518 31.5272C45.2137 31.329 45.9688 31.1138 46.7034 30.8643C46.7547 30.8507 47.1852 29.8223 47.2022 29.3508C47.7182 29.3815 48.1794 29.5797 48.6338 29.8257C48.6885 29.5968 52.9423 26.2552 53.5129 23.5902C53.7349 22.0937 54.5515 20.932 55.515 19.9036C55.5014 19.8968 55.334 19.8729 55.0675 19.8353C54.8009 19.7977 54.4388 19.7465 54.039 19.6918C53.2395 19.5825 52.2965 19.4526 51.6815 19.3672C51.7123 19.6474 52.1496 20.3102 52.2828 20.4195C52.112 20.4093 50.9333 19.4185 50.4549 19.1827C49.6725 19.0597 47.7455 18.8684 47.5644 18.9469C47.3389 18.9333 47.766 19.7294 47.7387 20.5015C46.8127 19.4014 45.839 18.6463 44.8208 18.185L43.9871 18.062C43.9086 17.7579 43.8539 17.5529 43.9701 17.5632C44.1511 17.488 44.3288 17.4334 44.5099 17.3992C43.994 17.3069 41.797 16.9106 41.223 16.8047C41.8073 17.0678 42.3813 17.447 42.9348 17.9117C42.3335 17.8365 41.7321 17.7648 41.1342 17.7135L41.059 17.7272C40.017 19.3296 39.1115 21.2225 38.3667 23.4126C39.0364 23.8362 40.3757 24.3009 40.3552 25.0731V25.0696Z" fill="#B5DEE1"/>
<path d="M71.5767 32.0537C70.333 33.417 71.013 29.5083 69.8103 30.957C69.39 30.8442 68.9629 30.7007 68.5154 30.5094C68.4949 30.8477 68.4778 31.1859 68.6076 31.5344L67.6646 31.4797C67.299 31.2474 67.0086 30.0311 66.3868 31.4114L65.0577 31.3397C64.6169 30.8613 64.2718 30.2327 64.0771 29.3853L64.0122 30.5402C63.5202 31.2747 63.117 30.4718 62.666 30.4377C62.6557 30.6461 62.6387 30.9638 62.5874 31.2098C60.5545 30.1028 57.541 30.9023 57.0011 30.8647C56.7073 30.6461 56.41 30.4479 56.1094 30.2771C57.2813 27.5027 58.7197 25.0256 60.7731 23.3275C60.7731 23.3275 60.8312 22.1727 61.0772 21.8037C61.4975 21.3629 61.9314 20.9119 62.3653 20.4609C64.7263 22.5246 67.9892 20.7172 68.1224 20.7069L69.185 20.7411C71.1838 21.0418 74.129 23.2763 76.6471 20.8504H77.4807C76.5172 22.6715 77.6857 27.1952 79.1822 29.4605C79.6025 29.8876 80.9008 32.2075 80.1048 32.2553C77.3475 31.6437 71.4469 31.8966 71.5733 32.0435L71.5767 32.0537Z" fill="#A7D8DC"/>
<path d="M5.84678 22.9996C5.0746 22.7501 4.29218 22.4973 3.50293 22.2411C4.35368 22.2684 5.20786 22.7023 5.64861 21.8242C6.02444 22.1351 6.45495 22.1522 6.88203 22.1659C6.56086 22.5246 6.21236 22.7946 5.84678 23.003V22.9996Z" fill="#E3F2F3"/>
<path d="M7.27817 17.5397L7.95809 17.5636C7.96834 18.3392 7.52417 19.0943 7.06633 18.6946C7.07658 19.4667 7.51734 18.7082 7.52417 19.0977C7.53784 20.1262 7.28159 20.1569 6.97067 20.0237C6.95017 18.2914 7.26792 16.5796 7.60959 16.5899L8.05717 16.6036C7.80434 16.9418 7.40117 17.1229 7.27817 17.5466V17.5397Z" fill="#E3F2F3"/>
<path d="M14.8842 19.1725C15.5641 19.586 16.0186 20.3718 16.6985 21.1781C15.8648 22.5653 15.1849 24.2122 14.5391 25.9137C12.5062 25.08 10.504 24.3488 8.44377 23.6689C8.80936 23.4605 9.16128 23.1906 9.48245 22.8284C9.05194 22.8147 8.62486 22.7976 8.24902 22.4867C8.33444 22.3193 8.40619 22.1041 8.45744 21.8239V21.8C8.76836 21.9366 9.02461 21.9059 9.01094 20.8775C9.00753 20.488 8.56336 21.2465 8.55652 20.4743C9.01094 20.8775 9.45511 20.119 9.44828 19.3468L8.76836 19.3229C8.88794 18.8992 9.29111 18.7181 9.54736 18.3765C11.5051 18.438 13.4561 18.4209 15.4036 18.3525C15.2293 18.6225 15.0551 18.8924 14.8808 19.1657L14.8842 19.1725Z" fill="#DDEFF1"/>
</g>
</g>
</g>
<g style="mix-blend-mode:multiply">
<g opacity="0.9">
<g opacity="0.9">
<path d="M35.6436 71.2698C33.9489 71.3108 32.2577 71.3689 30.5596 71.4509C30.9422 71.2015 31.3215 70.9589 31.6905 70.7163C32.9581 70.0637 34.2735 71.116 35.6402 71.2698H35.6436Z" fill="#A7D8DC"/>
<path d="M40.2939 71.2354C40.2939 71.2354 40.2871 71.2422 40.2837 71.249C38.9785 71.2319 37.6733 71.2285 36.3682 71.249C36.457 71.2354 36.5458 71.2183 36.6347 71.1909C37.8647 70.7263 39.0878 70.4871 40.2939 71.2319V71.2354Z" fill="#A7D8DC"/>
<path d="M61.2345 62.7314C59.9874 65.7552 58.4089 68.2562 56.9329 70.8084C56.5536 70.9759 56.147 71.3654 55.8259 71.3619C55.8429 71.4679 53.5503 71.707 52.3818 71.6524C53.0618 70.4155 53.646 68.96 54.1073 67.2858C53.6426 66.9886 52.7235 66.6879 52.7201 66.1071C52.949 63.917 53.8783 62.5674 54.8384 61.293C55.1289 61.3921 59.1195 63.0594 61.2345 62.728V62.7314Z" fill="#C6E5E7"/>
<path d="M66.2678 63.1382C67.6447 63.3022 69.4863 64.3169 70.2585 64.6176C69.8553 65.9125 69.4248 67.1699 68.885 68.2359C69.3633 68.8167 69.6879 69.3907 70.1594 69.6777C70.0466 69.8896 69.9339 70.098 69.8211 70.303C67.5012 70.4977 65.1949 70.8052 62.8887 71.0751C63.0356 70.2996 65.7074 65.4718 66.2712 63.1348L66.2678 63.1382Z" fill="#D1EAEC"/>
<path d="M62.1809 63.3123C62.7003 63.1517 63.1684 62.9877 63.6091 62.8237C64.4872 62.8715 65.3687 62.9501 66.2673 63.1346C65.6967 65.4648 64.863 67.549 63.821 69.1036C63.9747 69.1036 64.1285 69.9304 64.2822 69.9304C63.5476 70.4668 63.0249 70.296 62.8848 71.075C60.7425 71.3312 58.6003 71.5499 56.4512 71.6524C56.909 71.0852 57.3737 71.3791 57.8349 71.3825C57.606 70.6889 57.2814 70.6547 56.9329 70.8085C58.4089 68.2562 59.9874 65.7518 61.2345 62.7314L61.6787 62.7485C61.8119 63.1073 61.9315 63.4694 62.1809 63.3123Z" fill="#CBE7EA"/>
<path d="M38.8624 68.0893C40.2257 66.75 41.155 64.8469 41.8964 62.7286C42.2791 62.937 43.0239 63.4187 43.5706 62.9267C44.5649 62.9951 46.6456 63.5554 46.9907 62.8208C47.3358 62.0828 44.7972 65.9129 43.7961 67.6554C43.6731 68.7829 43.1435 69.6815 42.508 70.4844C42.3098 70.4059 42.4875 69.7054 42.2893 69.5927C42.2893 69.6918 41.9238 70.4776 41.9238 70.4776C41.9238 70.4776 40.4717 70.4024 39.7473 70.3614C39.4125 69.2203 38.5173 70.0813 38.4832 70.317L37.8545 70.2999L37.834 70.2863C38.121 69.9344 38.4046 69.579 38.6847 69.2374C38.8453 68.9538 38.8624 68.0859 38.8624 68.0859V68.0893Z" fill="#B0DCDF"/>
<path d="M52.7174 66.1103C52.9463 63.9202 53.8756 62.5706 54.8357 61.2962C54.453 61.1732 53.4827 60.8623 53.3802 60.8281C53.4964 61.327 53.6911 61.86 53.4656 62.0718C52.8574 62.352 52.0955 62.6321 51.6377 62.6219C51.0534 62.4511 50.4248 61.7643 49.7995 61.409C49.287 61.5832 48.7779 61.7677 48.2825 61.9796C48.2483 61.9898 47.975 62.7756 47.9716 63.131C47.6197 63.1241 47.3019 62.9909 46.9876 62.8235C46.9534 62.9977 44.1278 65.6422 43.793 67.6581C43.67 68.7856 43.1404 69.6842 42.5049 70.4871C42.5151 70.4905 42.6279 70.5042 42.8124 70.5247C42.9935 70.5418 43.2429 70.5691 43.5128 70.5998C44.0595 70.6545 44.7052 70.7228 45.1221 70.7638C45.0947 70.5554 44.7872 70.0737 44.6916 69.9951C44.8077 69.9951 45.6311 70.6989 45.9592 70.8595C46.4956 70.9244 47.8076 71.003 47.9306 70.9381C48.0843 70.9381 47.7768 70.3573 47.7802 69.7798C48.4328 70.5725 49.1093 71.1089 49.8098 71.4164L50.3803 71.4814C50.4384 71.7069 50.4828 71.8572 50.4008 71.8572C50.2813 71.9187 50.1583 71.9665 50.0387 71.9973C50.3906 72.0519 51.8939 72.274 52.2869 72.3321C51.8837 72.1544 51.4874 71.8914 51.0978 71.5599C51.5079 71.5975 51.9178 71.6283 52.3279 71.6488L52.3791 71.6385C53.0556 70.4017 53.6364 68.9564 54.0943 67.2891C53.6296 66.9918 52.7105 66.6912 52.7071 66.1103H52.7174Z" fill="#B5DEE1"/>
<path d="M12.8547 70.0567C12.062 68.8951 10.6988 68.8302 10.0359 67.3712C9.05191 64.6994 9.71133 61.6995 9.45508 58.6416C12.9093 60.039 16.4422 60.8898 20.0024 61.3954C19.0525 62.6323 17.5663 61.8465 16.7155 63.8828C16.6985 64.1698 16.9923 64.4773 17.129 64.7745C16.162 65.5843 14.6109 65.7791 14.5289 67.2243C14.4776 68.1092 14.7031 69.083 14.7714 70.2378L14.4264 70.2242C14.0881 69.78 13.5038 70.0533 12.8547 70.0533V70.0567Z" fill="#90D0D4"/>
<path d="M19.562 71.5261L17.0098 71.6081C17.0166 71.3313 17.0063 71.0682 16.9893 70.812C17.9835 70.8496 18.9812 70.8017 19.9789 70.6992C19.8319 70.9555 19.6919 71.2322 19.562 71.5295V71.5261Z" fill="#99D3D8"/>
<path d="M17.1296 64.7785C16.9929 64.4813 16.7025 64.1738 16.7162 63.8868C17.5635 61.847 19.0498 62.6363 20.003 61.3994C21.3697 61.601 22.7432 61.7445 24.1167 61.8538C23.8707 62.0759 23.6247 62.2946 23.3753 62.5201C24.1372 62.5577 24.2055 64.5872 24.9709 64.6282C22.6441 66.6304 19.6169 66.89 17.7582 70.1427C16.7606 70.2452 15.7629 70.2828 14.7686 70.2452C14.7003 69.0904 14.4748 68.1166 14.5261 67.2317C14.6081 65.7899 16.1627 65.5951 17.1262 64.7819L17.1296 64.7785Z" fill="#99D3D8"/>
<path d="M24.9739 64.624C24.2085 64.5864 24.1402 62.5569 23.3783 62.5159C23.6277 62.2904 23.8737 62.0717 24.1197 61.8496C25.7084 61.9829 27.2972 62.058 28.8894 62.1127C28.9953 62.1537 29.1012 62.1879 29.2037 62.2152C30.4132 62.5022 31.4416 62.4099 32.5726 62.6799C31.7833 63.804 30.9906 64.9349 30.1706 65.9975C28.763 64.337 27.2289 62.9429 25.541 62.0444C26.1389 62.3655 25.9305 63.8005 26.2244 64.108C27.2869 65.7549 28.1719 69.1066 27.5535 70.4972C25.1379 70.6134 22.7154 70.7296 20.2896 70.8457C20.1427 70.4699 19.9377 69.8583 19.8078 69.8515C19.1245 69.9711 18.4446 70.0667 17.7646 70.1385C19.6233 66.8858 22.6539 66.6227 24.9773 64.624H24.9739Z" fill="#A0D5D9"/>
<path d="M30.1632 65.998C30.9832 64.9354 31.7758 63.8045 32.5651 62.6804C32.8521 62.7488 33.1493 62.8444 33.4534 62.9743C33.4603 62.718 33.4671 62.4652 33.3714 62.2089L34.0138 62.2158C34.2666 62.3763 34.4887 63.2818 34.885 62.226L35.7904 62.2328C36.1014 62.5779 36.3474 63.0358 36.4943 63.6644L36.5148 62.7966C36.8325 62.2294 37.1264 62.8171 37.4305 62.8273C37.4339 62.6736 37.4407 62.431 37.468 62.2465C38.8723 63.0084 40.9052 62.308 41.2742 62.3183C41.4792 62.472 41.6842 62.6121 41.8926 62.7283C41.1512 64.8466 40.2219 66.7497 38.8586 68.089C38.8586 68.089 38.8415 68.9569 38.681 69.2405C38.4042 69.5855 38.1172 69.9375 37.8302 70.2894C36.1834 68.8202 34.0001 70.286 33.9079 70.2962L33.1835 70.3065C31.8168 70.1459 29.7702 68.5708 28.1063 70.4739L27.5392 70.4978C28.1576 69.1072 27.2726 65.7554 26.2101 64.1086C25.9162 63.8045 24.9869 62.1098 25.5267 62.0449C27.4127 62.4105 30.2417 66.1039 30.1563 65.998H30.1632Z" fill="#A7D8DC"/>
<path d="M76.2273 66.5107C76.7569 66.6713 77.2933 66.8353 77.8365 67.0027C77.2557 67.0096 76.668 66.7157 76.3844 67.3854C76.1214 67.1667 75.8309 67.1667 75.5371 67.1702C75.7489 66.89 75.9813 66.6747 76.2273 66.5107Z" fill="#E3F2F3"/>
<path d="M75.3665 70.6478L74.9018 70.6546C74.8813 70.0738 75.1683 69.493 75.4861 69.78C75.4656 69.2025 75.1786 69.7834 75.1683 69.493C75.1376 68.7242 75.3118 68.69 75.5271 68.7823C75.5749 70.0806 75.3938 71.3721 75.1615 71.3756L74.8574 71.3824C75.0214 71.1193 75.2948 70.9724 75.3699 70.6512L75.3665 70.6478Z" fill="#E3F2F3"/>
<path d="M70.1592 69.6773C69.6877 69.3903 69.3631 68.8163 68.8848 68.2355C69.4246 67.1695 69.8551 65.9121 70.2583 64.6172C71.6591 65.1741 73.036 65.6559 74.4471 66.0966C74.2011 66.264 73.9688 66.4793 73.757 66.7595C74.0474 66.7595 74.3412 66.7526 74.6043 66.9747C74.5496 67.1045 74.5052 67.2651 74.4745 67.477V67.494C74.2626 67.4018 74.0884 67.4325 74.1157 68.2013C74.126 68.4917 74.413 67.9109 74.4335 68.4883C74.1157 68.2013 73.8287 68.7855 73.8492 69.363L74.3105 69.3561C74.2353 69.6773 73.9654 69.8242 73.798 70.0907C72.4654 70.1112 71.1398 70.1864 69.8175 70.3026C69.9303 70.0941 70.043 69.8857 70.1558 69.6773H70.1592Z" fill="#DDEFF1"/>
</g>
</g>
</g>
<g style="mix-blend-mode:multiply">
<path d="M40.6013 28.25C40.3417 28.2705 40.0786 28.3012 39.8223 28.3593C39.5729 28.414 39.3303 28.4857 39.0843 28.5575C38.8349 28.6327 38.5923 28.7317 38.3532 28.8343C38.1277 28.9333 37.9022 29.0358 37.7006 29.1759C37.4819 29.3297 37.2735 29.4971 37.0719 29.6713C36.8772 29.8353 36.6995 30.0164 36.5287 30.2043C36.4398 30.3034 36.3612 30.4128 36.2827 30.5153C36.2075 30.6143 36.1323 30.7168 36.0572 30.8193C35.9034 31.0312 35.7599 31.2498 35.6198 31.4685C35.4866 31.6803 35.3499 31.8922 35.2269 32.1109C35.1005 32.3329 34.9912 32.5721 34.9023 32.8113C34.8135 33.047 34.7349 33.2862 34.6666 33.5322C34.6017 33.7714 34.547 34.0139 34.4923 34.2531C34.465 34.3795 34.4377 34.5025 34.4103 34.6289C34.383 34.7588 34.3625 34.8886 34.342 35.0219C34.301 35.2713 34.26 35.5207 34.2395 35.7735C34.2156 36.04 34.1985 36.31 34.1916 36.5765C34.1848 36.8259 34.1848 37.0787 34.1916 37.3281C34.1985 37.5912 34.2327 37.8543 34.2839 38.114C34.3317 38.3634 34.424 38.5991 34.5265 38.8349C34.6324 39.0741 34.7383 39.3132 34.8613 39.5456C34.916 39.6515 34.9775 39.7574 35.0424 39.8565C35.1142 39.9658 35.1927 40.0717 35.2747 40.1742C35.4422 40.3895 35.6198 40.5911 35.8077 40.7892C35.9786 40.9703 36.1631 41.1377 36.3476 41.3017C36.433 41.3769 36.515 41.4521 36.6004 41.5238C36.6585 41.5717 36.7132 41.6195 36.7712 41.6673C36.8362 41.722 36.9045 41.7698 36.9694 41.8211C37.0685 41.8962 37.171 41.9714 37.2735 42.0466C37.3282 42.0842 37.3828 42.1252 37.4375 42.1627C37.4922 42.2003 37.5502 42.2345 37.6083 42.2687C37.7108 42.3336 37.8202 42.3917 37.9295 42.4497C38.032 42.5044 38.1345 42.5591 38.2438 42.6069C38.4933 42.7197 38.7495 42.8153 39.0092 42.8939C39.1356 42.9315 39.2586 42.9657 39.385 42.9964C39.4943 43.0237 39.6071 43.0545 39.7164 43.075C39.9829 43.1262 40.2494 43.1741 40.5194 43.1946C40.7688 43.2151 41.0182 43.2322 41.2676 43.239C41.5375 43.2458 41.8074 43.2527 42.0774 43.2492C42.3165 43.2492 42.5523 43.2322 42.788 43.2082C43.0614 43.1775 43.3313 43.1194 43.5978 43.0477C43.8643 42.9759 44.124 42.8802 44.3802 42.7709C44.4964 42.7231 44.6091 42.6718 44.7219 42.6172C44.838 42.5591 44.9474 42.4805 45.0499 42.4053C45.2651 42.2482 45.4667 42.0705 45.6615 41.8928C45.8391 41.7322 46.0134 41.5614 46.1774 41.3837C46.3585 41.1856 46.5191 40.9703 46.6762 40.7516C46.8129 40.5603 46.9461 40.369 47.076 40.1742C47.2092 39.9726 47.3527 39.7779 47.486 39.5763C47.6158 39.3781 47.7388 39.1731 47.8447 38.9579C47.896 38.852 47.9404 38.7426 47.9882 38.6333C48.0463 38.5001 48.101 38.3634 48.1522 38.2301C48.1932 38.1174 48.2308 38.0012 48.265 37.885C48.2957 37.7723 48.3196 37.6561 48.3436 37.54C48.3948 37.2974 48.4461 37.0548 48.4905 36.8122C48.5383 36.5628 48.5588 36.3065 48.5759 36.0537C48.593 35.8111 48.5964 35.5685 48.5998 35.3294C48.6032 34.8647 48.5759 34.3966 48.4836 33.9388C48.4392 33.7201 48.3948 33.5014 48.3231 33.2896C48.2855 33.1837 48.2479 33.0778 48.2035 32.9753C48.1591 32.8728 48.1181 32.7669 48.0771 32.6609C48.0634 32.6302 48.0531 32.6029 48.0395 32.5721C47.9916 32.4594 47.9438 32.3432 47.8755 32.2407C47.8174 32.1519 47.7183 32.104 47.6124 32.1348C47.5543 32.1519 47.5031 32.1894 47.4723 32.2407C47.4381 32.2988 47.4347 32.3569 47.4484 32.4218C47.4655 32.5072 47.5031 32.5892 47.5372 32.6712C47.5851 32.7874 47.6261 32.9035 47.6705 33.0231C47.7217 33.1598 47.7764 33.2964 47.8208 33.4365C47.8686 33.5869 47.8994 33.7406 47.9336 33.8944C47.9609 34.0242 47.9814 34.154 48.0019 34.2839C48.0429 34.6358 48.0497 34.9945 48.0429 35.3499C48.0326 35.6881 48.0121 36.0264 47.9746 36.3612C47.9267 36.6721 47.8516 36.9762 47.7901 37.2837C47.7559 37.4409 47.7217 37.6015 47.6739 37.7586C47.6261 37.9192 47.568 38.0764 47.5031 38.2301C47.5133 38.2062 47.5236 38.1823 47.5338 38.1584C47.4416 38.3736 47.3527 38.5889 47.24 38.7939C47.1204 39.0057 46.9906 39.2073 46.8505 39.4055C46.5703 39.8018 46.297 40.2016 46.01 40.5911C46.0031 40.6013 45.9963 40.6116 45.9895 40.6218C45.8938 40.7414 45.7947 40.8576 45.6888 40.9703C45.5863 41.0831 45.4735 41.189 45.3642 41.2915C45.1558 41.4862 44.944 41.6776 44.7185 41.8552C44.6023 41.9372 44.4895 42.0192 44.3597 42.0807C44.2162 42.1525 44.0659 42.214 43.919 42.2789L43.9839 42.2516C43.5841 42.4053 43.1707 42.5181 42.747 42.5864C42.5454 42.6103 42.3439 42.624 42.1389 42.6308C41.9168 42.6377 41.6947 42.6342 41.476 42.6308C41.0524 42.6274 40.6321 42.6137 40.2118 42.5625C39.9385 42.5181 39.6652 42.4668 39.3987 42.3985C39.2518 42.3609 39.1048 42.3199 38.9613 42.2755C38.8281 42.2345 38.6983 42.1867 38.5684 42.1354C38.3258 42.0295 38.0867 41.9133 37.8612 41.7767C37.6083 41.6263 37.3726 41.4521 37.1368 41.2778C36.8635 41.0557 36.5902 40.8302 36.3373 40.5842C36.1972 40.4476 36.0606 40.3109 35.9307 40.1674C35.8146 40.0444 35.7087 39.9111 35.6062 39.7779C35.5447 39.6993 35.4866 39.6173 35.4353 39.5319C35.3704 39.426 35.3089 39.3166 35.2508 39.2073C35.1381 38.9955 35.039 38.7768 34.9399 38.5581L34.9638 38.6162C34.9331 38.5445 34.8989 38.4727 34.875 38.3976C34.8408 38.3019 34.8101 38.2096 34.7827 38.114C34.7417 37.967 34.7144 37.8133 34.6939 37.6595C34.6768 37.4921 34.6666 37.3247 34.6666 37.1573C34.6666 36.9796 34.6597 36.7985 34.6666 36.6209C34.6734 36.4295 34.6802 36.2416 34.6905 36.0503C34.7007 35.8726 34.7212 35.6915 34.7417 35.5139C34.7725 35.2952 34.8032 35.0765 34.8442 34.8613C34.8887 34.6221 34.9433 34.3829 34.998 34.1472C35.0492 33.9251 35.1005 33.7064 35.1654 33.4878C35.1996 33.375 35.2337 33.2623 35.2713 33.1495C35.3089 33.0402 35.3499 32.9343 35.3943 32.8249C35.4729 32.6439 35.5583 32.4662 35.6574 32.2919C35.7599 32.1109 35.8727 31.9366 35.9854 31.7589C36.1016 31.5744 36.2143 31.3865 36.3407 31.2123C36.4672 31.0414 36.5902 30.8706 36.7166 30.7032C36.7883 30.6143 36.8635 30.5221 36.9387 30.4367C37.0104 30.3547 37.0924 30.2795 37.1676 30.2009C37.3316 30.0369 37.5161 29.89 37.6972 29.7431H37.6938C37.7518 29.7021 37.8065 29.6577 37.8646 29.6167C37.909 29.5859 37.9568 29.5518 38.0013 29.521C38.0457 29.4903 38.0969 29.4629 38.1448 29.4356C38.3019 29.3433 38.4728 29.2716 38.6368 29.1998C38.7666 29.1452 38.8964 29.0905 39.0263 29.0461C39.18 28.9948 39.3338 28.947 39.4875 28.8992C39.6447 28.8513 39.8018 28.8103 39.9624 28.7727C40.1128 28.7386 40.2631 28.7147 40.4134 28.6942C40.6082 28.6737 40.8029 28.66 40.9977 28.6532C41.2027 28.6463 41.4077 28.66 41.6093 28.6634C41.8109 28.6702 42.009 28.6805 42.2072 28.6907C42.3951 28.701 42.5796 28.7249 42.7675 28.7454C42.8564 28.7591 42.9418 28.7728 43.0272 28.7864C43.116 28.8001 43.2014 28.8206 43.2903 28.8411C43.3791 28.8582 43.4645 28.8855 43.55 28.906C43.632 28.9265 43.7139 28.9504 43.7959 28.9743C44.1445 29.0803 44.4895 29.2067 44.8278 29.3399C45.0294 29.4288 45.2275 29.5278 45.4189 29.6406C45.6102 29.7499 45.7879 29.8832 45.9655 30.0164C46.0817 30.1087 46.1979 30.2009 46.3004 30.3103C46.4131 30.4264 46.5225 30.546 46.6215 30.6724C46.7001 30.7783 46.7753 30.8808 46.8436 30.9936C46.912 31.1063 46.9701 31.2259 47.0316 31.3421C47.0931 31.4617 47.1546 31.5847 47.2297 31.6974C47.3151 31.8307 47.4142 31.9537 47.5133 32.0767C47.5611 32.1382 47.6671 32.1279 47.7183 32.0767C47.7456 32.0494 47.7593 32.0118 47.7593 31.9742C47.7593 31.9332 47.7422 31.9024 47.7183 31.8717C47.6841 31.8273 47.65 31.7863 47.6158 31.7418C47.5475 31.653 47.4826 31.5608 47.4279 31.4583C47.3698 31.3523 47.3151 31.243 47.2605 31.1337C47.2092 31.0278 47.158 30.9218 47.0965 30.8193C47.0316 30.71 46.9598 30.6075 46.8846 30.5016C46.8061 30.3888 46.7172 30.2863 46.625 30.1838C46.5464 30.095 46.4678 30.0062 46.379 29.9276C46.2833 29.8388 46.1774 29.7568 46.0749 29.6782C45.9655 29.5928 45.8562 29.5142 45.7435 29.4356C45.3198 29.1452 44.8415 28.9504 44.3631 28.7727C44.1274 28.6839 43.8882 28.6087 43.6456 28.5404C43.5294 28.5062 43.4099 28.4755 43.2903 28.4516C43.1502 28.4208 43.0101 28.3969 42.87 28.373C42.624 28.332 42.3712 28.3081 42.1218 28.291C41.8724 28.2739 41.6229 28.2602 41.3701 28.2534C41.2369 28.25 41.107 28.2432 40.9738 28.2432C40.8508 28.2432 40.7243 28.2466 40.5979 28.2568L40.6013 28.25ZM48.0736 32.6575C48.0736 32.6575 48.0839 32.6814 48.0873 32.6917C48.0805 32.6712 48.0702 32.6507 48.06 32.6302L48.0702 32.6575H48.0736Z" fill="#232020"/>
</g>
</svg>
