<?xml version="1.0" encoding="UTF-8"?><svg id="Layer_2" xmlns="http://www.w3.org/2000/svg" width="190.01" height="187.96" viewBox="0 0 190.01 187.96"><g id="Layer_4"><path d="m37.35,67.45c24.89-15.58,10.78-32.69,39.11-40.99,30.98-9.07,56.63,20.03,53.82,44.43-2.82,24.41-14.86,32.04-28.36,57.38-18.67,35.05-70.21,5.23-84.58-8.16s-6.16-36.29,20.01-52.66Z" fill="#ede3ff"/><rect width="190.01" height="187.96" fill="none"/><path d="m64,140.67v7.58c0,4.27,3.42,7.73,7.64,7.73h46.73c4.22,0,7.64-3.46,7.64-7.73V39.71c0-4.27-3.42-7.73-7.64-7.73h-46.73c-4.22,0-7.64,3.46-7.64,7.73v100.96Z" fill="none" stroke="#494c54" stroke-linecap="round" stroke-linejoin="round" stroke-width="2"/><line x1="105.02" y1="76.06" x2="95.46" y2="109.63" fill="none" stroke="#494c54" stroke-linecap="round" stroke-linejoin="round" stroke-width="1.42"/><line x1="95.37" y1="80.04" x2="88.15" y2="106.11" fill="none" stroke="#494c54" stroke-linecap="round" stroke-linejoin="round" stroke-width="1.42"/><line x1="85.55" y1="40.02" x2="101.07" y2="40.02" fill="none" stroke="#494c54" stroke-linecap="round" stroke-linejoin="round" stroke-width="1.88"/><circle cx="104.72" cy="40.02" r=".96" fill="#494c54"/></g></svg>