<?xml version="1.0" encoding="UTF-8"?><svg id="Layer_2" xmlns="http://www.w3.org/2000/svg" width="190.01" height="187.96" viewBox="0 0 190.01 187.96"><g id="Layer_4"><rect width="190.01" height="187.96" fill="none"/><g opacity=".77"><path d="m153.9,120.81c-.26,7.56.39,15.17,1.27,22.77,5.78,49.52-79.55,23.02-87.57,20.01-58.08-21.81-50.35-96.04,11.5-91.66,12.32.87,24.01,6.99,36.16,5.69,25.01-2.66,39.33,22.92,38.64,43.19Z" fill="#f2d7d6"/></g><path d="m51.56,71.35c0-19.13,18.41-34.64,41.11-34.64s41.11,15.51,41.11,34.64" fill="none" stroke="#494c54" stroke-linecap="round" stroke-linejoin="round" stroke-width="1.88"/><polyline points="31.42 35.86 129.5 35.86 133.24 35.86 137.73 35.86 153.19 35.86" fill="none" stroke="#494c54" stroke-linecap="round" stroke-linejoin="round" stroke-width="1.88"/><rect x="28.07" y="33.12" width="5.48" height="5.48" rx=".33" ry=".33" fill="#fff" stroke="#494c54" stroke-linecap="round" stroke-linejoin="round" stroke-width="1.88"/><rect x="89.57" y="33.12" width="5.48" height="5.48" rx=".33" ry=".33" fill="#fff" stroke="#494c54" stroke-linecap="round" stroke-linejoin="round" stroke-width="1.88"/><rect x="150.45" y="33.12" width="5.48" height="5.48" rx=".33" ry=".33" fill="#fff" stroke="#494c54" stroke-linecap="round" stroke-linejoin="round" stroke-width="1.88"/><rect x="131.05" y="69.87" width="5.48" height="5.48" rx=".33" ry=".33" fill="#fff" stroke="#494c54" stroke-linecap="round" stroke-linejoin="round" stroke-width="1.88"/><rect x="48.82" y="69.87" width="5.48" height="5.48" rx=".33" ry=".33" fill="#fff" stroke="#494c54" stroke-linecap="round" stroke-linejoin="round" stroke-width="1.88"/><polygon points="60.17 88.62 71.29 131.99 112.16 131.99 123.83 88.62 91.89 50.53 60.17 88.62" fill="none" stroke="#494c54" stroke-linecap="round" stroke-linejoin="round" stroke-width="2.22"/><path d="m70.25,153.36h-10.09c-1.39,0-2.51-1.12-2.51-2.51v-16.36c0-1.39,1.12-2.51,2.51-2.51h63.68c1.39,0,2.51,1.12,2.51,2.51v16.36c0,1.39-1.12,2.51-2.51,2.51h-53.6Z" fill="none" stroke="#494c54" stroke-linecap="round" stroke-linejoin="round" stroke-width="2.22"/><polyline points="91.89 51.05 91.89 61.54 91.89 74.65" fill="none" stroke="#494c54" stroke-linecap="round" stroke-linejoin="round" stroke-width="2.22"/><circle cx="92" cy="80.9" r="5.44" fill="none" stroke="#494c54" stroke-linecap="round" stroke-linejoin="round" stroke-width="2.22"/></g></svg>