<svg width="130" height="129" viewBox="0 0 130 129" fill="none" xmlns="http://www.w3.org/2000/svg">
<path d="M36.0039 48.9297C36.0039 35.0841 49.2969 23.8535 65.6846 23.8535C82.0722 23.8535 95.3652 35.0841 95.3652 48.9297" stroke="white" stroke-width="0.7" stroke-linecap="round" stroke-linejoin="round"/>
<path d="M21.4648 23.2383H92.2702H94.9755H98.2161H109.378" stroke="white" stroke-width="0.7" stroke-linecap="round" stroke-linejoin="round"/>
<path d="M22.7623 21.2578H19.298C19.1636 21.2578 19.0547 21.367 19.0547 21.5017V24.9753C19.0547 25.11 19.1636 25.2193 19.298 25.2193H22.7623C22.8967 25.2193 23.0056 25.11 23.0056 24.9753V21.5017C23.0056 21.367 22.8967 21.2578 22.7623 21.2578Z" fill="#917C7C" stroke="white" stroke-width="0.7" stroke-linecap="round" stroke-linejoin="round"/>
<path d="M67.1569 21.2578H63.6925C63.5581 21.2578 63.4492 21.367 63.4492 21.5017V24.9753C63.4492 25.11 63.5581 25.2193 63.6925 25.2193H67.1569C67.2912 25.2193 67.4001 25.11 67.4001 24.9753V21.5017C67.4001 21.367 67.2912 21.2578 67.1569 21.2578Z" fill="#917C7C" stroke="white" stroke-width="0.7" stroke-linecap="round" stroke-linejoin="round"/>
<path d="M111.102 21.2578H107.638C107.503 21.2578 107.395 21.367 107.395 21.5017V24.9753C107.395 25.11 107.503 25.2193 107.638 25.2193H111.102C111.237 25.2193 111.345 25.11 111.345 24.9753V21.5017C111.345 21.367 111.237 21.2578 111.102 21.2578Z" fill="#917C7C" stroke="white" stroke-width="0.7" stroke-linecap="round" stroke-linejoin="round"/>
<path d="M97.1022 47.8564H93.6378C93.5035 47.8564 93.3945 47.9657 93.3945 48.1004V51.574C93.3945 51.7087 93.5035 51.8179 93.6378 51.8179H97.1022C97.2365 51.8179 97.3455 51.7087 97.3455 51.574V48.1004C97.3455 47.9657 97.2365 47.8564 97.1022 47.8564Z" fill="#917C7C" stroke="white" stroke-width="0.7" stroke-linecap="round" stroke-linejoin="round"/>
<path d="M37.7389 47.8564H34.2745C34.1402 47.8564 34.0312 47.9657 34.0312 48.1004V51.574C34.0312 51.7087 34.1402 51.8179 34.2745 51.8179H37.7389C37.8733 51.8179 37.9822 51.7087 37.9822 51.574V48.1004C37.9822 47.9657 37.8733 47.8564 37.7389 47.8564Z" fill="#917C7C" stroke="white" stroke-width="0.7" stroke-linecap="round" stroke-linejoin="round"/>
<path d="M42.2266 60.7068L50.2549 92.0959H79.7507L88.1878 60.7068L65.1244 33.1328L42.2266 60.7068Z" stroke="white" stroke-width="0.7" stroke-linecap="round" stroke-linejoin="round"/>
<path d="M49.5071 107.774H42.228C41.2257 107.774 40.418 106.964 40.418 105.959V94.1137C40.418 93.1087 41.2257 92.2988 42.228 92.2988H88.1989C89.2013 92.2988 90.009 93.1087 90.009 94.1137V105.959C90.009 106.964 89.2013 107.774 88.1989 107.774H49.5071Z" stroke="white" stroke-width="0.7" stroke-linecap="round" stroke-linejoin="round"/>
<path d="M65.1211 34.2354V41.8265V51.3203" stroke="white" stroke-width="0.7" stroke-linecap="round" stroke-linejoin="round"/>
<path d="M65.1991 59.7696C67.365 59.7696 69.1208 58.0091 69.1208 55.8375C69.1208 53.6658 67.365 51.9053 65.1991 51.9053C63.0332 51.9053 61.2773 53.6658 61.2773 55.8375C61.2773 58.0091 63.0332 59.7696 65.1991 59.7696Z" stroke="white" stroke-width="0.7" stroke-linecap="round" stroke-linejoin="round"/>
</svg>
