<?xml version="1.0" encoding="UTF-8"?><svg id="Layer_2" xmlns="http://www.w3.org/2000/svg" width="190.01" height="187.96" viewBox="0 0 190.01 187.96"><g id="Layer_4"><rect width="190.01" height="187.96" fill="none"/><g opacity=".77"><path d="m32.54,74.78c43.54-12.27,20.63-78.21,85.53-10.44,10.03,10.48,42.34,1.8,43.73,25.79,2.88,23.84-7.8,29.81-25.94,32.12-16.54,2.1-31.86,9-45.22,18.96-32.32,24.08-95.73-55.82-58.1-66.42Z" fill="#d5d3b3"/></g><polygon points="96.76 104.07 125.94 44.77 109.62 36.74 96.07 64.26 93.79 68.9 72.05 113.09 88.37 121.12 94.37 108.93 96.76 104.07" fill="none" stroke="#494c54" stroke-linecap="round" stroke-linejoin="round" stroke-width="2.22"/><polygon points="88.37 121.12 80.91 125.88 73.56 130.57 72.79 121.89 72.05 113.09 88.37 121.12" fill="none" stroke="#494c54" stroke-linecap="round" stroke-linejoin="round" stroke-width="2.22"/><line x1="72.95" y1="123.7" x2="72.95" y2="123.7" fill="none" stroke="#494c54" stroke-linecap="round" stroke-linejoin="round" stroke-width="2.22"/><path d="m117.87,29.59h5.05c3.62,0,6.56,2.94,6.56,6.56v5.17h-18.18v-5.17c0-3.62,2.94-6.56,6.56-6.56Z" transform="translate(28.11 -49.61) rotate(26.26)" fill="none" stroke="#494c54" stroke-linecap="round" stroke-linejoin="round" stroke-width="2.22"/><line x1="72.95" y1="123.7" x2="79.2" y2="126.91" fill="none" stroke="#494c54" stroke-linecap="round" stroke-linejoin="round" stroke-width="2.22"/><path d="m107.04,139.63s-7.71-3.33-16.58-1.95c-8.2,1.28-13.11-2.23-15.97.22" fill="none" stroke="#494c54" stroke-linecap="round" stroke-linejoin="round" stroke-width="2.22"/><path d="m117.8,138.75s-2.33,1.58-5.91.9" fill="none" stroke="#494c54" stroke-linecap="round" stroke-linejoin="round" stroke-width="2.22"/></g></svg>