<svg width="130" height="128" viewBox="0 0 130 128" fill="none" xmlns="http://www.w3.org/2000/svg">
<path d="M61.3651 80.7926L84.5563 33.6632L71.5858 27.2812L60.8167 49.1531L59.0047 52.8408L41.7266 87.9613L54.6971 94.3433L59.4656 84.6551L61.3651 80.7926Z" stroke="white" stroke-width="0.7" stroke-linecap="round" stroke-linejoin="round"/>
<path d="M54.6971 94.3448L48.7682 98.1279L42.9266 101.855L42.3147 94.9568L41.7266 87.9629L54.6971 94.3448Z" stroke="white" stroke-width="0.7" stroke-linecap="round" stroke-linejoin="round"/>
<path d="M80.4053 21.1911L84.0047 22.9669C86.5848 24.2398 87.6464 27.3691 86.3735 29.9492L84.5555 33.6341L71.5979 27.2413L73.4159 23.5564C74.6888 20.9763 77.8181 19.9147 80.3982 21.1876L80.4053 21.1911Z" stroke="white" stroke-width="0.7" stroke-linecap="round" stroke-linejoin="round"/>
<path d="M42.4414 96.3945L47.4087 98.9457" stroke="white" stroke-width="0.7" stroke-linecap="round" stroke-linejoin="round"/>
<path d="M69.5297 109.054C69.5297 109.054 63.402 106.408 56.3525 107.504C49.8355 108.522 45.9332 105.732 43.6602 107.679" stroke="white" stroke-width="0.7" stroke-linecap="round" stroke-linejoin="round"/>
<path d="M78.0838 108.354C78.0838 108.354 76.232 109.61 73.3867 109.07" stroke="white" stroke-width="0.7" stroke-linecap="round" stroke-linejoin="round"/>
</svg>
