<?xml version="1.0" encoding="UTF-8"?><svg id="Layer_2" xmlns="http://www.w3.org/2000/svg" width="190.01" height="187.96" viewBox="0 0 190.01 187.96"><g id="Layer_4"><rect width="190.01" height="187.96" fill="none"/><path d="m160.63,126.97c-22.29,21.95-66.46,33.1-89.39,9.81-22.94-23.3-42.36-46.24,6.33-94.17,14.32-14.1,23.6-9.59,34.49,1.61,11.27,11.6,24.08,21.55,37.63,30.39,19.13,12.49,28.6,34.99,10.95,52.37Z" fill="#f3d5a2" opacity=".77"/><path d="m85.9,68.78l-18.73-4.21c-1.53-.34-3.09-.51-4.65-.5-9.24.02-17.38,6.11-20.02,14.97l-16.35,53.58c-2.84,9.57,2.62,19.63,12.19,22.47,6.83,2.03,14.2-.14,18.85-5.54.04-.04.07-.08.1-.13l18.04-24.94c.89-1.22,2.31-1.95,3.82-1.95l24.39-.06c1.51,0,2.94.72,3.83,1.94l18.17,24.84s.07.09.1.13c6.55,7.53,17.97,8.32,25.5,1.77,5.37-4.67,7.5-12.06,5.43-18.88h0s-16.63-53.47-16.63-53.47c-2.68-8.85-10.84-14.89-20.08-14.88-1.57,0-3.13.19-4.67.53l-18.71,4.31c-5.62,1.29-10.58.03-10.58.03Z" fill="none" stroke="#494c54" stroke-linecap="round" stroke-linejoin="round" stroke-width="2"/><path d="m60.8,77.7v-.97c0-.55.45-1.01,1-1.01l5.7-.02c.55,0,1.01.45,1.01,1v5c.01.43.37.78.8.78h4.06c1.07-.01,1.95.86,1.95,1.93v4.75c.01.55-.44,1.01-.99,1.01h-5c-.43.01-.78.37-.78.8v5c.01.55-.44,1.01-.99,1.01l-5.7.02c-.55,0-1.01-.45-1.01-1v-5c-.01-.43-.37-.78-.8-.78h-5c-.55.01-1.01-.44-1.01-.99l-.02-5.7c0-.55.45-1.01,1-1.01h5c.43-.01.78-.37.78-.8v-1.1s-.01-2.93-.01-2.93Z" fill="none" stroke="#494c54" stroke-linecap="round" stroke-linejoin="round" stroke-width="2"/><path d="m117.69,82.29c-1.96,0-3.55-1.58-3.56-3.54s1.58-3.55,3.54-3.56c1.96,0,3.55,1.58,3.56,3.54h0c0,1.96-1.58,3.55-3.54,3.56Zm.04,14.97c-1.96,0-3.55-1.58-3.56-3.54s1.58-3.55,3.54-3.56c1.96,0,3.55,1.58,3.56,3.54h0c0,1.96-1.58,3.55-3.54,3.56Zm7.07-7.56c-1.96,0-3.55-1.58-3.56-3.54s1.58-3.55,3.54-3.56c1.96,0,3.55,1.58,3.56,3.54h0c0,1.96-1.58,3.55-3.54,3.56Zm-14.38.04c-2.69,0-4.69-2.98-2.84-5.82.14-.21.33-.41.55-.55,2.83-1.86,5.83.12,5.83,2.81h0c0,1.96-1.58,3.55-3.54,3.56Z" fill="none" stroke="#494c54" stroke-linecap="round" stroke-linejoin="round" stroke-width="2"/><path d="m91.01,37.44c-1.21,3.23-1.84,6.66-1.83,10.13l.02,6.39c0,1.08.88,1.95,1.95,1.94h0c1.08,0,1.95-.88,1.94-1.95l-.02-6.39c0-4.09,1-8.12,2.93-11.72l4.95-9.22c.5-.95.13-2.13-.82-2.63-.94-.49-2.1-.14-2.61.79l-4.95,9.23-1.56,3.44Z" fill="none" stroke="#494c54" stroke-linecap="round" stroke-linejoin="round" stroke-width="2"/><path d="m95.9,67.2l-.02-9.23c0-1.07-.88-1.95-1.95-1.94l-6.4.02c-1.07,0-1.95.88-1.94,1.95l.03,10.72.29.06s3.68.93,8.29.37c.98-.12,1.72-.96,1.71-1.95Z" fill="none" stroke="#494c54" stroke-linecap="round" stroke-linejoin="round" stroke-width="2"/><circle cx="77.41" cy="107.83" r="5.55" fill="none" stroke="#494c54" stroke-linecap="round" stroke-linejoin="round" stroke-width="2"/><circle cx="105.33" cy="107.86" r="5.55" fill="none" stroke="#494c54" stroke-linecap="round" stroke-linejoin="round" stroke-width="2"/></g></svg>