<?xml version="1.0" encoding="UTF-8"?><svg id="Layer_2" xmlns="http://www.w3.org/2000/svg" width="190.01" height="187.96" viewBox="0 0 190.01 187.96"><g id="Layer_4"><rect width="190.01" height="187.96" fill="none"/><path d="m160.63,126.97c-22.29,21.95-66.46,33.1-89.39,9.81-22.94-23.3-42.36-46.24,6.33-94.17,14.32-14.1,23.6-9.59,34.49,1.61,11.27,11.6,24.08,21.55,37.63,30.39,19.13,12.49,28.6,34.99,10.95,52.37Z" fill="#f3d5a2" opacity=".77"/><path d="m80.4,71.05l-19.17,1.03c-1.56.09-3.11.35-4.61.78-8.89,2.53-15.07,10.59-15.21,19.84l-1.21,56.01c-.14,9.98,7.84,18.19,17.82,18.32,7.12.1,13.63-3.99,16.64-10.45.02-.05.04-.1.06-.15l10.6-28.9c.52-1.42,1.69-2.5,3.14-2.92l23.45-6.68c1.46-.41,3.02-.11,4.21.83l24.23,18.98s.09.07.13.1c8.35,5.47,19.56,3.14,25.03-5.21,3.9-5.96,3.95-13.65.11-19.65h0s-30.5-46.95-30.5-46.95c-4.98-7.79-14.47-11.4-23.36-8.87-1.51.43-2.97,1.03-4.35,1.77l-16.84,9.22c-5.06,2.77-10.17,2.9-10.17,2.9Z" fill="none" stroke="#494c54" stroke-linecap="round" stroke-linejoin="round" stroke-width="2"/><path d="m58.67,86.45l-.26-.93c-.15-.53.16-1.09.69-1.24l5.48-1.56c.53-.15,1.09.16,1.24.69l1.37,4.81c.12.42.55.66.97.54l3.9-1.11c1.03-.29,2.11.31,2.41,1.34l1.3,4.57c.15.53-.16,1.09-.69,1.24l-4.81,1.37c-.42.12-.66.55-.54.97l1.37,4.81c.15.53-.16,1.09-.69,1.24l-5.48,1.56c-.53.15-1.09-.16-1.24-.69l-1.37-4.81c-.12-.42-.55-.66-.97-.54l-4.81,1.37c-.53.15-1.09-.16-1.24-.69l-1.56-5.48c-.15-.53.16-1.09.69-1.24l4.81-1.37c.42-.12.66-.55.54-.97l-.3-1.06-.8-2.82Z" fill="none" stroke="#494c54" stroke-linecap="round" stroke-linejoin="round" stroke-width="2"/><path d="m114.67,75.44c-1.88.54-3.85-.56-4.38-2.44s.56-3.85,2.44-4.38c1.88-.54,3.85.56,4.38,2.44h0c.53,1.88-.56,3.84-2.44,4.38Zm4.1,14.4c-1.88.54-3.85-.56-4.38-2.44-.54-1.88.56-3.85,2.44-4.38,1.88-.54,3.85.56,4.38,2.44h0c.53,1.88-.56,3.84-2.44,4.38Zm4.76-9.2c-1.88.54-3.85-.56-4.38-2.44s.56-3.85,2.44-4.38c1.88-.54,3.85.56,4.38,2.44h0c.53,1.88-.56,3.84-2.44,4.38Zm-13.83,3.94c-2.59.74-5.32-1.59-4.31-4.83.08-.24.21-.48.38-.68,2.22-2.56,5.64-1.46,6.38,1.12h0c.53,1.88-.56,3.84-2.44,4.38Z" fill="none" stroke="#494c54" stroke-linecap="round" stroke-linejoin="round" stroke-width="2"/><path d="m76.83,39.5c-.29,3.44.04,6.91.98,10.24l1.75,6.15c.29,1.04,1.37,1.64,2.41,1.34h0c1.04-.29,1.64-1.37,1.34-2.41l-1.75-6.15c-1.12-3.93-1.24-8.08-.36-12.08l2.26-10.22c.22-1.05-.45-2.09-1.51-2.31-1.04-.22-2.06.43-2.3,1.47l-2.26,10.22-.57,3.74Z" fill="none" stroke="#494c54" stroke-linecap="round" stroke-linejoin="round" stroke-width="2"/><path d="m89.6,66.82l-2.53-8.88c-.29-1.03-1.38-1.63-2.41-1.34l-6.15,1.75c-1.03.29-1.63,1.38-1.34,2.41l2.93,10.31.29-.02s3.79-.1,8.08-1.9c.91-.38,1.39-1.39,1.12-2.34Z" fill="none" stroke="#494c54" stroke-linecap="round" stroke-linejoin="round" stroke-width="2"/><circle cx="82.82" cy="110.93" r="5.55" fill="none" stroke="#494c54" stroke-linecap="round" stroke-linejoin="round" stroke-width="2"/><circle cx="109.7" cy="103.4" r="5.55" fill="none" stroke="#494c54" stroke-linecap="round" stroke-linejoin="round" stroke-width="2"/><polyline points="149.31 58.08 166.85 70.86 165.85 81.14 171.77 87.92 171.77 96.16" fill="none" stroke="#494c54" stroke-linecap="round" stroke-linejoin="round" stroke-width="2"/><polyline points="29.37 95.47 18.78 114.4 23.98 123.33 21.43 131.96 24.88 139.45" fill="none" stroke="#494c54" stroke-linecap="round" stroke-linejoin="round" stroke-width="2"/></g></svg>