<svg width="75" height="75" viewBox="0 0 75 75" fill="none" xmlns="http://www.w3.org/2000/svg">
<path d="M52.2764 66.4227C47.6445 66.4227 39.2714 63.5277 25.4647 49.721C15.8891 40.1454 10.3664 32.0395 9.07478 25.6261C8.09495 20.727 10.0546 18.7228 10.0991 18.6337L19.3185 9.36983C19.8084 8.87992 20.4319 8.65723 21.1 8.65723C21.768 8.65723 22.3916 8.92445 22.8815 9.36983L32.1008 18.5891C32.5907 19.0791 32.8134 19.7026 32.8134 20.3707C32.8134 21.0387 32.5462 21.6622 32.1008 22.1522L24.663 29.59L45.6848 50.6118L53.1226 43.174C53.6125 42.6841 54.2361 42.4614 54.9041 42.4614C55.5722 42.4614 56.1957 42.7286 56.6856 43.174L65.9049 52.3933C66.3949 52.8832 66.6175 53.5067 66.6175 54.1748C66.6175 54.8429 66.3503 55.4664 65.9049 55.9563L56.6856 65.1756C56.6856 65.1756 55.2604 66.5118 52.3209 66.5118L52.2764 66.4227Z" fill="#f6f6f6"/>
</svg>
