<?xml version="1.0" encoding="UTF-8"?><svg id="Layer_2" xmlns="http://www.w3.org/2000/svg" width="190.01" height="187.96" viewBox="0 0 190.01 187.96"><g id="Layer_4"><path d="m118.57,43.62c22.51,21.73,34.79,65.59,12.09,89.11-22.7,23.53-45.14,43.53-94.3-3.91-14.46-13.95-10.19-23.35.72-34.52,11.31-11.57,20.92-24.63,29.41-38.39,11.99-19.45,34.25-29.48,52.07-12.28Z" fill="#ede3ff" opacity=".77"/><path d="m108.36,75.01v56.94c0,2.17-1.79,3.93-4.01,3.93H29.4c-2.21,0-4.01-1.76-4.01-3.93v-47.92" fill="none" stroke="#494c52" stroke-linecap="round" stroke-linejoin="round" stroke-width="2.35"/><path d="m86,86.25c15.33,0,27.76-12.54,27.76-28s-12.43-28-27.76-28-27.76,12.54-27.76,28,12.43,28,27.76,28Z" fill="none" stroke="#494c52" stroke-linecap="round" stroke-linejoin="round" stroke-width="2.35"/><path d="m81.74,146.59h-29.38c-.76,0-1.38.62-1.38,1.39v5.79c0,.77.62,1.39,1.38,1.39h29.38c.76,0,1.38-.62,1.38-1.39v-5.79c0-.77-.62-1.39-1.38-1.39Z" fill="none" stroke="#494c52" stroke-linecap="round" stroke-linejoin="round" stroke-width="2.35"/><path d="m128.25,82.22l7.58-3.22c.92-.39,1.94.3,1.96,1.35l.81,32.17c.03,1.18-1.07,2.03-2.14,1.64l-28.11-10.06v-13.47l13.82-5.85,6.06-2.57h.01Z" fill="none" stroke="#494c52" stroke-linecap="round" stroke-linejoin="round" stroke-width="2.35"/><path d="m35.96,86.83c11.77,0,21.31-9.62,21.31-21.49s-9.54-21.49-21.31-21.49-21.31,9.62-21.31,21.49,9.54,21.49,21.31,21.49Z" fill="none" stroke="#494c52" stroke-linecap="round" stroke-linejoin="round" stroke-width="2.35"/><path d="m86.93,136.03h-39.48c-.72,0-1.3.59-1.3,1.31v7.94c0,.72.58,1.31,1.3,1.31h39.48c.72,0,1.3-.59,1.3-1.31v-7.94c0-.72-.58-1.31-1.3-1.31Z" fill="none" stroke="#494c52" stroke-linecap="round" stroke-linejoin="round" stroke-width="2.35"/><path d="m24.53,91.13h-8.6c-.41,0-.75.34-.75.75v21.97c0,.42.33.75.75.75h8.6c.41,0,.75-.34.75-.75v-21.97c0-.42-.33-.75-.75-.75Z" fill="none" stroke="#494c52" stroke-linecap="round" stroke-linejoin="round" stroke-width="2.35"/><path d="m86,86.25c15.33,0,27.76-12.54,27.76-28s-12.43-28-27.76-28-27.76,12.54-27.76,28,12.43,28,27.76,28Z" fill="none" stroke="#494c52" stroke-linecap="round" stroke-linejoin="round" stroke-width="2.35"/><path d="m146.77,84.98l28.58-10.28" fill="none" stroke="#494c52" stroke-linecap="round" stroke-linejoin="round" stroke-width="2.35"/><path d="m146.77,97.34l24.12-1.52" fill="none" stroke="#494c52" stroke-linecap="round" stroke-linejoin="round" stroke-width="2.35"/><path d="m146.77,108.19l28.58,10.28" fill="none" stroke="#494c52" stroke-linecap="round" stroke-linejoin="round" stroke-width="2.35"/><path d="m146.47,78.01l5.49-3.73" fill="none" stroke="#494c52" stroke-linecap="round" stroke-linejoin="round" stroke-width="2.35"/><path d="m148.62,90.52l11.51-1.92" fill="none" stroke="#494c52" stroke-linecap="round" stroke-linejoin="round" stroke-width="2.35"/><path d="m148.58,103.31l7.26,1.61" fill="none" stroke="#494c52" stroke-linecap="round" stroke-linejoin="round" stroke-width="2.35"/><path d="m146.47,114.61l9.41,4.92" fill="none" stroke="#494c52" stroke-linecap="round" stroke-linejoin="round" stroke-width="2.35"/><path d="m115.66,87.99v17.77" fill="none" stroke="#494c52" stroke-linecap="round" stroke-linejoin="round" stroke-width="2.35"/><rect width="190.01" height="187.96" fill="none"/></g></svg>