<svg width="130" height="128" viewBox="0 0 130 128" fill="none" xmlns="http://www.w3.org/2000/svg">
<path d="M73.9004 52.6123V89.2715C73.9004 90.7177 72.7281 91.8901 71.2819 91.8901H22.3295C20.8833 91.8901 19.7109 90.7177 19.7109 89.2715V58.4902" stroke="white" stroke-width="0.7" stroke-linecap="round" stroke-linejoin="round"/>
<path d="M59.3158 59.741C69.3343 59.741 77.4559 51.6195 77.4559 41.601C77.4559 31.5825 69.3343 23.4609 59.3158 23.4609C49.2974 23.4609 41.1758 31.5825 41.1758 41.601C41.1758 51.6195 49.2974 59.741 59.3158 59.741Z" stroke="white" stroke-width="0.7" stroke-linecap="round" stroke-linejoin="round"/>
<path d="M56.5303 98.8223H37.3319C36.8336 98.8223 36.4297 99.2262 36.4297 99.7245V103.476C36.4297 103.974 36.8336 104.378 37.3319 104.378H56.5303C57.0286 104.378 57.4325 103.974 57.4325 103.476V99.7245C57.4325 99.2262 57.0286 98.8223 56.5303 98.8223Z" stroke="white" stroke-width="0.7" stroke-linecap="round" stroke-linejoin="round"/>
<path d="M86.9237 57.1288L91.8759 55.0462C92.4796 54.7952 93.1445 55.2429 93.158 55.9213L93.6872 76.7614C93.7075 77.5279 92.9884 78.0774 92.2897 77.8264L73.9258 71.3071V62.5831L82.9551 58.7909L86.9169 57.1288H86.9237Z" stroke="white" stroke-width="0.7" stroke-linecap="round" stroke-linejoin="round"/>
<path d="M26.6197 60.1144C34.3078 60.1144 40.5402 53.882 40.5402 46.1939C40.5402 38.5059 34.3078 32.2734 26.6197 32.2734C18.9316 32.2734 12.6992 38.5059 12.6992 46.1939C12.6992 53.882 18.9316 60.1144 26.6197 60.1144Z" stroke="white" stroke-width="0.7" stroke-linecap="round" stroke-linejoin="round"/>
<path d="M59.9215 91.9844H34.1292C33.6609 91.9844 33.2812 92.364 33.2812 92.8324V97.9745C33.2812 98.4429 33.6609 98.8225 34.1292 98.8225H59.9215C60.3898 98.8225 60.7695 98.4429 60.7695 97.9745V92.8324C60.7695 92.364 60.3898 91.9844 59.9215 91.9844Z" stroke="white" stroke-width="0.7" stroke-linecap="round" stroke-linejoin="round"/>
<path d="M19.1524 62.9023H13.5353C13.2656 62.9023 13.0469 63.121 13.0469 63.3908V77.6233C13.0469 77.8931 13.2656 78.1118 13.5353 78.1118H19.1524C19.4221 78.1118 19.6408 77.8931 19.6408 77.6233V63.3908C19.6408 63.121 19.4221 62.9023 19.1524 62.9023Z" stroke="white" stroke-width="0.7" stroke-linecap="round" stroke-linejoin="round"/>
<path d="M99.0234 58.9127L117.699 52.251" stroke="white" stroke-width="0.7" stroke-linecap="round" stroke-linejoin="round"/>
<path d="M99.0234 66.9251L114.782 65.9414" stroke="white" stroke-width="0.7" stroke-linecap="round" stroke-linejoin="round"/>
<path d="M59.3158 59.741C69.3343 59.741 77.4559 51.6195 77.4559 41.601C77.4559 31.5825 69.3343 23.4609 59.3158 23.4609C49.2974 23.4609 41.1758 31.5825 41.1758 41.601C41.1758 51.6195 49.2974 59.741 59.3158 59.741Z" stroke="white" stroke-width="0.7" stroke-linecap="round" stroke-linejoin="round"/>
<path d="M99.0234 73.9541L117.699 80.6159" stroke="white" stroke-width="0.7" stroke-linecap="round" stroke-linejoin="round"/>
<path d="M98.8242 54.4024L102.413 51.9873" stroke="white" stroke-width="0.7" stroke-linecap="round" stroke-linejoin="round"/>
<path d="M100.23 62.5022L107.754 61.2607" stroke="white" stroke-width="0.7" stroke-linecap="round" stroke-linejoin="round"/>
<path d="M100.203 70.792L104.945 71.8367" stroke="white" stroke-width="0.7" stroke-linecap="round" stroke-linejoin="round"/>
<path d="M98.8242 78.1113L104.97 81.2997" stroke="white" stroke-width="0.7" stroke-linecap="round" stroke-linejoin="round"/>
<path d="M78.6914 60.8672V72.3794" stroke="white" stroke-width="0.7" stroke-linecap="round" stroke-linejoin="round"/>
<path d="M43.0988 49.7734H39.6406" stroke="white" stroke-width="0.7"/>
</svg>
