<?xml version="1.0" encoding="UTF-8"?><svg id="Layer_2" xmlns="http://www.w3.org/2000/svg" width="529.21" height="529.21" xmlns:xlink="http://www.w3.org/1999/xlink" viewBox="0 0 529.21 529.21"><defs><clipPath id="clippath"><circle cx="264.6" cy="264.6" r="264.6" fill="none"/></clipPath><linearGradient id="linear-gradient" x1="247.7" y1="363.13" x2="211.86" y2="316.44" gradientUnits="userSpaceOnUse"><stop offset="0" stop-color="#e5bfaa"/><stop offset=".25" stop-color="#e1bba7"/><stop offset="1" stop-color="#dbb5a2"/></linearGradient><linearGradient id="linear-gradient-2" x1="225.35" y1="331.37" x2="293.04" y2="364.82" gradientUnits="userSpaceOnUse"><stop offset="0" stop-color="#efcbb4"/><stop offset=".14" stop-color="#edc9b2"/><stop offset="1" stop-color="#e8c3af"/></linearGradient><linearGradient id="linear-gradient-3" x1="302.81" y1="315.69" x2="298.65" y2="307.5" xlink:href="#linear-gradient"/><linearGradient id="linear-gradient-4" x1="240.18" y1="164.82" x2="184.59" y2="218.66" gradientUnits="userSpaceOnUse"><stop offset="0" stop-color="#fff" stop-opacity=".4"/><stop offset=".37" stop-color="#f8eae0" stop-opacity=".64"/><stop offset=".8" stop-color="#f1d3c0" stop-opacity=".9"/><stop offset="1" stop-color="#efcbb4"/></linearGradient><linearGradient id="linear-gradient-5" x1="260.62" y1="158.86" x2="213.04" y2="162.1" gradientUnits="userSpaceOnUse"><stop offset="0" stop-color="#fff" stop-opacity=".4"/><stop offset=".19" stop-color="#f8eee9" stop-opacity=".56"/><stop offset=".44" stop-color="#f1dbd0" stop-opacity=".75"/><stop offset=".66" stop-color="#eccebd" stop-opacity=".89"/><stop offset=".86" stop-color="#e9c5b2" stop-opacity=".97"/><stop offset="1" stop-color="#e8c3af"/></linearGradient><linearGradient id="linear-gradient-6" x1="306.4" y1="150.73" x2="323.25" y2="207.95" xlink:href="#linear-gradient-4"/><linearGradient id="linear-gradient-7" x1="286.55" y1="156.92" x2="232.2" y2="180.25" gradientUnits="userSpaceOnUse"><stop offset="0" stop-color="#cea695"/><stop offset=".35" stop-color="#dab4a0"/><stop offset="1" stop-color="#efcbb4"/></linearGradient><linearGradient id="linear-gradient-8" x1="273.41" y1="169.21" x2="321.63" y2="190.87" xlink:href="#linear-gradient-7"/><linearGradient id="linear-gradient-9" x1="212.34" y1="286.2" x2="202.92" y2="393.79" gradientUnits="userSpaceOnUse"><stop offset="0" stop-color="#211413"/><stop offset=".5" stop-color="#231614"/><stop offset=".86" stop-color="#2d1e1b"/><stop offset="1" stop-color="#33231f"/></linearGradient><linearGradient id="linear-gradient-10" x1="113.4" y1="442.58" x2="129.49" y2="442.58" xlink:href="#linear-gradient-9"/></defs><g id="Layer_3"><g clip-path="url(#clippath)"><path id="_פנים" d="m256.7,46.66c-12.66,3.27-41.52,16.32-61.54,55.34-36.15,70.43-25.74,81.81-21.67,104.58,3.85,21.51,3.08,33.23,19.26,63.91,1.81,3.44,6.37,9.41,9.01,12.86,6.04,7.89,17.38,23.09,20.63,27.97,4.29,6.45,49.7,26.05,72.36,3.83l35.98-30.75c8-7.01,13.35-15.2,18.09-24.73,6.19-12.46,13.68-32.64,17.73-60.56,5.64-38.89-1.4-96.83-28.28-128.46-12.22-14.37-33.34-24.45-53.24-22.37-.22.02-11.22-6.05-28.34-1.62Z" fill="#efcbb4"/><g id="_חולצה"><path d="m110.71,364.65s-52.09,10.26-43.63,174.93l102.8-.07,11.95-32.2-5.9-67.59-65.22-75.07Z" fill="#c6bdb3"/><path d="m685.42,481.63c-27.69-8.41-66.61-34.34-74.35-40.05v-3.18s-1.34-29.02-36.61-30.08l-5.08-5.83s.33-11.56-11.24-17.22c-4.13-1.87-9.77-3.09-17.46-3.01,0,0-46.55-33.87-62.24-30.53,0,0-30.97-25.6-47.69-17.45-4.61,2.25-7.51,3.89-9.48,5.05-5.18,3.04-3.86,2.69-9.71.95l-7.68-1.52s-4.53-15.44-32.55-22.65c0,0-6.06-12.76-17.36-19.76l-18.3-18.18s.59,7.12,2.52,17.65-13.43,28.26-13.43,28.26c0,0-28.52,45.25-34.48,55.78,0,0-28.15,24.21-39.38,43.34,0,0-38.19,32.68-51.88,48.3-13.69,15.62-27.68,51.41-29.11,68h569.13s-18.11-47.1-53.59-57.88Z" fill="#c6bdb3"/><path d="m403.86,338.77s1.89,11.4-4.76,19.86-21.46,16.63-20.86,48.67c0,0,.84,7.19-.66,14.05-.41,1.9-1.77,3.45-3.58,4.15-5.37,2.08-17.41,5.71-19.64,7.12-5.93,3.76-15.26,13.41-35.24,4.53-1.2-.53-2.59,0-3.08,1.21-1.53,3.71-4.87,11.07-8.81,15.14-5.41,5.59-10.09,16.4-36.05,2.52,0,0-2.14,2.92-8.67.95-1.43-.43-2.12.24-3.12-.08-5.13-1.63-9.48-4.83-17.64-1.44,0,0-7.59-2.66-11.39-.25l-2.66,2.53s-20.3,5.46-28.27,16.72c0,0,20.17-14.45,29.41-12.55,8.4,1.73,20.15-3.24,24.3,2.59.71,1,2.05,1.3,3.09.64,2.9-1.83,8.26-4.53,12.3-2.66,5.82,2.7,33.97,11.86,40.76-3.02,6.56-14.38,8.7-20.2,35-11.63,1.62.53,3.38-.24,4.08-1.8l4.49-10.08s.53-4.96,21.85-2.66c1.06.11,2.17-3.59,2.33-4.64.25-1.62,2.07-3.91,2.63-6.93,2.41-13.03,6.13-36.11,12.72-41.48,9.23-7.52,15.04-37.33,11.45-41.47Z" fill="#b5aca3"/><path d="m346.84,539.52s15.47-92.03,20.85-84.51c0,0,2.49-2.8-1.62,84.51" fill="#c1b9b0"/><path d="m523.52,430.19s63.14,4.23,87.49,25.4l14.73,13.48-14.69-5.6s-79.77-27.28-96.35,16.11c0,0,33.16-29.98,89.25-15.52,0,0-82.55-4.23-51.5,7.76,0,0,28.93-3.88,40.57,9.17,0,0-24.69,0-63.85,18.34,0,0-31.75-12.7-30.69-.35s29.28,4.23,29.28,4.23c0,0,58.91-26.46,79.72-20.46,0,0-54.33,10.23-79.72,56.44l-63.06-.61s5.56-77,58.83-108.4Z" fill="#c1b9b0"/><path d="m369.81,455.73s-2.75,79.97.33,83.76l-4.07.02s-2.41-73.03,3.75-83.78Z" fill="#b5aca3"/><path d="m287.75,383.62s-2.43,8.79-3.43,10.72-4.6,28.05-4.6,28.05c0,0-7.12,24.86-6.95,32.57,0,0,1.67-19,6.03-32.57l3.83-23.76c.4-2.51,1.09-4.97,2.04-7.33l3.09-7.67Z" fill="#b5aca3"/><path d="m222.74,480.87s7.28-26.82,28.69-14.97c0,0-15.8,28.69-17.26,34.93l23.91-39.41-7.08-7.25s-5.45-.98-7.92.89c0,0-7.1-1.81-11.1.03,0,0-3.04-2.32-9.24,25.77Z" fill="#b5aca3"/><path d="m403.86,338.77s.79,11.54-5.36,20.77c0,0,4.42-6.33,7.79-7.77l-4.13,1.54s3.51-7.06,1.71-14.53Z" fill="#918b86"/><path d="m294.06,424.97s-1.76,14.56-3,15.29c0,0,2.16-2.76,2.93-8.08.29-2.03.38-4.44.07-7.21Z" fill="#918b86"/><path d="m260.99,456.84l-2.92,4.58s-4.16-7-7.08-7.25c0,0,3.75-.42,6.08,1.5s3.91,1.17,3.91,1.17Z" fill="#918b86"/><path d="m363.2,456.68s-18.88,82.64-20.59,82.84h4.23l18.05-83.12s-.73-1.57-1.69.28Z" fill="#b5aca3"/><path d="m388.32,410.03s-5.34,66.69,38.95,129.12l14.41.53s-46.42-104.04-5.87-177.67c0,0-44.82,11.2-24.01,128.05,0,0-22.41-57.09-23.48-80.03Z" fill="#c1b9b0"/><path d="m401.38,355.7s19.76-18.82,23.78-15.24c0,0,4.89-3.65-14.08,20.78-18,23.18-28.77,58.74-30.12,59.1,0,0-4.85-9.41,13.15-38.69s31.63-41.82,7.27-25.96Z" fill="#b5aca3"/><path d="m385.51,374.97s-11.22,21.61-6.85,34.12c0,0,2.24,9.09-.59,15.94l-5.79,1.65s-7.79,21.37-12.4,44.04c0,0,5.08-16.29,7.08-14.52s2.36,15.23,2.36,15.23c0,0-.17-6.35.83-19.23.71-9.12,5.42-19.42,10.79-31.86,3.58-8.3,6.89-18.13,11.52-27.07,0,0-8.5,15.7-10.51,13.58s8.5-23.85,8.5-23.85c0,0-7.2,8.62-11.22,21.73,0,0,1.53-16.53,6.26-29.76Z" fill="#918b86"/><path d="m427.36,341s14.65-4.24,39.18,7.59c0,0-36.18-1.59-43.23,9.35,0,0,58.41-19.94,88.23,13.59,0,0-10.54-4.22-20.72.15,0,0-30.54-7.27-42.47,6.69,0,0,5.24-3.49,13.38-2.04,0,0-16,7.85-16,10.18,0,0,16.87-8.44,22.11-6.4,0,0,23.85-7.56,34.62-3.2,0,0,8.73,5.53-16,8.73l-5.24.87s80.21-8.13,88.15,15.99c0,0,.33-11.56-11.24-17.22-4.13-1.87-9.77-3.09-17.46-3.01,0,0-46.55-33.87-62.24-30.53,0,0-30.97-25.6-47.69-17.45-4.61,2.25-7.51,3.89-9.48,5.05,2.35,0,5.73.25,6.12,1.66Z" fill="#d6cec8"/><path d="m491.34,461.82s42.25-56.96,83.12-53.49c0,0-45.46-7.29-83.12,53.49Z" fill="#d3ccc7"/><path d="m530.12,496.75c-2.74-.99-5.56-1.71-8.43-2.15-6.81-1.04-18.16-1.9-18.96,3.68-1.14,8,24.93,4.8,27.67,3.2s52.61-21.44,79.59-19.38c0,0-24.71,7.26-39.57,19.15l33.24-13.53c4.9-2,10.06-3.3,15.33-3.86l12.19-1.31-7.05-1.99c-10.41-2.94-21.36-3.54-32.01-1.62-13.37,2.41-33.58,7.58-59.67,18.66l-2.34-.84Z" fill="#ccc5be"/><path d="m345.31,453.44s-6.72,25.75-9.8,32.75-25.05,53.4-25.05,53.4l-39.08-.28s37.28-71.85,73.92-85.86Z" fill="#c1b9b0"/><path d="m378.07,319.32s-13.36,19.55-18.06,21.77,18.06-4.21,21.77-8.16c0,0-24.99,14.6-27.71,30.43,0,0,28.23-26.63,28.7-18.56s-11.94,49.36-35.53,54.49-19.82-25.46-19.82-25.46l-11.05,61.56s17.14,11.57,34-.01c5.06-4.3,15.5-6.87,21.02-17.34,8.06-15.3,6.53-37.81,8.89-38.21,4.1-.68,21.15-27.53,20.13-32.15s-5.17-27.67-22.32-28.36Z" fill="#c1b9b0"/><path d="m252.61,422.78s25.77-11.72,30.07-26.75c0,0-22.85,24.99-30.07,26.75Z" fill="#b5aca3"/><path d="m361.18,428.5s11.16-14.62,10.23-22.06,4.78-24.99,10.63-31.1c0,0-9.7,10.77-10.9,14.49,0,0,6.65-17.81,19.01-24.45,0,0-7.97,1.06-9.7,4.39,0,0-2.13-2.53,11.96-8.11,0,0,5.05-3.99-3.32-1.33,0,0-2.66-.53,7.84-5.45,0,0,8.24-9.17-1.2-9.3s-12.49,7.31-12.49,7.31c0,0,4.25-31.23-2.26-33.62,0,0,17.25,5.99,22.35,18.38.29.71.55,1.42.59,2.19.14,3.18-.21,14.27-4.82,19.1,0,0-1.61,2.99-5.92,6.78s-7.47,7.78-10.15,15.1c-5.04,13.79-7.19,22.42-4.37,28.29,0,0,2.01,9.9-.31,15.94,0,0-15.44,4.12-17.32,4.93s.15-1.47.15-1.47Z" fill="#ccc3ba"/><path d="m379.96,319.39s16.18,9.81-13.43,19.28c0,0,17.22-8.44,13.43-19.28Z" fill="#b5aca3"/><path d="m561.68,396.89s-82.5-37.37-108.59,32.44c0,0,15.16-16.57,23.27-14.81,0,0-23.97-2.82-15.87,124.1l4.2-.03s-.67-93.04,91.35-128.65c0,0-56.06,11.99-55-8.46s60.64-4.58,60.64-4.58Z" fill="#c1b9b0"/><path d="m478.83,420.14s-11.63,18.48-10.49,28.06-2.05,32.39-6.39,52.69-1.14,29.88-1.14,29.88c0,0-.46-23.27,4.56-33.3s5.93-49.73,5.93-49.73c0,0-.91-11.18,7.53-27.6Z" fill="#b5aca3"/><path d="m354.06,313.54s18.33.53,17,2.76-16.65,8.95-18.72,8.77,18.77-9.3,1.72-11.53Z" fill="#b5aca3"/><path d="m354.37,432.61s-8.07,17.84-17.22,47.42c-1.79,5.79-3.9,11.48-6.36,17.03-6.42,14.47-18.69,41.76-20.32,42.52,0,0,7.99-23.45,17.67-42.8,3.82-7.63,7.05-15.54,9.57-23.7,4.79-15.48,10.86-35.76,16.66-40.48Z" fill="#b5aca3"/><path d="m231.98,455.1l-27.95,84.28h-2.61s25.43-80.04,27.19-82.12c0,0,1.91-3.55,3.36-2.17Z" fill="#b5aca3"/><path d="m562.58,407.79s-85.58,15.46-97.89,130.8c0,0-6.3-101.9,97.89-130.8Z" fill="#b5aca3"/><path d="m348.74,446.37s4.61-12.34,5.63-13.76c0,0-16.7,15.35-38.01,2.78,0,0-7.29,18.18-14.56,23.84,0,0,13.21-11.45,15.42-18.21,0,0,23.78,4.11,30.83-1.47,0,0,2.34-.67.69,6.81Z" fill="#918b86"/><path d="m262.52,456.96s-34.85,42.96-37.05,83c0,0-4.97-36.94,37.05-83Z" fill="#b5aca3"/><path d="m336.31,308.85s-14.37,114.21-19.94,126.54c0,0,15.05-88.04,19.94-126.54Z" fill="#b5aca3"/><path d="m463.62,379.95s-48.56,35.91-13.8,155.13c0,0-41.26-136.47,13.8-155.13Z" fill="#b5aca3"/><polygon points="117.88 539.59 117.41 520.6 65.95 509.31 67.08 539.58 117.88 539.59" fill="#b5aca3"/><path d="m117.41,520.6s-42.95,6.61-51.46-11.29l51.46,11.29Z" fill="#918b86"/></g><g id="_צוואר"><path d="m335.2,277.49s-4.23,1.99-9,6.51c-12.96,12.29-36.77,35.08-47,38-14,4-40,0-50-9,0,0-11.53-9.16-13-12-2.14-4.13-5.82-6.57-8.75-10.19-.76-.93-1.54-1.91-2.34-2.9-4.79-5.94-9.89-12.38-10.41-13.42l.5,1.5s2.2,17.34,5.6,37.59c3.07,18.34,7.13,39.06,11.4,51.41,9,26-6,40.6-17,46.3s-23,81.7-12,85.7c0,0,7.31-18.6,40.87-49.3,2.53-2.31,5.21-4.7,8.04-7.14,3.54-3.06,7.32-6.22,11.37-9.48,5.03-4.05,9.61-8.63,13.6-13.72,7.54-9.63,20.71-25.87,29.58-33.59,2.73-2.37,5.06-5.16,6.99-8.22l37.78-59.74c.28-.45.54-.91.76-1.39l1.02-3.96c.02-.22.06-.44.06-.67.14-4.72-1.06-12.8,1.94-32.31Z" fill="#efcbb4"/><path d="m333.2,310.47l-1.02,3.96c.57-1.25.9-2.59,1.02-3.96Z" fill="#eac3bb"/></g><g id="_צוואר_הצללות"><path d="m230.15,315.5s-10.29,36.29,16.54,40.68c5.12.84,10.38.19,15.25-1.6l10.4-3.83s-26.49,18.85-40.5,8.36c0,0-19.69-17.25-11.22-49.39,0,0,5.77,3.52,9.54,5.78Z" fill="#e5bfaa"/><path d="m220.6,347.32c2.66,6.18,6.84,9.94,11.63,12.1.62-1.53,2.96-1.11,2.85-4.77-.02-.77-2.58-4.04-3.44-4.73-5.44-4.33-8.87-7.03-9.04-24.6-.05-5.5-.4-10.77-1.54-15.46-1.84-1.94-3.98-4.31-5.45-7.15-2.14-4.13-5.06-7.78-7.76-11.58-5.53-7.76-11.8-15.69-12.41-16.9l.16,2.09s2.2,17.34,5.6,37.59c15.41,3.46,12.97,18.46,19.4,33.41Z" fill="url(#linear-gradient)"/><path d="m255.55,419.85c7.54-9.63,20.71-25.87,29.58-33.59,2.73-2.37,5.06-5.16,6.99-8.22l37.78-59.74c.28-.45.54-.91.76-1.39l1.02-3.96c.02-.22,1.08-.85,1.09-1.07.14-4.72-.75-13.28,2.25-32.79,0,0-4.42,3.93-9.19,8.45h0c2.15,22.06-5.15,37.94-5.15,37.94-37,91-99.61,39.22-99.61,39.22.47,29.64,22.87,12.14,31.98,32.91,3.31,7.55-14.1,30.02-21.53,43.26,3.54-3.06,6.06-5.15,10.11-8.41,5.03-4.05,9.95-7.54,13.94-12.62Z" fill="url(#linear-gradient-2)"/><path d="m216.15,421.89c5-13,11.05-44.89,2.3-60.68-6.66-12.02-14.84-59.12-16.74-78.46-5.22-7.3-7.47-9.92-7.99-10.96l1.39,4.07s2.29,17.5,5.68,37.74c3.07,18.34,7.13,39.06,11.4,51.41,9,26-6,40.6-17,46.3s-43.1,121.34-32.1,125.34c1.17.45,6.9-27.09,34.5-62.27,11.08-14.12,26.19-25.91,43.13-41.37-15.84-.84-27.51-3.51-24.58-11.11Z" fill="#cea695"/><path d="m180.57,401.55s2.95,41.81,18.92,42.49,26.71,1.76,26.71,1.76c0,0-21.49,20.34-26.12,26.5s-19.27,19.69-31.62,67.08l-3.87.37c-8.49-3.45-3.52-136.35,15.97-138.19Z" fill="#c1998b"/><path d="m284.68,320.06s26.23-19.12,30.34-23.3c3.01-3.07,4.97,24.4-4.05,30.52s-14.85,21.55-14.85,21.55c0,0-6.99-7.28,1.75-18.64s-13.18-10.13-13.18-10.13Z" fill="#e8c3af"/><path d="m203.58,294.42s12.08,6.22,12.33,25.63l-10.01-10.74-2.32-14.89Z" fill="#efcbb4"/><path d="m307.47,303.12s-12.73,10.33-14.56,11.45c-2.96,1.83,2.86,11.22,14.56-11.45Z" fill="url(#linear-gradient-3)"/><path d="m335.01,279.09s-2,12.4-2.38,26.72c-.04,1.63-.49,3.21-1.1,4.72-1.43,3.55-4.49,10.44-8.9,16.89-6.63,9.72-14.02,22.24-17.28,29.58.21.06,24.01-38.29,28.81-44.7l.86-33.21Z" fill="#b79488"/><path d="m335.01,279.09s10.08,23.49-2.83,35.33c0,0,1.76-6.03.76-10.63s2.07-24.7,2.07-24.7Z" fill="#635a52"/></g><g id="_אף_הצללות"><path d="m219.05,206.74c-1.14,4.31,18.25,2.18,21.96,7.5,6.66,9.58,38.84,8.08,48.64,6.39,0,0,10.84-3.89,10.84-6.67,0-1.56-20.79,2.13-38.11.14-13.46-1.55-24.43-9.04-24.43-9.04,0,0-16.8-6.27-18.9,1.67Z" fill="#e5bfaa"/><path d="m288.19,191.4s-.84-.78-1.85-2.2-1.72-3.15-2.02-4.91c-.67-3.91-.73-8.38-.96-10.54-.43-4.12,2.42-3.45,2.42-3.45l-.08-2.62c.42-10.84-26.32-7.64-26.32-7.64l-2.4,6.89c.44.02.9.22,1.33.79,1.46,2.62-.26,23.24-7.88,20.11,0,0-.82,2.08-1.6,2.66l-.3.23c-15.44,6.24-10.4,12.38-10.4,12.38,1.1-6.47,6.75-9.25,6.75-9.25,12.13-2.43,13.12-6.71,14.56-22.22.95-10.18,14.63-6.71,20.8-4.6,1.69.58,2.8,2.22,2.63,3.99-.69,7.38.44,13.14,1.85,16.23.57,1.41,1.91,3.84,3.47,4.16Z" fill="#d8b29e" opacity=".98"/><path d="m253.84,162.9s4.11-13.33,17.48-11.25c3.84.6,9.1,10.81,14.45,12.7,0,0-.21,7.36-4.26,9.83-2.95,1.79-9.17-.43-10.89,1.54-3.59,4.1-6.54,7.59,3.12,11.79,4.31,1.87,2.7,7.91-2.2,9.65-2.94,1.05-5.44-.38-8.06.61-4.6,1.73-11.71,10.52,4.68,7.75,2.93-.5,7.38-.7,8.33,3.99,0,0,2.78,6.86-9.35,8.65-6.38-.74-10.21-4.94-12.15-7.52-1.32-1.76-3.01-2.66-5.19-2.92-3.15-.37-6.69-.55-4.74,2.27,0,0-7.43-1.14-7.35-9.03,0,0,.75-2.36,2.72-6,2.32-4.3,21.31-1.24,13.42-32.06Z" fill="#e5bfaa" opacity=".49"/><path d="m292.2,214.24s-26.26,17.64-47.66-3.97c0,0,3.32-4.12,8.83-.14,3.75,2.71,7.91,7.87,12.76,8.33s12.1-7.02,15.63-4.85c4.53,2.78,6.73,1.38,8.83.94.48-.1,1.17-.63,1.6-.3Z" fill="#c69889" opacity=".5"/><path d="m238.81,200.63s-.17,5.87,4.32,4.76c3.75-.92,14.22-2.31,15.97,4.57.9,3.55,5.66,5.42,7.63-5.14,1.09-5.81,6.14,8.33-1.68,12.63,0,0-4.15,2.07-9.66-5.82-5.51-7.9-10.97-1.72-10.97-1.72,0,0-8.75-1.92-5.61-9.29Z" fill="#cea695" opacity=".32"/><g id="_אף"><path d="m250.39,190.87c-.05-.18-6.08,1.42-9.55,4.97-3.99,4.07-5.62,9.68,6.83,15.46,0,0-13.25-2.36-10.06-12.09,2.26-7.93,12.78-8.34,12.78-8.34Z" fill="#d1a28b"/><path d="m295.95,201.78c1.69,5.59,1.75,14.43-15.14,13.77,0,0,20.96,2.12,16.11-12.37-.57-1.7-1.74-3.94-.97-1.4Z" fill="#d1a28b"/><path d="m245.52,210.58c-1.32-.31-3.07-4.2,4.87-2.84,3.73.64,5.31,3.6,6.94,5.39,2.24,2.45,8.76,7.47,16.15,2.52s14.09-2.82,16.37-.91c0,0-.13.13-.28.03-1.75-1.17-10.11-2.77-15.53,1.45-7.53,5.86-14.03.28-16.84-2.2-1.92-1.7-3.03-5.66-9.21-5.92,0,0-4.46-.2-2.47,2.49Z" fill="#d1a28b"/></g><path d="m254.41,211.47c-.66.97-2.43.52-4.92.2s-4.58-1.01-4.58-2.52,3.25-1.47,5.98-.82c.61.14,1.19.34,1.7.56,1.53.67,2.46,1.65,1.82,2.58Z" fill="#6d5853"/><path d="m276.92,213.19c.24-.4,8.16-5,4.83-13.84-.25-.65-1.75-4.49-1.82-6.64-.02-.52,2.24-13.83,2.76-13.66.93.31-.61,15.04,2.28,18.58,6.42,7.83-7.06,16.94-8.05,15.56Z" fill="#e5bfaa"/><path d="m278.02,210.48c-2.21.49-10.15-9.78-11.74-3.55-1.26,4.93-11,0-9.96-4.73.37-1.69,3.08-2.36,4.08-3.65s1.14-2.74,3.61-2.14c9.92,2.38,13.06-3.41,15.83-1.9s3.17,6.98,2.08,10.53c-.67,2.2-1.58,4.93-3.91,5.45Z" fill="#f1d3bf" opacity=".39"/><path d="m276,214.64s5.05-2.97,12.18-.72c0,0,5.73,1.7-6.33,1.66,0,0-7.9-.25-5.86-.93Z" fill="#c49683"/><path d="m279.74,213.25s1.36-1.96,8.49.29c0,0,5.23,1.94-5,2.03-1.12,0-2.24-.38-3.04-1.17-.39-.38-.64-.8-.45-1.15Z" fill="#6d5853"/></g><path d="m349.09,257.25s-20.9-17.92-52.52,42.87c0,0-5.44,15.56-8.46,17.19,0,0,31.58-21.86,50.11-42,5.22-5.67,8.67-12.49,10.87-18.06Z" fill="#f2cfbb"/><g id="_פנים_הצללות"><path d="m302.35,140.33s48.18-1.51,52.93,9.48,6.53-44.84-17.22-64.43c-20.99-17.32-21.11-12.61-29.88,9.21-2.26,5.62-7.72,9.29-13.77,9.25-18.13-.13-56.31,1.18-69.88,13.84-3.31,3.09-8.12,4-12.17,1.97-3.67-1.85-7.19-4.48-7.33-7.85-.3-7.13-10.1,29.69-10.1,29.69,0,0,35.69-20.41,58.37-5.9s49.04,4.73,49.04,4.73Z" fill="#f2cfbb"/><path d="m200.89,262.17c1.76-.69,3.77-.05,5.01,1.37,3.18,3.66,10.14,12.07,12.08,17.74,2.54,7.43,2.54,8.21,2.54,8.21,0,0-5.87,2.54-7.82-4.89s-2.54-14.47-9.78-18.77c-3.62-2.15-3.28-3.18-2.03-3.67Z" fill="#e5bfaa" opacity=".35"/><path d="m246,182.96s-24.58,5.43-29.64,15.26-10.41,2.32-18.54,22.48c0,0-15.28,4.57-13.88-14.25s14.71-33.98,62.06-23.49Z" fill="url(#linear-gradient-4)" opacity=".65"/><path d="m204.75,243.74s-7.62-17.25-4.39-31.03c2.76-11.78,28.69-25.82,37.86-27.69,0,0-9.86,8.43-15.02,18.56,0,0-16.02,12.31-18.29,16.84s-4.01,7.86-.17,23.32Z" fill="#e5bfaa" opacity=".49"/><path d="m297.51,157.41s-3.14,3.57,4.3,4.96c0,0-8.57,1.62-11.81-1.16s11.06-9.71,13.22-9.62c0,0-5.58,4.46-5.71,5.83Z" fill="#fff" opacity=".24"/><path d="m280.18,159.94s8.16-8.21,5.9-12.26-4.09-8.62.45-14.3c6.37-7.96,35.26-4.98,33.89,4.33,0,0-.15,11.15,3.51,11.76,0,0-28.59-2.32-36.9,12.9l-6.85-2.44Z" fill="#e5bfaa" opacity=".52"/><path d="m237.81,119.62s12.82-.33,25.54,5.91c0,0,5.3,1.97,2.12,12.82,0,0-4.55,20.65-10.85,19.25,0,0-.95-14.61-25.94-17.59,0,0,16.28,4.81,8.71-3.9s-9.7-14.87.42-16.49Z" fill="#e5bfaa" opacity=".52"/><path d="m244.38,151.75s9.52,4.21,3.69-2.41c-4.28-4.86,2.24-1.25,4.82,4.62.37.84.66,1.73.83,2.64.26,1.41.22,2.88-.26,4.35,0,0-.63,2.84-7.41,5.83s-7.41,4.57-7.41,4.57c0,0-10.72,5.99-21.76-1.1,0,0,17.66-1.26,19.39-6.15,0,0,10.56-2.21,10.41-4.57,0,0-8.36-1.73-14.35-2.21,0,0-3.83-2.95,4.84-1.53s7.62-.63,7.62-.63c0,0-.64-3.77-.41-3.42Z" fill="url(#linear-gradient-5)" opacity=".65"/><path d="m243.82,150.6c.57.93,1.42,1.66,2.43,2.08,2.15.89,5.56,1.76,7.12-.88.99-1.68,1-3.23.66-4.16-.5-1.36-1.51-1.77-2.96-1.76-.11,0-.83.12-.52,1.74.29,1.53-.71-1.94-8.08-6.61-1.78-1.13-3.75-1.95-5.8-2.43-4.91-1.15-6.38-.49-6.38-.49,0,0,7.33,5.27,9.39,7.27,1.49,1.44,3.26,3.8,4.14,5.24Z" fill="#e5bfaa"/><path d="m188.06,143.93s8.86,5.42,14.55,5.03c.26.47-3.04,4.3-14.07-2.18l-.49-2.85Z" fill="#fff" opacity=".24"/><path d="m216.2,301.01s5.7-13.19-7.48-21.46c-12.67-7.95-36.53-62.87-22.39-85.21,1.21-1.91,1.85-4.12,1.75-6.38-.45-9.67-2.39-34.15-10.68-33.75,0,0-9.11,14.29-5.04,41.68,2.59,17.46,3.47,37.83,14.21,61.64,6.11,13.54,16.16,29.39,29.63,43.48Z" fill="#d3a997" opacity=".29"/><path d="m341.88,209s6.2-17.48,5.32-25.67-9.28-8.44-10.15-7.57-27.27,7.84-38.39-10.75c0,0-.39-2.57,8.5-2.57s15,3.19,26.54,1.35l5.08,1.49s22.74,4.37,22.35,10.33c-1.1,16.89-19.25,33.39-19.25,33.39Z" fill="#e5bfaa" opacity=".8"/><path d="m172.56,179.3s2.09-23.13,15.03-24.7c2.44-.29,4.31-2.27,4.3-4.73s-.21-5.09-.93-6.65c-1.52-3.28-6.16-1.18-4.14-6.55s13.67-26.29,16.62-33.79c5.42-13.79,18.72-20.93,32.26-32.26,1.89-1.58,27.24-25.05,24.78-30.6-3.22-7.27-50.88,30.9-49.3,33.09l-13.23,19.99-33.55,82.04,8.15,4.16Z" fill="#d3a997" opacity=".74"/><path d="m210.69,237.69s-.38.12-.75.54c-1.12,1.25-2.22,5.2,6.86,16.71,1.99,2.53,1.12,7.72,2.95,10.85,6.62,11.32,18.36,18.6,38.49,23.6,48,11.9,53.65-41.28,53.65-41.28,0,0-34.31,33.22-44.42,31.08s-44.31-24.47-45.27-28.7-11.51-12.79-11.51-12.79Z" fill="#e5bfaa" opacity=".33"/><path d="m257.9,42.43s-6.31,2.79-7.76,3.33c-1.93.72-5.06,4.19-7.98,6.13-8.05,5.35-14.44,7.64-18.56,18.21-3.7,9.49-12.36,18.58-26.95,24.77,0,0,18.72-16.06,17.25-19.01s-16.51,14.59-16.51,14.59c0,0,27.4-51.55,60.53-48.01Z" fill="#33231f"/><path d="m284.73,161.07s1.65-13.04,14.93-15.53c.43.61-7.75,2.99-14.93,15.53Z" fill="#e5bfaa" opacity=".86"/><path d="m309.3,163.77s5.33,10.35,28.01,8.68c0,0-16.44,3.65-19.64,2.44l-.28,1.68s8.44,1.91,19.66-.8c0,0-20.73,10.09-35.8-7.57,0,0,7.07-6.26,8.04-4.43Z" fill="#d1a28b" opacity=".36"/><path d="m252.27,143.41s4.52,6.48-.39,10.44l1.72,3.64s7.49-8.64-1.33-14.08Z" fill="#fff" opacity=".08"/><path d="m246.67,159.54s-27.59,25.27-43.69,1.96c0,0,15.7,10.35,43.69-1.96Z" fill="#e5bfaa" opacity=".8"/><path d="m243.14,157.73s-20,7.22-35.34,1.65l-4.81,2.11s17.13,9.93,43.69-1.96c0,0-3.53-1.05-3.53-1.8Z" fill="#d1a28b" opacity=".36"/><path d="m218.7,231.3s-4.81,2.15-5.65-1.95-7.42-5.93-7.2,2.91,3.52,14.66,10.36,20.87,6.22,5.88,6.22,5.88c0,0-7.6-18.68-11.13-20.26s6.32-6.21,7.41-7.45Z" fill="#e5bfaa"/><path d="m220.95,306.77c5.55,4.95,50.69,32.37,70.73,5.54,0,0,14.84-22.72-9.37-20.9-6.65.5-13.32.56-19.96-.07-8.63-.82-18.81-1.77-20.06-1.75-5.57.08-22.67-12.8-25.32-4.38,0,0-5.92,12.72,3.97,21.55Z" fill="#f3d3c3" opacity=".83"/><path d="m275.36,322.32c2.44.01,4.88-.44,7.13-1.41,4.68-2.01,11.46-4.75,5.29-11.95,0,0-5.14-3.4-18.18,2.65-4.74,2.2-32.18,5.24-53.57-11.92-8.97-7.19,5.13,12.45,11.92,14.32,7.65,2.11,17.84,8.12,47.42,8.3Z" fill="#e5bfaa" opacity=".56"/><path d="m214.17,235.3c.31-.75-.33-1.52-1.13-1.4-.94.14-1.92.01-2.01-1.07-.18-2.14.16-7.31-3.57-3.61-2.41,2.39-.85,5.71.49,6.55.86.54.63,1.14.36,1.5-.2.27-.25.62-.14.93.35.97,1.22,2.69,2.9,1.67,1.35-.82,2.44-2.97,3.09-4.58Z" fill="#d8ad98"/><path d="m323.27,243.09s-4.58,2.74-5.37,10.13-40.44,43.18-79.24,27.49c-.47-.19-.93.27-.73.73,1.04,2.48,4.98,7.96,19.42,7.82,4.97-.05,10.26,3.55,17.45,1.55,14.34-3.97,19.87-8.64,19.87-8.64l-15.12,12.22s17.91-4.65,37.4-32.95c0,0,3.91-5.11,3.28-9.67s3.04-8.7,3.04-8.7Z" fill="#e5bfaa"/><path d="m196,275.23s18.41,23.39,21.59,27.56c6.12,8.03,21.19,16.58,37.94,17.48,7.94.43,16.11,3.12,23.68,1.74,0,0-13.25,7.35-43.64-2.63,0,0-7.99-2.22-18.52-13.69-2.49-2.71-4.15-5.78-6.11-8.57-4.97-7.09-9.31-14.09-14.94-21.89Z" fill="#c49a8a" opacity=".56"/><path d="m204.87,242.89l13,21.07s3.15,4.24,3.01,11.63c0,0-17.48-21.96-17.48-25.71s-.12-8.02,1.48-6.99Z" fill="#e5bfaa"/><path d="m288.65,317.48s14.11-10.33,24.4-19.06c8.03-6.81,16.06-13.28,18.37-16.28,0,0-8.98-2.19-14.5,1.08s-5.99,13.99-28.27,34.26Z" fill="#e5bfaa" opacity=".56"/><path d="m306.38,253.51s5.44-7.1,8.36-4.9c2.72,2.04,3.11,7.03,3.11,7.03,0,0,.89-8.83,3.05-9.23s5.06-8.88-4-8.07-7.7,3.65-13.65,2.84,3.12,12.34,3.12,12.34Z" fill="#e5bfaa" opacity=".41"/><path d="m324.31,243.26s48.64-12.03,18.29-35.13c0,0-12.3,10.16-35,2.75,0,0,2.06,11.64,3.95,14.47s15.01,1.73,12.76,17.91Z" fill="#e5bfaa" opacity=".49"/><path d="m290.5,186.99s16.3-3.33,28.21,2.98,22.26-2.45,22.26-2.45c-.09-.91,16.01,16.22-4.41,23.71-10.37,3.8-25.06,3.61-25.77-.14-.8-4.23-1.33-7.34-4.17-10.6-4.84-5.55-13.99-9.14-14.85-9.17l-1.27-4.32Z" fill="url(#linear-gradient-6)" opacity=".65"/><path d="m253.45,160.95s-18.61,15.14-33.13,17.02c0,0-3.82-.08,12.58,2.14,2.36.32,4.75.47,7.13.37,3.03-.13,7.65.17,8.15,3.07,0,0,9.6-18.16,5.27-22.6Z" fill="url(#linear-gradient-7)"/><path d="m289.24,164.15s7.56,17.37,20.23,16.55,31.06-.41,15.32,7.56c0,0-28.81-6.74-33.51,1.63,0,0-8.58-12.67-2.04-25.74Z" fill="url(#linear-gradient-8)"/><path d="m173.33,166.16s2.82-6.9,9.02-6.59c0,0,7.06,3.45,7.68-10.19,0,0-6.35,1.02-5.02-9.57s9.16-18.59,3.67-29.49c0,0,.52-.85-4.53,13.89-7.53,21.95-10.82,41.95-10.82,41.95Z" fill="#bf978c"/><path d="m224.1,230.59s26.95-2.14,32.46,2.29,12.07-.54,12.07-.54c0,0,22.28,5.03,24.96,6.87,2.29,1.57.03-5.54-13.9-8.73-3.92-.9-7.97-1.04-11.98-.71-3.02.25-7.7.13-12.68-1.92-3.86-1.59-23.71-4.82-30.94,2.74Z" fill="#fff" opacity=".31"/><path d="m281.34,158.86s7.03-6.48,4.74-11.17-18.07-12.62-21.02-3.35,10.94,5.94,11.16,8.56-.8,5.29-.8,5.29l3.76,1.6,2.16-.93Z" fill="#f2cfbb"/><path d="m353.92,146.58s-12.7,60.5-5.2,67.27c3,2.71,3.64,7.16,3.86,8.51.98,5.89,10.44,2.36,10.44,2.36,0,0,12.34-51.16.93-77.2s-10.04-.94-10.04-.94Z" fill="#d3a997" opacity=".29"/><path d="m354.63,145.5s-1.75-29.15-4.07-32.1c-8.17-10.39-8.88-47.41-47.45-62.57,0,0,57.69-10.35,63.36,67.55l2.71,42.4s-12.82-8.63-14.55-15.29Z" fill="#d3a997" opacity=".74"/><path d="m239.58,295.43c4.17,4.4,10.28,6.39,16.26,5.41s13.14-3.23,5.62-7.72c-11.99-7.16-27.66-3.87-22.05,2.13.06.06.11.12.17.18Z" fill="#fff" opacity=".24"/></g><g id="_לחי_שמאל"><path d="m246,182.96s-17.45,3.97-23.87,19.83c0,0-6.24,8.11-8.61,9.82,0,0,11.43-7.36,11.97-11.19s18.19-18.73,20.51-18.46Z" fill="#d1a28b"/><path d="m205.14,243.97c.86-.22-12.29-17.45,7.1-32.35,0,0,9.52-6.91,10.28-10.42,0,0,2.8,1.34-12.91,15.25-2.4,2.13-5.4,6.47-6.32,9.55-1.3,4.37-.69,8.18,1.85,17.97Z" fill="#b58372"/><path d="m207.24,217.19s-8.81,9.19-2.1,26.79c0,0-5.29-11.12-3.15-19.17.88-3.3,2.39-5.4,5.25-7.61Z" fill="#875f54"/></g><g id="_לחי_ימין"><path d="m289.21,214.75c-1.15-.63,8.58-2.88,5.15-9.49-3.7-7.12-14.92-9.91-9.3-14.09,3.09-2.3,23.42,2.38,25.46,18.83.81,6.52,3.75,19.03,7.34,19.86-.07-.46-12.31.21-12.87-16.86-.19-5.96-10.16-13.99-8.81-11.54,2.44,4.43,1.25,13.02-6.97,13.29Z" fill="#d1a28b" opacity=".54"/><path d="m313.2,224.46c3.27,2.02,11.78,8.37,10.07,18.63,0,0-1.56-10.48-10.75-15.5-.8-.44-1.2-1.36-.97-2.24l.07-.25c.18-.69.98-1.02,1.58-.64Z" fill="#875f54"/></g><g id="_עין_ימין_הצללה"><path d="m332.54,157.2s1.78-.93,1.36-1.91c-.87-2.01,5.83,2.4,8.5,5.39.71.8,9.69-1.18,10.25-.33.43.66-1.37,1.97-4.24,2.71-2.51.64-6.12.75-6.04.98.8,2.1,14.89,1.29,13.17-2.47,0,0,3.51,4.81-8.32,5.55,0,0,6.62.98,7.46.06,0,0-1.05,1.91-10.91.55,0,0,7.95,3.57,11.16,2.47,0,0-4.99,4.99-15.1-4.31-1-.92-4.32-.75-5.08-1.49-6.94-6.71-2.19-7.2-2.19-7.2Z" fill="#cea695"/><path d="m301.58,155.33s13.96-20.01,37.66,4.21c.16.17-.13.83-1.21-.16-7.92-7.24-22.41-16.44-36.45-4.06Z" fill="#bf9582"/><path d="m301.58,155.33s-.56-4.43,9.04-7.52c6.38-2.05,19.28-.04,30.06,13.63,0,0-15.41-19.44-33.75-11.03-.29.13-5.07,4.77-5.36,4.92Z" fill="#96685c"/></g><g id="_עין_שמאל_הצללה"><path d="m204.85,147.64c-.7.38-1.34.87-1.92,1.42-1.24,1.17-4.84,3-13.36-1.84-.34-.19-.24-.66-.24-.66l-1.51,2.58s13.71,4.53,16.04.57c0,0,1.45,3.21-7.36,2.26,0,0,1.38.75-1.26.75s-4.84,1.32-4.78,1.7,8.51-1.62,7.99.13c0,0-.38,1.19-2.26,1.13s-5.03,2.14-4.65,4.84c0,0,1.13-4.22,8.28-4.73.9-.06,1.79-.3,2.6-.69l2.39-1.17-.3,1.51s2.31-1.68,3.64-2.66c.52-.39-.11-.7.42-.71,1.9-.04,2.12-5.87-2.07-5.31l-1.63.88Z" fill="#cea695"/><path d="m244.85,151.2c-.04-.68-6.03-25.82-39.28-4.75-.45.29-.61.74-1.02,1.09-1.43,1.18-2.35,1.18-3.64,2.52-1.03,1.07,3.1-1.37,5.56-2.96,12.77-8.24,27.86-12.42,38.39,4.1Z" fill="#bf9582"/><path d="m241.07,143.6s-.61-1.5-2.11-2.44c-2.77-1.73-10.14-5.48-24.64.54-1.56.65-3.35,1.46-4.91,2.31-2.62,1.43-4.51,3.63-7.74,6.32.12.36,3.4-2.94,9.22-5.65,6.97-3.25,17.26-7.44,26.47-3.47.49.21,3.24,2.11,3.7,2.39Z" fill="#96685c"/></g><g id="_משקפיים"><path d="m251.12,188.08s2.47,1.72,4.28-2,1.71-4.75,2-5.51,2.52-8.62,2.11-11.23c-.25-1.61-1.04-2.29-1.76-1.92-.13.06.43.17.59,1.2s-.1,2.97-.33,4.66c-.48,3.59-1.45,6.24-2.05,8.32-2.14,7.45-4.78,6.43-4.84,6.49Z" fill="#d1ac9a"/><path d="m258.66,168.03c-.42-.58-.74-1.04-1.18-1.05-.87-.03-1.73-.16-1.73-.16,0,0-3.75,11.59-5.52,15.67-1.46,3.37-.38,4.81.04,5.21.09.08.15.13.15.13,3.66,1.51,5.18-3.17,6.55-8,1.47-5.2,2.45-10.43,1.69-11.79Z" fill="#ddd7d7" opacity=".46"/><path d="m283.54,170.75c.47-.54,1.46-.7,1.89-.68.87.04,1.73-.02,1.73-.02,0,0,.94,12.26,2.37,16.47,1.18,3.48,1.64,3.92,1.19,4.29-.1.08-.16.11-.16.11-7.86,4.63-8.7-17.68-7.03-20.17Z" fill="#ddd7d7" opacity=".46"/><path d="m286,173.35c-.14,1.57-.43,5.71,1.52,13.08,0,0,.67,2.34.66.28,0-1.5-1.94-8.3-1.34-13.69.56-5.09-.67-1.6-.84.33Z" fill="#b5a9a3"/><path d="m254.81,166.99s.54.61,1.78-.56c.7-.66,1.21-1.51,1.52-2.42.3-.85.82-2.09,1.51-2.78.38-.38,1.08-.22,1.58-.22,2,0,14-2,23,3,0,0,1,0,1,5,0,0,.46,2.8,1.73,1.4s1.27-8.4-.73-9.4c-1.88-.94-13.41-4.2-25.62-2.95-2.66.27-3.86,1.76-5.28,4.61-.5,1.01-.82,2.6-.49,4.32Z" fill="#b5a9a3"/><path d="m256.62,171.49s.73-1.89-1.1-1.92c-1.35-.02-5.76,11.57-2.9,11.83.34.03.64-.22.75-.55l3.25-9.36Z" fill="#a09797" opacity=".18"/><path d="m253.58,167.55s-.87-.34-1.51,1.06-1.39,3.09-1.39,3.09c0,0-1.47,0-1.77.94s-1.28,3.92-1.28,3.92c0,0-.68,2,2.07,2.86,0,0,4.64-8.14,3.88-11.87Z" fill="#847e7b"/><path d="m251.9,169.05s2.27.77-.18,4.85c0,0-2.86.5-1.31-2.18.95-1.64,1.49-2.67,1.49-2.67Z" fill="#968d89"/><path d="m285.83,169.2s-.63.15.22,1.24-.38,1.38-.38,1.38c0,0-.63,0-.66,1.16s-.22,8.33,1.13,11.43c0,0,.47.88,1.19.85s-.03-5.45-.03-5.45l-.13-9.49s.35-1.2-1.34-1.12Z" fill="#a09797" opacity=".18"/><path d="m288.56,171.26s1.28-1.15,1.64,4.25c0,0,1.44.17,1.75,1.59s2.31,6.39-2.41,6.29c0,0-1.79-8.87-.97-12.13Z" fill="#847e7b"/><path d="m291.61,176.52s-.82-.4-.71,2.56,1,2.34,1.65,1.72-.33-4.12-.94-4.28Z" fill="#635f5d"/><path d="m290.14,178.4l.69.02s.04-1.72-.22-1.58-.51.13-.49.85l.02.71Z" fill="#e5dfe1"/><path d="m289.25,172.56s.51.29.51,1.23.47,3.01,1.14,2.96c0,0,.29.85-.74.51,0,0,.11-.91-.74-1.14-.47-.16-.18-3.57-.18-3.57Z" fill="#968d89"/><path d="m254.2,154.01c-2-4-6-7-10-9-8.41-4.47-21.9-7-33-7-12.82,0-23.21,3.92-26,12-.38,1.11-3.27,6.32-2.22,17.41.07.69.43,1.89.83,3.33,1.32,4.73,2.54,10.01,5.85,14.9,4.94,7.3,11.63,13.1,20.29,14.72,3.01.57,6.24.85,9.59.85,2.18,0,4.45-.12,6.75-.36,8.04-.85,15.17-6.63,21.91-14.85,4.97-6.06,6.49-12,6.41-12.82.36-.87,3.34-11.68-.41-19.18Zm-2,18s-7,26-26,28c-6.53.69-11.88.31-16.09-.48-8.4-1.58-15.59-6.8-19.7-14.3-9.1-16.62-2.21-35.23-2.21-35.23,6-16,41-11,56-3,15,7,8,25,8,25Z" fill="#d1cacc"/><path d="m360.2,165.01c-2.74-6.5-9.51-10.53-19-13-9.21-2.4-17.3-3-24.47-3-14.56,0-25.15,4.7-28.66,13.98-.65,1.71-.95,3.52-1.05,5.35-.22,3.8-.66,10.14.63,16.19.93,4.4,3.01,8.36,5.57,12.48,4.14,6.67,9.59,13.18,20.81,15.82,3.12.73,6.2,1.11,9.15,1.11h0c22.27,0,33.51-18.27,36.52-24.74.29-.62.53-1.24.75-1.88,1.21-3.56,4.02-12.2-.24-22.3Zm-3.5,24.5s-12.5,29.5-42.5,22.5c-25.89-6.04-25.71-35.17-25.18-43.04.09-1.38.3-2.75.72-4.07,4.23-13.44,21.96-18.51,51.46-10.9,31,8,15.5,35.5,15.5,35.5Z" fill="#d1cacc"/><path d="m183.32,153.61l-2.66-.32s-.52-.84-2.86-.84l-1.19-1.94s-1.32,2.59-1.34,3.24c-.12,2.91,2.21,3.31,2.21,3.31l6.11,1.17s1.17-2.21,1.1-2.79.06-2.34-1.36-1.82Z" fill="#bcb5b7"/><path d="m255.52,169.57s-2.63,10.47-5.13,13.42c0,0-.07.31.51.06,1.24-.53,5.63-12.92,4.74-14.44,0,0,.04.35-.11.96Z" fill="#b5a9a3"/><path d="m244.2,147.01c-15-8-50-13-56,3,0,0-6.89,18.61,2.21,35.23,4.11,7.5,11.3,12.72,19.7,14.3,4.21.79,9.56,1.17,16.09.48,19-2,26-28,26-28,0,0,7-18-8-25Z" fill="#fff" opacity=".24"/><path d="m341.2,154.01c-31-8-49-2-52,13,0,0-5,38,25,45s42.5-22.5,42.5-22.5c0,0,15.5-27.5-15.5-35.5Z" fill="#fff" opacity=".24"/><path d="m362.38,173.59l4.44.29s2.19.29,2.19-.36c0-.58,2.63.73,1.88,2.85-.19.53-.46.92-.97,1.15l-2.34,1.05c-.34.03-.62.04-.95.02l-4.65-.05c-.83-.04-1.13-1.4-1.27-2.21-.25-1.41-.56-2.63,1.67-2.73Z" fill="#d1cacc"/><path d="m360.58,174.62s.6,2.35,2.52,2.44,2.32.8,3.43.49,3.39-.85,3.21-2.36-2.33-1.26-2.33-1.26c0,0,1.16-.93,2.66-.43,1.22.41,1.06,1.76.97,2.6-.16,1.56-2.21,2.57-4.7,2.51-3.84-.09-6.04-.21-6.04-.21l.09-.62c.1-.75.16-1.5.17-2.26v-.9Z" fill="#bcb5b7"/><path d="m368.42,169.51l-2.9,4.31,5.36.38.59-2.26s.27-2.43-1.25-2.43h-1.8Z" fill="#bcb5b7"/><path d="m361.25,174.75s-.96.66.96,2,9.77,1.31,7.12-2.69l-6.96-.48-.06.46,4.41.3-.14.58-4.84-.09-.49-.09Z" fill="#e5dfe1"/><path d="m362.32,174.04s2.32-18.68-27.04-23.43c-30.98-5-42.35,3.28-45.59,9.32s-1.83,4.8-1.83,4.8c0,0,1.32-3.01,1.92-3.35s3.57-3.49,3.57-3.49c0,0,6.21-11.66,41.68-5.78,29.35,4.86,25.89,21.85,25.89,21.85l1.4.07Z" fill="#e5dfe1"/><path d="m258.79,161.58s-1-.36-2,1.29-.07,3.04-.07,3.04c0,0,.2.13,1.36-2.11,1.31-2.38.72-2.22.72-2.22Z" fill="#e5dfe1"/><path d="m257.72,159.59s1.53-2.71,16.02-1.27c1.32.14,2.49.59,3.53.75,8.13,1.22,8.49,2.6,8.49,2.6,0,0,2.21,2.54-1.61.83-2.94-1.31-7.52-2.32-13.42-2.53-9.13-.32-12.89-.06-13.01-.38Z" fill="#e5dfe1"/><path d="m284.95,164.61s.5.99.5,3.66c0,0,.28.62.89-.1.26-.3.06-1.13.2-1.38.17-.32.61-.83.73-1.08,1.47-3.19-.55.38-.63-.29-.1-.93-.89-.99-1.68-.81Z" fill="#e5dfe1"/><path d="m284.68,163.94s2.97.46,1.38-2.13c0,0,.38-.79.87.41s.1,2.05-.9,2-1.23.28-1.36-.28Z" fill="#847e7b"/><path d="m259.9,160.35s-.31,1.31-1.48,1.2-1.85-.68-.89-1.48,2.27-.35,2.38.28Z" fill="#847e7b"/><path d="m256.03,165.53s.39,1.85,1.09.1,1.7-3.35,1.7-3.35c-.09-.08.8-.47-2.17,4.74,0,0-.49.49-.72-.1-.1-.54.1-1.38.1-1.38Z" fill="#847e7b"/><path d="m255.72,159.81s1.46-16.17-32.52-20.99c-33.98-4.81-38.14,10.48-38.99,13.97,0,0-.51.66.07.83s.87.21,1-1.5,2.24-3.32,2.24-3.32c0,0,.62-.42,2.45-2.78s7.61-5.96,16.07-6.58c8.1-.59,18.03.3,25.87,2.52.56.16,1.11.3,1.68.43,3.3.75,17.03,4.42,21.08,14.52l1.04,2.91Z" fill="#e5dfe1"/><path d="m183.58,158.22l-.37,9.03s-.03.82-.75-1.44c-.83-2.62.25-8,.25-8l.86.4Z" fill="#bcb5b7"/><path d="m182.7,158.09l.88.14c.19-.53.53-.81.55-1.29l-2.17-.19s-3.94-.42-4.13-2.08-.36,2.39-.36,2.39l5.23,1.03Z" fill="#afa8aa"/><path d="m183.74,156.03s1.55-.68.57-1.44l-6.03-.08s-.19.59.35.89c.71.4,5.11.63,5.11.63Z" fill="#e5dfe1"/><path d="m177.18,154.79s.52-.2.88-1.05h2.09s.91-.56-.27-1.08-3.09-.43-3.48.86c-.61,2.04.78,1.28.78,1.28Z" fill="#e5dfe1"/><path d="m184.13,156.94s.79-.66.86.34-.67,1.97-.48,9c0,0,.25,2.28-1.53,1.14,0,0-.44-.47.82-.36l.33-10.13Z" fill="#bcb5b7"/><path d="m284.8,170.12s-1.6.89-1.54,5.14,1.6,15.3,4.1,15.9c0,0,1.02.91-.33,1.06-.94.1-2.23-1.34-2.86-4.59-.73-3.75-.81-4.75-1.12-6.34-.25-1.28-1.96-11.04,1.74-11.17Z" fill="#d1ac9a"/><path d="m249.98,173.36s.37-.49.62.23-1.22,4.41-1.34,4.39-.52,0-.33-1.16,1.05-3.45,1.05-3.45Z" fill="#e5dfe1"/></g><path d="m198.33,292.93s-15.87,23.13,7.78,69.59-8.64,83.42-8.64,83.42c0,0,29.73-18.61,19.55-67.75-1.77-8.55-3.3-15.89-8.26-23.08-16.85-24.4-10.42-62.19-10.42-62.19Z" fill="url(#linear-gradient-9)"/><path d="m201.59,363.7s39.81,81.13-70.24,90.14c0,0,94.28-5.26,70.24-90.14Z" fill="#261917"/><g id="_גבות"><path d="m190.2,141.01s12-18,27-14c12.22,3.26,27.75,7.84,33.09,9.43,1.25.37,2.57-.23,3.12-1.4,1.07-2.3,2.02-6.43-1.21-11.37,0,0,2,5.35,1,7.35,0,0-1.57-6.69-3.28-7.35,0,0,1.28,4.35,1.28,5.35,0,0-3-6-11-8-10.85-2.71-25-6-35-2-7.99,3.19-14,14-15,22Z" fill="#3f3030" opacity=".79"/><path d="m358.17,157.53c-1.2-.2-5.31-17.15-22.31-18.52-13.17-1.06-21.04,2.02-29.85,1.73-.9-.03-7.43.44-8.88-1.99-1.62-2.73-.83-3.41,2.75-7.46.07-.08.21-.01.19.09-.07.38-.09,1.09.16,2.36,0,0,3.23-4.12,18.43-5.54,11.13-1.04,21.53.24,30.11,6.75,6.85,5.2,10.55,14.59,9.39,22.57Z" fill="#3f3030" opacity=".79"/></g><g id="_עין_ימין"><path d="m332.88,162.39c-.69-1.1-2.57-3.45-5.9-5.22-3.39-1.8-8.29-2.98-14.98-1.63-2.37.48-4.96,1.26-7.8,2.47,0,0-1.37.69-2.14,1.41-.81.75-.98,1.53,1.75,1.59.24,0,.48-.04.7-.13.86-.34,3.44-1.15,5.76.36.49.32,1.01.58,1.55.82.85.37,1.74.67,2.64.89,4.09,1,7.87,1.22,10.96,1.12,4.72-.15,7.8-1.05,7.8-1.05,0-.05-.1-.27-.32-.62Z" fill="#fff"/><path d="m326.32,157.9l3.25,3.47c.2.21.21.54,0,.74-.43.41-1.53,1.07-4.34,1.94,0,0,5.87,2.43,8.68-1.72s-7.59-4.43-7.59-4.43Z" fill="#c9bdb8"/><path d="m332.88,162.39c.22.34.61.58.61.62,0,0-3.38.89-8.09,1.05-3.09.1-6.86-.11-10.96-1.12-.9-.22-1.79-.51-2.64-.89-.53-.24-1.06-.5-1.55-.82-2.32-1.51-4.4-.84-5.26-.49-.22.09-.97.22-1.2.26-3.93.58-2.84-.95-1.46-1.73-.5.08-4.32-.02-4.32-.02,0,0-.99,1.47,2.48,3.08,1.93.89,5.61-.83,5.61-.83,0,0,1.62-.65,3.92,1.09,5.14,3.88,20.54,3.38,24.7,1.8,2.54-.97.59-2.06-1.85-2.01Z" fill="#d1a28b"/><path d="m325.4,164.06c1.12-1.38,1.8-3.14,1.8-5.05,0-.63-.08-1.25-.22-1.84-3.39-1.8-8.29-2.98-14.98-1.63-.51,1.05-.8,2.22-.8,3.47,0,1.08.22,2.11.6,3.05.85.37,1.74.67,2.64.89,4.09,1,7.87,1.22,10.96,1.12Z" fill="#3f2921"/><path d="m312.1,156.06s-5.39,2.46-6.06,4.14c-.1.25-.3.39-.55.49-.96.43-2.97.9-3.93.57-.63-.21-1.07-1.49-.49-1.8,1.51-.81,6.54-2.88,11.03-3.4Z" fill="#c9bdb8"/><path d="m298.2,159.01s25.6-17.25,45.6,6.75l-9.07-1.36s-12.15-15.96-34.65-3.88c-.69.37-1.59.22-2-.44-.21-.32-.46-.59.12-1.07Z" fill="#1c1715"/><path d="m312.08,158.72c1.61.66,6.15,2.14,10.74.12.37-.16.38-.69,0-.85-2.28-.95-8.27-3.04-10.93-.12-.25.27-.15.7.18.84Z" fill="#704f48" opacity=".6"/><circle cx="319.2" cy="160.01" r="3" fill="#11100f"/><path d="m315.3,157.6s.67-1.81,2.45-1.13c0,0,.38.26-.15.39-.38.1-1.2-.08-1.54.84-.44.92-.93.18-.77-.1Z" fill="#fff"/></g><g id="_עין_שמאל"><path d="m213.15,149.91s7.12,6.04,24.05,4.1c0,0,1.49-.71,3.56,1.01-.89-.49,1.65.01,1.41-1.14,0,0,5.79,3.04,2.16,2.93-5.2-.16-6.92-2.03-6.92-2.03,0,0-18.6,2.42-25.13-4.48l.87-.38Z" fill="#d1a28b"/><path d="m240.2,151.01s-2.07-1.09-5.12-2.22c-2.98-1.11-6.9-2.26-10.78-2.49-4.18-.25-8.3.58-11.11,3.71,0,0,1.86,1.85,6.58,3.15,3.29.91,7.98,1.55,14.41,1.12.96-.06,1.96-.15,3.01-.27,0,0,1,0,4,1s-1-4-1-4Z" fill="#fff"/><path d="m235.08,148.78c-2.98-1.11-6.66-2.46-10.54-2.68-1.29-.22-2.84.02-4.35.33-.51,1.05-.94,2.63-.94,3.88,0,1.01.2,1.97.54,2.86,3.29.91,7.98,1.55,14.41,1.12.67-1.17,1.06-2.53,1.06-3.97,0-.52-.07-1.03-.16-1.52Z" fill="#3f2921"/><path d="m235.25,150.3s4.54,1.98,1.14,3.77c0,0,1.44-.13,4.82.93,0,0,1.32.76,1.17-.68,0,0-3.83-3.13-7.13-4.41v.38Z" fill="#c9bdb8"/><path d="m219.37,149s-5.93.54-2.59,2.39c0,0,1.43.68,2.73,1.04l.27.73s-5.31-1.27-6.65-3.2c0,0,3.18-1.57,6.53-2.01,0,0-.25.73-.29,1.05Z" fill="#c9bdb8"/><path d="m220.24,151.38c.24.36.67.41,1.09.51,2.19.56,9.41.1,11.73-.94,2.47-1.1.31-2.36-5-2.67-4.4-.26-10.05-.26-7.82,3.1Z" fill="#704f48" opacity=".6"/><circle cx="227.26" cy="150.17" r="3" fill="#11100f"/><path d="m208.13,152.78s4.1,2.11,10.05.86c0,0-5.79-2.45-5.63-3.33s-4.42,2.46-4.42,2.46Z" fill="#c69b83"/><circle cx="224.17" cy="149.85" r=".68" fill="#fff"/><path d="m245.94,154.48s-11.96-20.69-43.47-4.24l5.66,2.54c-1.04.94,19.16-12.97,36.18,3.27.57.54,1.78.62,1.81-.16.02-.63.14-.77-.18-1.42Z" fill="#1c1715"/><path d="m219.78,153.16c-.08.18,3.62.97,7.72,1.23s8.09-.21,9.7-.38c0,0-10.98,2.27-17.42-.85Z" fill="#fcede6" opacity=".68"/></g><g id="_פה"><path d="m305.18,249.16c.14-.1.25-.17.3-.2-.14.09-.22-.65-1.68-.83-1.9-.24-2.93-3.26-2.99-3.42-.34-.92-4.25-1.29-5-1.21-7.28-1.78-20.14.63-20.14.63,0,0-10.77.85-21.75-3.2-13.36-4.4-25.28-7.34-32.43-7.14-6.38.18-8.72,3.3-8.72,3.3,14.18,14.39,29.54,29.53,54.7,28.04,14.74-.87,34.52-12.34,37.91-14.63.32-.05,0-1.32-.19-1.35Z" fill="#51363b"/><path d="m238.09,254.58s-9.37-5.71,4.44-4.09,49.29,3.39,46.69,5.43c-.81.64-1.32,1.16-5.74,3.21-9.05,4.21-23.53,10.63-30.94,2.98l-14.45-7.54Z" fill="#b56666"/><path d="m225.1,234.42s-.13,2.16.28,3.29c1.97,5.41,11.71,19.84,57.25,14.84l13.12-4.18,2.07-5.89s-69.26-16.04-72.73-8.06Z" fill="#dba9a8"/><path d="m231.18,235.15s1.29,4.34,4.24.91c2.95-3.43,5.4,2.58,5.4,2.58,0,0,.53,1.42,3.32-1.61s6.23,4.94,6.23,4.94c0,0,1.61-3.76,2.95-3.27s27.79,3.37,27.85,5.03,3.87-1.69,3.87-1.69l-3.87,8.61-8.01.04-38.64-4.81-3.1-4.04s.88-1.72-.83-3.23.59-3.45.59-3.45Z" fill="#edbebe"/><g id="_שיניים"><path d="m289.99,255.03s-2.52.05-2.21,1.93c0,0-5.13-.45-5.25,2.34,0,0-4.08-1.54-5.53.92,0,0-.51-1.48-5.1-.52,0,0-2.92-.05-3.14.9,0,0-.08.32-.42-.02-.31-.31-.7-.54-1.14-.57l-5.63-.38s-1.23-.13-1.02.97c.05.53-.28.33-.44.12-.26-.33-.61-.46-1.02-.55-1.49-.36-4.93-1.12-6.58-.91,0,0-2.45-2.22-7.91-2.04,0,0-1.33-3.15-4.45-2.49,0,0-.35-5.97-8.02-4.91,0,0-2.76-8.24-5.49-4.26l-1.5,2.32c-.13.67,21.98,26.7,53.58,15.12,0,0,12.11-3.45,11.28-7.94Z" fill="#fff"/><path d="m225.13,247.86l2.46-3.24s10.32,2.68,12.43,9.15c0,0,.59,3.17-.65,4.81,0,0-6.57-3.69-14.24-10.72Z" fill="#f7f2f0"/><path d="m225.16,236.19l.1,5.12s-.22,2.1,2.45,2.88c0,0-.65,4.27,2.48,3.25.22-.07.61-.45.66-.23l.8,3.21s-.12,1.06,2.83-.21c.06-.02.23.14.23.14.25.95,1.17,3.55,3.32,2.52,0,0,2.32-2.83,2.54-1.18.34,2.55,2.47,2.27,2.47,2.27l4.01.12c.47.01.9-.25,1.11-.68.24-.49.57-.95.73-.2,0,0-.36,3.11,4.81,3.57,5.88.53,6.25,0,6.25,0,0,0,.72-.93.94,0s6.27,2.07,9.43,1.88c.31-.02.61-.14.86-.33.44-.33,1.08-.91,1.12-1.47.04-.51.33-.26.33.06,0,.5.4.56.73.68,1.77.65,7.14,2.21,7.6-2.46,0,0,.37-.12.75.91s2.94,3.44,5.09,0c0,0,2.16,1.55,3.51-1.6,0,0,1.16-.21,3.12.72,0,0,1.38.24,1.91-2.16,0,0,.67-4.65.67-4.79,0-1.05-.25-3.41-3.19.9-.09.13-.29.07-.29-.09.05-1.41-.17-4.61-3.82-.5-.17.2.28-6.6-3.64-4.3-.82.48-2.09,1.94-3.26,4.37-.1.22-.41.22-.5,0-.78-1.9-3.17-5.98-7.58,1.22,0,0-.86.88-1.11-.69s-3.28-11.8-9.01-3.78c-1,1.05-1.97,6.5-3.18,1.1-1.32-5.9-5.47-7.95-8.36-3.32s-2.49,4.37-2.99,2.39c-.67-2.63-3.31-11.49-7.59-.12,0,0-1.08,2.02-1.85-2.9s-4.56-5.93-5.31,1.05c0,0-.72,1.87-1.7-2.51,0,0-.37-2.1-1.58.23-.43.82-.53-.1-1.17-1.71-.71-1.78-1.66-1.66-1.68-.27,0,0-3.08-5.83-3.02-3.09Z" fill="#fff"/><polygon points="230.3 252.29 231.62 250.34 231.67 250.51 230.43 252.4 230.3 252.29" fill="#dbd8d7"/></g><path d="m276.89,266.42s.42-6.61.21-5.02-1.34,4.7-2.8,5.13c-3.65,1.06-4.84-3.94-5.15-4.4,0,0-.41,4.11-1.31,4.42,0,0-3.01,1.02-5.17-.52-.86-.62-2.11-2.07-2.17-3.51l-2.21,3.21s-7.44,1.99-6.37-4.84l-.97,1.15s-5.58,9.09-7.05-3.19c0,0-1.6,1.85-2.38,2.23-3.03,1.5-1.48-4.62-1.48-4.92,0,0-4.14,3.22-6.74-1.73,0,0-1.4-2.85-3-2.12s-.39-.17-.39-.17c0,0,18.67,22.45,46.97,14.3Z" fill="#dba9a8"/><path d="m315.54,241.83s.04,1.35-3.63,2.63c-1.08.38-1.82,1.43-1.67,2.57.18,1.36,1.23,2.24,4.8-1.37,4.64-4.7,2.86-4.97,1.95-5.14-.67-.13-1.45,1.3-1.45,1.3Z" fill="#b58372"/><path d="m300.04,244.37s-.52,2.02,2.48,3.44c1.62.77,2.78.8,3.66.55.74-.21,1.73-1.23,1.73-1.23,0,0-4.8-1.38-5.9-2.01s-1.97-.75-1.97-.75Z" fill="#ce7c89"/><path d="m295.11,238.42c-17.04-8.56-33.51-6.16-33.51-6.16-9.48-3.71-18.78-4.23-26.14-4.04-9.57.25-16.25,2.18-19.71,4.86-2.93,2.27-6.12,1.55-6.43,1.16.18.48-.02.82.46,1.68.17.31-.3.79-.1,1.13,1.64,2.83,3.98,6.57,5.83,9.71,4.03,6.82,7.74,14.01,7.74,14.01,0,0,7.49,15.22,31.04,19.02,17.98,2.89,35.12-3.69,45.73-18.78.6-.85,9.2-11.6,11-13.4,1.21-1.2,3.15-4.26,3.15-4.26-3.31,3.13-19.07-4.93-19.07-4.93Zm-27.04,26.35c-15.89.94-27.52-4.54-37.76-12.48-5.98-4.64-10.92-10.48-16.15-15.78,0,0,3.41-2.33,10.95-2.09,7.42.24,17.51,1.93,29.62,5.82,8.66,3.19,21.37,2.77,21.37,2.77,0,0,12.01-.47,19.44,1.12.64.14,2.23-.25,3.3-.07,1.3.21,2.27.88,2.75,1.26,1.06.83,2.6,1.65,3.91,1.97,1.43.34,2.7.28,2.83.19-.2.14-1.3.58-3.25,1.74-1.07.64-2.4,1.48-3.86,2.52-.51.36-1.75,1.23-2.3,1.53-1.96,1.07-3.89,2.16-6.18,3.26-1.35.65-3.8.2-5.22.82-1.91.83-4.01,3.23-4.98,3.8-4.44,2.62-9.99,3.36-14.47,3.63Z" fill="#c86b76"/><path d="m220.73,234.42s5.5-.33,13.09.83c7.51,1.15,16.36,3.18,20.9,4.99,0,0,7.5,2.48,8.87,1.64,1.88-1.14,12.39-8.82,5.03-9.55-3.23-.32-7.03-.07-7.03-.07,0,0-.04.04-.94-.35-.24-.1-.57-.19-.98-.32-3.35-1.1-18.79-5.47-32.49-2.34s-6.46,5.17-6.46,5.17Z" fill="#bc6275" opacity=".4"/><path d="m209.98,234.48c.28.55,3.12.42,6.05-1.51.46-.3.95-.67,1.55-.99,7.08-3.79,14.53-3.56,14.53-3.56,0,0,2.38,2.87-6.62,3.82-4.17.44-2.09,1.85-4.77,2.43-10.15,2.73-10.73-.19-10.73-.19Z" fill="#b75c6b"/><path d="m225.43,248.22c-1.38-2.03-2.42-3.69-3.37-5.11-.53-.79-1.85-3.26-.51-3.13s1.88-.79,1.74-1.46c-.06-.27-.12-.77-.72-.99-3.52-1.31-.56-3.09-.94-3.01-1.92,0-5.06.73-5.49.83-2.91.67-3.89.35-4.43-.02-.66-.45-1.89-1.01-1.61-.69.99,1.13-1.78-.47-1.78-.47.21,1.17,1.64.65,1.57,1.49-.03.42-.32.84-.17,1.18s.29.58.29.58c0,0-.14-1.25.87-1.57.81-.26,2.66.2,5.63,3.29l8.91,9.08Z" fill="#8e4756"/><path d="m262.63,274.23c-29.2.16-46.54-27.73-46.54-27.73,0,0-.25-.46-.87-.82,4.03,6.82,7.8,13.96,7.8,13.96,0,0,6.81,16.11,30.83,19.96,17.98,2.88,32.3-1.97,45.09-17.09.67-.79,2.57-3.32,3.09-4.11.3-1.03-14.82,15.69-39.4,15.82Z" fill="#8e4c5d" opacity=".31"/><path d="m261.5,248.78s-1.04,5.81-.97,7.48c0,0,.01.11.07.14.14.07.21.18.34-.27,0,0,.88-6.54.7-7.39,0,0-.08.04-.15.03Z" fill="#dbd8d7"/><path d="m213.55,236.6s4.74.42,7.91-1.88c.38-.27-1.09,4.17-6.3,3.12l-.82-.67-.8-.56Z" fill="#ce7c89"/><path d="m188.05,245.52s15.55,30.25,17.54,32.5c0,0-14.28-14.63-17.54-32.5Z" fill="#d3a997" opacity=".7"/><path d="m209.77,237.13c-.25-.32,1.1-3.01,5.14.49,2.6,2.26,3.01,3.44,3.01,3.44,0,0,.7,10.18.83,11.32,0,.06.09.27.12.28.2.06-8.26-13.9-9.1-15.53Z" fill="#f9dee7" opacity=".17"/><path d="m287.65,257.06c-.59.05-1.14.3-1.59.66-1.56,1.24-5.96,4.74-6.37,4.79-.31.04,1.54.28,8.08-4.17,0,0,.99-1.22,1.86-1.22,0,0-1.02-.14-1.97-.06Z" fill="#bc6275"/><path d="m221.46,234.72s-1.29,3.98-6.27,3.12l2.49,2.45s-.64-1.37.39-1.37,4.51-3.2,3.39-4.19Z" fill="#633f46"/><path d="m228.16,239.06l-.46,5.13s.74-2.81.46-5.13Z" fill="#dbd8d7"/><path d="m233.86,243.87s.63,2.77.62,6.34c0,.15.04.07.16.04.2-.04-.4-7.28-.78-6.38Z" fill="#dbd8d7"/><path d="m230.8,241.33v5.8s-.43-5.39,0-5.8Z" fill="#dbd8d7"/><path d="m225.28,235.49c-.07.09.05-.04.22,0,.14.03.3.19.46.36.64.67,1.54,2.12,2.22,3.43,0,0,.31-2.55,1.77.52.31.65.61,2.1.91,1.72.32-.42.52-1.03.9-1.24.32-.18.45-.13.72.63.6,1.65,1.01,3.77,1.76,2.79.03-.04.14-.26.14-.56,0-1.06.83-3.82,2.16-4.51,0,0-2.18-.19-2.58,4.56-.05.64-.3.22-.34.11-.36-.97-1.15-3.67-1.81-3.29-.34.19-1.09,1.27-1.09,1.27,0,0-.29-.72-.5-1.29-.37-1.02-1.15-2.33-1.82-1.7-.21.2-.23.66-.25.67,0,0-1.73-4.07-2.88-3.47Z" fill="#c49595"/><path d="m240.8,245.76s-.22,4.51-.37,5.57c0,0-.04-.08-.12-.12s.3-5.59.3-5.59c0,0,.04.05.19.14Z" fill="#dbd8d7"/><polygon points="248.59 252.84 249.38 246.42 249.52 246.41 248.75 252.82 248.59 252.84" fill="#dbd8d7"/><polygon points="272.95 249.97 272.38 256.57 272.48 256.57 272.58 256.69 273.15 250.03 272.95 249.97" fill="#dbd8d7"/><path d="m281.5,248.74l-.55,6.39s.14-.01.17.05l.42-6.45h-.04Z" fill="#dbd8d7"/><path d="m286.79,256.03s1.88.26,1.88-7.49c0-.07.02-.03.04-.06,0,0,.17,7.58-1.92,7.55Z" fill="#dbd8d7"/><path d="m292.63,249.19s-.01-.1-.04,0c-.87,3.52-1.59,4.17-2.3,5.25-.09.13.07-.07,0,0,0,0,1.43-1.21,2.34-5.25Z" fill="#dbd8d7"/><path d="m260.34,260.91l.08,1.71h.1s-.1-1.68-.1-1.68l-.08-.03Z" fill="#dbd8d7"/><polygon points="269.31 262.42 268.66 260.72 268.6 260.74 268.55 260.72 269.17 262.45 269.31 262.42" fill="#dbd8d7"/><polygon points="243.92 258.97 244.69 257.2 244.58 257.2 244.56 257.19 243.89 258.89 243.92 258.97" fill="#dbd8d7"/><polygon points="251.86 260.95 252.44 259.2 252.49 259.24 251.89 260.97 251.86 260.95" fill="#dbd8d7"/><path d="m296.63,262.58c-.41,1.07-30.45,22.16-57.58,5.46-2.24-1.38-1.83-4.76.7-5.47,2.03-.57,3.73-2.52,9.64-.33,15.79,5.85,31.42,1.05,35.93-1.54.77-.44,21.59-6.28,11.3,1.88Z" fill="#d87c8b" opacity=".53"/><path d="m209.82,229.43s-2.59,2.44-1.21,3.75,2.74,2.11,2.07,3.18-1.39.89-.84,1.82c0,0-1.78-.29-.59-1.64.79-.89-.71-1.62-.71-1.62,0,0-2.5-.95-1.48-3.03s2.77-2.44,2.77-2.44Z" fill="#b58372"/><path d="m311.95,246.26c-.19-.75-1.17-.18-1.17-.18l-1.59.68-.97.51c-.17-.15-.56-.31-1.31-.49-2.94-.69-6.66-2.32-7.09-2.52-.23-.11-.2.35-.2.35,0,0,.23,3.09,4.16,3.82,0,0-5.22-.77-4.25,3.87l.16.51s3.32-2.35,5.94-3.91c1.17-.23,3.23-.64,4.15-.96,1.33-.46,2.36-.93,2.18-1.68Z" fill="#aa5261"/></g><g id="_שיער"><path d="m362.47,53.08c-38.67-41.42-60.59-30.63-61.28-30.3-.36-.8-10.87-24.35-71.99,5.23-59.67,28.87-81.98,100.3-97.64,127.13-10.95,18.77-34.33,63.44-1.52,119.37.9,1.53,1.57,2.67,2.06,3.52,3.3,4.73,23.3,38.99-42.21,75.51-50.23,28-29.25,59.5-16.11,67.53,8.7,5.31-14.5,24.3-17.58,27.94-.02.02-.03.05-.05.08-7.36,9.56-10.52,17.43-6.57,42.34,0,.03.05.04.05,0,.07-2.31-1.72-22.09,8.26-36.14,1.39-1.96-2.36,12.97-2.9,14.46l7.23-15.18c1.55,1.66-1.33,4.74-2.55,6.65-3.9,6.11-6.85,15.28-2.34,27.06,2.1,5.47,4.77,9.08,7.71,11.34,1.83,6.54,5.74,12.2,12.85,15.76,0,0,.01.02.01.03-1.82,6.68-5.71,10.01-12.98,6.39,0,0,12.28,7.33,17.43-4.59,0-.01.02-.02.03-.01,1.98.64,4.14,1.14,6.52,1.5.03,0,.05-.03.02-.04-.6-.28-2.88-1.41-5.69-3.91.44-1.52.79-3.26,1.02-5.27.37-3.2.45-6.58.35-10.05.35-.21.69-.43,1.03-.65.25,1.41.53,2.83.9,4.31.13.54,1.26,3.25,2.19,2.73,1.23-4.89,1.88-10.27,6.09-13.7,2.35-1.92,5.39-1.98,6.57,1.19.9,2.4.55,5.25.07,7.7-2.72,14.14-7.38,28.47-15.34,37.31-.02.02.03,0,.02.03-.29,4.18,30.1-2.95,39.02-15.85,12.99-18.79-13.93,16.38-13.51,20.88.15,1.57,35.49-22.46,36.03-25.39.24-1.32,1.82-.07,10.58,16,3.06,5.6,2.72,5.87,4.66-.39,1.55-5,8.11-15.69,10.17-21.51,1.48-4.19,3.05-8.46,4.61-12.66,4.43-11.87,8.88-23.1,11.62-29.76,6.48-15.75,7.41-46.26,16.53-56.35,12.73-14.09,11.99-28.78,8.73-43.9-.68-3.14-1.09-6.71-2.37-10.41-12.98-37.42-13.75-79.56-15.81-83.38,0,0-19.74-24.58-24.03-79.74-.95-12.25-.36-27.36,2.79-39.24,3.83-14.47,9.45-32.35,21.05-56.64,10.7-22.41,40.28-53.74,69.81-54.51,16.01-.42,22.1,4.93,24.43,4.93,16.71,0,21.1.51,34.22,8.3,12.89,7.65,21.82,24.08,29.05,44.28,10.48,29.27,16.08,69.08,13.49,91.31-.79,6.76-2.57,14.79-4.3,21.54-6.01,23.5-13.95,48.26-27.9,63.24l-2.02,18.21s.23.24.24.24c.49-.24,6.12-2.47,12.99-5.27-.09,4.5,1.35,13.52,14.15,7.57,16.83-7.83,56.65-49.45,61.83-88.83,4.04-30.75-7.93-102.44-59.73-157.93ZM63.74,491.2c-.68-1.06-1.31-2.26-1.84-3.64-3.5-9.09-7.59-11.84,3.22-28.44,1.09-1.53,2.52-5.04,3.28-4.91.02,0-.54,9.05-.55,9.06-2.77,8.02-4.58,17.85-4.11,27.93Zm7.29-14.2c2.13-11.42,2.01-15.72,3.65-12.92,0,0,.01,0,.02.02,1.53,7.75,3.9,21.36,4.44,33.58,0,.01,0,.02-.02.02-2.23.25-4.96-1.63-4.96-1.64-2.43-7.52-5.54-6.13-3.12-19.07Zm7.84,33.03s-.03.03-.04.01c-1.56-2.02-3.11-4.45-4.48-7.37,0-.01,0-.03.02-.03,1.64-.04,3.27-.33,4.84-.8.01,0,.03,0,.03.02.02,2.89-.09,5.66-.37,8.17Zm5.6-13.46s-.03,0-.03-.02c-.47-7.17-1.73-14.48-3.15-20.88.5,2.03,1,4.06,1.49,6.09,1.26,5.14,1.69,9.76,2.43,14.57-.25.08-.49.16-.74.24Zm2.7-79.92s-50.5-27.59,14.03-52.83c0,0-50.5,20.11-14.03,52.83Zm56.49-133.9c.02.94-.06,1.84-.28,2.68,0,0,.14-1.04.28-2.68-.23-9.22-11.2-22.05-11.2-22.05-38-42.67,4.96-102.03,4.96-102.03-23.39,47.47-14.54,62.88-13.67,72.03.87,9.16,12.86,27.47,17.44,32.05,3.48,3.48,2.93,14.78,2.46,19.99Zm-13.08-64.37l-3.09,12.36c-10.81-32.66,8.17-59.15,8.17-59.15-9.05,18.98-5.08,46.79-5.08,46.79Zm241.6,58.69c.31-.31.38-.39,0,0h0Zm-24.96,16.06s-.14-.53-.29-1.14c10.89-4.44,24.53-10.15,25.98-11.62,0,0-21.17,34.01-25.68,12.76Z" fill="#33231f"/><path d="m155.14,268.2c5.15,49.92-69.31,77.03-69.31,77.03-19.88,6.56-16.6,20.41-16.6,20.41.42-10.68,14.38-17.45,18.4-18.08,4.02-.63,30.28-13.81,30.28-13.81-6.25,4.69-13.79,10.97-25.24,17.31-62.29,34.48-22.44,70.29-18.88,70.01,5.46,17.59-25.68,3.57-25.68,3.57,51.46,41.68,87.74-64.07,87.74-64.07,68.96-91.34,19.3-92.37,19.3-92.37Zm-67.98,148.45c-49.44-31.85,13.3-52.5,13.3-52.5-50.7,23.51-13.3,52.5-13.3,52.5Z" fill="#413029"/><path d="m93.82,532.73s33.29-27.95,13.56-73.57c0,0,51.37,64.94-13.56,73.57Z" fill="#413029"/><path d="m126.7,528.2s17.67-17.67,2.47-88.36,52.61-69.46,52.61-69.46c0,0-47.68,23.02-41.92,65.35s16.44,78.09-13.15,92.47Z" fill="#413029"/><path d="m159.18,525.65s22.87-28.36,23.79-54.44c0,0-19.21-2.74-21.04,23.33s-2.74,31.11-2.74,31.11Z" fill="#413029"/><path d="m171.07,383.84s-23.33,36.6-8.23,86.46c0,0-33.85-29.73,8.23-86.46Z" fill="#413029"/><path d="m153.64,320.17s-67.55,52.19-64.65,78.57c0,0,11.02-32.47,64.65-78.57Z" fill="#33231f"/><path d="m118.56,498.7s14.9-34.1,7.61-50.66-5.3-50.33,3.31-61.58c0,0-23.18,9.93-13.91,48.01s2.98,64.23,2.98,64.23Z" fill="url(#linear-gradient-10)"/><path d="m146.88,259.02s21.95,40.82-40.59,109.02c0,0-33,21.27-15.3,39.67,0,0-13.25-9.94,27.1-47.93s37.52-82.12,28.79-100.76Z" fill="#281a18"/><path d="m157.74,274.83s18.17,67.25-50.73,111.14c0,0,58.52-34.92,50.73-111.14Z" fill="#281a18"/><path d="m138.56,513.22s-69.15-21.7-49.27-70.96,95.82-101.7,84.97-151.87c0,0,26.53,23.2-72.77,144.18,0,0-36.16,41.13,37.06,78.64Z" fill="#281a18"/><path d="m143.18,296.05s-50.61,169.41,23.82,161.07c0,0-64.27,12.94-23.82-161.07Z" fill="#281a18"/><path d="m153.67,236.59s37.69,30.15,16.58,91.95-19.22,64.44-9.42,118.71-.38,73.11-.38,73.11c0,0,13.19-21.86,9.8-62.93s-16.96-38.82-5.65-86.68,34.67-98.74-10.93-134.16Z" fill="#281a18"/><path d="m148.01,229.79s23.81,127.72-29.41,214.55c0,0,57-61.46,29.41-214.55Z" fill="#281a18"/><path d="m193.37,290.72s18.53,65.15-68.8,192.93c0,0,76.57-117.49,68.8-192.93Z" fill="#281a18"/><path d="m140.86,326.5s-128.86,42.34-65.5,96.57c0,0-60.01-43.26,65.5-96.57Z" fill="#281a18"/><path d="m84.99,532.02s48.29-19.09,9.55-71.87,51.72-152,51.72-152c0,0-82.04,90.79-47.23,149.75s-14.04,74.12-14.04,74.12Z" fill="#281a18"/><path d="m96.14,515.02c4-.47-71.09-16.28-5.97-102.26,0,0-71.52,77.55,5.97,102.26Z" fill="#413029"/><path d="m95.84,539.04s76.75-112.61,56.62-165.45c0,0,5.03,66.69-56.62,165.45Z" fill="#281a18"/><path d="m167.55,349.68s-69.93,126.08-4.45,186.97c0,0-52.17-52.34,4.45-186.97Z" fill="#281a18"/><path d="m181.97,351.2s-40.33,144.61-106.39,77.93c0,0,55.28,62.65,106.39-77.93Z" fill="#413029"/><path d="m167.55,357.86s-43.41,32.71,1.26,127.71c0,0-33.34-79.27-1.26-127.71Z" fill="#413029"/><path d="m298.23,22.02s-3.16-7.95-13.52-8.97c-23.48-2.32-71.27,8.63-112.96,69.6,0,0,17.16-23.32,24.25-26.68,0,0-28.54,31.9-28.54,40.11,0,0,14.39-20.49,16.43-22.4l-10.9,17.98,15.8-20.16-2.59,7.63s3.77-12.87,24.39-33.25c4.79-4.73,45.62-29.14,70.69-22.6,0,0,9.8,3.07,12.14,8.52l-.97-4.84,1.91,1.23-.82-1.77,2,.08-.5-1.57,2.36-.9-.86-.87,1.69-1.12Z" fill="#413029"/><path d="m168.99,97.83s-15.67,23.9-16.07,33.54c0,0,14.66-33.54,16.07-33.54Z" fill="#33231f"/><path d="m212.5,47.65s-20.94,13.96-24.96,21.99l24.96-21.99Z" fill="#33231f"/><path d="m231.54,33.43s-15.97,16.93-16.62,18.32-30.16,14.22-35.29,31.48c0,0-.45-20.35,31.12-39.27,21.74-13.02,20.79-10.53,20.79-10.53Z" fill="#33231f"/><path d="m148.01,229.79s4.82,27.72,19,42.51,13.25,37.3,9.25,52.71,2.16-1.23,2.16-1.23c0,0,10.17-33.6-1.54-56.72,0,0,13.87,17.88,13.25,31.13,0,0,2.77-24.97-4.01-31.44s-18.19-28.36-17.57-36.99c0,0-4.93,16.65,2.16,28.05,0,0-18.8-29.59-17.57-48.4,0,0-7.48,8.68-5.13,20.37Z" fill="#191010" opacity=".47"/><g id="_שיער_הצללות"><path d="m335.01,279.09s32.28,1.08,28.12-34.33c0,0-5.5,3.03-8.52-1.14,0,0-6.46,20.83-19.6,35.47Z" fill="#261917"/><path d="m393.72,227c-6.19.22-11.66,4.12-14.25,9.75-3.96,8.61-10.4,23.22-11.55,29.8-1.69,9.63-1.69,20.78,37-16.89,0,0,4.69-23.21-11.2-22.65Z" fill="#261917"/><path d="m404.03,185.49s3.79,32.29,1.34,36.52-4.01-12.03-6.46-13.36,5.12-23.16,5.12-23.16Z" fill="#261917"/><path d="m263.41,40.32s22.9,1.96,17.5-9.65-35.66,4.58-42.04,13.9c-3.99,5.83-11.94,11.53-17.34,14.98-3.92,2.51-7.26,5.8-9.87,9.65-7.37,10.88-21.92,32.73-25.3,40.47-4.58,10.47-16.36,47.11-16.36,47.11,0,0,9-12.27,9.16-14.56s12.6-44.17,23.72-55.78,30.26-45.64,60.53-46.13Z" fill="#1c1110" opacity=".48"/><path d="m365.67,145.5s5.84,11.98,5.11,23.95l-2.78.44-2.34-24.39Z" fill="#261917"/><path d="m293.81,39.35s-13.54-30.56-44.82-4.91c0,0,28.64-23.25,44.82,4.91Z" fill="#261917"/><path d="m307.6,46.78s30.79-15.1,37.31,21.02c0,0,4.92,20.32,16.21,32.78,6.04,6.66,10.33,14.75,11.8,23.62,1.22,7.35,1.86,16.79.71,27.98,0,0-5.36-38.37-16.58-50.04-9.8-10.19-17.76-39.38-17.76-39.38,0,0-9.47-19.84-31.68-15.99Z" fill="#1c1110" opacity=".48"/><path id="_הצללה_כהה_שיער" d="m194.96,95.88c-1.02.02-41.96,88.04-51.13,110.46-12.27,29.98,6.61,47.33,13.07,63,9.32,22.6-1.57,80.95-26.63,95.77,0,0,29.78-15.14,42.79-47.67,0,0-7.25,43.67-24.46,59.27-.44.4-.89.78-1.35,1.15-18.18,14.48,28.62-17.98,31.65-23.23s10.78,2.27-9.07,32.76c-11.14,17.11-14.14,38.37-7.99,57.84,3.26,10.31,8.59,22.37,17.06,36.07,0,0,24.5-16.34,16.34-65.34-.43-2.58,7.56-9.59,8.68-10.46,0,0,19.12-3.23,9.64-40.58-8.7-34.25-16.08-88.11-16.08-88.11,0,0-7.74-8.8-14.79-29.07-2.94-8.46-6.08-20.92-7.8-32.81-4.18-28.93-3.14-35.45-2.36-44.07.14-1.53,2.7-15.67,5.13-22.7,1.67-4.82,5.16-15.14,8.07-23.29,3.62-10.12,6.75-18.23,8.98-24.05,1.81-4.73,10.34-16.1,9.58-15.86-3.63,1.13-8.54,9.24-9.33,10.96Z" fill="#261917"/><path d="m364.68,145.33s4.59,21.94,3.73,23.38,2.29.86,2.29.86c0,0,.72-21.37-6.02-24.24Z" fill="#261917"/><path d="m403.32,130.11s11.77,25.13,11.56,47.31c0,0-8.22-19.47-8.44-25.48s-5.57-18.93-5.57-18.93c0,0-2.45-10.47,2.45-2.89Z" fill="#413029"/><path d="m302.12,22.47s3.67-1.78,11.12-.92c3.79.44,8.73,1.82,13.8,3.98,4.76,2.04,18.1,10.05,32.09,23.84,19.36,19.09,40.46,47.48,46.13,70.48,0,0-14.38-30.39-19.55-32.65,0,0,4.99,17.19,11.77,23.97,0,0-16.13-18.06-17.42-26.45s-29.03-27.74-29.03-27.74l21.93,33.55s-20.97-35.81-32.9-38.71c0,0-1.85-15.3-39.79-10.23l-5.15,1.46,6.38-3.48h-5.03l6.19-1.93-4.84-1.93,2.32-.58-1.99-1.44,2.37-.88-1.01-1.07,2.11-.71-1.64-2.21,1.85-.26-.28-1.04-.59-1.06,1.85-1.28-1.39-.77,1.49-.1-.81-1.81Z" fill="#413029"/><path d="m343.81,57.96s10.3,34.85,22.73,45.15,6.08,55.77,3.04,100.3c-2.11,30.9-3.68,20.99,5.74,74.24,6.81,14.06-6.19-26.24-3.46-62.3,2.05-27.06,10.43-83.45,7.1-91.03,0,0,14.24,25.76-2.73,84.84,1.58,4.77,12.29-37.9,13.8-52.65.8-7.86,26.96,55.63-17.13,72.04,0,0,26.67,3.94,30.3-35.45s3.03-59.09-5.45-72.42c0,0,9.01,16.93,4.24,54.54,2.62-.87-4.43-61.45-23.03-85.45,4.46,8.65,20.88,52.78,16.13,65.34,0,0-5.09-23.54-10.5-41.01-7.47-24.12-22.15-50.41-31.99-54.63,0,0,14.85,31.21,15.76,38.18l-24.54-39.69Z" fill="#413029"/><path d="m172.89,283.34s1.32,48.48-36.56,96.43c0,0,42.38-42.12,36.56-96.43Z" fill="#413029"/><path d="m208.89,354.6s26.87,57.31-9.72,87.51c0,0,20.47-21.24,16.63-41.19,0,0-4.35,28.91-19.45,38.38,0,0,24.56-47.85,12.54-84.69Z" fill="#413029"/><path d="m192.75,270.48s-9.81,62.88,10.5,85.11c12.88,14.09,17.2,21.86,17.2,31.98,0,0-8.65-17.71-16.94-25.81-5.43-5.3-9.39-11.9-11.55-19.17-4.93-16.58-6.84-55.98.79-72.12Z" fill="#1c1110" opacity=".48"/><path d="m139.26,309.59s-10.08,15.93-51.99,35.06c-1.1.5-2.22.94-3.36,1.34-4.14,1.43-16.73,6.99-14.68,21.39,0,0-2.46-13.81,19.95-20.26,0,0,38.42-10.52,50.08-37.53Z" fill="#413029"/><path d="m300.75,21.96s-.91-2.7-7.54-6.43c-19.28-10.83-113.52,4.54-155.77,134.77,0,0,2.9-9.41,13.03-20.27,0,0-18.46,40.18-15.93,61.53,0,0,13.03-51.4,18.1-56.83,0,0-11.33,33.26-11.33,42.76,0,0,10.98-41.61,16.06-43.42,0,0-4.42,8.52-4.42,13.43,0,0,20.52-29.27,20.32-34.41-1.35-33.12,95.24-130.32,118.09-81.06,0,0-1.51-2.99-2.49-2.99,0,0,2.97,1.5,3.7,3.41,0,0-.36-1.7-.72-1.91s1.6,1.24,1.6,1.24l-1.08-1.81,2.12-.36-1.39-1.29,3.71-1.29-1.24-.57,1.86-.46-.83-.57,2.12-.41-1.29-1.03,3.35-2.04Z" fill="#413029"/><path d="m300.27,41.59s41-1.44,44.77,27.69c5.1,39.41,59.07,39.02,53,32.01-3.49,7.44-47.75-.91-48.31-24.43-.08-3.48-1.97-42.22-49.46-35.26Z" fill="#413029"/><path d="m288.12,29.29s-19.29-18.68-46.85,9.8c0,0-14.09,14.25-22.05,17.45-13.48,5.42-30.64,39.95-34.49,49.92-.76,1.96-3.17,7.26-4.11,9.14-7.35,14.75-41.07,73.81-67.19,90.5,0,0,22.41-14.92,58.28-79.53,5.66-10.2,13.71-30.63,13.71-30.63l-36.01,36.85,34.91-40.11s17.45-17.76,17.15-24.8-21.44,15-22.97,22.97c0,0-2.41-18.34,34.49-37.74.7-.37,1.35-.82,1.93-1.35,3.91-3.55,8.74-19.39,13.4-22.89,8.89-6.67,60.16-28.22,72.87-6.06l-.2.52h-1.38s.76,1.64.76,1.64l-.9.28.12,1.81-.81.21.41,1.15-.97.41-.14,1.33-1.15.28.2,3.13-1.08.18.5,1.35-.78.39-.03,1.76-7.66-7.96Z" fill="#413029"/><path d="m90.7,455.93s13.12,17.81,5.86,47.8c0,0,15-31.4-5.86-47.8Z" fill="#413029"/><path d="m130.58,218.38s-1.54,4.66-3.77,12.15c-8.48,28.46-26.92,97.87-8.94,109.14,0,0-15.26-19.33,12.55-110.53,0,0,6.44,67.47-13.22,91.55,4.43.36,30.62-38.1,13.4-102.31Z" fill="#33231f"/><path d="m420.46,187.5s1.43,27.63-3.19,33.9l3.19-33.9Z" fill="#261917"/><path d="m150.83,210.75s-19.58,27.66,16.16,63.71c0,0-15.14-20.1-13.32-37.87,0,0,29.17,25.43,26.99,53.72,0,0,3.44-49.29-12.11-60.54s-17.72-19.02-17.72-19.02Z" fill="#1c1110" opacity=".48"/><path d="m307.68,25.74s34.45-1.16,63.1,42.4c0,0-18.55-21.2-21.7-21.03,0,0,9.94,10.43,10.93,12.59s-14.74-16.23-27-22.03-28.32-.83-28.32-.83c0,0,8.28-3.64,15.4-3.64,0,0-12.59-2.65-14.41-.99,0,0-1.16-2.15,11.26-1.99l-9.27-4.47Z" fill="#4f3c36"/><path d="m298.23,22.02s-44.52-36.45-121.12,55.42c0,0,31.64-34.7,43.21-38.62,0,0-18.24,13.71-18.55,21.39,0,0,9.6-18.23,37.75-29.24l-7.97,2.47s12.34-11.2,25.65-11.86,32.32-1.16,36.23,10.22c0,0,1.52-7.39-5.68-10.88,0,0,6.43,3.27,7.8,5.56s-.43-4.71-.43-4.71l3.11.25Z" fill="#4f3c36"/><path d="m187.02,355.8s-3.2,23.98-15.07,47.28,8.22,65.32,8.22,65.32c0,0-5.02-29.23-4.11-43.85,0,0,12.56,27.18,9.14,39.74,0,0,6.62-20.1,2.28-31.52,0,0,6.17,2.28,5.71,9.82,0,0,2.74-19.87-2.97-29.69,0,0,0,12.33-1.14,14.85,0,0-5.94-9.36-9.59-10.96,0,0-5.02,2.74,2.51-16.67s5.02-44.31,5.02-44.31Z" fill="#1c1110" opacity=".48"/><path d="m145.24,332.73s-21.03,38.62-35.95,45.13c0,0,31.46-39.72,35.95-45.13Z" fill="#281a18"/><path d="m115.58,341.91s-41.53,16.3-47.77,37.63c0,0,10.46-16.06,17.6-18.16,0,0-8.92,11.43-12.49,17.19,0,0,15.89-15.81,16.7-19.14s26.35-17.03,26.35-17.03" fill="#281a18"/><path d="m94.44,370.94s-27.46,12.1-10.75,40.33c0,0-2.69-14.79-.77-19.78l1.73,6.53s-2.28-11.23,3.15-17.37c1.97-2.23,3.81-4.57,5.25-7.18l1.39-2.53Z" fill="#281a18"/><path d="m137.9,352.49s-38.41,17.83-45.27,67.9c0,0,7.75-28.36,14.37-34.41,0,0-7.79,28.65-10.12,33.31s12.07-21.12,12.62-31.41c0,0,2.94,1.66-1.23,20.85,0,0,7.41-14.81,6.45-20.99l-2.38,5.08-.22-9.47-2.33,2.06s-1.65-4.12,7.41-10.84l-3.43.96s5.73-8.27,24.14-23.04Z" fill="#33231f"/><path d="m177.54,288.55s4.76,51.22-13.7,70.28c0,0,19.95-16.97,19.06-39.61s-5.36-30.67-5.36-30.67Z" fill="#1c1110"/><path d="m390.98,166.09s17.22,38.11-12.63,56.48c0,0,20.89-22.96,12.63-56.48Z" fill="#261917"/><path d="m409.9,174.07s3.63,6.16,3.74,19.26c0,0-2.86-18.05-3.74-19.26Z" fill="#261917"/></g></g><g id="_אוזן_שמאל"><path d="m158.94,205.11c-.26,2.13-2.82,10.2,5.44,14.49,1.5.78,3.28.86,4.81.15,1.75-.81,3.87-2.56,5.16-6.32,0,0,.23-7.85-1.87-15.09-1.91-6.59-4.66-11.89-7.93-9.69-.74.5-1.27,1.26-1.61,2.09-.94,2.3-3.26,8.39-4,14.38Z" fill="#efcbb4"/><path d="m174.29,212.34s-6.46,8.81-10.9,4.71c-1.19-1.1-1.69-2.77-1.51-4.38.42-3.68.54-8.58.56-9.62,0-.14-.03-.27-.08-.4-1.45-3.31-.07-5,.78-5.68.29-.23.7-.28,1.03-.11.87.43,1.57.56,2.12.5.93-.09,1.22-.93.68-1.7-.75-1.05-.78-2.15-1.14-2.84-.97-1.9-.68-2.34-.68-2.34,0,0,1.02-3.83,3.65,2.92.1.27.21.52.31.77.5,1.2,2.04.38,1.6-.84-1.72-4.75-4.37-5.91-6.05-5.1-2.94,1.42-6.52,18.64-6.35,22.25.09,1.98.88,3.93,1.48,5.04.03.06.07.1.11.15l-.02.02s3.47,5.6,7.85,4.55c3.77-.9,7.25-5.22,6.57-7.9Z" fill="#ddb39e"/><path d="m166.31,205.51c0,1.75-1.82,4.78-3.57,4.78s-3.31-2.98-2.76-4.78c.51-1.67,1.95-3.22,3.69-3.22s2.63,1.48,2.63,3.22Z" fill="#b5afac"/><path d="m163.46,206.07c0,.76-.62,1.38-1.38,1.38s.11-.66.11-1.42-.87-1.33-.11-1.33,1.38.62,1.38,1.38Z" fill="#96918f"/><path d="m163.31,206.09c0,.76-.62,1.38-1.38,1.38s.11-.66.11-1.42-.87-1.33-.11-1.33,1.38.62,1.38,1.38Z" fill="#c9beb9"/><path d="m162.66,202.46s3.88,1.95,1.84,4.92-3.32,2.07-3.32,2.07c0,0,1.79,2.49,4.12-1.08s.28-7.23-2.64-5.91Z" fill="#a59f9d"/><path d="m164.69,184.45s-.2,5.57.92,9.33c.21.72.62,1.34,1.06,1.86.53.62,1.55.26,1.58-.55.06-1.98.02-4.71-.75-3.99-.74.68,4.38,10.93,5.37,8.73-1.19.05-4.16-8.79-3.22-13.13.91-4.2-4.96-2.24-4.96-2.24Z" fill="#261917"/></g><g id="_אוזן_ימין"><path d="m355.21,244.2s11.72,7.42,14.48-12.84c0,0,.09-6.81.86-10.29.46-2.09.03-5.74.2-7.44s2.99-9.49,2.99-9.49l-6.89,15.04c-1.28,2.79-1.93,5.81-1.94,8.88,0,5.81-.26,15.14-1.82,15.35-2.27.3-2.33-18.08-2.33-18.08l-5.55,18.87Z" fill="#efcbb4"/><path d="m354.61,243.63s1.95,3.54,8.52,1.14c0,0-2.72-7.93-2.21-18.2l4.99-23.87-11.29,40.94Z" fill="#ddb39e"/><path d="m361.27,229.77c0,1.75,1.82,4.78,3.57,4.78s3.31-2.98,2.76-4.78c-.51-1.67-1.95-3.22-3.69-3.22s-2.63,1.48-2.63,3.22Z" fill="#b5afac"/><path d="m364.12,230.33c0,.76.62,1.38,1.38,1.38s-.11-.66-.11-1.42.87-1.33.11-1.33-1.38.62-1.38,1.38Z" fill="#96918f"/><path d="m364.27,230.35c0,.76.62,1.38,1.38,1.38s-.11-.66-.11-1.42.87-1.33.11-1.33-1.38.62-1.38,1.38Z" fill="#c9beb9"/><path d="m364.93,226.73s-3.88,1.95-1.84,4.92,3.32,2.07,3.32,2.07c0,0-1.79,2.49-4.12-1.08s-.28-7.23,2.64-5.91Z" fill="#a59f9d"/><path d="m364.93,226.73l-.18,8.26-3.47.13s-.26-7.55,0-8.21,3.23-1.18,3.23-1.18l.42,1Z" fill="#33231f"/></g><circle id="_נק_חן" cx="327.57" cy="226.58" r="1.36" fill="#a76653" opacity=".85"/></g></g></svg>