<?xml version="1.0" encoding="UTF-8"?><svg id="Layer_2" xmlns="http://www.w3.org/2000/svg" width="190.01" height="187.96" viewBox="0 0 190.01 187.96"><g id="Layer_4"><rect width="190.01" height="187.96" fill="none"/><g opacity=".77"><path d="m111.09,34.78c16.67,20.77,46.09,68.21,11.68,80.94-8.6,3.18-15.67,4.52-27.13,22.13-12.69,19.51-110.35-20.99-66.46-65.27,13.88-14.01,16.88-18.51,21.49-30.25,11.15-28.39,47.12-24.12,60.41-7.56Z" fill="#d5d3b3"/></g><circle cx="94.53" cy="92.23" r="55.82" fill="none" stroke="#494c54" stroke-linecap="round" stroke-linejoin="round" stroke-width="2"/><ellipse cx="95.3" cy="92.56" rx="25.76" ry="56.01" fill="none" stroke="#494c54" stroke-linecap="round" stroke-linejoin="round" stroke-width="2"/><path d="m39.29,92.56s47.07,8.26,110.59,0" fill="none" stroke="#494c54" stroke-linecap="round" stroke-linejoin="round" stroke-width="2"/><path d="m50.55,125.79s40.94-25.15,87.43,1.58" fill="none" stroke="#494c54" stroke-linecap="round" stroke-linejoin="round" stroke-width="2"/><path d="m50.22,59.74s42.02,25.55,88.51-1.18" fill="none" stroke="#494c54" stroke-linecap="round" stroke-linejoin="round" stroke-width="2"/></g></svg>